<svg width="100" height="100" viewBox="0 0 100 100" fill="none" xmlns="http://www.w3.org/2000/svg">
<g clip-path="url(#clip0_1155_1703)">
<path d="M49.6401 96.45C40.382 96.45 31.3317 93.7047 23.6339 88.5611C15.936 83.4176 9.93624 76.1068 6.3933 67.5534C2.85036 59 1.92337 49.5881 3.72954 40.5078C5.53571 31.4276 9.99394 23.0868 16.5404 16.5403C23.0869 9.99384 31.4277 5.53562 40.5079 3.72945C49.5882 1.92327 59.0001 2.85027 67.5535 6.39321C76.1069 9.93614 83.4176 15.9359 88.5612 23.6338C93.7047 31.3316 96.4501 40.3819 96.4501 49.64C96.4505 55.7873 95.24 61.8745 92.8878 67.5539C90.5355 73.2334 87.0875 78.3938 82.7407 82.7406C78.3939 87.0874 73.2335 90.5354 67.554 92.8877C61.8746 95.2399 55.7874 96.4504 49.6401 96.45V96.45Z" fill="url(#paint0_linear_1155_1703)"/>
<path fill-rule="evenodd" clip-rule="evenodd" d="M95.54 49.64C95.54 58.7182 92.848 67.5925 87.8045 75.1407C82.7609 82.6889 75.5923 88.572 67.2052 92.0461C58.818 95.5201 49.5891 96.4291 40.6854 94.658C31.7816 92.887 23.603 88.5154 17.1838 82.0962C10.7646 75.677 6.39302 67.4984 4.62196 58.5946C2.85089 49.6909 3.75987 40.462 7.23393 32.0748C10.708 23.6877 16.5911 16.5191 24.1393 11.4755C31.6875 6.43199 40.5618 3.74 49.64 3.74C55.6677 3.73998 61.6363 4.9272 67.2052 7.23388C72.774 9.54057 77.834 12.9215 82.0963 17.1837C86.3585 21.446 89.7394 26.5059 92.0461 32.0748C94.3528 37.6437 95.54 43.6123 95.54 49.64V49.64ZM49.64 3.62732e-07C59.4579 3.62732e-07 69.0553 2.91134 77.2185 8.36585C85.3818 13.8204 91.7442 21.5731 95.5014 30.6436C99.2585 39.7141 100.242 49.6951 98.3262 59.3243C96.4108 68.9535 91.6831 77.7985 84.7408 84.7408C77.7985 91.6831 68.9535 96.4108 59.3243 98.3262C49.6951 100.242 39.7141 99.2585 30.6436 95.5014C21.5731 91.7442 13.8204 85.3818 8.36585 77.2185C2.91134 69.0553 3.62732e-07 59.4579 3.62732e-07 49.64C-0.000787738 43.121 1.28265 36.6656 3.77702 30.6427C6.27138 24.6197 9.9278 19.1471 14.5375 14.5375C19.1471 9.9278 24.6197 6.27138 30.6427 3.77702C36.6656 1.28265 43.121 -0.000787738 49.64 3.62732e-07V3.62732e-07Z" fill="#F2F1F0"/>
<path fill-rule="evenodd" clip-rule="evenodd" d="M92.7296 49.6401C92.7296 58.1625 90.2024 66.4935 85.4676 73.5796C80.7328 80.6657 74.0031 86.1887 66.1294 89.4501C58.2557 92.7114 49.5918 93.5648 41.2331 91.9021C32.8745 90.2395 25.1966 86.1356 19.1703 80.1093C13.1441 74.0831 9.04017 66.4052 7.37753 58.0465C5.7149 49.6879 6.56822 41.0239 9.8296 33.1503C13.091 25.2766 18.6139 18.5469 25.7 13.8121C32.7862 9.07727 41.1172 6.55009 49.6396 6.55009C55.2983 6.54974 60.9017 7.66407 66.1298 9.82942C71.3579 11.9948 76.1082 15.1687 80.1096 19.1701C84.1109 23.1714 87.2849 27.9218 89.4502 33.1499C91.6156 38.3779 92.7299 43.9813 92.7296 49.6401V49.6401ZM49.6396 2.81009C58.9017 2.81009 67.9558 5.55662 75.6569 10.7024C83.3581 15.8481 89.3604 23.162 92.9049 31.719C96.4493 40.2761 97.3767 49.692 95.5697 58.7762C93.7628 67.8603 89.3027 76.2046 82.7534 82.7539C76.2041 89.3032 67.8598 93.7633 58.7757 95.5703C49.6915 97.3772 40.2756 96.4498 31.7185 92.9054C23.1614 89.3609 15.8476 83.3586 10.7018 75.6574C5.5561 67.9563 2.80957 58.9022 2.80957 49.6401C2.81076 37.2204 7.745 25.3097 16.5271 16.5276C25.3091 7.7455 37.2198 2.81125 49.6396 2.81006V2.81009Z" fill="#0078D4"/>
<path fill-rule="evenodd" clip-rule="evenodd" d="M92.7637 49.6401C92.7637 58.1625 90.2366 66.4935 85.5018 73.5796C80.767 80.6657 74.0372 86.1887 66.1636 89.4501C58.2899 92.7114 49.6259 93.5648 41.2673 91.9021C32.9087 90.2395 25.2308 86.1356 19.2045 80.1093C13.1783 74.0831 9.07435 66.4052 7.41171 58.0465C5.74908 49.6879 6.6024 41.0239 9.86378 33.1503C13.1252 25.2766 18.6481 18.5469 25.7342 13.8121C32.8203 9.07727 41.1514 6.55009 49.6738 6.55009C55.3325 6.54974 60.9359 7.66407 66.164 9.82942C71.3921 11.9948 76.1424 15.1687 80.1437 19.1701C84.1451 23.1714 87.3191 27.9218 89.4844 33.1499C91.6498 38.3779 92.7641 43.9813 92.7637 49.6401V49.6401ZM49.6738 2.81009C58.9359 2.81009 67.9899 5.55662 75.6911 10.7024C83.3923 15.8481 89.3946 23.162 92.939 31.719C96.4835 40.2761 97.4109 49.692 95.6039 58.7762C93.797 67.8603 89.3369 76.2046 82.7876 82.7539C76.2383 89.3032 67.894 93.7633 58.8098 95.5703C49.7257 97.3772 40.3097 96.4498 31.7527 92.9054C23.1956 89.3609 15.8818 83.3586 10.736 75.6574C5.59028 67.9563 2.84375 58.9022 2.84375 49.6401C2.84494 37.2204 7.77918 25.3097 16.5612 16.5276C25.3433 7.7455 37.254 2.81125 49.6738 2.81006V2.81009Z" fill="#0078D4"/>
<path d="M49.6395 84.8044C55.2652 84.8044 59.8256 80.2439 59.8256 74.6182C59.8256 68.9926 55.2652 64.4321 49.6395 64.4321C44.0139 64.4321 39.4534 68.9926 39.4534 74.6182C39.4534 80.2439 44.0139 84.8044 49.6395 84.8044Z" fill="url(#paint1_linear_1155_1703)" stroke="#50E6FF" stroke-width="0.60866" stroke-miterlimit="10"/>
<path d="M52.437 75.664C52.5806 75.664 52.7227 75.6923 52.8554 75.7472C52.988 75.8022 53.1086 75.8827 53.2101 75.9842C53.3116 76.0857 53.3921 76.2063 53.4471 76.3389C53.502 76.4715 53.5303 76.6137 53.5303 76.7573V77.2038C53.5303 77.4825 53.4432 77.7543 53.2811 77.9811C52.8519 78.5243 52.2944 78.9524 51.6588 79.2269C51.0232 79.5014 50.3294 79.6137 49.6396 79.5537C48.9501 79.6139 48.2564 79.5016 47.6211 79.2269C46.9858 78.9523 46.4288 78.5239 46.0003 77.9803C45.8389 77.7538 45.7522 77.4826 45.7522 77.2045V76.7573C45.7522 76.6137 45.7805 76.4716 45.8354 76.3389C45.8903 76.2063 45.9709 76.0857 46.0724 75.9842C46.1739 75.8827 46.2944 75.8022 46.4271 75.7472C46.5597 75.6923 46.7019 75.664 46.8455 75.664H52.437ZM49.6396 69.8326C50.1204 69.8326 50.5903 69.9751 50.9901 70.2422C51.3898 70.5093 51.7013 70.8889 51.8853 71.3331C52.0693 71.7772 52.1174 72.266 52.0236 72.7375C51.9299 73.209 51.6984 73.6421 51.3584 73.9821C51.0185 74.322 50.5854 74.5535 50.1138 74.6473C49.6423 74.7411 49.1536 74.693 48.7094 74.509C48.2653 74.325 47.8857 74.0135 47.6186 73.6137C47.3515 73.214 47.2089 72.744 47.2089 72.2633C47.2089 71.6186 47.465 71.0004 47.9208 70.5445C48.3767 70.0887 48.995 69.8326 49.6396 69.8326L49.6396 69.8326Z" fill="#0078D4"/>
<path d="M35.4585 20.5549L44.4332 26.0144" stroke="#F3F3F3" stroke-width="5.57008" stroke-miterlimit="10"/>
<path d="M41.6089 14.6543L46.6913 23.8477" stroke="#F3F3F3" stroke-width="5.57008" stroke-miterlimit="10"/>
<path d="M49.8766 12.5843L49.7268 23.088" stroke="#F3F3F3" stroke-width="5.57008" stroke-miterlimit="10"/>
<path d="M58.0813 14.889L52.7388 23.9338" stroke="#F3F3F3" stroke-width="5.57008" stroke-miterlimit="10"/>
<path d="M64.0608 20.9627L54.9341 26.164" stroke="#F3F3F3" stroke-width="5.57008" stroke-miterlimit="10"/>
<path d="M66.2384 29.2026L55.7336 29.1891" stroke="#F3F3F3" stroke-width="5.57008" stroke-miterlimit="10"/>
<path d="M64.0384 37.4369L54.925 32.2122" stroke="#F3F3F3" stroke-width="5.57008" stroke-miterlimit="10"/>
<path d="M58.0439 43.4946L52.7246 34.4361" stroke="#F3F3F3" stroke-width="5.57008" stroke-miterlimit="10"/>
<path d="M49.8326 45.7786L49.7097 35.2746" stroke="#F3F3F3" stroke-width="5.57008" stroke-miterlimit="10"/>
<path d="M41.5718 43.6871L46.6777 34.5067" stroke="#F3F3F3" stroke-width="5.57008" stroke-miterlimit="10"/>
<path d="M35.437 37.7717L44.4257 32.3353" stroke="#F3F3F3" stroke-width="5.57008" stroke-miterlimit="10"/>
<path d="M33.0461 29.5897L43.5478 29.3305" stroke="#F3F3F3" stroke-width="5.57008" stroke-miterlimit="10"/>
<path d="M49.6397 38.7329C54.915 38.7329 59.1915 34.4564 59.1915 29.1811C59.1915 23.9058 54.915 19.6293 49.6397 19.6293C44.3644 19.6293 40.0879 23.9058 40.0879 29.1811C40.0879 34.4564 44.3644 38.7329 49.6397 38.7329Z" fill="#0078D4"/>
<g opacity="0.2">
<path d="M43.9551 29.44V35.3188C43.9551 35.4134 43.9737 35.5072 44.0099 35.5946C44.0462 35.6821 44.0993 35.7615 44.1662 35.8285C44.2331 35.8954 44.3126 35.9485 44.4 35.9847C44.4875 36.0209 44.5812 36.0396 44.6759 36.0396H47.7448V28.7193H44.6759C44.5812 28.7192 44.4875 28.7379 44.4 28.7741C44.3126 28.8103 44.2331 28.8634 44.1662 28.9303C44.0993 28.9973 44.0462 29.0767 44.0099 29.1642C43.9737 29.2516 43.9551 29.3454 43.9551 29.44Z" fill="#003067"/>
<path d="M54.6034 25.5567H51.5345V22.8355C51.5345 22.6443 51.4586 22.461 51.3234 22.3258C51.1883 22.1907 51.005 22.1147 50.8138 22.1147H48.4656C48.371 22.1147 48.2773 22.1334 48.1898 22.1696C48.1024 22.2058 48.0229 22.2589 47.956 22.3258C47.889 22.3928 47.836 22.4722 47.7997 22.5597C47.7635 22.6471 47.7449 22.7408 47.7449 22.8355V36.0395H54.6034C54.6981 36.0395 54.7918 36.0209 54.8792 35.9847C54.9667 35.9485 55.0462 35.8954 55.1131 35.8284C55.18 35.7615 55.2331 35.6821 55.2693 35.5946C55.3055 35.5072 55.3242 35.4134 55.3242 35.3188V26.2775C55.3242 26.1828 55.3055 26.0891 55.2693 26.0017C55.2331 25.9142 55.18 25.8348 55.1131 25.7678C55.0462 25.7009 54.9667 25.6478 54.8792 25.6116C54.7918 25.5754 54.6981 25.5567 54.6034 25.5567V25.5567Z" fill="#003067"/>
</g>
<path d="M44.6758 28.0626H47.7448V35.3829H44.6758C44.4847 35.3829 44.3014 35.307 44.1662 35.1718C44.031 35.0366 43.9551 34.8533 43.9551 34.6622V28.7834C43.9551 28.5922 44.031 28.4089 44.1662 28.2737C44.3014 28.1386 44.4847 28.0626 44.6758 28.0626Z" fill="white"/>
<path d="M50.8138 21.4581H48.4656C48.371 21.4581 48.2773 21.4768 48.1898 21.513C48.1024 21.5492 48.0229 21.6023 47.956 21.6692C47.889 21.7361 47.836 21.8156 47.7997 21.903C47.7635 21.9905 47.7449 22.0842 47.7449 22.1789V35.3829H51.5345V22.1789C51.5345 21.9877 51.4586 21.8044 51.3234 21.6692C51.1883 21.534 51.0049 21.4581 50.8138 21.4581V21.4581Z" fill="#9CEBFF"/>
<path d="M54.6034 35.3829C54.7945 35.3829 54.9778 35.307 55.113 35.1718C55.2482 35.0366 55.3241 34.8533 55.3241 34.6622V25.6209C55.3241 25.4297 55.2482 25.2464 55.113 25.1112C54.9778 24.9761 54.7945 24.9001 54.6034 24.9001H51.5344V35.3829H54.6034Z" fill="#50E6FF"/>
<path d="M83.9369 52.654C83.9434 52.6086 83.9563 52.5631 83.9629 52.5242C84.0846 51.8819 84.0634 51.2206 83.9007 50.5874C83.7381 49.9542 83.438 49.3646 83.0218 48.8605C82.6056 48.3563 82.0835 47.95 81.4926 47.6704C80.9016 47.3908 80.2564 47.2447 79.6026 47.2426C79.2682 47.2415 78.9349 47.2807 78.6099 47.3594C77.9472 46.3141 76.963 45.5124 75.8054 45.0747C74.6477 44.6371 73.3793 44.5872 72.1909 44.9326C71.0024 45.278 69.9583 46 69.2156 46.99C68.4729 47.98 68.0718 49.1843 68.0726 50.4219C68.0726 50.4998 68.0726 50.5777 68.0791 50.6555C67.7822 50.5556 67.471 50.5052 67.1577 50.5063C66.4369 50.5066 65.7437 50.7839 65.2215 51.2809C64.6994 51.778 64.3882 52.4566 64.3524 53.1766C64.3165 53.8966 64.5588 54.6028 65.029 55.1492C65.4992 55.6956 66.1614 56.0404 66.8787 56.1123L79.5961 56.1383C80.3877 56.1374 81.1648 55.926 81.8478 55.5258C82.5307 55.1255 83.095 54.5509 83.4827 53.8608C83.5022 53.8219 83.5282 53.783 83.5476 53.744C83.7194 53.3971 83.85 53.0313 83.9369 52.654V52.654Z" fill="white"/>
<path d="M15.3455 52.654C15.339 52.6086 15.3261 52.5631 15.3196 52.5242C15.1978 51.8819 15.219 51.2206 15.3817 50.5874C15.5443 49.9542 15.8444 49.3646 16.2606 48.8605C16.6768 48.3563 17.1989 47.95 17.7899 47.6704C18.3808 47.3908 19.0261 47.2447 19.6798 47.2426C20.0142 47.2415 20.3475 47.2807 20.6725 47.3594C21.3352 46.3141 22.3194 45.5124 23.477 45.0747C24.6347 44.6371 25.9031 44.5872 27.0916 44.9326C28.28 45.278 29.3241 46 30.0668 46.99C30.8095 47.98 31.2106 49.1843 31.2098 50.4219C31.2098 50.4998 31.2098 50.5777 31.2033 50.6555C31.5002 50.5556 31.8115 50.5052 32.1247 50.5063C32.8456 50.5066 33.5388 50.7839 34.0609 51.2809C34.5831 51.778 34.8942 52.4566 34.9301 53.1766C34.9659 53.8966 34.7237 54.6028 34.2534 55.1492C33.7832 55.6956 33.121 56.0404 32.4037 56.1123L19.6863 56.1383C18.8947 56.1374 18.1176 55.926 17.4346 55.5258C16.7517 55.1255 16.1874 54.5509 15.7997 53.8608C15.7802 53.8219 15.7543 53.783 15.7348 53.744C15.563 53.3971 15.4324 53.0313 15.3455 52.654V52.654Z" fill="white"/>
<path d="M20.9782 61.615C30.9396 63.0411 43.386 61.5594 49.1998 52.2956L50.0795 52.771C49.4651 54.0526 48.7209 55.2678 47.8587 56.3976C41.3942 64.4601 30.2842 66.7054 20.4072 66.5092L20.9782 61.615H20.9782Z" fill="white"/>
<path d="M78.8721 66.5091C67.7612 66.7877 54.4071 63.6228 49.1997 52.7711L50.0795 52.2956C51.494 54.5394 53.3733 56.4537 55.5907 57.9094C62.2204 62.137 70.7007 62.6786 78.3012 61.6151L78.8721 66.5091Z" fill="white"/>
<path d="M45.5393 53.3167L49.6396 47.5271L53.7399 53.3167H45.5393Z" fill="white"/>
</g>
<defs>
<linearGradient id="paint0_linear_1155_1703" x1="47.8697" y1="-15.1531" x2="51.8525" y2="130.615" gradientUnits="userSpaceOnUse">
<stop stop-color="#00ABDE"/>
<stop offset="1" stop-color="#007ED8"/>
</linearGradient>
<linearGradient id="paint1_linear_1155_1703" x1="49.6395" y1="84.8044" x2="49.6395" y2="64.4321" gradientUnits="userSpaceOnUse">
<stop stop-color="#50E6FF"/>
<stop offset="1" stop-color="#C3F1FF"/>
</linearGradient>
<clipPath id="clip0_1155_1703">
<rect width="99.2799" height="99.28" fill="white"/>
</clipPath>
</defs>
</svg>
