<svg width="100" height="100" viewBox="0 0 100 100" fill="none" xmlns="http://www.w3.org/2000/svg">
<g clip-path="url(#clip0_1135_3414)">
<path d="M49.6401 96.4499C40.382 96.4499 31.3317 93.7045 23.6339 88.561C15.936 83.4174 9.93624 76.1067 6.3933 67.5533C2.85036 58.9999 1.92337 49.588 3.72954 40.5077C5.53571 31.4275 9.99394 23.0867 16.5404 16.5402C23.0869 9.99372 31.4277 5.5355 40.5079 3.72933C49.5882 1.92315 59.0001 2.85015 67.5535 6.39308C76.1069 9.93602 83.4176 15.9358 88.5612 23.6336C93.7047 31.3315 96.4501 40.3817 96.4501 49.6399C96.4505 55.7872 95.24 61.8744 92.8878 67.5538C90.5355 73.2332 87.0875 78.3937 82.7407 82.7405C78.3939 87.0873 73.2335 90.5353 67.554 92.8876C61.8746 95.2398 55.7874 96.4503 49.6401 96.4499V96.4499Z" fill="url(#paint0_linear_1135_3414)"/>
<path fill-rule="evenodd" clip-rule="evenodd" d="M95.54 49.6399C95.54 58.718 92.848 67.5923 87.8045 75.1406C82.7609 82.6888 75.5923 88.5719 67.2052 92.046C58.818 95.52 49.5891 96.429 40.6854 94.6579C31.7816 92.8869 23.603 88.5153 17.1838 82.0961C10.7646 75.6769 6.39302 67.4983 4.62196 58.5945C2.85089 49.6908 3.75987 40.4618 7.23393 32.0747C10.708 23.6876 16.5911 16.519 24.1393 11.4754C31.6875 6.43187 40.5618 3.73988 49.64 3.73988C55.6677 3.73986 61.6363 4.92708 67.2052 7.23377C72.774 9.54045 77.834 12.9214 82.0963 17.1836C86.3585 21.4458 89.7394 26.5058 92.0461 32.0747C94.3528 37.6435 95.54 43.6122 95.54 49.6399V49.6399ZM49.64 -0.000106449C59.4579 -0.000106449 69.0552 2.91123 77.2185 8.36574C85.3818 13.8203 91.7442 21.573 95.5014 30.6435C99.2585 39.714 100.242 49.695 98.3262 59.3242C96.4108 68.9534 91.6831 77.7984 84.7408 84.7407C77.7985 91.683 68.9535 96.4107 59.3243 98.3261C49.6951 100.241 39.7141 99.2584 30.6436 95.5013C21.5731 91.7441 13.8204 85.3816 8.36584 77.2184C2.91133 69.0551 -1.61629e-06 59.4577 3.61524e-07 49.6399C-0.000786426 43.1208 1.28265 36.6655 3.77702 30.6425C6.27138 24.6196 9.92781 19.147 14.5375 14.5374C19.1471 9.9277 24.6197 6.27127 30.6427 3.77691C36.6656 1.28254 43.121 -0.000894549 49.64 -0.000106449V-0.000106449Z" fill="#F2F1F0"/>
<path fill-rule="evenodd" clip-rule="evenodd" d="M92.7296 49.64C92.7296 58.1624 90.2024 66.4934 85.4676 73.5795C80.7328 80.6656 74.0031 86.1886 66.1294 89.45C58.2557 92.7113 49.5918 93.5647 41.2331 91.902C32.8745 90.2394 25.1966 86.1355 19.1703 80.1092C13.1441 74.083 9.04017 66.4051 7.37753 58.0464C5.7149 49.6878 6.56822 41.0238 9.8296 33.1502C13.091 25.2765 18.6139 18.5468 25.7 13.812C32.7862 9.07718 41.1172 6.55 49.6396 6.55C55.2983 6.54965 60.9017 7.66397 66.1298 9.82933C71.3579 11.9947 76.1082 15.1687 80.1096 19.17C84.1109 23.1713 87.2849 27.9217 89.4502 33.1498C91.6156 38.3778 92.7299 43.9812 92.7296 49.64ZM49.6396 2.81C58.9017 2.81 67.9558 5.55653 75.6569 10.7023C83.3581 15.848 89.3604 23.1619 92.9049 31.7189C96.4493 40.276 97.3767 49.6919 95.5697 58.7761C93.7628 67.8602 89.3027 76.2045 82.7534 82.7538C76.2041 89.3031 67.8598 93.7632 58.7757 95.5702C49.6915 97.3771 40.2756 96.4497 31.7185 92.9053C23.1614 89.3608 15.8476 83.3585 10.7018 75.6574C5.5561 67.9562 2.80957 58.9021 2.80957 49.64C2.81076 37.2203 7.74501 25.3096 16.5271 16.5275C25.3091 7.74544 37.2198 2.81119 49.6396 2.81V2.81Z" fill="#0078D4"/>
<path fill-rule="evenodd" clip-rule="evenodd" d="M92.7301 49.7835C92.7301 58.3059 90.2029 66.6369 85.4681 73.723C80.7333 80.8091 74.0036 86.3321 66.1299 89.5935C58.2562 92.8549 49.5923 93.7082 41.2336 92.0455C32.875 90.3829 25.1971 86.279 19.1708 80.2527C13.1446 74.2265 9.04066 66.5486 7.37802 58.1899C5.71538 49.8313 6.56871 41.1673 9.83009 33.2937C13.0915 25.42 18.6144 18.6903 25.7005 13.9555C32.7867 9.22069 41.1177 6.69351 49.6401 6.69351C55.2988 6.69316 60.9022 7.80748 66.1303 9.97284C71.3584 12.1382 76.1087 15.3122 80.1101 19.3135C84.1114 23.3149 87.2854 28.0652 89.4507 33.2933C91.6161 38.5213 92.7304 44.1248 92.7301 49.7835V49.7835ZM49.6401 2.95351C58.9022 2.95351 67.9563 5.70004 75.6574 10.8458C83.3586 15.9915 89.3609 23.3054 92.9053 31.8624C96.4498 40.4195 97.3772 49.8355 95.5702 58.9196C93.7633 68.0037 89.3032 76.348 82.7539 82.8973C76.2046 89.4466 67.8603 93.9067 58.7761 95.7137C49.692 97.5206 40.2761 96.5932 31.719 93.0488C23.1619 89.5043 15.8481 83.502 10.7023 75.8009C5.55659 68.0997 2.81006 59.0456 2.81006 49.7835C2.81124 37.3638 7.74548 25.4531 16.5276 16.671C25.3096 7.88892 37.2203 2.95467 49.64 2.95348L49.6401 2.95351Z" fill="#0078D4"/>
<path d="M29.2101 75.0397C28.2086 75.0428 27.2177 74.835 26.3018 74.4298C24.6138 73.6875 23.266 72.3386 22.5252 70.65C21.9705 69.3794 21.7894 67.977 22.003 66.6072C22.2165 65.2373 22.816 63.9567 23.7312 62.9152L31.2598 54.3111L23.7227 45.6969C22.5491 44.3741 21.9056 42.6644 21.9159 40.8961C21.9129 39.9419 22.0956 38.9962 22.4539 38.1118C22.8185 37.2189 23.3575 36.4077 24.0395 35.7257C24.7214 35.0436 25.5326 34.5045 26.4254 34.1398C27.2662 33.7996 28.1608 33.6115 29.0674 33.5842L51.1814 33.5821C52.2 33.5818 53.2076 33.7924 54.1409 34.2005C55.1509 34.6355 56.0444 35.3023 56.7488 36.1468L68.4322 49.5118C69.5978 50.8415 70.2397 52.55 70.2379 54.3183C70.2362 56.0865 69.5909 57.7937 68.4226 59.1211L56.6891 72.5441C55.9873 73.3487 55.1134 73.9849 54.1323 74.4058C53.2432 74.7924 52.2888 75.0068 51.3198 75.0375L51.2506 75.0397H29.2101Z" fill="#0078D4"/>
<path d="M65.8742 54.3109C65.8829 55.0222 65.623 55.7105 65.1464 56.2385L53.4037 69.6728C53.1282 69.9876 52.7854 70.2363 52.4006 70.4006C52.0153 70.5692 51.6014 70.6627 51.1811 70.6759H29.2103C28.8176 70.6788 28.4288 70.5984 28.0694 70.4399C27.3734 70.1373 26.8181 69.582 26.5155 68.886C26.2982 68.3772 26.229 67.8174 26.316 67.271C26.403 66.7247 26.6427 66.214 27.0073 65.7979L37.0584 54.3109L27.0073 42.8239C26.5307 42.2959 26.2708 41.6075 26.2795 40.8963C26.2765 40.5055 26.35 40.118 26.4959 39.7554C26.6413 39.4023 26.8552 39.0814 27.1253 38.8113C27.3954 38.5412 27.7163 38.3273 28.0694 38.1819C28.4326 38.0358 28.819 37.9558 29.2103 37.9459H51.1811C51.6009 37.9459 52.0161 38.033 52.4006 38.2016C52.7891 38.3684 53.1328 38.6245 53.4037 38.949L65.1464 52.3833C65.623 52.9113 65.8829 53.5997 65.8742 54.3109V54.3109ZM38.7303 52.403L49.0961 40.4636H29.2103C29.1556 40.4621 29.1013 40.4718 29.0505 40.4921C28.9998 40.5124 28.9537 40.5428 28.9152 40.5816C28.8752 40.6233 28.8441 40.6727 28.8238 40.7268C28.8035 40.7809 28.7945 40.8386 28.7972 40.8963C28.8026 40.9897 28.837 41.0791 28.8956 41.152L38.7303 52.403ZM29.2103 68.1583H38.5926L57.2393 47.1709L51.9089 41.0734C48.0799 45.4794 44.2509 49.8788 40.4219 54.2716C36.5929 58.6644 32.7508 63.0638 28.8956 67.4698C28.837 67.5427 28.8026 67.6321 28.7972 67.7255C28.7957 67.7801 28.8054 67.8345 28.8257 67.8852C28.846 67.936 28.8764 67.982 28.9152 68.0205C28.9944 68.0995 29.0988 68.1482 29.2103 68.1582L29.2103 68.1583ZM63.3565 54.3109C63.3537 54.211 63.3193 54.1146 63.2582 54.0356L58.9112 49.0788L41.9561 68.1582H51.1811C51.2402 68.158 51.2986 68.1456 51.3527 68.1219C51.4068 68.0983 51.4555 68.0638 51.4958 68.0206L63.2582 54.5863C63.3193 54.5072 63.3537 54.4108 63.3565 54.3109V54.3109Z" fill="white"/>
<path opacity="0.2" d="M56.7487 36.1468C56.0443 35.3023 55.1509 34.6355 54.1408 34.2005C53.2076 33.7924 52.2 33.5818 51.1814 33.5821L46.8016 33.5825C46.8015 33.6005 46.7988 33.6178 46.7988 33.6359C46.8002 36.2085 47.3603 38.7502 48.4405 41.0851L46.9139 46.9524C46.76 47.5428 46.7632 48.1632 46.9231 48.752C47.0831 49.3408 47.3943 49.8775 47.8258 50.3089C48.2573 50.7402 48.7942 51.0512 49.383 51.211C49.9719 51.3707 50.5923 51.3737 51.1826 51.2196L57.0526 49.6913C60.8713 51.4678 65.2017 51.8112 69.2526 50.6587C69.0167 50.2509 68.7419 49.8669 68.4322 49.5118L56.7487 36.1468Z" fill="#1F56A3"/>
<path d="M64.4913 18.1256C66.8433 18.1266 69.1642 18.6624 71.2785 19.6925C73.3928 20.7227 75.2452 22.2202 76.6954 24.0717C78.1457 25.9233 79.1559 28.0804 79.6497 30.3799C80.1434 32.6794 80.1077 35.0611 79.5453 37.3448C78.9829 39.6285 77.9085 41.7544 76.4034 43.5617C74.8983 45.369 73.0019 46.8103 70.8577 47.7766C68.7134 48.743 66.3775 49.209 64.0266 49.1395C61.6757 49.07 59.3714 48.4668 57.288 47.3755L50.6334 49.108C50.411 49.1659 50.1773 49.1647 49.9555 49.1045C49.7337 49.0442 49.5315 48.927 49.3689 48.7645C49.2064 48.602 49.0892 48.3998 49.0289 48.178C48.9686 47.9561 48.9674 47.7224 49.0253 47.5L50.7568 40.8485C49.5165 38.4843 48.9073 35.8399 48.9881 33.1713C49.0689 30.5026 49.837 27.9 51.218 25.615C52.5991 23.3301 54.5465 21.4403 56.8717 20.1282C59.197 18.8162 61.8215 18.1264 64.4913 18.1255V18.1256Z" fill="white"/>
<path d="M66.4327 35.187H59.4504L59.2925 35.1976C59.014 35.2358 58.7586 35.3736 58.5738 35.5855C58.3889 35.7974 58.2871 36.0691 58.2871 36.3503C58.2871 36.6315 58.3889 36.9032 58.5738 37.1151C58.7586 37.327 59.014 37.4648 59.2925 37.503L59.4504 37.5136H66.4327L66.5906 37.503C66.8692 37.4648 67.1245 37.327 67.3093 37.1151C67.4941 36.9031 67.596 36.6315 67.596 36.3503C67.596 36.0691 67.4941 35.7974 67.3093 35.5855C67.1245 35.3736 66.8692 35.2358 66.5906 35.1976L66.4327 35.187ZM69.5321 29.7584H59.4504L59.2925 29.769C59.014 29.8072 58.7586 29.945 58.5738 30.1569C58.389 30.3688 58.2871 30.6405 58.2871 30.9217C58.2871 31.2029 58.389 31.4746 58.5738 31.6865C58.7586 31.8984 59.014 32.0362 59.2925 32.0744L59.4504 32.0849H69.5321L69.69 32.0744C69.9686 32.0362 70.2239 31.8984 70.4087 31.6865C70.5936 31.4746 70.6954 31.2029 70.6954 30.9217C70.6954 30.6405 70.5936 30.3688 70.4087 30.1569C70.2239 29.945 69.9686 29.8072 69.69 29.769L69.5321 29.7584Z" fill="#0078D4"/>
</g>
<defs>
<linearGradient id="paint0_linear_1135_3414" x1="47.8698" y1="-15.1532" x2="51.8525" y2="130.615" gradientUnits="userSpaceOnUse">
<stop stop-color="#00ABDE"/>
<stop offset="1" stop-color="#007ED8"/>
</linearGradient>
<clipPath id="clip0_1135_3414">
<rect width="99.2799" height="99.28" fill="white"/>
</clipPath>
</defs>
</svg>
