<svg width="181" height="190" viewBox="0 0 181 190" fill="none" xmlns="http://www.w3.org/2000/svg">
<path d="M90.9328 189C94.0145 188.994 97.0353 188.14 99.6629 186.529L161.663 148.87C164.45 147.11 166.74 144.666 168.316 141.771C169.891 138.876 170.699 135.625 170.663 132.329V57.6195C170.696 54.3242 169.887 51.0749 168.312 48.1802C166.737 45.2854 164.448 42.8412 161.663 41.0795L99.6629 3.41943C97.0287 1.83405 94.0122 0.996338 90.9378 0.996338C87.8633 0.996338 84.847 1.83405 82.2128 3.41943L20.2128 41.0995C17.4264 42.8598 15.1367 45.3037 13.5614 48.1987C11.9861 51.0938 11.1776 54.3437 11.2128 57.6394V132.339C11.1943 135.122 11.7689 137.877 12.8983 140.42C14.0277 142.964 15.6861 145.237 17.7628 147.089V147.089L82.1729 186.519C84.8098 188.135 87.8404 188.993 90.9328 189V189ZM91.5828 7.99951C93.5828 7.99951 96.0128 9.2094 97.7228 10.2594L158.483 47.4495C162.233 49.7295 164.353 56.3295 164.353 61.0795L163.723 132.379C163.723 137.129 160.523 141.379 156.723 143.679L96.3228 180.059C92.8928 182.149 90.1029 182.149 86.6629 180.059L25.4528 143.589C21.7028 141.309 18.6828 137.109 18.6828 132.379V58.6895C18.7146 56.3237 19.3234 54.0014 20.4561 51.9242C21.5888 49.847 23.2113 48.0775 25.1828 46.7694L85.7628 10.2095C87.5128 9.16947 89.6328 7.94946 91.5828 7.94946V7.99951Z" fill="url(#paint0_linear_857_279)"/>
<path fill-rule="evenodd" clip-rule="evenodd" d="M98.8328 11.5304C96.46 10.0603 93.7241 9.28149 90.9328 9.28149C88.1415 9.28149 85.4057 10.0603 83.0329 11.5304L26.9029 45.8605C24.3763 47.4719 22.3031 49.7019 20.8803 52.3394C19.4575 54.9768 18.7321 57.934 18.7729 60.9304V129.03C18.7331 132.027 19.4589 134.983 20.8816 137.621C22.3044 140.258 24.3769 142.488 26.9029 144.1L83.0329 178.43C85.4057 179.9 88.1415 180.679 90.9328 180.679C93.7241 180.679 96.46 179.9 98.8328 178.43L154.963 144.1C157.487 142.487 159.559 140.256 160.982 137.619C162.404 134.982 163.131 132.026 163.093 129.03V60.9304C163.131 57.9345 162.404 54.9784 160.982 52.3414C159.559 49.7045 157.487 47.474 154.963 45.8605L98.8328 11.5304Z" fill="url(#paint1_linear_857_279)"/>
<path d="M23.2428 119.18L32.4728 124.47L23.3228 129.73L18.7228 127.09V127.62L22.8828 130.01L19.2028 132.13L19.3428 132.56L23.3428 130.27L32.5329 135.55L23.4129 140.79L21.7628 139.84L21.9728 140.47L90.4828 180.07L90.9129 179.78L81.5828 174.4L90.8528 169.07L100.053 174.35L100.463 174.07L91.3128 168.8L100.543 163.49L109.903 168.86L110.133 168.45L101.013 163.23L110.133 157.99L119.373 163.3L119.703 162.94L110.603 157.71L119.803 152.43L128.993 157.71L129.533 157.5L120.243 152.17L129.473 146.87L138.613 152.12L139.153 151.91L129.923 146.61L139.063 141.35L148.213 146.61L148.743 146.4L139.513 141.1L148.743 135.79L157.833 141.02L158.363 140.81L149.183 135.54L158.363 130.26L163.053 132.95V132.46L158.783 130L163.323 127.39V126.86L158.323 129.75L149.153 124.48L158.413 119.15L163.593 122.15V121.64L120.293 96.6401L101.033 85.5201L100.843 85.4502L91.4528 80.0302L91.0228 79.7502L19.2428 120.97V121.51L23.2428 119.18ZM23.7728 129.99L32.9129 124.72L42.1328 130.01L32.9628 135.28L23.7728 129.99ZM81.6028 129.99L90.8328 124.69L99.9728 129.93L90.7428 135.24L81.6028 129.99ZM90.3029 135.5L81.0928 140.79L71.9528 135.54L81.1629 130.25L90.3029 135.5ZM91.3029 124.43L100.453 119.17L109.583 124.42L100.433 129.68L91.3029 124.43ZM90.8528 124.17L81.6228 118.87L90.7829 113.61L100.013 118.91L90.8528 124.17ZM90.4129 124.43L81.1828 129.73L71.9528 124.43L81.1828 119.13L90.4129 124.43ZM80.7328 129.99L71.5228 135.28L62.2929 129.98L71.5028 124.69L80.7328 129.99ZM71.0628 135.55L61.9129 140.81L52.6729 135.51L61.8328 130.24L71.0628 135.55ZM71.5128 135.8L80.6528 141.05L71.5128 146.31L62.3528 141.06L71.5128 135.8ZM81.0928 141.31L90.3228 146.61L81.1928 151.86L71.9528 146.57L81.0928 141.31ZM81.5628 141.04L90.7628 135.75L99.9928 141.05L90.7929 146.35L81.5628 141.04ZM91.2128 135.5L100.433 130.19L109.663 135.49L100.443 140.8L91.2128 135.5ZM100.883 129.93L110.033 124.67L119.263 129.98L110.113 135.24L100.883 129.93ZM110.473 124.42L119.703 119.11L128.933 124.42L119.703 129.72L110.473 124.42ZM110.033 124.16L100.903 118.91L110.133 113.61L119.253 118.86L110.033 124.16ZM100.453 118.66L91.2228 113.35L100.453 108.05L109.683 113.35L100.453 118.66ZM90.7829 113.1L81.6228 107.83L90.8528 102.53L100.013 107.79L90.7829 113.1ZM90.3328 113.35L81.1828 118.62L72.0128 113.35L81.1729 108.09L90.3328 113.35ZM80.7328 118.87L71.5028 124.17L62.3428 118.91L71.5728 113.61L80.7328 118.87ZM71.0628 124.43L61.8428 129.73L52.6828 124.46L61.8928 119.17L71.0628 124.43ZM61.3928 129.99L52.2228 135.25L43.0529 129.99L52.2428 124.69L61.3928 129.99ZM51.7628 135.52L42.5928 140.79L33.4328 135.52L42.5928 130.26L51.7628 135.52ZM52.2128 135.77L61.4528 141.07L52.2628 146.35L43.0329 141.05L52.2128 135.77ZM61.8928 141.33L71.0429 146.58L61.8428 151.87L52.7028 146.61L61.8928 141.33ZM71.4928 146.83L80.7228 152.13L71.5128 157.43L62.2929 152.12L71.4928 146.83ZM81.1729 152.39L90.4528 157.71L81.2328 163.01L71.9628 157.68L81.1729 152.39ZM81.6428 152.12L90.7728 146.87L100.043 152.2L90.9229 157.44L81.6428 152.12ZM91.2328 146.6L100.443 141.31L109.713 146.64L100.513 151.93L91.2328 146.6ZM100.883 141.05L110.113 135.75L119.383 141.08L110.153 146.38L100.883 141.05ZM110.553 135.49L119.703 130.23L128.973 135.56L119.833 140.82L110.553 135.49ZM120.153 129.98L129.373 124.67L138.653 130L129.423 135.3L120.153 129.98ZM129.823 124.42L138.993 119.14L148.273 124.47L139.093 129.74L129.823 124.42ZM129.373 124.16L120.153 118.86L129.323 113.58L138.553 118.89L129.373 124.16ZM119.703 118.6L110.573 113.35L119.743 108.08L128.873 113.33L119.703 118.6ZM110.133 113.1L100.903 107.79L110.073 102.53L119.303 107.83L110.133 113.1ZM100.453 107.54L91.2929 102.27L100.463 97.0101L109.623 102.27L100.453 107.54ZM90.8528 102.02L81.5828 96.6902L90.7328 91.4202L100.013 96.7502L90.8528 102.02ZM90.4028 102.27L81.1729 107.58L71.9229 102.26L81.1428 96.9502L90.4028 102.27ZM80.7328 107.83L71.5728 113.1L62.3328 107.79L71.4828 102.52L80.7328 107.83ZM71.1228 113.35L61.8928 118.65L52.6629 113.35L61.8828 108.04L71.1228 113.35ZM61.4528 118.91L52.2328 124.21L43.0128 118.91L52.2228 113.61L61.4528 118.91ZM51.7829 124.47L42.6128 129.74L33.3928 124.45L42.5628 119.17L51.7829 124.47ZM23.7829 141.04L32.9028 135.8L42.0628 141.06L32.9229 146.32L23.7829 141.04ZM33.3628 146.58L42.5128 141.32L51.7328 146.62L42.5628 151.89L33.3628 146.58ZM43.0128 152.15L52.1828 146.88L61.3328 152.13L52.1328 157.42L43.0128 152.15ZM52.5828 157.68L61.7728 152.39L71.0028 157.69L61.7829 162.99L52.5828 157.68ZM62.2328 163.25L71.4528 157.95L80.7228 163.28L71.4828 168.59L62.2328 163.25ZM81.0628 174.13L71.9229 168.85L81.1729 163.53L90.3328 168.8L81.0628 174.13ZM90.7829 168.54L81.6228 163.27L90.8528 157.97L100.023 163.23L90.7829 168.54ZM100.493 162.96L91.3128 157.7L100.443 152.45L109.603 157.72L100.493 162.96ZM110.073 157.45L100.913 152.18L110.103 146.89L119.273 152.16L110.073 157.45ZM119.723 151.9L110.553 146.64L119.783 141.33L128.943 146.6L119.723 151.9ZM129.393 146.34L120.223 141.08L129.373 135.82L138.543 141.09L129.393 146.34ZM138.983 140.83L129.823 135.56L139.043 130.26L148.213 135.53L138.983 140.83ZM157.833 129.99L148.663 135.27L139.493 130L148.663 124.72L157.833 129.99ZM157.923 118.89L148.663 124.21L139.393 118.88L148.673 113.54L157.923 118.89ZM148.233 113.29L138.943 118.63L129.713 113.33L139.023 107.97L148.233 113.29ZM138.583 107.72L129.273 113.07L120.143 107.83L129.483 102.46L138.583 107.72ZM129.033 102.2L119.693 107.57L110.463 102.27L119.833 96.8901L129.033 102.2ZM119.383 96.6301L110.023 102.01L100.853 96.7502L110.243 91.3602L119.383 96.6301ZM109.803 91.1002L100.413 96.4902L91.1328 91.1702L100.533 85.7502L109.803 91.1002ZM90.9928 80.2402L100.093 85.4902L90.6828 90.9102L81.5429 85.6602L90.9928 80.2402ZM81.1028 85.9202L90.2428 91.1702L81.0928 96.4402L71.9428 91.1802L81.1028 85.9202ZM71.4928 91.4302L80.6428 96.6902L71.4229 102L62.2628 96.7402L71.4928 91.4302ZM61.8128 96.9902L70.9828 102.26L61.8328 107.53L52.6528 102.26L61.8128 96.9902ZM52.2128 102.51L61.3828 107.79L52.1729 113.09L42.9728 107.81L52.2128 102.51ZM42.5329 108.07L51.7228 113.35L42.5128 118.65L33.3128 113.37L42.5329 108.07ZM32.8628 113.62L42.0628 118.91L32.8928 124.2L23.6629 118.9L32.8628 113.62Z" fill="white"/>
<path fill-rule="evenodd" clip-rule="evenodd" d="M91.3628 10.7502C93.0428 10.7502 94.9329 11.6202 96.9929 12.8702L155.473 48.4102C157.365 49.6232 158.915 51.3002 159.976 53.2816C161.037 55.2631 161.573 57.4831 161.533 59.7302V130.21C161.572 132.457 161.035 134.677 159.975 136.658C158.914 138.639 157.364 140.316 155.473 141.53L97.0029 177.07C95.3954 178.327 93.4134 179.01 91.3729 179.01C89.3323 179.01 87.3504 178.327 85.7429 177.07L27.2428 141.54C25.4603 140.587 23.9365 139.214 22.8029 137.54C21.8029 135.94 21.1828 133.72 21.1828 130.26V59.7802C21.1431 57.533 21.6792 55.3131 22.7399 53.3317C23.8007 51.3502 25.3508 49.6732 27.2428 48.4602L85.7028 12.9202C87.8128 11.6302 89.6728 10.7502 91.3628 10.7502ZM99.0728 180.5L157.543 144.96C160.025 143.392 162.064 141.214 163.465 138.633C164.865 136.053 165.581 133.156 165.543 130.22V59.7402C165.581 56.8043 164.865 53.9076 163.465 51.327C162.064 48.7464 160.025 46.5681 157.543 45.0002L99.0728 9.46021C96.9628 8.18021 94.2528 6.75024 91.3628 6.75024C88.4728 6.75024 85.7529 8.1902 83.6629 9.4502L25.1928 45.0002C22.7103 46.5681 20.6714 48.7464 19.2708 51.327C17.8702 53.9076 17.1547 56.8043 17.1928 59.7402V130.22C17.0405 133.484 17.8025 136.726 19.3929 139.58C20.8479 141.819 22.8334 143.664 25.1729 144.95L83.6329 180.49C85.8676 182.138 88.5712 183.027 91.3478 183.027C94.1244 183.027 96.828 182.138 99.0628 180.49L99.0728 180.5Z" fill="url(#paint2_linear_857_279)"/>
<path opacity="0.15" d="M150.145 89.0183C150.145 87.7381 149.098 86.674 147.801 86.674C146.953 86.674 141.716 86.2085 138.89 84.0139C138.89 84.0139 138.906 83.9807 138.89 84.0139C137.825 80.1401 136.263 76.5157 134.334 73.0742C133.835 69.8155 137.21 67.4381 138.757 64.8943C139.023 64.4454 139.189 64.196 139.289 64.0132C139.571 63.1819 139.422 62.2342 138.757 61.5858C138.757 61.5858 136.163 57.8783 133.503 55.2348C130.843 52.5913 126.819 49.6485 126.819 49.6485C125.905 48.7341 124.425 48.7341 123.511 49.6485C122.912 50.2304 118.922 53.5223 115.314 54.0543C115.264 54.0543 115.264 54.0543 115.264 54.0543C111.923 52.159 108.165 50.5962 104.408 49.5321H104.358C101.698 47.5703 102.396 43.5136 101.698 40.6208C101.698 39.3406 100.65 38.2765 99.3536 38.2765C99.3536 38.2765 94.8979 37.4951 91.1404 37.4951C87.383 37.4951 82.4784 38.2765 82.4784 38.2765C81.1983 38.2765 80.1342 39.3239 80.1342 40.6208C80.1342 41.4687 79.6687 46.7058 77.4741 49.5321C73.7499 50.5796 69.8429 52.2421 66.5344 54.0876C63.2757 54.5864 60.8982 51.2113 58.3545 49.6652C57.9056 49.3991 57.6562 49.2329 57.4733 49.1331C56.6421 48.8505 55.6944 49.0001 55.046 49.6652C55.046 49.6652 51.3384 52.2588 48.695 54.9189C46.0515 57.579 43.1087 61.6024 43.1087 61.6024C42.1943 62.5168 42.1943 63.9965 43.1087 64.911C43.6906 65.4929 47.0823 69.5495 47.5312 73.0908V73.1241C45.6857 76.4326 44.073 80.323 43.009 84.0472C43.009 84.0472 43.0588 83.9807 43.009 84.0472C40.7312 86.807 36.9904 86.009 34.0976 86.7073C32.8174 86.7073 31.7533 87.7547 31.7533 89.0515C31.7533 89.0515 30.9719 93.5072 30.9719 97.2646C30.9719 101.022 31.7533 105.927 31.7533 105.927C31.7533 107.207 32.8008 108.271 34.0976 108.271C34.9455 108.271 40.1826 108.736 43.009 110.931C43.0755 110.898 43.0422 110.981 43.0422 110.981C44.1229 114.722 45.6691 118.462 47.5478 121.754C47.5145 121.804 47.5478 121.754 47.5644 121.871C47.8803 125.279 44.6882 127.507 43.142 130.051C42.8759 130.499 42.7097 130.749 42.6099 130.932C42.3273 131.763 42.4769 132.711 43.142 133.359C43.142 133.359 45.7356 137.067 48.3957 139.71C51.0558 142.37 55.0792 145.296 55.0792 145.296C55.9937 146.211 57.4733 146.211 58.3878 145.296C58.9697 144.714 63.0263 141.323 66.5676 140.874C66.5676 140.874 66.551 140.891 66.6175 140.907C70.0258 142.803 73.5338 144.299 77.3743 145.346C77.4076 145.363 77.524 145.396 77.524 145.396C80.1841 147.358 79.4858 151.415 80.1841 154.308C80.3337 155.604 81.0486 156.436 82.5283 156.652C82.5283 156.652 86.984 157.433 90.7414 157.433C94.4988 157.433 99.4034 156.668 99.4034 156.668C100.684 156.452 101.748 155.621 101.748 154.324C101.748 153.476 102.213 148.239 104.408 145.413C104.408 145.413 104.508 145.33 104.591 145.246C108.498 144.149 111.474 142.936 114.932 140.957C115.115 140.891 114.915 140.907 115.331 140.841C118.59 140.342 120.967 143.717 123.511 145.263C123.96 145.529 124.209 145.695 124.392 145.795C125.223 146.078 126.171 145.928 126.819 145.263C126.819 145.263 130.527 142.67 133.17 140.009C135.83 137.349 138.757 133.326 138.757 133.326C139.671 132.411 139.671 130.932 138.757 130.017C138.175 129.435 134.783 125.379 134.334 121.837C134.284 121.472 134.317 121.422 134.367 121.322C136.346 117.847 137.576 115.304 138.657 111.347C138.657 111.347 138.607 111.214 138.856 110.881C140.818 108.221 144.875 108.919 147.768 108.221C149.048 108.221 150.112 107.174 150.112 105.877C150.112 105.877 150.893 101.421 150.893 97.6637C150.91 93.9395 150.145 89.0183 150.145 89.0183Z" fill="#1F1D20"/>
<path d="M150.145 87.4414C150.145 86.1612 149.098 85.0971 147.801 85.0971C146.953 85.0971 141.716 84.6316 138.89 82.437C138.89 82.437 138.906 82.4038 138.89 82.437C137.825 78.5632 136.263 74.9388 134.334 71.4973C133.835 68.2386 137.21 65.8612 138.757 63.3174C139.023 62.8685 139.189 62.6191 139.289 62.4363C139.571 61.605 139.422 60.6573 138.757 60.0089C138.757 60.0089 136.163 56.3014 133.503 53.6579C130.843 51.0144 126.819 48.0716 126.819 48.0716C125.905 47.1572 124.425 47.1572 123.511 48.0716C122.912 48.6535 118.922 51.9454 115.314 52.4774C115.264 52.4774 115.264 52.4774 115.264 52.4774C111.923 50.5821 108.165 49.0193 104.408 47.9552H104.358C101.698 45.9934 102.396 41.9367 101.698 39.0438C101.698 37.7637 100.65 36.6996 99.3536 36.6996C99.3536 36.6996 94.8979 35.9182 91.1404 35.9182C87.383 35.9182 82.4784 36.6996 82.4784 36.6996C81.1983 36.6996 80.1342 37.747 80.1342 39.0438C80.1342 39.8918 79.6687 45.1289 77.4741 47.9552C73.7499 49.0027 69.8429 50.6652 66.5344 52.5107C63.2757 53.0095 60.8982 49.6344 58.3545 48.0882C57.9056 47.8222 57.6562 47.656 57.4733 47.5562C56.6421 47.2736 55.6944 47.4232 55.046 48.0882C55.046 48.0882 51.3384 50.6819 48.695 53.342C46.0515 56.0021 43.1087 60.0255 43.1087 60.0255C42.1943 60.9399 42.1943 62.4196 43.1087 63.334C43.6906 63.9159 47.0823 67.9726 47.5312 71.5139V71.5472C45.6857 74.8557 44.073 78.7461 43.009 82.4703C43.009 82.4703 43.0588 82.4038 43.009 82.4703C40.7312 85.2301 36.9904 84.4321 34.0976 85.1304C32.8174 85.1304 31.7533 86.1778 31.7533 87.4746C31.7533 87.4746 30.9719 91.9303 30.9719 95.6877C30.9719 99.4451 31.7533 104.35 31.7533 104.35C31.7533 105.63 32.8008 106.694 34.0976 106.694C34.9455 106.694 40.1826 107.159 43.009 109.354C43.0755 109.321 43.0422 109.404 43.0422 109.404C44.1229 113.145 45.6691 116.886 47.5478 120.177C47.5145 120.227 47.5478 120.177 47.5644 120.294C47.8803 123.702 44.6882 125.93 43.142 128.474C42.8759 128.923 42.7097 129.172 42.6099 129.355C42.3273 130.186 42.4769 131.134 43.142 131.782C43.142 131.782 45.7356 135.49 48.3957 138.133C51.0558 140.793 55.0792 143.719 55.0792 143.719C55.9937 144.634 57.4733 144.634 58.3878 143.719C58.9697 143.138 63.0263 139.746 66.5676 139.297C66.5676 139.297 66.551 139.314 66.6175 139.33C70.0258 141.226 73.5338 142.722 77.3743 143.769C77.4076 143.786 77.524 143.819 77.524 143.819C80.1841 145.781 79.4858 149.838 80.1841 152.731C80.3337 154.027 81.0486 154.859 82.5283 155.075C82.5283 155.075 86.984 155.856 90.7414 155.856C94.4988 155.856 99.4034 155.091 99.4034 155.091C100.684 154.875 101.748 154.044 101.748 152.747C101.748 151.899 102.213 146.662 104.408 143.836C104.408 143.836 104.508 143.753 104.591 143.67C108.498 142.572 111.474 141.359 114.932 139.38C115.115 139.314 114.915 139.33 115.331 139.264C118.59 138.765 120.967 142.14 123.511 143.686C123.96 143.952 124.209 144.118 124.392 144.218C125.223 144.501 126.171 144.351 126.819 143.686C126.819 143.686 130.527 141.093 133.17 138.432C135.83 135.772 138.757 131.749 138.757 131.749C139.671 130.835 139.671 129.355 138.757 128.44C138.175 127.859 134.783 123.802 134.334 120.261C134.284 119.895 134.317 119.845 134.367 119.745C136.346 116.27 137.576 113.727 138.657 109.77C138.657 109.77 138.607 109.637 138.856 109.304C140.818 106.644 144.875 107.342 147.768 106.644C149.048 106.644 150.112 105.597 150.112 104.3C150.112 104.3 150.893 99.8442 150.893 96.0867C150.91 92.346 150.145 87.4414 150.145 87.4414Z" fill="url(#paint3_linear_857_279)"/>
<path d="M124.455 144.2C124.44 144.2 124.44 144.185 124.425 144.185C124.44 144.185 124.455 144.2 124.455 144.2Z" fill="#9FC2F6"/>
<path d="M124.425 144.185C124.093 143.986 123.544 143.653 123.544 143.653C123.81 143.903 124.109 144.069 124.425 144.185Z" fill="#9FC2F6"/>
<path d="M124.458 144.202C124.769 144.366 124.704 144.35 124.458 144.202V144.202Z" fill="#9FC2F6"/>
<path d="M57.573 47.5862C57.9055 47.7857 58.4542 48.1182 58.4542 48.1182C58.1882 47.8688 57.8889 47.6859 57.573 47.5862Z" fill="#9FC2F6"/>
<path d="M57.5398 47.574C57.5545 47.574 57.5545 47.5887 57.5693 47.5887C57.5545 47.5887 57.5398 47.574 57.5398 47.574Z" fill="#9FC2F6"/>
<path d="M57.5364 47.5705C57.242 47.3906 57.2911 47.4233 57.5364 47.5705V47.5705Z" fill="#9FC2F6"/>
<path d="M42.6744 129.352C42.5108 129.646 42.5435 129.581 42.6744 129.352V129.352Z" fill="#9FC2F6"/>
<path d="M42.6765 129.352C42.6765 129.337 42.6912 129.337 42.6912 129.322C42.6912 129.337 42.6765 129.352 42.6765 129.352Z" fill="#9FC2F6"/>
<path d="M42.6927 129.321C42.8922 128.989 43.2247 128.44 43.2247 128.44C42.992 128.69 42.8091 129.005 42.6927 129.321Z" fill="#9FC2F6"/>
<path d="M139.305 62.4541C139.106 62.7866 138.773 63.3353 138.773 63.3353C139.006 63.0693 139.189 62.77 139.305 62.4541Z" fill="#9FC2F6"/>
<path d="M139.32 62.4177C139.32 62.4325 139.305 62.4325 139.305 62.4472C139.305 62.4325 139.32 62.4177 139.32 62.4177Z" fill="#9FC2F6"/>
<path d="M139.322 62.4155C139.485 62.1211 139.453 62.1866 139.322 62.4155V62.4155Z" fill="#9FC2F6"/>
<circle opacity="0.15" cx="90.9327" cy="98.7745" r="40.3053" fill="#1F1D20"/>
<g filter="url(#filter0_d_857_279)">
<circle cx="90.9327" cy="95.9657" r="40.3053" fill="white"/>
</g>
<path d="M62.2632 110.96C59.7273 106.047 58.4947 100.565 58.6832 95.0385C58.8716 89.5124 60.4748 84.127 63.3396 79.3976C66.2043 74.6682 70.2348 70.753 75.0452 68.0265C79.8556 65.3 85.2851 63.8534 90.8144 63.8251V66.9309L97.372 63.15L90.8144 59.3606V62.2047C83.6229 62.2245 76.6236 64.5296 70.8277 68.787C65.0317 73.0444 60.7391 79.0338 58.5694 85.8903C56.3998 92.7468 56.4654 100.115 58.7571 106.932C61.0488 113.749 65.4478 119.661 71.3189 123.814C71.4538 123.905 71.6121 123.954 71.7746 123.957C71.9437 123.956 72.108 123.902 72.2442 123.802C72.3804 123.701 72.4814 123.561 72.5329 123.4C72.5844 123.239 72.5836 123.066 72.5308 122.905C72.478 122.744 72.3759 122.605 72.2389 122.506C68.0391 119.509 64.6183 115.55 62.2632 110.96Z" fill="#D7D2CB"/>
<path d="M124.851 96.1336C124.858 91.3673 123.855 86.6537 121.909 82.3029C119.962 77.9521 117.117 74.0627 113.559 70.8908C113.396 70.7598 113.19 70.6941 112.981 70.7066C112.772 70.7191 112.575 70.8088 112.428 70.9583C112.359 71.0363 112.305 71.1273 112.271 71.226C112.237 71.3247 112.223 71.4293 112.229 71.5336C112.235 71.6379 112.262 71.7399 112.308 71.8338C112.354 71.9277 112.417 72.0116 112.496 72.0808C117.282 76.3736 120.68 81.9964 122.254 88.2302C123.828 94.464 123.507 101.026 121.333 107.076C119.158 113.127 115.229 118.391 110.046 122.197C104.864 126.003 98.6648 128.176 92.2408 128.44V125.419L85.6832 129.208L92.2408 132.989V130.036C101.009 129.702 109.306 125.984 115.392 119.662C121.477 113.341 124.876 104.908 124.877 96.1336H124.851Z" fill="#D7D2CB"/>
<path d="M74.1795 91.9963V99.377L67.8315 103.095V95.7146L74.1795 91.9963Z" fill="url(#paint4_linear_857_279)"/>
<path d="M74.1795 91.9943L67.8111 95.7177L61.4427 91.9943L67.8111 88.2913L74.1795 91.9943Z" fill="url(#paint5_linear_857_279)"/>
<path opacity="0.2" d="M74.1795 100.058L67.8111 103.781L61.4427 100.058L67.8111 96.3545L74.1795 100.058Z" fill="#1F1D21"/>
<path d="M67.8314 95.7146V103.095L61.463 99.3719V91.9963L67.8314 95.7146Z" fill="#F1CE57"/>
<path d="M61.463 99.3504L67.8314 95.6729V103.053L61.463 99.3504Z" fill="url(#paint6_linear_857_279)"/>
<path d="M74.1795 99.3504L67.8111 95.6729V103.053L74.1795 99.3504Z" fill="#EAA313"/>
<path d="M120.423 91.9963V99.377L114.075 103.095V95.7146L120.423 91.9963Z" fill="url(#paint7_linear_857_279)"/>
<path d="M120.423 91.9943L114.054 95.7177L107.686 91.9943L114.054 88.2913L120.423 91.9943Z" fill="url(#paint8_linear_857_279)"/>
<path opacity="0.2" d="M120.423 100.058L114.054 103.781L107.686 100.058L114.054 96.3545L120.423 100.058Z" fill="#1F1D21"/>
<path d="M114.075 95.7146V103.095L107.706 99.3719V91.9963L114.075 95.7146Z" fill="#4191FF"/>
<path d="M107.706 99.3504L114.075 95.6729V103.053L107.706 99.3504Z" fill="#3081F1"/>
<path d="M120.423 99.3504L114.054 95.6729V103.053L120.423 99.3504Z" fill="#1657DC"/>
<path d="M89.594 91.9963V99.377L83.2459 103.095V95.7146L89.594 91.9963Z" fill="url(#paint9_linear_857_279)"/>
<path d="M89.5939 91.9943L83.2255 95.7177L76.8571 91.9943L83.2255 88.2913L89.5939 91.9943Z" fill="url(#paint10_linear_857_279)"/>
<path opacity="0.2" d="M89.5939 100.058L83.2255 103.781L76.8571 100.058L83.2255 96.3545L89.5939 100.058Z" fill="#1F1D21"/>
<path d="M83.2459 95.7146V103.095L76.8775 99.3719V91.9963L83.2459 95.7146Z" fill="#E48CCD"/>
<path d="M76.8775 99.3504L83.2459 95.6729V103.053L76.8775 99.3504Z" fill="url(#paint11_linear_857_279)"/>
<path d="M89.594 99.3504L83.2256 95.6729V103.053L89.594 99.3504Z" fill="#B441A5"/>
<path d="M105.008 91.9963V99.377L98.6603 103.095V95.7146L105.008 91.9963Z" fill="url(#paint12_linear_857_279)"/>
<path d="M105.008 91.9943L98.64 95.7177L92.2716 91.9943L98.64 88.2913L105.008 91.9943Z" fill="#4CCBED"/>
<path opacity="0.2" d="M105.008 100.058L98.64 103.781L92.2716 100.058L98.64 96.3545L105.008 100.058Z" fill="#1F1D21"/>
<path d="M98.6604 95.7146V103.095L92.292 99.3719V91.9963L98.6604 95.7146Z" fill="#17AAD2"/>
<path d="M92.292 99.3504L98.6604 95.6729V103.053L92.292 99.3504Z" fill="#128AA9"/>
<path d="M105.008 99.3504L98.64 95.6729V103.053L105.008 99.3504Z" fill="#167D9A"/>
<defs>
<filter id="filter0_d_857_279" x="46.6274" y="55.6604" width="88.6106" height="88.6106" filterUnits="userSpaceOnUse" color-interpolation-filters="sRGB">
<feFlood flood-opacity="0" result="BackgroundImageFix"/>
<feColorMatrix in="SourceAlpha" type="matrix" values="0 0 0 0 0 0 0 0 0 0 0 0 0 0 0 0 0 0 127 0" result="hardAlpha"/>
<feOffset dy="4"/>
<feGaussianBlur stdDeviation="2"/>
<feComposite in2="hardAlpha" operator="out"/>
<feColorMatrix type="matrix" values="0 0 0 0 0 0 0 0 0 0 0 0 0 0 0 0 0 0 0.25 0"/>
<feBlend mode="normal" in2="BackgroundImageFix" result="effect1_dropShadow_857_279"/>
<feBlend mode="normal" in="SourceGraphic" in2="effect1_dropShadow_857_279" result="shape"/>
</filter>
<linearGradient id="paint0_linear_857_279" x1="89.5928" y1="187.57" x2="93.5028" y2="-84.1506" gradientUnits="userSpaceOnUse">
<stop offset="0.2" stop-color="white"/>
<stop offset="0.63" stop-color="#F4F3F5"/>
<stop offset="1" stop-color="#E8E6DF"/>
</linearGradient>
<linearGradient id="paint1_linear_857_279" x1="87.9328" y1="19.0002" x2="90.9329" y2="180.68" gradientUnits="userSpaceOnUse">
<stop offset="0.2" stop-color="white"/>
<stop offset="0.63" stop-color="#F4F3F5"/>
<stop offset="1" stop-color="#E8E6DF"/>
</linearGradient>
<linearGradient id="paint2_linear_857_279" x1="74.7828" y1="-44.1997" x2="103.303" y2="195.7" gradientUnits="userSpaceOnUse">
<stop stop-color="#FE90BE"/>
<stop offset="0.26" stop-color="#D68DC2"/>
<stop offset="0.61" stop-color="#007ED8"/>
<stop offset="0.93" stop-color="#002D4C"/>
</linearGradient>
<linearGradient id="paint3_linear_857_279" x1="100.32" y1="-10.4194" x2="115.977" y2="210.034" gradientUnits="userSpaceOnUse">
<stop stop-color="#008BF1"/>
<stop offset="0.22" stop-color="#0086EC"/>
<stop offset="0.49" stop-color="#0078DD"/>
<stop offset="0.661458" stop-color="#0061C4"/>
<stop offset="0.822917" stop-color="#004DAE"/>
<stop offset="0.96875" stop-color="#243A5E"/>
</linearGradient>
<linearGradient id="paint4_linear_857_279" x1="70.9347" y1="93.0115" x2="70.9928" y2="102.221" gradientUnits="userSpaceOnUse">
<stop offset="0.00753769" stop-color="#E0A310"/>
<stop offset="1" stop-color="#CA810E"/>
</linearGradient>
<linearGradient id="paint5_linear_857_279" x1="67.5044" y1="88.863" x2="67.6604" y2="97.2932" gradientUnits="userSpaceOnUse">
<stop stop-color="#F8E17B"/>
<stop offset="0.5302" stop-color="#F6D856"/>
<stop offset="1" stop-color="#F6D856"/>
</linearGradient>
<linearGradient id="paint6_linear_857_279" x1="64.4779" y1="95.9605" x2="64.6163" y2="104.662" gradientUnits="userSpaceOnUse">
<stop offset="0.00753769" stop-color="#F2CC40"/>
<stop offset="1" stop-color="#E7B116"/>
</linearGradient>
<linearGradient id="paint7_linear_857_279" x1="114.473" y1="86.6534" x2="126.027" y2="90.8113" gradientUnits="userSpaceOnUse">
<stop offset="0.4598" stop-color="#1152D4"/>
<stop offset="0.6156" stop-color="#0D3FB3"/>
</linearGradient>
<linearGradient id="paint8_linear_857_279" x1="107.686" y1="92.0046" x2="120.423" y2="92.0046" gradientUnits="userSpaceOnUse">
<stop stop-color="#76C0FD"/>
<stop offset="1" stop-color="#63B2FB"/>
</linearGradient>
<linearGradient id="paint9_linear_857_279" x1="86.1553" y1="92.4092" x2="86.9931" y2="101.902" gradientUnits="userSpaceOnUse">
<stop stop-color="#A23093"/>
<stop offset="1" stop-color="#692266"/>
</linearGradient>
<linearGradient id="paint10_linear_857_279" x1="76.8567" y1="92.0046" x2="89.5941" y2="92.0046" gradientUnits="userSpaceOnUse">
<stop stop-color="#E89BCA"/>
<stop offset="1" stop-color="#E591C8"/>
</linearGradient>
<linearGradient id="paint11_linear_857_279" x1="76.8775" y1="99.3636" x2="83.2457" y2="99.3636" gradientUnits="userSpaceOnUse">
<stop stop-color="#E184C4"/>
<stop offset="1" stop-color="#D76EBC"/>
</linearGradient>
<linearGradient id="paint12_linear_857_279" x1="100.928" y1="92.5471" x2="105.09" y2="96.7641" gradientUnits="userSpaceOnUse">
<stop stop-color="#107590"/>
<stop offset="0.2789" stop-color="#107590"/>
<stop offset="0.9874" stop-color="#0D5D73"/>
</linearGradient>
</defs>
</svg>
