<svg width="181" height="191" viewBox="0 0 181 191" fill="none" xmlns="http://www.w3.org/2000/svg">
<path d="M90.6758 189.94C93.7358 189.94 96.7458 189.09 99.4058 187.47L161.376 149.81C166.916 146.44 170.346 140.11 170.346 133.27V58.5595C170.346 51.7395 166.916 45.3995 161.376 42.0195L99.4058 4.35952C94.0758 1.11952 87.2558 1.13952 81.9558 4.35952L19.9858 42.0395C14.4458 45.4095 10.9958 51.7395 10.9958 58.5795V133.28C10.9958 139.04 13.4458 144.46 17.5458 148.03V148.06L81.9558 187.49C84.5958 189.09 87.6158 189.94 90.6758 189.94ZM91.3258 8.88952C93.2758 8.88952 95.7558 10.0995 97.4658 11.1495L158.226 48.3395C161.976 50.6195 164.096 57.2195 164.096 61.9695L163.466 133.27C163.466 138.02 160.266 142.29 156.516 144.57L96.1158 180.95C92.6858 183.04 89.8958 183.04 86.4558 180.95L25.2458 144.48C21.4958 142.2 18.4758 138 18.4758 133.27V59.6295C18.4758 54.8895 21.2058 49.9995 24.9758 47.7095L85.5558 11.1495C87.2558 10.1095 89.3758 8.88952 91.3258 8.88952Z" fill="#F2F1F0"/>
<path fill-rule="evenodd" clip-rule="evenodd" d="M98.5758 12.4692C96.1258 10.9692 93.4058 10.2192 90.6758 10.2192C87.9458 10.2192 85.2258 10.9792 82.7758 12.4692L26.6458 46.7992C21.6258 49.8692 18.5158 55.6192 18.5158 61.8692V129.969C18.5158 136.199 21.6158 141.969 26.6458 145.039L82.7758 179.369C85.2258 180.869 87.9458 181.619 90.6758 181.619C93.4058 181.619 96.1258 180.879 98.5758 179.369L154.706 145.039C159.726 141.969 162.836 136.199 162.836 129.969V61.8692C162.836 55.6392 159.736 49.8892 154.706 46.7992L98.5758 12.4692Z" fill="url(#paint0_radial_1127_970)"/>
<path fill-rule="evenodd" clip-rule="evenodd" d="M90.6758 11.6895C92.3558 11.6895 94.2458 12.5595 96.3058 13.8095L154.776 49.3495C158.426 51.5695 160.836 55.8395 160.836 60.6695V131.149C160.836 135.969 158.426 140.249 154.776 142.469L96.3158 178.009C94.3558 179.199 92.4358 179.949 90.6858 179.949C88.9358 179.949 87.0158 179.199 85.0558 178.009L26.5758 142.479C24.5658 141.249 23.1158 140.049 22.1358 138.439C21.1558 136.839 20.5158 134.619 20.5158 131.159V60.6795C20.5158 55.8495 22.9258 51.5795 26.5758 49.3595L85.0358 13.8195C87.1258 12.5695 88.9858 11.6895 90.6758 11.6895ZM98.3858 181.439L156.846 145.899C161.766 142.909 164.826 137.289 164.826 131.159V60.6795C164.826 54.5495 161.766 48.9295 156.846 45.9395L98.3858 10.3995C96.2758 9.11945 93.5658 7.68945 90.6758 7.68945C87.7758 7.68945 85.0658 9.12945 82.9758 10.3895H82.9658L24.4958 45.9395C19.5758 48.9295 16.5158 54.5495 16.5158 60.6795V131.159C16.5158 135.119 17.2558 138.109 18.7158 140.519C20.1758 142.919 22.2358 144.519 24.4958 145.889L82.9558 181.429C85.1758 182.779 87.8458 183.959 90.6658 183.959C93.4858 183.959 96.1658 182.789 98.3858 181.439Z" fill="url(#paint1_linear_1127_970)"/>
<path d="M135.476 98.964V120.335L90.0006 146.81L44.356 120.007L44.4271 96.7808" stroke="#39C7F3" stroke-width="1.6" stroke-linejoin="round"/>
<path d="M44.498 77.1318V67.3692L89.8142 41.2144L135.45 67.5289V78.392" stroke="#39C7F3" stroke-width="1.6" stroke-linejoin="round"/>
<path d="M129.601 109.641V116.936L117.522 123.965" stroke="#50E6FF" stroke-width="1.6" stroke-linejoin="round"/>
<path d="M74.4159 56.9503L89.8497 48.0752L104.937 56.6929" stroke="#50E6FF" stroke-width="1.6" stroke-linejoin="round"/>
<path d="M60.2425 122.546L50.2402 116.671V110.263" stroke="#50E6FF" stroke-width="1.6" stroke-linejoin="round"/>
<path d="M83.3531 59.0803L89.8585 55.3262L96.6569 59.2489" stroke="#84ECFD" stroke-width="1.6" stroke-linejoin="round"/>
<path d="M108.833 66.7031C104.77 66.3611 100.709 67.3831 97.2921 69.6076C93.8749 71.8321 91.2967 75.1321 89.965 78.986C88.6117 75.1301 86.0172 71.8322 82.5881 69.6093C79.159 67.3865 75.0893 66.3644 71.0168 66.7031C53.9766 68.0343 53.0448 84.9059 53.2666 91.358C53.382 95.9731 54.2872 110.519 89.4858 135.795L89.7965 136.008L90.1071 135.795C125.474 110.519 126.38 95.7155 126.495 90.9318C126.832 84.6483 125.874 68.0343 108.833 66.7031Z" fill="url(#paint2_linear_1127_970)"/>
<path d="M111.141 62.3725C106.482 61.9908 102.976 62.2216 98.8135 64.1475C94.6511 66.0734 92.5211 67.6976 89.9384 71.3275C86.9742 67.1118 83.8768 65.5143 80.5842 63.9967C75.1438 61.7513 72.6587 62.0619 67.9993 62.4702C48.8202 65.6652 48.1812 82.5811 48.4741 89.9829C48.6161 95.2636 49.1753 111.86 89.4504 140.775L89.8054 141.024L90.1603 140.775C130.622 111.86 131.181 95.0506 131.35 89.5747C131.669 82.3681 128.731 65.0616 111.141 62.3725Z" stroke="#50E6FF" stroke-width="2.5" stroke-linejoin="round"/>
<path d="M116.821 57.8105C110.884 56.3373 108.549 56.0798 102.062 57.3046C96.5859 58.8755 93.6926 60.1891 89.9739 63.1533C85.4743 60.0382 82.7319 58.7158 78.676 57.8283C72.7385 56.5414 68.4786 57.0561 63.4109 58.2276C43.5307 64.2183 43.4153 80.8945 43.7614 89.4323C43.9212 95.5472 42.8029 113.475 89.4059 146.934L89.8142 147.218L90.2225 146.934C137.047 113.475 136.817 95.2987 137.003 88.9619C137.349 80.6282 133.249 63.4906 116.821 57.8105Z" stroke="#45D6F9" stroke-width="1.9" stroke-linejoin="round"/>
<path d="M124.072 77.1323C125.493 82.8778 125.023 88.9282 122.732 94.3854C118.925 103.003 110.671 109.908 98.6272 114.993C98.0816 114.401 97.416 113.932 96.6747 113.618C95.9275 113.302 95.1249 113.14 94.3139 113.138C93.1477 113.138 92.0066 113.477 91.0302 114.115C90.0611 114.754 89.3017 115.665 88.8468 116.733C88.3897 117.807 88.2571 118.992 88.4653 120.141C88.6853 121.286 89.2307 122.342 90.0362 123.185C90.8375 124.027 91.8734 124.608 93.0093 124.854C94.143 125.114 95.3291 125.021 96.4084 124.587C97.4914 124.171 98.4267 123.442 99.0964 122.495C99.7661 121.547 100.14 120.422 100.171 119.262C109.573 115.351 117.806 109.078 124.072 101.051C126.108 96.659 126.911 91.7966 126.397 86.9835C126.168 83.5944 125.382 80.2663 124.072 77.1323Z" fill="#FEE452"/>
<path d="M80.3711 112.26L78.6849 113.973C66.8277 102.284 63.0647 93.001 68.0348 88.173C73.0048 83.3449 82.155 87.0991 93.9145 98.8231L92.2193 100.536C92.0053 100.745 91.8362 100.996 91.7223 101.273C91.6041 101.553 91.5466 101.856 91.5537 102.16C91.5417 102.465 91.5993 102.768 91.7223 103.048C91.8362 103.327 92.0053 103.581 92.2193 103.793C92.4285 104.007 92.6792 104.176 92.9559 104.29C93.2366 104.41 93.5382 104.473 93.8434 104.476C94.1494 104.481 94.4526 104.417 94.731 104.29C95.0088 104.178 95.26 104.009 95.4677 103.793L98.6627 100.598C99.0723 100.169 99.3008 99.5984 99.3008 99.0051C99.3008 98.4118 99.0723 97.8411 98.6627 97.4118L97.0651 95.8143C89.0775 87.8267 75.4987 78.0641 66.8898 83.8418C64.4653 81.5721 62.9349 78.5082 62.5766 75.2064C62.296 72.6978 63.0061 70.1789 64.5557 68.1863C62.0766 69.2804 59.8904 70.9436 58.1746 73.0409C57.8198 75.6564 58.1469 78.3192 59.1241 80.7711C60.1111 83.214 61.7206 85.3559 63.7924 86.9836C58.1745 95.6013 67.8395 109.171 75.836 117.159L77.4334 118.801C77.8595 119.217 78.4312 119.449 79.0266 119.449C79.6219 119.449 80.1935 119.217 80.6196 118.801L83.859 115.561C84.2686 115.132 84.4972 114.562 84.4972 113.968C84.4972 113.375 84.2686 112.805 83.859 112.375C83.6575 112.128 83.4067 111.925 83.1224 111.781C82.8436 111.648 82.5428 111.566 82.2349 111.541C81.9158 111.53 81.5979 111.587 81.303 111.71C80.9461 111.8 80.6228 111.991 80.3711 112.26Z" fill="#FEE452"/>
<path d="M89.8319 34.7539L141.068 64.2902V123.558L90.0184 153.28L38.7737 123.194L38.96 64.1125L89.8319 34.7539Z" stroke="#22A7E6" stroke-width="1.5" stroke-linejoin="round"/>
<defs>
<radialGradient id="paint0_radial_1127_970" cx="0" cy="0" r="1" gradientUnits="userSpaceOnUse" gradientTransform="translate(90.6757 95.919) rotate(90) scale(85.6998 85.6998)">
<stop offset="0.0416667" stop-color="#F0F0F0"/>
<stop offset="0.427083" stop-color="#00ABDE"/>
<stop offset="1" stop-color="#007ED8"/>
</radialGradient>
<linearGradient id="paint1_linear_1127_970" x1="36.7955" y1="5.01056" x2="203.473" y2="287.341" gradientUnits="userSpaceOnUse">
<stop stop-color="#007ED8"/>
<stop offset="0.7065" stop-color="#002D4C"/>
</linearGradient>
<linearGradient id="paint2_linear_1127_970" x1="89.9385" y1="136.008" x2="89.9385" y2="66.6321" gradientUnits="userSpaceOnUse">
<stop stop-color="#ED7323"/>
<stop offset="0.13" stop-color="#F07D22"/>
<stop offset="0.43" stop-color="#F6921E"/>
<stop offset="0.72" stop-color="#F99F1D"/>
<stop offset="1" stop-color="#FAA21F"/>
</linearGradient>
</defs>
</svg>
