<svg width="103" height="103" viewBox="0 0 103 103" fill="none" xmlns="http://www.w3.org/2000/svg">
<path d="M51.3613 98.5243C25.5113 98.5243 4.55127 77.5743 4.55127 51.7143C4.55127 25.8543 25.5113 4.9043 51.3613 4.9043C77.2113 4.9043 98.1713 25.8643 98.1713 51.7143C98.1713 77.5643 77.2113 98.5243 51.3613 98.5243Z" fill="url(#paint0_linear_653_26351)"/>
<path fill-rule="evenodd" clip-rule="evenodd" d="M97.2612 51.7142C97.2612 77.0642 76.7112 97.6142 51.3612 97.6142C26.0112 97.6142 5.46119 77.0642 5.46119 51.7142C5.46119 26.3642 26.0112 5.81422 51.3612 5.81422C76.7112 5.81422 97.2612 26.3642 97.2612 51.7142ZM51.3612 2.07422C78.7812 2.07422 101.001 24.2942 101.001 51.7142C101.001 79.1342 78.7712 101.354 51.3612 101.354C23.9412 101.354 1.72119 79.1242 1.72119 51.7142C1.72119 24.2942 23.9412 2.07422 51.3612 2.07422Z" fill="#F2F1F0"/>
<path fill-rule="evenodd" clip-rule="evenodd" d="M94.4513 51.7148C94.4513 75.5148 75.1613 94.8048 51.3613 94.8048C27.5613 94.8048 8.27125 75.5148 8.27125 51.7148C8.27125 27.9148 27.5613 8.62477 51.3613 8.62477C75.1613 8.62477 94.4513 27.9148 94.4513 51.7148ZM51.3613 4.88477C77.2213 4.88477 98.1913 25.8548 98.1913 51.7148C98.1913 77.5748 77.2213 98.5448 51.3613 98.5448C25.5013 98.5448 4.53125 77.5748 4.53125 51.7148C4.53125 25.8548 25.4913 4.88477 51.3613 4.88477Z" fill="url(#paint1_linear_653_26351)"/>
<path d="M25.768 63.8531C23.3593 63.8557 21.0397 62.9445 19.2764 61.3037C17.513 59.6629 16.4372 57.4145 16.2666 55.0119C16.096 52.6092 16.8435 50.2313 18.3573 48.3578C19.8711 46.4843 22.0389 45.2546 24.4237 44.9168C24.0369 43.3795 23.8381 41.801 23.8315 40.2157C23.836 35.9657 25.2602 31.8395 27.878 28.4914C30.4957 25.1433 34.1567 22.7653 38.2801 21.7358C42.4035 20.7063 46.7528 21.084 50.6371 22.8087C54.5214 24.5334 57.7182 27.5065 59.7198 31.2556C61.3644 30.4598 63.1668 30.0452 64.9939 30.0427C68.1551 30.0476 71.1857 31.3051 73.4219 33.5396C75.6581 35.7741 76.9182 38.8036 76.9257 41.9649C76.9179 42.9536 76.7952 43.9378 76.5593 44.898C76.9184 44.8591 77.279 44.8436 77.64 44.8512C78.8874 44.8375 80.1249 45.0719 81.2807 45.5412C82.4364 46.0105 83.4875 46.7052 84.3722 47.5846C85.2569 48.4641 85.9583 49.5108 86.4344 50.6638C86.9106 51.8168 87.1523 53.0528 87.146 54.3003C87.1435 56.8297 86.1368 59.2548 84.3474 61.0425C82.558 62.8302 80.1318 63.8343 77.6024 63.8343L25.768 63.8531Z" fill="url(#paint2_linear_653_26351)"/>
<path opacity="0.6" d="M25.7685 63.8531C23.3598 63.8557 21.0402 62.9445 19.2769 61.3037C17.5135 59.6629 16.4377 57.4145 16.2671 55.0119C16.0965 52.6092 16.844 50.2313 18.3578 48.3578C19.8716 46.4843 22.0394 45.2546 24.4242 44.9168C24.0373 43.3795 23.8386 41.801 23.832 40.2157C23.8365 35.9657 25.2607 31.8395 27.8785 28.4914C30.4962 25.1433 34.1572 22.7653 38.2806 21.7358C42.404 20.7063 46.7533 21.084 50.6376 22.8087C54.5219 24.5334 57.7187 27.5065 59.7203 31.2556C61.3649 30.4598 63.1673 30.0452 64.9943 30.0427C68.1556 30.0476 71.1861 31.3051 73.4224 33.5396C75.6586 35.7741 76.9187 38.8036 76.9262 41.9649C76.9184 42.9536 76.7956 43.9378 76.5598 44.898C76.9189 44.8591 77.2795 44.8436 77.6405 44.8512C78.8879 44.8375 80.1254 45.0719 81.2811 45.5412C82.4369 46.0105 83.488 46.7052 84.3727 47.5846C85.2574 48.4641 85.9588 49.5108 86.4349 50.6638C86.9111 51.8168 87.1528 53.0528 87.1465 54.3003C87.144 56.8297 86.1373 59.2548 84.3479 61.0425C82.5584 62.8302 80.1323 63.8343 77.6029 63.8343L25.7685 63.8531Z" fill="url(#paint3_linear_653_26351)"/>
<path d="M25.7685 63.8531C23.3598 63.8557 21.0402 62.9445 19.2769 61.3037C17.5135 59.6629 16.4377 57.4145 16.2671 55.0119C16.0965 52.6092 16.844 50.2313 18.3578 48.3578C19.8716 46.4843 22.0394 45.2546 24.4242 44.9168C24.0373 43.3795 23.8386 41.801 23.832 40.2157C23.8365 35.9657 25.2607 31.8395 27.8785 28.4914C30.4962 25.1433 34.1572 22.7653 38.2806 21.7358C42.404 20.7063 46.7533 21.084 50.6376 22.8087C54.5219 24.5334 57.7187 27.5065 59.7203 31.2556C61.3649 30.4598 63.1673 30.0452 64.9943 30.0427C68.1556 30.0476 71.1861 31.3051 73.4224 33.5396C75.6586 35.7741 76.9187 38.8036 76.9262 41.9649C76.9184 42.9536 76.7956 43.9378 76.5598 44.898C76.9189 44.8591 77.2795 44.8436 77.6405 44.8512C78.8879 44.8375 80.1254 45.0719 81.2811 45.5412C82.4369 46.0105 83.488 46.7052 84.3727 47.5846C85.2574 48.4641 85.9588 49.5108 86.4349 50.6638C86.9111 51.8168 87.1528 53.0528 87.1465 54.3003C87.144 56.8297 86.1373 59.2548 84.3479 61.0425C82.5584 62.8302 80.1323 63.8343 77.6029 63.8343L25.7685 63.8531Z" stroke="white" stroke-width="1.2" stroke-miterlimit="10"/>
<path opacity="0.15" d="M77.6022 63.8529H25.7678C23.6246 63.8504 21.5447 63.1267 19.863 61.798C18.1812 60.4694 16.9961 58.6131 16.4978 56.5286C16.3286 57.2337 16.2251 55.9364 16.2251 56.698C16.2276 59.2282 17.2336 61.6542 19.0228 63.4434C20.812 65.2326 23.2375 66.2386 25.7678 66.2411H77.6022C80.1325 66.2386 82.559 65.2326 84.3482 63.4434C86.1373 61.6542 87.1434 59.2282 87.1459 56.698C87.1459 55.9364 87.0424 57.2431 86.8732 56.5286C86.3748 58.6131 85.1888 60.4694 83.5071 61.798C81.8254 63.1267 79.7455 63.8504 77.6022 63.8529V63.8529Z" fill="#1F1D20"/>
<path d="M50.1112 80.6208C38.0625 80.6208 28.293 70.856 28.293 58.8026C28.293 46.7492 38.0625 36.9844 50.1112 36.9844C62.1599 36.9844 71.9294 46.7539 71.9294 58.8026C71.9294 70.8513 62.1599 80.6208 50.1112 80.6208Z" fill="#092E4C"/>
<g opacity="0.15">
<path d="M55.4801 63.7854C56.3992 63.7854 57.1443 63.0403 57.1443 62.1212C57.1443 61.2021 56.3992 60.457 55.4801 60.457C54.561 60.457 53.8159 61.2021 53.8159 62.1212C53.8159 63.0403 54.561 63.7854 55.4801 63.7854Z" fill="#1F1D20"/>
<path d="M50.5001 63.7854C51.4192 63.7854 52.1643 63.0403 52.1643 62.1212C52.1643 61.2021 51.4192 60.457 50.5001 60.457C49.581 60.457 48.8359 61.2021 48.8359 62.1212C48.8359 63.0403 49.581 63.7854 50.5001 63.7854Z" fill="#1F1D20"/>
<path d="M45.5314 63.7854C46.4505 63.7854 47.1956 63.0403 47.1956 62.1212C47.1956 61.2021 46.4505 60.457 45.5314 60.457C44.6123 60.457 43.8672 61.2021 43.8672 62.1212C43.8672 63.0403 44.6123 63.7854 45.5314 63.7854Z" fill="#1F1D20"/>
<path d="M50.2021 38.3027C37.8637 38.3027 27.8525 48.3139 27.8525 60.6523C27.8525 72.9907 37.8637 83.0018 50.2021 83.0018C62.5405 83.0018 72.5516 72.9907 72.5516 60.6523C72.5516 48.3139 62.5535 38.3027 50.2021 38.3027ZM50.2021 81.2726C38.8128 81.2726 29.5817 72.0415 29.5817 60.6523C29.5817 49.263 38.8128 40.0319 50.2021 40.0319C61.5913 40.0319 70.8224 49.263 70.8224 60.6523C70.8224 72.0415 61.5913 81.2726 50.2021 81.2726Z" fill="#1F1D20"/>
<path d="M57.1685 50.3418C54.3992 50.3418 51.9159 51.6159 50.2907 53.6182C50.2777 53.6312 50.2257 53.6832 50.1737 53.7612C50.1347 53.7092 50.0957 53.6702 50.0567 53.6182C48.4315 51.6159 45.9612 50.3418 43.1789 50.3418C38.2903 50.3418 34.3379 54.3072 34.3379 59.1828C34.3379 61.5491 35.261 63.6943 36.7692 65.2805L50.1997 77.6059L63.3832 65.4495C64.9954 63.8503 65.9965 61.6271 65.9965 59.1828C66.0095 54.2942 62.057 50.3418 57.1685 50.3418ZM61.914 64.6564C61.719 64.8124 50.1477 75.2916 50.1477 75.2916L37.9523 64.1624C36.7302 62.8622 35.9761 61.12 35.9761 59.1828C35.9761 55.1913 39.2134 51.941 43.2179 51.941C45.7402 51.941 47.6904 53.2281 50.1347 55.9844C50.1477 55.9974 50.2127 56.1014 50.2127 56.1014C50.2127 56.1014 50.2907 55.9844 50.3167 55.9584C52.618 53.2151 54.6852 51.941 57.1945 51.941C61.1859 51.941 64.4363 55.1783 64.4363 59.1828C64.4103 61.367 63.5002 63.3953 61.914 64.6564Z" fill="#1F1D20"/>
</g>
<path d="M55.4801 62.1506C56.3992 62.1506 57.1443 61.4056 57.1443 60.4865C57.1443 59.5673 56.3992 58.8223 55.4801 58.8223C54.561 58.8223 53.8159 59.5673 53.8159 60.4865C53.8159 61.4056 54.561 62.1506 55.4801 62.1506Z" fill="white"/>
<path d="M50.5001 62.1506C51.4192 62.1506 52.1643 61.4056 52.1643 60.4865C52.1643 59.5673 51.4192 58.8223 50.5001 58.8223C49.581 58.8223 48.8359 59.5673 48.8359 60.4865C48.8359 61.4056 49.581 62.1506 50.5001 62.1506Z" fill="white"/>
<path d="M45.5314 62.1506C46.4505 62.1506 47.1956 61.4056 47.1956 60.4865C47.1956 59.5673 46.4505 58.8223 45.5314 58.8223C44.6123 58.8223 43.8672 59.5673 43.8672 60.4865C43.8672 61.4056 44.6123 62.1506 45.5314 62.1506Z" fill="white"/>
<path d="M50.2021 36.668C37.8637 36.668 27.8525 46.6791 27.8525 59.0175C27.8525 71.3559 37.8637 81.367 50.2021 81.367C62.5405 81.367 72.5516 71.3559 72.5516 59.0175C72.5516 46.6791 62.5535 36.668 50.2021 36.668ZM50.2021 79.6378C38.8128 79.6378 29.5817 70.4068 29.5817 59.0175C29.5817 47.6282 38.8128 38.3972 50.2021 38.3972C61.5913 38.3972 70.8224 47.6282 70.8224 59.0175C70.8224 70.4068 61.5913 79.6378 50.2021 79.6378Z" fill="white"/>
<path d="M57.1685 48.707C54.3992 48.707 51.9159 49.9812 50.2907 51.9834C50.2777 51.9964 50.2257 52.0484 50.1737 52.1264C50.1347 52.0744 50.0957 52.0354 50.0567 51.9834C48.4315 49.9812 45.9612 48.707 43.1789 48.707C38.2903 48.707 34.3379 52.6725 34.3379 57.548C34.3379 59.9143 35.261 62.0595 36.7692 63.6457L50.1997 75.9711L63.3832 63.8147C64.9954 62.2156 65.9965 59.9923 65.9965 57.548C66.0095 52.6595 62.057 48.707 57.1685 48.707ZM61.914 63.0216C61.719 63.1777 50.1477 73.6569 50.1477 73.6569L37.9523 62.5276C36.7302 61.2274 35.9761 59.4853 35.9761 57.548C35.9761 53.5566 39.2134 50.3062 43.2179 50.3062C45.7402 50.3062 47.6904 51.5934 50.1347 54.3497C50.1477 54.3627 50.2127 54.4667 50.2127 54.4667C50.2127 54.4667 50.2907 54.3497 50.3167 54.3237C52.618 51.5804 54.6852 50.3062 57.1945 50.3062C61.1859 50.3062 64.4363 53.5436 64.4363 57.548C64.4103 59.7323 63.5002 61.7605 61.914 63.0216Z" fill="white"/>
<defs>
<linearGradient id="paint0_linear_653_26351" x1="49.5874" y1="-13.0752" x2="53.5694" y2="132.695" gradientUnits="userSpaceOnUse">
<stop stop-color="#00ABDE"/>
<stop offset="1" stop-color="#007ED8"/>
</linearGradient>
<linearGradient id="paint1_linear_653_26351" x1="2.79165" y1="-19.9078" x2="98.3192" y2="120.974" gradientUnits="userSpaceOnUse">
<stop stop-color="#007ED8"/>
<stop offset="0.7065" stop-color="#002D4C"/>
</linearGradient>
<linearGradient id="paint2_linear_653_26351" x1="51.6944" y1="21.168" x2="51.6944" y2="63.853" gradientUnits="userSpaceOnUse">
<stop stop-color="#00ABDE"/>
<stop offset="1" stop-color="#007ED8"/>
</linearGradient>
<linearGradient id="paint3_linear_653_26351" x1="50.1298" y1="-8.71355" x2="52.0008" y2="67.2191" gradientUnits="userSpaceOnUse">
<stop offset="0.57" stop-color="white" stop-opacity="0"/>
<stop offset="0.78" stop-color="white" stop-opacity="0.43"/>
<stop offset="0.9" stop-color="white" stop-opacity="0.5"/>
<stop offset="1" stop-color="white"/>
</linearGradient>
</defs>
</svg>
