<svg width="103" height="103" viewBox="0 0 103 103" fill="none" xmlns="http://www.w3.org/2000/svg">
<path d="M51.8837 98.7809C26.0337 98.7809 5.07373 77.8309 5.07373 51.9709C5.07373 26.1109 26.0337 5.16089 51.8837 5.16089C77.7337 5.16089 98.6937 26.1209 98.6937 51.9709C98.6937 77.8209 77.7337 98.7809 51.8837 98.7809Z" fill="url(#paint0_linear_943_62)"/>
<path fill-rule="evenodd" clip-rule="evenodd" d="M97.7837 51.9711C97.7837 77.3211 77.2337 97.871 51.8837 97.871C26.5337 97.871 5.98365 77.3211 5.98365 51.9711C5.98365 26.6211 26.5337 6.07106 51.8837 6.07106C77.2337 6.07106 97.7837 26.6211 97.7837 51.9711ZM51.8837 2.33105C79.3037 2.33105 101.524 24.5511 101.524 51.9711C101.524 79.3911 79.2937 101.611 51.8837 101.611C24.4637 101.611 2.24365 79.3811 2.24365 51.9711C2.24365 24.5511 24.4637 2.33105 51.8837 2.33105Z" fill="#F2F1F0"/>
<path fill-rule="evenodd" clip-rule="evenodd" d="M94.9737 51.971C94.9737 75.771 75.6837 95.061 51.8837 95.061C28.0837 95.061 8.79371 75.771 8.79371 51.971C8.79371 28.171 28.0837 8.881 51.8837 8.881C75.6837 8.881 94.9737 28.171 94.9737 51.971ZM51.8837 5.14099C77.7437 5.14099 98.7137 26.111 98.7137 51.971C98.7137 77.831 77.7437 98.801 51.8837 98.801C26.0237 98.801 5.05371 77.831 5.05371 51.971C5.05371 26.111 26.0137 5.14099 51.8837 5.14099Z" fill="url(#paint1_linear_943_62)"/>
<path d="M51.5588 32.0949C48.7888 32.0949 46.5288 29.8249 46.5288 27.0349C46.5288 24.2449 48.7888 21.9749 51.5588 21.9749C54.3288 21.9749 56.5888 24.2449 56.5888 27.0349C56.5888 29.8249 54.3288 32.0949 51.5588 32.0949ZM51.5588 23.9749C49.8888 23.9749 48.5288 25.3449 48.5288 27.0349C48.5288 28.7249 49.8888 30.0949 51.5588 30.0949C53.2288 30.0949 54.5888 28.7249 54.5888 27.0349C54.5888 25.3449 53.2288 23.9749 51.5588 23.9749Z" fill="url(#paint2_linear_943_62)"/>
<path d="M64.4287 80.1847H39.3287L36.6887 85.1047L34.9287 84.1547L42.2387 70.5447L43.9887 71.5047L40.3987 78.1847H63.3587L59.7687 71.5047L61.5287 70.5547L68.8387 84.1647L67.0787 85.1147L64.4287 80.1847Z" fill="url(#paint3_linear_943_62)"/>
<path d="M79.0887 32.4447H24.6987V69.0047H79.0887V32.4447Z" fill="url(#paint4_linear_943_62)"/>
<path d="M23.9888 27.0247H79.7788C80.8788 27.0247 81.7788 27.9247 81.7788 29.0247V31.1147C81.7788 32.2147 80.8788 33.1147 79.7788 33.1147H23.9888C22.8888 33.1147 21.9888 32.2147 21.9888 31.1147V29.0247C21.9888 27.9247 22.8888 27.0247 23.9888 27.0247Z" fill="url(#paint5_linear_943_62)"/>
<path d="M23.6788 68.2346H80.0788C81.0088 68.2346 81.7688 68.9946 81.7688 69.9246C81.7688 70.8546 81.0088 71.6146 80.0788 71.6146H23.6788C22.7488 71.6246 21.9888 70.8646 21.9888 69.9346C21.9888 68.9946 22.7488 68.2346 23.6788 68.2346Z" fill="url(#paint6_linear_943_62)"/>
<path d="M79.0887 32.4447H24.6987V69.0047H79.0887V32.4447Z" fill="url(#paint7_linear_943_62)"/>
<path d="M23.9888 27.0247H79.7788C80.8788 27.0247 81.7788 27.9247 81.7788 29.0247V31.1147C81.7788 32.2147 80.8788 33.1147 79.7788 33.1147H23.9888C22.8888 33.1147 21.9888 32.2147 21.9888 31.1147V29.0247C21.9888 27.9247 22.8888 27.0247 23.9888 27.0247Z" fill="url(#paint8_linear_943_62)"/>
<path d="M23.6788 68.2346H80.0788C81.0088 68.2346 81.7688 68.9946 81.7688 69.9246C81.7688 70.8546 81.0088 71.6146 80.0788 71.6146H23.6788C22.7488 71.6246 21.9888 70.8646 21.9888 69.9346C21.9888 68.9946 22.7488 68.2346 23.6788 68.2346Z" fill="url(#paint9_linear_943_62)"/>
<path opacity="0.15" d="M59.8241 36.9197C58.1141 36.7797 56.4041 37.2097 54.9741 38.1397C53.5341 39.0797 52.4541 40.4597 51.8941 42.0797C51.3241 40.4597 50.2341 39.0697 48.7941 38.1397C47.3541 37.2097 45.6441 36.7697 43.9341 36.9197C36.7741 37.4797 36.3841 44.5697 36.4941 47.2897C36.5441 49.2297 36.9241 55.3397 51.7141 65.9597L51.8441 66.0497L51.9741 65.9597C66.8341 55.3397 67.2141 49.1197 67.2741 47.1097C67.3841 44.4597 66.9841 37.4797 59.8241 36.9197Z" fill="#1F1D20"/>
<g filter="url(#filter0_d_943_62)">
<path d="M59.8241 35.5896C58.1141 35.4496 56.4041 35.8796 54.9741 36.8096C53.5341 37.7496 52.4541 39.1296 51.8941 40.7496C51.3241 39.1296 50.2341 37.7396 48.7941 36.8096C47.3541 35.8796 45.6441 35.4396 43.9341 35.5896C36.7741 36.1496 36.3841 43.2396 36.4941 45.9496C36.5441 47.8896 36.9241 53.9996 51.7141 64.6196L51.8441 64.7096L51.9741 64.6196C66.8341 53.9996 67.2141 47.7796 67.2741 45.7696C67.3841 43.1296 66.9841 36.1496 59.8241 35.5896Z" fill="url(#paint10_linear_943_62)"/>
</g>
<path d="M66.2242 39.97C66.8242 42.38 66.6242 44.93 65.6642 47.22C64.0642 50.84 60.5942 53.74 55.5342 55.88C55.3042 55.63 55.0242 55.43 54.7142 55.3C54.4042 55.17 54.0642 55.1 53.7242 55.1C53.2342 55.1 52.7542 55.24 52.3442 55.51C51.9342 55.78 51.6142 56.16 51.4242 56.61C51.2342 57.06 51.1742 57.56 51.2642 58.04C51.3542 58.52 51.5842 58.96 51.9242 59.32C52.2642 59.67 52.6942 59.92 53.1742 60.02C53.6542 60.13 54.1542 60.09 54.6042 59.91C55.0642 59.73 55.4542 59.43 55.7342 59.03C56.0142 58.63 56.1742 58.16 56.1842 57.67C60.1342 56.03 63.5942 53.39 66.2242 50.02C67.0842 48.18 67.4142 46.13 67.2042 44.11C67.1042 42.68 66.7742 41.28 66.2242 39.97Z" fill="#FEE452"/>
<path d="M47.8641 54.7297L47.1541 55.4497C42.1741 50.5397 40.5941 46.6397 42.6641 44.6097C44.7341 42.5797 48.5941 44.1597 53.5341 49.0897L52.8241 49.8097C52.7341 49.8997 52.6641 49.9997 52.6141 50.1197C52.5641 50.2397 52.5441 50.3597 52.5441 50.4797C52.5441 50.5997 52.5641 50.7297 52.6141 50.8397C52.6641 50.9597 52.7341 51.0597 52.8241 51.1497C52.9141 51.2397 53.0141 51.3097 53.1341 51.3597C53.2541 51.4097 53.3741 51.4397 53.4941 51.4397C53.6241 51.4397 53.7441 51.4097 53.8541 51.3597C53.9741 51.3097 54.0741 51.2397 54.1641 51.1497L55.5041 49.8097C55.6741 49.6297 55.7741 49.3897 55.7741 49.1397C55.7741 48.8897 55.6741 48.6497 55.5041 48.4697L54.8341 47.7997C51.4841 44.4297 45.7741 40.3497 42.1541 42.7697C41.1341 41.8097 40.4941 40.5297 40.3441 39.1397C40.2241 38.0797 40.5241 37.0297 41.1741 36.1897C40.1341 36.6497 39.2141 37.3497 38.4941 38.2297C38.3441 39.3297 38.4841 40.4497 38.8941 41.4797C39.3041 42.5097 39.9841 43.4097 40.8541 44.0997C38.4941 47.7197 42.5541 53.4197 45.9141 56.7897L46.5841 57.4797C46.7641 57.6497 47.0041 57.7497 47.2541 57.7497C47.5041 57.7497 47.7441 57.6497 47.9241 57.4797L49.2841 56.1197C49.4541 55.9397 49.5541 55.6997 49.5541 55.4497C49.5541 55.1997 49.4541 54.9597 49.2841 54.7797C49.2041 54.6797 49.0941 54.5897 48.9741 54.5297C48.8541 54.4697 48.7241 54.4397 48.5941 54.4297C48.4641 54.4197 48.3241 54.4497 48.2041 54.4997C48.0641 54.5497 47.9541 54.6297 47.8641 54.7297Z" fill="#FEE452"/>
<defs>
<filter id="filter0_d_943_62" x="32.4805" y="32.5608" width="38.8071" height="37.1488" filterUnits="userSpaceOnUse" color-interpolation-filters="sRGB">
<feFlood flood-opacity="0" result="BackgroundImageFix"/>
<feColorMatrix in="SourceAlpha" type="matrix" values="0 0 0 0 0 0 0 0 0 0 0 0 0 0 0 0 0 0 127 0" result="hardAlpha"/>
<feOffset dy="1"/>
<feGaussianBlur stdDeviation="2"/>
<feComposite in2="hardAlpha" operator="out"/>
<feColorMatrix type="matrix" values="0 0 0 0 0 0 0 0 0 0 0 0 0 0 0 0 0 0 0.25 0"/>
<feBlend mode="normal" in2="BackgroundImageFix" result="effect1_dropShadow_943_62"/>
<feBlend mode="normal" in="SourceGraphic" in2="effect1_dropShadow_943_62" result="shape"/>
</filter>
<linearGradient id="paint0_linear_943_62" x1="50.1098" y1="-12.8186" x2="54.0918" y2="132.952" gradientUnits="userSpaceOnUse">
<stop stop-color="#00ABDE"/>
<stop offset="1" stop-color="#007ED8"/>
</linearGradient>
<linearGradient id="paint1_linear_943_62" x1="3.31411" y1="-19.6516" x2="98.8416" y2="121.23" gradientUnits="userSpaceOnUse">
<stop stop-color="#007ED8"/>
<stop offset="0.7065" stop-color="#002D4C"/>
</linearGradient>
<linearGradient id="paint2_linear_943_62" x1="44.3207" y1="12.1014" x2="71.2498" y2="67.6603" gradientUnits="userSpaceOnUse">
<stop stop-color="#007ED8"/>
<stop offset="0.7065" stop-color="#002D4C"/>
</linearGradient>
<linearGradient id="paint3_linear_943_62" x1="57.7959" y1="156.725" x2="46.4573" y2="17.5444" gradientUnits="userSpaceOnUse">
<stop stop-color="#007ED8"/>
<stop offset="0.7065" stop-color="#002D4C"/>
</linearGradient>
<linearGradient id="paint4_linear_943_62" x1="51.8936" y1="69.0045" x2="51.8936" y2="32.4445" gradientUnits="userSpaceOnUse">
<stop stop-color="#D2EBFF"/>
<stop offset="1" stop-color="#F0FFFD"/>
</linearGradient>
<linearGradient id="paint5_linear_943_62" x1="51.8838" y1="27.0382" x2="51.8838" y2="33.1202" gradientUnits="userSpaceOnUse">
<stop stop-color="#0099BE"/>
<stop offset="1" stop-color="#006E97"/>
</linearGradient>
<linearGradient id="paint6_linear_943_62" x1="51.8788" y1="68.2432" x2="51.8788" y2="71.6236" gradientUnits="userSpaceOnUse">
<stop stop-color="#0099BE"/>
<stop offset="1" stop-color="#006E97"/>
</linearGradient>
<linearGradient id="paint7_linear_943_62" x1="51.8936" y1="69.0045" x2="51.8936" y2="32.4445" gradientUnits="userSpaceOnUse">
<stop stop-color="#D2EBFF"/>
<stop offset="1" stop-color="#F0FFFD"/>
</linearGradient>
<linearGradient id="paint8_linear_943_62" x1="51.8838" y1="27.0382" x2="51.8838" y2="33.1202" gradientUnits="userSpaceOnUse">
<stop stop-color="#007ED8"/>
<stop offset="0.7065" stop-color="#002D4C"/>
</linearGradient>
<linearGradient id="paint9_linear_943_62" x1="51.8788" y1="68.2432" x2="51.8788" y2="71.6236" gradientUnits="userSpaceOnUse">
<stop stop-color="#007ED8"/>
<stop offset="0.7065" stop-color="#002D4C"/>
</linearGradient>
<linearGradient id="paint10_linear_943_62" x1="51.8849" y1="64.7119" x2="51.8849" y2="35.5596" gradientUnits="userSpaceOnUse">
<stop stop-color="#ED7323"/>
<stop offset="0.13" stop-color="#F07D22"/>
<stop offset="0.43" stop-color="#F6921E"/>
<stop offset="0.72" stop-color="#F99F1D"/>
<stop offset="1" stop-color="#FAA21F"/>
</linearGradient>
</defs>
</svg>
