<svg width="100" height="100" viewBox="0 0 100 100" fill="none" xmlns="http://www.w3.org/2000/svg">
<g clip-path="url(#clip0_1148_1776)">
<path d="M49.6401 96.4499C40.382 96.4499 31.3317 93.7045 23.6339 88.561C15.936 83.4174 9.93624 76.1067 6.3933 67.5533C2.85036 58.9999 1.92337 49.588 3.72954 40.5077C5.53571 31.4275 9.99394 23.0867 16.5404 16.5402C23.0869 9.99372 31.4277 5.5355 40.5079 3.72933C49.5882 1.92315 59.0001 2.85015 67.5535 6.39308C76.1069 9.93602 83.4176 15.9358 88.5612 23.6336C93.7047 31.3315 96.4501 40.3817 96.4501 49.6399C96.4505 55.7872 95.24 61.8744 92.8878 67.5538C90.5355 73.2332 87.0875 78.3937 82.7407 82.7405C78.3939 87.0873 73.2335 90.5353 67.554 92.8876C61.8746 95.2398 55.7874 96.4503 49.6401 96.4499V96.4499Z" fill="url(#paint0_linear_1148_1776)"/>
<path fill-rule="evenodd" clip-rule="evenodd" d="M95.54 49.6399C95.54 58.718 92.848 67.5923 87.8045 75.1406C82.7609 82.6888 75.5923 88.5719 67.2052 92.046C58.818 95.52 49.5891 96.429 40.6854 94.6579C31.7816 92.8869 23.603 88.5153 17.1838 82.0961C10.7646 75.6769 6.39302 67.4983 4.62196 58.5945C2.85089 49.6908 3.75987 40.4618 7.23393 32.0747C10.708 23.6876 16.5911 16.519 24.1393 11.4754C31.6875 6.43187 40.5618 3.73988 49.64 3.73988C55.6677 3.73986 61.6363 4.92708 67.2052 7.23377C72.774 9.54045 77.834 12.9214 82.0963 17.1836C86.3585 21.4458 89.7394 26.5058 92.0461 32.0747C94.3528 37.6435 95.54 43.6122 95.54 49.6399V49.6399ZM49.64 -0.000106449C59.4579 -0.000106449 69.0552 2.91123 77.2185 8.36574C85.3818 13.8203 91.7442 21.573 95.5014 30.6435C99.2585 39.714 100.242 49.695 98.3262 59.3242C96.4108 68.9534 91.6831 77.7984 84.7408 84.7407C77.7985 91.683 68.9535 96.4107 59.3243 98.3261C49.6951 100.241 39.7141 99.2584 30.6436 95.5013C21.5731 91.7441 13.8204 85.3816 8.36584 77.2184C2.91133 69.0551 -1.61629e-06 59.4577 3.61524e-07 49.6399C-0.000786426 43.1208 1.28265 36.6655 3.77702 30.6425C6.27138 24.6196 9.92781 19.147 14.5375 14.5374C19.1471 9.9277 24.6197 6.27127 30.6427 3.77691C36.6656 1.28254 43.121 -0.000894549 49.64 -0.000106449V-0.000106449Z" fill="#F2F1F0"/>
<path fill-rule="evenodd" clip-rule="evenodd" d="M92.7296 49.64C92.7296 58.1624 90.2024 66.4934 85.4676 73.5795C80.7328 80.6656 74.0031 86.1886 66.1294 89.45C58.2557 92.7113 49.5918 93.5647 41.2331 91.902C32.8745 90.2394 25.1966 86.1355 19.1703 80.1092C13.1441 74.083 9.04017 66.4051 7.37753 58.0464C5.7149 49.6878 6.56822 41.0238 9.8296 33.1502C13.091 25.2765 18.6139 18.5468 25.7 13.812C32.7862 9.07718 41.1172 6.55 49.6396 6.55C55.2983 6.54965 60.9017 7.66397 66.1298 9.82933C71.3579 11.9947 76.1082 15.1687 80.1096 19.17C84.1109 23.1713 87.2849 27.9217 89.4502 33.1498C91.6156 38.3778 92.7299 43.9812 92.7296 49.64ZM49.6396 2.81C58.9017 2.81 67.9558 5.55653 75.6569 10.7023C83.3581 15.848 89.3604 23.1619 92.9049 31.7189C96.4493 40.276 97.3767 49.6919 95.5697 58.7761C93.7628 67.8602 89.3027 76.2045 82.7534 82.7538C76.2041 89.3031 67.8598 93.7632 58.7757 95.5702C49.6915 97.3771 40.2756 96.4497 31.7185 92.9053C23.1614 89.3608 15.8476 83.3585 10.7018 75.6574C5.5561 67.9562 2.80957 58.9021 2.80957 49.64C2.81076 37.2203 7.74501 25.3096 16.5271 16.5275C25.3091 7.74544 37.2198 2.81119 49.6396 2.81V2.81Z" fill="#0078D4"/>
<path fill-rule="evenodd" clip-rule="evenodd" d="M92.7301 49.7835C92.7301 58.3059 90.2029 66.6369 85.4681 73.723C80.7333 80.8091 74.0036 86.3321 66.1299 89.5935C58.2562 92.8549 49.5923 93.7082 41.2336 92.0455C32.875 90.3829 25.1971 86.279 19.1708 80.2527C13.1446 74.2265 9.04066 66.5486 7.37802 58.1899C5.71538 49.8313 6.56871 41.1673 9.83009 33.2937C13.0915 25.42 18.6144 18.6903 25.7005 13.9555C32.7867 9.22069 41.1177 6.69351 49.6401 6.69351C55.2988 6.69316 60.9022 7.80748 66.1303 9.97284C71.3584 12.1382 76.1087 15.3122 80.1101 19.3135C84.1114 23.3149 87.2854 28.0652 89.4507 33.2933C91.6161 38.5213 92.7304 44.1248 92.7301 49.7835V49.7835ZM49.6401 2.95351C58.9022 2.95351 67.9563 5.70004 75.6574 10.8458C83.3586 15.9915 89.3609 23.3054 92.9053 31.8624C96.4498 40.4195 97.3772 49.8355 95.5702 58.9196C93.7633 68.0037 89.3032 76.348 82.7539 82.8973C76.2046 89.4466 67.8603 93.9067 58.7761 95.7137C49.692 97.5206 40.2761 96.5932 31.719 93.0488C23.1619 89.5043 15.8481 83.502 10.7023 75.8009C5.55659 68.0997 2.81006 59.0456 2.81006 49.7835C2.81124 37.3638 7.74548 25.4531 16.5276 16.671C25.3096 7.88892 37.2203 2.95467 49.64 2.95348L49.6401 2.95351Z" fill="#0078D4"/>
<path d="M66.8968 24.9751H66.7968V21.8027C66.7968 20.2795 66.1918 18.8187 65.1147 17.7416C64.0376 16.6645 62.5768 16.0594 61.0536 16.0594H38.2049C36.6817 16.0594 35.2209 16.6645 34.1438 17.7416C33.0668 18.8187 32.4617 20.2795 32.4617 21.8027V24.9751H32.3823C32.2572 24.9751 32.1374 25.0247 32.049 25.1131C31.9606 25.2015 31.9109 25.3214 31.9109 25.4464V33.3859C31.9109 33.5109 31.9606 33.6308 32.049 33.7192C32.1374 33.8076 32.2572 33.8573 32.3823 33.8573H32.4617V35.2074H32.3823C32.2572 35.2074 32.1374 35.2571 32.049 35.3455C31.9606 35.4339 31.9109 35.5538 31.9109 35.6788V43.6183C31.9109 43.7433 31.9606 43.8632 32.049 43.9515C32.1374 44.0399 32.2572 44.0896 32.3823 44.0896H32.4617V69.5771C32.4617 71.1004 33.0668 72.5612 34.1438 73.6383C35.2209 74.7153 36.6817 75.3205 38.2049 75.3205H61.0535C62.5768 75.3205 64.0376 74.7153 65.1146 73.6383C66.1917 72.5612 66.7968 71.1004 66.7968 69.5771V33.8573H66.8968C67.0218 33.8573 67.1417 33.8076 67.2301 33.7192C67.3185 33.6308 67.3682 33.5109 67.3682 33.3859V25.4464C67.3682 25.3214 67.3185 25.2015 67.2301 25.1131C67.1417 25.0247 67.0218 24.9751 66.8968 24.9751Z" fill="url(#paint1_linear_1148_1776)"/>
<path d="M61.1666 18.9763H38.0934C36.4683 18.9763 35.1509 20.2937 35.1509 21.9188V69.4603C35.1509 71.0854 36.4683 72.4028 38.0934 72.4028H61.1666C62.7917 72.4028 64.1091 71.0854 64.1091 69.4603V21.9188C64.1091 20.2937 62.7917 18.9763 61.1666 18.9763Z" fill="#003067"/>
<path d="M61.6081 75.3205C61.6094 73.3037 61.1011 71.3194 60.1303 69.5517C59.1595 67.784 57.7578 66.2903 56.0553 65.2093C54.3528 64.1283 52.4047 63.495 50.392 63.3683C48.3792 63.2416 46.3671 63.6256 44.5425 64.4846C42.7178 65.3436 41.1399 66.6498 39.9551 68.2818C38.7703 69.9138 38.0172 71.8187 37.7656 73.8197C37.514 75.8207 37.7722 77.8528 38.5161 79.7273C39.26 81.6018 40.4655 83.2579 42.0207 84.5418L43.3921 85.5234C43.5143 85.5986 43.641 85.665 43.7655 85.7355C43.8513 85.7841 43.9353 85.8349 44.0224 85.8815C44.3149 86.0376 44.6127 86.1813 44.9159 86.3125C45.0027 86.3499 45.0919 86.3819 45.1796 86.4173C45.4168 86.5129 45.6566 86.6009 45.899 86.6812C46.0076 86.717 46.1158 86.7528 46.2257 86.7856C46.5463 86.8813 46.8697 86.9677 47.1975 87.0361C47.2538 87.0479 47.3118 87.0549 47.3685 87.0659C47.6641 87.1231 47.9622 87.1679 48.2622 87.2027C48.3625 87.2143 48.4628 87.2249 48.5639 87.234C48.9211 87.2662 49.2798 87.2885 49.6405 87.2885C49.9998 87.2885 50.3572 87.2663 50.7132 87.2341C50.8129 87.2252 50.9121 87.2151 51.0109 87.2039C51.3284 87.1672 51.6442 87.1209 51.9571 87.059C52.0315 87.0444 52.105 87.0276 52.1791 87.0115C52.4633 86.9497 52.7447 86.8763 53.0235 86.7938C53.1398 86.7595 53.2553 86.7234 53.3699 86.6856C53.6255 86.6016 53.878 86.509 54.1275 86.4077C54.1954 86.3802 54.2652 86.3569 54.3324 86.3282C54.6319 86.2002 54.9245 86.0557 55.2134 85.9032C55.3114 85.8514 55.4073 85.797 55.5039 85.7425C55.5913 85.6931 55.681 85.6483 55.7674 85.5967L57.207 84.5834C58.5822 83.463 59.6907 82.0504 60.4519 80.4482C61.2132 78.8459 61.6082 77.0943 61.6081 75.3205V75.3205Z" fill="url(#paint2_linear_1148_1776)"/>
<path fill-rule="evenodd" clip-rule="evenodd" d="M49.6403 85.5233C51.4791 85.5252 53.2837 85.0269 54.861 84.0818L52.8345 80.6521C52.7275 80.4923 52.5849 80.3596 52.4179 80.2644C52.251 80.1691 52.0642 80.1139 51.8722 80.1031H47.0896C46.8989 80.1136 46.7136 80.1701 46.5495 80.2675C46.3853 80.365 46.247 80.5006 46.1464 80.6629L44.3157 84.0197C45.9169 85.0047 47.7604 85.5252 49.6403 85.5233V85.5233Z" fill="white"/>
<path fill-rule="evenodd" clip-rule="evenodd" d="M57.2925 75.3205C57.2935 76.3253 57.0957 77.3205 56.7105 78.2485C56.3253 79.1766 55.7602 80.0193 55.0478 80.728L53.02 78.7002C53.4647 78.2568 53.8175 77.7301 54.0583 77.1501C54.299 76.5702 54.4229 75.9484 54.4229 75.3205C54.4229 74.6925 54.299 74.0708 54.0583 73.4908C53.8175 72.9109 53.4647 72.3841 53.02 71.9408L55.0478 69.913C55.7602 70.6217 56.3253 71.4643 56.7105 72.3924C57.0957 73.3205 57.2935 74.3156 57.2925 75.3205Z" fill="#9CEBFF"/>
<path opacity="0.3" fill-rule="evenodd" clip-rule="evenodd" d="M44.8578 75.3205C44.8572 75.9485 44.9808 76.5704 45.2216 77.1505C45.4624 77.7305 45.8155 78.2572 46.2607 78.7002L44.2329 80.728C43.5214 80.0186 42.9569 79.1759 42.5717 78.2479C42.1866 77.32 41.9883 76.3252 41.9883 75.3205C41.9883 74.3158 42.1866 73.321 42.5717 72.3931C42.9569 71.4651 43.5214 70.6224 44.2329 69.913L46.2607 71.9408C45.8155 72.3838 45.4624 72.9104 45.2216 73.4905C44.9808 74.0705 44.8572 74.6924 44.8578 75.3205Z" fill="#9CEBFF"/>
<path fill-rule="evenodd" clip-rule="evenodd" d="M49.6404 84.2479C47.8747 84.2479 46.1486 83.7243 44.6805 82.7434C43.2124 81.7624 42.0681 80.3681 41.3924 78.7368C40.7167 77.1055 40.5399 75.3105 40.8844 73.5788C41.2289 71.847 42.0791 70.2563 43.3277 69.0077C44.5762 67.7592 46.1669 66.9089 47.8987 66.5645C49.6305 66.22 51.4255 66.3968 53.0568 67.0725C54.6881 67.7482 56.0824 68.8924 57.0633 70.3606C58.0443 71.8287 58.5679 73.5547 58.5679 75.3204C58.5653 77.6873 57.6239 79.9566 55.9502 81.6303C54.2765 83.3039 52.0073 84.2453 49.6404 84.2479ZM49.6404 65.1176C47.6224 65.1176 45.6498 65.716 43.972 66.8371C42.2941 67.9582 40.9864 69.5516 40.2142 71.416C39.4419 73.2803 39.2399 75.3318 39.6336 77.3109C40.0272 79.2901 40.999 81.108 42.4259 82.5349C43.8528 83.9618 45.6707 84.9336 47.6499 85.3272C49.6291 85.7209 51.6805 85.5189 53.5448 84.7466C55.4092 83.9744 57.0026 82.6667 58.1237 80.9888C59.2448 79.311 59.8432 77.3384 59.8432 75.3204C59.8402 72.6154 58.7643 70.022 56.8515 68.1093C54.9388 66.1965 52.3454 65.1206 49.6404 65.1176Z" fill="white"/>
<path fill-rule="evenodd" clip-rule="evenodd" d="M50.7306 74.157C50.94 74.3531 51.0923 74.6023 51.1715 74.878C51.2507 75.1538 51.2537 75.4458 51.1802 75.7231C52.7769 74.8061 55.3015 73.3134 55.2039 73.0924C55.1003 72.8593 52.0905 73.5483 50.4392 73.9456C50.5441 74.0047 50.6419 74.0757 50.7306 74.157V74.157Z" fill="white"/>
<path fill-rule="evenodd" clip-rule="evenodd" d="M48.5775 76.4877C48.8084 76.7024 49.0977 76.8438 49.409 76.8941C49.7203 76.9443 50.0395 76.9012 50.3262 76.77C50.6129 76.6389 50.8543 76.4257 51.0199 76.1574C51.1855 75.889 51.2677 75.5776 51.2563 75.2625C51.2449 74.9474 51.1403 74.6428 50.9558 74.3872C50.7712 74.1315 50.515 73.9363 50.2196 73.8263C49.9241 73.7162 49.6026 73.6963 49.2958 73.7689C48.989 73.8416 48.7106 74.0036 48.4959 74.2344C48.2083 74.5442 48.0553 74.9555 48.0706 75.3779C48.0859 75.8004 48.2682 76.1995 48.5775 76.4877V76.4877ZM49.026 75.343C49.0216 75.217 49.0546 75.0925 49.1209 74.9852C49.1872 74.878 49.2838 74.7928 49.3985 74.7405C49.5132 74.6881 49.6408 74.6709 49.7653 74.6911C49.8897 74.7113 50.0054 74.7679 50.0977 74.8538C50.19 74.9397 50.2547 75.0511 50.2837 75.1738C50.3128 75.2965 50.3047 75.425 50.2607 75.5432C50.2167 75.6613 50.1386 75.7638 50.0364 75.8375C49.9341 75.9113 49.8123 75.9531 49.6863 75.9577C49.5173 75.9637 49.3528 75.9023 49.2289 75.787C49.1051 75.6718 49.0321 75.5121 49.026 75.343V75.343Z" fill="white"/>
<path opacity="0.6" fill-rule="evenodd" clip-rule="evenodd" d="M50.422 67.7078C50.1623 67.6814 49.9015 67.6682 49.6404 67.6683C48.6356 67.6671 47.6404 67.8649 46.7123 68.2501C45.7842 68.6354 44.9416 69.2005 44.2329 69.9129L46.2607 71.9407C46.7041 71.4961 47.2308 71.1432 47.8108 70.9025C48.3907 70.6618 49.0125 70.5378 49.6404 70.5378C50.2684 70.5378 50.8901 70.6618 51.4701 70.9025C52.05 71.1432 52.5768 71.4961 53.0201 71.9407L55.0479 69.9129C53.807 68.6656 52.1724 67.8865 50.422 67.7078V67.7078Z" fill="#9CEBFF"/>
<path d="M55.6945 27.6105L58.6366 30.5527C58.83 30.7461 58.9834 30.9757 59.0881 31.2283C59.1927 31.481 59.2466 31.7518 59.2466 32.0253C59.2466 32.2988 59.1927 32.5696 59.0881 32.8223C58.9834 33.0749 58.83 33.3045 58.6366 33.4979L56.2445 35.8896C56.7373 35.9642 57.1869 36.2131 57.5119 36.5909C57.8368 36.9688 58.0155 37.4507 58.0155 37.949V42.8084C58.0155 43.3607 57.7961 43.8904 57.4055 44.2809C57.015 44.6715 56.4853 44.8909 55.933 44.8909H43.4375C42.8852 44.8909 42.3555 44.6715 41.965 44.281C41.5744 43.8904 41.355 43.3607 41.355 42.8084V30.3129C41.355 30.0394 41.4088 29.7686 41.5135 29.5159C41.6182 29.2632 41.7716 29.0337 41.9649 28.8403C42.1583 28.6469 42.3879 28.4935 42.6406 28.3888C42.8933 28.2842 43.1641 28.2303 43.4375 28.2303H48.2969C48.7956 28.2303 49.2777 28.4093 49.6557 28.7346C50.0336 29.0599 50.2823 29.5101 50.3566 30.0032L52.7492 27.6105C53.1398 27.2199 53.6695 27.0005 54.2218 27.0005C54.7742 27.0005 55.3039 27.2199 55.6945 27.6105V27.6105ZM42.7434 42.8084C42.7434 42.9925 42.8165 43.169 42.9467 43.2992C43.0769 43.4294 43.2534 43.5025 43.4375 43.5026L48.9902 43.5019L48.9911 37.2548L42.7434 37.2542V42.8084ZM50.3785 43.5019L55.933 43.5026C56.1171 43.5025 56.2937 43.4294 56.4238 43.2992C56.554 43.169 56.6272 42.9925 56.6272 42.8084V37.949C56.6272 37.8578 56.6092 37.7676 56.5743 37.6833C56.5395 37.5991 56.4883 37.5226 56.4239 37.4581C56.3594 37.3937 56.2829 37.3425 56.1986 37.3076C56.1144 37.2728 56.0241 37.2548 55.933 37.2548L50.3785 37.2542V43.5019ZM48.2969 29.6187H43.4375C43.2534 29.6187 43.0769 29.6918 42.9467 29.822C42.8165 29.9522 42.7434 30.1288 42.7434 30.3129V35.8658H48.9911V30.3129C48.9911 30.1288 48.9179 29.9522 48.7877 29.822C48.6576 29.6918 48.481 29.6187 48.2969 29.6187V29.6187ZM50.3795 34.0701V35.8665L52.1751 35.8658L50.3795 34.0701ZM53.7309 28.5922L50.7887 31.5344C50.7243 31.5989 50.6732 31.6754 50.6383 31.7597C50.6034 31.8439 50.5854 31.9341 50.5854 32.0253C50.5854 32.1165 50.6034 32.2067 50.6383 32.291C50.6732 32.3752 50.7243 32.4517 50.7887 32.5162L53.7309 35.4584C53.8611 35.5885 54.0377 35.6617 54.2218 35.6617C54.4059 35.6617 54.5825 35.5885 54.7127 35.4584L57.6549 32.5162C57.7194 32.4517 57.7705 32.3752 57.8054 32.291C57.8403 32.2067 57.8583 32.1165 57.8583 32.0253C57.8583 31.9341 57.8403 31.8439 57.8054 31.7597C57.7705 31.6754 57.7194 31.5989 57.6549 31.5344L54.7127 28.5922C54.5825 28.462 54.4059 28.3889 54.2218 28.3889C54.0377 28.3889 53.8611 28.462 53.7309 28.5922V28.5922Z" fill="white"/>
<path d="M53.1787 52.7553H50.3894V49.9659C50.3894 49.5466 48.8709 49.5466 48.8709 49.9659V52.7553H46.0816C45.6623 52.7553 45.6623 54.2737 46.0816 54.2737H48.8709V57.0631C48.8709 57.4824 50.3894 57.4824 50.3894 57.0631V54.2737H53.1787C53.598 54.2737 53.598 52.7553 53.1787 52.7553Z" fill="white"/>
</g>
<defs>
<linearGradient id="paint0_linear_1148_1776" x1="47.8698" y1="-15.1532" x2="51.8525" y2="130.615" gradientUnits="userSpaceOnUse">
<stop stop-color="#00ABDE"/>
<stop offset="1" stop-color="#007ED8"/>
</linearGradient>
<linearGradient id="paint1_linear_1148_1776" x1="49.6395" y1="75.3205" x2="49.6395" y2="16.0594" gradientUnits="userSpaceOnUse">
<stop stop-color="#003067"/>
<stop offset="1" stop-color="#1F56A3"/>
</linearGradient>
<linearGradient id="paint2_linear_1148_1776" x1="49.6401" y1="87.2885" x2="49.6401" y2="63.3524" gradientUnits="userSpaceOnUse">
<stop stop-color="#004DAE"/>
<stop offset="0.21" stop-color="#0061C4"/>
<stop offset="0.51" stop-color="#0078DD"/>
<stop offset="0.78" stop-color="#0086EC"/>
<stop offset="1" stop-color="#008BF1"/>
</linearGradient>
<clipPath id="clip0_1148_1776">
<rect width="99.2799" height="99.28" fill="white"/>
</clipPath>
</defs>
</svg>
