<svg width="103" height="103" viewBox="0 0 103 103" fill="none" xmlns="http://www.w3.org/2000/svg">
<path d="M51.8183 98.6403C25.9683 98.6403 5.0083 77.6903 5.0083 51.8303C5.0083 25.9703 25.9683 5.02026 51.8183 5.02026C77.6683 5.02026 98.6283 25.9803 98.6283 51.8303C98.6283 77.6803 77.6683 98.6403 51.8183 98.6403Z" fill="url(#paint0_linear_1032_147)"/>
<path fill-rule="evenodd" clip-rule="evenodd" d="M97.7182 51.8304C97.7182 77.1804 77.1682 97.7304 51.8182 97.7304C26.4682 97.7304 5.91822 77.1804 5.91822 51.8304C5.91822 26.4804 26.4682 5.93044 51.8182 5.93044C77.1682 5.93044 97.7182 26.4804 97.7182 51.8304ZM51.8182 2.19043C79.2382 2.19043 101.458 24.4104 101.458 51.8304C101.458 79.2504 79.2282 101.47 51.8182 101.47C24.3982 101.47 2.17822 79.2404 2.17822 51.8304C2.17822 24.4104 24.3982 2.19043 51.8182 2.19043Z" fill="#F2F1F0"/>
<path fill-rule="evenodd" clip-rule="evenodd" d="M94.9083 51.8302C94.9083 75.6302 75.6183 94.9202 51.8183 94.9202C28.0183 94.9202 8.72828 75.6302 8.72828 51.8302C8.72828 28.0302 28.0183 8.74025 51.8183 8.74025C75.6183 8.74025 94.9083 28.0302 94.9083 51.8302ZM51.8183 5.00024C77.6783 5.00024 98.6483 25.9702 98.6483 51.8302C98.6483 77.6902 77.6783 98.6603 51.8183 98.6603C25.9583 98.6603 4.98828 77.6902 4.98828 51.8302C4.98828 25.9702 25.9483 5.00024 51.8183 5.00024Z" fill="url(#paint1_linear_1032_147)"/>
<path fill-rule="evenodd" clip-rule="evenodd" d="M14.6191 36.3267C14.6191 36.0505 14.843 35.8267 15.1191 35.8267H22.5785C22.8546 35.8267 23.0785 36.0505 23.0785 36.3267C23.0785 36.6028 22.8546 36.8267 22.5785 36.8267H15.6191L15.6191 65.3246H22.5657C22.8418 65.3246 23.0657 65.5484 23.0657 65.8246C23.0657 66.1007 22.8418 66.3246 22.5657 66.3246H15.1191C14.843 66.3246 14.6191 66.1007 14.6191 65.8246L14.6191 36.3267Z" fill="white"/>
<path fill-rule="evenodd" clip-rule="evenodd" d="M43.5391 36.3267C43.5391 36.0505 43.3152 35.8267 43.0391 35.8267H35.5797C35.3036 35.8267 35.0797 36.0505 35.0797 36.3267C35.0797 36.6028 35.3036 36.8267 35.5797 36.8267H42.5391L42.5391 65.3246H35.5925C35.3164 65.3246 35.0925 65.5484 35.0925 65.8246C35.0925 66.1007 35.3164 66.3246 35.5925 66.3246H43.0391C43.3152 66.3246 43.5391 66.1007 43.5391 65.8246L43.5391 36.3267Z" fill="white"/>
<path fill-rule="evenodd" clip-rule="evenodd" d="M62.8413 41.2134C62.8413 40.9372 62.6175 40.7134 62.3413 40.7134H43.2943C43.0182 40.7134 42.7943 40.9372 42.7943 41.2134C42.7943 41.4895 43.0182 41.7134 43.2943 41.7134H61.8413L61.8413 60.438H43.3269C43.0508 60.438 42.8269 60.6619 42.8269 60.938C42.8269 61.2142 43.0508 61.438 43.3269 61.438H62.3413C62.6175 61.438 62.8413 61.2142 62.8413 60.938L62.8413 41.2134Z" fill="white"/>
<path fill-rule="evenodd" clip-rule="evenodd" d="M66.5527 51.0024C66.5527 51.2786 66.3289 51.5024 66.0527 51.5024H62.5392C62.2631 51.5024 62.0392 51.2786 62.0392 51.0024C62.0392 50.7263 62.2631 50.5024 62.5392 50.5024H66.0527C66.3289 50.5024 66.5527 50.7263 66.5527 51.0024Z" fill="white"/>
<path opacity="0.2" d="M39.6981 62.9884C40.193 62.9884 40.5935 62.5879 40.5935 62.093V40.9221H17.9692V62.093C17.9692 62.5879 18.3697 62.9884 18.8647 62.9884H39.6981Z" fill="#1F1D21"/>
<g filter="url(#filter0_d_1032_147)">
<path d="M40.5935 40.9128V40.5619C40.5935 40.1254 40.2425 39.7744 39.806 39.7744H18.7567C18.3202 39.7744 17.9692 40.1254 17.9692 40.5619V40.9488V41.3043V61.4492C17.9692 61.8857 18.3202 62.2367 18.7567 62.2367H39.815C40.2515 62.2367 40.6025 61.8857 40.6025 61.4492V40.9488C40.598 40.9353 40.5935 40.9263 40.5935 40.9128Z" fill="white"/>
</g>
<path opacity="0.4" d="M36.6607 56.0693L29.2861 60.3775L21.9116 56.0693L29.2846 51.783L36.6607 56.0693Z" fill="#1F1D20"/>
<path d="M36.6606 46.6714V55.2162L29.3032 59.5243V50.9593L36.6606 46.6714Z" fill="#32B0E7"/>
<path d="M36.6607 46.6714L29.3032 50.9609L21.9116 46.6714L29.2846 42.385L36.6607 46.6714Z" fill="#45CAF2"/>
<path d="M29.3032 50.9593V59.5243L21.9116 55.2146V46.6714L29.3032 50.9593Z" fill="#0078D4"/>
<path d="M21.9116 55.2148L29.3032 50.9595V59.5245L21.9116 55.2148Z" fill="#185A97"/>
<path d="M36.6606 55.2163L29.3032 50.9595V59.5245L36.6606 55.2163Z" fill="#156AB3"/>
<path opacity="0.15" d="M88.1387 36.7876L66.2581 36.6077C65.7836 36.6027 65.3989 36.9824 65.3989 37.457L65.1641 66.0116C65.1591 66.4862 65.5388 66.8709 66.0134 66.8709L87.8939 67.0507C88.3685 67.0557 88.7532 66.676 88.7532 66.2015L88.988 37.6468C88.983 37.1772 88.6033 36.7926 88.1387 36.7876Z" fill="#1F1D20"/>
<g filter="url(#filter1_d_1032_147)">
<path d="M88.1437 35.8833L66.2631 35.7034C65.7886 35.6984 65.4039 36.0781 65.4039 36.5527L65.1641 65.1023C65.1591 65.5769 65.5388 65.9616 66.0134 65.9616L87.8939 66.1414C88.3685 66.1464 88.7532 65.7667 88.7532 65.2922L88.988 36.7375C88.988 36.2729 88.6133 35.8883 88.1437 35.8833Z" fill="#F2F2F2"/>
</g>
<path opacity="0.15" d="M86.6203 36.8625H67.5322V63.444H86.6203V36.8625Z" fill="#1F1D20"/>
<g filter="url(#filter2_d_1032_147)">
<path d="M86.6203 36.5576H67.5322V63.139H86.6203V36.5576Z" fill="white"/>
</g>
<path fill-rule="evenodd" clip-rule="evenodd" d="M78.2176 32.566C78.8371 32.9007 79.1968 33.5651 79.1918 34.2645V34.4343C79.1918 34.4993 79.1868 34.5542 79.1818 34.6192L80.5256 34.6291C80.9252 34.6341 81.2999 34.834 81.4997 35.1837C82.0592 36.1778 81.3499 37.1869 80.4157 37.1769L73.6317 37.1269C73.2321 37.1219 72.8574 36.9221 72.6576 36.5724C72.0981 35.5783 72.8074 34.5692 73.7416 34.5792L74.9905 34.5892C74.9855 34.5292 74.9855 34.4693 74.9855 34.4043V34.3494C75.0055 32.8307 76.6191 31.7067 78.2176 32.566Z" fill="#243A5E"/>
<path d="M77.0687 35.3487C77.5483 35.3537 77.9379 34.9691 77.9429 34.4895C77.9479 34.0099 77.5633 33.6203 77.0837 33.6153C76.6041 33.6103 76.2145 33.9949 76.2095 34.4745C76.2095 34.9541 76.5891 35.3437 77.0687 35.3487Z" fill="#019EDD"/>
<path d="M89.5844 48.7932L88.5664 49.7748L91.0822 52.3851L92.6018 50.8654L92.1074 48.5896L89.5844 48.7932Z" fill="url(#paint2_linear_1032_147)"/>
<path d="M80.5682 57.78L79.5503 58.7543L82.0952 61.3573L83.5566 59.8886L83.0695 57.6055L80.5682 57.78Z" fill="url(#paint3_linear_1032_147)"/>
<path d="M92.4632 48.4296C91.7579 47.7243 90.8854 47.448 90.5 47.8043H90.4928L89.3803 48.9313C89.373 48.9386 89.3803 48.9531 89.3948 48.9459C89.8166 48.7132 90.6164 49.004 91.278 49.6512C91.8743 50.2474 92.1651 50.9599 92.0415 51.4035C92.0415 51.418 92.0488 51.4253 92.056 51.4108L93.074 50.4001L93.0813 50.3928C93.0813 50.3928 93.0813 50.3928 93.0813 50.3855L93.0885 50.3783C93.4448 50.0147 93.1685 49.1422 92.4632 48.4296Z" fill="#092E4C"/>
<path d="M90.6313 50.2619C89.9332 49.5639 89.0753 49.2876 88.6753 49.6293L80.3354 57.9692C80.3209 57.9838 80.3354 58.0129 80.3573 58.0056C80.8008 57.8383 81.5352 58.1219 82.1605 58.7472C82.7422 59.3289 83.033 60.0197 82.9312 60.4705C82.9239 60.4923 82.9603 60.5141 82.9748 60.4923L91.2638 52.2033C91.6056 51.8179 91.3366 50.9599 90.6313 50.2619Z" fill="#092E4C"/>
<path d="M81.4985 59.3945C80.7786 58.6747 79.8988 58.4057 79.5207 58.7692V58.7765L78.8373 61.3286C78.9463 61.2196 79.0118 61.4159 79.2153 61.6195C79.4262 61.8231 79.3462 61.7867 79.2372 61.8958L78.75 62.332L82.1165 61.3723C82.4873 60.9942 82.211 60.1071 81.4985 59.3945Z" fill="#FFBB00"/>
<path d="M79.4119 61.5103C79.2083 61.3068 78.9538 61.2195 78.8374 61.3286L78.612 62.1938C78.5902 62.2811 78.6702 62.3538 78.7502 62.332L79.5936 62.0848C79.7027 61.9757 79.6227 61.7139 79.4119 61.5103Z" fill="#092E4C"/>
<path opacity="0.15" d="M82.6467 44.1868C82.6467 43.9295 82.4362 43.7151 82.1751 43.7151H74.8662C74.6089 43.7151 74.3945 43.9256 74.3945 44.1868C74.3945 44.4479 74.605 44.6584 74.8662 44.6584H82.1751C82.4362 44.6584 82.6467 44.4479 82.6467 44.1868Z" fill="#1F1D20"/>
<path opacity="0.15" d="M82.6467 47.4924C82.6467 47.2312 82.4362 47.0208 82.1751 47.0208H74.8662C74.6089 47.0208 74.3945 47.2312 74.3945 47.4924C74.3945 47.7536 74.605 47.968 74.8662 47.968H82.1751C82.4362 47.9602 82.6467 47.7536 82.6467 47.4924Z" fill="#1F1D20"/>
<path opacity="0.15" d="M82.6467 50.8018C82.6467 50.5406 82.4362 50.3301 82.1751 50.3301H74.8662C74.6089 50.3262 74.3945 50.5367 74.3945 50.8018C74.3945 51.063 74.605 51.2735 74.8662 51.2735H82.1751C82.4362 51.2735 82.6467 51.063 82.6467 50.8018Z" fill="#1F1D20"/>
<path opacity="0.15" d="M71.4589 44.6476L71.1046 44.2932C71.0817 44.2688 71.0541 44.2493 71.0234 44.236C70.9927 44.2227 70.9596 44.2159 70.9262 44.2159C70.8927 44.2159 70.8596 44.2227 70.829 44.236C70.7983 44.2493 70.7706 44.2688 70.7478 44.2932C70.7233 44.3161 70.7039 44.3437 70.6906 44.3744C70.6773 44.4051 70.6704 44.4382 70.6704 44.4716C70.6704 44.505 70.6773 44.5381 70.6906 44.5688C70.7039 44.5995 70.7233 44.6271 70.7478 44.65L71.2976 45.1999C71.319 45.222 71.3447 45.2395 71.373 45.2515C71.4014 45.2635 71.4318 45.2697 71.4626 45.2697C71.4933 45.2697 71.5238 45.2635 71.5522 45.2515C71.5805 45.2395 71.6061 45.222 71.6275 45.1999L72.825 44.0024V43.2839L71.4589 44.6476Z" fill="#1F1D20"/>
<path opacity="0.15" d="M71.4588 48.2706L71.1044 47.9138C71.0816 47.8894 71.0539 47.8699 71.0233 47.8566C70.9926 47.8433 70.9595 47.8365 70.926 47.8365C70.8926 47.8365 70.8595 47.8433 70.8288 47.8566C70.7981 47.8699 70.7705 47.8894 70.7476 47.9138C70.7228 47.9367 70.703 47.9645 70.6895 47.9954C70.6759 48.0263 70.6689 48.0597 70.6689 48.0934C70.6689 48.1272 70.6759 48.1606 70.6895 48.1915C70.703 48.2224 70.7228 48.2502 70.7476 48.2731L71.2975 48.8229C71.3425 48.8641 71.4014 48.887 71.4624 48.887C71.5235 48.887 71.5823 48.8641 71.6274 48.8229L72.8248 47.623V46.907L71.4588 48.2706Z" fill="#1F1D20"/>
<path opacity="0.15" d="M71.4589 51.9034L71.0997 51.5417C71.0768 51.5173 71.0492 51.4979 71.0185 51.4846C70.9878 51.4712 70.9547 51.4644 70.9213 51.4644C70.8879 51.4644 70.8548 51.4712 70.8241 51.4846C70.7934 51.4979 70.7658 51.5173 70.7429 51.5417C70.7185 51.5646 70.699 51.5922 70.6857 51.6229C70.6724 51.6536 70.6655 51.6867 70.6655 51.7201C70.6655 51.7536 70.6724 51.7867 70.6857 51.8174C70.699 51.848 70.7185 51.8757 70.7429 51.8985L71.2928 52.4484C71.3378 52.4896 71.3966 52.5125 71.4577 52.5125C71.5188 52.5125 71.5776 52.4896 71.6227 52.4484L72.825 51.2509V50.5374L71.4589 51.9034Z" fill="#1F1D20"/>
<path d="M73.4266 42.8835C73.4038 42.8591 73.3762 42.8396 73.3455 42.8263C73.3148 42.813 73.2817 42.8062 73.2482 42.8062C73.2148 42.8062 73.1817 42.813 73.151 42.8263C73.1203 42.8396 73.0927 42.8591 73.0698 42.8835L71.4618 44.4915L71.1075 44.1347C71.0846 44.1103 71.057 44.0908 71.0263 44.0775C70.9956 44.0642 70.9626 44.0574 70.9291 44.0574C70.8957 44.0574 70.8625 44.0642 70.8319 44.0775C70.8012 44.0908 70.7736 44.1103 70.7507 44.1347C70.7263 44.1576 70.7068 44.1852 70.6935 44.2159C70.6802 44.2466 70.6733 44.2797 70.6733 44.3131C70.6733 44.3466 70.6802 44.3797 70.6935 44.4103C70.7068 44.441 70.7263 44.4686 70.7507 44.4915L71.3005 45.0414C71.322 45.0635 71.3476 45.081 71.376 45.093C71.4043 45.105 71.4347 45.1112 71.4655 45.1112C71.4963 45.1112 71.5267 45.105 71.5551 45.093C71.5834 45.081 71.6091 45.0635 71.6305 45.0414L73.4291 43.2403C73.4533 43.2173 73.4726 43.1895 73.4857 43.1587C73.4988 43.128 73.5054 43.0948 73.5052 43.0614C73.505 43.0279 73.4979 42.9949 73.4844 42.9643C73.4708 42.9337 73.4512 42.9062 73.4266 42.8835Z" fill="#35AFE4"/>
<path d="M73.4261 46.4917C73.4033 46.4672 73.3757 46.4478 73.345 46.4345C73.3143 46.4212 73.2812 46.4143 73.2478 46.4143C73.2143 46.4143 73.1812 46.4212 73.1505 46.4345C73.1199 46.4478 73.0922 46.4672 73.0693 46.4917L71.4613 48.1021L71.107 47.7453C71.0842 47.7209 71.0565 47.7014 71.0258 47.6881C70.9952 47.6748 70.9621 47.668 70.9286 47.668C70.8952 47.668 70.8621 47.6748 70.8314 47.6881C70.8007 47.7014 70.7731 47.7209 70.7502 47.7453C70.7258 47.7682 70.7063 47.7958 70.693 47.8265C70.6797 47.8572 70.6729 47.8903 70.6729 47.9237C70.6729 47.9572 70.6797 47.9903 70.693 48.0209C70.7063 48.0516 70.7258 48.0792 70.7502 48.1021L71.3001 48.6544C71.3451 48.6956 71.404 48.7185 71.465 48.7185C71.5261 48.7185 71.5849 48.6956 71.63 48.6544L73.4286 46.8509C73.4532 46.8278 73.4728 46.7999 73.4862 46.7689C73.4995 46.7379 73.5063 46.7045 73.506 46.6708C73.5058 46.637 73.4986 46.6037 73.4849 46.5728C73.4711 46.542 73.4511 46.5144 73.4261 46.4917Z" fill="#2E76BC"/>
<path d="M73.4237 50.1364C73.4009 50.112 73.3732 50.0926 73.3425 50.0792C73.3119 50.0659 73.2788 50.0591 73.2453 50.0591C73.2119 50.0591 73.1788 50.0659 73.1481 50.0792C73.1174 50.0926 73.0898 50.112 73.0669 50.1364L71.4589 51.7469L71.0997 51.3852C71.0768 51.3608 71.0492 51.3413 71.0185 51.328C70.9878 51.3147 70.9547 51.3078 70.9213 51.3078C70.8879 51.3078 70.8548 51.3147 70.8241 51.328C70.7934 51.3413 70.7658 51.3608 70.7429 51.3852C70.7185 51.4081 70.699 51.4357 70.6857 51.4664C70.6724 51.4971 70.6655 51.5302 70.6655 51.5636C70.6655 51.597 70.6724 51.6301 70.6857 51.6608C70.699 51.6915 70.7185 51.7191 70.7429 51.742L71.2928 52.2918C71.3378 52.3331 71.3966 52.3559 71.4577 52.3559C71.5188 52.3559 71.5776 52.3331 71.6227 52.2918L73.4237 50.4957C73.4485 50.4728 73.4683 50.445 73.4819 50.4141C73.4954 50.3832 73.5024 50.3498 73.5024 50.3161C73.5024 50.2823 73.4954 50.2489 73.4819 50.218C73.4683 50.1871 73.4485 50.1593 73.4237 50.1364Z" fill="url(#paint4_linear_1032_147)"/>
<path d="M82.6467 44.0774C82.6467 43.8201 82.4362 43.6057 82.1751 43.6057H74.8662C74.6089 43.6057 74.3945 43.8162 74.3945 44.0774C74.3945 44.3385 74.605 44.549 74.8662 44.549H82.1751C82.4362 44.549 82.6467 44.3385 82.6467 44.0774Z" fill="#35AFE4"/>
<path d="M82.6467 47.3826C82.6467 47.1214 82.4362 46.9109 82.1751 46.9109H74.8662C74.6089 46.9109 74.3945 47.1214 74.3945 47.3826C74.3945 47.6437 74.605 47.8581 74.8662 47.8581H82.1751C82.4362 47.8503 82.6467 47.6437 82.6467 47.3826Z" fill="#2E76BC"/>
<path d="M82.6467 50.6919C82.6467 50.4308 82.4362 50.2203 82.1751 50.2203H74.8662C74.6089 50.2164 74.3945 50.4269 74.3945 50.6919C74.3945 50.9531 74.605 51.1636 74.8662 51.1636H82.1751C82.4362 51.1636 82.6467 50.9531 82.6467 50.6919Z" fill="#194E84"/>
<path opacity="0.2" d="M59.659 50.7332C60.0589 50.7332 60.3847 50.4074 60.3847 50.0076V36.8083H46.1143V50.0027C46.1143 50.4025 46.44 50.7283 46.8399 50.7283L59.659 50.7332Z" fill="#1F1D21"/>
<g filter="url(#filter3_d_1032_147)">
<path d="M60.3847 36.5812V36.3591C60.3847 36.0827 60.1625 35.8655 59.891 35.8655H46.6079C46.3364 35.8655 46.1143 36.0876 46.1143 36.3591V36.6059V36.828V49.5386C46.1143 49.815 46.3364 50.0322 46.6079 50.0322H59.8861C60.1625 50.0322 60.3797 49.8101 60.3797 49.5386V36.6059C60.3896 36.596 60.3847 36.5911 60.3847 36.5812Z" fill="white"/>
</g>
<path opacity="0.2" d="M59.659 66.9942C60.0589 66.9942 60.3847 66.6684 60.3847 66.2686V53.0693H46.1143V66.2637C46.1143 66.6635 46.44 66.9893 46.8399 66.9893L59.659 66.9942Z" fill="#1F1D21"/>
<g filter="url(#filter4_d_1032_147)">
<path d="M60.3847 52.8422V52.6201C60.3847 52.3437 60.1625 52.1265 59.891 52.1265H46.6079C46.3364 52.1265 46.1143 52.3486 46.1143 52.6201V52.8669V53.089V65.7996C46.1143 66.076 46.3364 66.2932 46.6079 66.2932H59.8861C60.1625 66.2932 60.3797 66.0711 60.3797 65.7996V52.8669C60.3896 52.857 60.3847 52.8521 60.3847 52.8422Z" fill="white"/>
</g>
<path d="M53.6026 39.1473L52.7203 38.2374C52.6006 38.113 52.3998 38.1186 52.2865 38.2484L48.5582 42.5063C48.3915 42.696 48.3915 42.9797 48.5573 43.1703L52.2515 47.4171C52.3906 47.5765 52.6383 47.5765 52.7774 47.4171L53.8808 46.1443L54.0024 39.5913L53.6026 39.1473Z" fill="url(#paint5_linear_1032_147)"/>
<path d="M57.9426 42.3205L54.2677 38.303C54.1093 38.1326 53.8404 38.1308 53.6792 38.2975L51.9827 40.0511C51.7985 40.2418 51.7957 40.5429 51.9762 40.7373L53.716 42.6042C53.844 42.7414 53.844 42.9532 53.7169 43.0905L51.9689 44.9785C51.7893 45.1719 51.7929 45.4722 51.9762 45.6619L53.6783 47.4275C53.8404 47.5951 54.1102 47.5924 54.2686 47.4211L57.9444 43.3732C58.2161 43.0757 58.2152 42.6189 57.9426 42.3205Z" fill="url(#paint6_linear_1032_147)"/>
<path d="M58.1175 43.1843L56.4772 45.0033C56.3528 45.1405 56.1382 45.1451 56.0093 45.0125L54.3607 43.3279C54.0936 43.0553 54.0927 42.6197 54.3579 42.3452L55.9752 40.6736C56.1042 40.54 56.3197 40.5437 56.444 40.681L58.1175 42.5257C58.286 42.7127 58.286 42.9973 58.1175 43.1843Z" fill="url(#paint7_linear_1032_147)"/>
<path d="M55.2721 58.0777L52.162 59.8941L48.8925 56.252C48.6509 55.9837 48.8418 55.5559 49.2023 55.5559H55.2712V58.0777H55.2721Z" fill="url(#paint8_linear_1032_147)"/>
<path d="M56.9974 57.542L55.2455 55.5688L48.8696 62.6898C48.6539 62.9313 48.8245 63.314 49.149 63.314H51.8137L56.9974 57.542Z" fill="url(#paint9_linear_1032_147)"/>
<path d="M58.4743 59.1958L56.9833 57.5159L51.7222 63.3136H55.1134C55.1844 63.3136 55.2517 63.2841 55.2997 63.2316L58.4696 59.7776C58.6199 59.6135 58.6227 59.3627 58.4743 59.1958Z" fill="url(#paint10_linear_1032_147)"/>
<defs>
<filter id="filter0_d_1032_147" x="13.9692" y="37.7744" width="30.6333" height="30.4622" filterUnits="userSpaceOnUse" color-interpolation-filters="sRGB">
<feFlood flood-opacity="0" result="BackgroundImageFix"/>
<feColorMatrix in="SourceAlpha" type="matrix" values="0 0 0 0 0 0 0 0 0 0 0 0 0 0 0 0 0 0 127 0" result="hardAlpha"/>
<feOffset dy="2"/>
<feGaussianBlur stdDeviation="2"/>
<feComposite in2="hardAlpha" operator="out"/>
<feColorMatrix type="matrix" values="0 0 0 0 0 0 0 0 0 0 0 0 0 0 0 0 0 0 0.25 0"/>
<feBlend mode="normal" in2="BackgroundImageFix" result="effect1_dropShadow_1032_147"/>
<feBlend mode="normal" in="SourceGraphic" in2="effect1_dropShadow_1032_147" result="shape"/>
</filter>
<filter id="filter1_d_1032_147" x="61.1641" y="33.7034" width="31.8237" height="38.438" filterUnits="userSpaceOnUse" color-interpolation-filters="sRGB">
<feFlood flood-opacity="0" result="BackgroundImageFix"/>
<feColorMatrix in="SourceAlpha" type="matrix" values="0 0 0 0 0 0 0 0 0 0 0 0 0 0 0 0 0 0 127 0" result="hardAlpha"/>
<feOffset dy="2"/>
<feGaussianBlur stdDeviation="2"/>
<feComposite in2="hardAlpha" operator="out"/>
<feColorMatrix type="matrix" values="0 0 0 0 0 0 0 0 0 0 0 0 0 0 0 0 0 0 0.25 0"/>
<feBlend mode="normal" in2="BackgroundImageFix" result="effect1_dropShadow_1032_147"/>
<feBlend mode="normal" in="SourceGraphic" in2="effect1_dropShadow_1032_147" result="shape"/>
</filter>
<filter id="filter2_d_1032_147" x="63.5322" y="34.5576" width="27.0879" height="34.5813" filterUnits="userSpaceOnUse" color-interpolation-filters="sRGB">
<feFlood flood-opacity="0" result="BackgroundImageFix"/>
<feColorMatrix in="SourceAlpha" type="matrix" values="0 0 0 0 0 0 0 0 0 0 0 0 0 0 0 0 0 0 127 0" result="hardAlpha"/>
<feOffset dy="2"/>
<feGaussianBlur stdDeviation="2"/>
<feComposite in2="hardAlpha" operator="out"/>
<feColorMatrix type="matrix" values="0 0 0 0 0 0 0 0 0 0 0 0 0 0 0 0 0 0 0.25 0"/>
<feBlend mode="normal" in2="BackgroundImageFix" result="effect1_dropShadow_1032_147"/>
<feBlend mode="normal" in="SourceGraphic" in2="effect1_dropShadow_1032_147" result="shape"/>
</filter>
<filter id="filter3_d_1032_147" x="42.1143" y="32.8655" width="22.2715" height="22.1667" filterUnits="userSpaceOnUse" color-interpolation-filters="sRGB">
<feFlood flood-opacity="0" result="BackgroundImageFix"/>
<feColorMatrix in="SourceAlpha" type="matrix" values="0 0 0 0 0 0 0 0 0 0 0 0 0 0 0 0 0 0 127 0" result="hardAlpha"/>
<feOffset dy="1"/>
<feGaussianBlur stdDeviation="2"/>
<feComposite in2="hardAlpha" operator="out"/>
<feColorMatrix type="matrix" values="0 0 0 0 0 0 0 0 0 0 0 0 0 0 0 0 0 0 0.25 0"/>
<feBlend mode="normal" in2="BackgroundImageFix" result="effect1_dropShadow_1032_147"/>
<feBlend mode="normal" in="SourceGraphic" in2="effect1_dropShadow_1032_147" result="shape"/>
</filter>
<filter id="filter4_d_1032_147" x="42.1143" y="49.1265" width="22.2715" height="22.1667" filterUnits="userSpaceOnUse" color-interpolation-filters="sRGB">
<feFlood flood-opacity="0" result="BackgroundImageFix"/>
<feColorMatrix in="SourceAlpha" type="matrix" values="0 0 0 0 0 0 0 0 0 0 0 0 0 0 0 0 0 0 127 0" result="hardAlpha"/>
<feOffset dy="1"/>
<feGaussianBlur stdDeviation="2"/>
<feComposite in2="hardAlpha" operator="out"/>
<feColorMatrix type="matrix" values="0 0 0 0 0 0 0 0 0 0 0 0 0 0 0 0 0 0 0.25 0"/>
<feBlend mode="normal" in2="BackgroundImageFix" result="effect1_dropShadow_1032_147"/>
<feBlend mode="normal" in="SourceGraphic" in2="effect1_dropShadow_1032_147" result="shape"/>
</filter>
<linearGradient id="paint0_linear_1032_147" x1="50.0444" y1="-12.9592" x2="54.0264" y2="132.811" gradientUnits="userSpaceOnUse">
<stop stop-color="#00ABDE"/>
<stop offset="1" stop-color="#007ED8"/>
</linearGradient>
<linearGradient id="paint1_linear_1032_147" x1="3.24868" y1="-19.7924" x2="98.7762" y2="121.089" gradientUnits="userSpaceOnUse">
<stop stop-color="#007ED8"/>
<stop offset="0.7065" stop-color="#002D4C"/>
</linearGradient>
<linearGradient id="paint2_linear_1032_147" x1="88.5676" y1="50.4883" x2="92.5997" y2="50.4883" gradientUnits="userSpaceOnUse">
<stop stop-color="#388CF4"/>
<stop offset="1" stop-color="#2C7CEF"/>
</linearGradient>
<linearGradient id="paint3_linear_1032_147" x1="79.5504" y1="59.4795" x2="83.5566" y2="59.4795" gradientUnits="userSpaceOnUse">
<stop stop-color="#388CF4"/>
<stop offset="1" stop-color="#2C7CEF"/>
</linearGradient>
<linearGradient id="paint4_linear_1032_147" x1="71.5396" y1="50.8134" x2="83.5996" y2="56.7175" gradientUnits="userSpaceOnUse">
<stop stop-color="#15548F"/>
<stop offset="0.42" stop-color="#243A5E"/>
<stop offset="0.97" stop-color="#1A2C45"/>
</linearGradient>
<linearGradient id="paint5_linear_1032_147" x1="50.9855" y1="38.4967" x2="51.6694" y2="46.5317" gradientUnits="userSpaceOnUse">
<stop stop-color="#A23093"/>
<stop offset="1" stop-color="#692266"/>
</linearGradient>
<linearGradient id="paint6_linear_1032_147" x1="51.8364" y1="42.8632" x2="58.1474" y2="42.8632" gradientUnits="userSpaceOnUse">
<stop stop-color="#E184C4"/>
<stop offset="1" stop-color="#D76EBC"/>
</linearGradient>
<linearGradient id="paint7_linear_1032_147" x1="54.1595" y1="42.8425" x2="58.2439" y2="42.8425" gradientUnits="userSpaceOnUse">
<stop stop-color="#E89BCA"/>
<stop offset="1" stop-color="#E591C8"/>
</linearGradient>
<linearGradient id="paint8_linear_1032_147" x1="49.1915" y1="53.4675" x2="56.2658" y2="60.1236" gradientUnits="userSpaceOnUse">
<stop offset="0.4598" stop-color="#1152D4"/>
<stop offset="0.6156" stop-color="#0D3FB3"/>
</linearGradient>
<linearGradient id="paint9_linear_1032_147" x1="48.7737" y1="59.4416" x2="56.9971" y2="59.4416" gradientUnits="userSpaceOnUse">
<stop stop-color="#388CF4"/>
<stop offset="1" stop-color="#2C7CEF"/>
</linearGradient>
<linearGradient id="paint10_linear_1032_147" x1="51.7223" y1="60.4148" x2="58.5841" y2="60.4148" gradientUnits="userSpaceOnUse">
<stop stop-color="#76C0FD"/>
<stop offset="1" stop-color="#63B2FB"/>
</linearGradient>
</defs>
</svg>
