<svg width="104" height="118" viewBox="0 0 104 118" fill="none" xmlns="http://www.w3.org/2000/svg">
<path d="M51.6118 98.4564C25.7618 98.4564 4.80176 77.5064 4.80176 51.6464C4.80176 25.7864 25.7618 4.83643 51.6118 4.83643C77.4618 4.83643 98.4218 25.7964 98.4218 51.6464C98.4218 77.4964 77.4618 98.4564 51.6118 98.4564Z" fill="url(#paint0_linear_758_4110)"/>
<path fill-rule="evenodd" clip-rule="evenodd" d="M97.5117 51.6466C97.5117 76.9966 76.9617 97.5466 51.6117 97.5466C26.2617 97.5466 5.71168 76.9966 5.71168 51.6466C5.71168 26.2966 26.2617 5.7466 51.6117 5.7466C76.9617 5.7466 97.5117 26.2966 97.5117 51.6466ZM51.6117 2.00659C79.0317 2.00659 101.252 24.2266 101.252 51.6466C101.252 79.0666 79.0217 101.287 51.6117 101.287C24.1917 101.287 1.97168 79.0566 1.97168 51.6466C1.97168 24.2266 24.1917 2.00659 51.6117 2.00659Z" fill="#F2F1F0"/>
<path fill-rule="evenodd" clip-rule="evenodd" d="M94.7017 51.6464C94.7017 75.4464 75.4117 94.7364 51.6117 94.7364C27.8117 94.7364 8.52174 75.4464 8.52174 51.6464C8.52174 27.8464 27.8117 8.55641 51.6117 8.55641C75.4117 8.55641 94.7017 27.8464 94.7017 51.6464ZM51.6117 4.81641C77.4717 4.81641 98.4417 25.7864 98.4417 51.6464C98.4417 77.5064 77.4717 98.4764 51.6117 98.4764C25.7517 98.4764 4.78174 77.5064 4.78174 51.6464C4.78174 25.7864 25.7417 4.81641 51.6117 4.81641Z" fill="url(#paint1_linear_758_4110)"/>
<path opacity="0.35" d="M25.3088 63.3447C19.6933 63.3447 15.1367 58.7918 15.1367 53.1874C15.1367 48.0614 18.9256 43.8446 23.8683 43.1745C23.4844 41.5929 23.2451 39.9166 23.2451 38.1928C23.2925 26.9818 32.3605 17.9277 43.5871 17.9277C51.3115 17.9277 58.0289 22.2867 61.4836 28.6582C63.1635 27.8437 65.0806 27.3654 67.0969 27.3654C74.1033 27.3654 79.8115 33.0667 79.8115 40.0609C79.8115 41.1146 79.667 42.1682 79.4276 43.1745C79.8115 43.1271 80.1953 43.1271 80.5792 43.1271C86.145 43.0797 90.7017 47.583 90.7017 53.1874C90.7017 58.7918 86.145 63.3447 80.5317 63.3447H25.3088V63.3447Z" fill="url(#paint2_linear_758_4110)"/>
<path fill-rule="evenodd" clip-rule="evenodd" d="M23.845 38.1939C23.8451 39.862 24.0768 41.49 24.4512 43.0329C24.4913 43.198 24.4595 43.3723 24.3637 43.5127C24.2679 43.653 24.1171 43.7461 23.9488 43.7689C19.2999 44.3992 15.7366 48.3653 15.7366 53.1873C15.7366 58.4596 20.0239 62.7446 25.3087 62.7446H80.5316C85.8142 62.7446 90.1016 58.4597 90.1016 53.1873C90.1016 47.9159 85.8163 43.6824 80.5842 43.727L80.5791 43.727C80.1892 43.727 79.8422 43.7277 79.5011 43.7699C79.306 43.794 79.1115 43.721 78.9804 43.5745C78.8494 43.4281 78.7983 43.2267 78.8438 43.0355C79.0742 42.0672 79.2114 41.0605 79.2114 40.0608C79.2114 33.3988 73.7726 27.9653 67.0968 27.9653C65.1755 27.9653 63.3475 28.4212 61.7453 29.198C61.4566 29.3379 61.109 29.2261 60.9561 28.9441C57.6005 22.7554 51.0794 18.5276 43.587 18.5276C32.6918 18.5276 23.8917 27.3133 23.845 38.1939ZM25.3087 63.9446C19.3626 63.9446 14.5366 59.1238 14.5366 53.1873C14.5366 47.9829 18.2245 43.6627 23.1413 42.6876C22.8327 41.2528 22.645 39.7436 22.645 38.1927L22.645 38.1902C22.6938 26.6495 32.0293 17.3276 43.587 17.3276C51.3435 17.3276 58.109 21.595 61.7366 27.8818C63.3669 27.1742 65.189 26.7653 67.0968 26.7653C74.4338 26.7653 80.4114 32.7345 80.4114 40.0608C80.4114 40.8945 80.3254 41.7243 80.177 42.5289C80.3095 42.527 80.4388 42.527 80.5635 42.527H80.5767C86.475 42.4782 91.3016 47.2508 91.3016 53.1873C91.3016 59.1237 86.4757 63.9446 80.5316 63.9446H25.3087Z" fill="white"/>
<g opacity="0.5">
<path fill-rule="evenodd" clip-rule="evenodd" d="M45.2457 29.5144C33.3763 29.5144 23.7478 39.134 23.7478 51.0123C23.7478 62.8906 33.3763 72.5103 45.2457 72.5103C57.115 72.5103 66.7437 62.8816 66.7437 51.0123C66.7437 39.1431 57.115 29.5144 45.2457 29.5144ZM22.9478 51.0123C22.9478 38.692 32.9347 28.7144 45.2457 28.7144C57.5568 28.7144 67.5437 38.7012 67.5437 51.0123C67.5437 63.3234 57.5568 73.3103 45.2457 73.3103C32.9347 73.3103 22.9478 63.3327 22.9478 51.0123Z" fill="#2195DC"/>
<path fill-rule="evenodd" clip-rule="evenodd" d="M45.2459 32.0012C34.7431 32.0012 26.2351 40.5092 26.2351 51.0121C26.2351 61.5149 34.7431 70.0229 45.2459 70.0229C55.7391 70.0229 64.2568 61.5053 64.2568 51.0121C64.2568 40.5092 55.7488 32.0012 45.2459 32.0012ZM25.4351 51.0121C25.4351 40.0674 34.3013 31.2012 45.2459 31.2012C56.1906 31.2012 65.0568 40.0674 65.0568 51.0121C65.0568 61.9471 56.181 70.8229 45.2459 70.8229C34.3013 70.8229 25.4351 61.9567 25.4351 51.0121Z" fill="#45CAF2"/>
<path fill-rule="evenodd" clip-rule="evenodd" d="M45.2464 34.79C36.287 34.79 29.0241 42.0529 29.0241 51.0122C29.0241 59.9716 36.287 67.2345 45.2464 67.2345C54.2058 67.2345 61.4686 59.9716 61.4686 51.0122C61.4686 42.0529 54.2058 34.79 45.2464 34.79ZM28.2241 51.0122C28.2241 41.611 35.8452 33.99 45.2464 33.99C54.6476 33.99 62.2686 41.611 62.2686 51.0122C62.2686 60.4135 54.6476 68.0345 45.2464 68.0345C35.8452 68.0345 28.2241 60.4135 28.2241 51.0122Z" fill="#50E6FF"/>
<path fill-rule="evenodd" clip-rule="evenodd" d="M45.2464 37.0507C37.5356 37.0507 31.2849 43.3014 31.2849 51.0123C31.2849 58.7231 37.5356 64.9738 45.2464 64.9738C52.9572 64.9738 59.2079 58.7231 59.2079 51.0123C59.2079 43.3014 52.9572 37.0507 45.2464 37.0507ZM30.4849 51.0123C30.4849 42.8596 37.0938 36.2507 45.2464 36.2507C53.399 36.2507 60.0079 42.8596 60.0079 51.0123C60.0079 59.1649 53.399 65.7738 45.2464 65.7738C37.0938 65.7738 30.4849 59.1649 30.4849 51.0123Z" fill="#DCFAFF"/>
</g>
<g opacity="0.5">
<path fill-rule="evenodd" clip-rule="evenodd" d="M46.1209 64.0325C38.6081 64.0325 32.5162 70.1195 32.5162 77.6373C32.5162 85.1551 38.6081 91.2421 46.1209 91.2421C53.6337 91.2421 59.7257 85.1501 59.7257 77.6373C59.7257 70.1245 53.6337 64.0325 46.1209 64.0325ZM32.0566 77.6373C32.0566 69.8656 38.3544 63.573 46.1209 63.573C53.8875 63.573 60.1852 69.8707 60.1852 77.6373C60.1852 85.4039 53.8875 91.7016 46.1209 91.7016C38.3544 91.7016 32.0566 85.409 32.0566 77.6373Z" fill="#2195DC"/>
<path fill-rule="evenodd" clip-rule="evenodd" d="M46.1208 65.2884C39.3028 65.2884 33.772 70.8141 33.772 77.6372C33.772 84.4602 39.3028 89.9859 46.1208 89.9859C52.9387 89.9859 58.4696 84.455 58.4696 77.6372C58.4696 70.8193 52.9387 65.2884 46.1208 65.2884ZM33.3125 77.6372C33.3125 70.5601 39.0492 64.8289 46.1208 64.8289C53.1925 64.8289 58.9291 70.5655 58.9291 77.6372C58.9291 84.7088 53.1925 90.4454 46.1208 90.4454C39.0492 90.4454 33.3125 84.7142 33.3125 77.6372Z" fill="#32B0E7"/>
<path fill-rule="evenodd" clip-rule="evenodd" d="M46.1209 66.7173C40.0879 66.7173 35.2007 71.6045 35.2007 77.6375C35.2007 83.6705 40.0879 88.5576 46.1209 88.5576C52.1484 88.5576 57.041 83.665 57.041 77.6375C57.041 71.6045 52.1539 66.7173 46.1209 66.7173ZM34.7412 77.6375C34.7412 71.3507 39.8341 66.2578 46.1209 66.2578C52.4077 66.2578 57.5006 71.3507 57.5006 77.6375C57.5006 83.9187 52.4021 89.0172 46.1209 89.0172C39.8341 89.0172 34.7412 83.9243 34.7412 77.6375Z" fill="#45CAF2"/>
<path fill-rule="evenodd" clip-rule="evenodd" d="M46.1211 68.3187C40.9747 68.3187 36.8028 72.4906 36.8028 77.637C36.8028 82.7834 40.9747 86.9553 46.1211 86.9553C51.2675 86.9553 55.4394 82.7834 55.4394 77.637C55.4394 72.4906 51.2675 68.3187 46.1211 68.3187ZM36.3433 77.637C36.3433 72.2368 40.7209 67.8591 46.1211 67.8591C51.5213 67.8591 55.899 72.2368 55.899 77.637C55.899 83.0372 51.5213 87.4148 46.1211 87.4148C40.7209 87.4148 36.3433 83.0372 36.3433 77.637Z" fill="#50E6FF"/>
</g>
<g opacity="0.5">
<path fill-rule="evenodd" clip-rule="evenodd" d="M74.2459 49.4075C66.7331 49.4075 60.6412 55.4945 60.6412 63.0123C60.6412 70.5301 66.7331 76.6171 74.2459 76.6171C81.7587 76.6171 87.8507 70.5251 87.8507 63.0123C87.8507 55.4995 81.7587 49.4075 74.2459 49.4075ZM60.1816 63.0123C60.1816 55.2406 66.4794 48.948 74.2459 48.948C82.0125 48.948 88.3102 55.2457 88.3102 63.0123C88.3102 70.7789 82.0125 77.0766 74.2459 77.0766C66.4794 77.0766 60.1816 70.784 60.1816 63.0123Z" fill="#2195DC"/>
<path fill-rule="evenodd" clip-rule="evenodd" d="M74.2458 50.6634C67.4278 50.6634 61.897 56.1891 61.897 63.0122C61.897 69.8352 67.4278 75.3609 74.2458 75.3609C81.0637 75.3609 86.5946 69.83 86.5946 63.0122C86.5946 56.1943 81.0637 50.6634 74.2458 50.6634ZM61.4375 63.0122C61.4375 55.9351 67.1742 50.2039 74.2458 50.2039C81.3175 50.2039 87.0541 55.9405 87.0541 63.0122C87.0541 70.0838 81.3175 75.8204 74.2458 75.8204C67.1742 75.8204 61.4375 70.0892 61.4375 63.0122Z" fill="#32B0E7"/>
<path fill-rule="evenodd" clip-rule="evenodd" d="M74.2459 52.0923C68.2129 52.0923 63.3257 56.9795 63.3257 63.0125C63.3257 69.0455 68.2129 73.9326 74.2459 73.9326C80.2734 73.9326 85.166 69.04 85.166 63.0125C85.166 56.9795 80.2789 52.0923 74.2459 52.0923ZM62.8662 63.0125C62.8662 56.7257 67.9591 51.6328 74.2459 51.6328C80.5327 51.6328 85.6256 56.7257 85.6256 63.0125C85.6256 69.2937 80.5271 74.3922 74.2459 74.3922C67.9591 74.3922 62.8662 69.2993 62.8662 63.0125Z" fill="#45CAF2"/>
<path fill-rule="evenodd" clip-rule="evenodd" d="M74.2461 53.6937C69.0997 53.6937 64.9278 57.8656 64.9278 63.012C64.9278 68.1584 69.0997 72.3303 74.2461 72.3303C79.3925 72.3303 83.5644 68.1584 83.5644 63.012C83.5644 57.8656 79.3925 53.6937 74.2461 53.6937ZM64.4683 63.012C64.4683 57.6118 68.8459 53.2341 74.2461 53.2341C79.6463 53.2341 84.024 57.6118 84.024 63.012C84.024 68.4122 79.6463 72.7898 74.2461 72.7898C68.8459 72.7898 64.4683 68.4122 64.4683 63.012Z" fill="#50E6FF"/>
</g>
<path d="M46.6331 63.9457C42.8647 63.9457 39.2506 62.4487 36.586 59.7841C33.9213 57.1194 32.4243 53.5053 32.4243 49.7369V38.814H45.2745C49.0429 38.814 52.6569 40.3109 55.3216 42.9756C57.9862 45.6403 59.4832 49.2543 59.4832 53.0227V63.9813H46.6331V63.9457Z" fill="#F3FBC1"/>
<g filter="url(#filter0_d_758_4110)">
<path d="M60.8596 63.3765V52.9863C60.8607 50.9436 60.4594 48.9206 59.6785 47.033C58.8976 45.1454 57.7524 43.4301 56.3083 41.9853C54.8643 40.5404 53.1497 39.3942 51.2625 38.6122C49.3754 37.8302 47.3526 37.4277 45.3098 37.4277H31.1011V49.7716C31.1011 53.8957 32.7393 57.8508 35.6555 60.7669C38.5716 63.683 42.5268 65.3213 46.6508 65.3213H58.1422V95.8027H60.8862V63.3765H60.8596ZM37.575 58.8297C36.3808 57.6452 35.4337 56.2354 34.7889 54.682C34.144 53.1285 33.8142 51.4624 33.8186 49.7805V40.1984H45.2833C48.6773 40.2008 51.9317 41.5495 54.3324 43.9486C56.7332 46.3477 58.0842 49.6012 58.0889 52.9952V59.5756C56.258 57.0068 54.1756 54.6269 51.8725 52.4713C49.4018 50.0107 46.5118 48.0108 43.3384 46.5657C43.236 46.5254 43.123 46.5209 43.0176 46.5529C42.9123 46.5849 42.8208 46.6515 42.7581 46.742C42.6954 46.8325 42.665 46.9415 42.672 47.0513C42.679 47.1612 42.723 47.2654 42.7967 47.3472C44.8215 49.5052 48.4713 53.4037 49.6257 54.7003C50.7802 55.9968 54.741 60.517 56.4904 62.5329H46.633C44.9532 62.5463 43.2874 62.2259 41.7324 61.5902C40.1774 60.9545 38.7643 60.0161 37.575 58.8297Z" fill="url(#paint3_linear_758_4110)"/>
</g>
<path d="M65.3672 71.1754V63.183C65.3719 61.1927 66.1653 59.2854 67.5734 57.8789C68.9816 56.4724 70.8899 55.6813 72.8801 55.679H82.4888V63.6714C82.4864 65.6609 81.695 67.5681 80.2883 68.9749C78.8815 70.3817 76.9743 71.1731 74.9848 71.1754H65.3672Z" fill="url(#paint4_linear_758_4110)"/>
<g filter="url(#filter1_d_758_4110)">
<path d="M72.88 54.2656C70.5247 54.2656 68.2659 55.2012 66.6005 56.8666C64.935 58.532 63.9995 60.7909 63.9995 63.1461V95.2237H66.7524V72.5594H74.958C77.3132 72.5594 79.572 71.6237 81.2374 69.9583C82.9028 68.2929 83.8385 66.0342 83.8385 63.6789V54.2656H72.8888H72.88ZM81.0855 63.67C81.0832 65.2944 80.4368 66.8516 79.2882 68.0002C78.1396 69.1489 76.5824 69.7952 74.958 69.7976H67.6494C68.7417 68.3678 70.6865 65.8191 71.4414 64.9755C72.0452 64.3006 73.6526 62.5866 74.9935 61.1746C75.0835 61.0727 75.1345 60.9424 75.1378 60.8066C75.1411 60.6707 75.0963 60.5381 75.0114 60.432C74.9266 60.3259 74.807 60.2532 74.6738 60.2266C74.5405 60.2 74.4022 60.2212 74.2831 60.2866C72.7224 61.1744 71.2836 62.261 70.0026 63.5191C68.8491 64.6127 67.7693 65.7816 66.7702 67.018V63.1638C66.7726 61.5394 67.4188 59.9822 68.5675 58.8336C69.7161 57.685 71.2733 57.0387 72.8977 57.0363H81.1032V63.6789L81.0855 63.67Z" fill="url(#paint5_linear_758_4110)"/>
</g>
<path d="M53.8813 84.312V77.253C53.8772 75.4951 53.1765 73.8106 51.9327 72.5683C50.689 71.326 49.0036 70.6273 47.2457 70.6252H38.7592V77.6843C38.7613 79.4415 39.4602 81.126 40.7027 82.3685C41.9452 83.611 43.6297 84.31 45.3869 84.312H53.8813Z" fill="#CEF885"/>
<g filter="url(#filter2_d_758_4110)">
<path d="M47.2459 69.377C49.3261 69.377 51.3212 70.2033 52.7921 71.6742C54.2631 73.1451 55.0894 75.1402 55.0894 77.2204V95.7936H52.6579V85.5344H45.4106C43.3304 85.5344 41.3354 84.708 39.8645 83.2371C38.3935 81.7662 37.5672 79.7712 37.5672 77.691V69.377H47.2382H47.2459ZM39.9986 77.6831C40.0007 79.1178 40.5716 80.4932 41.5861 81.5076C42.6006 82.5221 43.9759 83.093 45.4106 83.0951H51.8657C50.901 81.8323 49.1833 79.5813 48.5166 78.8361C47.9832 78.24 46.5635 76.7262 45.3792 75.4791C45.2998 75.3891 45.2547 75.274 45.2518 75.1541C45.2488 75.0341 45.2884 74.917 45.3634 74.8233C45.4384 74.7296 45.544 74.6653 45.6616 74.6418C45.7793 74.6183 45.9015 74.637 46.0067 74.6948C47.3851 75.4789 48.6559 76.4386 49.7873 77.5498C50.8061 78.5158 51.7598 79.5481 52.6422 80.6401V77.236C52.6401 75.8013 52.0693 74.426 51.0549 73.4115C50.0404 72.397 48.665 71.8262 47.2303 71.8241H39.983V77.691L39.9986 77.6831Z" fill="url(#paint6_linear_758_4110)"/>
</g>
<defs>
<filter id="filter0_d_758_4110" x="11.1011" y="19.4277" width="69.7852" height="98.375" filterUnits="userSpaceOnUse" color-interpolation-filters="sRGB">
<feFlood flood-opacity="0" result="BackgroundImageFix"/>
<feColorMatrix in="SourceAlpha" type="matrix" values="0 0 0 0 0 0 0 0 0 0 0 0 0 0 0 0 0 0 127 0" result="hardAlpha"/>
<feOffset dy="2"/>
<feGaussianBlur stdDeviation="10"/>
<feComposite in2="hardAlpha" operator="out"/>
<feColorMatrix type="matrix" values="0 0 0 0 0.901961 0 0 0 0 0.972549 0 0 0 0 0.513726 0 0 0 0.15 0"/>
<feBlend mode="normal" in2="BackgroundImageFix" result="effect1_dropShadow_758_4110"/>
<feBlend mode="normal" in="SourceGraphic" in2="effect1_dropShadow_758_4110" result="shape"/>
</filter>
<filter id="filter1_d_758_4110" x="43.9995" y="36.2656" width="59.8389" height="80.958" filterUnits="userSpaceOnUse" color-interpolation-filters="sRGB">
<feFlood flood-opacity="0" result="BackgroundImageFix"/>
<feColorMatrix in="SourceAlpha" type="matrix" values="0 0 0 0 0 0 0 0 0 0 0 0 0 0 0 0 0 0 127 0" result="hardAlpha"/>
<feOffset dy="2"/>
<feGaussianBlur stdDeviation="10"/>
<feComposite in2="hardAlpha" operator="out"/>
<feColorMatrix type="matrix" values="0 0 0 0 0.901961 0 0 0 0 0.972549 0 0 0 0 0.513726 0 0 0 0.15 0"/>
<feBlend mode="normal" in2="BackgroundImageFix" result="effect1_dropShadow_758_4110"/>
<feBlend mode="normal" in="SourceGraphic" in2="effect1_dropShadow_758_4110" result="shape"/>
</filter>
<filter id="filter2_d_758_4110" x="17.5674" y="51.377" width="57.522" height="66.4167" filterUnits="userSpaceOnUse" color-interpolation-filters="sRGB">
<feFlood flood-opacity="0" result="BackgroundImageFix"/>
<feColorMatrix in="SourceAlpha" type="matrix" values="0 0 0 0 0 0 0 0 0 0 0 0 0 0 0 0 0 0 127 0" result="hardAlpha"/>
<feOffset dy="2"/>
<feGaussianBlur stdDeviation="10"/>
<feComposite in2="hardAlpha" operator="out"/>
<feColorMatrix type="matrix" values="0 0 0 0 0.901961 0 0 0 0 0.972549 0 0 0 0 0.513726 0 0 0 0.15 0"/>
<feBlend mode="normal" in2="BackgroundImageFix" result="effect1_dropShadow_758_4110"/>
<feBlend mode="normal" in="SourceGraphic" in2="effect1_dropShadow_758_4110" result="shape"/>
</filter>
<linearGradient id="paint0_linear_758_4110" x1="49.8379" y1="-13.1431" x2="53.8199" y2="132.627" gradientUnits="userSpaceOnUse">
<stop stop-color="#00ABDE"/>
<stop offset="1" stop-color="#007ED8"/>
</linearGradient>
<linearGradient id="paint1_linear_758_4110" x1="3.04214" y1="-19.9762" x2="98.5697" y2="120.905" gradientUnits="userSpaceOnUse">
<stop stop-color="#007ED8"/>
<stop offset="0.7065" stop-color="#002D4C"/>
</linearGradient>
<linearGradient id="paint2_linear_758_4110" x1="51.2616" y1="-13.9194" x2="53.2542" y2="66.924" gradientUnits="userSpaceOnUse">
<stop offset="0.410497" stop-color="white" stop-opacity="0"/>
<stop offset="0.635212" stop-color="white" stop-opacity="0.4301"/>
<stop offset="0.9044" stop-color="white" stop-opacity="0.5"/>
<stop offset="0.9993" stop-color="white"/>
</linearGradient>
<linearGradient id="paint3_linear_758_4110" x1="76.6504" y1="37.3025" x2="58.0306" y2="105.362" gradientUnits="userSpaceOnUse">
<stop offset="0.0833333" stop-color="#9BF00B"/>
<stop offset="0.625" stop-color="#0D7012"/>
<stop offset="0.916667" stop-color="#043810"/>
</linearGradient>
<linearGradient id="paint4_linear_758_4110" x1="66.4686" y1="57.3957" x2="81.7925" y2="72.4401" gradientUnits="userSpaceOnUse">
<stop offset="0.104167" stop-color="#F3FABF"/>
<stop offset="0.838542" stop-color="#CFF885"/>
</linearGradient>
<linearGradient id="paint5_linear_758_4110" x1="94.3385" y1="54.1777" x2="80.6808" y2="101.569" gradientUnits="userSpaceOnUse">
<stop offset="0.0833333" stop-color="#9BF00B"/>
<stop offset="0.625" stop-color="#0D7012"/>
<stop offset="0.916667" stop-color="#043810"/>
</linearGradient>
<linearGradient id="paint6_linear_758_4110" x1="22.0883" y1="58.9277" x2="28.1188" y2="100.58" gradientUnits="userSpaceOnUse">
<stop offset="0.0833333" stop-color="#9BF00B"/>
<stop offset="0.625" stop-color="#0D7012"/>
<stop offset="0.916667" stop-color="#043810"/>
</linearGradient>
</defs>
</svg>
