<svg width="103" height="103" viewBox="0 0 103 103" fill="none" xmlns="http://www.w3.org/2000/svg">
<path d="M51.9814 97.9423C26.1314 97.9423 5.17139 76.9923 5.17139 51.1323C5.17139 25.2723 26.1314 4.32233 51.9814 4.32233C77.8314 4.32233 98.7914 25.2823 98.7914 51.1323C98.7914 76.9823 77.8314 97.9423 51.9814 97.9423Z" fill="url(#paint0_linear_725_12594)"/>
<path fill-rule="evenodd" clip-rule="evenodd" d="M97.8813 51.1324C97.8813 76.4824 77.3313 97.0324 51.9813 97.0324C26.6313 97.0324 6.08131 76.4824 6.08131 51.1324C6.08131 25.7824 26.6313 5.23244 51.9813 5.23244C77.3313 5.23244 97.8813 25.7824 97.8813 51.1324ZM51.9813 1.49243C79.4013 1.49243 101.621 23.7124 101.621 51.1324C101.621 78.5524 79.3913 100.772 51.9813 100.772C24.5613 100.772 2.34131 78.5424 2.34131 51.1324C2.34131 23.7124 24.5613 1.49243 51.9813 1.49243Z" fill="#F2F1F0"/>
<path fill-rule="evenodd" clip-rule="evenodd" d="M95.0714 51.1323C95.0714 74.9323 75.7814 94.2223 51.9814 94.2223C28.1814 94.2223 8.89137 74.9323 8.89137 51.1323C8.89137 27.3323 28.1814 8.04231 51.9814 8.04231C75.7814 8.04231 95.0714 27.3323 95.0714 51.1323ZM51.9814 4.30231C77.8414 4.30231 98.8114 25.2723 98.8114 51.1323C98.8114 76.9923 77.8414 97.9623 51.9814 97.9623C26.1214 97.9623 5.15137 76.9923 5.15137 51.1323C5.15137 25.2723 26.1114 4.30231 51.9814 4.30231Z" fill="url(#paint1_linear_725_12594)"/>
<path opacity="0.15" d="M67.2024 85.755L27.2324 80.935L36.2124 75.835L78.8224 79.615L67.2024 85.755Z" fill="#1F1D20"/>
<path d="M42.7426 43.785L40.4526 43.625L41.5226 28.565C42.0226 21.515 47.9526 15.955 55.0226 15.915C55.0526 15.915 55.0726 15.915 55.1026 15.915C62.4526 15.915 68.5526 21.875 68.7126 29.235L69.0226 43.425L66.7226 43.475L66.4126 29.285C66.2826 23.165 61.2126 18.215 55.1026 18.215C55.0826 18.215 55.0626 18.215 55.0426 18.215C49.1626 18.245 44.2326 22.865 43.8226 28.725L42.7426 43.785Z" fill="#767778"/>
<path d="M60.8525 44.305L60.4725 28.615C60.3325 22.795 55.8425 18.105 50.0325 17.705C47.0025 17.495 44.1025 18.495 41.8325 20.495C39.5725 22.505 38.2325 25.275 38.0725 28.295L37.3225 42.555L35.0225 42.435L35.7725 28.175C35.9625 24.535 37.5725 21.195 40.3025 18.775C43.0325 16.355 46.5325 15.155 50.1825 15.405C57.1825 15.885 62.5925 21.535 62.7625 28.555L63.1425 44.245L60.8525 44.305Z" fill="#4C4C4C"/>
<path fill-rule="evenodd" clip-rule="evenodd" d="M67.2026 83.2949L27.1426 78.7649L29.0326 34.5449H67.2026V83.2949Z" fill="url(#paint2_linear_725_12594)"/>
<path fill-rule="evenodd" clip-rule="evenodd" d="M67.2026 83.2949L78.5426 78.0049L76.6526 34.5449H67.2026V83.2949Z" fill="url(#paint3_linear_725_12594)"/>
<path opacity="0.25" d="M63.5526 60.5854C63.5726 60.5054 63.5825 60.4454 63.6125 60.3754C63.7325 59.9454 63.7925 59.4854 63.8225 59.0254C64.0425 55.0054 60.9725 51.5854 56.9725 51.3654C56.4125 51.3354 55.8626 51.3654 55.3326 51.4554C53.8226 48.7454 51.0025 46.8454 47.6825 46.6654C42.5225 46.3754 38.1125 50.3354 37.8225 55.4854C37.8125 55.6154 37.8126 55.7354 37.8026 55.8654C37.3526 55.6854 36.8525 55.5654 36.3225 55.5354C33.7825 55.3954 31.6025 57.3454 31.4625 59.8854C31.3325 62.2754 33.0325 64.3354 35.3425 64.6954L56.1426 65.8954C58.8826 66.0454 61.3325 64.6754 62.7025 62.5254C62.7425 62.4654 62.7725 62.4054 62.8225 62.3354C63.0225 61.9354 63.3326 61.3554 63.5526 60.5854Z" fill="#1F1D20"/>
<path d="M63.5526 59.7353C63.5726 59.6553 63.5825 59.5953 63.6125 59.5253C63.7325 59.0953 63.7925 58.6353 63.8225 58.1753C64.0425 54.1553 60.9725 50.7353 56.9725 50.5153C56.4125 50.4853 55.8626 50.5153 55.3326 50.6053C53.8226 47.8953 51.0025 45.9953 47.6825 45.8153C42.5225 45.5253 38.1125 49.4853 37.8225 54.6353C37.8125 54.7653 37.8126 54.8853 37.8026 55.0153C37.3526 54.8353 36.8525 54.7153 36.3225 54.6853C33.7825 54.5453 31.6025 56.4953 31.4625 59.0353C31.3325 61.4253 33.0325 63.4853 35.3425 63.8453L56.1426 65.0453C58.8826 65.1953 61.3325 63.8253 62.7025 61.6753C62.7425 61.6153 62.7725 61.5553 62.8225 61.4853C63.0225 61.0853 63.3326 60.5053 63.5526 59.7353Z" fill="white"/>
<defs>
<linearGradient id="paint0_linear_725_12594" x1="50.2075" y1="-13.6572" x2="54.1895" y2="132.113" gradientUnits="userSpaceOnUse">
<stop stop-color="#00ABDE"/>
<stop offset="1" stop-color="#007ED8"/>
</linearGradient>
<linearGradient id="paint1_linear_725_12594" x1="3.41177" y1="-20.4903" x2="98.9393" y2="120.391" gradientUnits="userSpaceOnUse">
<stop stop-color="#007ED8"/>
<stop offset="0.7065" stop-color="#002D4C"/>
</linearGradient>
<linearGradient id="paint2_linear_725_12594" x1="46.9999" y1="23.4238" x2="46.2499" y2="99.6738" gradientUnits="userSpaceOnUse">
<stop offset="0.244792" stop-color="#0965BA"/>
<stop offset="0.479167" stop-color="#15548F"/>
<stop offset="0.692708" stop-color="#243A5E"/>
<stop offset="0.9677" stop-color="#1A2C45"/>
</linearGradient>
<linearGradient id="paint3_linear_725_12594" x1="71.9999" y1="-17.0762" x2="70.0765" y2="97.8624" gradientUnits="userSpaceOnUse">
<stop offset="0.244792" stop-color="#0965BA"/>
<stop offset="0.479167" stop-color="#15548F"/>
<stop offset="0.692708" stop-color="#243A5E"/>
<stop offset="0.9677" stop-color="#1A2C45"/>
</linearGradient>
</defs>
</svg>
