<svg width="103" height="103" viewBox="0 0 103 103" fill="none" xmlns="http://www.w3.org/2000/svg">
<path d="M51.767 98.5123C25.917 98.5123 4.95703 77.5623 4.95703 51.7023C4.95703 25.8423 25.917 4.89233 51.767 4.89233C77.617 4.89233 98.577 25.8523 98.577 51.7023C98.577 77.5523 77.617 98.5123 51.767 98.5123Z" fill="url(#paint0_linear_810_21766)"/>
<path fill-rule="evenodd" clip-rule="evenodd" d="M97.667 51.7025C97.667 77.0525 77.117 97.6025 51.767 97.6025C26.417 97.6025 5.86695 77.0525 5.86695 51.7025C5.86695 26.3525 26.417 5.80251 51.767 5.80251C77.117 5.80251 97.667 26.3525 97.667 51.7025ZM51.767 2.0625C79.187 2.0625 101.407 24.2825 101.407 51.7025C101.407 79.1225 79.177 101.343 51.767 101.343C24.347 101.343 2.12695 79.1125 2.12695 51.7025C2.12695 24.2825 24.347 2.0625 51.767 2.0625Z" fill="#F2F1F0"/>
<path fill-rule="evenodd" clip-rule="evenodd" d="M94.857 51.7024C94.857 75.5024 75.567 94.7924 51.767 94.7924C27.967 94.7924 8.67701 75.5024 8.67701 51.7024C8.67701 27.9024 27.967 8.61244 51.767 8.61244C75.567 8.61244 94.857 27.9024 94.857 51.7024ZM51.767 4.87244C77.627 4.87244 98.597 25.8424 98.597 51.7024C98.597 77.5624 77.627 98.5325 51.767 98.5325C25.907 98.5325 4.93701 77.5624 4.93701 51.7024C4.93701 25.8424 25.897 4.87244 51.767 4.87244Z" fill="url(#paint1_linear_810_21766)"/>
<path opacity="0.15" d="M76.7341 48.8669C76.7341 48.3277 76.2886 47.8823 75.7494 47.8823C75.3978 47.8823 73.1823 47.683 71.9984 46.757C71.9984 46.757 72.0101 46.7453 71.9984 46.757C71.553 45.1159 70.8965 43.5921 70.076 42.1385C69.865 40.7671 71.2951 39.7707 71.9398 38.6923C72.057 38.5047 72.1156 38.3992 72.1625 38.3289C72.2797 37.9772 72.2211 37.5787 71.9398 37.2974C71.9398 37.2974 70.8496 35.7383 69.7243 34.6247C68.599 33.5112 66.9111 32.2686 66.9111 32.2686C66.5242 31.8818 65.903 31.8818 65.5161 32.2686C65.2582 32.5148 63.582 33.9097 62.0581 34.1207C62.0347 34.1207 62.0347 34.1207 62.0347 34.1207C60.6281 33.3236 59.0456 32.6672 57.4514 32.2217H57.428C56.3027 31.4012 56.6074 29.6898 56.3027 28.4707C56.3027 27.9315 55.8572 27.4861 55.318 27.4861C55.318 27.4861 53.4425 27.1578 51.86 27.1578C50.2776 27.1578 48.2028 27.4861 48.2028 27.4861C47.6636 27.4861 47.2181 27.9315 47.2181 28.4707C47.2181 28.8224 47.0188 31.0378 46.0928 32.2217C44.5221 32.6672 42.8693 33.3588 41.4743 34.1441C40.1029 34.3551 39.1065 32.9251 38.0281 32.2803C37.8405 32.1631 37.735 32.1045 37.6647 32.0576C37.313 31.9404 36.9145 31.999 36.6332 32.2803C36.6332 32.2803 35.0741 33.3705 33.9606 34.4958C32.847 35.6211 31.6044 37.3091 31.6044 37.3091C31.2176 37.6959 31.2176 38.3172 31.6044 38.704C31.8506 38.9502 33.2807 40.6616 33.4682 42.1503V42.162C32.6946 43.5569 32.003 45.198 31.5693 46.7687C31.5693 46.7687 31.5927 46.7453 31.5693 46.7687C30.6081 47.9409 29.0373 47.5893 27.8182 47.894C27.279 47.894 26.8336 48.3395 26.8336 48.8787C26.8336 48.8787 26.5054 50.7542 26.5054 52.3367C26.5054 53.9191 26.8336 55.9939 26.8336 55.9939C26.8336 56.5331 27.279 56.9786 27.8182 56.9786C28.1699 56.9786 30.3853 57.1778 31.5693 58.1039C31.5927 58.0922 31.581 58.1273 31.581 58.1273C32.0381 59.6981 32.6829 61.2805 33.48 62.6754C33.4682 62.6989 33.48 62.6754 33.4917 62.7223C33.6206 64.1524 32.2726 65.0902 31.6279 66.1686C31.5107 66.3561 31.452 66.4616 31.4052 66.532C31.2879 66.8836 31.3465 67.2822 31.6279 67.5635C31.6279 67.5635 32.718 69.1225 33.8433 70.2361C34.9686 71.3614 36.6566 72.5922 36.6566 72.5922C37.0434 72.9791 37.6647 72.9791 38.0515 72.5922C38.2977 72.3461 40.0091 70.916 41.4978 70.7284C41.4978 70.7284 41.4861 70.7402 41.5212 70.7402C42.9513 71.5373 44.44 72.1703 46.0576 72.6157C46.0694 72.6274 46.1163 72.6391 46.1163 72.6391C47.2416 73.4597 46.9368 75.1711 47.2416 76.3902C47.3002 76.9411 47.6049 77.2928 48.2262 77.3748C48.2262 77.3748 50.1017 77.703 51.6842 77.703C53.2667 77.703 55.3415 77.3865 55.3415 77.3865C55.8807 77.2928 56.3261 76.9411 56.3261 76.4019C56.3261 76.0502 56.5254 73.8348 57.4514 72.6509C57.4514 72.6509 57.4866 72.6157 57.5335 72.5805C59.1863 72.1234 60.4405 71.6076 61.894 70.7753C61.9644 70.7519 61.8823 70.7519 62.0581 70.7284C63.4296 70.5175 64.426 71.9475 65.5044 72.5922C65.692 72.7095 65.7975 72.7681 65.8678 72.815C66.2195 72.9322 66.618 72.8736 66.8993 72.5922C66.8993 72.5922 68.4583 71.5021 69.5719 70.3768C70.6972 69.2515 71.9281 67.5635 71.9281 67.5635C72.3149 67.1767 72.3149 66.5554 71.9281 66.1686C71.6819 65.9224 70.2518 64.211 70.0643 62.7223C70.0408 62.5699 70.0525 62.5465 70.076 62.5113C70.9082 61.0461 71.4357 59.9677 71.8812 58.3031C71.8812 58.3031 71.8577 58.2445 71.9632 58.1039C72.7838 56.9786 74.4952 57.2833 75.7143 56.9786C76.2535 56.9786 76.6989 56.5331 76.6989 55.9939C76.6989 55.9939 77.0271 54.1184 77.0271 52.5359C77.0506 50.93 76.7341 48.8669 76.7341 48.8669Z" fill="#1F1D20"/>
<g filter="url(#filter0_d_810_21766)">
<path d="M76.7341 47.5209C76.7341 46.9817 76.2886 46.5362 75.7494 46.5362C75.3978 46.5362 73.1823 46.337 71.9984 45.4109C71.9984 45.4109 72.0101 45.3992 71.9984 45.4109C71.553 43.7698 70.8965 42.246 70.076 40.7925C69.865 39.421 71.2951 38.4246 71.9398 37.3462C72.057 37.1586 72.1156 37.0532 72.1625 36.9828C72.2797 36.6312 72.2211 36.2326 71.9398 35.9513C71.9398 35.9513 70.8496 34.3923 69.7243 33.2787C68.599 32.1651 66.9111 30.9226 66.9111 30.9226C66.5242 30.5357 65.903 30.5357 65.5161 30.9226C65.2582 31.1687 63.582 32.5636 62.0581 32.7746C62.0347 32.7746 62.0347 32.7746 62.0347 32.7746C60.6281 31.9775 59.0456 31.3211 57.4514 30.8757H57.428C56.3027 30.0551 56.6074 28.3437 56.3027 27.1246C56.3027 26.5854 55.8572 26.14 55.318 26.14C55.318 26.14 53.4425 25.8118 51.86 25.8118C50.2776 25.8118 48.2028 26.14 48.2028 26.14C47.6636 26.14 47.2181 26.5854 47.2181 27.1246C47.2181 27.4763 47.0188 29.6917 46.0928 30.8757C44.5221 31.3211 42.8693 32.0127 41.4743 32.7981C40.1029 33.0091 39.1065 31.579 38.0281 30.9343C37.8405 30.8171 37.735 30.7584 37.6647 30.7116C37.313 30.5943 36.9145 30.6529 36.6332 30.9343C36.6332 30.9343 35.0741 32.0244 33.9606 33.1497C32.847 34.275 31.6044 35.963 31.6044 35.963C31.2176 36.3498 31.2176 36.9711 31.6044 37.3579C31.8506 37.6041 33.2807 39.3155 33.4682 40.8042V40.8159C32.6946 42.2108 32.003 43.8519 31.5693 45.4226C31.5693 45.4226 31.5927 45.3992 31.5693 45.4226C30.6081 46.5948 29.0373 46.2432 27.8182 46.548C27.279 46.548 26.8336 46.9934 26.8336 47.5326C26.8336 47.5326 26.5054 49.4081 26.5054 50.9906C26.5054 52.5731 26.8336 54.6478 26.8336 54.6478C26.8336 55.1871 27.279 55.6325 27.8182 55.6325C28.1699 55.6325 30.3853 55.8318 31.5693 56.7578C31.5927 56.7461 31.581 56.7812 31.581 56.7812C32.0381 58.352 32.6829 59.9345 33.48 61.3294C33.4682 61.3528 33.48 61.3294 33.4917 61.3763C33.6206 62.8063 32.2726 63.7441 31.6279 64.8225C31.5107 65.0101 31.452 65.1156 31.4052 65.1859C31.2879 65.5376 31.3465 65.9361 31.6279 66.2174C31.6279 66.2174 32.718 67.7765 33.8433 68.8901C34.9686 70.0154 36.6566 71.2462 36.6566 71.2462C37.0434 71.633 37.6647 71.633 38.0515 71.2462C38.2977 71 40.0091 69.5699 41.4978 69.3824C41.4978 69.3824 41.4861 69.3941 41.5212 69.3941C42.9513 70.1912 44.44 70.8242 46.0576 71.2696C46.0694 71.2813 46.1163 71.2931 46.1163 71.2931C47.2416 72.1136 46.9368 73.825 47.2416 75.0441C47.3002 75.595 47.6049 75.9467 48.2262 76.0287C48.2262 76.0287 50.1017 76.357 51.6842 76.357C53.2667 76.357 55.3415 76.0405 55.3415 76.0405C55.8807 75.9467 56.3261 75.595 56.3261 75.0558C56.3261 74.7042 56.5254 72.4887 57.4514 71.3048C57.4514 71.3048 57.4866 71.2696 57.5335 71.2345C59.1863 70.7773 60.4405 70.2615 61.894 69.4293C61.9644 69.4058 61.8823 69.4058 62.0581 69.3824C63.4296 69.1714 64.426 70.6015 65.5044 71.2462C65.692 71.3634 65.7975 71.422 65.8678 71.4689C66.2195 71.5861 66.618 71.5275 66.8993 71.2462C66.8993 71.2462 68.4583 70.156 69.5719 69.0307C70.6972 67.9054 71.9281 66.2174 71.9281 66.2174C72.3149 65.8306 72.3149 65.2094 71.9281 64.8225C71.6819 64.5764 70.2518 62.865 70.0643 61.3763C70.0408 61.2239 70.0525 61.2004 70.076 61.1653C70.9082 59.7 71.4357 58.6216 71.8812 56.9571C71.8812 56.9571 71.8577 56.8985 71.9632 56.7578C72.7838 55.6325 74.4952 55.9373 75.7143 55.6325C76.2535 55.6325 76.6989 55.1871 76.6989 54.6478C76.6989 54.6478 77.0271 52.7723 77.0271 51.1899C77.0506 49.5957 76.7341 47.5209 76.7341 47.5209Z" fill="white"/>
</g>
<g filter="url(#filter1_d_810_21766)">
<path d="M52.6025 38.7529L49.7666 35.8295C49.6759 35.7347 49.5664 35.6599 49.4452 35.6098C49.324 35.5598 49.1937 35.5355 49.0626 35.5386C48.9315 35.5417 48.8025 35.572 48.6838 35.6278C48.5652 35.6835 48.4594 35.7632 48.3733 35.8621L36.3878 49.5755C36.1343 49.8732 35.9951 50.2516 35.9951 50.6426C35.9951 51.0336 36.1343 51.4117 36.3878 51.7094L48.2636 65.3625C48.3696 65.4827 48.5 65.5791 48.6461 65.645C48.7922 65.711 48.9507 65.7449 49.1111 65.7449C49.2714 65.7449 49.4298 65.711 49.5759 65.645C49.722 65.5791 49.8525 65.4827 49.9585 65.3625L53.502 61.2704L53.8914 40.2011L52.6025 38.7529Z" fill="url(#paint2_linear_810_21766)"/>
<path d="M66.5572 48.9549L54.7417 36.037C54.6198 35.9087 54.473 35.8066 54.3104 35.7368C54.1477 35.667 53.9726 35.631 53.7956 35.631C53.6186 35.631 53.4433 35.667 53.2807 35.7368C53.118 35.8066 52.9713 35.9087 52.8493 36.037L47.3969 41.6758C47.1177 41.9729 46.9622 42.3652 46.9622 42.7729C46.9622 43.1806 47.1177 43.5729 47.3969 43.87L52.9919 49.8709C53.1897 50.0831 53.2997 50.3626 53.2997 50.6527C53.2997 50.9428 53.1897 51.2221 52.9919 51.4343L47.3749 57.5067C47.092 57.8019 46.9341 58.1949 46.9341 58.6038C46.9341 59.0127 47.092 59.4057 47.3749 59.7009L52.8603 65.378C52.9823 65.5071 53.1294 65.61 53.2926 65.6804C53.4558 65.7507 53.6316 65.787 53.8092 65.787C53.9869 65.787 54.1627 65.7507 54.3259 65.6804C54.4891 65.61 54.6362 65.5071 54.7582 65.378L66.5791 52.3669C67.0044 51.8993 67.2383 51.2888 67.2343 50.6567C67.2302 50.0246 66.9884 49.417 66.5572 48.9549V48.9549Z" fill="url(#paint3_linear_810_21766)"/>
<path d="M67.1165 51.7307L61.8451 57.5782C61.7509 57.6829 61.6363 57.7672 61.5083 57.8259C61.3802 57.8847 61.2416 57.9166 61.1007 57.9197C60.9599 57.9228 60.8199 57.897 60.6895 57.8439C60.559 57.7908 60.4407 57.7117 60.3421 57.6111L55.0433 52.1914C54.6305 51.7692 54.3994 51.2022 54.3994 50.6117C54.3994 50.0212 54.6305 49.4542 55.0433 49.032L60.2434 43.6618C60.3399 43.5583 60.4566 43.4758 60.5864 43.4194C60.7161 43.363 60.8561 43.334 60.9976 43.334C61.1391 43.334 61.2791 43.363 61.4089 43.4194C61.5386 43.4758 61.6554 43.5583 61.7519 43.6618L67.1275 49.5915C67.3943 49.8845 67.5412 50.2671 67.5392 50.6634C67.5372 51.0596 67.3863 51.4405 67.1165 51.7307V51.7307Z" fill="url(#paint4_linear_810_21766)"/>
</g>
<path fill-rule="evenodd" clip-rule="evenodd" d="M51.7842 17.7169C42.8063 17.7169 34.1962 21.2833 27.8479 27.6316C21.4995 33.9799 17.9331 42.5901 17.9331 51.568L17.9331 51.5698C17.9228 56.974 19.2091 62.3018 21.6841 67.106C24.1592 71.9102 27.7507 76.0505 32.1571 79.1793C32.5829 79.4816 32.683 80.0718 32.3807 80.4976C32.0784 80.9234 31.4881 81.0235 31.0623 80.7212C26.4092 77.4173 22.6167 73.0452 20.0031 67.9721C17.3896 62.8992 16.0313 57.2735 16.0421 51.5671C16.0423 42.088 19.8079 32.9972 26.5107 26.2944C33.2137 19.5915 42.3048 15.8258 51.7842 15.8258C52.3064 15.8258 52.7297 16.2491 52.7297 16.7713C52.7297 17.2935 52.3064 17.7169 51.7842 17.7169Z" fill="white"/>
<path fill-rule="evenodd" clip-rule="evenodd" d="M74.2537 25.0402C74.6013 24.6506 75.199 24.6164 75.5887 24.9641C79.3375 28.3081 82.3362 32.4075 84.3878 36.993C86.4393 41.5785 87.4973 46.5463 87.4922 51.5699C87.492 61.0581 83.7227 70.1576 77.0135 76.8668C70.3041 83.5763 61.2041 87.3456 51.7155 87.3456C51.1933 87.3456 50.77 86.9223 50.77 86.4001C50.77 85.8779 51.1933 85.4545 51.7155 85.4545C60.7026 85.4545 69.3215 81.8845 75.6763 75.5297C82.0311 69.1749 85.6012 60.5559 85.6012 51.5689L85.6012 51.5679C85.606 46.8112 84.6042 42.1073 82.6616 37.7653C80.719 33.4234 77.8796 29.5417 74.3299 26.3752C73.9402 26.0276 73.9061 25.4299 74.2537 25.0402Z" fill="white"/>
<path d="M51.5972 12.929L58.4896 16.9109L51.5972 20.8853V12.929Z" fill="white"/>
<path d="M53.0903 82.3499L46.1979 86.3318L53.0903 90.3062V82.3499Z" fill="white"/>
<defs>
<filter id="filter0_d_810_21766" x="22.5054" y="23.8118" width="58.5229" height="58.5452" filterUnits="userSpaceOnUse" color-interpolation-filters="sRGB">
<feFlood flood-opacity="0" result="BackgroundImageFix"/>
<feColorMatrix in="SourceAlpha" type="matrix" values="0 0 0 0 0 0 0 0 0 0 0 0 0 0 0 0 0 0 127 0" result="hardAlpha"/>
<feOffset dy="2"/>
<feGaussianBlur stdDeviation="2"/>
<feComposite in2="hardAlpha" operator="out"/>
<feColorMatrix type="matrix" values="0 0 0 0 0 0 0 0 0 0 0 0 0 0 0 0 0 0 0.25 0"/>
<feBlend mode="normal" in2="BackgroundImageFix" result="effect1_dropShadow_810_21766"/>
<feBlend mode="normal" in="SourceGraphic" in2="effect1_dropShadow_810_21766" result="shape"/>
</filter>
<filter id="filter1_d_810_21766" x="31.9951" y="32.5383" width="39.5439" height="38.2487" filterUnits="userSpaceOnUse" color-interpolation-filters="sRGB">
<feFlood flood-opacity="0" result="BackgroundImageFix"/>
<feColorMatrix in="SourceAlpha" type="matrix" values="0 0 0 0 0 0 0 0 0 0 0 0 0 0 0 0 0 0 127 0" result="hardAlpha"/>
<feOffset dy="1"/>
<feGaussianBlur stdDeviation="2"/>
<feComposite in2="hardAlpha" operator="out"/>
<feColorMatrix type="matrix" values="0 0 0 0 0 0 0 0 0 0 0 0 0 0 0 0 0 0 0.25 0"/>
<feBlend mode="normal" in2="BackgroundImageFix" result="effect1_dropShadow_810_21766"/>
<feBlend mode="normal" in="SourceGraphic" in2="effect1_dropShadow_810_21766" result="shape"/>
</filter>
<linearGradient id="paint0_linear_810_21766" x1="49.9931" y1="-13.0872" x2="53.9751" y2="132.683" gradientUnits="userSpaceOnUse">
<stop stop-color="#00ABDE"/>
<stop offset="1" stop-color="#007ED8"/>
</linearGradient>
<linearGradient id="paint1_linear_810_21766" x1="3.19741" y1="-19.9202" x2="98.7249" y2="120.961" gradientUnits="userSpaceOnUse">
<stop stop-color="#007ED8"/>
<stop offset="0.7065" stop-color="#002D4C"/>
</linearGradient>
<linearGradient id="paint2_linear_810_21766" x1="44.1879" y1="36.6632" x2="46.3875" y2="62.4935" gradientUnits="userSpaceOnUse">
<stop stop-color="#A23093"/>
<stop offset="1" stop-color="#692266"/>
</linearGradient>
<linearGradient id="paint3_linear_810_21766" x1="46.9252" y1="50.6938" x2="67.2155" y2="50.6938" gradientUnits="userSpaceOnUse">
<stop stop-color="#E184C4"/>
<stop offset="1" stop-color="#D76EBC"/>
</linearGradient>
<linearGradient id="paint4_linear_810_21766" x1="54.396" y1="50.6337" x2="67.5224" y2="50.6337" gradientUnits="userSpaceOnUse">
<stop stop-color="#E89BCA"/>
<stop offset="1" stop-color="#E591C8"/>
</linearGradient>
</defs>
</svg>
