<svg width="103" height="103" viewBox="0 0 103 103" fill="none" xmlns="http://www.w3.org/2000/svg">
<path d="M51.4531 98.368C25.6031 98.368 4.64307 77.418 4.64307 51.558C4.64307 25.698 25.6031 4.74805 51.4531 4.74805C77.3031 4.74805 98.2631 25.708 98.2631 51.558C98.2631 77.408 77.3031 98.368 51.4531 98.368Z" fill="url(#paint0_linear_804_8045)"/>
<path fill-rule="evenodd" clip-rule="evenodd" d="M97.353 51.558C97.353 76.908 76.803 97.458 51.453 97.458C26.103 97.458 5.55299 76.908 5.55299 51.558C5.55299 26.208 26.103 5.65797 51.453 5.65797C76.803 5.65797 97.353 26.208 97.353 51.558ZM51.453 1.91797C78.873 1.91797 101.093 24.138 101.093 51.558C101.093 78.978 78.863 101.198 51.453 101.198C24.033 101.198 1.81299 78.968 1.81299 51.558C1.81299 24.138 24.033 1.91797 51.453 1.91797Z" fill="url(#paint1_linear_804_8045)"/>
<path d="M13.7557 58.2177L19.7557 61.6377L13.8157 65.0577L8.18567 61.8276L8.27576 62.2177L13.5258 65.2177L9.52576 67.5277C9.52576 67.6277 9.5757 67.7277 9.5957 67.8177L13.8357 65.3777L19.8357 68.7977L13.9058 72.2076L10.1257 70.0377V70.1877L10.4357 70.5876L13.5557 72.3877L12.3657 73.0677L12.5457 73.2977L13.8457 72.5477L19.7657 75.9576L16.2257 77.9576L16.4058 78.1877L20.0557 76.0876L26.0557 79.5177L20.1656 82.8977C20.3656 83.1577 20.5557 83.3877 20.7457 83.6177L38.6057 93.9377L39.2657 93.9877L39.1057 93.8877L45.1057 90.4478L51.0258 93.8577L49.6458 94.6477H50.1656L51.3157 93.9777L52.7557 94.8077H53.4156L51.6057 93.8077L57.6057 90.3677L62.7157 93.2977L63.1257 93.1777L57.9156 90.1777L63.8057 86.7877L69.5657 90.0977L65.3357 92.5277L66.4557 92.2076L82.0457 83.2076L83.2357 82.2076L82.3657 82.7177L76.5957 79.4077L82.5157 76.0077L86.5857 78.3376L86.7457 78.0977L82.8057 75.8376L88.8057 72.4077L90.0557 73.1277L90.2157 72.8877L89.0957 72.2377L91.5356 70.8376L91.8757 70.3177L88.8057 72.0776L82.8857 68.6677L88.8157 65.2577L93.4257 67.9077C93.4711 67.825 93.5212 67.7449 93.5757 67.6677L89.1057 65.0977L94.8057 61.8077L94.9058 61.2076L70.4657 47.0977L58.0057 39.9077L57.8757 39.8577L51.8157 36.3577L51.5356 36.1777L8.15576 61.0977C8.17321 61.1957 8.19653 61.2925 8.22571 61.3877L13.7557 58.2177ZM14.0657 65.2177L19.9957 61.8077L25.9957 65.2277L20.0557 68.6377L14.0657 65.2177ZM51.5057 65.2177L57.4257 61.8177L63.3357 65.2076L57.4156 68.6077L51.5057 65.2177ZM57.1257 68.7777L51.1257 72.2076L45.2157 68.8077L51.2157 65.3877L57.1257 68.7777ZM51.2257 65.0477L45.2257 61.6277L51.1458 58.2277L57.1458 61.6477L51.2257 65.0477ZM50.9357 65.2177L44.9357 68.6477L38.9357 65.2177L44.9357 61.7877L50.9357 65.2177ZM44.6757 68.8077L38.7257 72.2377L32.7257 68.8077L38.7257 65.3877L44.6757 68.8077ZM44.6757 75.9677L38.7657 79.3677L32.8457 75.9677L38.7657 72.5677L44.6757 75.9677ZM39.0657 72.3977L45.0157 68.9777L50.9257 72.3677L44.9257 75.7977L39.0657 72.3977ZM51.2157 72.5377L57.2157 75.9677L51.2157 79.3877L45.2157 75.9576L51.2157 72.5377ZM51.5057 72.3677L57.5057 68.9478L63.5057 72.3677L57.5057 75.7977L51.5057 72.3677ZM57.7557 68.7777L63.6757 65.3777L69.6757 68.8077L63.7657 72.2076L57.7557 68.7777ZM63.9557 65.2076L69.9557 61.7777L75.9557 65.2076L69.9557 68.6377L63.9557 65.2076ZM63.6757 65.0477L57.7657 61.6477L63.7657 58.2177L69.6656 61.6177L63.6757 65.0477ZM57.4757 61.4877L51.4757 58.0577L57.4757 54.6277L63.4757 58.0577L57.4757 61.4877ZM51.2257 57.8877L45.3057 54.4877L51.3057 51.0577L57.2357 54.4677L51.2257 57.8877ZM50.9357 58.0577L45.0157 61.4576L39.0957 58.0577L45.0157 54.6577L50.9357 58.0577ZM44.7257 61.6277L38.7257 65.0577L32.7957 61.6477L38.7957 58.2177L44.7257 61.6277ZM38.4757 65.2177L32.4757 68.6377L26.5557 65.2377L32.5557 61.8177L38.4757 65.2177ZM32.2257 68.8077L26.2957 72.2177L20.3657 68.8177L26.2957 65.4077L32.2257 68.8077ZM32.5157 68.9777L38.5157 72.4077L32.5957 75.8077L26.5957 72.3777L32.5157 68.9777ZM38.5157 79.5377L32.5157 82.9576L26.6057 79.5577L32.5457 76.1477L38.5157 79.5377ZM38.8057 79.7076L44.8057 83.1277L38.8057 86.5577L32.8057 83.1277L38.8057 79.7076ZM39.1057 79.5277L45.0157 76.1277L51.0157 79.5577L45.1057 82.9576L39.1057 79.5277ZM51.2657 79.7277L57.2657 83.1677L51.3657 86.5677L45.3657 83.1177L51.2657 79.7277ZM51.5657 79.5577L57.5657 76.1377L63.5657 79.5776L57.5657 82.9977L51.5657 79.5577ZM57.8057 75.9677L63.8057 72.5377L69.8057 75.9777L63.8057 79.4077L57.8057 75.9677ZM70.0557 76.1477L75.9857 79.5577L69.9857 82.9777L64.0657 79.5776L70.0557 76.1477ZM70.0557 75.8177L64.0557 72.3677L69.9657 68.9677L75.9657 72.4177L70.0557 75.8177ZM70.2657 68.8177L76.2657 65.3877L82.2657 68.8276L76.2657 72.2577L70.2657 68.8177ZM70.2657 61.6277L76.1957 58.2177L82.1957 61.6477L76.2557 65.0577L70.2657 61.6277ZM69.9757 61.4576L64.0757 58.0677L70.0057 54.6577L75.9058 58.0477L69.9757 61.4576ZM63.7856 57.8977L57.7856 54.4777L63.7157 51.0677L69.7157 54.4977L63.7856 57.8977ZM57.5356 54.3077L51.6057 50.9077L57.5356 47.4977L63.4557 50.8977L57.5356 54.3077ZM51.3157 50.7377L45.3157 47.2977L51.2357 43.8877L57.2357 47.3276L51.3157 50.7377ZM51.0356 50.9077L45.0356 54.3276L39.0356 50.8977L45.0356 47.4576L51.0356 50.9077ZM44.7758 54.4977L38.8557 57.8977L32.8557 54.4677L38.7758 51.0577L44.7758 54.4977ZM38.5657 58.0677L32.5657 61.4977L26.5657 58.0677L32.5657 54.6277L38.5657 58.0677ZM32.3157 61.6577L26.3157 65.0876L20.3157 61.6577L26.3157 58.2277L32.3157 61.6577ZM14.0957 72.3877L20.0258 68.9877L25.9557 72.3877L20.0157 75.7977L14.0957 72.3877ZM20.3057 75.9677L26.2357 72.5577L32.2357 75.9777L26.2957 79.3877L20.3057 75.9677ZM20.3057 83.1377L26.2457 79.7377L32.1558 83.1277L26.1558 86.5477L20.3057 83.1377ZM26.4957 86.7177L32.4457 83.2977L38.4457 86.7277L32.4457 90.1577L26.4957 86.7177ZM38.7157 93.7777L32.7157 90.3177L38.7157 86.8877L44.7157 90.3376L38.7157 93.7777ZM38.9957 86.7177L44.9957 83.2977L50.9957 86.7377L44.9957 90.1677L38.9957 86.7177ZM51.1957 93.7177L45.2758 90.3077L51.2758 86.8777L57.2057 90.2877L51.1957 93.7177ZM57.4757 90.1077L51.5457 86.7076L57.4457 83.3177L63.3657 86.7177L57.4757 90.1077ZM57.7457 83.1077L63.6957 79.6877L69.6157 83.0876L63.6757 86.5077L57.7457 83.1077ZM69.7457 89.9777L63.9857 86.6677L69.9257 83.2577L75.6857 86.5677L69.7457 89.9777ZM81.9457 82.9777L75.9457 86.4077L70.1857 83.0977L76.1857 79.6677L81.9457 82.9777ZM76.1857 79.3376L70.2557 75.9277L76.1656 72.5277L82.0957 75.9377L76.1857 79.3376ZM88.3457 72.3376L82.3457 75.7677L76.4156 72.3677L82.4156 68.9377L88.3457 72.3376ZM82.4257 68.6077L76.4257 65.1577L82.3557 61.7477L88.3557 65.1978L82.4257 68.6077ZM94.6357 61.6077L88.6357 65.0477L82.6357 61.6077L88.6357 58.1477L94.6357 61.6077ZM88.3657 57.9877L82.3657 61.4377L76.3657 58.0077L82.3657 54.5477L88.3657 57.9877ZM82.1257 54.3777L76.1257 57.8477L70.2157 54.4576L76.2157 50.9877L82.1257 54.3777ZM75.9457 50.8177L69.9457 54.2877L63.9457 50.8577L69.9957 47.3777L75.9457 50.8177ZM69.7157 47.2177L63.6558 50.6978L57.7357 47.2877L63.8057 43.8077L69.7157 47.2177ZM63.5157 43.6377L57.4457 47.1277L51.4457 43.6777L57.5258 40.1777L63.5157 43.6377ZM51.3557 36.6377L57.2357 40.0377L51.1558 43.5377L45.2457 40.1377L51.3557 36.6377ZM44.9557 40.3077L50.8657 43.6978L44.9557 47.1077L39.0356 43.7076L44.9557 40.3077ZM38.7457 43.8777L44.6656 47.2777L38.6656 50.7076L32.7357 47.2977L38.7457 43.8777ZM32.4957 47.4677L38.4156 50.8777L32.4957 54.2777L26.5657 50.8677L32.4957 47.4677ZM26.2758 51.0377L32.2157 54.4478L26.2157 57.8777L20.2157 54.4677L26.2758 51.0377ZM20.0258 54.6277L25.9657 58.0477L20.0157 61.4777L14.0157 58.0577L20.0258 54.6277Z" fill="white"/>
<g filter="url(#filter0_b_804_8045)">
<path fill-rule="evenodd" clip-rule="evenodd" d="M94.5428 51.5585C94.5428 75.3585 75.2528 94.6485 51.4528 94.6485C27.6528 94.6485 8.3628 75.3585 8.3628 51.5585C8.3628 27.7585 27.6528 8.46852 51.4528 8.46852C75.2528 8.46852 94.5428 27.7585 94.5428 51.5585ZM51.4528 4.72852C77.3128 4.72852 98.2828 25.6985 98.2828 51.5585C98.2828 77.4185 77.3128 98.3885 51.4528 98.3885C25.5928 98.3885 4.6228 77.4185 4.6228 51.5585C4.6228 25.6985 25.5828 4.72852 51.4528 4.72852Z" fill="url(#paint2_linear_804_8045)"/>
</g>
<path fill-rule="evenodd" clip-rule="evenodd" d="M15.866 68.0958C15.866 68.3168 16.0451 68.4958 16.266 68.4958L23.7011 68.4958L23.7011 67.6958L16.666 67.6958L16.666 36.0196L23.7011 36.0196L23.7011 35.2196L16.266 35.2196C16.0451 35.2196 15.866 35.3987 15.866 35.6196L15.866 68.0958Z" fill="#78787D"/>
<path fill-rule="evenodd" clip-rule="evenodd" d="M64.4692 68.0956C64.4692 68.3165 64.2902 68.4956 64.0692 68.4956L56.6341 68.4956L56.6341 67.6956L63.6692 67.6956L63.6692 36.0194L56.6341 36.0194L56.6341 35.2194L64.0692 35.2194C64.2902 35.2194 64.4692 35.3984 64.4692 35.6194L64.4692 68.0956Z" fill="#78787D"/>
<path opacity="0.15" d="M59.3272 72.2892C59.4791 72.2914 59.63 72.2636 59.7711 72.2072C59.9108 72.1446 60.0387 72.0584 60.1491 71.9523C60.3617 71.7311 60.4823 71.4372 60.4862 71.1304V33.0837H20.3109V71.1222C20.3087 71.2741 20.3364 71.425 20.3928 71.5661C20.4524 71.7074 20.5394 71.8358 20.648 71.9441C20.7565 72.0505 20.885 72.1343 21.0261 72.1907C21.1671 72.2472 21.318 72.275 21.4699 72.2728L59.3272 72.2892Z" fill="#1F1D20"/>
<path d="M60.4532 33.4457V32.8211C60.4511 32.4497 60.3016 32.0944 60.0383 31.8326C59.7749 31.5708 59.4191 31.4238 59.0478 31.4239H21.6753C21.4915 31.4228 21.3092 31.4582 21.1392 31.528C20.9691 31.5978 20.8148 31.7008 20.6849 31.8308C20.5549 31.9608 20.4513 32.1151 20.3815 32.2851C20.3116 32.4551 20.2768 32.6373 20.2779 32.8211V69.8897C20.2759 70.0727 20.3107 70.2541 20.3799 70.4235C20.449 70.5929 20.5506 70.7467 20.68 70.876C20.8104 71.0068 20.966 71.1105 21.1368 71.181C21.3075 71.2515 21.4906 71.2876 21.6753 71.2869H59.0887C59.2735 71.288 59.4565 71.2524 59.6273 71.1818C59.7981 71.1112 59.9531 71.0072 60.0832 70.876C60.2121 70.7458 60.3154 70.5924 60.3874 70.4239C60.4539 70.2537 60.4875 70.0724 60.4861 69.8897V33.4211L60.4532 33.4457Z" fill="white"/>
<g filter="url(#filter1_d_804_8045)">
<path d="M60.4532 33.4457V32.8211C60.4511 32.4497 60.3016 32.0944 60.0383 31.8326C59.7749 31.5708 59.4191 31.4238 59.0478 31.4239H21.6753C21.4915 31.4228 21.3092 31.4582 21.1392 31.528C20.9691 31.5978 20.8148 31.7008 20.6849 31.8308C20.5549 31.9608 20.4513 32.1151 20.3815 32.2851C20.3116 32.4551 20.2768 32.6373 20.2779 32.8211V69.8897C20.2759 70.0727 20.3107 70.2541 20.3799 70.4235C20.449 70.5929 20.5506 70.7467 20.68 70.876C20.8104 71.0068 20.966 71.1105 21.1368 71.181C21.3075 71.2515 21.4906 71.2876 21.6753 71.2869H59.0887C59.2735 71.288 59.4565 71.2524 59.6273 71.1818C59.7981 71.1112 59.9531 71.0072 60.0832 70.876C60.2121 70.7458 60.3154 70.5924 60.3874 70.4239C60.4539 70.2537 60.4875 70.0724 60.4861 69.8897V33.4211L60.4532 33.4457Z" fill="white"/>
</g>
<path fill-rule="evenodd" clip-rule="evenodd" d="M67.1594 68.0233C67.1594 68.2443 67.3385 68.4233 67.5594 68.4233L79.7229 68.4233L79.7229 67.6233L67.9594 67.6233L67.9594 36.1579L79.7229 36.1579L79.7229 35.3579L67.5594 35.3579C67.3385 35.3579 67.1594 35.537 67.1594 35.7579L67.1594 68.0233Z" fill="#78787D"/>
<path fill-rule="evenodd" clip-rule="evenodd" d="M67.5593 46.5156L79.7228 46.5156L79.7228 45.7156L67.5593 45.7156L67.5593 46.5156Z" fill="#78787D"/>
<path fill-rule="evenodd" clip-rule="evenodd" d="M67.5593 56.9951L79.7228 56.9951L79.7228 56.1951L67.5593 56.1951L67.5593 56.9951Z" fill="#78787D"/>
<path fill-rule="evenodd" clip-rule="evenodd" d="M63.7632 50.9233L67.7356 50.9233L67.7356 51.7233L63.7632 51.7233L63.7632 50.9233Z" fill="#78787D"/>
<path fill-rule="evenodd" clip-rule="evenodd" d="M85.27 68.0233C85.27 68.2443 85.0909 68.4233 84.87 68.4233L72.7065 68.4233L72.7065 67.6233L84.47 67.6233L84.47 36.1579L72.7065 36.1579L72.7065 35.3579L84.87 35.3579C85.0909 35.3579 85.27 35.537 85.27 35.7579L85.27 68.0233Z" fill="#78787D"/>
<path fill-rule="evenodd" clip-rule="evenodd" d="M84.8701 46.5156L72.7066 46.5156L72.7066 45.7156L84.8701 45.7156L84.8701 46.5156Z" fill="#78787D"/>
<path fill-rule="evenodd" clip-rule="evenodd" d="M84.8701 56.9951L72.7066 56.9951L72.7066 56.1951L84.8701 56.1951L84.8701 56.9951Z" fill="#78787D"/>
<path fill-rule="evenodd" clip-rule="evenodd" d="M88.6663 50.9233L84.6939 50.9233L84.6939 51.7233L88.6663 51.7233L88.6663 50.9233Z" fill="#78787D"/>
<path opacity="0.15" d="M81.099 33.6409H71.5982C71.3194 33.6409 71.0516 33.751 70.8537 33.9474C70.6558 34.1438 70.5439 34.4106 70.5417 34.6894V40.5008C70.5436 40.7783 70.6544 41.0439 70.8505 41.2403C70.9476 41.3399 71.064 41.4186 71.1926 41.4717C71.3212 41.5248 71.4591 41.5511 71.5982 41.5491H81.099C81.306 41.5514 81.5091 41.4916 81.6816 41.3771C81.8541 41.2625 81.9883 41.0988 82.0665 40.9072C82.1215 40.7788 82.1489 40.6404 82.1475 40.5008V34.7056C82.1448 34.5664 82.1176 34.4288 82.0665 34.2993C82.0139 34.1716 81.9363 34.0557 81.8388 33.958C81.7425 33.8586 81.6262 33.7809 81.4975 33.7304C81.3724 33.673 81.2365 33.6425 81.099 33.6409Z" fill="#1F1D20"/>
<path opacity="0.15" d="M81.099 52.9838H71.5982C71.3194 52.9838 71.0516 53.094 70.8537 53.2904C70.6558 53.4868 70.5439 53.7535 70.5417 54.0323V59.8517C70.5432 60.1317 70.6539 60.4001 70.8505 60.5995C70.9491 60.6965 71.0659 60.7729 71.1942 60.8246C71.3225 60.8762 71.4599 60.9018 71.5982 60.9002H81.099C81.2351 60.9003 81.3703 60.8757 81.4975 60.8271C81.6246 60.7736 81.7404 60.6963 81.8388 60.5995C81.9381 60.5033 82.016 60.3868 82.0665 60.258C82.1176 60.1285 82.1448 59.9909 82.1475 59.8517V54.0323C82.1475 53.7527 82.0381 53.4844 81.8419 53.2852C81.6458 53.086 81.3786 52.9718 81.099 52.9675V52.9838Z" fill="#1F1D20"/>
<path opacity="0.15" d="M81.099 43.2942H71.5982C71.3194 43.2942 71.0516 43.4044 70.8537 43.6008C70.6558 43.7972 70.5439 44.0639 70.5417 44.3427V50.1458C70.5432 50.4258 70.6539 50.6941 70.8505 50.8935C70.9491 50.9904 71.0659 51.0671 71.1942 51.1187C71.3225 51.1703 71.4599 51.196 71.5982 51.1943H81.099C81.2375 51.2013 81.376 51.1791 81.5054 51.1292C81.6339 51.0737 81.7527 50.9967 81.8554 50.9016C81.955 50.8024 82.032 50.6834 82.0824 50.5522C82.1381 50.424 82.1663 50.2855 82.1642 50.1458V44.3346C82.1563 44.0551 82.0394 43.7896 81.8388 43.5948C81.6415 43.401 81.3756 43.293 81.099 43.2942Z" fill="#1F1D20"/>
<path opacity="0.15" d="M81.099 62.6462H71.5982C71.3194 62.6462 71.0516 62.7564 70.8537 62.9528C70.6558 63.1492 70.5439 63.4157 70.5417 63.6945V69.5141C70.5432 69.7941 70.6539 70.0624 70.8505 70.2618C70.9491 70.3587 71.0659 70.4352 71.1942 70.4868C71.3225 70.5384 71.4599 70.5643 71.5982 70.5626H81.099C81.3756 70.5638 81.6415 70.4556 81.8388 70.2618C82.0353 70.0624 82.1461 69.7941 82.1475 69.5141V63.7027C82.1454 63.4245 82.0347 63.1582 81.8388 62.9608C81.6428 62.7633 81.3772 62.6505 81.099 62.6462Z" fill="#1F1D20"/>
<g opacity="0.15">
<path opacity="0.15" d="M81.099 33.6289H71.5982C71.3194 33.6289 71.0516 33.7391 70.8537 33.9355C70.6558 34.1319 70.5439 34.3986 70.5417 34.6774V40.497C70.5436 40.7745 70.6544 41.0401 70.8505 41.2365C70.9476 41.3361 71.064 41.4148 71.1926 41.4679C71.3212 41.521 71.4591 41.5473 71.5982 41.5453H81.099C81.2351 41.5454 81.3703 41.5208 81.4975 41.4722C81.6246 41.4187 81.7404 41.3414 81.8388 41.2446C81.9363 41.147 82.0139 41.031 82.0665 40.9033C82.1176 40.7738 82.1448 40.6362 82.1475 40.497V34.7018C82.1489 34.5622 82.1215 34.4238 82.0665 34.2954C82.0171 34.1656 81.9421 34.0469 81.8467 33.946C81.7475 33.8464 81.6287 33.7688 81.4975 33.7184C81.3727 33.6601 81.2367 33.6295 81.099 33.6289V33.6289Z" fill="#1F1D20"/>
<path opacity="0.15" d="M81.099 52.9809H71.5982C71.3194 52.9809 71.0516 53.091 70.8537 53.2874C70.6558 53.4838 70.5439 53.7506 70.5417 54.0294V59.8487C70.5432 60.1287 70.6539 60.3972 70.8505 60.5966C70.9491 60.6936 71.0659 60.77 71.1942 60.8216C71.3225 60.8732 71.4599 60.8989 71.5982 60.8972H81.099C81.3756 60.8985 81.6415 60.7905 81.8388 60.5966C82.0353 60.3972 82.1461 60.1287 82.1475 59.8487V54.0294C82.1475 53.7498 82.0381 53.4815 81.8419 53.2823C81.6458 53.0831 81.3786 52.9689 81.099 52.9646V52.9809Z" fill="#1F1D20"/>
<path opacity="0.15" d="M81.099 43.2932H71.5982C71.3194 43.2932 71.0516 43.4034 70.8537 43.5998C70.6558 43.7962 70.5439 44.0629 70.5417 44.3417V50.1448C70.5432 50.4248 70.6539 50.6931 70.8505 50.8925C70.9491 50.9895 71.0659 51.0661 71.1942 51.1177C71.3225 51.1693 71.4599 51.195 71.5982 51.1933H81.099C81.2375 51.2003 81.376 51.1781 81.5054 51.1282C81.6339 51.0727 81.7527 50.9957 81.8554 50.9006C81.955 50.8014 82.032 50.6824 82.0824 50.5512C82.1381 50.423 82.1663 50.2845 82.1642 50.1448V44.3336C82.1563 44.0541 82.0394 43.7886 81.8388 43.5938C81.6415 43.4 81.3756 43.292 81.099 43.2932Z" fill="#1F1D20"/>
<path opacity="0.15" d="M81.099 62.6436H71.5982C71.3194 62.6435 71.0516 62.7537 70.8537 62.9501C70.6558 63.1465 70.5439 63.413 70.5417 63.6919V69.5114C70.5432 69.7914 70.6539 70.0597 70.8505 70.2591C70.9491 70.3561 71.0659 70.4325 71.1942 70.4841C71.3225 70.5357 71.4599 70.5616 71.5982 70.5599H81.099C81.3756 70.5611 81.6415 70.453 81.8388 70.2591C82.0353 70.0597 82.1461 69.7914 82.1475 69.5114V63.6919C82.1413 63.4157 82.0293 63.1528 81.834 62.9575C81.6387 62.7622 81.3751 62.6498 81.099 62.6436V62.6436Z" fill="#1F1D20"/>
</g>
<path d="M81.099 32.9473H71.5982C71.3194 32.9473 71.0516 33.0574 70.8537 33.2538C70.6558 33.4502 70.5439 33.717 70.5417 33.9958V39.807C70.5449 40.0866 70.6554 40.3543 70.8505 40.5547C70.9491 40.6516 71.0659 40.7283 71.1942 40.7799C71.3225 40.8315 71.4599 40.8572 71.5982 40.8555H81.099C81.306 40.8578 81.5091 40.7978 81.6816 40.6832C81.8541 40.5687 81.9883 40.405 82.0665 40.2134C82.1215 40.085 82.1489 39.9466 82.1475 39.807V33.9958C82.1413 33.7196 82.0293 33.4565 81.834 33.2612C81.6387 33.0659 81.3751 32.9535 81.099 32.9473V32.9473Z" fill="#FE90BE"/>
<path d="M81.099 52.2922H71.5982C71.3194 52.2922 71.0516 52.4024 70.8537 52.5988C70.6558 52.7952 70.5439 53.0617 70.5417 53.3405V59.1601C70.5445 59.2993 70.5717 59.4369 70.6227 59.5665C70.6765 59.6911 70.7539 59.8042 70.8505 59.8996C70.9485 59.9989 71.0643 60.0789 71.1918 60.1354C71.3218 60.1838 71.4594 60.2087 71.5982 60.2086H81.099C81.235 60.208 81.3701 60.1832 81.4975 60.1354C81.625 60.0789 81.7407 59.9989 81.8388 59.8996C81.9353 59.8042 82.0128 59.6911 82.0665 59.5665C82.1176 59.4369 82.1448 59.2993 82.1475 59.1601V53.3975C82.1477 53.2561 82.123 53.1158 82.0745 52.983C82.0252 52.8507 81.9511 52.7293 81.8554 52.6254C81.757 52.5209 81.6375 52.4378 81.5054 52.3815C81.3763 52.3279 81.2387 52.2977 81.099 52.2922V52.2922Z" fill="#CF3071"/>
<path d="M81.099 42.6042H71.5982C71.3194 42.6042 71.0516 42.7144 70.8537 42.9108C70.6558 43.1072 70.5439 43.3739 70.5417 43.6528V49.464C70.5432 49.744 70.6539 50.0125 70.8505 50.2118C70.9491 50.3088 71.0659 50.3853 71.1942 50.4369C71.3225 50.4885 71.4599 50.5141 71.5982 50.5125H81.099C81.306 50.5148 81.5091 50.4549 81.6816 50.3404C81.8541 50.2259 81.9883 50.062 82.0665 49.8704C82.1215 49.742 82.1489 49.6036 82.1475 49.464V43.6446C82.1392 43.3699 82.0259 43.109 81.8308 42.9154C81.6357 42.7218 81.3738 42.6104 81.099 42.6042Z" fill="#E86299"/>
<path d="M81.099 61.9563H71.5982C71.459 61.959 71.3214 61.9867 71.1918 62.0377C71.0642 62.0904 70.9481 62.1677 70.8505 62.2653C70.7529 62.3629 70.6754 62.479 70.6227 62.6066C70.5716 62.7333 70.5444 62.8683 70.5417 63.0048V68.8405C70.5445 68.9797 70.5717 69.1173 70.6227 69.2469C70.6783 69.3729 70.7555 69.4883 70.8505 69.5882C70.9493 69.6824 71.0651 69.7568 71.1918 69.8076C71.3202 69.8626 71.4586 69.8903 71.5982 69.889H81.099C81.2355 69.8937 81.3716 69.8687 81.4975 69.8158C81.6287 69.7653 81.7475 69.6877 81.8467 69.5882C81.9459 69.4901 82.0259 69.3744 82.0824 69.2469C82.1335 69.1173 82.1615 68.9797 82.1642 68.8405V63.0293C82.1623 62.7469 82.0518 62.4761 81.8554 62.2732C81.7565 62.1713 81.637 62.0912 81.5054 62.0377C81.377 61.9828 81.2386 61.955 81.099 61.9563V61.9563Z" fill="#900740"/>
<path d="M88.0481 48.7871L92.4699 51.3417L88.0481 53.8914V48.7871Z" fill="#78787D"/>
<path d="M54.7998 42.3533V58.5842L40.8396 66.7612V50.5303L54.7998 42.3533Z" fill="#C12664"/>
<path d="M54.7998 42.3485L40.7949 50.5367L26.79 42.3485L40.7949 34.2051L54.7998 42.3485Z" fill="#FE90BE"/>
<path opacity="0.2" d="M54.7998 60.086L40.7949 68.2742L26.79 60.086L40.7949 51.9426L54.7998 60.086Z" fill="#1F1D21"/>
<path d="M40.8399 50.5303V66.7612L26.835 58.573V42.3533L40.8399 50.5303Z" fill="#F173A7"/>
<path d="M26.835 58.5218L40.8399 50.4343V66.6652L26.835 58.5218Z" fill="#E86299"/>
<path d="M54.7998 58.5218L40.7949 50.4343V66.6652L54.7998 58.5218Z" fill="#CF3071"/>
<path d="M41.4997 50.1582C41.4141 50.157 41.329 50.1727 41.2494 50.2045C41.1707 50.2398 41.0986 50.2884 41.0363 50.3482C40.9164 50.4729 40.8484 50.6386 40.8462 50.8116L40.8462 72.2629L63.4977 72.2629L63.4977 50.8162C63.499 50.7306 63.4834 50.6455 63.4516 50.566C63.418 50.4863 63.3689 50.4139 63.3077 50.3528C63.2465 50.2929 63.1741 50.2456 63.0945 50.2138C63.015 50.182 62.9299 50.1663 62.8443 50.1675L41.4997 50.1582Z" fill="url(#paint3_linear_804_8045)"/>
<path d="M40.8648 72.0592L40.8648 72.4114C40.866 72.6208 40.9503 72.8211 41.0988 72.9687C41.2472 73.1164 41.4479 73.1992 41.6572 73.1992L62.7284 73.1992C62.832 73.1998 62.9349 73.1799 63.0307 73.1405C63.1266 73.1011 63.2136 73.043 63.2869 72.9698C63.3601 72.8965 63.4186 72.8095 63.4579 72.7136C63.4973 72.6178 63.5169 72.5151 63.5163 72.4114L63.5163 51.5115C63.5174 51.4084 63.4978 51.3061 63.4588 51.2106C63.4198 51.1151 63.3626 51.0283 63.2896 50.9554C63.2161 50.8817 63.1283 50.8232 63.0321 50.7835C62.9358 50.7437 62.8326 50.7234 62.7284 50.7237L41.6341 50.7237C41.53 50.7231 41.4268 50.7432 41.3305 50.783C41.2342 50.8228 41.1468 50.8815 41.0734 50.9554C41.0007 51.0288 40.9425 51.1153 40.9019 51.2103C40.8644 51.3063 40.8455 51.4085 40.8462 51.5115L40.8462 72.0731L40.8648 72.0592Z" fill="url(#paint4_linear_804_8045)"/>
<path d="M55.4021 69.2682C55.3936 69.2682 55.3936 69.2597 55.4021 69.2682V69.2682Z" fill="#F2F1F0"/>
<path d="M55.394 69.261C55.3527 69.2197 55.2908 69.1577 55.2908 69.1577C55.3183 69.2059 55.3527 69.2403 55.394 69.261Z" fill="#F2F1F0"/>
<path d="M55.4006 69.2676C55.4361 69.303 55.429 69.296 55.4006 69.2676V69.2676Z" fill="#F2F1F0"/>
<path d="M47.0194 66.8398H44.5366V70.0824H47.0145V66.8398H47.0194Z" fill="#50E6FF"/>
<path d="M50.7942 64.687H48.2776V70.0833H50.8039V64.687H50.7942Z" fill="#0273D6"/>
<path d="M55.3048 61.1895H52.0623V70.0703H55.3048V61.1895Z" fill="#14447D"/>
<path d="M60.2898 57.5562H56.5632V70.0668H60.2898V57.5562Z" fill="#0F335E"/>
<g filter="url(#filter2_b_804_8045)">
<path d="M45.9982 63.7912L45.5481 63.5783L48.9601 57.3932L53.5094 57.8433L58.2281 54.1167L58.5959 54.4506L53.6788 58.395L49.2359 57.9739L45.9982 63.7912Z" fill="url(#paint5_linear_804_8045)"/>
</g>
<path d="M45.2674 64.8619C45.8627 65.0216 46.4774 64.6683 46.6371 64.0731C46.7968 63.4778 46.4435 62.8631 45.8482 62.7034C45.2529 62.5437 44.6383 62.897 44.4786 63.4923C44.3189 64.0924 44.6722 64.7022 45.2674 64.8619Z" fill="#50E6FF"/>
<path d="M48.8778 58.9044C49.4731 59.0641 50.0877 58.7108 50.2474 58.1155C50.4071 57.5203 50.0538 56.9056 49.4586 56.7459C48.8633 56.5862 48.2486 56.9395 48.0889 57.5348C47.9292 58.1301 48.2825 58.7447 48.8778 58.9044Z" fill="#0273D6"/>
<path d="M53.1996 59.1647C53.7948 59.3244 54.4095 58.9711 54.5692 58.3758C54.7289 57.7805 54.3756 57.1659 53.7803 57.0062C53.185 56.8464 52.5704 57.1997 52.4107 57.795C52.251 58.3903 52.6043 59.0001 53.1996 59.1647Z" fill="#14447D"/>
<path d="M57.7587 55.3171C58.5088 55.7285 59.4042 55.2106 59.4284 54.354C59.4381 53.9523 59.2106 53.5603 58.8621 53.3667C58.112 52.9553 57.2166 53.4732 57.1924 54.3298C57.1828 54.7315 57.4054 55.1235 57.7587 55.3171Z" fill="#0F335E"/>
<defs>
<filter id="filter0_b_804_8045" x="0.622803" y="0.728516" width="101.66" height="101.66" filterUnits="userSpaceOnUse" color-interpolation-filters="sRGB">
<feFlood flood-opacity="0" result="BackgroundImageFix"/>
<feGaussianBlur in="BackgroundImage" stdDeviation="2"/>
<feComposite in2="SourceAlpha" operator="in" result="effect1_backgroundBlur_804_8045"/>
<feBlend mode="normal" in="SourceGraphic" in2="effect1_backgroundBlur_804_8045" result="shape"/>
</filter>
<filter id="filter1_d_804_8045" x="16.2778" y="31.4238" width="48.2083" height="47.863" filterUnits="userSpaceOnUse" color-interpolation-filters="sRGB">
<feFlood flood-opacity="0" result="BackgroundImageFix"/>
<feColorMatrix in="SourceAlpha" type="matrix" values="0 0 0 0 0 0 0 0 0 0 0 0 0 0 0 0 0 0 127 0" result="hardAlpha"/>
<feOffset dy="4"/>
<feGaussianBlur stdDeviation="2"/>
<feComposite in2="hardAlpha" operator="out"/>
<feColorMatrix type="matrix" values="0 0 0 0 0 0 0 0 0 0 0 0 0 0 0 0 0 0 0.25 0"/>
<feBlend mode="normal" in2="BackgroundImageFix" result="effect1_dropShadow_804_8045"/>
<feBlend mode="normal" in="SourceGraphic" in2="effect1_dropShadow_804_8045" result="shape"/>
</filter>
<filter id="filter2_b_804_8045" x="41.5481" y="50.1167" width="21.0479" height="17.6746" filterUnits="userSpaceOnUse" color-interpolation-filters="sRGB">
<feFlood flood-opacity="0" result="BackgroundImageFix"/>
<feGaussianBlur in="BackgroundImage" stdDeviation="2"/>
<feComposite in2="SourceAlpha" operator="in" result="effect1_backgroundBlur_804_8045"/>
<feBlend mode="normal" in="SourceGraphic" in2="effect1_backgroundBlur_804_8045" result="shape"/>
</filter>
<linearGradient id="paint0_linear_804_8045" x1="51.4531" y1="-7.50391" x2="51.4531" y2="98.368" gradientUnits="userSpaceOnUse">
<stop offset="0.203125" stop-color="white"/>
<stop offset="0.630208" stop-color="#F4F3F5"/>
<stop offset="1" stop-color="#E8E6DF"/>
</linearGradient>
<linearGradient id="paint1_linear_804_8045" x1="54.9296" y1="100.496" x2="56.6796" y2="-43.0039" gradientUnits="userSpaceOnUse">
<stop offset="0.203125" stop-color="white"/>
<stop offset="0.630208" stop-color="#F4F3F5"/>
<stop offset="1" stop-color="#E8E6DF"/>
</linearGradient>
<linearGradient id="paint2_linear_804_8045" x1="37.1794" y1="-55.0039" x2="48.1795" y2="126.496" gradientUnits="userSpaceOnUse">
<stop stop-color="#FE90BE"/>
<stop offset="0.255208" stop-color="#D68DC2"/>
<stop offset="0.609375" stop-color="#007ED8"/>
<stop offset="0.931465" stop-color="#002D4C"/>
</linearGradient>
<linearGradient id="paint3_linear_804_8045" x1="52.172" y1="72.2629" x2="52.172" y2="50.1582" gradientUnits="userSpaceOnUse">
<stop offset="0.104167" stop-color="#F2F1F0"/>
<stop offset="1" stop-color="#F2F1F0" stop-opacity="0"/>
</linearGradient>
<linearGradient id="paint4_linear_804_8045" x1="52.1813" y1="73.1992" x2="52.1813" y2="50.7237" gradientUnits="userSpaceOnUse">
<stop offset="0.104167" stop-color="#F2F1F0"/>
<stop offset="1" stop-color="#F2F1F0" stop-opacity="0"/>
</linearGradient>
<linearGradient id="paint5_linear_804_8045" x1="37.4488" y1="64.9612" x2="66.4026" y2="57.3779" gradientUnits="userSpaceOnUse">
<stop stop-color="#FE90BE"/>
<stop offset="0.255208" stop-color="#D68DC2"/>
<stop offset="0.609375" stop-color="#007ED8"/>
<stop offset="0.931465" stop-color="#002D4C"/>
</linearGradient>
</defs>
</svg>
