<svg width="103" height="103" viewBox="0 0 103 103" fill="none" xmlns="http://www.w3.org/2000/svg">
<path d="M51.6479 98.5475C25.7979 98.5475 4.83789 77.5975 4.83789 51.7375C4.83789 25.8775 25.7979 4.92749 51.6479 4.92749C77.4979 4.92749 98.4579 25.8875 98.4579 51.7375C98.4579 77.5875 77.4979 98.5475 51.6479 98.5475Z" fill="url(#paint0_linear_815_24862)"/>
<path fill-rule="evenodd" clip-rule="evenodd" d="M97.5478 51.7374C97.5478 77.0874 76.9978 97.6374 51.6478 97.6374C26.2978 97.6374 5.74781 77.0874 5.74781 51.7374C5.74781 26.3874 26.2978 5.83742 51.6478 5.83742C76.9978 5.83742 97.5478 26.3874 97.5478 51.7374ZM51.6478 2.09741C79.0678 2.09741 101.288 24.3174 101.288 51.7374C101.288 79.1574 79.0578 101.377 51.6478 101.377C24.2278 101.377 2.00781 79.1474 2.00781 51.7374C2.00781 24.3174 24.2278 2.09741 51.6478 2.09741Z" fill="url(#paint1_linear_815_24862)"/>
<path d="M13.9506 58.3971L19.9506 61.8171L14.0105 65.2372L8.38049 62.0071L8.47058 62.3971L13.7206 65.3971L9.72058 67.7072C9.72058 67.8072 9.77053 67.9072 9.79053 67.9972L14.0305 65.5571L20.0305 68.9772L14.1006 72.3871L10.3206 70.2172V70.3672L10.6305 70.7671L13.7505 72.5671L12.5605 73.2472L12.7405 73.4772L14.0405 72.7272L19.9606 76.1371L16.4205 78.1371L16.6006 78.3672L20.2505 76.2671L26.2505 79.6971L20.3605 83.0771C20.5605 83.3371 20.7506 83.5671 20.9406 83.7971L38.8005 94.1172L39.4606 94.1671L39.3005 94.0671L45.3005 90.6272L51.2206 94.0371L49.8406 94.8271H50.3605L51.5105 94.1571L52.9506 94.9872H53.6105L51.8005 93.9872L57.8005 90.5471L62.9105 93.4772L63.3206 93.3572L58.1105 90.3572L64.0005 86.9672L69.7605 90.2771L65.5305 92.7072L66.6505 92.3871L82.2405 83.3871L83.4305 82.3871L82.5605 82.8971L76.7905 79.5872L82.7106 76.1871L86.7805 78.5171L86.9406 78.2771L83.0005 76.0171L89.0005 72.5872L90.2505 73.3071L90.4105 73.0671L89.2905 72.4171L91.7305 71.0171L92.0706 70.4972L89.0005 72.2571L83.0806 68.8472L89.0105 65.4371L93.6205 68.0872C93.6659 68.0044 93.7161 67.9243 93.7705 67.8472L89.3005 65.2771L95.0005 61.9872L95.1006 61.3871L70.6605 47.2771L58.2006 40.0872L58.0706 40.0371L52.0105 36.5371L51.7305 36.3572L8.35059 61.2771C8.36803 61.3751 8.39135 61.472 8.42053 61.5671L13.9506 58.3971ZM14.2605 65.3971L20.1906 61.9872L26.1906 65.4071L20.2505 68.8171L14.2605 65.3971ZM51.7006 65.3971L57.6205 61.9972L63.5305 65.3871L57.6105 68.7871L51.7006 65.3971ZM57.3206 68.9572L51.3206 72.3871L45.4105 68.9872L51.4105 65.5671L57.3206 68.9572ZM51.4205 65.2272L45.4205 61.8071L51.3406 58.4071L57.3406 61.8271L51.4205 65.2272ZM51.1305 65.3971L45.1305 68.8271L39.1305 65.3971L45.1305 61.9672L51.1305 65.3971ZM44.8705 68.9872L38.9205 72.4171L32.9205 68.9872L38.9205 65.5671L44.8705 68.9872ZM44.8705 76.1471L38.9606 79.5471L33.0405 76.1471L38.9606 72.7472L44.8705 76.1471ZM39.2605 72.5771L45.2106 69.1571L51.1205 72.5471L45.1205 75.9772L39.2605 72.5771ZM51.4105 72.7172L57.4105 76.1471L51.4105 79.5671L45.4105 76.1371L51.4105 72.7172ZM51.7006 72.5471L57.7006 69.1272L63.7006 72.5471L57.7006 75.9772L51.7006 72.5471ZM57.9506 68.9572L63.8705 65.5571L69.8705 68.9872L63.9606 72.3871L57.9506 68.9572ZM64.1505 65.3871L70.1505 61.9572L76.1505 65.3871L70.1505 68.8171L64.1505 65.3871ZM63.8705 65.2272L57.9606 61.8271L63.9606 58.3971L69.8605 61.7971L63.8705 65.2272ZM57.6705 61.6671L51.6705 58.2372L57.6705 54.8071L63.6705 58.2372L57.6705 61.6671ZM51.4205 58.0671L45.5005 54.6671L51.5005 51.2372L57.4305 54.6471L51.4205 58.0671ZM51.1305 58.2372L45.2106 61.6371L39.2905 58.2372L45.2106 54.8372L51.1305 58.2372ZM44.9205 61.8071L38.9205 65.2372L32.9905 61.8271L38.9905 58.3971L44.9205 61.8071ZM38.6705 65.3971L32.6705 68.8171L26.7505 65.4171L32.7505 61.9972L38.6705 65.3971ZM32.4205 68.9872L26.4905 72.3971L20.5605 68.9972L26.4905 65.5872L32.4205 68.9872ZM32.7106 69.1571L38.7106 72.5872L32.7905 75.9872L26.7905 72.5571L32.7106 69.1571ZM38.7106 79.7172L32.7106 83.1371L26.8005 79.7372L32.7405 76.3271L38.7106 79.7172ZM39.0005 79.8871L45.0005 83.3071L39.0005 86.7372L33.0005 83.3071L39.0005 79.8871ZM39.3005 79.7072L45.2106 76.3071L51.2106 79.7372L45.3005 83.1371L39.3005 79.7072ZM51.4606 79.9071L57.4606 83.3472L51.5605 86.7472L45.5605 83.2971L51.4606 79.9071ZM51.7605 79.7372L57.7605 76.3171L63.7605 79.7571L57.7605 83.1771L51.7605 79.7372ZM58.0005 76.1471L64.0005 72.7172L70.0005 76.1571L64.0005 79.5872L58.0005 76.1471ZM70.2505 76.3271L76.1805 79.7372L70.1805 83.1571L64.2605 79.7571L70.2505 76.3271ZM70.2505 75.9972L64.2505 72.5471L70.1605 69.1471L76.1605 72.5972L70.2505 75.9972ZM70.4606 68.9972L76.4606 65.5671L82.4606 69.0071L76.4606 72.4371L70.4606 68.9972ZM70.4606 61.8071L76.3905 58.3971L82.3905 61.8271L76.4506 65.2372L70.4606 61.8071ZM70.1705 61.6371L64.2705 58.2472L70.2006 54.8372L76.1006 58.2272L70.1705 61.6371ZM63.9805 58.0771L57.9805 54.6571L63.9105 51.2472L69.9105 54.6771L63.9805 58.0771ZM57.7305 54.4872L51.8005 51.0872L57.7305 47.6771L63.6505 51.0771L57.7305 54.4872ZM51.5105 50.9171L45.5105 47.4772L51.4305 44.0671L57.4305 47.5071L51.5105 50.9171ZM51.2305 51.0872L45.2305 54.5071L39.2305 51.0771L45.2305 47.6371L51.2305 51.0872ZM44.9706 54.6771L39.0505 58.0771L33.0505 54.6471L38.9706 51.2372L44.9706 54.6771ZM38.7605 58.2472L32.7605 61.6771L26.7605 58.2472L32.7605 54.8071L38.7605 58.2472ZM32.5105 61.8372L26.5105 65.2671L20.5105 61.8372L26.5105 58.4071L32.5105 61.8372ZM14.2905 72.5671L20.2206 69.1671L26.1505 72.5671L20.2106 75.9772L14.2905 72.5671ZM20.5005 76.1471L26.4305 72.7372L32.4305 76.1571L26.4905 79.5671L20.5005 76.1471ZM20.5005 83.3171L26.4406 79.9171L32.3506 83.3071L26.3506 86.7272L20.5005 83.3171ZM26.6906 86.8971L32.6405 83.4772L38.6405 86.9071L32.6405 90.3372L26.6906 86.8971ZM38.9105 93.9572L32.9105 90.4972L38.9105 87.0671L44.9105 90.5171L38.9105 93.9572ZM39.1906 86.8971L45.1906 83.4772L51.1906 86.9171L45.1906 90.3472L39.1906 86.8971ZM51.3905 93.8971L45.4706 90.4872L51.4706 87.0571L57.4005 90.4672L51.3905 93.8971ZM57.6705 90.2871L51.7405 86.8871L57.6405 83.4972L63.5605 86.8971L57.6705 90.2871ZM57.9406 83.2871L63.8905 79.8672L69.8105 83.2671L63.8705 86.6871L57.9406 83.2871ZM69.9406 90.1571L64.1805 86.8472L70.1205 83.4371L75.8805 86.7472L69.9406 90.1571ZM82.1405 83.1571L76.1405 86.5872L70.3805 83.2771L76.3805 79.8472L82.1405 83.1571ZM76.3805 79.5171L70.4506 76.1072L76.3605 72.7072L82.2905 76.1172L76.3805 79.5171ZM88.5405 72.5171L82.5405 75.9471L76.6105 72.5471L82.6105 69.1172L88.5405 72.5171ZM82.6205 68.7871L76.6205 65.3372L82.5505 61.9271L88.5505 65.3772L82.6205 68.7871ZM94.8306 61.7871L88.8306 65.2272L82.8306 61.7871L88.8306 58.3271L94.8306 61.7871ZM88.5605 58.1671L82.5605 61.6172L76.5605 58.1871L82.5605 54.7272L88.5605 58.1671ZM82.3206 54.5571L76.3206 58.0271L70.4105 54.6371L76.4105 51.1671L82.3206 54.5571ZM76.1405 50.9972L70.1405 54.4672L64.1405 51.0371L70.1906 47.5571L76.1405 50.9972ZM69.9105 47.3971L63.8506 50.8772L57.9305 47.4672L64.0005 43.9872L69.9105 47.3971ZM63.7106 43.8171L57.6405 47.3071L51.6405 43.8572L57.7206 40.3572L63.7106 43.8171ZM51.5505 36.8171L57.4305 40.2172L51.3506 43.7172L45.4406 40.3171L51.5505 36.8171ZM45.1505 40.4872L51.0605 43.8772L45.1505 47.2871L39.2305 43.8871L45.1505 40.4872ZM38.9406 44.0571L44.8605 47.4572L38.8605 50.8871L32.9305 47.4772L38.9406 44.0571ZM32.6906 47.6471L38.6105 51.0571L32.6906 54.4572L26.7605 51.0471L32.6906 47.6471ZM26.4706 51.2172L32.4105 54.6272L26.4105 58.0571L20.4105 54.6471L26.4706 51.2172ZM20.2206 54.8071L26.1605 58.2272L20.2106 61.6571L14.2106 58.2372L20.2206 54.8071Z" fill="white"/>
<g filter="url(#filter0_b_815_24862)">
<path fill-rule="evenodd" clip-rule="evenodd" d="M94.7379 51.738C94.7379 75.538 75.4479 94.828 51.6479 94.828C27.8479 94.828 8.55787 75.538 8.55787 51.738C8.55787 27.938 27.8479 8.64796 51.6479 8.64796C75.4479 8.64796 94.7379 27.938 94.7379 51.738ZM51.6479 4.90796C77.5079 4.90796 98.4779 25.878 98.4779 51.738C98.4779 77.598 77.5079 98.568 51.6479 98.568C25.7879 98.568 4.81787 77.598 4.81787 51.738C4.81787 25.878 25.7779 4.90796 51.6479 4.90796Z" fill="url(#paint2_linear_815_24862)"/>
</g>
<path opacity="0.15" d="M83.9272 29.9314H72.2378C71.8947 29.9314 71.5653 30.067 71.3218 30.3086C71.0783 30.5502 70.9406 30.8784 70.938 31.2214V38.3716C70.9402 38.7131 71.0766 39.0398 71.3179 39.2815C71.4374 39.404 71.5806 39.5008 71.7388 39.5662C71.8969 39.6315 72.0667 39.6638 72.2378 39.6614H83.9272C84.1819 39.6642 84.4318 39.5906 84.644 39.4497C84.8563 39.3088 85.0214 39.1074 85.1177 38.8716C85.1853 38.7136 85.2189 38.5434 85.2173 38.3716V31.2415C85.214 31.0702 85.1805 30.9008 85.1177 30.7415C85.0529 30.5844 84.9575 30.4417 84.8374 30.3215C84.719 30.1992 84.5759 30.1037 84.4175 30.0415C84.2636 29.971 84.0965 29.9334 83.9272 29.9314Z" fill="#1F1D20"/>
<path opacity="0.15" d="M83.9272 53.7307H72.2378C71.8947 53.7307 71.5653 53.8663 71.3218 54.1079C71.0783 54.3495 70.9406 54.6777 70.938 55.0208V62.1807C70.9397 62.5252 71.076 62.8555 71.3179 63.1008C71.4392 63.2201 71.5828 63.3142 71.7407 63.3777C71.8986 63.4412 72.0676 63.4728 72.2378 63.4707H83.9272C84.0947 63.4709 84.261 63.4406 84.4175 63.3809C84.574 63.315 84.7164 63.2199 84.8374 63.1008C84.9597 62.9825 85.0555 62.8391 85.1177 62.6807C85.1805 62.5213 85.214 62.352 85.2173 62.1807V55.0208C85.2173 54.6768 85.0827 54.3467 84.8413 54.1016C84.5999 53.8565 84.2712 53.7159 83.9272 53.7107V53.7307Z" fill="#1F1D20"/>
<path opacity="0.15" d="M83.9272 41.8103H72.2378C71.8947 41.8103 71.5653 41.9459 71.3218 42.1875C71.0783 42.4292 70.9406 42.7573 70.938 43.1004V50.2402C70.9397 50.5848 71.076 50.9148 71.3179 51.1602C71.4392 51.2795 71.5828 51.3738 71.7407 51.4373C71.8986 51.5008 72.0676 51.5323 72.2378 51.5303H83.9272C84.0977 51.5389 84.268 51.5115 84.4272 51.4502C84.5854 51.3819 84.7315 51.2872 84.8579 51.1702C84.9804 51.0481 85.0751 50.9017 85.1372 50.7402C85.2057 50.5826 85.2404 50.4121 85.2378 50.2402V43.0903C85.2281 42.7465 85.0842 42.4198 84.8374 42.1802C84.5947 41.9417 84.2675 41.8088 83.9272 41.8103Z" fill="#1F1D20"/>
<path opacity="0.15" d="M83.9272 65.6208H72.2378C71.8947 65.6208 71.5653 65.7564 71.3218 65.998C71.0783 66.2397 70.9406 66.5676 70.938 66.9106V74.0708C70.9397 74.4153 71.076 74.7454 71.3179 74.9907C71.4392 75.11 71.5828 75.2041 71.7407 75.2676C71.8986 75.3311 72.0676 75.3629 72.2378 75.3608H83.9272C84.2675 75.3623 84.5947 75.2292 84.8374 74.9907C85.0793 74.7454 85.2155 74.4153 85.2173 74.0708V66.9207C85.2147 66.5784 85.0785 66.2508 84.8374 66.0078C84.5963 65.7649 84.2695 65.6261 83.9272 65.6208Z" fill="#1F1D20"/>
<path opacity="0.15" d="M67.6847 76.9399C67.8696 76.9426 68.0531 76.9087 68.2248 76.8401C68.3948 76.764 68.5503 76.659 68.6847 76.53C68.9434 76.2609 69.0901 75.9033 69.0949 75.53V29.24H20.215V75.52C20.2123 75.7049 20.2459 75.8884 20.3146 76.0601C20.3871 76.232 20.493 76.3882 20.6251 76.52C20.7572 76.6494 20.9135 76.7514 21.0851 76.8201C21.2567 76.8887 21.4403 76.9226 21.6251 76.9199L67.6847 76.9399Z" fill="#1F1D20"/>
<g opacity="0.15">
<path opacity="0.15" d="M83.9272 29.9197H72.2378C71.8947 29.9197 71.5653 30.0552 71.3218 30.2969C71.0783 30.5385 70.9406 30.8667 70.938 31.2097V38.3699C70.9402 38.7113 71.0766 39.0381 71.3179 39.2798C71.4374 39.4023 71.5806 39.4991 71.7388 39.5645C71.8969 39.6298 72.0667 39.6621 72.2378 39.6597H83.9272C84.0947 39.6599 84.261 39.6295 84.4175 39.5698C84.574 39.5039 84.7164 39.4089 84.8374 39.2898C84.9575 39.1696 85.0529 39.0269 85.1177 38.8699C85.1805 38.7105 85.214 38.5412 85.2173 38.3699V31.2397C85.2189 31.068 85.1853 30.8977 85.1177 30.7397C85.0568 30.5801 84.9646 30.434 84.8472 30.3098C84.7251 30.1873 84.5789 30.0919 84.4175 30.0298C84.264 29.9581 84.0966 29.9204 83.9272 29.9197V29.9197Z" fill="#1F1D20"/>
<path opacity="0.15" d="M83.9272 53.7297H72.2378C71.8947 53.7297 71.5653 53.8653 71.3218 54.1069C71.0783 54.3486 70.9406 54.6767 70.938 55.0198V62.1797C70.9397 62.5242 71.076 62.8545 71.3179 63.0999C71.4392 63.2192 71.5828 63.3132 71.7407 63.3767C71.8986 63.4402 72.0676 63.4718 72.2378 63.4697H83.9272C84.2675 63.4712 84.5947 63.3384 84.8374 63.0999C85.0793 62.8545 85.2155 62.5242 85.2173 62.1797V55.0198C85.2173 54.6758 85.0827 54.3457 84.8413 54.1006C84.5999 53.8555 84.2712 53.715 83.9272 53.7097V53.7297Z" fill="#1F1D20"/>
<path opacity="0.15" d="M83.9272 41.8098H72.2378C71.8947 41.8098 71.5653 41.9454 71.3218 42.187C71.0783 42.4287 70.9406 42.7568 70.938 43.0999V50.2398C70.9397 50.5843 71.076 50.9144 71.3179 51.1597C71.4392 51.279 71.5828 51.3733 71.7407 51.4368C71.8986 51.5003 72.0676 51.5319 72.2378 51.5298H83.9272C84.0977 51.5384 84.268 51.5111 84.4272 51.4497C84.5854 51.3814 84.7315 51.2867 84.8579 51.1697C84.9804 51.0476 85.0751 50.9012 85.1372 50.7398C85.2057 50.5821 85.2404 50.4116 85.2378 50.2398V43.0899C85.2281 42.746 85.0842 42.4193 84.8374 42.1797C84.5947 41.9412 84.2675 41.8083 83.9272 41.8098Z" fill="#1F1D20"/>
<path opacity="0.15" d="M83.9272 65.6199H72.2378C71.8947 65.6199 71.5653 65.7554 71.3218 65.9971C71.0783 66.2387 70.9406 66.5666 70.938 66.9097V74.0698C70.9397 74.4143 71.076 74.7444 71.3179 74.9897C71.4392 75.1091 71.5828 75.2031 71.7407 75.2666C71.8986 75.3301 72.0676 75.3619 72.2378 75.3599H83.9272C84.2675 75.3614 84.5947 75.2283 84.8374 74.9897C85.0793 74.7444 85.2155 74.4143 85.2173 74.0698V66.9097C85.2096 66.5699 85.0718 66.2464 84.8315 66.0061C84.5913 65.7658 84.267 65.6275 83.9272 65.6199V65.6199Z" fill="#1F1D20"/>
</g>
<path d="M77.5776 68.8005H61.4077V70.2004H77.5776V68.8005Z" fill="#900740"/>
<path d="M77.5776 57.0212H61.4077V58.4211H77.5776V57.0212Z" fill="#CF3071"/>
<path d="M77.5776 45.3103H61.4077V46.7102H77.5776V45.3103Z" fill="#E86299"/>
<path d="M77.5776 33.5505H61.4077V34.9504H77.5776V33.5505Z" fill="#FE90BE"/>
<path d="M83.9272 29.0798H72.2378C71.8947 29.0798 71.5653 29.2154 71.3218 29.457C71.0783 29.6987 70.9406 30.0268 70.938 30.3699V37.5198C70.9418 37.8639 71.0778 38.1932 71.3179 38.4397C71.4392 38.559 71.5828 38.6533 71.7407 38.7168C71.8986 38.7803 72.0676 38.8119 72.2378 38.8098H83.9272C84.1819 38.8127 84.4318 38.7388 84.644 38.5979C84.8563 38.457 85.0214 38.2556 85.1177 38.0198C85.1853 37.8618 85.2189 37.6916 85.2173 37.5198V30.3699C85.2096 30.0301 85.0718 29.7064 84.8315 29.4661C84.5913 29.2258 84.267 29.0875 83.9272 29.0798V29.0798Z" fill="#FE90BE"/>
<path d="M83.9272 52.8806H72.2378C71.8947 52.8806 71.5653 53.0162 71.3218 53.2578C71.0783 53.4995 70.9406 53.8274 70.938 54.1704V61.3306C70.9413 61.5019 70.9748 61.6712 71.0376 61.8306C71.1037 61.984 71.1991 62.1231 71.3179 62.2405C71.4385 62.3626 71.5809 62.461 71.7378 62.5305C71.8978 62.5901 72.0671 62.6207 72.2378 62.6206H83.9272C84.0946 62.6199 84.2608 62.5894 84.4175 62.5305C84.5744 62.461 84.7168 62.3626 84.8374 62.2405C84.9562 62.1231 85.0515 61.984 85.1177 61.8306C85.1805 61.6712 85.214 61.5019 85.2173 61.3306V54.2405C85.2175 54.0665 85.1872 53.8939 85.1274 53.7305C85.0668 53.5677 84.9756 53.4183 84.8579 53.2905C84.7368 53.1619 84.5897 53.0597 84.4272 52.9905C84.2684 52.9244 84.0991 52.8873 83.9272 52.8806V52.8806Z" fill="#CF3071"/>
<path d="M83.9272 40.9607H72.2378C71.8947 40.9607 71.5653 41.0963 71.3218 41.3379C71.0783 41.5795 70.9406 41.9077 70.938 42.2507V49.4006C70.9397 49.7451 71.076 50.0755 71.3179 50.3208C71.4392 50.4401 71.5828 50.5342 71.7407 50.5977C71.8986 50.6612 72.0676 50.6927 72.2378 50.6907H83.9272C84.1819 50.6935 84.4318 50.6199 84.644 50.479C84.8563 50.3381 85.0214 50.1365 85.1177 49.9006C85.1853 49.7427 85.2189 49.5724 85.2173 49.4006V42.2407C85.2071 41.9027 85.0677 41.5817 84.8276 41.3435C84.5876 41.1053 84.2653 40.9682 83.9272 40.9607Z" fill="#E86299"/>
<path d="M83.9272 64.7713H72.2378C72.0665 64.7746 71.8972 64.8086 71.7378 64.8714C71.5808 64.9362 71.438 65.0313 71.3179 65.1514C71.1977 65.2716 71.1024 65.4143 71.0376 65.5713C70.9747 65.7272 70.9412 65.8933 70.938 66.0613V73.2413C70.9413 73.4126 70.9748 73.5819 71.0376 73.7413C71.106 73.8964 71.201 74.0384 71.3179 74.1612C71.4394 74.2771 71.5819 74.3687 71.7378 74.4312C71.8957 74.4988 72.066 74.533 72.2378 74.5313H83.9272C84.0952 74.5372 84.2626 74.5064 84.4175 74.4412C84.5789 74.3792 84.7251 74.2837 84.8472 74.1612C84.9693 74.0406 85.0677 73.8982 85.1372 73.7413C85.2 73.5819 85.2345 73.4126 85.2378 73.2413V66.0914C85.2355 65.744 85.0995 65.4108 84.8579 65.1612C84.7362 65.0358 84.5891 64.9372 84.4272 64.8714C84.2693 64.8038 84.099 64.7696 83.9272 64.7713V64.7713Z" fill="#900740"/>
<g filter="url(#filter1_d_815_24862)">
<path d="M69.0548 29.6804V28.9204C69.0521 28.4687 68.8703 28.0363 68.5499 27.7178C68.2295 27.3993 67.7966 27.2205 67.3448 27.2205H21.8751C21.6515 27.2192 21.4296 27.2622 21.2228 27.3472C21.0159 27.4322 20.8281 27.5575 20.67 27.7156C20.5119 27.8737 20.3858 28.0615 20.3009 28.2683C20.2159 28.4752 20.1736 28.6968 20.1749 28.9204V74.0205C20.1725 74.2431 20.2148 74.4639 20.2989 74.67C20.3831 74.876 20.5066 75.0632 20.6642 75.2205C20.8228 75.3797 21.0121 75.5058 21.2198 75.5916C21.4275 75.6774 21.6504 75.7213 21.8751 75.7205H67.3946C67.6194 75.7218 67.8421 75.6784 68.0499 75.5926C68.2577 75.5067 68.4463 75.3801 68.6046 75.2205C68.7615 75.0621 68.8871 74.8754 68.9747 74.6704C69.0556 74.4634 69.0965 74.2429 69.0948 74.0205V29.6504L69.0548 29.6804Z" fill="white"/>
</g>
<path d="M81.7324 43.5808L79.4424 45.7908L85.1025 51.6609L88.5225 48.2407L87.4023 43.1208L81.7324 43.5808Z" fill="#1480D7"/>
<path d="M61.4521 63.7607L59.1621 65.9607L64.8926 71.8108L68.1719 68.5107L67.082 63.3708L61.4521 63.7607Z" fill="#1480D7"/>
<path d="M88.2119 42.7312C86.6219 41.1512 84.662 40.5313 83.792 41.3313L81.292 43.8613C82.232 43.3313 84.0325 43.9914 85.5225 45.4414C87.0125 46.8914 87.5222 48.3913 87.2422 49.3813L89.5322 47.1113C90.4522 46.3013 89.7919 44.3412 88.2119 42.7312Z" fill="#092E4C"/>
<path d="M84.082 46.8611C82.512 45.2911 80.5824 44.6612 79.6924 45.4312L60.9326 64.1912C60.9326 64.1912 60.9324 64.291 60.9824 64.271C61.9824 63.891 63.6324 64.5312 64.9824 65.9412C66.3324 67.3512 66.9817 68.8011 66.7217 69.8111C66.7217 69.8611 66.7825 69.9111 66.8125 69.8611L85.4619 51.221C86.2819 50.351 85.672 48.4311 84.082 46.8611Z" fill="#014473"/>
<path d="M63.5518 67.3903C61.9318 65.7803 59.9525 65.1702 59.1025 65.9902L57.5625 71.7302C57.8125 71.4902 57.9521 71.9303 58.4121 72.3903C58.8721 72.8503 58.7019 72.7602 58.4619 73.0102L57.3623 74.0102L64.9424 71.8503C65.7724 70.9903 65.1518 69.0003 63.5518 67.3903Z" fill="#FDBA12"/>
<path d="M58.8527 72.151C58.3927 71.701 57.8526 71.5008 57.5626 71.7408L57.0519 73.7408C57.0393 73.7838 57.0388 73.8295 57.0499 73.8729C57.061 73.9163 57.0837 73.956 57.1153 73.9876C57.147 74.0193 57.1872 74.042 57.2306 74.0531C57.274 74.0642 57.3194 74.0634 57.3624 74.0509L59.2618 73.5008C59.5118 73.2008 59.3327 72.581 58.8527 72.151Z" fill="#092E4C"/>
<path d="M58.3411 44.0576V59.2463L45.2773 66.8982V51.7095L58.3411 44.0576Z" fill="#C12664"/>
<path d="M58.3411 44.0539L45.2355 51.7162L32.1299 44.0539L45.2355 36.4333L58.3411 44.0539Z" fill="#FE90BE"/>
<path opacity="0.2" d="M58.3411 60.6493L45.2355 68.3117L32.1299 60.6493L45.2355 53.0288L58.3411 60.6493Z" fill="#1F1D21"/>
<path d="M45.2775 51.7095V66.8982L32.1719 59.2358V44.0576L45.2775 51.7095Z" fill="#F173A7"/>
<path d="M32.1719 59.1885L45.2775 51.6204V66.809L32.1719 59.1885Z" fill="#E86299"/>
<path d="M58.3409 59.1885L45.2354 51.6204V66.809L58.3409 59.1885Z" fill="#CF3071"/>
<path d="M32.8399 30.6091H24.0224C23.6355 30.6091 23.3301 30.9349 23.3301 31.3015C23.3301 31.6884 23.6559 31.9939 24.0224 31.9939H32.8399C33.2268 31.9939 33.5323 31.668 33.5323 31.3015C33.5323 30.9146 33.2268 30.6091 32.8399 30.6091Z" fill="#FE90BE"/>
<path d="M32.8399 33.6233H24.0224C23.6355 33.6233 23.3301 33.9491 23.3301 34.3157C23.3301 34.7026 23.6559 35.008 24.0224 35.008H32.8399C33.2268 35.008 33.5323 34.6822 33.5323 34.3157C33.5323 33.9491 33.2268 33.6233 32.8399 33.6233Z" fill="#CF3071"/>
<path fill-rule="evenodd" clip-rule="evenodd" d="M24.0224 36.8813H28.421C28.8079 36.8813 29.1134 37.2072 29.1134 37.5737C29.1134 37.9606 28.7875 38.2661 28.421 38.2661H24.0224C23.6355 38.2661 23.3301 37.9403 23.3301 37.5737C23.3301 37.1868 23.6355 36.8813 24.0224 36.8813Z" fill="#900740"/>
<defs>
<filter id="filter0_b_815_24862" x="0.817871" y="0.907959" width="101.66" height="101.66" filterUnits="userSpaceOnUse" color-interpolation-filters="sRGB">
<feFlood flood-opacity="0" result="BackgroundImageFix"/>
<feGaussianBlur in="BackgroundImage" stdDeviation="2"/>
<feComposite in2="SourceAlpha" operator="in" result="effect1_backgroundBlur_815_24862"/>
<feBlend mode="normal" in="SourceGraphic" in2="effect1_backgroundBlur_815_24862" result="shape"/>
</filter>
<filter id="filter1_d_815_24862" x="16.1748" y="25.2205" width="56.9199" height="56.5" filterUnits="userSpaceOnUse" color-interpolation-filters="sRGB">
<feFlood flood-opacity="0" result="BackgroundImageFix"/>
<feColorMatrix in="SourceAlpha" type="matrix" values="0 0 0 0 0 0 0 0 0 0 0 0 0 0 0 0 0 0 127 0" result="hardAlpha"/>
<feOffset dy="2"/>
<feGaussianBlur stdDeviation="2"/>
<feComposite in2="hardAlpha" operator="out"/>
<feColorMatrix type="matrix" values="0 0 0 0 0 0 0 0 0 0 0 0 0 0 0 0 0 0 0.25 0"/>
<feBlend mode="normal" in2="BackgroundImageFix" result="effect1_dropShadow_815_24862"/>
<feBlend mode="normal" in="SourceGraphic" in2="effect1_dropShadow_815_24862" result="shape"/>
</filter>
<linearGradient id="paint0_linear_815_24862" x1="51.6479" y1="-7.32446" x2="51.6479" y2="98.5475" gradientUnits="userSpaceOnUse">
<stop offset="0.203125" stop-color="white"/>
<stop offset="0.630208" stop-color="#F4F3F5"/>
<stop offset="1" stop-color="#E8E6DF"/>
</linearGradient>
<linearGradient id="paint1_linear_815_24862" x1="55.1245" y1="100.676" x2="56.8745" y2="-42.8245" gradientUnits="userSpaceOnUse">
<stop offset="0.203125" stop-color="white"/>
<stop offset="0.630208" stop-color="#F4F3F5"/>
<stop offset="1" stop-color="#E8E6DF"/>
</linearGradient>
<linearGradient id="paint2_linear_815_24862" x1="37.3745" y1="-54.8245" x2="48.3745" y2="126.676" gradientUnits="userSpaceOnUse">
<stop stop-color="#FE90BE"/>
<stop offset="0.255208" stop-color="#D68DC2"/>
<stop offset="0.609375" stop-color="#007ED8"/>
<stop offset="0.931465" stop-color="#002D4C"/>
</linearGradient>
</defs>
</svg>
