<svg width="181" height="191" viewBox="0 0 181 191" fill="none" xmlns="http://www.w3.org/2000/svg">
<path d="M90.7479 189.823C93.8297 189.818 96.8505 188.963 99.478 187.353L161.478 149.693C164.265 147.933 166.555 145.489 168.131 142.594C169.706 139.699 170.514 136.449 170.478 133.153V58.4427C170.511 55.1474 169.702 51.8981 168.127 49.0034C166.552 46.1087 164.263 43.6645 161.478 41.9027L99.478 4.24268C96.8439 2.65729 93.8274 1.81958 90.7529 1.81958C87.6785 1.81958 84.6621 2.65729 82.028 4.24268L20.028 41.9227C17.2416 43.6831 14.9519 46.1269 13.3766 49.022C11.8013 51.917 10.9927 55.1669 11.028 58.4626V133.163C11.0095 135.945 11.5841 138.7 12.7135 141.244C13.8429 143.787 15.5012 146.06 17.578 147.913V147.913L81.988 187.343C84.625 188.958 87.6556 189.816 90.7479 189.823V189.823ZM91.398 8.82275C93.398 8.82275 95.828 10.0326 97.538 11.0826L158.298 48.2727C162.048 50.5527 164.168 57.1527 164.168 61.9027L163.538 133.203C163.538 137.953 160.338 142.203 156.538 144.503L96.1379 180.883C92.7079 182.973 89.918 182.973 86.478 180.883L25.268 144.413C21.518 142.133 18.4979 137.933 18.4979 133.203V59.5127C18.5298 57.1469 19.1385 54.8247 20.2712 52.7474C21.404 50.6702 23.0264 48.9007 24.9979 47.5927L85.578 11.0327C87.328 9.99271 89.448 8.77271 91.398 8.77271V8.82275Z" fill="url(#paint0_linear_862_9941)"/>
<path fill-rule="evenodd" clip-rule="evenodd" d="M98.648 12.3536C96.2752 10.8836 93.5393 10.1047 90.748 10.1047C87.9567 10.1047 85.2209 10.8836 82.8481 12.3536L26.7181 46.6837C24.1914 48.2951 22.1183 50.5252 20.6955 53.1626C19.2726 55.8 18.5473 58.7572 18.5881 61.7537V129.854C18.5482 132.85 19.2741 135.807 20.6968 138.444C22.1196 141.081 24.1921 143.312 26.7181 144.924L82.8481 179.254C85.2209 180.724 87.9567 181.503 90.748 181.503C93.5393 181.503 96.2752 180.724 98.648 179.254L154.778 144.924C157.303 143.31 159.374 141.08 160.797 138.443C162.219 135.806 162.946 132.85 162.908 129.854V61.7537C162.946 58.7577 162.219 55.8016 160.797 53.1647C159.374 50.5278 157.303 48.2972 154.778 46.6837L98.648 12.3536Z" fill="url(#paint1_linear_862_9941)"/>
<path d="M23.058 121.003L32.288 126.293L23.1379 131.553L18.538 128.913V129.443L22.698 131.833L19.0179 133.953L19.158 134.383L23.158 132.093L32.348 137.373L23.228 142.613L21.578 141.663L21.788 142.293L90.298 181.893L90.728 181.603L81.3979 176.223L90.668 170.893L99.868 176.173L100.278 175.893L91.1279 170.623L100.358 165.313L109.718 170.683L109.948 170.273L100.828 165.053L109.948 159.813L119.188 165.123L119.518 164.763L110.418 159.533L119.618 154.253L128.808 159.533L129.348 159.323L120.058 153.993L129.288 148.693L138.428 153.943L138.968 153.733L129.738 148.433L138.878 143.173L148.028 148.433L148.558 148.223L139.328 142.923L148.558 137.613L157.648 142.843L158.178 142.633L148.998 137.363L158.178 132.083L162.868 134.773V134.283L158.598 131.823L163.138 129.213V128.683L158.138 131.573L148.968 126.303L158.228 120.973L163.408 123.973V123.463L120.108 98.4634L100.848 87.3434L100.658 87.2734L91.2679 81.8534L90.838 81.5735L19.058 122.793V123.333L23.058 121.003ZM23.588 131.813L32.728 126.543L41.948 131.833L32.778 137.103L23.588 131.813ZM81.418 131.813L90.6479 126.513L99.788 131.753L90.558 137.063L81.418 131.813ZM90.118 137.323L80.908 142.613L71.7679 137.363L80.978 132.073L90.118 137.323ZM91.118 126.253L100.268 120.993L109.398 126.243L100.248 131.503L91.118 126.253ZM90.668 125.993L81.438 120.693L90.598 115.433L99.828 120.733L90.668 125.993ZM90.228 126.253L80.9979 131.553L71.7679 126.253L80.9979 120.953L90.228 126.253ZM80.548 131.813L71.338 137.103L62.108 131.803L71.318 126.513L80.548 131.813ZM70.8779 137.373L61.728 142.633L52.488 137.333L61.6479 132.063L70.8779 137.373ZM71.328 137.623L80.468 142.873L71.328 148.133L62.168 142.883L71.328 137.623ZM80.908 143.133L90.1379 148.433L81.0079 153.683L71.7679 148.393L80.908 143.133ZM81.3779 142.863L90.578 137.573L99.808 142.873L90.608 148.173L81.3779 142.863ZM91.028 137.323L100.248 132.013L109.478 137.313L100.258 142.623L91.028 137.323ZM100.698 131.753L109.848 126.493L119.078 131.803L109.928 137.063L100.698 131.753ZM110.288 126.243L119.518 120.933L128.748 126.243L119.518 131.543L110.288 126.243ZM109.848 125.983L100.718 120.733L109.948 115.433L119.068 120.683L109.848 125.983ZM100.268 120.483L91.038 115.173L100.268 109.873L109.498 115.173L100.268 120.483ZM90.598 114.923L81.438 109.653L90.668 104.353L99.828 109.613L90.598 114.923ZM90.1479 115.173L80.9979 120.443L71.828 115.173L80.988 109.913L90.1479 115.173ZM80.548 120.693L71.318 125.993L62.158 120.733L71.3879 115.433L80.548 120.693ZM70.8779 126.253L61.658 131.553L52.4979 126.283L61.708 120.993L70.8779 126.253ZM61.208 131.813L52.038 137.073L42.868 131.813L52.058 126.513L61.208 131.813ZM51.578 137.343L42.408 142.613L33.2479 137.343L42.408 132.083L51.578 137.343ZM52.028 137.593L61.2679 142.893L52.078 148.173L42.848 142.873L52.028 137.593ZM61.708 143.153L70.858 148.403L61.658 153.693L52.5179 148.433L61.708 143.153ZM71.308 148.653L80.538 153.953L71.328 159.253L62.108 153.943L71.308 148.653ZM80.988 154.213L90.2679 159.533L81.048 164.833L71.778 159.503L80.988 154.213ZM81.458 153.943L90.588 148.693L99.858 154.023L90.738 159.263L81.458 153.943ZM91.048 148.423L100.258 143.133L109.528 148.463L100.328 153.753L91.048 148.423ZM100.698 142.873L109.928 137.573L119.198 142.903L109.968 148.203L100.698 142.873ZM110.368 137.313L119.518 132.053L128.788 137.383L119.648 142.643L110.368 137.313ZM119.968 131.803L129.188 126.493L138.468 131.823L129.238 137.123L119.968 131.803ZM129.638 126.243L138.808 120.963L148.088 126.293L138.908 131.563L129.638 126.243ZM129.188 125.983L119.968 120.683L129.138 115.403L138.368 120.713L129.188 125.983ZM119.518 120.423L110.388 115.173L119.558 109.903L128.688 115.153L119.518 120.423ZM109.948 114.923L100.718 109.613L109.888 104.353L119.118 109.653L109.948 114.923ZM100.268 109.363L91.108 104.093L100.278 98.8334L109.438 104.093L100.268 109.363ZM90.668 103.843L81.3979 98.5134L90.548 93.2434L99.828 98.5735L90.668 103.843ZM90.218 104.093L80.988 109.403L71.738 104.083L80.958 98.7734L90.218 104.093ZM80.548 109.653L71.3879 114.923L62.1479 109.613L71.298 104.343L80.548 109.653ZM70.938 115.173L61.708 120.473L52.478 115.173L61.698 109.863L70.938 115.173ZM61.2679 120.733L52.048 126.033L42.828 120.733L52.038 115.433L61.2679 120.733ZM51.598 126.293L42.428 131.563L33.208 126.273L42.3779 120.993L51.598 126.293ZM23.598 142.863L32.718 137.623L41.8779 142.883L32.738 148.143L23.598 142.863ZM33.178 148.403L42.328 143.143L51.548 148.443L42.3779 153.713L33.178 148.403ZM42.828 153.973L51.9979 148.703L61.1479 153.953L51.948 159.243L42.828 153.973ZM52.3979 159.503L61.588 154.213L70.818 159.513L61.598 164.813L52.3979 159.503ZM62.048 165.073L71.2679 159.773L80.538 165.103L71.298 170.413L62.048 165.073ZM80.8779 175.953L71.738 170.673L80.988 165.353L90.1479 170.623L80.8779 175.953ZM90.598 170.363L81.438 165.093L90.668 159.793L99.838 165.053L90.598 170.363ZM100.308 164.783L91.1279 159.523L100.258 154.273L109.418 159.543L100.308 164.783ZM109.888 159.273L100.728 154.003L109.918 148.713L119.088 153.983L109.888 159.273ZM119.538 153.723L110.368 148.463L119.598 143.153L128.758 148.423L119.538 153.723ZM129.208 148.163L120.038 142.903L129.188 137.643L138.358 142.913L129.208 148.163ZM138.798 142.653L129.638 137.383L138.858 132.083L148.028 137.353L138.798 142.653ZM157.648 131.813L148.478 137.093L139.308 131.823L148.478 126.543L157.648 131.813ZM157.738 120.713L148.478 126.033L139.208 120.703L148.488 115.363L157.738 120.713ZM148.048 115.113L138.758 120.453L129.528 115.153L138.838 109.793L148.048 115.113ZM138.398 109.543L129.088 114.893L119.958 109.653L129.298 104.283L138.398 109.543ZM128.848 104.023L119.508 109.393L110.278 104.093L119.648 98.7134L128.848 104.023ZM119.198 98.4534L109.838 103.833L100.668 98.5735L110.058 93.1835L119.198 98.4534ZM109.618 92.9235L100.228 98.3135L90.948 92.9934L100.348 87.5735L109.618 92.9235ZM90.808 82.0635L99.908 87.3135L90.4979 92.7334L81.358 87.4834L90.808 82.0635ZM80.918 87.7434L90.058 92.9934L80.908 98.2634L71.7579 93.0034L80.918 87.7434ZM71.308 93.2534L80.458 98.5134L71.238 103.823L62.078 98.5635L71.308 93.2534ZM61.6279 98.8135L70.798 104.083L61.6479 109.353L52.468 104.083L61.6279 98.8135ZM52.028 104.333L61.198 109.613L51.988 114.913L42.788 109.633L52.028 104.333ZM42.348 109.893L51.538 115.173L42.328 120.473L33.1279 115.193L42.348 109.893ZM32.678 115.443L41.8779 120.733L32.708 126.023L23.478 120.723L32.678 115.443Z" fill="white"/>
<path fill-rule="evenodd" clip-rule="evenodd" d="M91.178 11.5735C92.858 11.5735 94.748 12.4435 96.808 13.6935L155.288 49.2334C157.18 50.4464 158.73 52.1234 159.791 54.1049C160.852 56.0863 161.388 58.3063 161.348 60.5535V131.033C161.387 133.28 160.85 135.5 159.79 137.481C158.729 139.463 157.179 141.14 155.288 142.353L96.818 177.893C95.2105 179.15 93.2286 179.833 91.188 179.833C89.1474 179.833 87.1655 179.15 85.558 177.893L27.058 142.363C25.2754 141.41 23.7517 140.037 22.6181 138.363C21.6181 136.763 20.998 134.543 20.998 131.083V60.6034C20.9582 58.3562 21.4944 56.1364 22.5551 54.1549C23.6158 52.1735 25.1659 50.4964 27.058 49.2834L85.518 13.7434C87.628 12.4534 89.488 11.5735 91.178 11.5735ZM98.888 181.323L157.358 145.783C159.841 144.216 161.879 142.037 163.28 139.457C164.681 136.876 165.396 133.979 165.358 131.043V60.5635C165.396 57.6275 164.681 54.7309 163.28 52.1503C161.879 49.5697 159.841 47.3914 157.358 45.8235L98.888 10.2834C96.778 9.00345 94.068 7.57349 91.178 7.57349C88.288 7.57349 85.5681 9.01344 83.4781 10.2734L25.008 45.8235C22.5254 47.3914 20.4866 49.5697 19.086 52.1503C17.6854 54.7309 16.9699 57.6275 17.008 60.5635V131.043C16.8557 134.307 17.6177 137.549 19.208 140.403C20.6631 142.642 22.6486 144.487 24.9881 145.773L83.448 181.313C85.6828 182.961 88.3864 183.85 91.163 183.85C93.9396 183.85 96.6432 182.961 98.878 181.313L98.888 181.323Z" fill="url(#paint2_linear_862_9941)"/>
<path fill-rule="evenodd" clip-rule="evenodd" d="M139.468 99.7891L152.248 107.116L151.85 107.81L139.07 100.483L139.468 99.7891Z" fill="#78787D"/>
<path fill-rule="evenodd" clip-rule="evenodd" d="M139.468 108.914L152.248 116.241L151.85 116.935L139.07 109.608L139.468 108.914Z" fill="#78787D"/>
<path fill-rule="evenodd" clip-rule="evenodd" d="M139.468 118.414L152.248 125.741L151.85 126.435L139.07 119.108L139.468 118.414Z" fill="#78787D"/>
<path d="M156.984 115.377C157.249 115.548 157.471 115.779 157.63 116.053C157.789 116.326 157.881 116.632 157.898 116.948V122.726C157.898 123.3 157.483 123.557 156.976 123.241L148.77 118.511C148.506 118.337 148.286 118.103 148.129 117.829C147.971 117.555 147.88 117.247 147.864 116.931V111.112C147.864 110.538 148.271 110.28 148.77 110.596L156.984 115.377Z" fill="#1B93EB"/>
<path d="M148.762 120.265L156.984 125.012C157.247 125.185 157.466 125.418 157.623 125.691C157.781 125.963 157.872 126.269 157.89 126.584V132.403C157.89 132.977 157.483 133.235 156.976 132.919L148.77 128.18C148.505 128.008 148.285 127.776 148.128 127.503C147.97 127.23 147.88 126.923 147.864 126.609V120.831C147.864 120.215 148.263 119.991 148.762 120.265Z" fill="#1F56A3"/>
<path d="M156.984 105.782C157.25 105.953 157.471 106.185 157.63 106.458C157.789 106.731 157.881 107.038 157.898 107.354V113.173C157.898 113.747 157.483 114.005 156.984 113.689L148.778 108.958C148.512 108.783 148.291 108.549 148.132 108.273C147.973 107.997 147.881 107.688 147.864 107.37V101.601C147.864 101.027 148.271 100.769 148.778 101.085L156.984 105.782Z" fill="#50E6FF"/>
<path fill-rule="evenodd" clip-rule="evenodd" d="M112.289 52.5647L126.08 60.5285L125.68 61.2213L111.889 53.2575L112.289 52.5647Z" fill="#78787D"/>
<path fill-rule="evenodd" clip-rule="evenodd" d="M112.259 62.8223L126.04 70.786L125.639 71.4787L111.859 63.5149L112.259 62.8223Z" fill="#78787D"/>
<path fill-rule="evenodd" clip-rule="evenodd" d="M112.229 68.8694L126.009 76.8231L125.609 77.516L111.829 69.5623L112.229 68.8694Z" fill="#78787D"/>
<path fill-rule="evenodd" clip-rule="evenodd" d="M112.229 74.4453L126.009 82.399L125.609 83.0919L111.829 75.1382L112.229 74.4453Z" fill="#78787D"/>
<path d="M125.779 110.902L111.988 102.949" stroke="#78787D" stroke-width="0.8" stroke-miterlimit="10"/>
<path d="M125.779 104.539L111.988 96.5854" stroke="#78787D" stroke-width="0.8" stroke-miterlimit="10"/>
<path d="M130.663 114.995L130.663 111.858L121.433 106.793L121.433 109.921L130.663 114.995Z" fill="#0178D4"/>
<path d="M121.433 73.2812L121.433 76.015L130.663 80.8572L130.663 78.1436L121.433 73.2812Z" fill="#31BBEE"/>
<path d="M121.433 100.593L121.433 103.327L130.663 108.29L130.663 105.576L121.433 100.593Z" fill="#189AE2"/>
<path d="M121.433 78.769L121.433 81.5835L130.663 86.3147L130.663 83.6011L121.433 78.769Z" fill="#26ADE9"/>
<path d="M130.663 75.2178L130.663 72.0805L121.433 67.0164L121.433 70.1436L130.663 75.2178Z" fill="#46D9FA"/>
<path d="M121.433 57.081L121.433 59.7946L130.663 64.7578L130.663 62.0442L121.433 57.081Z" fill="#4CE1FD"/>
<path d="M29.7269 95.8016L29.1023 74.9463L50.4056 84.3291L47.8548 105.555L29.7269 95.8016Z" fill="url(#paint3_linear_862_9941)"/>
<path d="M29.1032 74.9745L41.2035 67.579L59.5844 77.3249L47.2386 84.9809L29.1032 74.9745Z" fill="#FFEEA2"/>
<path d="M47.2668 84.9799L59.6126 77.3239L60.2296 97.9263L47.8838 105.582L47.2668 84.9799V84.9799Z" fill="url(#paint4_linear_862_9941)"/>
<path d="M86.2449 61.2445L76.2195 120.825L57.8387 111.079L56.5259 58.7927L86.2449 61.2445Z" fill="url(#paint5_linear_862_9941)"/>
<path d="M74.9074 68.5668L87.0002 60.9184L88.3121 113.177L76.2193 120.825L74.9074 68.5668Z" fill="url(#paint6_linear_862_9941)"/>
<path d="M56.5251 58.7931L68.6179 51.1447L86.9988 60.8906L74.906 68.539L56.5251 58.7931Z" fill="#F8DE6E"/>
<path d="M114.27 49.6577L105.096 136.305L86.7151 126.56L84.5908 47.178L114.27 49.6577Z" fill="url(#paint7_linear_862_9941)"/>
<path d="M102.72 56.9315L115.073 49.5285L117.189 128.629L105.096 136.277L102.72 56.9315Z" fill="url(#paint8_linear_862_9941)"/>
<path d="M84.5903 47.1498L96.6831 39.5014L115.072 49.5002L102.718 56.9032L84.5903 47.1498Z" fill="#F1CA3D"/>
<path d="M115.071 141.521L127.171 134.125L145.552 143.871L133.206 151.527L115.071 141.521Z" fill="#32B0E7"/>
<path d="M113.687 95.3124L126.033 87.6564L127.171 134.125L115.071 141.52L113.687 95.3124V95.3124Z" fill="#1D4A79"/>
<path d="M140.966 101.35L133.206 151.527L115.043 141.521L113.659 95.3135L140.966 101.35Z" fill="url(#paint9_linear_862_9941)"/>
<path d="M113.687 95.3124L126.033 87.6564L144.161 97.4099L132.068 105.058L113.687 95.3124Z" fill="#E1AB28"/>
<path d="M132.067 105.058L144.16 97.4101L145.551 143.871L133.206 151.527L132.067 105.058Z" fill="url(#paint10_linear_862_9941)"/>
<path opacity="0.2" d="M68.5601 150.183L66.0702 151.428L28.0984 129.817L30.5884 128.572L68.5601 150.183Z" fill="#1F1D21"/>
<path d="M66.7119 106.694L66.6001 148.241C66.6001 148.927 66.3607 149.422 65.9617 149.645L68.2122 148.336C68.6113 148.113 68.8507 147.618 68.8507 146.932L68.9624 105.385L66.7119 106.694Z" fill="#D6D6D6"/>
<path d="M27.4338 84.0449L29.6843 82.7361L68.9649 105.385L66.7143 106.694L27.4338 84.0449Z" fill="#F2F1F0"/>
<path d="M66.7119 106.693L66.6002 148.24C66.6002 149.629 65.6106 150.188 64.4135 149.501L40.9505 135.95L34.1511 132.024L29.5064 129.342C28.3093 128.656 27.3356 126.964 27.3356 125.56L27.4314 84.0444L66.7119 106.693Z" fill="#F2F1F0"/>
<path d="M68.9626 104.587C68.9626 103.198 67.989 101.507 66.7759 100.804L31.8847 80.6612C31.2782 80.31 30.7195 80.2781 30.3205 80.5016L28.07 81.8104C28.469 81.571 29.0276 81.6188 29.6342 81.954L64.5254 102.097C65.7385 102.799 66.7121 104.491 66.7121 105.88C66.7121 106.311 66.744 106.662 66.7121 106.678L68.9626 105.369C68.9786 105.369 68.9626 105.018 68.9626 104.587Z" fill="#D6D6D6"/>
<path d="M64.5254 102.113C65.7384 102.815 66.7121 104.507 66.7121 105.896C66.7121 106.343 66.744 106.71 66.7121 106.694L27.4315 84.0132C27.4315 83.9972 27.4315 83.662 27.4315 83.2151C27.4315 81.8265 28.4211 81.2679 29.6342 81.9702L64.5254 102.113Z" fill="#F2F1F0"/>
<path d="M60.7073 109.275L60.6275 138.941C60.6275 139.431 60.4566 139.784 60.1717 139.944L61.7786 139.009C62.0635 138.85 62.2345 138.496 62.2345 138.006L62.3143 108.34L60.7073 109.275Z" fill="#D6D6D6"/>
<path d="M32.6617 93.1035L34.2686 92.1689L62.3161 108.341L60.7092 109.276L32.6617 93.1035Z" fill="#F2F1F0"/>
<path d="M60.7073 109.274L60.6275 138.94C60.6275 139.932 59.9209 140.331 59.0662 139.841L42.3129 130.165L37.4579 127.361L34.1414 125.446C33.2866 124.956 32.5914 123.748 32.5914 122.745L32.6598 93.1023L60.7073 109.274Z" fill="white"/>
<path d="M62.3143 107.77C62.3143 106.779 61.6191 105.571 60.753 105.069L35.8396 90.6866C35.4065 90.4358 35.0076 90.4131 34.7227 90.5726L33.1158 91.5071C33.4007 91.3362 33.7996 91.3704 34.2326 91.6097L59.146 105.992C60.0122 106.494 60.7074 107.702 60.7074 108.694C60.7074 109.001 60.7302 109.252 60.7074 109.263L62.3143 108.329C62.3257 108.329 62.3143 108.078 62.3143 107.77Z" fill="#D6D6D6"/>
<path d="M59.146 106.004C60.0122 106.506 60.7074 107.714 60.7074 108.705C60.7074 109.025 60.7302 109.287 60.7074 109.275L32.6599 93.0805C32.6599 93.0691 32.6599 92.8297 32.6599 92.5106C32.6599 91.5191 33.3665 91.1202 34.2327 91.6217L59.146 106.004Z" fill="white"/>
<path d="M40.6758 106.272L41.9964 108.547L37.6676 110.968L41.923 118.305L40.6024 119.112L35.0997 109.501L40.6758 106.272Z" fill="#137AD1"/>
<path d="M51.9745 112.729L57.5506 122.414L51.9012 125.569L50.5805 123.294L54.9093 120.873L50.6539 113.536L51.9745 112.729Z" fill="#137AD1"/>
<path d="M48.2327 114.857V119.112L44.4909 116.985V112.729L48.2327 114.857Z" fill="#50E6FF"/>
<defs>
<linearGradient id="paint0_linear_862_9941" x1="89.408" y1="188.393" x2="93.318" y2="-83.3274" gradientUnits="userSpaceOnUse">
<stop offset="0.2" stop-color="white"/>
<stop offset="0.63" stop-color="#F4F3F5"/>
<stop offset="1" stop-color="#E8E6DF"/>
</linearGradient>
<linearGradient id="paint1_linear_862_9941" x1="87.748" y1="19.8235" x2="90.748" y2="181.504" gradientUnits="userSpaceOnUse">
<stop offset="0.2" stop-color="white"/>
<stop offset="0.63" stop-color="#F4F3F5"/>
<stop offset="1" stop-color="#E8E6DF"/>
</linearGradient>
<linearGradient id="paint2_linear_862_9941" x1="94.0098" y1="-8.93066" x2="90.7826" y2="197.975" gradientUnits="userSpaceOnUse">
<stop offset="0.00520833" stop-color="#F8DF70"/>
<stop offset="0.192708" stop-color="#F2CC40"/>
<stop offset="0.583333" stop-color="#E7B116"/>
<stop offset="0.78125" stop-color="#E0A310"/>
<stop offset="0.942708" stop-color="#CA810E"/>
</linearGradient>
<linearGradient id="paint3_linear_862_9941" x1="39.7102" y1="76.6891" x2="38.2763" y2="97.6287" gradientUnits="userSpaceOnUse">
<stop stop-color="#F8E17B"/>
<stop offset="0.5302" stop-color="#F6D856"/>
<stop offset="1" stop-color="#F6D856"/>
</linearGradient>
<linearGradient id="paint4_linear_862_9941" x1="38.9564" y1="75.308" x2="65.3135" y2="93.1537" gradientUnits="userSpaceOnUse">
<stop offset="0.1181" stop-color="#F6EECF"/>
<stop offset="0.6156" stop-color="#F6D856"/>
<stop offset="1" stop-color="#EFC433"/>
</linearGradient>
<linearGradient id="paint5_linear_862_9941" x1="67.7638" y1="51.6359" x2="63.1935" y2="113.008" gradientUnits="userSpaceOnUse">
<stop offset="0.00753769" stop-color="#F2CC40"/>
<stop offset="1" stop-color="#E7B116"/>
</linearGradient>
<linearGradient id="paint6_linear_862_9941" x1="74.8671" y1="64.5342" x2="128.753" y2="107.492" gradientUnits="userSpaceOnUse">
<stop offset="0.0528" stop-color="#F6D856"/>
<stop offset="0.4447" stop-color="#EFC433"/>
<stop offset="0.8216" stop-color="#E0A310"/>
<stop offset="1" stop-color="#CA810E"/>
</linearGradient>
<linearGradient id="paint7_linear_862_9941" x1="78.9833" y1="49.2507" x2="130.396" y2="156.317" gradientUnits="userSpaceOnUse">
<stop offset="0.229167" stop-color="#E1B64F"/>
<stop offset="0.65625" stop-color="#E0A310"/>
<stop offset="1" stop-color="#D6930F"/>
</linearGradient>
<linearGradient id="paint8_linear_862_9941" x1="94.073" y1="25.3751" x2="168.131" y2="86.524" gradientUnits="userSpaceOnUse">
<stop offset="0.2739" stop-color="#EFC433"/>
<stop offset="0.691" stop-color="#E0A310"/>
<stop offset="1" stop-color="#CA810E"/>
</linearGradient>
<linearGradient id="paint9_linear_862_9941" x1="118.018" y1="97.144" x2="127.41" y2="150.598" gradientUnits="userSpaceOnUse">
<stop offset="0.00753769" stop-color="#E0A310"/>
<stop offset="1" stop-color="#CA810E"/>
</linearGradient>
<linearGradient id="paint10_linear_862_9941" x1="139.14" y1="47.6373" x2="151.17" y2="142.727" gradientUnits="userSpaceOnUse">
<stop offset="0.00753769" stop-color="#E0A310"/>
<stop offset="1" stop-color="#CA810E"/>
</linearGradient>
</defs>
</svg>
