<svg width="103" height="103" viewBox="0 0 103 103" fill="none" xmlns="http://www.w3.org/2000/svg">
<path d="M51.6572 98.4423C25.8072 98.4423 4.84717 77.4923 4.84717 51.6323C4.84717 25.7723 25.8072 4.82227 51.6572 4.82227C77.5072 4.82227 98.4672 25.7823 98.4672 51.6323C98.4672 77.4823 77.5072 98.4423 51.6572 98.4423Z" fill="url(#paint0_linear_530_93)"/>
<path fill-rule="evenodd" clip-rule="evenodd" d="M97.5571 51.6322C97.5571 76.9822 77.0071 97.5322 51.6571 97.5322C26.3071 97.5322 5.75709 76.9822 5.75709 51.6322C5.75709 26.2822 26.3071 5.73219 51.6571 5.73219C77.0071 5.73219 97.5571 26.2822 97.5571 51.6322ZM51.6571 1.99219C79.0771 1.99219 101.297 24.2122 101.297 51.6322C101.297 79.0522 79.0671 101.272 51.6571 101.272C24.2371 101.272 2.01709 79.0422 2.01709 51.6322C2.01709 24.2122 24.2371 1.99219 51.6571 1.99219Z" fill="#F2F1F0"/>
<path fill-rule="evenodd" clip-rule="evenodd" d="M94.7472 51.6322C94.7472 75.4322 75.4571 94.7222 51.6572 94.7222C27.8572 94.7222 8.56715 75.4322 8.56715 51.6322C8.56715 27.8322 27.8572 8.54225 51.6572 8.54225C75.4571 8.54225 94.7472 27.8322 94.7472 51.6322ZM51.6572 4.80225C77.5172 4.80225 98.4872 25.7722 98.4872 51.6322C98.4872 77.4922 77.5172 98.4623 51.6572 98.4623C25.7971 98.4623 4.82715 77.4922 4.82715 51.6322C4.82715 25.7722 25.7871 4.80225 51.6572 4.80225Z" fill="url(#paint1_linear_530_93)"/>
<g opacity="0.5">
<path d="M51.6569 87.5105C31.8432 87.5105 15.7788 71.4548 15.7788 51.6325C15.7788 31.8101 31.8432 15.7544 51.6569 15.7544C71.4705 15.7544 87.5349 31.8188 87.5349 51.6325C87.5349 71.4461 71.4705 87.5105 51.6569 87.5105Z" stroke="#50E6FF" stroke-width="0.8" stroke-miterlimit="10"/>
<path d="M51.6571 84.3338C33.5966 84.3338 18.9468 69.6927 18.9468 51.6235C18.9468 33.5543 33.5879 18.9219 51.6571 18.9219C69.7176 18.9219 84.3674 33.563 84.3674 51.6235C84.3587 69.6927 69.7176 84.3338 51.6571 84.3338Z" stroke="#45CAF2" stroke-width="0.8" stroke-miterlimit="10"/>
<path d="M51.6566 81.1145C35.3752 81.1145 22.1748 67.9228 22.1748 51.6327C22.1748 35.3426 35.3752 22.1509 51.6566 22.1509C67.938 22.1509 81.1384 35.3513 81.1384 51.6327C81.1384 67.9141 67.938 81.1145 51.6566 81.1145Z" stroke="#32B0E7" stroke-width="0.8" stroke-miterlimit="10"/>
<path d="M51.657 78.1636C37.0072 78.1636 25.126 66.291 25.126 51.6326C25.126 36.9741 37.0072 25.1016 51.657 25.1016C66.3068 25.1016 78.188 36.9828 78.188 51.6326C78.188 66.2824 66.3068 78.1636 51.657 78.1636Z" stroke="#2195DC" stroke-width="0.8" stroke-miterlimit="10"/>
<path d="M51.657 75.317C38.5781 75.317 27.9727 64.7202 27.9727 51.6326C27.9727 38.545 38.5781 27.9482 51.657 27.9482C64.736 27.9482 75.3414 38.5537 75.3414 51.6326C75.3414 64.7115 64.736 75.317 51.657 75.317Z" stroke="#0078D4" stroke-width="0.8" stroke-miterlimit="10"/>
<path d="M51.6569 72.3661C40.2096 72.3661 30.9233 63.0885 30.9233 51.6325C30.9233 40.1765 40.2096 30.8989 51.6569 30.8989C63.1043 30.8989 72.3905 40.1852 72.3905 51.6325C72.3905 63.0798 63.1043 72.3661 51.6569 72.3661Z" stroke="#185A97" stroke-width="0.8" stroke-miterlimit="10"/>
<path d="M51.6566 69.0857C42.0145 69.0857 34.2036 61.2748 34.2036 51.6327C34.2036 41.9906 42.0145 34.1797 51.6566 34.1797C61.2988 34.1797 69.1097 41.9906 69.1097 51.6327C69.1097 61.2662 61.2901 69.0857 51.6566 69.0857Z" stroke="#1D4A79" stroke-width="0.8" stroke-miterlimit="10"/>
<path d="M51.657 64.3292C44.6446 64.3292 38.96 58.6446 38.96 51.6321C38.96 44.6197 44.6446 38.9351 51.657 38.9351C58.6695 38.9351 64.3541 44.6197 64.3541 51.6321C64.3541 58.6446 58.6695 64.3292 51.657 64.3292Z" stroke="#243A5E" stroke-width="0.8" stroke-miterlimit="10"/>
</g>
<path d="M24.91 65.9342C22.3747 65.9369 19.9331 64.9779 18.077 63.2508C16.221 61.5237 15.0885 59.157 14.9089 56.628C14.7294 54.0991 15.5162 51.596 17.1096 49.624C18.703 47.652 20.9848 46.3577 23.4951 46.0022C23.0878 44.384 22.8786 42.7224 22.8717 41.0538C22.8764 36.5804 24.3755 32.2371 27.131 28.7129C29.8864 25.1888 33.7399 22.6858 38.0801 21.6021C42.4204 20.5185 46.9983 20.916 51.0869 22.7314C55.1755 24.5468 58.5404 27.6762 60.6472 31.6225C62.3784 30.7848 64.2755 30.3484 66.1987 30.3458C69.5262 30.351 72.7161 31.6746 75.0699 34.0266C77.4237 36.3786 78.7501 39.5675 78.758 42.895C78.7497 43.9357 78.6206 44.9716 78.3723 45.9824C78.7503 45.9414 79.1298 45.9251 79.5099 45.9331C80.8228 45.9186 82.1254 46.1654 83.3419 46.6594C84.5585 47.1533 85.6648 47.8846 86.5961 48.8103C87.5273 49.7359 88.2655 50.8377 88.7668 52.0513C89.268 53.2649 89.5224 54.566 89.5158 55.879C89.5131 58.5414 88.4535 61.0941 86.57 62.9758C84.6864 64.8575 82.1327 65.9144 79.4703 65.9144L24.91 65.9342Z" fill="url(#paint2_linear_530_93)"/>
<path opacity="0.6" d="M24.9105 65.9342C22.3752 65.9369 19.9336 64.9779 18.0775 63.2508C16.2215 61.5237 15.089 59.157 14.9094 56.628C14.7299 54.0991 15.5167 51.596 17.1101 49.624C18.7035 47.652 20.9853 46.3577 23.4956 46.0022C23.0883 44.384 22.8791 42.7224 22.8722 41.0538C22.8769 36.5804 24.376 32.2371 27.1314 28.7129C29.8869 25.1888 33.7404 22.6858 38.0806 21.6021C42.4208 20.5185 46.9988 20.916 51.0874 22.7314C55.176 24.5468 58.5409 27.6762 60.6477 31.6225C62.3789 30.7848 64.276 30.3484 66.1992 30.3458C69.5267 30.351 72.7166 31.6746 75.0704 34.0266C77.4242 36.3786 78.7506 39.5675 78.7585 42.895C78.7502 43.9357 78.6211 44.9716 78.3728 45.9824C78.7507 45.9414 79.1303 45.9251 79.5104 45.9331C80.8233 45.9186 82.1259 46.1654 83.3424 46.6594C84.559 47.1533 85.6653 47.8846 86.5965 48.8103C87.5278 49.7359 88.266 50.8377 88.7672 52.0513C89.2685 53.2649 89.5229 54.566 89.5163 55.879C89.5136 58.5414 88.454 61.0941 86.5705 62.9758C84.6869 64.8575 82.1332 65.9144 79.4707 65.9144L24.9105 65.9342Z" fill="url(#paint3_linear_530_93)"/>
<path d="M24.9105 65.9342C22.3752 65.9369 19.9336 64.9779 18.0775 63.2508C16.2215 61.5237 15.089 59.157 14.9094 56.628C14.7299 54.0991 15.5167 51.596 17.1101 49.624C18.7035 47.652 20.9853 46.3577 23.4956 46.0022C23.0883 44.384 22.8791 42.7224 22.8722 41.0538C22.8769 36.5804 24.376 32.2371 27.1314 28.7129C29.8869 25.1888 33.7404 22.6858 38.0806 21.6021C42.4208 20.5185 46.9988 20.916 51.0874 22.7314C55.176 24.5468 58.5409 27.6762 60.6477 31.6225C62.3789 30.7848 64.276 30.3484 66.1992 30.3458C69.5267 30.351 72.7166 31.6746 75.0704 34.0266C77.4242 36.3786 78.7506 39.5675 78.7585 42.895C78.7502 43.9357 78.6211 44.9716 78.3728 45.9824C78.7507 45.9414 79.1303 45.9251 79.5104 45.9331C80.8233 45.9186 82.1259 46.1654 83.3424 46.6594C84.559 47.1533 85.6653 47.8846 86.5965 48.8103C87.5278 49.7359 88.266 50.8377 88.7672 52.0513C89.2685 53.2649 89.5229 54.566 89.5163 55.879C89.5136 58.5414 88.454 61.0941 86.5705 62.9758C84.6869 64.8575 82.1332 65.9144 79.4707 65.9144L24.9105 65.9342Z" stroke="white" stroke-width="1.2" stroke-miterlimit="10" stroke-linejoin="round"/>
<path opacity="0.15" d="M74.8343 38.4844H49.2148V75.7454H74.8343V38.4844Z" fill="#1F1D20"/>
<path d="M74.8343 36.5044H49.2148V73.7654H74.8343V36.5044Z" fill="url(#paint4_linear_530_93)"/>
<path d="M70.1717 41.167H53.8774V48.146H70.1816V41.167H70.1717Z" fill="white"/>
<path d="M56.2038 52.8086H53.8774V55.1349H56.2038V52.8086Z" fill="#2BC0E4"/>
<path d="M56.2038 59.7876H53.8774V62.1139H56.2038V59.7876Z" fill="#057DD8"/>
<path d="M56.2038 66.7861H53.8774V69.1125H56.2038V66.7861Z" fill="#2056A3"/>
<path d="M63.1926 52.8086H60.8662V55.1349H63.1926V52.8086Z" fill="#2BC0E4"/>
<path d="M63.1926 59.7876H60.8662V62.1139H63.1926V59.7876Z" fill="#057DD8"/>
<path d="M63.1926 66.7861H60.8662V69.1125H63.1926V66.7861Z" fill="#2056A3"/>
<path d="M70.1716 52.8086H67.8452V55.1349H70.1716V52.8086Z" fill="#2BC0E4"/>
<path d="M70.1716 59.7876H67.8452V62.1139H70.1716V59.7876Z" fill="#057DD8"/>
<path d="M70.1716 66.7861H67.8452V69.1125H70.1716V66.7861Z" fill="#2056A3"/>
<path opacity="0.15" d="M43.8046 75.1715C47.2261 75.1715 50.5691 74.157 53.4139 72.2561C56.2587 70.3553 58.4777 67.6523 59.787 64.4913C61.0963 61.3303 61.4371 57.8534 60.7696 54.4977C60.1021 51.142 58.4556 48.0594 56.0363 45.6401C53.617 43.2208 50.536 41.5727 47.1803 40.9052C43.8246 40.2377 40.3446 40.5801 37.1836 41.8894C34.0226 43.1987 31.3226 45.4161 29.4218 48.2609C27.5209 51.1058 26.5049 54.4503 26.5049 57.8717C26.5007 60.1447 26.9451 62.3967 27.813 64.4975C28.6809 66.5982 29.9565 68.507 31.5637 70.1142C33.1709 71.7214 35.0798 72.9955 37.1805 73.8634C39.2812 74.7313 41.5317 75.1757 43.8046 75.1715V75.1715Z" fill="#1F1D20"/>
<path d="M43.8046 73.6162C47.2274 73.6162 50.5715 72.6016 53.417 70.6993C56.2625 68.797 58.4817 66.0926 59.7901 62.9298C61.0985 59.7669 61.4397 56.2865 60.7696 52.93C60.0995 49.5734 58.4464 46.492 56.0239 44.074C53.6014 41.6559 50.5164 40.0107 47.1586 39.3468C43.8008 38.6829 40.3223 39.0292 37.1619 40.3434C34.0014 41.6576 31.3033 43.8799 29.4063 46.7289C27.5093 49.5779 26.4986 52.9262 26.5049 56.349C26.5007 58.6204 26.9447 60.8711 27.813 62.9701C28.6813 65.069 29.9561 66.9744 31.5637 68.5791C33.1713 70.1837 35.0799 71.4545 37.1805 72.3189C39.281 73.1833 41.5332 73.6245 43.8046 73.6162V73.6162Z" fill="white"/>
<path d="M52.4077 63.3633C52.1519 61.2619 51.1345 59.3267 49.5497 57.9232C47.965 56.5196 45.9228 55.7456 43.8059 55.7456C41.689 55.7456 39.6437 56.5196 38.0589 57.9232C36.4742 59.3267 35.4598 61.2619 35.2041 63.3633C35.1735 63.6693 35.1735 63.9778 35.2041 64.2839C35.3515 64.9739 35.656 65.6206 36.0968 66.1716C36.5376 66.7226 37.1019 67.1627 37.7428 67.458C39.6437 68.4128 41.7406 68.9103 43.8679 68.9103C45.9952 68.9103 48.0951 68.4128 49.9961 67.458C50.6339 67.163 51.1909 66.7215 51.6266 66.1701C52.0622 65.6186 52.3644 64.9727 52.5038 64.2839C52.5172 63.974 52.4842 63.6638 52.4077 63.3633V63.3633Z" fill="url(#paint5_linear_530_93)"/>
<path d="M43.8045 54.477C44.825 54.4645 45.82 54.1495 46.6625 53.5734C47.5049 52.9974 48.156 52.1857 48.5378 51.2393C48.9197 50.2929 49.0143 49.2537 48.8075 48.2542C48.6008 47.2548 48.1015 46.3398 47.3754 45.6226C46.6494 44.9053 45.7301 44.4191 44.7282 44.2246C43.7264 44.03 42.688 44.1349 41.7463 44.5283C40.8046 44.9217 39.9996 45.5853 39.4338 46.4347C38.8681 47.2841 38.566 48.2814 38.5659 49.302C38.5701 49.9856 38.7096 50.662 38.9751 51.292C39.2405 51.922 39.6264 52.4932 40.1127 52.9736C40.599 53.4541 41.1751 53.8349 41.8083 54.0926C42.4414 54.3504 43.1209 54.4812 43.8045 54.477V54.477Z" fill="url(#paint6_linear_530_93)"/>
<defs>
<linearGradient id="paint0_linear_530_93" x1="49.8833" y1="-13.1572" x2="53.8653" y2="132.613" gradientUnits="userSpaceOnUse">
<stop stop-color="#00ABDE"/>
<stop offset="1" stop-color="#007ED8"/>
</linearGradient>
<linearGradient id="paint1_linear_530_93" x1="3.08755" y1="-19.9904" x2="98.6151" y2="120.891" gradientUnits="userSpaceOnUse">
<stop stop-color="#007ED8"/>
<stop offset="0.7065" stop-color="#002D4C"/>
</linearGradient>
<linearGradient id="paint2_linear_530_93" x1="52.1998" y1="21.0044" x2="52.1998" y2="65.9341" gradientUnits="userSpaceOnUse">
<stop stop-color="#00ABDE"/>
<stop offset="1" stop-color="#007ED8"/>
</linearGradient>
<linearGradient id="paint3_linear_530_93" x1="50.5529" y1="-10.4485" x2="52.5224" y2="69.4772" gradientUnits="userSpaceOnUse">
<stop offset="0.57" stop-color="white" stop-opacity="0"/>
<stop offset="0.78" stop-color="white" stop-opacity="0.43"/>
<stop offset="0.9" stop-color="white" stop-opacity="0.5"/>
<stop offset="1" stop-color="white"/>
</linearGradient>
<linearGradient id="paint4_linear_530_93" x1="31.5907" y1="25.2659" x2="43.0735" y2="81.0391" gradientUnits="userSpaceOnUse">
<stop stop-color="#007ED8"/>
<stop offset="0.886694" stop-color="#002D4C"/>
</linearGradient>
<linearGradient id="paint5_linear_530_93" x1="43.8439" y1="55.7456" x2="43.8439" y2="68.9103" gradientUnits="userSpaceOnUse">
<stop stop-color="#008BF1"/>
<stop offset="0.22" stop-color="#0086EC"/>
<stop offset="0.49" stop-color="#0078DD"/>
<stop offset="0.79" stop-color="#0061C4"/>
<stop offset="1" stop-color="#004DAE"/>
</linearGradient>
<linearGradient id="paint6_linear_530_93" x1="43.7402" y1="44.1294" x2="43.7402" y2="54.4771" gradientUnits="userSpaceOnUse">
<stop stop-color="#008BF1"/>
<stop offset="0.22" stop-color="#0086EC"/>
<stop offset="0.49" stop-color="#0078DD"/>
<stop offset="0.79" stop-color="#0061C4"/>
<stop offset="1" stop-color="#004DAE"/>
</linearGradient>
</defs>
</svg>
