<svg width="103" height="103" viewBox="0 0 103 103" fill="none" xmlns="http://www.w3.org/2000/svg">
<path d="M51.9814 98.2411C26.1314 98.2411 5.17139 77.2911 5.17139 51.4311C5.17139 25.5711 26.1314 4.62109 51.9814 4.62109C77.8314 4.62109 98.7914 25.5811 98.7914 51.4311C98.7914 77.2811 77.8314 98.2411 51.9814 98.2411Z" fill="url(#paint0_linear_653_25854)"/>
<path fill-rule="evenodd" clip-rule="evenodd" d="M97.8813 51.431C97.8813 76.781 77.3313 97.331 51.9813 97.331C26.6313 97.331 6.08131 76.781 6.08131 51.431C6.08131 26.081 26.6313 5.53102 51.9813 5.53102C77.3313 5.53102 97.8813 26.081 97.8813 51.431ZM51.9813 1.79102C79.4013 1.79102 101.621 24.011 101.621 51.431C101.621 78.851 79.3913 101.071 51.9813 101.071C24.5613 101.071 2.34131 78.841 2.34131 51.431C2.34131 24.011 24.5613 1.79102 51.9813 1.79102Z" fill="#F2F1F0"/>
<path fill-rule="evenodd" clip-rule="evenodd" d="M95.0714 51.4306C95.0714 75.2306 75.7814 94.5206 51.9814 94.5206C28.1814 94.5206 8.89137 75.2306 8.89137 51.4306C8.89137 27.6306 28.1814 8.34059 51.9814 8.34059C75.7814 8.34059 95.0714 27.6306 95.0714 51.4306ZM51.9814 4.60059C77.8414 4.60059 98.8114 25.5706 98.8114 51.4306C98.8114 77.2906 77.8414 98.2606 51.9814 98.2606C26.1214 98.2606 5.15137 77.2906 5.15137 51.4306C5.15137 25.5706 26.1114 4.60059 51.9814 4.60059Z" fill="url(#paint1_linear_653_25854)"/>
<path d="M25.248 67.4291C22.7463 67.4318 20.337 66.4854 18.5055 64.7812C16.674 63.0769 15.5565 60.7416 15.3793 58.2461C15.2021 55.7506 15.9785 53.2806 17.5509 51.3347C19.1232 49.3888 21.3748 48.1116 23.8519 47.7608C23.45 46.164 23.2435 44.5244 23.2367 42.8779C23.2413 38.4636 24.7207 34.1778 27.4396 30.7003C30.1586 27.2228 33.9611 24.7529 38.2439 23.6836C42.5267 22.6143 47.0441 23.0066 51.0786 24.7979C55.1131 26.5893 58.4335 29.6773 60.5125 33.5714C62.2207 32.7448 64.0927 32.3141 65.9904 32.3116C69.2739 32.3167 72.4216 33.6228 74.7443 35.9437C77.067 38.2645 78.3758 41.4112 78.3836 44.6947C78.3754 45.7217 78.248 46.7438 78.003 47.7412C78.376 47.7008 78.7505 47.6847 79.1255 47.6926C80.4211 47.6783 81.7064 47.9218 82.9069 48.4093C84.1074 48.8967 85.199 49.6183 86.1179 50.5317C87.0368 51.4451 87.7653 52.5323 88.2599 53.7299C88.7545 54.9274 89.0056 56.2113 88.999 57.507C88.9964 60.1341 87.9508 62.6531 86.0922 64.5099C84.2336 66.3667 81.7136 67.4095 79.0864 67.4095L25.248 67.4291Z" fill="url(#paint2_linear_653_25854)"/>
<path opacity="0.6" d="M25.2485 67.4291C22.7468 67.4318 20.3375 66.4854 18.506 64.7812C16.6745 63.0769 15.557 60.7416 15.3798 58.2461C15.2026 55.7506 15.979 53.2806 17.5513 51.3347C19.1237 49.3888 21.3753 48.1116 23.8523 47.7608C23.4505 46.164 23.244 44.5244 23.2372 42.8779C23.2418 38.4636 24.7211 34.1778 27.4401 30.7003C30.1591 27.2228 33.9616 24.7529 38.2444 23.6836C42.5272 22.6143 47.0446 23.0066 51.0791 24.7979C55.1136 26.5893 58.434 29.6773 60.5129 33.5714C62.2212 32.7448 64.0932 32.3141 65.9909 32.3116C69.2744 32.3167 72.4221 33.6228 74.7448 35.9437C77.0675 38.2645 78.3763 41.4112 78.384 44.6947C78.3759 45.7217 78.2485 46.7438 78.0035 47.7412C78.3764 47.7008 78.751 47.6847 79.126 47.6926C80.4216 47.6783 81.7069 47.9218 82.9074 48.4093C84.1079 48.8967 85.1995 49.6183 86.1184 50.5317C87.0373 51.4451 87.7658 52.5323 88.2604 53.7299C88.755 54.9274 89.0061 56.2113 88.9995 57.507C88.9969 60.1341 87.9513 62.6531 86.0927 64.5099C84.2341 66.3667 81.7141 67.4095 79.0869 67.4095L25.2485 67.4291Z" fill="url(#paint3_linear_653_25854)"/>
<path d="M25.2485 67.4291C22.7468 67.4318 20.3375 66.4854 18.506 64.7812C16.6745 63.0769 15.557 60.7416 15.3798 58.2461C15.2026 55.7506 15.979 53.2806 17.5513 51.3347C19.1237 49.3888 21.3753 48.1116 23.8523 47.7608C23.4505 46.164 23.244 44.5244 23.2372 42.8779C23.2418 38.4636 24.7211 34.1778 27.4401 30.7003C30.1591 27.2228 33.9616 24.7529 38.2444 23.6836C42.5272 22.6143 47.0446 23.0066 51.0791 24.7979C55.1136 26.5893 58.434 29.6773 60.5129 33.5714C62.2212 32.7448 64.0932 32.3141 65.9909 32.3116C69.2744 32.3167 72.4221 33.6228 74.7448 35.9437C77.0675 38.2645 78.3763 41.4112 78.384 44.6947C78.3759 45.7217 78.2485 46.7438 78.0035 47.7412C78.3764 47.7008 78.751 47.6847 79.126 47.6926C80.4216 47.6783 81.7069 47.9218 82.9074 48.4093C84.1079 48.8967 85.1995 49.6183 86.1184 50.5317C87.0373 51.4451 87.7658 52.5323 88.2604 53.7299C88.755 54.9274 89.0061 56.2113 88.9995 57.507C88.9969 60.1341 87.9513 62.6531 86.0927 64.5099C84.2341 66.3667 81.7141 67.4095 79.0869 67.4095L25.2485 67.4291Z" stroke="white" stroke-width="1.2" stroke-miterlimit="10"/>
<path opacity="0.15" d="M58.1919 37.2881H30.0024V78.2869H58.1919V37.2881Z" fill="#1F1D20"/>
<path d="M58.1919 36.499H30.0024V77.4979H58.1919V36.499Z" fill="url(#paint4_linear_653_25854)"/>
<path d="M53.0616 42.2812H35.1328V49.9604H53.0725V42.2812H53.0616Z" fill="#1F1D21"/>
<path d="M37.6925 55.0898H35.1328V57.6495H37.6925V55.0898Z" fill="#1F1D21"/>
<path d="M37.6925 62.7686H35.1328V65.3283H37.6925V62.7686Z" fill="#1F1D21"/>
<path d="M37.6925 70.4697H35.1328V73.0294H37.6925V70.4697Z" fill="#1F1D21"/>
<path d="M45.3825 55.0898H42.8228V57.6495H45.3825V55.0898Z" fill="#1F1D21"/>
<path d="M45.3825 62.7686H42.8228V65.3283H45.3825V62.7686Z" fill="#1F1D21"/>
<path d="M45.3825 70.4697H42.8228V73.0294H45.3825V70.4697Z" fill="#1F1D21"/>
<path d="M53.0617 55.0898H50.502V57.6495H53.0617V55.0898Z" fill="#1F1D21"/>
<path d="M53.0617 62.7686H50.502V65.3283H53.0617V62.7686Z" fill="#1F1D21"/>
<path d="M53.0617 70.4697H50.502V73.0294H53.0617V70.4697Z" fill="#1F1D21"/>
<path d="M53.0616 41.6299H35.1328V49.309H53.0725V41.6299H53.0616Z" fill="#C3F1FF"/>
<path d="M37.6925 54.4385H35.1328V56.9982H37.6925V54.4385Z" fill="#2BC0E4"/>
<path d="M37.6925 62.1172H35.1328V64.6769H37.6925V62.1172Z" fill="#057DD8"/>
<path d="M37.6925 69.8184H35.1328V72.3781H37.6925V69.8184Z" fill="#2056A3"/>
<path d="M45.3825 54.4385H42.8228V56.9982H45.3825V54.4385Z" fill="#2BC0E4"/>
<path d="M45.3825 62.1172H42.8228V64.6769H45.3825V62.1172Z" fill="#057DD8"/>
<path d="M45.3825 69.8184H42.8228V72.3781H45.3825V69.8184Z" fill="#2056A3"/>
<path d="M53.0617 54.4385H50.502V56.9982H53.0617V54.4385Z" fill="#2BC0E4"/>
<path d="M53.0617 62.1172H50.502V64.6769H53.0617V62.1172Z" fill="#057DD8"/>
<path d="M53.0617 69.8184H50.502V72.3781H53.0617V69.8184Z" fill="#2056A3"/>
<path d="M57.5469 79.5792C63.4441 79.5792 68.212 74.7903 68.212 68.9141C68.212 63.0169 63.4232 58.249 57.5469 58.249C51.6498 58.249 46.8818 63.0379 46.8818 68.9141C46.8818 74.7903 51.6498 79.5792 57.5469 79.5792Z" fill="url(#paint5_linear_653_25854)"/>
<path d="M63.3605 63.4561L54.5565 72.2809L51.9216 69.6251L50.165 71.4026L54.5565 75.815L65.117 65.2127L63.3605 63.4561Z" fill="#FAF9F8"/>
<defs>
<linearGradient id="paint0_linear_653_25854" x1="50.2075" y1="-13.3584" x2="54.1895" y2="132.412" gradientUnits="userSpaceOnUse">
<stop stop-color="#00ABDE"/>
<stop offset="1" stop-color="#007ED8"/>
</linearGradient>
<linearGradient id="paint1_linear_653_25854" x1="3.41177" y1="-20.192" x2="98.9393" y2="120.689" gradientUnits="userSpaceOnUse">
<stop stop-color="#007ED8"/>
<stop offset="0.7065" stop-color="#002D4C"/>
</linearGradient>
<linearGradient id="paint2_linear_653_25854" x1="52.1768" y1="23.0938" x2="52.1768" y2="67.429" gradientUnits="userSpaceOnUse">
<stop stop-color="#00ABDE"/>
<stop offset="1" stop-color="#007ED8"/>
</linearGradient>
<linearGradient id="paint3_linear_653_25854" x1="50.5517" y1="-7.94301" x2="52.4951" y2="70.9252" gradientUnits="userSpaceOnUse">
<stop offset="0.57" stop-color="white" stop-opacity="0"/>
<stop offset="0.78" stop-color="white" stop-opacity="0.43"/>
<stop offset="0.9" stop-color="white" stop-opacity="0.5"/>
<stop offset="1" stop-color="white"/>
</linearGradient>
<linearGradient id="paint4_linear_653_25854" x1="10.6103" y1="24.1331" x2="23.245" y2="85.5013" gradientUnits="userSpaceOnUse">
<stop stop-color="#007ED8"/>
<stop offset="0.886694" stop-color="#002D4C"/>
</linearGradient>
<linearGradient id="paint5_linear_653_25854" x1="57.5469" y1="58.249" x2="57.5469" y2="79.5792" gradientUnits="userSpaceOnUse">
<stop stop-color="#008BF1"/>
<stop offset="0.22" stop-color="#0086EC"/>
<stop offset="0.49" stop-color="#0078DD"/>
<stop offset="0.79" stop-color="#0061C4"/>
<stop offset="1" stop-color="#004DAE"/>
</linearGradient>
</defs>
</svg>
