<svg width="103" height="103" viewBox="0 0 103 103" fill="none" xmlns="http://www.w3.org/2000/svg">
<path d="M51.9672 98.1346C26.1172 98.1346 5.15723 77.1846 5.15723 51.3246C5.15723 25.4646 26.1172 4.51465 51.9672 4.51465C77.8172 4.51465 98.7772 25.4746 98.7772 51.3246C98.7772 77.1746 77.8172 98.1346 51.9672 98.1346Z" fill="url(#paint0_linear_515_4171)"/>
<path fill-rule="evenodd" clip-rule="evenodd" d="M97.8671 51.3248C97.8671 76.6748 77.3171 97.2248 51.9671 97.2248C26.6171 97.2248 6.06715 76.6748 6.06715 51.3248C6.06715 25.9748 26.6171 5.42482 51.9671 5.42482C77.3171 5.42482 97.8671 25.9748 97.8671 51.3248ZM51.9671 1.68481C79.3871 1.68481 101.607 23.9048 101.607 51.3248C101.607 78.7448 79.3771 100.965 51.9671 100.965C24.5471 100.965 2.32715 78.7348 2.32715 51.3248C2.32715 23.9048 24.5471 1.68481 51.9671 1.68481Z" fill="#F2F1F0"/>
<path fill-rule="evenodd" clip-rule="evenodd" d="M95.0572 51.3246C95.0572 75.1246 75.7672 94.4146 51.9672 94.4146C28.1672 94.4146 8.87721 75.1246 8.87721 51.3246C8.87721 27.5246 28.1672 8.23463 51.9672 8.23463C75.7672 8.23463 95.0572 27.5246 95.0572 51.3246ZM51.9672 4.49463C77.8272 4.49463 98.7972 25.4646 98.7972 51.3246C98.7972 77.1846 77.8272 98.1546 51.9672 98.1546C26.1072 98.1546 5.13721 77.1846 5.13721 51.3246C5.13721 25.4646 26.0972 4.49463 51.9672 4.49463Z" fill="url(#paint1_linear_515_4171)"/>
<path opacity="0.15" d="M80.6563 62.4916H25.1709C22.8767 62.4889 20.6503 61.7142 18.8501 60.292C17.05 58.8697 15.7814 56.8827 15.248 54.6513C15.0668 55.4062 14.9561 54.0174 14.9561 54.8327C14.9587 57.5412 16.0356 60.1381 17.9508 62.0532C19.866 63.9684 22.4624 65.0454 25.1709 65.048H80.6563C83.3648 65.0454 85.9622 63.9684 87.8774 62.0532C89.7926 60.1381 90.8695 57.5412 90.8721 54.8327C90.8721 54.0174 90.7614 55.4162 90.5802 54.6513C90.0468 56.8827 88.7772 58.8697 86.9771 60.292C85.1769 61.7142 82.9505 62.4889 80.6563 62.4916V62.4916Z" fill="#1F1D20"/>
<path d="M25.1708 62.4922C22.5925 62.4949 20.1096 61.5196 18.222 59.7633C16.3345 58.0069 15.1828 55.6001 15.0002 53.0282C14.8176 50.4564 15.6177 47.9109 17.2382 45.9054C18.8586 43.9 21.1791 42.5837 23.7319 42.2222C23.3178 40.5766 23.105 38.8868 23.098 37.1899C23.1027 32.6406 24.6273 28.2237 27.4294 24.6398C30.2316 21.0559 34.1504 18.5104 38.5643 17.4084C42.9781 16.3064 47.6337 16.7107 51.7916 18.5569C55.9495 20.4031 59.3714 23.5855 61.514 27.5987C63.2745 26.7468 65.2038 26.303 67.1596 26.3003C70.5435 26.3056 73.7875 27.6517 76.1812 30.0435C78.575 32.4354 79.9238 35.6783 79.9318 39.0623C79.9235 40.1207 79.7921 41.1741 79.5397 42.202C79.924 42.1604 80.31 42.1438 80.6965 42.1519C82.0317 42.1372 83.3563 42.3882 84.5935 42.8905C85.8307 43.3929 86.9558 44.1365 87.9028 45.0779C88.8498 46.0192 89.6006 47.1397 90.1103 48.3739C90.62 49.6081 90.8788 50.9312 90.872 52.2665C90.8694 54.9741 89.7918 57.57 87.8763 59.4836C85.9608 61.3972 83.3638 62.472 80.6562 62.472L25.1708 62.4922Z" fill="url(#paint2_linear_515_4171)"/>
<path opacity="0.6" d="M25.1718 62.4922C22.5935 62.4949 20.1105 61.5196 18.223 59.7633C16.3354 58.0069 15.1838 55.6001 15.0012 53.0282C14.8186 50.4564 15.6187 47.9109 17.2391 45.9054C18.8596 43.9 21.1801 42.5837 23.7329 42.2222C23.3188 40.5766 23.106 38.8868 23.0989 37.1899C23.1037 32.6406 24.6283 28.2237 27.4304 24.6398C30.2325 21.0559 34.1514 18.5104 38.5652 17.4084C42.9791 16.3064 47.6347 16.7107 51.7926 18.5569C55.9504 20.4031 59.3724 23.5855 61.515 27.5987C63.2755 26.7468 65.2048 26.303 67.1605 26.3003C70.5445 26.3056 73.7885 27.6517 76.1822 30.0435C78.576 32.4354 79.9248 35.6783 79.9328 39.0623C79.9244 40.1207 79.7931 41.1741 79.5406 42.202C79.925 42.1604 80.311 42.1438 80.6975 42.1519C82.0327 42.1372 83.3573 42.3882 84.5945 42.8905C85.8317 43.3929 86.9568 44.1365 87.9038 45.0779C88.8508 46.0192 89.6016 47.1397 90.1113 48.3739C90.621 49.6081 90.8798 50.9312 90.873 52.2665C90.8703 54.9741 89.7927 57.57 87.8773 59.4836C85.9618 61.3972 83.3647 62.472 80.6572 62.472L25.1718 62.4922Z" fill="url(#paint3_linear_515_4171)"/>
<path d="M25.1718 62.4922C22.5935 62.4949 20.1105 61.5196 18.223 59.7633C16.3354 58.0069 15.1838 55.6001 15.0012 53.0282C14.8186 50.4564 15.6187 47.9109 17.2391 45.9054C18.8596 43.9 21.1801 42.5837 23.7329 42.2222C23.3188 40.5766 23.106 38.8868 23.0989 37.1899C23.1037 32.6406 24.6283 28.2237 27.4304 24.6398C30.2325 21.0559 34.1514 18.5104 38.5652 17.4084C42.9791 16.3064 47.6347 16.7107 51.7926 18.5569C55.9504 20.4031 59.3724 23.5855 61.515 27.5987C63.2755 26.7468 65.2048 26.303 67.1605 26.3003C70.5445 26.3056 73.7885 27.6517 76.1822 30.0435C78.576 32.4354 79.9248 35.6783 79.9328 39.0623C79.9244 40.1207 79.7931 41.1741 79.5406 42.202C79.925 42.1604 80.311 42.1438 80.6975 42.1519C82.0327 42.1372 83.3573 42.3882 84.5945 42.8905C85.8317 43.3929 86.9568 44.1365 87.9038 45.0779C88.8508 46.0192 89.6016 47.1397 90.1113 48.3739C90.621 49.6081 90.8798 50.9312 90.873 52.2665C90.8703 54.9741 89.7927 57.57 87.8773 59.4836C85.9618 61.3972 83.3647 62.472 80.6572 62.472L25.1718 62.4922Z" stroke="white" stroke-miterlimit="10" stroke-linejoin="round"/>
<path opacity="0.25" d="M23.2593 39.6057C23.1649 40.3807 23.111 41.1599 23.0981 41.9405C23.0981 42.0713 23.0981 42.2023 23.0981 42.3331C23.3007 42.2857 23.505 42.2484 23.7114 42.2221C23.5027 41.3608 23.3522 40.487 23.2593 39.6057Z" fill="url(#paint4_linear_515_4171)"/>
<path opacity="0.15" d="M68.9138 79.0845H35.1538V34.7046C35.1538 34.5879 35.2002 34.4761 35.2827 34.3936C35.3652 34.311 35.4772 34.2646 35.5939 34.2646H69.7139C69.7802 34.2646 69.8437 34.291 69.8906 34.3379C69.9375 34.3848 69.9639 34.4483 69.9639 34.5146V78.0845C69.964 78.2201 69.9365 78.3543 69.8832 78.479C69.8298 78.6037 69.7517 78.7165 69.6534 78.8101C69.5552 78.9036 69.439 78.9762 69.3119 79.0234C69.1847 79.0706 69.0493 79.0913 68.9138 79.0845Z" fill="#1F1D20"/>
<path d="M68.9138 77.7944H35.1538V33.4146C35.1538 33.2979 35.2002 33.186 35.2827 33.1035C35.3652 33.021 35.4772 32.9746 35.5939 32.9746H69.7139C69.7802 32.9746 69.8437 33.001 69.8906 33.0479C69.9375 33.0947 69.9639 33.1583 69.9639 33.2246V76.7944C69.964 76.9301 69.9365 77.0643 69.8832 77.189C69.8298 77.3137 69.7517 77.4265 69.6534 77.52C69.5552 77.6136 69.439 77.6862 69.3119 77.7334C69.1847 77.7806 69.0493 77.8012 68.9138 77.7944Z" fill="#ECECEC"/>
<path opacity="0.15" d="M64.1837 83.1447H30.4137V38.7648C30.4123 38.7066 30.4228 38.6489 30.4445 38.5948C30.4661 38.5408 30.4984 38.4915 30.5395 38.4503C30.5807 38.4092 30.6297 38.3767 30.6837 38.3551C30.7377 38.3335 30.7955 38.3235 30.8536 38.3248H64.9137C64.98 38.3248 65.0436 38.3512 65.0905 38.3981C65.1373 38.445 65.1637 38.5085 65.1637 38.5748V82.1447C65.1637 82.4064 65.0612 82.6579 64.8779 82.8448C64.6947 83.0318 64.4454 83.1394 64.1837 83.1447Z" fill="#1F1D20"/>
<path d="M64.1836 81.8447H30.4136V37.4644C30.4136 37.3477 30.46 37.2358 30.5425 37.1533C30.625 37.0708 30.7368 37.0244 30.8535 37.0244H64.9136C64.9799 37.0244 65.0434 37.0508 65.0903 37.0977C65.1372 37.1445 65.1636 37.2081 65.1636 37.2744V80.8447C65.1636 81.1065 65.061 81.3575 64.8778 81.5444C64.6946 81.7314 64.4453 81.8395 64.1836 81.8447Z" fill="white"/>
<path opacity="0.15" d="M45.4964 49.8655H33.7729V66.9161H45.4964V49.8655Z" fill="#1F1D20"/>
<path d="M45.4964 49.5374H33.7729V66.588H45.4964V49.5374Z" fill="url(#paint5_linear_515_4171)"/>
<path d="M43.363 51.9419H35.9067V55.1355H43.3675V51.9419H43.363Z" fill="#1F1D21"/>
<path d="M36.9713 57.2688H35.9067V58.3333H36.9713V57.2688Z" fill="#1F1D21"/>
<path d="M36.9713 60.4624H35.9067V61.5269H36.9713V60.4624Z" fill="#1F1D21"/>
<path d="M36.9713 63.6648H35.9067V64.7293H36.9713V63.6648Z" fill="#1F1D21"/>
<path d="M40.169 57.2688H39.1045V58.3333H40.169V57.2688Z" fill="#1F1D21"/>
<path d="M40.169 60.4624H39.1045V61.5269H40.169V60.4624Z" fill="#1F1D21"/>
<path d="M40.169 63.6648H39.1045V64.7293H40.169V63.6648Z" fill="#1F1D21"/>
<path d="M43.3629 57.2688H42.2983V58.3333H43.3629V57.2688Z" fill="#1F1D21"/>
<path d="M43.3629 60.4624H42.2983V61.5269H43.3629V60.4624Z" fill="#1F1D21"/>
<path d="M43.3629 63.6648H42.2983V64.7293H43.3629V63.6648Z" fill="#1F1D21"/>
<path d="M43.363 51.6711H35.9067V54.8647H43.3675V51.6711H43.363Z" fill="#C3F1FF"/>
<path d="M36.9713 56.9983H35.9067V58.0628H36.9713V56.9983Z" fill="#2BC0E4"/>
<path d="M36.9713 60.1914H35.9067V61.2559H36.9713V60.1914Z" fill="#057DD8"/>
<path d="M36.9713 63.3943H35.9067V64.4588H36.9713V63.3943Z" fill="#2056A3"/>
<path d="M40.169 56.9983H39.1045V58.0628H40.169V56.9983Z" fill="#2BC0E4"/>
<path d="M40.169 60.1914H39.1045V61.2559H40.169V60.1914Z" fill="#057DD8"/>
<path d="M40.169 63.3943H39.1045V64.4588H40.169V63.3943Z" fill="#2056A3"/>
<path d="M43.3629 56.9983H42.2983V58.0628H43.3629V56.9983Z" fill="#2BC0E4"/>
<path d="M43.3629 60.1914H42.2983V61.2559H43.3629V60.1914Z" fill="#057DD8"/>
<path d="M43.3629 63.3943H42.2983V64.4588H43.3629V63.3943Z" fill="#2056A3"/>
<path d="M51.2126 52.6721L50.7337 52.1931L48.3251 54.5971L47.6066 53.8741L47.123 54.353L48.3251 55.5551L51.2126 52.6721Z" fill="#45CAF2"/>
<path d="M51.2126 56.4021L50.7337 55.9231L48.3251 58.3271L47.6066 57.6041L47.123 58.083L48.3251 59.285L51.2126 56.4021Z" fill="#32B0E7"/>
<path d="M51.2126 60.1345L50.7337 59.6555L48.3251 62.0595L47.6066 61.3365L47.123 61.8154L48.3251 63.0175L51.2126 60.1345Z" fill="#0078D4"/>
<path d="M61.9737 53.3536C61.9737 53.0497 61.7251 52.7964 61.4165 52.7964H52.7814C52.4774 52.7964 52.2241 53.0451 52.2241 53.3536C52.2241 53.6622 52.4728 53.9109 52.7814 53.9109H61.4165C61.7251 53.9109 61.9737 53.6622 61.9737 53.3536Z" fill="#45CAF2"/>
<path d="M61.9737 57.5072C61.9737 57.1986 61.7251 56.95 61.4165 56.95H52.7814C52.4774 56.95 52.2241 57.1986 52.2241 57.5072C52.2241 57.8158 52.4728 58.0691 52.7814 58.0691H61.4165C61.7251 58.0599 61.9737 57.8158 61.9737 57.5072Z" fill="#32B0E7"/>
<path d="M61.9737 61.6677C61.9737 61.3591 61.7251 61.1104 61.4165 61.1104H52.7814C52.4774 61.1058 52.2241 61.3545 52.2241 61.6677C52.2241 61.9762 52.4728 62.2249 52.7814 62.2249H61.4165C61.7251 62.2249 61.9737 61.9762 61.9737 61.6677Z" fill="#0078D4"/>
<path opacity="0.15" d="M71.1316 72.6638C75.2916 72.6638 78.6616 69.2938 78.6616 65.1338C78.6616 60.9738 75.2916 57.6038 71.1316 57.6038C66.9716 57.6038 63.6016 60.9738 63.6016 65.1338C63.6116 69.2938 66.9816 72.6638 71.1316 72.6638Z" fill="#1F1D20"/>
<path d="M71.1316 71.8137C75.2916 71.8137 78.6616 68.4437 78.6616 64.2837C78.6616 60.1237 75.2916 56.7537 71.1316 56.7537C66.9716 56.7537 63.6016 60.1237 63.6016 64.2837C63.6116 68.4437 66.9816 71.8137 71.1316 71.8137Z" fill="#002D4C"/>
<path opacity="0.3" d="M75.2316 60.9937L69.0316 67.2237L67.1716 65.3537L65.9316 66.6037L69.0316 69.7137L76.4816 62.2437L75.2316 60.9937Z" fill="#1F1D20"/>
<path d="M75.2316 60.4636L69.0316 66.6936L67.1716 64.8236L65.9316 66.0736L69.0316 69.1836L76.4816 61.7136L75.2316 60.4636Z" fill="#FAF9F8"/>
<defs>
<linearGradient id="paint0_linear_515_4171" x1="50.1933" y1="-13.4649" x2="54.1753" y2="132.305" gradientUnits="userSpaceOnUse">
<stop stop-color="#00ABDE"/>
<stop offset="1" stop-color="#007ED8"/>
</linearGradient>
<linearGradient id="paint1_linear_515_4171" x1="3.39761" y1="-20.298" x2="98.9251" y2="120.583" gradientUnits="userSpaceOnUse">
<stop stop-color="#007ED8"/>
<stop offset="0.7065" stop-color="#002D4C"/>
</linearGradient>
<linearGradient id="paint2_linear_515_4171" x1="52.9233" y1="16.8005" x2="52.9233" y2="62.4921" gradientUnits="userSpaceOnUse">
<stop stop-color="#00ABDE"/>
<stop offset="1" stop-color="#007ED8"/>
</linearGradient>
<linearGradient id="paint3_linear_515_4171" x1="51.249" y1="-15.1857" x2="53.2518" y2="66.0953" gradientUnits="userSpaceOnUse">
<stop offset="0.57" stop-color="white" stop-opacity="0"/>
<stop offset="0.78" stop-color="white" stop-opacity="0.43"/>
<stop offset="0.9" stop-color="white" stop-opacity="0.5"/>
<stop offset="1" stop-color="white"/>
</linearGradient>
<linearGradient id="paint4_linear_515_4171" x1="5308.3" y1="15232.2" x2="5332.16" y2="15014.4" gradientUnits="userSpaceOnUse">
<stop offset="0.57" stop-color="white" stop-opacity="0"/>
<stop offset="0.78" stop-color="white" stop-opacity="0.43"/>
<stop offset="0.9" stop-color="white" stop-opacity="0.5"/>
<stop offset="1" stop-color="white"/>
</linearGradient>
<linearGradient id="paint5_linear_515_4171" x1="25.7081" y1="44.3946" x2="30.9627" y2="69.9164" gradientUnits="userSpaceOnUse">
<stop stop-color="#007ED8"/>
<stop offset="0.886694" stop-color="#002D4C"/>
</linearGradient>
</defs>
</svg>
