<svg width="103" height="103" viewBox="0 0 103 103" fill="none" xmlns="http://www.w3.org/2000/svg">
<path d="M51.4814 97.8124C25.6314 97.8124 4.67139 76.8624 4.67139 51.0024C4.67139 25.1424 25.6314 4.19238 51.4814 4.19238C77.3314 4.19238 98.2914 25.1524 98.2914 51.0024C98.2914 76.8524 77.3314 97.8124 51.4814 97.8124Z" fill="url(#paint0_linear_625_2192)"/>
<path fill-rule="evenodd" clip-rule="evenodd" d="M97.3813 51.0025C97.3813 76.3525 76.8313 96.9025 51.4813 96.9025C26.1313 96.9025 5.58131 76.3525 5.58131 51.0025C5.58131 25.6525 26.1313 5.10255 51.4813 5.10255C76.8313 5.10255 97.3813 25.6525 97.3813 51.0025ZM51.4813 1.36255C78.9013 1.36255 101.121 23.5825 101.121 51.0025C101.121 78.4225 78.8913 100.643 51.4813 100.643C24.0613 100.643 1.84131 78.4125 1.84131 51.0025C1.84131 23.5825 24.0613 1.36255 51.4813 1.36255Z" fill="#F2F1F0"/>
<path fill-rule="evenodd" clip-rule="evenodd" d="M94.5714 51.0024C94.5714 74.8024 75.2814 94.0924 51.4814 94.0924C27.6814 94.0924 8.39137 74.8024 8.39137 51.0024C8.39137 27.2024 27.6814 7.91237 51.4814 7.91237C75.2814 7.91237 94.5714 27.2024 94.5714 51.0024ZM51.4814 4.17236C77.3414 4.17236 98.3114 25.1424 98.3114 51.0024C98.3114 76.8624 77.3414 97.8324 51.4814 97.8324C25.6214 97.8324 4.65137 76.8624 4.65137 51.0024C4.65137 25.1424 25.6114 4.17236 51.4814 4.17236Z" fill="url(#paint1_linear_625_2192)"/>
<path d="M27.2613 65.0905C24.9268 65.093 22.6786 64.2099 20.9696 62.6196C19.2605 61.0293 18.2178 58.8501 18.0525 56.5215C17.8871 54.1928 18.6116 51.8881 20.0788 50.0723C21.546 48.2565 23.647 47.0647 25.9585 46.7373C25.5835 45.2473 25.3908 43.7174 25.3845 42.181C25.3888 38.0618 26.7692 34.0626 29.3063 30.8176C31.8435 27.5727 35.3917 25.2679 39.3881 24.2701C43.3846 23.2723 47.5999 23.6384 51.3646 25.31C55.1293 26.9816 58.2277 29.8631 60.1676 33.4967C61.7616 32.7254 63.5085 32.3236 65.2793 32.3212C68.3432 32.326 71.2804 33.5447 73.4478 35.7104C75.6152 37.8761 76.8365 40.8123 76.8437 43.8762C76.8362 44.8346 76.7172 45.7884 76.4887 46.7191C76.8366 46.6814 77.1861 46.6663 77.5361 46.6737C78.745 46.6604 79.9444 46.8876 81.0646 47.3425C82.1848 47.7973 83.2035 48.4706 84.0609 49.323C84.9184 50.1753 85.5982 51.1898 86.0597 52.3073C86.5212 53.4248 86.7555 54.6228 86.7494 55.8318C86.7469 58.2833 85.7712 60.6338 84.0369 62.3664C82.3026 64.0991 79.9511 65.0722 77.4996 65.0722L27.2613 65.0905Z" fill="url(#paint2_linear_625_2192)"/>
<path opacity="0.6" d="M27.2618 65.0905C24.9273 65.093 22.6791 64.2099 20.9701 62.6196C19.261 61.0293 18.2183 58.8501 18.0529 56.5215C17.8876 54.1928 18.6121 51.8881 20.0793 50.0723C21.5465 48.2565 23.6475 47.0647 25.9589 46.7373C25.584 45.2473 25.3913 43.7174 25.3849 42.181C25.3893 38.0618 26.7696 34.0626 29.3068 30.8176C31.8439 27.5727 35.3922 25.2679 39.3886 24.2701C43.3851 23.2723 47.6004 23.6384 51.3651 25.31C55.1298 26.9816 58.2282 29.8631 60.1681 33.4967C61.7621 32.7254 63.509 32.3236 65.2798 32.3212C68.3437 32.326 71.2809 33.5447 73.4483 35.7104C75.6157 37.8761 76.837 40.8123 76.8442 43.8762C76.8367 44.8346 76.7177 45.7884 76.4891 46.7191C76.8371 46.6814 77.1866 46.6663 77.5366 46.6737C78.7455 46.6604 79.9449 46.8876 81.0651 47.3425C82.1853 47.7973 83.204 48.4706 84.0614 49.323C84.9189 50.1753 85.5987 51.1898 86.0602 52.3073C86.5217 53.4248 86.756 54.6228 86.7499 55.8318C86.7474 58.2833 85.7717 60.6338 84.0374 62.3664C82.3031 64.0991 79.9516 65.0722 77.5001 65.0722L27.2618 65.0905Z" fill="url(#paint3_linear_625_2192)"/>
<path d="M27.2618 65.0905C24.9273 65.093 22.6791 64.2099 20.9701 62.6196C19.261 61.0293 18.2183 58.8501 18.0529 56.5215C17.8876 54.1928 18.6121 51.8881 20.0793 50.0723C21.5465 48.2565 23.6475 47.0647 25.9589 46.7373C25.584 45.2473 25.3913 43.7174 25.3849 42.181C25.3893 38.0618 26.7696 34.0626 29.3068 30.8176C31.8439 27.5727 35.3922 25.2679 39.3886 24.2701C43.3851 23.2723 47.6004 23.6384 51.3651 25.31C55.1298 26.9816 58.2282 29.8631 60.1681 33.4967C61.7621 32.7254 63.509 32.3236 65.2798 32.3212C68.3437 32.326 71.2809 33.5447 73.4483 35.7104C75.6157 37.8761 76.837 40.8123 76.8442 43.8762C76.8367 44.8346 76.7177 45.7884 76.4891 46.7191C76.8371 46.6814 77.1866 46.6663 77.5366 46.6737C78.7455 46.6604 79.9449 46.8876 81.0651 47.3425C82.1853 47.7973 83.204 48.4706 84.0614 49.323C84.9189 50.1753 85.5987 51.1898 86.0602 52.3073C86.5217 53.4248 86.756 54.6228 86.7499 55.8318C86.7474 58.2833 85.7717 60.6338 84.0374 62.3664C82.3031 64.0991 79.9516 65.0722 77.5001 65.0722L27.2618 65.0905Z" stroke="white" stroke-width="1.2" stroke-miterlimit="10" stroke-linejoin="round"/>
<path opacity="0.15" d="M69.7389 41.7939H42.2191C41.6246 41.7939 41.1465 42.2721 41.1465 42.8666V78.7735C41.1465 79.368 41.6246 79.8461 42.2191 79.8461H69.7389C70.3334 79.8461 70.8115 79.368 70.8115 78.7735V42.8666C70.8051 42.2721 70.3205 41.7939 69.7389 41.7939Z" fill="#1F1D20"/>
<path d="M69.7389 40.4692H42.2191C41.6246 40.4692 41.1465 40.9474 41.1465 41.5419V77.4488C41.1465 78.0433 41.6246 78.5214 42.2191 78.5214H69.7389C70.3334 78.5214 70.8115 78.0433 70.8115 77.4488V41.5419C70.8051 40.9474 70.3205 40.4692 69.7389 40.4692Z" fill="white"/>
<path fill-rule="evenodd" clip-rule="evenodd" d="M57.8301 35.5197C58.8639 36.0624 59.4713 37.1738 59.4713 38.3369V38.6212C59.4713 38.7246 59.4648 38.8215 59.4519 38.9314H61.6876C62.3532 38.9314 62.9799 39.2674 63.3159 39.8424C64.2593 41.4966 63.0962 43.1766 61.5325 43.1766H50.2571C49.5916 43.1766 48.9648 42.8406 48.6288 42.2655C47.6854 40.6114 48.8485 38.9314 50.4122 38.9314H52.4928C52.4863 38.8344 52.4863 38.7311 52.4863 38.6212V38.5307C52.4863 36.0107 55.1614 34.111 57.8301 35.5197Z" fill="#1F56A3"/>
<path d="M55.9756 40.1656C56.7704 40.1656 57.4165 39.5194 57.4165 38.7246C57.4165 37.9298 56.7704 37.2837 55.9756 37.2837C55.1808 37.2837 54.5347 37.9298 54.5347 38.7246C54.5347 39.5194 55.1808 40.1656 55.9756 40.1656Z" fill="#F2F2F2"/>
<path d="M63.3482 73.1389C65.4288 73.1389 67.1153 71.4525 67.1153 69.3718C67.1153 67.2912 65.4288 65.6047 63.3482 65.6047C61.2675 65.6047 59.5811 67.2912 59.5811 69.3718C59.5746 71.4525 61.2611 73.1389 63.3482 73.1389Z" fill="#002D4C"/>
<path d="M65.248 46.8274H46.9165V49.5606H65.248V46.8274Z" fill="#50E6FF"/>
<path d="M65.248 50.8206H46.9165V56.5197H65.248V50.8206Z" fill="#3BCAF4"/>
<path d="M63.3353 64.655C64.0138 64.655 64.66 64.7972 65.248 65.0621V57.7024H46.9165V71.8145H59.3292C58.8898 71.0972 58.6378 70.2572 58.6378 69.3591C58.6313 66.7615 60.7443 64.655 63.3353 64.655Z" fill="#0078D7"/>
<path d="M65.3902 67.4075L62.2822 70.5284L61.3518 69.5915L60.7314 70.2183L62.2822 71.7755L66.0105 68.0342L65.3902 67.4075Z" fill="#FAF9F8"/>
<path opacity="0.15" d="M43.9932 50.6895H29.3732C29.3128 50.6895 29.253 50.7014 29.1972 50.7245C29.1414 50.7476 29.0907 50.7815 29.048 50.8242C29.0052 50.8669 28.9713 50.9176 28.9482 50.9734C28.9251 51.0293 28.9132 51.0891 28.9132 51.1495V72.8295C28.9119 72.8907 28.9228 72.9516 28.9453 73.0085C28.9678 73.0655 29.0015 73.1174 29.0444 73.1612C29.0872 73.205 29.1383 73.2398 29.1948 73.2635C29.2513 73.2873 29.312 73.2995 29.3732 73.2994H43.9932C44.0545 73.2995 44.1151 73.2873 44.1716 73.2635C44.2281 73.2398 44.2792 73.205 44.3221 73.1612C44.3649 73.1174 44.3986 73.0655 44.4211 73.0085C44.4436 72.9516 44.4546 72.8907 44.4532 72.8295V51.1495C44.4532 51.0891 44.4413 51.0293 44.4182 50.9734C44.3951 50.9176 44.3612 50.8669 44.3185 50.8242C44.2758 50.7815 44.225 50.7476 44.1692 50.7245C44.1134 50.7014 44.0536 50.6895 43.9932 50.6895V50.6895Z" fill="#1F1D20"/>
<path d="M43.9332 49.4894H29.4432C29.3732 49.488 29.3037 49.5008 29.2388 49.527C29.1739 49.5531 29.1149 49.5921 29.0654 49.6416C29.0159 49.6911 28.9769 49.7501 28.9508 49.815C28.9246 49.8799 28.9118 49.9494 28.9132 50.0194V71.5694C28.9132 71.7099 28.9691 71.8447 29.0685 71.9441C29.1679 72.0435 29.3026 72.0994 29.4432 72.0994H43.9332C44.0738 72.0994 44.2086 72.0435 44.308 71.9441C44.4074 71.8447 44.4632 71.7099 44.4632 71.5694V50.0194C44.4646 49.9494 44.4518 49.8799 44.4256 49.815C44.3995 49.7501 44.3605 49.6911 44.311 49.6416C44.2615 49.5921 44.2025 49.5531 44.1376 49.527C44.0727 49.5008 44.0032 49.488 43.9332 49.4894V49.4894Z" fill="url(#paint4_linear_625_2192)"/>
<path d="M41.6232 52.3196H31.7432V56.5496H41.6332V52.3196H41.6232Z" fill="white"/>
<path d="M33.1531 59.3794H31.7432V60.7894H33.1531V59.3794Z" fill="#2BC0E4"/>
<path d="M33.1531 63.6194H31.7432V65.0794H33.1531V63.6194Z" fill="#057DD8"/>
<path d="M33.1531 67.8596H31.7432V69.2696H33.1531V67.8596Z" fill="#2056A3"/>
<path d="M37.3934 59.3794H35.9834V60.7894H37.3934V59.3794Z" fill="#2BC0E4"/>
<path d="M37.3934 63.6194H35.9834V65.0794H37.3934V63.6194Z" fill="#057DD8"/>
<path d="M37.3934 67.8596H35.9834V69.2696H37.3934V67.8596Z" fill="#2056A3"/>
<path d="M41.6234 59.3794H40.2134V60.7894H41.6234V59.3794Z" fill="#2BC0E4"/>
<path d="M41.6234 63.6194H40.2134V65.0794H41.6234V63.6194Z" fill="#057DD8"/>
<path d="M41.6234 67.8596H40.2134V69.2696H41.6234V67.8596Z" fill="#2056A3"/>
<defs>
<linearGradient id="paint0_linear_625_2192" x1="49.7075" y1="-13.7871" x2="53.6895" y2="131.983" gradientUnits="userSpaceOnUse">
<stop stop-color="#00ABDE"/>
<stop offset="1" stop-color="#007ED8"/>
</linearGradient>
<linearGradient id="paint1_linear_625_2192" x1="2.91177" y1="-20.6202" x2="98.4393" y2="120.261" gradientUnits="userSpaceOnUse">
<stop stop-color="#007ED8"/>
<stop offset="0.7065" stop-color="#002D4C"/>
</linearGradient>
<linearGradient id="paint2_linear_625_2192" x1="52.3893" y1="23.7197" x2="52.3893" y2="65.0904" gradientUnits="userSpaceOnUse">
<stop stop-color="#00ABDE"/>
<stop offset="1" stop-color="#007ED8"/>
</linearGradient>
<linearGradient id="paint3_linear_625_2192" x1="50.873" y1="-5.24166" x2="52.6864" y2="68.3528" gradientUnits="userSpaceOnUse">
<stop offset="0.57" stop-color="white" stop-opacity="0"/>
<stop offset="0.78" stop-color="white" stop-opacity="0.43"/>
<stop offset="0.9" stop-color="white" stop-opacity="0.5"/>
<stop offset="1" stop-color="white"/>
</linearGradient>
<linearGradient id="paint4_linear_625_2192" x1="32.3832" y1="39.9193" x2="39.3032" y2="73.4994" gradientUnits="userSpaceOnUse">
<stop stop-color="#007ED8"/>
<stop offset="0.89" stop-color="#002D4C"/>
</linearGradient>
</defs>
</svg>
