<svg width="103" height="103" viewBox="0 0 103 103" fill="none" xmlns="http://www.w3.org/2000/svg">
<path d="M51.6816 98.7194C25.8316 98.7194 4.87158 77.7694 4.87158 51.9094C4.87158 26.0494 25.8316 5.09937 51.6816 5.09937C77.5316 5.09937 98.4916 26.0594 98.4916 51.9094C98.4916 77.7594 77.5316 98.7194 51.6816 98.7194Z" fill="url(#paint0_linear_515_4172)"/>
<path fill-rule="evenodd" clip-rule="evenodd" d="M97.5815 51.9095C97.5815 77.2595 77.0315 97.8095 51.6815 97.8095C26.3315 97.8095 5.7815 77.2595 5.7815 51.9095C5.7815 26.5595 26.3315 6.00954 51.6815 6.00954C77.0315 6.00954 97.5815 26.5595 97.5815 51.9095ZM51.6815 2.26953C79.1015 2.26953 101.322 24.4895 101.322 51.9095C101.322 79.3295 79.0915 101.55 51.6815 101.55C24.2615 101.55 2.0415 79.3195 2.0415 51.9095C2.0415 24.4895 24.2615 2.26953 51.6815 2.26953Z" fill="#F2F1F0"/>
<path fill-rule="evenodd" clip-rule="evenodd" d="M94.7716 51.9093C94.7716 75.7093 75.4816 94.9993 51.6816 94.9993C27.8816 94.9993 8.59156 75.7093 8.59156 51.9093C8.59156 28.1093 27.8816 8.81935 51.6816 8.81935C75.4816 8.81935 94.7716 28.1093 94.7716 51.9093ZM51.6816 5.07935C77.5416 5.07935 98.5116 26.0493 98.5116 51.9093C98.5116 77.7693 77.5416 98.7394 51.6816 98.7394C25.8216 98.7394 4.85156 77.7693 4.85156 51.9093C4.85156 26.0493 25.8116 5.07935 51.6816 5.07935Z" fill="url(#paint1_linear_515_4172)"/>
<path opacity="0.15" d="M83.2594 64.6507H47.6895C46.2188 64.6489 44.7915 64.1523 43.6375 63.2405C42.4834 62.3288 41.6702 61.055 41.3282 59.6245C41.2121 60.1084 41.1411 59.2181 41.1411 59.7408C41.1428 61.4771 41.8332 63.1419 43.061 64.3696C44.2887 65.5974 45.9532 66.2878 47.6895 66.2895H83.2594C84.9957 66.2878 86.6608 65.5974 87.8886 64.3696C89.1164 63.1419 89.8067 61.4771 89.8084 59.7408C89.8084 59.2181 89.7374 60.1149 89.6213 59.6245C89.2793 61.055 88.4655 62.3288 87.3114 63.2405C86.1574 64.1523 84.7302 64.6489 83.2594 64.6507V64.6507Z" fill="#1F1D20"/>
<path d="M47.6898 64.651C46.0369 64.6528 44.4452 64.0276 43.2351 62.9016C42.0251 61.7757 41.2868 60.2327 41.1697 58.584C41.0527 56.9353 41.5656 55.3035 42.6044 54.0178C43.6432 52.7322 45.1308 51.8884 46.7673 51.6566C46.5019 50.6017 46.3654 49.5184 46.3609 48.4306C46.364 45.5142 47.3413 42.6826 49.1377 40.3851C50.9341 38.0876 53.4463 36.4558 56.2759 35.7493C59.1054 35.0428 62.09 35.302 64.7555 36.4855C67.421 37.6691 69.6147 39.7092 70.9882 42.282C72.1168 41.7359 73.3536 41.4513 74.6074 41.4496C76.7767 41.453 78.8563 42.3159 80.3909 43.8493C81.9254 45.3826 82.7902 47.4616 82.7953 49.6309C82.7899 50.3094 82.7057 50.9847 82.5439 51.6437C82.7903 51.617 83.0377 51.6063 83.2855 51.6115C84.1414 51.6021 84.9906 51.763 85.7837 52.0851C86.5769 52.4071 87.2981 52.8838 87.9052 53.4873C88.5123 54.0908 88.9936 54.8091 89.3204 55.6003C89.6471 56.3915 89.813 57.2397 89.8087 58.0957C89.807 59.8314 89.1162 61.4956 87.8882 62.7224C86.6603 63.9491 84.9954 64.6381 83.2596 64.6381L47.6898 64.651Z" fill="url(#paint2_linear_515_4172)"/>
<path opacity="0.6" d="M47.6898 64.651C46.0369 64.6528 44.4452 64.0276 43.2351 62.9016C42.0251 61.7757 41.2868 60.2327 41.1697 58.584C41.0527 56.9353 41.5656 55.3035 42.6044 54.0178C43.6432 52.7322 45.1308 51.8884 46.7673 51.6566C46.5019 50.6017 46.3654 49.5184 46.3609 48.4306C46.364 45.5142 47.3413 42.6826 49.1377 40.3851C50.9341 38.0876 53.4463 36.4558 56.2759 35.7493C59.1054 35.0428 62.09 35.302 64.7555 36.4855C67.421 37.6691 69.6147 39.7092 70.9882 42.282C72.1168 41.7359 73.3536 41.4513 74.6074 41.4496C76.7767 41.453 78.8563 42.3159 80.3909 43.8493C81.9254 45.3826 82.7902 47.4616 82.7953 49.6309C82.7899 50.3094 82.7057 50.9847 82.5439 51.6437C82.7903 51.617 83.0377 51.6063 83.2855 51.6115C84.1414 51.6021 84.9906 51.763 85.7837 52.0851C86.5769 52.4071 87.2981 52.8838 87.9052 53.4873C88.5123 54.0908 88.9936 54.8091 89.3204 55.6003C89.6471 56.3915 89.813 57.2397 89.8087 58.0957C89.807 59.8314 89.1162 61.4956 87.8882 62.7224C86.6603 63.9491 84.9954 64.6381 83.2596 64.6381L47.6898 64.651Z" fill="url(#paint3_linear_515_4172)"/>
<path d="M47.6898 64.651C46.0369 64.6528 44.4452 64.0276 43.2351 62.9016C42.0251 61.7757 41.2868 60.2327 41.1697 58.584C41.0527 56.9353 41.5656 55.3035 42.6044 54.0178C43.6432 52.7322 45.1308 51.8884 46.7673 51.6566C46.5019 50.6017 46.3654 49.5184 46.3609 48.4306C46.364 45.5142 47.3413 42.6826 49.1377 40.3851C50.9341 38.0876 53.4463 36.4558 56.2759 35.7493C59.1054 35.0428 62.09 35.302 64.7555 36.4855C67.421 37.6691 69.6147 39.7092 70.9882 42.282C72.1168 41.7359 73.3536 41.4513 74.6074 41.4496C76.7767 41.453 78.8563 42.3159 80.3909 43.8493C81.9254 45.3826 82.7902 47.4616 82.7953 49.6309C82.7899 50.3094 82.7057 50.9847 82.5439 51.6437C82.7903 51.617 83.0377 51.6063 83.2855 51.6115C84.1414 51.6021 84.9906 51.763 85.7837 52.0851C86.5769 52.4071 87.2981 52.8838 87.9052 53.4873C88.5123 54.0908 88.9936 54.8091 89.3204 55.6003C89.6471 56.3915 89.813 57.2397 89.8087 58.0957C89.807 59.8314 89.1162 61.4956 87.8882 62.7224C86.6603 63.9491 84.9954 64.6381 83.2596 64.6381L47.6898 64.651Z" stroke="white" stroke-miterlimit="10" stroke-linejoin="round"/>
<path opacity="0.25" d="M46.4642 49.979C46.4037 50.4758 46.3691 50.9753 46.3608 51.4758C46.3608 51.5596 46.3608 51.6436 46.3608 51.7275C46.4907 51.6971 46.6217 51.6731 46.754 51.6563C46.6202 51.1041 46.5237 50.544 46.4642 49.979Z" fill="url(#paint4_linear_515_4172)"/>
<path opacity="0.15" d="M59.4869 27.935L22.5494 27.6312C21.7459 27.6214 21.0991 28.2633 21.0991 29.0668L20.7023 77.2732C20.6925 78.0767 21.3343 78.7234 22.1378 78.7234L59.0753 79.0272C59.8788 79.037 60.5256 78.3952 60.5256 77.5917L60.9224 29.3852C60.9126 28.5964 60.2708 27.9448 59.4869 27.935Z" fill="#1F1D20"/>
<path d="M59.4918 26.4113L22.5543 26.1075C21.7508 26.0977 21.104 26.7396 21.104 27.5431L20.6974 75.7397C20.6876 76.5432 21.3294 77.19 22.1329 77.19L59.0704 77.4937C59.874 77.5035 60.5207 76.8617 60.5207 76.0582L60.9176 27.8518C60.9176 27.0678 60.2855 26.4211 59.4918 26.4113Z" fill="white"/>
<path fill-rule="evenodd" clip-rule="evenodd" d="M42.9559 20.8113C43.9995 21.3748 44.6071 22.4968 44.6022 23.6776V23.9666C44.6022 24.0744 44.5924 24.1675 44.5875 24.2802L46.856 24.2949C47.5321 24.3047 48.1641 24.6428 48.5022 25.2307C49.4478 26.9112 48.2474 28.6114 46.6698 28.5967L35.2196 28.5134C34.5435 28.5036 33.9114 28.1655 33.5734 27.5776C32.6278 25.897 33.8281 24.1969 35.4058 24.2116L37.5126 24.2263C37.5028 24.1234 37.5028 24.0254 37.5028 23.9127V23.8196C37.5322 21.2572 40.2563 19.3611 42.9559 20.8113Z" fill="#243A5E"/>
<path d="M41.0352 25.5098C41.8436 25.5196 42.5002 24.868 42.51 24.0596C42.5198 23.2512 41.8681 22.5946 41.0597 22.5848C40.2513 22.575 39.5948 23.2267 39.585 24.0351C39.585 24.8435 40.2219 25.5 41.0352 25.5098Z" fill="#019EDD"/>
<path opacity="0.15" d="M38.0543 36.366H25.5732V54.5185H38.0543V36.366Z" fill="#1F1D20"/>
<path d="M38.0543 36.0159H25.5732V54.1684H38.0543V36.0159Z" fill="url(#paint5_linear_515_4172)"/>
<path d="M35.7828 38.5759H27.8447V41.9759H35.7877V38.5759H35.7828Z" fill="#1F1D21"/>
<path d="M28.9786 44.2473H27.8447V45.3812H28.9786V44.2473Z" fill="#1F1D21"/>
<path d="M28.9786 47.6465H27.8447V48.7804H28.9786V47.6465Z" fill="#1F1D21"/>
<path d="M28.9786 51.0569H27.8447V52.1908H28.9786V51.0569Z" fill="#1F1D21"/>
<path d="M32.3834 44.2473H31.2495V45.3812H32.3834V44.2473Z" fill="#1F1D21"/>
<path d="M32.3834 47.6465H31.2495V48.7804H32.3834V47.6465Z" fill="#1F1D21"/>
<path d="M32.3834 51.0569H31.2495V52.1908H32.3834V51.0569Z" fill="#1F1D21"/>
<path d="M35.7833 44.2473H34.6494V45.3812H35.7833V44.2473Z" fill="#1F1D21"/>
<path d="M35.7833 47.6465H34.6494V48.7804H35.7833V47.6465Z" fill="#1F1D21"/>
<path d="M35.7833 51.0569H34.6494V52.1908H35.7833V51.0569Z" fill="#1F1D21"/>
<path d="M35.7828 38.2878H27.8447V41.6878H35.7877V38.2878H35.7828Z" fill="#C3F1FF"/>
<path d="M28.9786 43.959H27.8447V45.0929H28.9786V43.959Z" fill="#2BC0E4"/>
<path d="M28.9786 47.3589H27.8447V48.4928H28.9786V47.3589Z" fill="#057DD8"/>
<path d="M28.9786 50.7686H27.8447V51.9025H28.9786V50.7686Z" fill="#2056A3"/>
<path d="M32.3834 43.959H31.2495V45.0929H32.3834V43.959Z" fill="#2BC0E4"/>
<path d="M32.3834 47.3589H31.2495V48.4928H32.3834V47.3589Z" fill="#057DD8"/>
<path d="M32.3834 50.7686H31.2495V51.9025H32.3834V50.7686Z" fill="#2056A3"/>
<path d="M35.7833 43.959H34.6494V45.0929H35.7833V43.959Z" fill="#2BC0E4"/>
<path d="M35.7833 47.3589H34.6494V48.4928H35.7833V47.3589Z" fill="#057DD8"/>
<path d="M35.7833 50.7686H34.6494V51.9025H35.7833V50.7686Z" fill="#2056A3"/>
<path d="M57.603 54.3751L51.4796 50.8799L40.8274 56.9591L46.9508 60.4543L57.603 54.3751Z" fill="#50E6FF"/>
<path d="M43.4224 57.8407L45.4049 58.9738H45.411C46.2719 58.4822 47.6663 58.4762 48.5272 58.9678L54.984 55.2748C54.1292 54.7832 54.1292 53.9918 54.9962 53.5002C55.0022 53.5002 55.0022 53.4942 55.0083 53.4942L53.0258 52.3611C53.0197 52.3611 53.0197 52.3671 53.0137 52.3671C52.1527 52.8587 50.7644 52.8647 49.9095 52.3731L43.4466 56.0602C44.2954 56.5518 44.2893 57.3491 43.4224 57.8407Z" fill="#0078D4"/>
<path d="M47.2319 55.6789C47.2284 55.0531 48.1133 54.5411 49.2082 54.5352C50.3031 54.5293 51.1935 55.0319 51.1969 55.6577C51.2003 56.2835 50.3155 56.7955 49.2206 56.8014C48.1257 56.8073 47.2353 56.3047 47.2319 55.6789Z" fill="#50E6FF"/>
<path d="M46.9508 60.4539V62.2525L57.603 56.1733V54.3748L46.9508 60.4539Z" fill="#28AFE9"/>
<path d="M40.8273 56.959V58.7576L46.9507 62.2528V60.4542L40.8273 56.959Z" fill="#0078D4"/>
<path d="M40.8273 56.959V58.7576L46.9507 62.2528V60.4542L40.8273 56.959Z" fill="#0078D4"/>
<path d="M57.603 52.3378L51.4796 48.8425L40.8274 54.9217L46.9508 58.4169L57.603 52.3378Z" fill="#50E6FF"/>
<path d="M43.4224 55.8022L45.4049 56.9353H45.411C46.2719 56.4437 47.6663 56.4377 48.5272 56.9293L54.984 53.2362C54.1292 52.7446 54.1292 51.9532 54.9962 51.4616C55.0022 51.4616 55.0022 51.4556 55.0083 51.4556L53.0258 50.3225C53.0197 50.3225 53.0197 50.3285 53.0137 50.3285C52.1527 50.8201 50.7644 50.8261 49.9095 50.3345L43.4466 54.0216C44.2954 54.5132 44.2893 55.3106 43.4224 55.8022Z" fill="#0078D4"/>
<path d="M47.2319 53.6411C47.2284 53.0153 48.1133 52.5032 49.2082 52.4974C50.3031 52.4915 51.1935 52.994 51.1969 53.6198C51.2003 54.2456 50.3155 54.7577 49.2206 54.7636C48.1257 54.7694 47.2353 54.2669 47.2319 53.6411Z" fill="#50E6FF"/>
<path d="M46.9508 58.4156V60.2142L57.603 54.135V52.3364L46.9508 58.4156Z" fill="#28AFE9"/>
<path d="M40.8273 54.9199V56.7185L46.9507 60.2137V58.4152L40.8273 54.9199Z" fill="#0078D4"/>
<path d="M40.8273 54.9199V56.7185L46.9507 60.2137V58.4152L40.8273 54.9199Z" fill="#0078D4"/>
<path d="M57.603 50.2975L51.4796 46.8022L40.8274 52.8814L46.9508 56.3767L57.603 50.2975Z" fill="#50E6FF"/>
<path d="M43.4224 53.7631L45.4049 54.8962H45.411C46.2719 54.4046 47.6663 54.3986 48.5272 54.8902L54.984 51.1971C54.1292 50.7055 54.1292 49.9142 54.9962 49.4225C55.0022 49.4225 55.0022 49.4165 55.0083 49.4165L53.0258 48.2834C53.0197 48.2834 53.0197 48.2894 53.0137 48.2894C52.1527 48.7811 50.7644 48.787 49.9095 48.2954L43.4466 51.9825C44.2954 52.4741 44.2893 53.2715 43.4224 53.7631Z" fill="#E69F4E"/>
<path d="M47.2319 51.603C47.2284 50.9772 48.1133 50.4651 49.2082 50.4593C50.3031 50.4534 51.1935 50.9559 51.1969 51.5817C51.2003 52.2075 50.3155 52.7196 49.2206 52.7255C48.1257 52.7313 47.2353 52.2288 47.2319 51.603Z" fill="#50E6FF"/>
<path d="M46.9508 56.377V58.1756L57.603 52.0964V50.2979L46.9508 56.377Z" fill="#28AFE9"/>
<path d="M40.8273 52.8816V54.6802L46.9507 58.1754V56.3768L40.8273 52.8816Z" fill="#0078D4"/>
<path d="M40.8273 52.8816V54.6802L46.9507 58.1754V56.3768L40.8273 52.8816Z" fill="#0078D4"/>
<path d="M57.603 48.2596L51.4796 44.7644L40.8274 50.8436L46.9508 54.3388L57.603 48.2596Z" fill="#50E6FF"/>
<path d="M43.4224 51.7245L45.4049 52.8576H45.411C46.2719 52.366 47.6663 52.36 48.5272 52.8516L54.984 49.1586C54.1292 48.667 54.1292 47.8756 54.9962 47.384C55.0022 47.384 55.0022 47.378 55.0083 47.378L53.0258 46.2449C53.0197 46.2449 53.0197 46.2509 53.0137 46.2509C52.1527 46.7425 50.7644 46.7485 49.9095 46.2569L43.4466 49.9439C44.2954 50.4356 44.2893 51.2329 43.4224 51.7245Z" fill="#E69F4E"/>
<path d="M47.2319 49.5647C47.2284 48.9389 48.1133 48.4268 49.2082 48.4209C50.3031 48.4151 51.1935 48.9176 51.1969 49.5434C51.2003 50.1692 50.3155 50.6813 49.2206 50.6871C48.1257 50.693 47.2353 50.1905 47.2319 49.5647Z" fill="#50E6FF"/>
<path d="M40.8273 50.8438V52.6423L46.9507 56.1376V54.339L40.8273 50.8438Z" fill="#0078D4"/>
<path d="M40.8273 50.8438V52.6423L46.9507 56.1376V54.339L40.8273 50.8438Z" fill="#0078D4"/>
<path d="M57.603 46.2211L51.4796 42.7258L40.8274 48.805L46.9508 52.3002L57.603 46.2211Z" fill="#50E6FF"/>
<path d="M43.4224 49.6867L45.4049 50.8198H45.411C46.2719 50.3282 47.6663 50.3222 48.5272 50.8138L54.984 47.1207C54.1292 46.6291 54.1292 45.8377 54.9962 45.3461C55.0022 45.3461 55.0022 45.3401 55.0083 45.3401L53.0258 44.207C53.0197 44.207 53.0197 44.213 53.0137 44.213C52.1527 44.7046 50.7644 44.7106 49.9095 44.219L43.4466 47.9061C44.2954 48.3977 44.2893 49.1951 43.4224 49.6867Z" fill="#166BB3"/>
<path d="M47.2319 47.5261C47.2284 46.9003 48.1133 46.3882 49.2082 46.3824C50.3031 46.3765 51.1935 46.879 51.1969 47.5048C51.2003 48.1306 50.3155 48.6427 49.2206 48.6486C48.1257 48.6544 47.2353 48.1519 47.2319 47.5261Z" fill="#50E6FF"/>
<path d="M46.9508 54.3499V56.1485L57.603 50.0693V48.2708L46.9508 54.3499Z" fill="#28AFE9"/>
<path d="M40.8273 48.8052V50.6037L46.9507 54.099V52.3004L40.8273 48.8052Z" fill="#0078D4"/>
<path d="M40.8273 48.8052V50.6037L46.9507 54.099V52.3004L40.8273 48.8052Z" fill="#0078D4"/>
<path opacity="0.15" d="M57.603 56.745L51.4796 53.2498L40.8274 59.3289L46.9508 62.8242L57.603 56.745Z" fill="#1F1D20"/>
<path d="M57.603 54.3751L51.4796 50.8799L40.8274 56.9591L46.9508 60.4543L57.603 54.3751Z" fill="#50E6FF"/>
<path d="M43.4224 57.8407L45.4049 58.9738H45.411C46.2719 58.4822 47.6663 58.4762 48.5272 58.9678L54.984 55.2748C54.1292 54.7832 54.1292 53.9918 54.9962 53.5002C55.0022 53.5002 55.0022 53.4942 55.0083 53.4942L53.0258 52.3611C53.0197 52.3611 53.0197 52.3671 53.0137 52.3671C52.1527 52.8587 50.7644 52.8647 49.9095 52.3731L43.4466 56.0602C44.2954 56.5518 44.2893 57.3491 43.4224 57.8407Z" fill="#0078D4"/>
<path d="M47.2319 55.6789C47.2284 55.0531 48.1133 54.5411 49.2082 54.5352C50.3031 54.5293 51.1935 55.0319 51.1969 55.6577C51.2003 56.2835 50.3155 56.7955 49.2206 56.8014C48.1257 56.8073 47.2353 56.3047 47.2319 55.6789Z" fill="#50E6FF"/>
<path d="M46.9508 60.4539V62.2525L57.603 56.1733V54.3748L46.9508 60.4539Z" fill="#0078D4"/>
<path d="M40.8273 56.959V58.7576L46.9507 62.2528V60.4542L40.8273 56.959Z" fill="#0078D4"/>
<path d="M40.8273 56.959V58.7576L46.9507 62.2528V60.4542L40.8273 56.959Z" fill="#28AFE9"/>
<path d="M57.603 52.3378L51.4796 48.8425L40.8274 54.9217L46.9508 58.4169L57.603 52.3378Z" fill="#50E6FF"/>
<path d="M43.4224 55.8022L45.4049 56.9353H45.411C46.2719 56.4437 47.6663 56.4377 48.5272 56.9293L54.984 53.2362C54.1292 52.7446 54.1292 51.9532 54.9962 51.4616C55.0022 51.4616 55.0022 51.4556 55.0083 51.4556L53.0258 50.3225C53.0197 50.3225 53.0197 50.3285 53.0137 50.3285C52.1527 50.8201 50.7644 50.8261 49.9095 50.3345L43.4466 54.0216C44.2954 54.5132 44.2893 55.3106 43.4224 55.8022Z" fill="#0078D4"/>
<path d="M47.2319 53.6411C47.2284 53.0153 48.1133 52.5032 49.2082 52.4974C50.3031 52.4915 51.1935 52.994 51.1969 53.6198C51.2003 54.2456 50.3155 54.7577 49.2206 54.7636C48.1257 54.7694 47.2353 54.2669 47.2319 53.6411Z" fill="#50E6FF"/>
<path d="M46.9508 58.4156V60.2142L57.603 54.135V52.3364L46.9508 58.4156Z" fill="#0078D4"/>
<path d="M40.8273 54.9199V56.7185L46.9507 60.2137V58.4152L40.8273 54.9199Z" fill="#0078D4"/>
<path d="M40.8273 54.9199V56.7185L46.9507 60.2137V58.4152L40.8273 54.9199Z" fill="#28AFE9"/>
<path d="M57.603 50.2975L51.4796 46.8022L40.8274 52.8814L46.9508 56.3767L57.603 50.2975Z" fill="#50E6FF"/>
<path d="M43.4224 53.7631L45.4049 54.8962H45.411C46.2719 54.4046 47.6663 54.3986 48.5272 54.8902L54.984 51.1971C54.1292 50.7055 54.1292 49.9142 54.9962 49.4225C55.0022 49.4225 55.0022 49.4165 55.0083 49.4165L53.0258 48.2834C53.0197 48.2834 53.0197 48.2894 53.0137 48.2894C52.1527 48.7811 50.7644 48.787 49.9095 48.2954L43.4466 51.9825C44.2954 52.4741 44.2893 53.2715 43.4224 53.7631Z" fill="#E69F4E"/>
<path d="M47.2319 51.603C47.2284 50.9772 48.1133 50.4651 49.2082 50.4593C50.3031 50.4534 51.1935 50.9559 51.1969 51.5817C51.2003 52.2075 50.3155 52.7196 49.2206 52.7255C48.1257 52.7313 47.2353 52.2288 47.2319 51.603Z" fill="#50E6FF"/>
<path d="M46.9508 56.377V58.1756L57.603 52.0964V50.2979L46.9508 56.377Z" fill="#0078D4"/>
<path d="M40.8273 52.8816V54.6802L46.9507 58.1754V56.3768L40.8273 52.8816Z" fill="#0078D4"/>
<path d="M40.8273 52.8816V54.6802L46.9507 58.1754V56.3768L40.8273 52.8816Z" fill="#28AFE9"/>
<path d="M57.603 48.2596L51.4796 44.7644L40.8274 50.8436L46.9508 54.3388L57.603 48.2596Z" fill="#50E6FF"/>
<path d="M43.4224 51.7245L45.4049 52.8576H45.411C46.2719 52.366 47.6663 52.36 48.5272 52.8516L54.984 49.1586C54.1292 48.667 54.1292 47.8756 54.9962 47.384C55.0022 47.384 55.0022 47.378 55.0083 47.378L53.0258 46.2449C53.0197 46.2449 53.0197 46.2509 53.0137 46.2509C52.1527 46.7425 50.7644 46.7485 49.9095 46.2569L43.4466 49.9439C44.2954 50.4356 44.2893 51.2329 43.4224 51.7245Z" fill="#E69F4E"/>
<path d="M47.2319 49.5647C47.2284 48.9389 48.1133 48.4268 49.2082 48.4209C50.3031 48.4151 51.1935 48.9176 51.1969 49.5434C51.2003 50.1692 50.3155 50.6813 49.2206 50.6871C48.1257 50.693 47.2353 50.1905 47.2319 49.5647Z" fill="#50E6FF"/>
<path d="M40.8273 50.8438V52.6423L46.9507 56.1376V54.339L40.8273 50.8438Z" fill="#0078D4"/>
<path d="M40.8273 50.8438V52.6423L46.9507 56.1376V54.339L40.8273 50.8438Z" fill="#28AFE9"/>
<path d="M57.603 46.2211L51.4796 42.7258L40.8274 48.805L46.9508 52.3002L57.603 46.2211Z" fill="#50E6FF"/>
<path d="M43.4224 49.6867L45.4049 50.8198H45.411C46.2719 50.3282 47.6663 50.3222 48.5272 50.8138L54.984 47.1207C54.1292 46.6291 54.1292 45.8377 54.9962 45.3461C55.0022 45.3461 55.0022 45.3401 55.0083 45.3401L53.0258 44.207C53.0197 44.207 53.0197 44.213 53.0137 44.213C52.1527 44.7046 50.7644 44.7106 49.9095 44.219L43.4466 47.9061C44.2954 48.3977 44.2893 49.1951 43.4224 49.6867Z" fill="#166BB3"/>
<path d="M47.2319 47.5261C47.2284 46.9003 48.1133 46.3882 49.2082 46.3824C50.3031 46.3765 51.1935 46.879 51.1969 47.5048C51.2003 48.1306 50.3155 48.6427 49.2206 48.6486C48.1257 48.6544 47.2353 48.1519 47.2319 47.5261Z" fill="#50E6FF"/>
<path d="M46.9508 54.3499V56.1485L57.603 50.0693V48.2708L46.9508 54.3499Z" fill="#0078D4"/>
<path d="M40.8273 48.8052V50.6037L46.9507 54.099V52.3004L40.8273 48.8052Z" fill="#0078D4"/>
<path d="M40.8273 48.8052V50.6037L46.9507 54.099V52.3004L40.8273 48.8052Z" fill="#28AFE9"/>
<path d="M46.9508 52.2884V54.087L57.603 48.0078V46.2092L46.9508 52.2884Z" fill="#0078D4"/>
<path d="M36.7151 58.7233C36.7151 58.4298 36.4749 58.1843 36.1761 58.1843H27.8354C27.5419 58.1843 27.2964 58.4245 27.2964 58.7233C27.2964 59.0168 27.5365 59.2623 27.8354 59.2623H36.1761C36.4749 59.2623 36.7151 59.0221 36.7151 58.7233Z" fill="#50E6FF"/>
<path d="M29.3081 58.7232C29.3081 59.3156 29.7884 59.7958 30.3807 59.7958C30.973 59.7958 31.4533 59.3156 31.4533 58.7232C31.4533 58.1309 30.973 57.6506 30.3807 57.6506C29.7884 57.6506 29.3081 58.1309 29.3081 58.7232Z" fill="#0D3868"/>
<path d="M36.7151 61.4447C36.7151 61.1512 36.4749 60.9058 36.1761 60.9058H27.8354C27.5419 60.9058 27.2964 61.1459 27.2964 61.4447C27.2964 61.7382 27.5365 61.9837 27.8354 61.9837H36.1761C36.4749 61.9837 36.7151 61.7436 36.7151 61.4447Z" fill="#32B0E7"/>
<path d="M32.5312 61.4449C32.5312 62.0373 33.0115 62.5175 33.6039 62.5175C34.1909 62.5175 34.6765 62.0373 34.6765 61.4449C34.6765 60.8526 34.1962 60.3723 33.6039 60.3723C33.0169 60.3723 32.5312 60.8526 32.5312 61.4449Z" fill="#0D3868"/>
<path d="M36.7151 64.3266C36.7151 64.0331 36.4749 63.7876 36.1761 63.7876H27.8354C27.5419 63.7876 27.2964 64.0277 27.2964 64.3266C27.2964 64.6254 27.5365 64.8655 27.8354 64.8655H36.1761C36.4749 64.8655 36.7151 64.6254 36.7151 64.3266Z" fill="#185A97"/>
<path d="M29.3457 64.3265C29.3457 64.9188 29.826 65.3991 30.4183 65.3991C31.0106 65.3991 31.4909 64.9188 31.4909 64.3265C31.4909 63.7342 31.0106 63.2539 30.4183 63.2539C29.826 63.2539 29.3457 63.7342 29.3457 64.3265Z" fill="#0D3868"/>
<defs>
<linearGradient id="paint0_linear_515_4172" x1="49.9077" y1="-12.8801" x2="53.8897" y2="132.89" gradientUnits="userSpaceOnUse">
<stop stop-color="#00ABDE"/>
<stop offset="1" stop-color="#007ED8"/>
</linearGradient>
<linearGradient id="paint1_linear_515_4172" x1="3.11196" y1="-19.7133" x2="98.6395" y2="121.168" gradientUnits="userSpaceOnUse">
<stop stop-color="#007ED8"/>
<stop offset="0.7065" stop-color="#002D4C"/>
</linearGradient>
<linearGradient id="paint2_linear_515_4172" x1="65.481" y1="35.3596" x2="65.481" y2="64.651" gradientUnits="userSpaceOnUse">
<stop stop-color="#00ABDE"/>
<stop offset="1" stop-color="#007ED8"/>
</linearGradient>
<linearGradient id="paint3_linear_515_4172" x1="64.407" y1="14.8543" x2="65.691" y2="66.9609" gradientUnits="userSpaceOnUse">
<stop offset="0.57" stop-color="white" stop-opacity="0"/>
<stop offset="0.78" stop-color="white" stop-opacity="0.43"/>
<stop offset="0.9" stop-color="white" stop-opacity="0.5"/>
<stop offset="1" stop-color="white"/>
</linearGradient>
<linearGradient id="paint4_linear_515_4172" x1="3434.53" y1="9789.45" x2="3449.83" y2="9649.83" gradientUnits="userSpaceOnUse">
<stop offset="0.57" stop-color="white" stop-opacity="0"/>
<stop offset="0.78" stop-color="white" stop-opacity="0.43"/>
<stop offset="0.9" stop-color="white" stop-opacity="0.5"/>
<stop offset="1" stop-color="white"/>
</linearGradient>
<linearGradient id="paint5_linear_515_4172" x1="16.9872" y1="30.5408" x2="22.5813" y2="57.712" gradientUnits="userSpaceOnUse">
<stop stop-color="#007ED8"/>
<stop offset="0.886694" stop-color="#002D4C"/>
</linearGradient>
</defs>
</svg>
