<svg width="181" height="191" viewBox="0 0 181 191" fill="none" xmlns="http://www.w3.org/2000/svg">
<path d="M90.4817 189.845C93.5417 189.845 96.5517 188.995 99.2117 187.375L161.182 149.715C166.722 146.345 170.152 140.015 170.152 133.175V58.4648C170.152 51.6448 166.722 45.3048 161.182 41.9248L99.2117 4.26479C93.8817 1.02479 87.0617 1.04479 81.7617 4.26479L19.7917 41.9448C14.2517 45.3148 10.8017 51.6448 10.8017 58.4848V133.185C10.8017 138.945 13.2517 144.365 17.3517 147.935V147.965L81.7617 187.395C84.4017 188.995 87.4217 189.845 90.4817 189.845ZM91.1317 8.79479C93.0817 8.79479 95.5617 10.0048 97.2717 11.0548L158.032 48.2448C161.782 50.5248 163.902 57.1248 163.902 61.8748L163.272 133.175C163.272 137.925 160.072 142.195 156.322 144.475L95.9217 180.855C92.4917 182.945 89.7017 182.945 86.2617 180.855L25.0517 144.385C21.3017 142.105 18.2817 137.905 18.2817 133.175V59.5348C18.2817 54.7948 21.0117 49.9048 24.7817 47.6148L85.3617 11.0548C87.0617 10.0148 89.1817 8.79479 91.1317 8.79479Z" fill="#F2F1F0"/>
<path fill-rule="evenodd" clip-rule="evenodd" d="M98.3817 12.3745C95.9317 10.8745 93.2117 10.1245 90.4817 10.1245C87.7517 10.1245 85.0317 10.8845 82.5817 12.3745L26.4517 46.7045C21.4317 49.7745 18.3217 55.5245 18.3217 61.7745V129.875C18.3217 136.105 21.4217 141.875 26.4517 144.945L82.5817 179.275C85.0317 180.775 87.7517 181.525 90.4817 181.525C93.2117 181.525 95.9317 180.785 98.3817 179.275L154.512 144.945C159.532 141.875 162.642 136.105 162.642 129.875V61.7745C162.642 55.5445 159.542 49.7945 154.512 46.7045L98.3817 12.3745Z" fill="url(#paint0_linear_624_1346)"/>
<path fill-rule="evenodd" clip-rule="evenodd" d="M90.4817 11.5947C92.1617 11.5947 94.0517 12.4647 96.1117 13.7147L154.582 49.2547C158.232 51.4747 160.642 55.7447 160.642 60.5747V131.055C160.642 135.875 158.232 140.155 154.582 142.375L96.1217 177.915C94.1617 179.105 92.2417 179.855 90.4917 179.855C88.7417 179.855 86.8217 179.105 84.8617 177.915L26.3817 142.385C24.3717 141.155 22.9217 139.955 21.9417 138.345C20.9617 136.745 20.3217 134.525 20.3217 131.065V60.5847C20.3217 55.7547 22.7317 51.4847 26.3817 49.2647L84.8417 13.7247C86.9317 12.4747 88.7917 11.5947 90.4817 11.5947ZM98.1917 181.345L156.652 145.805C161.572 142.815 164.632 137.195 164.632 131.065V60.5847C164.632 54.4547 161.572 48.8347 156.652 45.8447L98.1917 10.3047C96.0817 9.02473 93.3717 7.59473 90.4817 7.59473C87.5817 7.59473 84.8717 9.03473 82.7817 10.2947H82.7717L24.3017 45.8447C19.3817 48.8347 16.3217 54.4547 16.3217 60.5847V131.065C16.3217 135.025 17.0617 138.015 18.5217 140.425C19.9817 142.825 22.0417 144.425 24.3017 145.795L82.7617 181.335C84.9817 182.685 87.6517 183.865 90.4717 183.865C93.2917 183.865 95.9717 182.695 98.1917 181.345Z" fill="url(#paint1_linear_624_1346)"/>
<path opacity="0.15" d="M153.653 128.798C156.946 130.658 156.946 133.66 153.653 135.52L96.9094 168.532C93.7703 170.392 88.4815 170.392 85.1888 168.532L26.5683 134.667C23.2756 132.807 23.2756 129.805 26.5683 127.945L83.3121 94.9326C86.4512 93.0729 91.7401 93.0729 95.0328 94.9326L153.653 128.798Z" fill="#1F1D20"/>
<path d="M153.653 127.716V127.853L97.046 160.729C93.7532 162.588 88.618 162.588 85.3253 160.729L26.7219 126.863V127C25.1523 125.993 24.1116 128.454 24.1116 127.174L24.1116 129.661C24.1116 130.941 25.1523 132.101 26.7219 133.09L85.3253 166.819C88.618 168.679 93.9068 168.679 97.046 166.819L153.653 133.944C155.223 133.09 156.093 131.657 156.093 130.514V127.817C156.076 129.113 155.359 126.863 153.653 127.716Z" fill="#989899"/>
<path d="M153.654 124.204C156.946 126.063 156.946 129.066 153.654 130.925L96.9099 163.938C93.7707 165.797 88.4819 165.797 85.1892 163.938L26.5687 130.072C24.8797 129.117 24.0437 127.854 24.112 126.609C24.1631 125.432 24.9821 124.255 26.5687 123.368L83.3125 90.3381C86.4517 88.4785 91.7405 88.4785 95.0332 90.3381L153.654 124.204Z" fill="#CDCDD0"/>
<path d="M83.4232 156.56L83.7815 156.697L142.01 123.224L141.651 123.087L83.4232 156.56Z" fill="white"/>
<path d="M76.9913 152.875L77.3496 153.012L135.595 119.521L135.236 119.385L76.9913 152.875Z" fill="white"/>
<path d="M70.5594 149.105L70.9177 149.241L129.163 115.751L128.805 115.615L70.5594 149.105Z" fill="white"/>
<path d="M64.1276 145.368L64.4858 145.505L122.731 112.015L122.373 111.878L64.1276 145.368Z" fill="white"/>
<path d="M57.7128 141.683L58.071 141.82L116.35 108.33L115.992 108.193L57.7128 141.683Z" fill="white"/>
<path d="M51.2809 137.947L51.6392 138.083L109.918 104.593L109.56 104.457L51.2809 137.947Z" fill="white"/>
<path d="M44.849 134.262L45.2073 134.398L103.487 100.908L103.128 100.772L44.849 134.262Z" fill="white"/>
<path d="M38.5024 130.509L38.8607 130.645L97.0376 97.1379L96.6793 97.0015L38.5024 130.509Z" fill="white"/>
<path d="M32.1047 126.738L32.4629 126.875L90.6569 93.4528L90.3669 93.2651L32.1047 126.738Z" fill="white"/>
<path d="M96.6111 156.356L96.3382 156.543L38.5878 123.36L38.8266 123.122L96.6111 156.356Z" fill="white"/>
<path d="M103.077 152.602L102.924 152.875L45.0196 119.658L45.2414 119.436L103.077 152.602Z" fill="white"/>
<path d="M109.475 148.917L109.253 149.156L51.4174 115.922L51.7756 115.786L109.475 148.917Z" fill="white"/>
<path d="M116.043 145.283L115.685 145.42L57.781 112.151L58.1393 112.015L116.043 145.283Z" fill="white"/>
<path d="M122.475 141.547L122.117 141.683L64.2129 108.415L64.5712 108.279L122.475 141.547Z" fill="white"/>
<path d="M128.89 137.862L128.532 137.998L70.6448 104.73L71.003 104.594L128.89 137.862Z" fill="white"/>
<path d="M135.322 134.125L134.964 134.262L77.0767 100.994L77.4349 100.857L135.322 134.125Z" fill="white"/>
<path d="M141.754 130.423L141.395 130.56L83.4744 97.2915L83.8327 97.155L141.754 130.423Z" fill="white"/>
<path d="M148.186 126.687L147.81 126.824L90.0427 93.47L90.401 93.3335L148.186 126.687Z" fill="white"/>
<path d="M89.7698 160.091L90.128 160.228L148.322 126.772L148.032 126.618L89.7698 160.091Z" fill="white"/>
<path d="M90.2304 160.177L89.9404 160.365L31.9 126.823L32.2241 126.67L90.2304 160.177Z" fill="white"/>
<path opacity="0.5" d="M41.5004 84.2978L96.2346 70.9321L110.029 62.7358L34.5066 73.1989L41.5004 84.2978Z" stroke="#50E6FF" stroke-width="0.451555" stroke-miterlimit="10" stroke-linejoin="round"/>
<path opacity="0.5" d="M82.4405 47.1034V63.0814L41.5696 84.2978L96.1655 38.8933L82.4405 47.1034Z" stroke="#50E6FF" stroke-width="0.451555" stroke-miterlimit="10" stroke-linejoin="round"/>
<path d="M36.3311 73.1989C36.3311 72.2037 35.5571 71.4297 34.5619 71.4297C33.5667 71.4297 32.7927 72.2037 32.7927 73.1989C32.7927 74.194 33.5667 74.9681 34.5619 74.9681C35.488 74.9681 36.3311 74.1802 36.3311 73.1989Z" fill="#50E6FF"/>
<path d="M84.2096 47.1725C84.2096 46.1773 83.4356 45.4033 82.4405 45.4033C81.4453 45.4033 80.6713 46.1773 80.6713 47.1725C80.6713 48.1677 81.4453 48.9417 82.4405 48.9417C83.4356 49.0108 84.2096 48.1677 84.2096 47.1725Z" fill="#50E6FF"/>
<path d="M43.2696 84.3668C43.2696 83.3717 42.4956 82.5977 41.5004 82.5977C40.5053 82.5977 39.7313 83.3717 39.7313 84.3668C39.7313 85.362 40.5053 86.136 41.5004 86.136C42.4818 86.2051 43.2696 85.362 43.2696 84.3668Z" fill="#50E6FF"/>
<path d="M84.2096 63.0123C84.2096 62.0172 83.4356 61.2432 82.4405 61.2432C81.4453 61.2432 80.6713 62.0172 80.6713 63.0123C80.6713 64.0075 81.4453 64.7815 82.4405 64.7815C83.3665 64.8506 84.2096 64.0075 84.2096 63.0123Z" fill="#50E6FF"/>
<path d="M136.539 62.8739C136.539 61.8788 135.765 61.1047 134.77 61.1047C133.775 61.1047 133 61.8788 133 62.8739C133 63.8691 133.775 64.6431 134.77 64.6431C135.765 64.6431 136.539 63.8553 136.539 62.8739Z" fill="#50E6FF"/>
<path d="M115.613 59.695C115.613 58.6998 114.839 57.9258 113.844 57.9258C112.848 57.9258 112.074 58.6998 112.074 59.695C112.074 60.6901 112.848 61.4642 113.844 61.4642C114.839 61.4642 115.613 60.6763 115.613 59.695Z" fill="#50E6FF"/>
<path d="M98.1017 39.1703C98.1017 38.1751 97.3277 37.4011 96.3326 37.4011C95.2683 37.4011 94.4943 38.1751 94.4943 39.1703C94.4943 40.1655 95.2683 40.9395 96.2635 40.9395C97.2586 41.0086 98.1017 40.1517 98.1017 39.1703Z" fill="#50E6FF"/>
<path d="M111.284 62.1239C111.284 61.1288 110.51 60.3547 109.515 60.3547C108.52 60.3547 107.746 61.1288 107.746 62.1239C107.746 63.1191 108.52 63.8931 109.515 63.8931C110.51 63.8931 111.284 63.1053 111.284 62.1239Z" fill="#50E6FF"/>
<path d="M97.4208 70.1129C97.4208 69.1178 96.6468 68.3438 95.6516 68.3438C94.6565 68.3438 93.8824 69.1178 93.8824 70.1129C93.8824 71.1081 94.6565 71.8821 95.6516 71.8821C96.5777 71.9512 97.4208 71.1081 97.4208 70.1129Z" fill="#50E6FF"/>
<path d="M59.6988 125.521L59.6435 129.737L35.8148 115.956L35.8701 111.796L59.6988 125.521Z" fill="#50E6FF"/>
<path d="M59.6988 116.205V120.365L35.8701 106.64V102.48L59.6988 116.205Z" fill="white"/>
<path d="M48.9593 101.029C40.224 95.9838 33.1472 83.7101 33.1472 73.6202C33.2025 63.5303 40.2792 59.4667 49.0699 64.5117C54.8888 67.898 59.8923 74.0763 62.7534 81.5677L60.2102 81.7751C58.0264 76.0529 53.866 70.69 49.0837 67.9395C41.9517 63.8344 36.1327 67.1102 36.1327 75.3203C36.1327 83.5304 41.8549 93.5236 48.987 97.6286V101.029H48.9593Z" fill="url(#paint2_linear_624_1346)"/>
<path d="M60.5557 134.878V139.039L36.727 125.314V121.098L60.5557 134.878Z" fill="#2BC0E4"/>
<path d="M48.9593 101.029V97.601C56.1328 101.761 61.9103 98.4303 61.9656 90.2616C61.9656 87.5526 61.3436 84.65 60.2517 81.8304L62.0209 81.6783L62.7949 81.623L62.0209 81.6783L62.7949 81.623C65.7113 89.1144 65.656 95.7765 62.7396 99.8816C59.7817 103.987 54.7782 104.401 48.9593 101.029Z" fill="#50E6FF"/>
<path d="M62.9917 46.3264L64.5316 45.4088C66.2949 44.3412 68.8334 44.5052 71.5115 46.1241C71.6652 46.2078 71.7455 46.2776 71.8991 46.3578C73.3552 47.2021 73.3098 47.1324 74.6855 48.0604L74.9684 50.0212C73.5926 49.0931 71.8083 48.0499 70.3628 47.2021C70.2091 47.1184 70.1288 47.0486 69.9752 46.9684C67.2097 45.4926 64.755 45.3286 62.9917 46.3264Z" fill="#D5F9FD"/>
<path d="M81.2639 25.4978L82.8038 24.5837C87.3395 21.988 93.6282 22.3996 100.524 26.4049L98.9845 27.3225C92.0883 23.23 85.7997 22.8323 81.2639 25.4978Z" fill="#D5F9FD"/>
<path d="M98.8797 27.27L100.42 26.356C107.927 30.7485 114.648 38.5217 119.223 47.2684L117.683 48.1859C113.109 39.4323 106.387 31.6591 98.8797 27.27Z" fill="#D5F9FD"/>
<path d="M151.008 111.443L149.185 112.49C150.948 111.502 152.31 109.154 152.324 106.077C152.349 99.8669 148.001 92.2576 142.558 89.1002C142.17 88.8664 141.793 88.6431 141.336 88.4059C140.641 88.0186 139.785 87.5023 138.937 87.115L140.407 86.1172C141.172 86.5742 142.195 87.1045 142.876 87.4918C143.333 87.7256 143.721 87.9489 144.098 88.1861C149.538 91.3435 153.885 98.9528 153.864 105.163C153.861 108.226 152.782 110.445 151.008 111.443Z" fill="#D5F9FD"/>
<path d="M117.644 48.0881L119.184 47.1706C121.559 47.031 124.247 47.7218 127.083 49.4244C136.035 54.6717 143.288 67.2701 143.253 77.6146C143.242 81.2884 142.254 84.2714 140.634 86.2671L138.885 87.2893C140.505 85.3041 141.552 82.3002 141.563 78.5427C141.598 68.1981 134.583 55.5893 125.546 50.3524C122.711 48.6499 119.949 47.9451 117.644 48.0881Z" fill="#D5F9FD"/>
<g opacity="0.3">
<path opacity="0.3" d="M98.9356 27.1409C106.446 31.5334 113.168 39.3066 117.739 48.0533C120.113 47.9137 122.802 48.6045 125.637 50.3071C134.59 55.5544 141.842 68.1528 141.807 78.4973C141.797 82.1711 140.868 85.0844 139.244 87.0695C140.009 87.5266 140.774 87.9139 141.465 88.3011C141.922 88.5349 142.31 88.7582 142.687 88.9954C148.127 92.1528 152.474 99.7621 152.454 105.972C152.429 112.183 147.977 114.695 142.617 111.537C137.858 108.767 73.9662 72.0743 69.9123 69.7612C64.4721 66.6037 60.3938 58.6665 60.4043 52.4528C60.4287 46.2425 64.8842 43.7305 70.2405 46.888C70.3941 46.9717 70.4744 47.0415 70.6281 47.1217C72.0841 47.9661 73.5437 48.8139 74.9159 49.7419C74.3154 46.9019 74.0116 44.0725 74.022 41.3825C74.0011 25.5185 85.2236 19.1897 98.9356 27.1409Z" fill="white"/>
</g>
<path d="M87.7865 23.8301V24.5942C91.1595 24.6047 94.7665 25.77 98.5969 27.9296C105.717 32.0988 112.438 39.5546 117.093 48.535C117.246 48.7687 117.48 48.9222 117.788 48.9222C117.788 48.9222 117.788 48.9222 117.871 48.9222C118.025 48.9222 118.259 48.9222 118.413 48.9222C120.563 48.9327 122.854 49.627 125.309 51.0958C134.017 56.1931 141.112 68.5542 141.077 78.5953C141.067 81.9655 140.208 84.7252 138.668 86.6371C138.515 86.7907 138.434 87.0244 138.515 87.2477C138.584 87.4815 138.668 87.635 138.892 87.7885C139.656 88.2455 140.421 88.6328 141.032 89.0201L141.727 89.4073L142.268 89.7143C147.474 92.7218 151.668 100.024 151.647 106C151.636 109.828 149.779 112.2 146.947 112.19C145.725 112.19 144.339 111.719 142.963 110.944L70.2649 69.1753C65.0588 66.1678 61.1236 58.5376 61.1445 52.5612C61.155 48.7338 63.0126 46.3614 65.8444 46.3719C67.0665 46.3719 68.4527 46.8429 69.8285 47.6174L69.9821 47.7011L70.2161 47.8546C71.7419 48.7827 73.1317 49.5468 74.4236 50.4015C74.5772 50.4853 74.7309 50.555 74.881 50.555C75.0312 50.555 75.1848 50.4853 75.3384 50.4015C75.5724 50.248 75.726 49.9445 75.6457 49.6375C75.0451 46.7975 74.7414 44.0378 74.7518 41.4316C74.7867 31.0068 79.8742 24.5837 87.8528 24.6047L87.7865 23.8301ZM87.7865 23.8301C79.6542 23.8057 73.9557 30.2183 73.9208 41.4176C73.9103 44.1076 74.2036 46.9371 74.8147 49.777C73.4389 48.849 71.9829 48.0047 70.5268 47.1604C70.3732 47.0766 70.2929 47.0068 70.1392 46.9266C68.5295 45.9986 67.0735 45.5415 65.7676 45.531C62.5482 45.5206 60.3135 48.043 60.2925 52.4949C60.2681 58.7051 64.3569 66.6423 69.8005 69.8033C73.8545 72.1164 137.746 108.879 142.492 111.579C144.101 112.507 145.557 112.964 146.863 112.975C150.083 112.985 152.317 110.463 152.338 106.011C152.363 99.8007 148.016 92.2019 142.572 89.034C142.184 88.8003 141.807 88.577 141.35 88.3397C140.655 87.9525 139.974 87.4954 139.129 87.1081C140.749 85.123 141.678 82.283 141.692 78.5255C141.727 68.1809 134.558 55.5825 125.522 50.3352C122.913 48.7966 120.385 48.0919 118.234 48.0919C118.001 48.0919 117.847 48.0919 117.623 48.0919C113.123 39.3313 106.401 31.572 98.8204 27.1795C94.99 24.9326 91.1595 23.8406 87.7865 23.8301Z" fill="white"/>
<path opacity="0.25" d="M157.492 64.5733C160.89 41.8188 128.549 23.8545 112.92 15.694C91.6169 4.56094 57.8657 23.4289 57.9844 35.4167C58.0298 39.7743 58.0194 45.8066 60.4985 53.9566C62.9427 61.4368 64.2591 64.7129 68.2676 68.2227C70.0659 69.8067 72.5694 70.8045 73.5786 71.3697L109.77 92.645C115.647 95.9106 148.148 117.632 150.666 111.398L154.685 100.502C154.954 99.8216 153.84 102.592 153.487 103.649C154.367 98.8936 156.06 74.1643 157.492 64.5733Z" fill="url(#paint3_linear_624_1346)"/>
<path d="M110.161 62.7131V104.351L113.965 106.548V106.153L114.03 64.9104L110.161 62.7131Z" fill="#1D4A79"/>
<path d="M114.951 68.2871V70.5232L114.938 70.9575L114.925 74.8464V75.2613L114.912 79.1308V79.565L114.899 106.697V107.105L118.703 109.289V108.894L118.716 105.005V104.564L118.729 77.452V77.0372L118.742 73.1483V72.714L118.755 70.4779L114.951 68.2871Z" fill="#185A96"/>
<path d="M119.682 76.5254L119.669 77.5819V77.9967L119.656 89.683V90.1172L119.643 109.432V109.828L123.448 112.025V111.63L123.461 92.3145V91.8802L123.474 80.194V79.7791V78.7226L119.682 76.5254Z" fill="#156AB2"/>
<path d="M124.42 84.9385L124.407 88.1339V88.5487L124.394 107.844V108.279L124.381 112.168V112.563L128.186 114.76V114.365L128.199 110.476V110.042L128.212 90.746V90.3311L128.225 87.1357L124.42 84.9385Z" fill="#0078D3"/>
<path d="M129.327 81.6133V81.7624V82.1966L129.314 86.0856V86.5198L129.301 90.3893V90.8041L129.288 114.987V115.395L133.079 117.592V117.184L133.092 93.0014V92.5671L133.105 88.6976V88.2763L133.118 84.3874V83.9531L133.131 83.804L129.327 81.6133Z" fill="#2194DB"/>
<path d="M134.058 87.667V88.8207V89.255L134.045 93.1245V113.84L134.032 117.728V118.163L137.824 120.36V119.926L137.837 116.037V115.603L137.85 91.4393V91.0244L137.863 89.8707L134.058 87.667Z" fill="#32AFE6"/>
<path d="M138.79 97.4089V100.721L138.777 101.142V120.457L138.764 120.866L142.568 123.05V122.655L142.581 103.34V102.918L142.594 99.6062L138.79 97.4089Z" fill="#45C9F1"/>
<path d="M143.534 105.193L143.521 106.334V106.749L143.508 123.199V123.607L147.365 125.792V125.396V107.378L143.534 105.193Z" fill="#50E5FF"/>
<path d="M124.014 68.54L85.9962 46.6735C85.8449 46.5861 85.6731 46.54 85.4984 46.54C85.3236 46.54 85.1519 46.5861 85.0005 46.6735L79.285 49.9923C79.4364 49.9049 79.6081 49.8588 79.7829 49.8588C79.9576 49.8588 80.1294 49.9049 80.2807 49.9923L115.828 73.6287C116.602 74.0712 117.118 73.9607 117.118 74.8457L119.404 139.044C119.415 139.214 119.383 139.383 119.312 139.537C119.242 139.692 119.134 139.826 118.999 139.929L124.678 136.573C124.821 136.479 124.935 136.345 125.007 136.189C125.078 136.032 125.105 135.859 125.083 135.689V70.937C125.096 70.4828 125.007 70.0313 124.822 69.6163C124.637 69.2013 124.361 68.8335 124.014 68.54V68.54Z" fill="url(#paint4_linear_624_1346)"/>
<path d="M118.298 71.8588C118.709 72.1232 119.051 72.482 119.294 72.9054C119.538 73.3288 119.677 73.8044 119.7 74.2924V139.044C119.729 139.217 119.704 139.396 119.628 139.554C119.551 139.712 119.427 139.843 119.274 139.928C119.12 140.013 118.943 140.048 118.768 140.029C118.594 140.009 118.429 139.936 118.298 139.818L80.3912 117.952C79.9931 117.683 79.6606 117.328 79.4181 116.913C79.1755 116.498 79.0291 116.034 78.99 115.555L79.1745 50.8034C79.1745 49.8816 79.8383 49.5498 80.5758 49.9923L118.298 71.8588Z" fill="url(#paint5_linear_624_1346)"/>
<path d="M87.6924 84.2484L89.9417 83.769V88.0096L88.9092 88.5996L87.6924 84.2484Z" fill="#1CB8D1"/>
<path d="M85.2218 82.2201L86.2543 81.6301L89.9417 83.7688L87.9874 84.9488L85.2218 82.2201Z" fill="#5DDFF4"/>
<path d="M88.9092 84.3584V88.599L85.2218 86.4972V82.2197L88.9092 84.3584Z" fill="#2BC0E4"/>
<path d="M99.4553 90.9597L101.041 90.1853V94.4259L100.008 95.0159L99.4553 90.9597Z" fill="#1CB8D1"/>
<path d="M96.321 88.6361L97.3535 88.0461L101.041 90.1849L99.0128 91.2911L96.321 88.6361Z" fill="#5DDFF4"/>
<path d="M100.008 90.7747V95.0153L96.2841 92.8766L96.321 88.636L100.008 90.7747Z" fill="#2BC0E4"/>
<path d="M85.2955 60.9804L86.328 60.3904L112.177 75.3245L110.85 82.6626L85.2955 60.9804Z" fill="#EFEFEF"/>
<path d="M109.08 77.1684L112.177 75.3247L112.14 88.0464L111.108 88.6364L109.08 77.1684Z" fill="#E5E5E5"/>
<path d="M111.145 75.951L111.108 88.6358L85.2587 73.7017L85.2955 60.98L111.145 75.951Z" fill="white"/>
<path d="M88.2456 97.228L89.905 96.4905V100.731L88.8725 101.321L88.2456 97.228Z" fill="#006EB2"/>
<path d="M85.185 94.9416L86.2175 94.3516L89.9049 96.4903L88.0243 97.5965L85.185 94.9416Z" fill="#0E91E2"/>
<path d="M88.8724 97.0799V101.32L85.185 99.1817V94.9412L88.8724 97.0799Z" fill="#057DD8"/>
<path d="M88.1718 109.802L89.868 109.249V113.49L88.8355 114.08L88.1718 109.802Z" fill="#114789"/>
<path d="M85.1481 107.7L86.1806 107.11L89.868 109.249L87.9874 110.355L85.1481 107.7Z" fill="#2B6CBA"/>
<path d="M88.8355 109.838V114.079L85.1481 111.977V107.7L88.8355 109.838Z" fill="#2056A3"/>
<path d="M99.4554 103.46L101.004 102.87V107.11L99.9716 107.737L99.4554 103.46Z" fill="#006EB2"/>
<path d="M96.2842 101.358L97.3167 100.731L101.004 102.869L99.0866 103.976L96.2842 101.358Z" fill="#0E91E2"/>
<path d="M99.9716 103.496V107.737L96.2473 105.598L96.2842 101.357L99.9716 103.496Z" fill="#057DD8"/>
<path d="M99.3079 116.329L100.967 115.665V119.906L99.9348 120.496L99.3079 116.329Z" fill="#114789"/>
<path d="M96.2473 114.116L97.2798 113.526L100.967 115.665L99.3079 116.624L96.2473 114.116Z" fill="#2B6CBA"/>
<path d="M99.9348 116.254V120.495L96.2104 118.356L96.2473 114.116L99.9348 116.254Z" fill="#2056A3"/>
<path d="M109.78 97.0069L112.14 96.5645V100.805L111.071 101.432L109.78 97.0069Z" fill="#1CB8D1"/>
<path d="M107.383 95.0524L108.453 94.4255L112.14 96.5643L110.075 97.818L107.383 95.0524Z" fill="#5DDFF4"/>
<path d="M111.108 97.1907L111.071 101.431L107.383 99.2926V95.052L111.108 97.1907Z" fill="#2BC0E4"/>
<path d="M110.333 109.839L112.103 109.286V113.526L111.034 114.153L110.333 109.839Z" fill="#006EB2"/>
<path d="M107.346 107.737L108.416 107.147L112.103 109.286L110.075 110.503L107.346 107.737Z" fill="#0E91E2"/>
<path d="M111.071 109.875L111.034 114.153L107.346 112.014V107.737L111.071 109.875Z" fill="#057DD8"/>
<path d="M110.186 122.45L112.067 122.044V126.285L110.997 126.912L110.186 122.45Z" fill="#114789"/>
<path d="M107.347 120.532L108.379 119.905L112.066 122.044L110.186 123.15L107.347 120.532Z" fill="#2B6CBA"/>
<path d="M111.034 122.671L110.997 126.911L107.31 124.773L107.347 120.532L111.034 122.671Z" fill="#2056A3"/>
<path d="M117.835 117.824C116.799 117.07 115.581 116.606 114.307 116.479C113.032 116.352 111.746 116.566 110.582 117.101L107.898 118.662C109.802 117.596 110.201 120.337 113.038 121.974C118.749 125.21 120.272 129.588 120.253 136.061C120.253 139.278 124.06 142.381 122.309 143.447L124.993 141.886C126.023 141.163 126.841 140.179 127.363 139.035C127.885 137.89 128.092 136.627 127.962 135.375C127.779 131.858 126.766 128.434 125.006 125.384C123.246 122.333 120.789 119.742 117.835 117.824V117.824Z" fill="url(#paint6_linear_624_1346)"/>
<path d="M115.227 119.442C118.181 121.361 120.638 123.951 122.398 127.002C124.159 130.052 125.171 133.476 125.354 136.994C125.354 143.447 120.767 146.036 115.151 142.705C112.201 140.783 109.746 138.191 107.986 135.141C106.226 132.092 105.211 128.669 105.024 125.153C105.024 118.738 109.611 116.13 115.227 119.442Z" fill="#002D4C"/>
<g opacity="0.15">
<path opacity="0.15" d="M120.938 128.599L122.632 131.511L112.543 137.317L108.355 130.064L110.049 129.094L112.562 133.453L120.938 128.599Z" fill="#1F1D20"/>
</g>
<path d="M120.881 127.742L122.575 130.654L112.486 136.442L108.298 129.208L109.992 128.237L112.486 132.596L120.881 127.742Z" fill="white"/>
<defs>
<linearGradient id="paint0_linear_624_1346" x1="90.4816" y1="10.1245" x2="90.4816" y2="181.524" gradientUnits="userSpaceOnUse">
<stop stop-color="#00ABDE"/>
<stop offset="1" stop-color="#007ED8"/>
</linearGradient>
<linearGradient id="paint1_linear_624_1346" x1="36.6014" y1="4.91583" x2="203.279" y2="287.247" gradientUnits="userSpaceOnUse">
<stop stop-color="#007ED8"/>
<stop offset="0.7065" stop-color="#002D4C"/>
</linearGradient>
<linearGradient id="paint2_linear_624_1346" x1="63.8601" y1="127.124" x2="43.4866" y2="66.3949" gradientUnits="userSpaceOnUse">
<stop stop-color="#4DC1EA"/>
<stop offset="0.46875" stop-color="#ACF3FD"/>
<stop offset="1" stop-color="white"/>
</linearGradient>
<linearGradient id="paint3_linear_624_1346" x1="125.83" y1="-34.2586" x2="102.613" y2="87.3146" gradientUnits="userSpaceOnUse">
<stop offset="0.5727" stop-color="white" stop-opacity="0"/>
<stop offset="0.7823" stop-color="white" stop-opacity="0.4301"/>
<stop offset="0.9044" stop-color="white" stop-opacity="0.5"/>
<stop offset="0.9993" stop-color="white"/>
</linearGradient>
<linearGradient id="paint4_linear_624_1346" x1="107.863" y1="38.6348" x2="90.0892" y2="212.314" gradientUnits="userSpaceOnUse">
<stop stop-color="#007ED8"/>
<stop offset="0.89" stop-color="#002D4C"/>
</linearGradient>
<linearGradient id="paint5_linear_624_1346" x1="99.4554" y1="56.5559" x2="99.0129" y2="143.432" gradientUnits="userSpaceOnUse">
<stop stop-color="#007ED8"/>
<stop offset="0.89" stop-color="#002D4C"/>
</linearGradient>
<linearGradient id="paint6_linear_624_1346" x1="101.274" y1="111.732" x2="126.516" y2="136.537" gradientUnits="userSpaceOnUse">
<stop stop-color="#007ED8"/>
<stop offset="0.89" stop-color="#002D4C"/>
</linearGradient>
</defs>
</svg>
