<svg width="181" height="191" viewBox="0 0 181 191" fill="none" xmlns="http://www.w3.org/2000/svg">
<path d="M90.4672 189.517C93.5272 189.517 96.5372 188.667 99.1972 187.047L161.167 149.387C166.707 146.017 170.137 139.687 170.137 132.847V58.1372C170.137 51.3172 166.707 44.9772 161.167 41.5972L99.1972 3.93715C93.8672 0.697154 87.0472 0.717154 81.7472 3.93715L19.7772 41.6172C14.2372 44.9872 10.7872 51.3172 10.7872 58.1572V132.857C10.7872 138.617 13.2372 144.037 17.3372 147.607V147.637L81.7472 187.067C84.3872 188.667 87.4072 189.517 90.4672 189.517ZM91.1172 8.46715C93.0672 8.46715 95.5472 9.67715 97.2572 10.7272L158.017 47.9172C161.767 50.1972 163.887 56.7972 163.887 61.5472L163.257 132.847C163.257 137.597 160.057 141.867 156.307 144.147L95.9072 180.527C92.4772 182.617 89.6872 182.617 86.2472 180.527L25.0372 144.057C21.2872 141.777 18.2672 137.577 18.2672 132.847V59.2072C18.2672 54.4672 20.9972 49.5772 24.7672 47.2872L85.3472 10.7272C87.0472 9.68715 89.1672 8.46715 91.1172 8.46715Z" fill="#F2F1F0"/>
<path fill-rule="evenodd" clip-rule="evenodd" d="M98.3672 12.0469C95.9172 10.5469 93.1972 9.79688 90.4672 9.79688C87.7372 9.79688 85.0172 10.5569 82.5672 12.0469L26.4372 46.3769C21.4172 49.4469 18.3072 55.1969 18.3072 61.4469V129.547C18.3072 135.777 21.4072 141.547 26.4372 144.617L82.5672 178.947C85.0172 180.447 87.7372 181.197 90.4672 181.197C93.1972 181.197 95.9172 180.457 98.3672 178.947L154.497 144.617C159.517 141.547 162.627 135.777 162.627 129.547V61.4469C162.627 55.2169 159.527 49.4669 154.497 46.3769L98.3672 12.0469Z" fill="url(#paint0_linear_1126_62)"/>
<path fill-rule="evenodd" clip-rule="evenodd" d="M90.4672 11.2671C92.1472 11.2671 94.0372 12.1371 96.0972 13.3871L154.567 48.9271C158.217 51.1471 160.627 55.4171 160.627 60.2471V130.727C160.627 135.547 158.217 139.827 154.567 142.047L96.1072 177.587C94.1472 178.777 92.2272 179.527 90.4772 179.527C88.7272 179.527 86.8072 178.777 84.8472 177.587L26.3672 142.057C24.3572 140.827 22.9072 139.627 21.9272 138.017C20.9472 136.417 20.3072 134.197 20.3072 130.737V60.2571C20.3072 55.4271 22.7172 51.1571 26.3672 48.9371L84.8272 13.3971C86.9172 12.1471 88.7772 11.2671 90.4672 11.2671ZM98.1772 181.017L156.637 145.477C161.557 142.487 164.617 136.867 164.617 130.737V60.2571C164.617 54.1271 161.557 48.5071 156.637 45.5171L98.1772 9.97709C96.0672 8.69709 93.3572 7.26709 90.4672 7.26709C87.5672 7.26709 84.8572 8.70709 82.7672 9.96709H82.7572L24.2872 45.5171C19.3672 48.5071 16.3072 54.1271 16.3072 60.2571V130.737C16.3072 134.697 17.0472 137.687 18.5072 140.097C19.9672 142.497 22.0272 144.097 24.2872 145.467L82.7472 181.007C84.9672 182.357 87.6372 183.537 90.4572 183.537C93.2772 183.537 95.9572 182.367 98.1772 181.017Z" fill="url(#paint1_linear_1126_62)"/>
<path opacity="0.35" d="M45.0064 108.86C35.623 108.86 28.0089 101.252 28.0089 91.8872C28.0089 83.3216 34.3401 76.2754 42.5993 75.1556C41.9579 72.5128 41.5579 69.7116 41.5579 66.8312C41.6372 48.0977 56.7897 32.9683 75.5494 32.9683C88.457 32.9683 99.6818 40.2521 105.455 50.8989C108.262 49.5379 111.465 48.7386 114.834 48.7386C126.542 48.7386 136.08 58.2655 136.08 69.9529C136.08 71.7135 135.839 73.4742 135.439 75.1556C136.08 75.0764 136.722 75.0764 137.363 75.0764C146.664 74.9972 154.278 82.5223 154.278 91.8872C154.278 101.252 146.664 108.86 137.284 108.86H45.0064Z" fill="url(#paint2_linear_1126_62)"/>
<path fill-rule="evenodd" clip-rule="evenodd" d="M42.5605 66.8338C42.5606 69.6213 42.9479 72.3417 43.5736 74.9198C43.6405 75.1957 43.5874 75.487 43.4273 75.7215C43.2673 75.956 43.0153 76.1116 42.734 76.1498C34.9656 77.203 29.0114 83.8302 29.0114 91.8879C29.0114 100.698 36.1755 107.858 45.0064 107.858H137.284C146.111 107.858 153.275 100.698 153.275 91.8879C153.275 83.0794 146.115 76.0051 137.372 76.0796L137.363 76.0796C136.712 76.0796 136.132 76.0809 135.562 76.1513C135.236 76.1916 134.911 76.0696 134.692 75.8249C134.473 75.5802 134.388 75.2437 134.464 74.9242C134.849 73.3061 135.078 71.6239 135.078 69.9535C135.078 58.8212 125.99 49.7418 114.834 49.7418C111.624 49.7418 108.569 50.5036 105.892 51.8017C105.41 52.0355 104.829 51.8486 104.573 51.3774C98.966 41.036 88.0692 33.9715 75.5494 33.9715C57.3436 33.9715 42.6386 48.6523 42.5605 66.8338ZM45.0064 109.863C35.0704 109.863 27.0062 101.808 27.0062 91.8879C27.0062 83.1913 33.1686 75.9723 41.3846 74.3428C40.8689 71.9453 40.5553 69.4233 40.5553 66.8318L40.5553 66.8276C40.6369 47.5431 56.2366 31.9663 75.5494 31.9663C88.5105 31.9663 99.8157 39.097 105.878 49.6023C108.602 48.42 111.646 47.7366 114.834 47.7366C127.094 47.7366 137.083 57.7112 137.083 69.9535C137.083 71.3466 136.939 72.7331 136.691 74.0777C136.913 74.0744 137.129 74.0744 137.337 74.0744H137.359C147.215 73.993 155.281 81.968 155.281 91.8879C155.281 101.808 147.216 109.863 137.284 109.863H45.0064Z" fill="white"/>
<path d="M150.61 101.108C150.61 100.043 149.742 99.1749 148.677 99.1749C147.98 99.1749 143.639 98.7935 141.311 96.9784C141.311 96.9784 141.325 96.9521 141.311 96.9784C140.43 93.7691 139.141 90.7703 137.55 87.9292C137.142 85.2329 139.93 83.2731 141.206 81.1687C141.43 80.8004 141.561 80.59 141.64 80.4453C141.877 79.7613 141.745 78.9722 141.206 78.4329C141.206 78.4329 139.062 75.3683 136.866 73.1849C134.669 71.0016 131.342 68.5683 131.342 68.5683C130.592 67.8186 129.356 67.8186 128.606 68.5683C128.106 69.055 124.805 71.7776 121.832 72.2116C121.793 72.2116 121.793 72.2116 121.793 72.2116C119.031 70.6465 115.927 69.3575 112.809 68.4762H112.77C110.573 66.8584 111.152 63.5045 110.573 61.1107C110.573 60.0453 109.705 59.1772 108.64 59.1772C108.64 59.1772 104.957 58.5327 101.853 58.5327C98.749 58.5327 94.6847 59.1772 94.6847 59.1772C93.6194 59.1772 92.7513 60.0453 92.7513 61.1107C92.7513 61.8078 92.3699 66.1482 90.5548 68.4762C87.477 69.3443 84.2414 70.7122 81.5056 72.2379C78.8093 72.6457 76.8495 69.8573 74.7451 68.5815C74.3768 68.3579 74.1664 68.2263 74.0217 68.1474C73.3377 67.9107 72.5486 68.0422 72.0093 68.5815C72.0093 68.5815 68.9447 70.7254 66.7613 72.9219C64.578 75.1184 62.1447 78.4461 62.1447 78.4461C61.395 79.1958 61.395 80.4321 62.1447 81.1819C62.6313 81.6685 65.4329 85.0225 65.8012 87.9424V87.9687C64.2754 90.7045 62.9339 93.9269 62.0658 97.0047C62.0658 97.0047 62.1052 96.9521 62.0658 97.0047C60.1849 99.2933 57.094 98.6225 54.7002 99.2012C53.6348 99.2012 52.7667 100.069 52.7667 101.135C52.7667 101.135 52.1223 104.817 52.1223 107.922C52.1223 111.026 52.7667 115.09 52.7667 115.09C52.7667 116.155 53.6348 117.023 54.7002 117.023C55.3973 117.023 59.7377 117.405 62.0658 119.22C62.1184 119.193 62.0921 119.259 62.0921 119.259C62.9865 122.35 64.2623 125.441 65.8143 128.177C65.788 128.216 65.8143 128.177 65.8275 128.269C66.0905 131.084 63.4468 132.925 62.171 135.029C61.9474 135.398 61.8159 135.608 61.737 135.753C61.5002 136.437 61.6317 137.226 62.171 137.765C62.171 137.765 64.3149 140.83 66.5114 143.013C68.7079 145.21 72.0356 147.63 72.0356 147.63C72.7853 148.38 74.0217 148.38 74.7714 147.63C75.258 147.143 78.612 144.342 81.5319 143.973C81.5319 143.973 81.5188 143.987 81.5714 144C84.3861 145.565 87.2929 146.801 90.4758 147.669C90.5022 147.682 90.5942 147.709 90.5942 147.709C92.7907 149.327 92.212 152.681 92.7907 155.074C92.9091 156.153 93.501 156.837 94.7242 157.008C94.7242 157.008 98.407 157.652 101.511 157.652C104.615 157.652 108.679 157.021 108.679 157.021C109.745 156.837 110.613 156.153 110.613 155.087C110.613 154.39 110.994 150.05 112.809 147.722C112.809 147.722 112.888 147.656 112.967 147.59C116.203 146.683 118.662 145.683 121.516 144.039C121.661 143.987 121.503 144 121.845 143.947C124.542 143.539 126.501 146.328 128.606 147.604C128.974 147.827 129.185 147.959 129.329 148.038C130.013 148.274 130.802 148.143 131.342 147.604C131.342 147.604 134.406 145.46 136.59 143.263C138.786 141.067 141.206 137.739 141.206 137.739C141.956 136.989 141.956 135.753 141.206 135.003C140.72 134.516 137.918 131.163 137.55 128.243C137.51 127.94 137.537 127.901 137.576 127.822C139.207 124.941 140.233 122.837 141.127 119.575C141.127 119.575 141.088 119.47 141.298 119.193C142.916 116.997 146.27 117.576 148.664 116.997C149.729 116.997 150.597 116.129 150.597 115.063C150.597 115.063 151.242 111.381 151.242 108.277C151.242 105.173 150.61 101.108 150.61 101.108ZM130.342 108C130.342 123.902 117.452 136.805 101.537 136.805C85.6225 136.805 72.7327 123.915 72.7327 108C72.7327 92.0987 85.6225 79.1958 101.537 79.1958C117.452 79.1958 130.342 92.0987 130.342 108Z" fill="url(#paint3_linear_1126_62)"/>
<path d="M129.368 148.064C129.355 148.064 129.355 148.051 129.342 148.051C129.355 148.051 129.368 148.064 129.368 148.064Z" fill="url(#paint4_linear_1126_62)"/>
<path d="M129.343 148.052C129.067 147.881 128.62 147.618 128.62 147.618C128.83 147.815 129.08 147.96 129.343 148.052Z" fill="url(#paint5_linear_1126_62)"/>
<path d="M129.369 148.063C129.62 148.209 129.567 148.182 129.369 148.063V148.063Z" fill="url(#paint6_linear_1126_62)"/>
<path d="M74.0342 68.1482C74.3104 68.3192 74.7576 68.5822 74.7576 68.5822C74.5471 68.3849 74.2972 68.2403 74.0342 68.1482Z" fill="url(#paint7_linear_1126_62)"/>
<path d="M74.0084 68.1333C74.0214 68.1333 74.0214 68.1463 74.0344 68.1463C74.0214 68.1463 74.0084 68.1333 74.0084 68.1333Z" fill="url(#paint8_linear_1126_62)"/>
<path d="M74.0087 68.1337C73.7578 67.9884 73.8106 68.0149 74.0087 68.1337V68.1337Z" fill="url(#paint9_linear_1126_62)"/>
<path d="M61.7235 135.781C61.5782 136.031 61.6046 135.979 61.7235 135.781V135.781Z" fill="url(#paint10_linear_1126_62)"/>
<path d="M61.7235 135.779C61.7235 135.766 61.7365 135.766 61.7365 135.753C61.7365 135.766 61.7235 135.779 61.7235 135.779Z" fill="url(#paint11_linear_1126_62)"/>
<path d="M61.7371 135.752C61.9081 135.476 62.1712 135.028 62.1712 135.028C61.9739 135.239 61.8292 135.489 61.7371 135.752Z" fill="url(#paint12_linear_1126_62)"/>
<path d="M141.64 80.4458C141.469 80.722 141.206 81.1692 141.206 81.1692C141.404 80.9588 141.548 80.7089 141.64 80.4458Z" fill="url(#paint13_linear_1126_62)"/>
<path d="M141.653 80.4187C141.653 80.4317 141.64 80.4317 141.64 80.4447C141.64 80.4317 141.653 80.4187 141.653 80.4187Z" fill="url(#paint14_linear_1126_62)"/>
<path d="M141.654 80.4194C141.799 80.1685 141.773 80.2214 141.654 80.4194V80.4194Z" fill="url(#paint15_linear_1126_62)"/>
<path d="M150.61 101.108C150.61 100.043 149.742 99.1749 148.677 99.1749C147.98 99.1749 143.639 98.7935 141.311 96.9784C141.311 96.9784 141.325 96.9521 141.311 96.9784C140.43 93.7691 139.141 90.7703 137.55 87.9292C137.142 85.2329 139.93 83.2731 141.206 81.1687C141.43 80.8004 141.561 80.59 141.64 80.4453C141.877 79.7613 141.745 78.9722 141.206 78.4329C141.206 78.4329 139.062 75.3683 136.866 73.1849C134.669 71.0016 131.342 68.5683 131.342 68.5683C130.592 67.8186 129.356 67.8186 128.606 68.5683C128.106 69.055 124.805 71.7776 121.832 72.2116C121.793 72.2116 121.793 72.2116 121.793 72.2116C119.031 70.6465 115.927 69.3575 112.809 68.4762H112.77C110.573 66.8584 111.152 63.5045 110.573 61.1107C110.573 60.0453 109.705 59.1772 108.64 59.1772C108.64 59.1772 104.957 58.5327 101.853 58.5327C98.749 58.5327 94.6847 59.1772 94.6847 59.1772C93.6194 59.1772 92.7513 60.0453 92.7513 61.1107C92.7513 61.8078 92.3699 66.1482 90.5548 68.4762C87.477 69.3443 84.2414 70.7122 81.5056 72.2379C78.8093 72.6457 76.8495 69.8573 74.7451 68.5815C74.3768 68.3579 74.1664 68.2263 74.0217 68.1474C73.3377 67.9107 72.5486 68.0422 72.0093 68.5815C72.0093 68.5815 68.9447 70.7254 66.7613 72.9219C64.578 75.1184 62.1447 78.4461 62.1447 78.4461C61.395 79.1958 61.395 80.4321 62.1447 81.1819C62.6313 81.6685 65.4329 85.0225 65.8012 87.9424V87.9687C64.2754 90.7045 62.9339 93.9269 62.0658 97.0047C62.0658 97.0047 62.1052 96.9521 62.0658 97.0047C60.1849 99.2933 57.094 98.6225 54.7002 99.2012C53.6348 99.2012 52.7667 100.069 52.7667 101.135C52.7667 101.135 52.1223 104.817 52.1223 107.922C52.1223 111.026 52.7667 115.09 52.7667 115.09C52.7667 116.155 53.6348 117.023 54.7002 117.023C55.3973 117.023 59.7377 117.405 62.0658 119.22C62.1184 119.193 62.0921 119.259 62.0921 119.259C62.9865 122.35 64.2623 125.441 65.8143 128.177C65.788 128.216 65.8143 128.177 65.8275 128.269C66.0905 131.084 63.4468 132.925 62.171 135.029C61.9474 135.398 61.8159 135.608 61.737 135.753C61.5002 136.437 61.6317 137.226 62.171 137.765C62.171 137.765 64.3149 140.83 66.5114 143.013C68.7079 145.21 72.0356 147.63 72.0356 147.63C72.7853 148.38 74.0217 148.38 74.7714 147.63C75.258 147.143 78.612 144.342 81.5319 143.973C81.5319 143.973 81.5188 143.987 81.5714 144C84.3861 145.565 87.2929 146.801 90.4758 147.669C90.5022 147.682 90.5942 147.709 90.5942 147.709C92.7907 149.327 92.212 152.681 92.7907 155.074C92.9091 156.153 93.501 156.837 94.7242 157.008C94.7242 157.008 98.407 157.652 101.511 157.652C104.615 157.652 108.679 157.021 108.679 157.021C109.745 156.837 110.613 156.153 110.613 155.087C110.613 154.39 110.994 150.05 112.809 147.722C112.809 147.722 112.888 147.656 112.967 147.59C116.203 146.683 118.662 145.683 121.516 144.039C121.661 143.987 121.503 144 121.845 143.947C124.542 143.539 126.501 146.328 128.606 147.604C128.974 147.827 129.185 147.959 129.329 148.038C130.013 148.274 130.802 148.143 131.342 147.604C131.342 147.604 134.406 145.46 136.59 143.263C138.786 141.067 141.206 137.739 141.206 137.739C141.956 136.989 141.956 135.753 141.206 135.003C140.72 134.516 137.918 131.163 137.55 128.243C137.51 127.94 137.537 127.901 137.576 127.822C139.207 124.941 140.233 122.837 141.127 119.575C141.127 119.575 141.088 119.47 141.298 119.193C142.916 116.997 146.27 117.576 148.664 116.997C149.729 116.997 150.597 116.129 150.597 115.063C150.597 115.063 151.242 111.381 151.242 108.277C151.242 105.173 150.61 101.108 150.61 101.108ZM130.342 108C130.342 123.902 117.452 136.805 101.537 136.805C85.6225 136.805 72.7327 123.915 72.7327 108C72.7327 92.0987 85.6225 79.1958 101.537 79.1958C117.452 79.1958 130.342 92.0987 130.342 108Z" fill="url(#paint16_linear_1126_62)"/>
<path d="M129.368 148.064C129.355 148.064 129.355 148.051 129.342 148.051C129.355 148.051 129.368 148.064 129.368 148.064Z" fill="url(#paint17_linear_1126_62)"/>
<path d="M129.343 148.052C129.067 147.881 128.62 147.618 128.62 147.618C128.83 147.815 129.08 147.96 129.343 148.052Z" fill="url(#paint18_linear_1126_62)"/>
<path d="M129.369 148.063C129.62 148.209 129.567 148.182 129.369 148.063V148.063Z" fill="url(#paint19_linear_1126_62)"/>
<path d="M74.0342 68.1482C74.3104 68.3192 74.7576 68.5822 74.7576 68.5822C74.5471 68.3849 74.2972 68.2403 74.0342 68.1482Z" fill="url(#paint20_linear_1126_62)"/>
<path d="M74.0084 68.1333C74.0214 68.1333 74.0214 68.1463 74.0344 68.1463C74.0214 68.1463 74.0084 68.1333 74.0084 68.1333Z" fill="url(#paint21_linear_1126_62)"/>
<path d="M74.0087 68.1337C73.7578 67.9884 73.8106 68.0149 74.0087 68.1337V68.1337Z" fill="url(#paint22_linear_1126_62)"/>
<path d="M61.7235 135.781C61.5782 136.031 61.6046 135.979 61.7235 135.781V135.781Z" fill="url(#paint23_linear_1126_62)"/>
<path d="M61.7235 135.779C61.7235 135.766 61.7365 135.766 61.7365 135.753C61.7365 135.766 61.7235 135.779 61.7235 135.779Z" fill="url(#paint24_linear_1126_62)"/>
<path d="M61.7371 135.752C61.9081 135.476 62.1712 135.028 62.1712 135.028C61.9739 135.239 61.8292 135.489 61.7371 135.752Z" fill="url(#paint25_linear_1126_62)"/>
<path d="M141.64 80.4458C141.469 80.722 141.206 81.1692 141.206 81.1692C141.404 80.9588 141.548 80.7089 141.64 80.4458Z" fill="url(#paint26_linear_1126_62)"/>
<path d="M141.653 80.4187C141.653 80.4317 141.64 80.4317 141.64 80.4447C141.64 80.4317 141.653 80.4187 141.653 80.4187Z" fill="url(#paint27_linear_1126_62)"/>
<path d="M141.654 80.4194C141.799 80.1685 141.773 80.2214 141.654 80.4194V80.4194Z" fill="url(#paint28_linear_1126_62)"/>
<path fill-rule="evenodd" clip-rule="evenodd" d="M100.908 79.8875C116.344 79.8875 128.856 92.4003 128.856 107.836C128.856 123.272 116.344 135.784 100.908 135.784C85.4724 135.784 72.9596 123.272 72.9596 107.836C72.9596 92.4003 85.4724 79.8875 100.908 79.8875ZM130.463 107.836C130.463 91.5134 117.231 78.2815 100.908 78.2815C84.5854 78.2815 71.3535 91.5134 71.3535 107.836C71.3535 124.159 84.5854 137.391 100.908 137.391C117.231 137.391 130.463 124.159 130.463 107.836Z" fill="#50E6FF"/>
<path d="M112.885 102.78C116.999 102.78 120.944 101.146 123.852 98.2374C126.761 95.3288 128.395 91.3839 128.395 87.2705V75.3477H114.368C110.255 75.3477 106.31 76.9817 103.401 79.8903C100.493 82.7988 98.8588 86.7437 98.8588 90.8571V102.819H112.885V102.78Z" fill="#F3FBC1"/>
<g filter="url(#filter0_d_1126_62)">
<path d="M97.3565 102.16V90.8186C97.3552 88.5888 97.7933 86.3806 98.6457 84.3202C99.4981 82.2598 100.748 80.3876 102.324 78.8104C103.901 77.2333 105.772 75.9822 107.832 75.1286C109.892 74.275 112.1 73.8357 114.33 73.8357H129.839V87.3096C129.839 91.8111 128.051 96.1283 124.868 99.3114C121.685 102.494 117.368 104.283 112.866 104.283H100.323V135.788L97.3274 135.575V102.16H97.3565ZM122.773 97.1968C124.076 95.9039 125.11 94.365 125.814 92.6694C126.518 90.9737 126.878 89.1551 126.873 87.3192V76.86H114.359C110.654 76.8626 107.102 78.3347 104.481 80.9535C101.861 83.5722 100.386 87.1236 100.381 90.8283V98.0111C102.379 95.2071 104.652 92.6093 107.166 90.2563C109.863 87.5705 113.018 85.3876 116.482 83.8102C116.593 83.7662 116.717 83.7613 116.832 83.7962C116.947 83.8311 117.047 83.9038 117.115 84.0026C117.183 84.1013 117.217 84.2203 117.209 84.3402C117.201 84.4602 117.153 84.574 117.073 84.6632C114.863 87.0187 110.879 91.2741 109.619 92.6894C108.359 94.1046 104.035 99.0386 102.126 101.239H112.885C114.719 101.254 116.537 100.904 118.235 100.21C119.932 99.5161 121.474 98.4918 122.773 97.1968Z" fill="url(#paint29_linear_1126_62)"/>
</g>
<path d="M92.436 110.672V101.948C92.4309 99.7758 91.5649 97.6939 90.0278 96.1587C88.4907 94.6234 86.4078 93.7599 84.2353 93.7573H73.7471V102.481C73.7497 104.653 74.6135 106.735 76.1491 108.27C77.6846 109.806 79.7664 110.67 81.938 110.672H92.436Z" fill="url(#paint30_linear_1126_62)"/>
<g filter="url(#filter1_d_1126_62)">
<path d="M84.2354 92.2134C86.8062 92.2134 89.2719 93.2346 91.0897 95.0525C92.9076 96.8703 93.9288 99.3359 93.9288 101.907V134.916L90.9238 133.958V112.182H81.9671C79.3963 112.182 76.9308 111.16 75.1129 109.343C73.295 107.525 72.2737 105.059 72.2737 102.488V92.2134H84.2258H84.2354ZM75.2787 102.479C75.2812 104.252 75.9868 105.951 77.2405 107.205C78.4943 108.459 80.194 109.165 81.9671 109.167H89.9448C88.7525 107.607 86.6296 104.825 85.8057 103.904C85.1465 103.167 83.392 101.296 81.9283 99.7548C81.8302 99.6436 81.7744 99.5014 81.7708 99.3531C81.7672 99.2048 81.8162 99.0601 81.9088 98.9443C82.0015 98.8285 82.132 98.749 82.2774 98.72C82.4228 98.6909 82.5738 98.7141 82.7039 98.7855C84.4073 99.7546 85.9779 100.941 87.3761 102.314C88.6353 103.508 89.8139 104.784 90.9044 106.133V101.926C90.9019 100.153 90.1965 98.4533 88.9427 97.1995C87.6889 95.9458 85.9892 95.2403 84.2161 95.2377H75.2594V102.488L75.2787 102.479Z" fill="url(#paint31_linear_1126_62)"/>
</g>
<path d="M104.973 125.014V117.308C104.977 115.39 105.742 113.551 107.1 112.195C108.457 110.839 110.297 110.076 112.216 110.074H121.479V117.779C121.477 119.697 120.714 121.536 119.358 122.892C118.002 124.248 116.163 125.011 114.245 125.014H104.973Z" fill="#CEF885"/>
<g filter="url(#filter2_d_1126_62)">
<path d="M112.216 108.711C109.945 108.711 107.767 109.613 106.162 111.218C104.556 112.824 103.654 115.001 103.654 117.272L103.648 135.664L106.308 135.265V126.347H114.219C116.49 126.347 118.667 125.445 120.273 123.84C121.879 122.234 122.781 120.056 122.781 117.786V108.711H112.224H112.216ZM120.127 117.777C120.124 119.343 119.501 120.844 118.394 121.952C117.286 123.059 115.785 123.682 114.219 123.685H107.173C108.226 122.306 110.101 119.849 110.829 119.036C111.411 118.385 112.961 116.733 114.253 115.371C114.34 115.273 114.389 115.148 114.393 115.017C114.396 114.886 114.352 114.758 114.271 114.656C114.189 114.553 114.074 114.483 113.945 114.457C113.817 114.432 113.683 114.452 113.568 114.515C112.064 115.371 110.677 116.419 109.442 117.632C108.33 118.686 107.289 119.813 106.326 121.005V117.289C106.328 115.723 106.951 114.222 108.058 113.115C109.166 112.007 110.667 111.384 112.233 111.382H120.144V117.786L120.127 117.777Z" fill="url(#paint32_linear_1126_62)"/>
</g>
<defs>
<filter id="filter0_d_1126_62" x="77.3274" y="55.8357" width="72.5117" height="101.953" filterUnits="userSpaceOnUse" color-interpolation-filters="sRGB">
<feFlood flood-opacity="0" result="BackgroundImageFix"/>
<feColorMatrix in="SourceAlpha" type="matrix" values="0 0 0 0 0 0 0 0 0 0 0 0 0 0 0 0 0 0 127 0" result="hardAlpha"/>
<feOffset dy="2"/>
<feGaussianBlur stdDeviation="10"/>
<feComposite in2="hardAlpha" operator="out"/>
<feColorMatrix type="matrix" values="0 0 0 0 0.901961 0 0 0 0 0.972549 0 0 0 0 0.513726 0 0 0 0.15 0"/>
<feBlend mode="normal" in2="BackgroundImageFix" result="effect1_dropShadow_1126_62"/>
<feBlend mode="normal" in="SourceGraphic" in2="effect1_dropShadow_1126_62" result="shape"/>
</filter>
<filter id="filter1_d_1126_62" x="52.2737" y="74.2134" width="61.655" height="82.7026" filterUnits="userSpaceOnUse" color-interpolation-filters="sRGB">
<feFlood flood-opacity="0" result="BackgroundImageFix"/>
<feColorMatrix in="SourceAlpha" type="matrix" values="0 0 0 0 0 0 0 0 0 0 0 0 0 0 0 0 0 0 127 0" result="hardAlpha"/>
<feOffset dy="2"/>
<feGaussianBlur stdDeviation="10"/>
<feComposite in2="hardAlpha" operator="out"/>
<feColorMatrix type="matrix" values="0 0 0 0 0.901961 0 0 0 0 0.972549 0 0 0 0 0.513726 0 0 0 0.15 0"/>
<feBlend mode="normal" in2="BackgroundImageFix" result="effect1_dropShadow_1126_62"/>
<feBlend mode="normal" in="SourceGraphic" in2="effect1_dropShadow_1126_62" result="shape"/>
</filter>
<filter id="filter2_d_1126_62" x="83.6483" y="90.7107" width="59.1323" height="66.9531" filterUnits="userSpaceOnUse" color-interpolation-filters="sRGB">
<feFlood flood-opacity="0" result="BackgroundImageFix"/>
<feColorMatrix in="SourceAlpha" type="matrix" values="0 0 0 0 0 0 0 0 0 0 0 0 0 0 0 0 0 0 127 0" result="hardAlpha"/>
<feOffset dy="2"/>
<feGaussianBlur stdDeviation="10"/>
<feComposite in2="hardAlpha" operator="out"/>
<feColorMatrix type="matrix" values="0 0 0 0 0.901961 0 0 0 0 0.972549 0 0 0 0 0.513726 0 0 0 0.15 0"/>
<feBlend mode="normal" in2="BackgroundImageFix" result="effect1_dropShadow_1126_62"/>
<feBlend mode="normal" in="SourceGraphic" in2="effect1_dropShadow_1126_62" result="shape"/>
</filter>
<linearGradient id="paint0_linear_1126_62" x1="90.4671" y1="9.79688" x2="90.4671" y2="181.196" gradientUnits="userSpaceOnUse">
<stop stop-color="#00ABDE"/>
<stop offset="1" stop-color="#007ED8"/>
</linearGradient>
<linearGradient id="paint1_linear_1126_62" x1="36.5869" y1="4.58819" x2="203.264" y2="286.919" gradientUnits="userSpaceOnUse">
<stop stop-color="#007ED8"/>
<stop offset="0.7065" stop-color="#002D4C"/>
</linearGradient>
<linearGradient id="paint2_linear_1126_62" x1="88.3736" y1="-20.2483" x2="91.7032" y2="114.841" gradientUnits="userSpaceOnUse">
<stop offset="0.410497" stop-color="white" stop-opacity="0"/>
<stop offset="0.635212" stop-color="white" stop-opacity="0.4301"/>
<stop offset="0.9044" stop-color="white" stop-opacity="0.5"/>
<stop offset="0.9993" stop-color="white"/>
</linearGradient>
<linearGradient id="paint3_linear_1126_62" x1="101.682" y1="58.5327" x2="101.682" y2="157.652" gradientUnits="userSpaceOnUse">
<stop offset="0.104167" stop-color="#F2F1F0"/>
<stop offset="1" stop-color="#F2F1F0" stop-opacity="0"/>
</linearGradient>
<linearGradient id="paint4_linear_1126_62" x1="129.355" y1="148.051" x2="129.355" y2="148.064" gradientUnits="userSpaceOnUse">
<stop offset="0.104167" stop-color="#F2F1F0"/>
<stop offset="1" stop-color="#F2F1F0" stop-opacity="0"/>
</linearGradient>
<linearGradient id="paint5_linear_1126_62" x1="128.981" y1="147.618" x2="128.981" y2="148.052" gradientUnits="userSpaceOnUse">
<stop offset="0.104167" stop-color="#F2F1F0"/>
<stop offset="1" stop-color="#F2F1F0" stop-opacity="0"/>
</linearGradient>
<linearGradient id="paint6_linear_1126_62" x1="129.454" y1="148.063" x2="129.454" y2="148.163" gradientUnits="userSpaceOnUse">
<stop offset="0.104167" stop-color="#F2F1F0"/>
<stop offset="1" stop-color="#F2F1F0" stop-opacity="0"/>
</linearGradient>
<linearGradient id="paint7_linear_1126_62" x1="74.3959" y1="68.1482" x2="74.3959" y2="68.5822" gradientUnits="userSpaceOnUse">
<stop offset="0.104167" stop-color="#F2F1F0"/>
<stop offset="1" stop-color="#F2F1F0" stop-opacity="0"/>
</linearGradient>
<linearGradient id="paint8_linear_1126_62" x1="74.0214" y1="68.1333" x2="74.0214" y2="68.1463" gradientUnits="userSpaceOnUse">
<stop offset="0.104167" stop-color="#F2F1F0"/>
<stop offset="1" stop-color="#F2F1F0" stop-opacity="0"/>
</linearGradient>
<linearGradient id="paint9_linear_1126_62" x1="73.9242" y1="68.0344" x2="73.9242" y2="68.1337" gradientUnits="userSpaceOnUse">
<stop offset="0.104167" stop-color="#F2F1F0"/>
<stop offset="1" stop-color="#F2F1F0" stop-opacity="0"/>
</linearGradient>
<linearGradient id="paint10_linear_1126_62" x1="61.6739" y1="135.781" x2="61.6739" y2="135.949" gradientUnits="userSpaceOnUse">
<stop offset="0.104167" stop-color="#F2F1F0"/>
<stop offset="1" stop-color="#F2F1F0" stop-opacity="0"/>
</linearGradient>
<linearGradient id="paint11_linear_1126_62" x1="61.73" y1="135.753" x2="61.73" y2="135.779" gradientUnits="userSpaceOnUse">
<stop offset="0.104167" stop-color="#F2F1F0"/>
<stop offset="1" stop-color="#F2F1F0" stop-opacity="0"/>
</linearGradient>
<linearGradient id="paint12_linear_1126_62" x1="61.9541" y1="135.028" x2="61.9541" y2="135.752" gradientUnits="userSpaceOnUse">
<stop offset="0.104167" stop-color="#F2F1F0"/>
<stop offset="1" stop-color="#F2F1F0" stop-opacity="0"/>
</linearGradient>
<linearGradient id="paint13_linear_1126_62" x1="141.423" y1="80.4458" x2="141.423" y2="81.1692" gradientUnits="userSpaceOnUse">
<stop offset="0.104167" stop-color="#F2F1F0"/>
<stop offset="1" stop-color="#F2F1F0" stop-opacity="0"/>
</linearGradient>
<linearGradient id="paint14_linear_1126_62" x1="141.647" y1="80.4187" x2="141.647" y2="80.4447" gradientUnits="userSpaceOnUse">
<stop offset="0.104167" stop-color="#F2F1F0"/>
<stop offset="1" stop-color="#F2F1F0" stop-opacity="0"/>
</linearGradient>
<linearGradient id="paint15_linear_1126_62" x1="141.704" y1="80.2505" x2="141.704" y2="80.4194" gradientUnits="userSpaceOnUse">
<stop offset="0.104167" stop-color="#F2F1F0"/>
<stop offset="1" stop-color="#F2F1F0" stop-opacity="0"/>
</linearGradient>
<linearGradient id="paint16_linear_1126_62" x1="101.682" y1="58.5327" x2="99.1409" y2="198.732" gradientUnits="userSpaceOnUse">
<stop offset="0.104167" stop-color="#F2F1F0"/>
<stop offset="1" stop-color="#F2F1F0" stop-opacity="0"/>
</linearGradient>
<linearGradient id="paint17_linear_1126_62" x1="129.355" y1="148.051" x2="129.355" y2="148.064" gradientUnits="userSpaceOnUse">
<stop offset="0.104167" stop-color="#F2F1F0"/>
<stop offset="1" stop-color="#F2F1F0" stop-opacity="0"/>
</linearGradient>
<linearGradient id="paint18_linear_1126_62" x1="128.981" y1="147.618" x2="128.981" y2="148.052" gradientUnits="userSpaceOnUse">
<stop offset="0.104167" stop-color="#F2F1F0"/>
<stop offset="1" stop-color="#F2F1F0" stop-opacity="0"/>
</linearGradient>
<linearGradient id="paint19_linear_1126_62" x1="129.454" y1="148.063" x2="129.454" y2="148.163" gradientUnits="userSpaceOnUse">
<stop offset="0.104167" stop-color="#F2F1F0"/>
<stop offset="1" stop-color="#F2F1F0" stop-opacity="0"/>
</linearGradient>
<linearGradient id="paint20_linear_1126_62" x1="74.3959" y1="68.1482" x2="74.3959" y2="68.5822" gradientUnits="userSpaceOnUse">
<stop offset="0.104167" stop-color="#F2F1F0"/>
<stop offset="1" stop-color="#F2F1F0" stop-opacity="0"/>
</linearGradient>
<linearGradient id="paint21_linear_1126_62" x1="74.0214" y1="68.1333" x2="74.0214" y2="68.1463" gradientUnits="userSpaceOnUse">
<stop offset="0.104167" stop-color="#F2F1F0"/>
<stop offset="1" stop-color="#F2F1F0" stop-opacity="0"/>
</linearGradient>
<linearGradient id="paint22_linear_1126_62" x1="73.9242" y1="68.0344" x2="73.9242" y2="68.1337" gradientUnits="userSpaceOnUse">
<stop offset="0.104167" stop-color="#F2F1F0"/>
<stop offset="1" stop-color="#F2F1F0" stop-opacity="0"/>
</linearGradient>
<linearGradient id="paint23_linear_1126_62" x1="61.6739" y1="135.781" x2="61.6739" y2="135.949" gradientUnits="userSpaceOnUse">
<stop offset="0.104167" stop-color="#F2F1F0"/>
<stop offset="1" stop-color="#F2F1F0" stop-opacity="0"/>
</linearGradient>
<linearGradient id="paint24_linear_1126_62" x1="61.73" y1="135.753" x2="61.73" y2="135.779" gradientUnits="userSpaceOnUse">
<stop offset="0.104167" stop-color="#F2F1F0"/>
<stop offset="1" stop-color="#F2F1F0" stop-opacity="0"/>
</linearGradient>
<linearGradient id="paint25_linear_1126_62" x1="61.9541" y1="135.028" x2="61.9541" y2="135.752" gradientUnits="userSpaceOnUse">
<stop offset="0.104167" stop-color="#F2F1F0"/>
<stop offset="1" stop-color="#F2F1F0" stop-opacity="0"/>
</linearGradient>
<linearGradient id="paint26_linear_1126_62" x1="141.423" y1="80.4458" x2="141.423" y2="81.1692" gradientUnits="userSpaceOnUse">
<stop offset="0.104167" stop-color="#F2F1F0"/>
<stop offset="1" stop-color="#F2F1F0" stop-opacity="0"/>
</linearGradient>
<linearGradient id="paint27_linear_1126_62" x1="141.647" y1="80.4187" x2="141.647" y2="80.4447" gradientUnits="userSpaceOnUse">
<stop offset="0.104167" stop-color="#F2F1F0"/>
<stop offset="1" stop-color="#F2F1F0" stop-opacity="0"/>
</linearGradient>
<linearGradient id="paint28_linear_1126_62" x1="141.704" y1="80.2505" x2="141.704" y2="80.4194" gradientUnits="userSpaceOnUse">
<stop offset="0.104167" stop-color="#F2F1F0"/>
<stop offset="1" stop-color="#F2F1F0" stop-opacity="0"/>
</linearGradient>
<linearGradient id="paint29_linear_1126_62" x1="80.1201" y1="73.699" x2="100.444" y2="147.989" gradientUnits="userSpaceOnUse">
<stop offset="0.0833333" stop-color="#9BF00B"/>
<stop offset="0.625" stop-color="#0D7012"/>
<stop offset="0.916667" stop-color="#043810"/>
</linearGradient>
<linearGradient id="paint30_linear_1126_62" x1="91.2338" y1="95.6313" x2="74.5072" y2="112.053" gradientUnits="userSpaceOnUse">
<stop offset="0.104167" stop-color="#F3FABF"/>
<stop offset="0.838542" stop-color="#CFF885"/>
</linearGradient>
<linearGradient id="paint31_linear_1126_62" x1="60.8125" y1="92.1174" x2="75.7205" y2="143.847" gradientUnits="userSpaceOnUse">
<stop offset="0.0833333" stop-color="#9BF00B"/>
<stop offset="0.625" stop-color="#0D7012"/>
<stop offset="0.916667" stop-color="#043810"/>
</linearGradient>
<linearGradient id="paint32_linear_1126_62" x1="139.676" y1="97.3049" x2="133.094" y2="142.77" gradientUnits="userSpaceOnUse">
<stop offset="0.0833333" stop-color="#9BF00B"/>
<stop offset="0.625" stop-color="#0D7012"/>
<stop offset="0.916667" stop-color="#043810"/>
</linearGradient>
</defs>
</svg>
