<svg width="181" height="191" viewBox="0 0 181 191" fill="none" xmlns="http://www.w3.org/2000/svg">
<path d="M90.2418 189.496C93.3018 189.496 96.3118 188.646 98.9718 187.026L160.942 149.366C166.482 145.996 169.912 139.666 169.912 132.826V58.1162C169.912 51.2962 166.482 44.9562 160.942 41.5762L98.9718 3.91616C93.6418 0.676158 86.8218 0.696158 81.5218 3.91616L19.5518 41.5962C14.0118 44.9662 10.5618 51.2962 10.5618 58.1362V132.836C10.5618 138.596 13.0118 144.016 17.1118 147.586V147.616L81.5218 187.046C84.1618 188.646 87.1818 189.496 90.2418 189.496ZM90.8918 8.44616C92.8418 8.44616 95.3218 9.65616 97.0318 10.7062L157.792 47.8962C161.542 50.1762 163.662 56.7762 163.662 61.5262L163.032 132.826C163.032 137.576 159.832 141.846 156.082 144.126L95.6818 180.506C92.2518 182.596 89.4618 182.596 86.0218 180.506L24.8118 144.036C21.0618 141.756 18.0418 137.556 18.0418 132.826V59.1862C18.0418 54.4462 20.7718 49.5562 24.5418 47.2662L85.1218 10.7062C86.8218 9.66616 88.9418 8.44616 90.8918 8.44616Z" fill="#F2F1F0"/>
<path fill-rule="evenodd" clip-rule="evenodd" d="M98.1418 12.0259C95.6918 10.5259 92.9718 9.77588 90.2418 9.77588C87.5118 9.77588 84.7918 10.5359 82.3418 12.0259L26.2118 46.3559C21.1918 49.4259 18.0818 55.1759 18.0818 61.4259V129.526C18.0818 135.756 21.1818 141.526 26.2118 144.596L82.3418 178.926C84.7918 180.426 87.5118 181.176 90.2418 181.176C92.9718 181.176 95.6918 180.436 98.1418 178.926L154.272 144.596C159.292 141.526 162.402 135.756 162.402 129.526V61.4259C162.402 55.1959 159.302 49.4459 154.272 46.3559L98.1418 12.0259Z" fill="url(#paint0_linear_812_22490)"/>
<path fill-rule="evenodd" clip-rule="evenodd" d="M90.2418 11.2461C91.9218 11.2461 93.8118 12.1161 95.8718 13.3661L154.342 48.9061C157.992 51.1261 160.402 55.3961 160.402 60.2261V130.706C160.402 135.526 157.992 139.806 154.342 142.026L95.8818 177.566C93.9218 178.756 92.0018 179.506 90.2518 179.506C88.5018 179.506 86.5818 178.756 84.6218 177.566L26.1418 142.036C24.1318 140.806 22.6818 139.606 21.7018 137.996C20.7218 136.396 20.0818 134.176 20.0818 130.716V60.2361C20.0818 55.4061 22.4918 51.1361 26.1418 48.9161L84.6018 13.3761C86.6918 12.1261 88.5518 11.2461 90.2418 11.2461ZM97.9518 180.996L156.412 145.456C161.332 142.466 164.392 136.846 164.392 130.716V60.2361C164.392 54.1061 161.332 48.4861 156.412 45.4961L97.9518 9.95609C95.8418 8.67609 93.1318 7.24609 90.2418 7.24609C87.3418 7.24609 84.6318 8.68609 82.5418 9.94609H82.5318L24.0618 45.4961C19.1418 48.4861 16.0818 54.1061 16.0818 60.2361V130.716C16.0818 134.676 16.8218 137.666 18.2818 140.076C19.7418 142.476 21.8018 144.076 24.0618 145.446L82.5218 180.986C84.7418 182.336 87.4118 183.516 90.2318 183.516C93.0518 183.516 95.7318 182.346 97.9518 180.996Z" fill="url(#paint1_linear_812_22490)"/>
<path d="M86.619 98.7206C88.1528 97.8381 89.8861 97.4127 91.6195 97.4127C93.3791 97.4127 95.1439 97.8697 96.7039 98.7783L120.65 112.698L120.677 116.248L123.287 117.808L123.545 117.64L120.96 116.08L120.929 112.53L96.8142 98.521C93.6312 96.6721 89.655 96.6458 86.4457 98.4947L61.8164 112.556V116.191L59.0326 117.924L59.374 118.124L62.1316 116.39V112.698L86.619 98.7206Z" fill="#50E6FF"/>
<path d="M86.9605 101.363L64.5741 114.09V117.782L61.6484 119.432L62.0161 119.631L64.9417 118.013V114.321L87.1285 101.678C88.5205 100.885 90.0542 100.486 91.6142 100.486C93.1742 100.486 94.7658 100.885 96.1577 101.709L117.888 114.295L117.945 117.819L120.503 119.411L120.929 119.153L118.287 117.619L118.229 114.095L96.3625 101.394C93.4631 99.7134 89.8546 99.7134 86.9605 101.363Z" fill="#45D6F9"/>
<path d="M87.6695 104.63C88.888 103.921 90.2852 103.579 91.6456 103.579C93.0376 103.579 94.4295 103.947 95.6796 104.661L115.167 115.912L115.193 119.463L117.777 121.055L118.234 120.745L115.618 119.211L115.561 115.66L95.8477 104.299C93.2372 102.791 89.9963 102.791 87.3806 104.273L67.2422 115.681V119.374L64.2588 120.965L64.7158 121.223L67.6992 119.631L67.7255 115.965L87.6695 104.63Z" fill="#39C7F3"/>
<path d="M87.9216 107.13L69.9999 117.241V120.933L67.1005 122.583L67.6415 122.893L70.5672 121.275L70.5409 117.556L88.1527 107.613C89.2295 107.014 90.4271 106.704 91.6194 106.704C92.838 106.704 94.0619 107.014 95.1439 107.639L112.414 117.551L112.446 121.102L115.088 122.662L115.597 122.378L112.955 120.786L112.929 117.236L95.4328 107.182C93.1217 105.822 90.2538 105.822 87.9216 107.13Z" fill="#2EB7ED"/>
<path d="M88.6884 110.539C89.5971 110.03 90.6214 109.772 91.6404 109.772C92.6594 109.772 93.7151 110.03 94.6238 110.565L109.368 119.343L109.342 122.92L111.926 124.511L112.493 124.17L109.993 122.52L109.967 118.97L94.9127 110.019C92.8957 108.853 90.3955 108.853 88.3785 109.993L72.6996 118.833L72.6734 122.499L69.9473 124.233L70.5986 124.6L73.2669 122.867L73.2932 119.201L88.6884 110.539Z" fill="#22A7E6"/>
<path d="M88.8618 112.897L75.4258 120.424V124.091L72.726 125.824L73.435 126.223L76.1611 124.521L76.1296 120.829L89.198 113.528C89.9649 113.102 90.7895 112.903 91.6404 112.903C92.4913 112.903 93.3423 113.129 94.1144 113.554L106.899 120.771L106.873 124.38L109.541 125.94L110.25 125.54L107.55 123.98L107.577 120.372L94.4505 112.929C92.754 111.931 90.5952 111.931 88.8618 112.897Z" fill="#1797E0"/>
<path d="M89.7443 116.448C90.3378 116.107 91.0207 115.939 91.6772 115.939C92.3601 115.939 93.0429 116.107 93.6364 116.448L104.205 122.357L104.147 125.966L106.763 127.615L107.503 127.158L104.919 125.54L104.945 121.905L94.0094 115.797C92.5912 115.004 90.8 115.004 89.3766 115.797L78.1781 122.016V125.682L75.5361 127.415L76.2452 127.815L78.945 126.113V122.441L89.7443 116.448Z" fill="#0B88DA"/>
<path d="M149.082 128.859L126.638 115.823L126.355 115.991L148.935 129.111C150.527 130.046 151.462 131.696 151.462 133.513C151.462 135.362 150.495 137.006 148.904 137.915L126.15 151.009L126.123 154.702L123.282 156.462L123.539 156.63L126.407 154.87L126.433 151.178L149.025 138.177C150.7 137.211 151.724 135.478 151.724 133.518C151.751 131.559 150.758 129.826 149.082 128.859Z" fill="#50E6FF"/>
<path d="M146.582 133.519C146.582 135.168 145.731 136.644 144.282 137.469L123.518 149.455V153.179L120.65 154.881L120.96 155.049L123.886 153.374V149.655L144.45 137.779C145.983 136.896 146.924 135.279 146.924 133.519C146.924 131.728 146.015 130.136 144.45 129.228L123.944 117.352L123.576 117.577L144.255 129.538C145.731 130.394 146.582 131.87 146.582 133.519Z" fill="#45D6F9"/>
<path d="M141.724 133.545C141.724 135.021 140.957 136.329 139.707 137.07L120.929 147.948V151.667L118.087 153.374L118.486 153.631L121.386 151.955V148.231L139.932 137.464C141.351 136.639 142.175 135.189 142.175 133.571C142.175 131.954 141.324 130.478 139.932 129.679L121.359 118.975L120.902 119.232L139.68 130.052C140.957 130.793 141.724 132.101 141.724 133.545Z" fill="#39C7F3"/>
<path d="M136.839 133.576C136.839 134.853 136.187 135.993 135.079 136.644L118.292 146.414V150.132L115.34 151.724L115.823 152.008L118.833 150.416V146.697L135.368 137.069C136.644 136.329 137.385 135.026 137.385 133.545C137.385 132.069 136.618 130.761 135.342 130.02L118.717 120.482L118.208 120.792L135.105 130.477C136.187 131.16 136.839 132.295 136.839 133.576Z" fill="#2EB7ED"/>
<path d="M131.954 133.603C131.954 134.685 131.387 135.678 130.446 136.219L115.618 144.912V148.605L112.693 150.222L113.291 150.564L116.243 148.946L116.27 145.227L130.788 136.734C131.922 136.083 132.605 134.885 132.579 133.582C132.553 132.274 131.896 131.082 130.761 130.457L116.075 122.074L115.477 122.442L130.473 130.993C131.387 131.529 131.954 132.527 131.954 133.603Z" fill="#22A7E6"/>
<path d="M116.243 148.972L116.044 148.856L115.818 148.715L115.618 148.631" fill="#22A7E6"/>
<path d="M127.095 133.634C127.095 134.543 126.638 135.367 125.845 135.819L113.008 143.404V147.123L110.024 148.683L110.707 149.082L113.691 147.522V143.803L126.187 136.418C127.179 135.819 127.778 134.8 127.752 133.634C127.752 132.468 127.127 131.449 126.134 130.876L113.381 123.659L112.698 124.059L125.793 131.47C126.612 131.927 127.095 132.725 127.095 133.634Z" fill="#1797E0"/>
<path d="M122.21 133.661C122.21 134.37 121.843 135.026 121.244 135.394L110.366 141.87V145.563L107.44 147.123L108.149 147.548L111.133 146.015V142.322L121.643 136.072C122.494 135.562 123.009 134.653 123.009 133.655C123.009 132.657 122.468 131.78 121.591 131.271L110.791 125.225L110.024 125.682L121.218 131.959C121.843 132.295 122.21 132.952 122.21 133.661Z" fill="#0B88DA"/>
<path d="M33.2162 138.062C31.5984 137.154 30.632 135.504 30.6004 133.629C30.6004 131.78 31.5669 130.105 33.1584 129.196L56.0228 116.159L55.7392 115.991L33.0429 128.944C31.3411 129.91 30.3168 131.67 30.3168 133.634C30.3168 135.599 31.3411 137.353 33.0744 138.293L56.3958 151.388V154.965L59.2374 156.782L59.5788 156.583L56.7687 154.739L56.7109 151.215L33.2162 138.062Z" fill="#50E6FF"/>
<path d="M120.052 154.54L96.6461 168.002C93.5786 169.761 89.7442 169.793 86.6767 168.06L62.8721 154.681L62.5885 154.849L86.5612 168.286C88.1212 169.168 89.8861 169.62 91.6457 169.62C93.4368 169.62 95.2227 169.163 96.8142 168.228L120.361 154.676L120.052 154.54Z" fill="#50E6FF"/>
<path d="M87.1548 165.333L65.509 153.121L65.1413 153.347L86.9867 165.649C88.4049 166.442 90.028 166.867 91.6195 166.867C93.2688 166.867 94.8866 166.442 96.3363 165.617L117.809 153.205L117.441 153.006L96.1367 165.307C93.3791 166.893 89.9387 166.925 87.1548 165.333Z" fill="#45D6F9"/>
<path d="M35.2595 133.634C35.2595 135.425 36.1945 137.043 37.786 137.925L58.9486 149.854L58.9748 153.405L61.8427 155.248L62.2419 155.023L59.3425 153.179L59.3163 149.628L37.9593 137.61C36.5096 136.786 35.6325 135.31 35.6325 133.634C35.6325 131.959 36.4834 130.483 37.9331 129.658L58.812 117.782L58.4443 117.582L37.7282 129.343C36.1945 130.225 35.2595 131.843 35.2595 133.634Z" fill="#45D6F9"/>
<path d="M40.2284 133.634C40.2284 135.284 41.0793 136.728 42.5027 137.553L61.5327 148.347V151.897L64.5425 153.689L64.9679 153.431L61.9582 151.64V148.089L42.7286 137.185C41.4522 136.444 40.6853 135.142 40.6853 133.661C40.6853 132.185 41.4522 130.85 42.7286 130.136L61.6483 119.426L61.1913 119.169L42.5027 129.711C41.0845 130.535 40.2021 132.011 40.2284 133.634Z" fill="#39C7F3"/>
<path d="M87.6695 162.634L68.1825 151.582L67.7308 151.84L87.4436 163.001C88.7515 163.742 90.1697 164.11 91.6194 164.11C93.0954 164.11 94.5714 163.742 95.8792 162.975L115.282 151.724L114.825 151.467L95.6534 162.602C93.2057 164.026 90.1382 164.026 87.6695 162.634Z" fill="#39C7F3"/>
<path d="M88.1528 159.934L70.7983 150.049L70.2573 150.364L87.8692 160.391C89.0352 161.042 90.3116 161.384 91.6195 161.384C92.9274 161.384 94.2615 161.042 95.4276 160.359L112.756 150.275L112.246 149.965L95.1755 159.908C93.0062 161.158 90.3379 161.158 88.1528 159.934Z" fill="#2EB7ED"/>
<path d="M45.1711 133.661C45.1711 135.137 45.938 136.471 47.2143 137.212L64.1171 146.84L64.1433 150.39L67.2949 152.124L67.7781 151.84L64.6266 150.107V146.556L47.4717 136.786C46.3371 136.161 45.6806 134.995 45.6806 133.692C45.6806 132.416 46.3634 131.25 47.4717 130.625L64.406 121.076L63.8965 120.766L47.2248 130.168C45.938 130.851 45.1711 132.185 45.1711 133.661Z" fill="#2EB7ED"/>
<path d="M50.1137 133.66C50.1137 134.995 50.7965 136.161 51.9311 136.812L66.675 145.305L66.6487 148.856L69.8581 150.616L70.4253 150.274L67.2738 148.515L67.3001 144.964L52.2462 136.329C51.2797 135.788 50.7125 134.795 50.7125 133.687C50.7125 132.578 51.2797 131.612 52.2462 131.071L67.1898 122.667L66.591 122.325L51.9311 130.567C50.7965 131.16 50.1137 132.326 50.1137 133.66Z" fill="#22A7E6"/>
<path d="M88.6622 157.239L73.4665 148.489L72.8677 148.83L88.347 157.723C89.3713 158.29 90.5058 158.605 91.6404 158.605C92.8065 158.605 93.941 158.29 94.9915 157.696L110.276 148.751L109.683 148.41L94.7131 157.187C92.8117 158.29 90.5111 158.29 88.6622 157.239Z" fill="#22A7E6"/>
<path d="M55.0563 133.66C55.0563 134.826 55.6551 135.877 56.6479 136.444L69.2593 143.771V147.322L72.6104 148.998L73.2092 148.656L69.9684 146.923V143.372L56.9893 135.845C56.1961 135.388 55.7392 134.569 55.7392 133.66C55.7392 132.752 56.2224 131.927 57.0155 131.502L69.9946 124.232L69.3118 123.833L56.7056 130.903C55.6814 131.475 55.0563 132.494 55.0563 133.66Z" fill="#1797E0"/>
<path d="M89.1455 154.508L76.1086 146.955L75.4258 147.354L88.8041 155.106C89.6865 155.616 90.6792 155.873 91.6457 155.873C92.6385 155.873 93.6364 155.616 94.5136 155.08L107.724 147.296L107.041 146.897L94.1722 154.508C92.6385 155.422 90.7055 155.422 89.1455 154.508Z" fill="#1797E0"/>
<path d="M89.655 151.814L78.777 145.421L78.0101 145.873L89.2558 152.491C89.9964 152.917 90.8211 153.142 91.6405 153.142C92.4914 153.142 93.3161 152.917 94.0567 152.491L105.192 145.873L104.425 145.421L93.6575 151.84C92.4389 152.549 90.9051 152.549 89.655 151.814Z" fill="#0B88DA"/>
<path d="M59.9991 133.661C59.9991 134.654 60.5086 135.562 61.3647 136.077L71.8436 142.244V145.794L75.0266 147.585L75.7095 147.186L72.5842 145.337V141.787L61.7324 135.394C61.1073 135.027 60.7397 134.37 60.7397 133.661C60.7397 132.952 61.1389 132.295 61.7639 131.959L72.7838 125.85L72.0169 125.393L61.391 131.276C60.5401 131.786 60.0306 132.668 59.9991 133.661Z" fill="#0B88DA"/>
<path d="M64.9416 133.687C64.9154 134.538 65.3408 135.305 66.0762 135.73L74.454 140.731L74.4803 144.255L77.7474 146.015L78.488 145.589L75.3627 143.746L75.2787 140.221L66.5332 134.995C66.0762 134.711 65.7926 134.228 65.8241 133.687C65.8556 133.146 66.1077 132.663 66.5909 132.411L75.6254 127.442L74.7744 126.932L66.1918 131.644C65.4249 132.101 64.9732 132.836 64.9416 133.687Z" fill="#0078D4"/>
<path d="M90.1382 149.114L81.419 143.887L80.5681 144.37L89.7128 149.823C90.3116 150.19 90.9891 150.364 91.672 150.364C92.3548 150.364 93.0376 150.196 93.6312 149.823L102.723 144.339L101.899 143.856L93.1795 149.114C92.2392 149.655 91.0784 149.655 90.1382 149.114Z" fill="#0078D4"/>
<path d="M117.352 133.686C117.352 134.227 117.094 134.711 116.643 134.963L107.724 140.331V144.023L104.882 145.583L105.623 146.04L108.58 144.507L108.606 140.814L117.1 135.703C117.809 135.278 118.234 134.511 118.234 133.66C118.208 132.809 117.777 132.069 117.042 131.669L108.181 126.753L107.33 127.262L116.616 132.405C117.042 132.694 117.325 133.151 117.352 133.686Z" fill="#0078D4"/>
<path d="M89.8284 118.665L80.878 123.581L80.8517 127.247L78.2675 129.007L79.0344 129.433L81.7027 127.731V124.096L90.2223 119.411C90.674 119.153 91.1573 119.043 91.6405 119.043C92.1237 119.043 92.6332 119.158 93.0587 119.411L101.326 124.012L101.3 127.62L104.058 129.18L104.767 128.755L102.151 127.137L102.177 123.502L93.4842 118.675C92.3549 118.04 90.9892 118.04 89.8284 118.665Z" fill="#0078D4"/>
<path d="M118.019 110.407C118.019 110.092 117.588 109.84 117.052 109.834C116.517 109.834 116.086 110.087 116.086 110.402C116.086 110.717 116.517 110.969 117.052 110.974C117.588 110.974 118.019 110.722 118.019 110.407Z" fill="#50E6FF"/>
<path d="M117.567 110.407C117.567 110.234 117.341 110.092 117.058 110.092C116.774 110.092 116.543 110.229 116.543 110.402C116.543 110.575 116.769 110.717 117.052 110.717C117.336 110.717 117.567 110.581 117.567 110.407Z" fill="white"/>
<path d="M115.414 112.01C115.414 111.695 114.983 111.443 114.447 111.438C113.911 111.438 113.481 111.69 113.481 112.005C113.481 112.32 113.911 112.572 114.447 112.577C114.978 112.577 115.414 112.325 115.414 112.01Z" fill="#4ED6F7"/>
<path d="M114.957 112.009C114.957 111.836 114.731 111.694 114.447 111.694C114.163 111.694 113.938 111.831 113.932 112.004C113.932 112.177 114.158 112.319 114.442 112.319C114.731 112.319 114.957 112.183 114.957 112.009Z" fill="white"/>
<path d="M112.887 113.696C112.887 113.38 112.456 113.128 111.926 113.123C111.39 113.123 110.959 113.375 110.959 113.69C110.959 114.005 111.39 114.258 111.926 114.263C112.456 114.263 112.887 114.011 112.887 113.696Z" fill="#43C8F1"/>
<path d="M112.435 113.696C112.435 113.522 112.209 113.381 111.926 113.381C111.642 113.381 111.416 113.517 111.416 113.691C111.416 113.864 111.642 114.006 111.926 114.006C112.204 114.006 112.435 113.869 112.435 113.696Z" fill="white"/>
<path d="M110.219 115.361C110.219 115.046 109.788 114.794 109.252 114.789C108.717 114.789 108.286 115.041 108.286 115.356C108.286 115.671 108.717 115.923 109.252 115.928C109.783 115.928 110.214 115.676 110.219 115.361Z" fill="#37B8EB"/>
<path d="M109.762 115.361C109.762 115.188 109.536 115.046 109.252 115.046C108.969 115.046 108.743 115.183 108.743 115.356C108.743 115.529 108.969 115.671 109.252 115.671C109.531 115.671 109.762 115.535 109.762 115.361Z" fill="white"/>
<path d="M107.209 117.078C107.209 116.763 106.778 116.511 106.243 116.506C105.707 116.506 105.276 116.758 105.276 117.073C105.276 117.388 105.707 117.64 106.243 117.646C106.773 117.646 107.209 117.394 107.209 117.078Z" fill="#2EA8E3"/>
<path d="M106.752 117.078C106.752 116.905 106.526 116.763 106.243 116.763C105.959 116.763 105.733 116.9 105.733 117.073C105.733 117.246 105.959 117.388 106.243 117.388C106.526 117.388 106.752 117.252 106.752 117.078Z" fill="white"/>
<path d="M104.919 118.581C104.919 118.265 104.488 118.013 103.952 118.008C103.422 118.008 102.986 118.26 102.986 118.575C102.986 118.89 103.417 119.143 103.952 119.148C104.483 119.148 104.919 118.896 104.919 118.581Z" fill="#2398DD"/>
<path d="M104.462 118.581C104.462 118.407 104.236 118.265 103.952 118.265C103.669 118.265 103.443 118.402 103.438 118.575C103.438 118.749 103.664 118.89 103.947 118.89C104.231 118.89 104.462 118.754 104.462 118.581Z" fill="white"/>
<path d="M102.167 120.235C102.167 119.92 101.736 119.668 101.2 119.663C100.664 119.663 100.234 119.915 100.234 120.23C100.234 120.545 100.664 120.797 101.195 120.802C101.731 120.802 102.167 120.55 102.167 120.235Z" fill="#1B8AD7"/>
<path d="M101.71 120.235C101.71 120.062 101.484 119.92 101.2 119.92C100.916 119.92 100.691 120.057 100.685 120.23C100.685 120.403 100.911 120.545 101.195 120.545C101.484 120.55 101.71 120.409 101.71 120.235Z" fill="white"/>
<path d="M99.3565 121.817C99.3565 121.502 98.9258 121.249 98.39 121.244C97.8542 121.244 97.4235 121.496 97.4235 121.811C97.4235 122.127 97.8542 122.379 98.39 122.384C98.9205 122.384 99.3565 122.132 99.3565 121.817Z" fill="#137AD1"/>
<path d="M98.9047 121.816C98.9047 121.643 98.6789 121.501 98.3952 121.501C98.1116 121.501 97.8857 121.637 97.8805 121.811C97.8805 121.984 98.1064 122.126 98.39 122.126C98.6736 122.126 98.8995 121.984 98.9047 121.816Z" fill="white"/>
<path d="M131.455 117.961C131.455 117.646 131.024 117.393 130.488 117.388C129.953 117.388 129.522 117.64 129.522 117.955C129.522 118.271 129.953 118.523 130.483 118.528C131.019 118.528 131.455 118.276 131.455 117.961Z" fill="#50E6FF"/>
<path d="M130.998 117.961C130.998 117.787 130.772 117.646 130.488 117.646C130.205 117.646 129.979 117.782 129.974 117.955C129.974 118.129 130.199 118.271 130.483 118.271C130.772 118.271 130.998 118.134 130.998 117.961Z" fill="white"/>
<path d="M128.844 119.563C128.844 119.248 128.414 118.995 127.878 118.99C127.347 118.99 126.911 119.242 126.911 119.558C126.911 119.873 127.342 120.125 127.878 120.13C128.414 120.13 128.844 119.878 128.844 119.563Z" fill="#4ED6F7"/>
<path d="M128.393 119.563C128.393 119.39 128.167 119.248 127.883 119.248C127.6 119.248 127.374 119.384 127.368 119.558C127.368 119.731 127.594 119.873 127.878 119.873C128.162 119.873 128.393 119.736 128.393 119.563Z" fill="white"/>
<path d="M126.323 121.249C126.323 120.934 125.892 120.682 125.357 120.677C124.826 120.677 124.39 120.929 124.39 121.244C124.39 121.559 124.821 121.811 125.357 121.817C125.887 121.817 126.323 121.564 126.323 121.249Z" fill="#43C8F1"/>
<path d="M125.871 121.249C125.871 121.075 125.646 120.933 125.362 120.933C125.078 120.933 124.852 121.07 124.852 121.243C124.852 121.417 125.078 121.558 125.362 121.558C125.64 121.558 125.866 121.422 125.871 121.249Z" fill="white"/>
<path d="M123.649 122.914C123.649 122.599 123.219 122.347 122.683 122.341C122.153 122.341 121.717 122.593 121.717 122.909C121.717 123.224 122.147 123.476 122.683 123.481C123.219 123.481 123.649 123.229 123.649 122.914Z" fill="#37B8EB"/>
<path d="M123.198 122.914C123.198 122.741 122.972 122.599 122.688 122.599C122.405 122.599 122.179 122.735 122.174 122.909C122.174 123.082 122.399 123.224 122.683 123.224C122.967 123.224 123.198 123.087 123.198 122.914Z" fill="white"/>
<path d="M120.64 124.632C120.64 124.317 120.209 124.065 119.673 124.059C119.143 124.059 118.707 124.311 118.707 124.627C118.707 124.942 119.138 125.194 119.668 125.199C120.209 125.199 120.64 124.947 120.64 124.632Z" fill="#2EA8E3"/>
<path d="M120.188 124.631C120.188 124.458 119.962 124.316 119.679 124.316C119.395 124.316 119.169 124.452 119.164 124.626C119.164 124.799 119.39 124.941 119.673 124.941C119.957 124.941 120.188 124.804 120.188 124.631Z" fill="white"/>
<path d="M118.35 126.133C118.35 125.818 117.919 125.566 117.383 125.561C116.847 125.561 116.417 125.813 116.417 126.128C116.417 126.443 116.847 126.695 117.383 126.701C117.919 126.701 118.35 126.448 118.35 126.133Z" fill="#2398DD"/>
<path d="M117.898 126.133C117.898 125.96 117.672 125.818 117.389 125.818C117.105 125.818 116.879 125.955 116.874 126.128C116.874 126.301 117.1 126.443 117.383 126.443C117.667 126.443 117.898 126.307 117.898 126.133Z" fill="white"/>
<path d="M115.603 127.793C115.603 127.478 115.172 127.226 114.636 127.22C114.106 127.22 113.67 127.473 113.67 127.788C113.67 128.103 114.1 128.355 114.631 128.36C115.167 128.355 115.597 128.103 115.603 127.793Z" fill="#1B8AD7"/>
<path d="M115.146 127.788C115.146 127.615 114.92 127.473 114.636 127.473C114.353 127.473 114.127 127.609 114.121 127.783C114.121 127.956 114.347 128.098 114.631 128.098C114.915 128.103 115.146 127.961 115.146 127.788Z" fill="white"/>
<path d="M112.793 129.369C112.793 129.054 112.362 128.802 111.826 128.797C111.29 128.797 110.86 129.049 110.86 129.364C110.86 129.679 111.29 129.931 111.826 129.937C112.357 129.937 112.787 129.685 112.793 129.369Z" fill="#137AD1"/>
<path d="M112.335 129.369C112.335 129.195 112.11 129.053 111.826 129.053C111.542 129.053 111.311 129.19 111.311 129.363C111.311 129.537 111.537 129.679 111.821 129.679C112.104 129.679 112.335 129.542 112.335 129.369Z" fill="white"/>
<path d="M67.3894 109.993C67.3894 109.678 66.9587 109.426 66.4229 109.42C65.8871 109.42 65.4564 109.673 65.4564 109.988C65.4564 110.303 65.8871 110.555 66.4229 110.56C66.9534 110.56 67.3894 110.308 67.3894 109.993Z" fill="#50E6FF"/>
<path d="M66.9377 109.992C66.9377 109.819 66.7118 109.677 66.4282 109.677C66.1445 109.677 65.9134 109.814 65.9134 109.987C65.9134 110.16 66.1393 110.302 66.4229 110.302C66.7066 110.302 66.9324 110.165 66.9377 109.992Z" fill="white"/>
<path d="M70.0892 111.674C70.0892 111.358 69.6585 111.106 69.1227 111.101C68.5922 111.101 68.1563 111.353 68.1563 111.668C68.1563 111.984 68.587 112.236 69.1227 112.241C69.6533 112.241 70.0892 111.989 70.0892 111.674Z" fill="#4ED6F7"/>
<path d="M69.6322 111.674C69.6322 111.5 69.4064 111.358 69.1228 111.358C68.8391 111.358 68.6133 111.495 68.608 111.668C68.608 111.842 68.8339 111.983 69.1175 111.983C69.4011 111.983 69.6322 111.842 69.6322 111.674Z" fill="white"/>
<path d="M72.8152 113.323C72.8152 113.008 72.3845 112.756 71.854 112.751C71.3183 112.751 70.8875 113.003 70.8875 113.318C70.8875 113.633 71.3183 113.885 71.854 113.891C72.3793 113.891 72.8152 113.638 72.8152 113.323Z" fill="#43C8F1"/>
<path d="M72.3582 113.322C72.3582 113.149 72.1323 113.007 71.8487 113.007C71.5651 113.007 71.3392 113.144 71.334 113.317C71.334 113.491 71.5598 113.632 71.8435 113.632C72.1323 113.632 72.3582 113.496 72.3582 113.322Z" fill="white"/>
<path d="M75.5098 114.972C75.5098 114.657 75.079 114.405 74.5433 114.399C74.0075 114.399 73.5768 114.652 73.5768 114.967C73.5768 115.282 74.0075 115.534 74.5433 115.539C75.079 115.539 75.5098 115.287 75.5098 114.972Z" fill="#37B8EB"/>
<path d="M75.0581 114.972C75.0581 114.799 74.8322 114.657 74.5486 114.657C74.265 114.657 74.0391 114.794 74.0338 114.967C74.0338 115.14 74.2597 115.282 74.5433 115.282C74.827 115.282 75.0581 115.145 75.0581 114.972Z" fill="white"/>
<path d="M78.236 116.653C78.236 116.337 77.8053 116.085 77.2695 116.08C76.739 116.08 76.303 116.332 76.303 116.647C76.303 116.963 76.7337 117.215 77.2695 117.22C77.8053 117.22 78.236 116.968 78.236 116.653Z" fill="#2EA8E3"/>
<path d="M77.7842 116.653C77.7842 116.479 77.5583 116.337 77.2747 116.337C76.991 116.337 76.7652 116.474 76.7599 116.647C76.7599 116.821 76.9858 116.962 77.2694 116.962C77.5531 116.962 77.7842 116.821 77.7842 116.653Z" fill="white"/>
<path d="M80.9619 118.302C80.9619 117.987 80.5312 117.735 79.9955 117.73C79.4597 117.73 79.029 117.982 79.029 118.297C79.029 118.612 79.4597 118.864 79.9955 118.87C80.5312 118.87 80.9619 118.617 80.9619 118.302Z" fill="#2398DD"/>
<path d="M80.5103 118.302C80.5103 118.129 80.2844 117.987 80.0008 117.987C79.7172 117.987 79.4913 118.124 79.4913 118.297C79.4913 118.471 79.7172 118.612 80.0008 118.612C80.2792 118.612 80.5103 118.476 80.5103 118.302Z" fill="white"/>
<path d="M83.6618 119.983C83.6618 119.668 83.2311 119.415 82.6954 119.41C82.1596 119.41 81.7289 119.662 81.7289 119.977C81.7289 120.293 82.1596 120.545 82.6954 120.55C83.2259 120.55 83.6618 120.293 83.6618 119.983Z" fill="#1B8AD7"/>
<path d="M83.21 119.978C83.21 119.804 82.9842 119.663 82.7005 119.663C82.4169 119.663 82.191 119.799 82.191 119.972C82.191 120.146 82.4169 120.288 82.7005 120.288C82.9789 120.293 83.2048 120.151 83.21 119.978Z" fill="white"/>
<path d="M86.3878 121.633C86.3878 121.317 85.9571 121.065 85.4266 121.06C84.8909 121.06 84.4601 121.312 84.4601 121.627C84.4601 121.942 84.8909 122.195 85.4266 122.2C85.9571 122.2 86.3878 121.948 86.3878 121.633Z" fill="#137AD1"/>
<path d="M85.9362 121.632C85.9362 121.458 85.7104 121.317 85.4267 121.317C85.1431 121.317 84.9172 121.453 84.912 121.627C84.912 121.8 85.1378 121.942 85.4215 121.942C85.7051 121.942 85.9362 121.8 85.9362 121.632Z" fill="white"/>
<path d="M52.4511 118.402C52.4511 118.087 52.0204 117.835 51.4846 117.83C50.9489 117.83 50.5182 118.082 50.5182 118.397C50.5182 118.712 50.9489 118.964 51.4846 118.97C52.0204 118.97 52.4511 118.718 52.4511 118.402Z" fill="#50E6FF"/>
<path d="M51.9993 118.402C51.9993 118.229 51.7734 118.087 51.4898 118.087C51.2061 118.087 50.9803 118.224 50.975 118.397C50.975 118.57 51.2009 118.712 51.4845 118.712C51.7682 118.712 51.9993 118.576 51.9993 118.402Z" fill="white"/>
<path d="M55.1508 120.051C55.1508 119.736 54.7201 119.484 54.1844 119.479C53.6486 119.479 53.2179 119.731 53.2179 120.046C53.2179 120.361 53.6486 120.613 54.1844 120.618C54.7149 120.618 55.1508 120.366 55.1508 120.051Z" fill="#4ED6F7"/>
<path d="M54.6939 120.051C54.6939 119.878 54.468 119.736 54.1844 119.736C53.9008 119.736 53.6749 119.873 53.6696 120.046C53.6696 120.219 53.8955 120.361 54.1791 120.361C54.468 120.361 54.6939 120.225 54.6939 120.051Z" fill="white"/>
<path d="M57.8769 121.732C57.8769 121.417 57.4462 121.165 56.9105 121.16C56.3747 121.16 55.944 121.412 55.944 121.727C55.944 122.042 56.3747 122.294 56.9105 122.3C57.441 122.3 57.8769 122.042 57.8769 121.732Z" fill="#43C8F1"/>
<path d="M57.42 121.727C57.42 121.553 57.1941 121.412 56.9105 121.412C56.6268 121.412 56.401 121.548 56.3957 121.722C56.3957 121.895 56.6216 122.037 56.9052 122.037C57.1941 122.042 57.42 121.9 57.42 121.727Z" fill="white"/>
<path d="M60.5768 123.381C60.5768 123.066 60.1461 122.814 59.6104 122.809C59.0746 122.809 58.6439 123.061 58.6439 123.376C58.6439 123.691 59.0746 123.943 59.6104 123.949C60.1409 123.949 60.5716 123.697 60.5768 123.381Z" fill="#37B8EB"/>
<path d="M60.1199 123.381C60.1199 123.208 59.894 123.066 59.6104 123.066C59.3267 123.066 59.1009 123.203 59.0956 123.376C59.0956 123.549 59.3215 123.691 59.6051 123.691C59.8887 123.691 60.1199 123.549 60.1199 123.381Z" fill="white"/>
<path d="M63.3029 125.062C63.3029 124.747 62.8722 124.495 62.3364 124.489C61.8007 124.489 61.37 124.741 61.37 125.057C61.37 125.372 61.8007 125.624 62.3364 125.629C62.8669 125.624 63.2977 125.372 63.3029 125.062Z" fill="#2EA8E3"/>
<path d="M62.8459 125.057C62.8459 124.884 62.6201 124.742 62.3364 124.742C62.0528 124.742 61.8269 124.878 61.8217 125.052C61.8217 125.225 62.0475 125.367 62.3312 125.367C62.6148 125.372 62.8459 125.23 62.8459 125.057Z" fill="white"/>
<path d="M66.0289 126.711C66.0289 126.396 65.5982 126.144 65.0624 126.139C64.5267 126.139 64.0959 126.391 64.0959 126.706C64.0959 127.021 64.5267 127.273 65.0624 127.279C65.5929 127.279 66.0289 127.021 66.0289 126.711Z" fill="#2398DD"/>
<path d="M65.572 126.706C65.572 126.532 65.3462 126.391 65.0625 126.391C64.7789 126.391 64.553 126.527 64.5478 126.701C64.5478 126.874 64.7737 127.016 65.0573 127.016C65.3409 127.021 65.572 126.879 65.572 126.706Z" fill="white"/>
<path d="M68.7236 128.387C68.7236 128.072 68.2929 127.82 67.7571 127.814C67.2266 127.814 66.7906 128.067 66.7906 128.382C66.7906 128.697 67.2214 128.949 67.7571 128.954C68.2929 128.954 68.7236 128.702 68.7236 128.387Z" fill="#1B8AD7"/>
<path d="M68.2717 128.387C68.2717 128.214 68.0459 128.072 67.7622 128.072C67.4786 128.072 67.2527 128.209 67.2527 128.382C67.2527 128.555 67.4786 128.697 67.7622 128.697C68.0406 128.697 68.2717 128.561 68.2717 128.387Z" fill="white"/>
<path d="M71.4495 130.037C71.4495 129.721 71.0188 129.469 70.4831 129.464C69.9473 129.464 69.5166 129.716 69.5166 130.031C69.5166 130.347 69.9473 130.599 70.4831 130.604C71.0188 130.604 71.4495 130.352 71.4495 130.037Z" fill="#137AD1"/>
<path d="M70.9979 130.036C70.9979 129.863 70.772 129.721 70.4884 129.721C70.2048 129.721 69.9789 129.858 69.9789 130.031C69.9789 130.204 70.2048 130.346 70.4884 130.346C70.7668 130.351 70.9979 130.209 70.9979 130.036Z" fill="white"/>
<path d="M51.9049 149.314C52.4406 149.314 52.8713 149.056 52.8713 148.746C52.8713 148.431 52.4406 148.179 51.9049 148.179C51.3691 148.179 50.9384 148.436 50.9384 148.746C50.9384 149.061 51.3743 149.314 51.9049 149.314Z" fill="#50E6FF"/>
<path d="M51.9048 149.056C52.1884 149.056 52.4143 148.914 52.4143 148.741C52.4143 148.567 52.1831 148.431 51.9048 148.431C51.6211 148.431 51.3953 148.572 51.3953 148.746C51.3953 148.919 51.6211 149.056 51.9048 149.056Z" fill="white"/>
<path d="M55.6394 147.223C55.6394 146.908 55.2087 146.655 54.6729 146.65C54.1372 146.65 53.7065 146.902 53.7065 147.217C53.7065 147.533 54.1372 147.785 54.6729 147.79C55.2034 147.79 55.6394 147.538 55.6394 147.223Z" fill="#4ED6F7"/>
<path d="M55.1824 147.223C55.1824 147.05 54.9566 146.908 54.6729 146.908C54.3893 146.908 54.1634 147.044 54.1582 147.218C54.1582 147.391 54.384 147.533 54.6677 147.533C54.9513 147.538 55.1824 147.396 55.1824 147.223Z" fill="white"/>
<path d="M58.4076 145.668C58.4076 145.353 57.9769 145.101 57.4411 145.096C56.9053 145.09 56.4746 145.348 56.4746 145.663C56.4746 145.978 56.9053 146.23 57.4411 146.235C57.9769 146.235 58.4076 145.983 58.4076 145.668Z" fill="#43C8F1"/>
<path d="M57.9557 145.668C57.9557 145.495 57.7299 145.353 57.4462 145.353C57.1626 145.353 56.9367 145.49 56.9315 145.663C56.9315 145.836 57.1573 145.978 57.441 145.978C57.7246 145.978 57.9557 145.842 57.9557 145.668Z" fill="white"/>
<path d="M61.0495 144.208C61.0495 143.892 60.6187 143.64 60.083 143.635C59.5472 143.635 59.1165 143.887 59.1165 144.202C59.1165 144.517 59.5472 144.77 60.083 144.775C60.6135 144.775 61.0442 144.523 61.0495 144.208Z" fill="#37B8EB"/>
<path d="M60.5925 144.207C60.5925 144.034 60.3667 143.892 60.083 143.892C59.7994 143.892 59.5735 144.029 59.5683 144.202C59.5683 144.376 59.7941 144.517 60.0778 144.517C60.3614 144.517 60.5925 144.381 60.5925 144.207Z" fill="white"/>
<path d="M63.8176 142.679C63.8176 142.364 63.3869 142.112 62.8512 142.107C62.3154 142.107 61.8847 142.359 61.8847 142.674C61.8847 142.989 62.3154 143.241 62.8512 143.247C63.3817 143.247 63.8176 142.995 63.8176 142.679Z" fill="#2EA8E3"/>
<path d="M63.3607 142.679C63.3607 142.506 63.1348 142.364 62.8512 142.364C62.5675 142.364 62.3417 142.501 62.3364 142.674C62.3364 142.847 62.5623 142.989 62.8459 142.989C63.1348 142.989 63.3607 142.853 63.3607 142.679Z" fill="white"/>
<path d="M66.5594 141.182C66.5594 140.867 66.1287 140.615 65.5929 140.61C65.0624 140.61 64.6264 140.862 64.6264 141.177C64.6264 141.492 65.0571 141.744 65.5929 141.749C66.1234 141.749 66.5594 141.497 66.5594 141.182Z" fill="#2398DD"/>
<path d="M66.1026 141.182C66.1026 141.009 65.8767 140.867 65.5931 140.867C65.3094 140.867 65.0836 141.004 65.0836 141.177C65.0836 141.35 65.3094 141.492 65.5931 141.492C65.8767 141.492 66.1026 141.35 66.1026 141.182Z" fill="white"/>
<path d="M69.3014 139.68C69.3014 139.365 68.8706 139.113 68.3349 139.107C67.8044 139.107 67.3684 139.36 67.3684 139.675C67.3684 139.99 67.7991 140.242 68.3296 140.247C68.8654 140.247 69.2961 139.995 69.3014 139.68Z" fill="#1B8AD7"/>
<path d="M68.8443 139.68C68.8443 139.507 68.6184 139.365 68.3348 139.365C68.0511 139.365 67.8253 139.501 67.8253 139.675C67.8253 139.848 68.0511 139.99 68.3348 139.99C68.6132 139.99 68.8443 139.853 68.8443 139.68Z" fill="white"/>
<path d="M72.0746 138.068C72.0746 137.752 71.6439 137.5 71.1081 137.495C70.5723 137.495 70.1416 137.747 70.1416 138.062C70.1416 138.378 70.5723 138.63 71.1081 138.635C71.6386 138.635 72.0693 138.378 72.0746 138.068Z" fill="#137AD1"/>
<path d="M71.6177 138.062C71.6177 137.889 71.3919 137.747 71.1082 137.747C70.8246 137.747 70.5987 137.883 70.5935 138.057C70.5935 138.23 70.8193 138.372 71.103 138.372C71.3866 138.377 71.6177 138.235 71.6177 138.062Z" fill="white"/>
<path d="M67.132 157.917C67.6625 157.917 68.0984 157.66 68.0984 157.35C68.0984 157.035 67.6677 156.782 67.132 156.782C66.6015 156.782 66.1655 157.04 66.1655 157.35C66.1655 157.665 66.5962 157.922 67.132 157.917Z" fill="#50E6FF"/>
<path d="M67.132 157.665C67.4156 157.665 67.6415 157.523 67.6415 157.35C67.6415 157.176 67.4104 157.04 67.132 157.04C66.8484 157.04 66.6225 157.182 66.6225 157.355C66.6172 157.523 66.8484 157.665 67.132 157.665Z" fill="white"/>
<path d="M70.6774 155.795C70.6774 155.48 70.2467 155.228 69.711 155.223C69.1752 155.223 68.7445 155.475 68.7445 155.79C68.7445 156.105 69.1752 156.357 69.711 156.362C70.2467 156.362 70.6774 156.11 70.6774 155.795Z" fill="#4ED6F7"/>
<path d="M70.2258 155.794C70.2258 155.621 69.9999 155.479 69.7163 155.479C69.4326 155.479 69.2068 155.616 69.2015 155.789C69.2015 155.962 69.4274 156.104 69.711 156.104C69.9946 156.104 70.2258 155.968 70.2258 155.794Z" fill="white"/>
<path d="M73.2775 154.246C73.2775 153.93 72.8468 153.678 72.311 153.673C71.7805 153.673 71.3445 153.925 71.3445 154.24C71.3445 154.556 71.7753 154.808 72.311 154.813C72.8415 154.813 73.2722 154.561 73.2775 154.246Z" fill="#43C8F1"/>
<path d="M72.8205 154.246C72.8205 154.072 72.5947 153.93 72.311 153.93C72.0274 153.93 71.8015 154.067 71.7963 154.24C71.7963 154.414 72.0221 154.555 72.3058 154.555C72.5894 154.555 72.8205 154.414 72.8205 154.246Z" fill="white"/>
<path d="M75.846 152.696C75.846 152.381 75.4153 152.129 74.8796 152.123C74.349 152.123 73.9131 152.375 73.9131 152.691C73.9131 153.006 74.3438 153.258 74.8796 153.263C75.4101 153.263 75.8408 153.006 75.846 152.696Z" fill="#37B8EB"/>
<path d="M75.389 152.696C75.389 152.523 75.1631 152.381 74.8795 152.381C74.5959 152.381 74.37 152.517 74.37 152.691C74.37 152.864 74.5959 153.006 74.8795 153.006C75.1579 153.006 75.389 152.864 75.389 152.696Z" fill="white"/>
<path d="M78.4408 151.146C78.4408 150.831 78.0101 150.579 77.4743 150.573C76.9386 150.573 76.5078 150.826 76.5078 151.141C76.5078 151.456 76.9386 151.708 77.4743 151.713C78.0048 151.713 78.4408 151.456 78.4408 151.146Z" fill="#2EA8E3"/>
<path d="M77.9838 151.141C77.9838 150.968 77.758 150.826 77.4743 150.826C77.1907 150.826 76.9648 150.962 76.9596 151.136C76.9596 151.309 77.1854 151.451 77.4691 151.451C77.758 151.456 77.9838 151.314 77.9838 151.141Z" fill="white"/>
<path d="M81.0092 149.591C81.0092 149.276 80.5785 149.024 80.0428 149.019C79.5123 149.019 79.0763 149.271 79.0763 149.586C79.0763 149.901 79.507 150.153 80.0428 150.159C80.5733 150.159 81.0092 149.906 81.0092 149.591Z" fill="#2398DD"/>
<path d="M80.5523 149.592C80.5523 149.418 80.3264 149.276 80.0428 149.276C79.7592 149.276 79.5333 149.413 79.5333 149.586C79.5333 149.76 79.7592 149.901 80.0428 149.901C80.3264 149.907 80.5523 149.765 80.5523 149.592Z" fill="white"/>
<path d="M83.604 148.043C83.604 147.727 83.1733 147.475 82.6375 147.47C82.1017 147.47 81.671 147.722 81.671 148.037C81.671 148.352 82.1017 148.605 82.6375 148.61C83.1733 148.61 83.604 148.358 83.604 148.043Z" fill="#1B8AD7"/>
<path d="M83.1523 148.042C83.1523 147.868 82.9264 147.727 82.6428 147.727C82.3592 147.727 82.1333 147.863 82.1281 148.036C82.1281 148.21 82.3539 148.352 82.6376 148.352C82.9212 148.352 83.1523 148.215 83.1523 148.042Z" fill="white"/>
<path d="M86.1725 146.493C86.1725 146.178 85.7418 145.926 85.206 145.92C84.6703 145.92 84.2396 146.173 84.2396 146.488C84.2396 146.803 84.6703 147.055 85.206 147.06C85.7365 147.06 86.1725 146.808 86.1725 146.493Z" fill="#137AD1"/>
<path d="M85.7208 146.493C85.7208 146.32 85.495 146.178 85.2113 146.178C84.9277 146.178 84.7018 146.314 84.6966 146.488C84.6966 146.661 84.9225 146.803 85.2061 146.803C85.4897 146.803 85.7208 146.666 85.7208 146.493Z" fill="white"/>
<path d="M117.084 156.719C117.084 156.404 116.653 156.152 116.123 156.147C115.587 156.147 115.156 156.399 115.156 156.714C115.156 157.029 115.587 157.281 116.123 157.287C116.653 157.287 117.084 157.034 117.084 156.719Z" fill="#50E6FF"/>
<path d="M116.632 156.719C116.632 156.546 116.406 156.404 116.123 156.404C115.839 156.404 115.613 156.541 115.608 156.714C115.608 156.887 115.834 157.029 116.117 157.029C116.401 157.029 116.632 156.893 116.632 156.719Z" fill="white"/>
<path d="M114.599 155.217C114.599 154.902 114.169 154.65 113.633 154.645C113.102 154.645 112.667 154.897 112.667 155.212C112.667 155.527 113.097 155.779 113.633 155.784C114.163 155.784 114.594 155.532 114.599 155.217Z" fill="#4ED6F7"/>
<path d="M114.142 155.217C114.142 155.044 113.917 154.902 113.633 154.902C113.349 154.902 113.123 155.038 113.118 155.212C113.118 155.385 113.344 155.527 113.628 155.527C113.911 155.527 114.142 155.39 114.142 155.217Z" fill="white"/>
<path d="M112.11 153.715C112.11 153.4 111.679 153.148 111.143 153.142C110.613 153.142 110.177 153.394 110.177 153.71C110.177 154.025 110.607 154.277 111.143 154.282C111.679 154.282 112.11 154.03 112.11 153.715Z" fill="#43C8F1"/>
<path d="M111.658 153.715C111.658 153.541 111.432 153.4 111.148 153.4C110.865 153.4 110.639 153.536 110.634 153.71C110.634 153.883 110.86 154.025 111.143 154.025C111.427 154.025 111.658 153.888 111.658 153.715Z" fill="white"/>
<path d="M109.651 152.244C109.651 151.929 109.221 151.677 108.685 151.672C108.154 151.672 107.718 151.924 107.718 152.239C107.718 152.554 108.149 152.806 108.685 152.811C109.215 152.811 109.651 152.554 109.651 152.244Z" fill="#37B8EB"/>
<path d="M109.2 152.238C109.2 152.065 108.974 151.923 108.69 151.923C108.407 151.923 108.181 152.06 108.175 152.233C108.175 152.407 108.401 152.548 108.685 152.548C108.969 152.554 109.194 152.412 109.2 152.238Z" fill="white"/>
<path d="M107.167 150.742C107.167 150.427 106.736 150.175 106.206 150.169C105.67 150.169 105.239 150.422 105.239 150.737C105.239 151.052 105.67 151.304 106.206 151.309C106.731 151.309 107.162 151.052 107.167 150.742Z" fill="#2EA8E3"/>
<path d="M106.71 150.737C106.71 150.564 106.484 150.422 106.201 150.422C105.917 150.422 105.691 150.558 105.686 150.732C105.686 150.905 105.912 151.047 106.195 151.047C106.479 151.052 106.71 150.91 106.71 150.737Z" fill="white"/>
<path d="M104.677 149.24C104.677 148.925 104.247 148.672 103.711 148.667C103.18 148.667 102.744 148.919 102.744 149.235C102.744 149.55 103.175 149.802 103.711 149.807C104.241 149.807 104.677 149.55 104.677 149.24Z" fill="#2398DD"/>
<path d="M104.226 149.234C104.226 149.061 104 148.919 103.716 148.919C103.432 148.919 103.207 149.056 103.201 149.229C103.201 149.402 103.427 149.544 103.711 149.544C103.994 149.549 104.22 149.407 104.226 149.234Z" fill="white"/>
<path d="M102.219 147.738C102.219 147.422 101.788 147.17 101.258 147.165C100.722 147.165 100.291 147.417 100.291 147.732C100.291 148.047 100.722 148.3 101.258 148.305C101.783 148.305 102.219 148.047 102.219 147.738Z" fill="#1B8AD7"/>
<path d="M101.762 147.738C101.762 147.564 101.536 147.423 101.253 147.423C100.969 147.423 100.743 147.559 100.738 147.733C100.738 147.906 100.964 148.048 101.247 148.048C101.536 148.048 101.762 147.906 101.762 147.738Z" fill="white"/>
<path d="M99.7294 146.235C99.7294 145.92 99.2987 145.668 98.7682 145.663C98.2324 145.663 97.8017 145.915 97.8017 146.23C97.8017 146.545 98.2324 146.797 98.7682 146.803C99.2987 146.803 99.7294 146.551 99.7294 146.235Z" fill="#137AD1"/>
<path d="M99.2777 146.236C99.2777 146.062 99.0519 145.92 98.7682 145.92C98.4846 145.92 98.2587 146.057 98.2535 146.23C98.2535 146.404 98.4793 146.545 98.763 146.545C99.0466 146.545 99.2777 146.404 99.2777 146.236Z" fill="white"/>
<path d="M131.413 148.704C131.413 148.389 130.982 148.137 130.446 148.132C129.916 148.132 129.48 148.384 129.48 148.699C129.48 149.014 129.911 149.266 130.446 149.271C130.982 149.271 131.413 149.019 131.413 148.704Z" fill="#50E6FF"/>
<path d="M130.961 148.704C130.961 148.531 130.735 148.389 130.452 148.389C130.168 148.389 129.942 148.525 129.942 148.699C129.942 148.872 130.168 149.014 130.452 149.014C130.73 149.014 130.961 148.877 130.961 148.704Z" fill="white"/>
<path d="M128.839 147.186C128.839 146.871 128.408 146.619 127.873 146.614C127.342 146.614 126.906 146.866 126.906 147.181C126.906 147.496 127.337 147.748 127.873 147.753C128.408 147.753 128.839 147.496 128.839 147.186Z" fill="#4ED6F7"/>
<path d="M128.387 147.18C128.387 147.007 128.161 146.865 127.878 146.865C127.594 146.865 127.368 147.002 127.363 147.175C127.363 147.348 127.589 147.49 127.873 147.49C128.156 147.496 128.387 147.354 128.387 147.18Z" fill="white"/>
<path d="M126.239 145.663C126.239 145.348 125.808 145.096 125.273 145.09C124.737 145.09 124.306 145.342 124.306 145.658C124.306 145.973 124.737 146.225 125.273 146.23C125.808 146.23 126.239 145.978 126.239 145.663Z" fill="#43C8F1"/>
<path d="M125.787 145.663C125.787 145.49 125.561 145.348 125.278 145.348C124.994 145.348 124.768 145.484 124.763 145.658C124.763 145.831 124.989 145.973 125.273 145.973C125.556 145.973 125.787 145.831 125.787 145.663Z" fill="white"/>
<path d="M123.665 144.139C123.665 143.824 123.235 143.572 122.699 143.567C122.168 143.567 121.732 143.819 121.732 144.134C121.732 144.449 122.163 144.701 122.699 144.706C123.235 144.706 123.665 144.454 123.665 144.139Z" fill="#37B8EB"/>
<path d="M123.214 144.139C123.214 143.966 122.988 143.824 122.704 143.824C122.42 143.824 122.195 143.961 122.189 144.134C122.189 144.307 122.415 144.449 122.699 144.449C122.982 144.449 123.214 144.312 123.214 144.139Z" fill="white"/>
<path d="M121.065 142.616C121.065 142.301 120.634 142.049 120.099 142.043C119.568 142.043 119.132 142.296 119.132 142.611C119.132 142.926 119.563 143.178 120.099 143.183C120.629 143.183 121.065 142.931 121.065 142.616Z" fill="#2EA8E3"/>
<path d="M120.614 142.616C120.614 142.443 120.388 142.301 120.104 142.301C119.82 142.301 119.595 142.438 119.595 142.611C119.595 142.784 119.82 142.926 120.104 142.926C120.382 142.931 120.614 142.79 120.614 142.616Z" fill="white"/>
<path d="M118.492 141.098C118.492 140.783 118.061 140.531 117.53 140.525C116.995 140.525 116.564 140.778 116.564 141.093C116.564 141.408 116.995 141.66 117.53 141.665C118.061 141.665 118.492 141.408 118.492 141.098Z" fill="#2398DD"/>
<path d="M118.04 141.093C118.04 140.92 117.814 140.778 117.53 140.778C117.247 140.778 117.021 140.914 117.016 141.088C117.016 141.261 117.241 141.403 117.525 141.403C117.809 141.408 118.04 141.266 118.04 141.093Z" fill="white"/>
<path d="M115.891 139.575C115.891 139.26 115.461 139.008 114.925 139.002C114.389 139.002 113.958 139.255 113.958 139.57C113.958 139.885 114.389 140.137 114.925 140.142C115.455 140.142 115.891 139.89 115.891 139.575Z" fill="#1B8AD7"/>
<path d="M115.44 139.575C115.44 139.402 115.214 139.26 114.93 139.26C114.647 139.26 114.421 139.396 114.421 139.57C114.421 139.743 114.647 139.885 114.93 139.885C115.209 139.885 115.435 139.748 115.44 139.575Z" fill="white"/>
<path d="M113.318 138.052C113.318 137.737 112.887 137.485 112.351 137.479C111.821 137.479 111.385 137.732 111.385 138.047C111.385 138.362 111.816 138.614 112.351 138.619C112.887 138.619 113.318 138.367 113.318 138.052Z" fill="#137AD1"/>
<path d="M112.866 138.052C112.866 137.879 112.64 137.737 112.357 137.737C112.073 137.737 111.847 137.873 111.842 138.047C111.842 138.22 112.068 138.362 112.351 138.362C112.635 138.362 112.866 138.225 112.866 138.052Z" fill="white"/>
<path d="M118.695 105.753H103.305" stroke="white" stroke-width="0.8" stroke-miterlimit="10" stroke-linejoin="round"/>
<path d="M118.695 88.3003H103.305" stroke="white" stroke-width="0.8" stroke-miterlimit="10" stroke-linejoin="round"/>
<path d="M118.695 70.8337H103.305V123.175H118.68" stroke="white" stroke-width="0.8" stroke-miterlimit="10" stroke-linejoin="round"/>
<path d="M103.35 97.5198H91.7847" stroke="white" stroke-miterlimit="10" stroke-linejoin="round"/>
<path fill-rule="evenodd" clip-rule="evenodd" d="M135.751 88.6713H120.36V87.8713H135.751V88.6713Z" fill="white"/>
<path fill-rule="evenodd" clip-rule="evenodd" d="M135.751 71.7966H120.36V70.9966H135.751V71.7966Z" fill="white"/>
<path fill-rule="evenodd" clip-rule="evenodd" d="M135.751 106.109H120.36V105.309H135.751V106.109Z" fill="white"/>
<path fill-rule="evenodd" clip-rule="evenodd" d="M135.751 124.234H120.36V123.434H135.751V124.234Z" fill="white"/>
<path fill-rule="evenodd" clip-rule="evenodd" d="M115.242 60.5962H135.751C135.972 60.5962 136.151 60.7753 136.151 60.9962V133.013C136.151 133.234 135.972 133.413 135.751 133.413H115.242V132.613H135.351V61.3962H115.242V60.5962Z" fill="white"/>
<path fill-rule="evenodd" clip-rule="evenodd" d="M152.246 96.9893H135.705V95.9893H152.246V96.9893Z" fill="white"/>
<path opacity="0.15" d="M129.528 64.4233H112.18C111.119 64.4233 110.268 65.275 110.268 66.3359V76.9596C110.268 78.0205 111.119 78.8722 112.18 78.8722H129.543C130.604 78.8871 131.455 78.0354 131.455 76.9596V66.3508C131.455 65.2601 130.589 64.4233 129.528 64.4233Z" fill="#1F1D20"/>
<path opacity="0.15" d="M129.528 99.7761H112.18C111.119 99.7761 110.268 100.628 110.268 101.689V112.327C110.268 113.388 111.119 114.24 112.18 114.24H129.543C130.604 114.24 131.455 113.388 131.455 112.327V101.719C131.455 100.628 130.589 99.7761 129.528 99.7761Z" fill="#1F1D20"/>
<path opacity="0.15" d="M129.528 82.0552H112.18C111.119 82.0552 110.268 82.9069 110.268 83.9677V94.5914C110.268 95.6523 111.119 96.504 112.18 96.504H129.543C130.604 96.5189 131.455 95.6672 131.455 94.5914V83.9677C131.455 82.9218 130.589 82.0552 129.528 82.0552Z" fill="#1F1D20"/>
<path opacity="0.15" d="M129.528 117.408H112.18C111.119 117.408 110.268 118.259 110.268 119.32V129.959C110.268 131.02 111.119 131.871 112.18 131.871H129.543C130.604 131.871 131.455 131.02 131.455 129.959V119.335C131.455 118.289 130.589 117.408 129.528 117.408Z" fill="#1F1D20"/>
<path d="M129.528 63.1533H112.18C111.119 63.1533 110.268 64.005 110.268 65.0659V75.6896C110.268 76.7504 111.119 77.6021 112.18 77.6021H129.543C130.604 77.6171 131.455 76.7654 131.455 75.6896V65.0808C131.455 64.005 130.589 63.1533 129.528 63.1533Z" fill="#016ED2"/>
<path d="M129.528 98.5059H112.18C111.119 98.5059 110.268 99.3575 110.268 100.418V111.057C110.268 112.118 111.119 112.97 112.18 112.97H129.543C130.604 112.97 131.455 112.118 131.455 111.057V100.448C131.455 99.3575 130.589 98.5059 129.528 98.5059Z" fill="#02467E"/>
<path d="M129.528 80.8145H112.18C111.119 80.8145 110.268 81.6661 110.268 82.727V93.3507C110.268 94.4116 111.119 95.2633 112.18 95.2633H129.543C130.604 95.2782 131.455 94.4265 131.455 93.3507V82.727C131.455 81.6661 130.589 80.8145 129.528 80.8145Z" fill="#0153B4"/>
<path d="M129.528 116.153H112.18C111.119 116.153 110.268 117.005 110.268 118.066V128.704C110.268 129.765 111.119 130.617 112.18 130.617H129.543C130.604 130.617 131.455 129.765 131.455 128.704V118.081C131.455 117.035 130.589 116.153 129.528 116.153Z" fill="#012E4D"/>
<path d="M145.105 91.1797L154.13 96.3944L145.105 101.594V91.1797Z" fill="white"/>
<path opacity="0.15" d="M116.09 139.983C117.44 139.983 118.53 138.893 118.53 137.543V57.043H33.4898V137.553C33.4898 138.903 34.5798 139.993 35.9298 139.993H116.09V139.983Z" fill="#1F1D20"/>
<g filter="url(#filter0_d_812_22490)">
<path d="M118.52 57.7641V56.4441C118.52 54.8141 117.2 53.4941 115.57 53.4941H36.4398C34.8098 53.4941 33.4898 54.8141 33.4898 56.4441V57.9041V59.2441V134.964C33.4898 136.594 34.8098 137.914 36.4398 137.914H115.58C117.21 137.914 118.53 136.594 118.53 134.964V57.9041C118.54 57.8541 118.52 57.8141 118.52 57.7641Z" fill="white"/>
</g>
<path opacity="0.15" d="M87.503 126.107L54.1893 122.09L61.6739 117.839L97.1879 120.989L87.503 126.107Z" fill="#1F1D20"/>
<path d="M67.1165 91.1267L65.2079 90.9934L66.0997 78.4413C66.5164 72.5654 71.4589 67.9313 77.3515 67.8979C77.3765 67.8979 77.3932 67.8979 77.4182 67.8979C83.5442 67.8979 88.6283 72.8654 88.7617 78.9998L89.0201 90.8267L87.1031 90.8683L86.8447 79.0414C86.7364 73.9406 82.5107 69.8149 77.4182 69.8149C77.4015 69.8149 77.3848 69.8149 77.3682 69.8149C72.4674 69.8399 68.3584 73.6906 68.0166 78.5747L67.1165 91.1267Z" fill="#767778"/>
<path d="M82.2106 91.5577L81.8938 78.4805C81.7772 73.6298 78.0349 69.7208 73.1924 69.3874C70.667 69.2124 68.25 70.0458 66.358 71.7128C64.4744 73.3881 63.3575 75.6968 63.2241 78.2138L62.599 90.0991L60.6821 89.9991L61.3072 78.1138C61.4655 75.08 62.8074 72.2962 65.0828 70.2792C67.3582 68.2622 70.2753 67.2621 73.3175 67.4704C79.1517 67.8705 83.6608 72.5796 83.8025 78.4305L84.1192 91.5077L82.2106 91.5577Z" fill="#4C4C4C"/>
<path fill-rule="evenodd" clip-rule="evenodd" d="M87.503 124.055L54.1143 120.279L55.6895 83.4231H87.503V124.055Z" fill="url(#paint2_linear_812_22490)"/>
<path fill-rule="evenodd" clip-rule="evenodd" d="M87.5032 124.055L96.9547 119.646L95.3795 83.4231H87.5032V124.055Z" fill="url(#paint3_linear_812_22490)"/>
<path opacity="0.25" d="M84.4609 105.127C84.4775 105.06 84.4859 105.01 84.5109 104.952C84.6109 104.593 84.6609 104.21 84.6859 103.827C84.8693 100.476 82.3105 97.6256 78.9767 97.4422C78.5099 97.4172 78.0515 97.4422 77.6098 97.5172C76.3512 95.2585 74.0008 93.6749 71.2337 93.5249C66.933 93.2832 63.2574 96.5838 63.0157 100.876C63.0074 100.984 63.0074 101.084 62.9991 101.193C62.624 101.043 62.2073 100.943 61.7655 100.918C59.6485 100.801 57.8316 102.426 57.7149 104.543C57.6065 106.535 59.0234 108.252 60.9487 108.552L78.2849 109.553C80.5686 109.678 82.6106 108.536 83.7524 106.744C83.7858 106.694 83.8108 106.644 83.8524 106.585C84.0191 106.252 84.2775 105.769 84.4609 105.127Z" fill="#1F1D20"/>
<path d="M84.4609 104.419C84.4775 104.352 84.4859 104.302 84.5109 104.244C84.6109 103.885 84.6609 103.502 84.6859 103.118C84.8693 99.7678 82.3105 96.9173 78.9767 96.734C78.5099 96.709 78.0515 96.734 77.6098 96.809C76.3512 94.5503 74.0008 92.9667 71.2337 92.8167C66.933 92.575 63.2574 95.8755 63.0157 100.168C63.0074 100.276 63.0074 100.376 62.9991 100.485C62.624 100.335 62.2073 100.235 61.7655 100.21C59.6485 100.093 57.8316 101.718 57.7149 103.835C57.6065 105.827 59.0234 107.544 60.9487 107.844L78.2849 108.844C80.5686 108.969 82.6106 107.827 83.7524 106.035C83.7858 105.985 83.8108 105.935 83.8524 105.877C84.0191 105.544 84.2775 105.06 84.4609 104.419Z" fill="white"/>
<defs>
<filter id="filter0_d_812_22490" x="29.4898" y="53.4941" width="93.0428" height="92.4199" filterUnits="userSpaceOnUse" color-interpolation-filters="sRGB">
<feFlood flood-opacity="0" result="BackgroundImageFix"/>
<feColorMatrix in="SourceAlpha" type="matrix" values="0 0 0 0 0 0 0 0 0 0 0 0 0 0 0 0 0 0 127 0" result="hardAlpha"/>
<feOffset dy="4"/>
<feGaussianBlur stdDeviation="2"/>
<feComposite in2="hardAlpha" operator="out"/>
<feColorMatrix type="matrix" values="0 0 0 0 0 0 0 0 0 0 0 0 0 0 0 0 0 0 0.25 0"/>
<feBlend mode="normal" in2="BackgroundImageFix" result="effect1_dropShadow_812_22490"/>
<feBlend mode="normal" in="SourceGraphic" in2="effect1_dropShadow_812_22490" result="shape"/>
</filter>
<linearGradient id="paint0_linear_812_22490" x1="90.2417" y1="9.77588" x2="90.2417" y2="181.175" gradientUnits="userSpaceOnUse">
<stop stop-color="#00ABDE"/>
<stop offset="1" stop-color="#007ED8"/>
</linearGradient>
<linearGradient id="paint1_linear_812_22490" x1="36.3615" y1="4.5672" x2="203.039" y2="286.898" gradientUnits="userSpaceOnUse">
<stop stop-color="#007ED8"/>
<stop offset="0.7065" stop-color="#002D4C"/>
</linearGradient>
<linearGradient id="paint2_linear_812_22490" x1="70.6648" y1="74.154" x2="70.0397" y2="137.706" gradientUnits="userSpaceOnUse">
<stop offset="0.244792" stop-color="#0965BA"/>
<stop offset="0.479167" stop-color="#15548F"/>
<stop offset="0.692708" stop-color="#243A5E"/>
<stop offset="0.9677" stop-color="#1A2C45"/>
</linearGradient>
<linearGradient id="paint3_linear_812_22490" x1="91.5016" y1="40.3985" x2="89.8985" y2="136.196" gradientUnits="userSpaceOnUse">
<stop offset="0.244792" stop-color="#0965BA"/>
<stop offset="0.479167" stop-color="#15548F"/>
<stop offset="0.692708" stop-color="#243A5E"/>
<stop offset="0.9677" stop-color="#1A2C45"/>
</linearGradient>
</defs>
</svg>
