<svg width="103" height="103" viewBox="0 0 103 103" fill="none" xmlns="http://www.w3.org/2000/svg">
<path d="M51.8613 98.2411C26.0113 98.2411 5.05127 77.2911 5.05127 51.4311C5.05127 25.5711 26.0113 4.62109 51.8613 4.62109C77.7113 4.62109 98.6713 25.5811 98.6713 51.4311C98.6713 77.2811 77.7113 98.2411 51.8613 98.2411Z" fill="url(#paint0_linear_653_38122)"/>
<path fill-rule="evenodd" clip-rule="evenodd" d="M97.7612 51.431C97.7612 76.781 77.2112 97.331 51.8612 97.331C26.5112 97.331 5.96119 76.781 5.96119 51.431C5.96119 26.081 26.5112 5.53102 51.8612 5.53102C77.2112 5.53102 97.7612 26.081 97.7612 51.431ZM51.8612 1.79102C79.2812 1.79102 101.501 24.011 101.501 51.431C101.501 78.851 79.2712 101.071 51.8612 101.071C24.4412 101.071 2.22119 78.841 2.22119 51.431C2.22119 24.011 24.4412 1.79102 51.8612 1.79102Z" fill="#F2F1F0"/>
<path fill-rule="evenodd" clip-rule="evenodd" d="M94.9513 51.4316C94.9513 75.2316 75.6613 94.5216 51.8613 94.5216C28.0613 94.5216 8.77125 75.2316 8.77125 51.4316C8.77125 27.6316 28.0613 8.34157 51.8613 8.34157C75.6613 8.34157 94.9513 27.6316 94.9513 51.4316ZM51.8613 4.60156C77.7213 4.60156 98.6913 25.5716 98.6913 51.4316C98.6913 77.2916 77.7213 98.2616 51.8613 98.2616C26.0013 98.2616 5.03125 77.2916 5.03125 51.4316C5.03125 25.5716 25.9913 4.60156 51.8613 4.60156Z" fill="url(#paint1_linear_653_38122)"/>
<path opacity="0.2" d="M84.1178 28.5332H71.982C71.2421 28.5332 70.6348 29.1295 70.6348 29.8804V37.3121C70.6348 38.0519 71.2311 38.6593 71.982 38.6593H84.1288C84.8687 38.6703 85.476 38.063 85.476 37.3231V29.8914C85.465 29.1405 84.8687 28.5332 84.1178 28.5332Z" fill="#1F1D21"/>
<path opacity="0.2" d="M84.1178 53.2695H71.982C71.2421 53.2695 70.6348 53.8658 70.6348 54.6167V62.0484C70.6348 62.7882 71.2311 63.3956 71.982 63.3956H84.1288C84.8687 63.3956 85.476 62.7993 85.476 62.0484V54.6278C85.465 53.8769 84.8687 53.2695 84.1178 53.2695Z" fill="#1F1D21"/>
<path opacity="0.2" d="M84.1178 40.8789H71.982C71.2421 40.8789 70.6348 41.4752 70.6348 42.2261V49.6578C70.6348 50.3976 71.2311 51.005 71.982 51.005H84.1288C84.8687 51.016 85.476 50.4087 85.476 49.6578V42.2261C85.465 41.4862 84.8687 40.8789 84.1178 40.8789Z" fill="#1F1D21"/>
<path opacity="0.2" d="M84.1178 65.6133H71.982C71.2421 65.6133 70.6348 66.2096 70.6348 66.9605V74.3921C70.6348 75.132 71.2311 75.7393 71.982 75.7393H84.1288C84.8687 75.7393 85.476 75.143 85.476 74.3921V66.9605C85.465 66.2206 84.8687 65.6133 84.1178 65.6133Z" fill="#1F1D21"/>
<path fill-rule="evenodd" clip-rule="evenodd" d="M60.6309 69.168H77.4266V69.968H60.6309V69.168Z" fill="white"/>
<path fill-rule="evenodd" clip-rule="evenodd" d="M60.6309 56.9648H77.4266V57.7648H60.6309V56.9648Z" fill="white"/>
<path fill-rule="evenodd" clip-rule="evenodd" d="M60.6309 44.7637H77.4266V45.5637H60.6309V44.7637Z" fill="white"/>
<path fill-rule="evenodd" clip-rule="evenodd" d="M60.6309 32.5508H77.4266V33.3508H60.6309V32.5508Z" fill="white"/>
<path d="M84.0738 27.5723H71.938C71.1982 27.5723 70.5908 28.1686 70.5908 28.9195V36.3511C70.5908 37.091 71.1871 37.6983 71.938 37.6983H84.0849C84.8247 37.7094 85.4321 37.102 85.4321 36.3622V28.9195C85.41 28.1686 84.8137 27.5723 84.0738 27.5723Z" fill="url(#paint2_linear_653_38122)"/>
<path d="M84.0738 52.3066H71.938C71.1982 52.3066 70.5908 52.9029 70.5908 53.6538V61.0855C70.5908 61.8253 71.1871 62.4327 71.938 62.4327H84.0849C84.8247 62.4327 85.4321 61.8364 85.4321 61.0855V53.6538C85.41 52.9029 84.8137 52.3066 84.0738 52.3066Z" fill="url(#paint3_linear_653_38122)"/>
<path d="M84.0738 39.918H71.938C71.1982 39.918 70.5908 40.5143 70.5908 41.2652V48.6968C70.5908 49.4367 71.1871 50.044 71.938 50.044H84.0849C84.8247 50.0551 85.4321 49.4477 85.4321 48.6968V41.2652C85.41 40.5143 84.8137 39.918 84.0738 39.918Z" fill="url(#paint4_linear_653_38122)"/>
<path d="M84.0738 64.6543H71.938C71.1982 64.6543 70.5908 65.2506 70.5908 66.0015V73.4331C70.5908 74.173 71.1871 74.7803 71.938 74.7803H84.0849C84.8247 74.7803 85.4321 74.184 85.4321 73.4331V66.0015C85.41 65.2616 84.8137 64.6543 84.0738 64.6543Z" fill="url(#paint5_linear_653_38122)"/>
<path d="M80.8503 70.6504H79.5032C79.3154 70.6504 79.1719 70.805 79.1719 70.9817C79.1719 71.1694 79.3265 71.3129 79.5032 71.3129H80.8503C81.0381 71.3129 81.1816 71.1694 81.1816 70.9817C81.1816 70.805 81.0381 70.6504 80.8503 70.6504Z" fill="white"/>
<path d="M80.8499 67.9668H76.466C76.2783 67.9668 76.1348 68.1214 76.1348 68.2981C76.1348 68.4858 76.2894 68.6294 76.466 68.6294H80.8499C81.0377 68.6294 81.1812 68.4748 81.1812 68.2981C81.1812 68.1214 81.0377 67.9668 80.8499 67.9668Z" fill="white"/>
<path d="M80.8497 69.3242H77.7136C77.5259 69.3242 77.813 69.4788 77.813 69.6555C77.813 69.8432 77.5259 69.9647 77.7136 69.9647H80.8497C81.0374 69.9647 81.181 69.8432 81.181 69.6555C81.181 69.4788 81.0374 69.3242 80.8497 69.3242Z" fill="white"/>
<path d="M80.8502 66.6191H75.1301C74.9424 66.6191 74.7988 66.7737 74.7988 66.9504V66.9615C74.7988 67.1492 74.9534 67.2927 75.1301 67.2927H80.8502C81.0379 67.2927 81.1814 67.1381 81.1814 66.9504C81.1814 66.7627 81.0379 66.6191 80.8502 66.6191Z" fill="white"/>
<path d="M75.1301 67.2817H75.8147C76.0025 67.2817 76.146 67.1271 76.146 66.9504C76.146 66.7737 75.9914 66.6191 75.8147 66.6191H75.1301C74.9424 66.6191 74.7988 66.7737 74.7988 66.9504C74.7988 67.1271 74.9424 67.2817 75.1301 67.2817Z" fill="#50E6FF"/>
<path d="M75.1301 68.6391H76.4773C76.665 68.6391 76.8086 68.4845 76.8086 68.3078C76.8086 68.1201 76.654 67.9766 76.4773 67.9766H75.1301C74.9424 67.9766 74.7988 68.1312 74.7988 68.3078C74.7988 68.4845 74.9424 68.6391 75.1301 68.6391Z" fill="#45CAF2"/>
<path d="M75.1304 71.3227H79.5254C79.7131 71.3227 79.8566 71.1681 79.8566 70.9914C79.8566 70.8037 79.702 70.6602 79.5254 70.6602H75.1414C74.9537 70.6602 74.8102 70.8148 74.8102 70.9914C74.7991 71.1681 74.9427 71.3227 75.1304 71.3227Z" fill="#0078D1"/>
<path d="M75.1301 69.9653H77.8355C78.0233 69.9653 78.1668 69.8107 78.1668 69.634C78.1668 69.4463 78.0122 69.3027 77.8355 69.3027H75.1301C74.9424 69.3027 74.7988 69.4573 74.7988 69.634C74.7988 69.8107 74.9424 69.9653 75.1301 69.9653Z" fill="#32B0E7"/>
<path d="M75.1301 72.6807H80.8502C81.0379 72.6807 81.1814 72.5261 81.1814 72.3384V72.3274C81.1814 72.1396 81.0268 71.9961 80.8502 71.9961H75.1301C74.9424 71.9961 74.7988 72.1507 74.7988 72.3274C74.7988 72.5261 74.9424 72.6807 75.1301 72.6807Z" fill="#185A97"/>
<path opacity="0.15" d="M77.9893 57.8516L81.3021 59.784L77.9783 61.7165L74.6655 59.784L77.9893 57.8516Z" fill="#1F1D20"/>
<path d="M77.9783 57.409V61.2629L74.6655 59.3194V55.4766L77.9783 57.409Z" fill="#ACF3FD"/>
<path d="M77.9898 53.5449L81.3026 55.4774L77.9788 57.4098L74.666 55.4774L77.9898 53.5449Z" fill="white"/>
<path d="M81.3023 55.4766V59.3194L77.9785 61.2629V57.409L81.3023 55.4766Z" fill="#45CAF2"/>
<path d="M77.9785 61.2523V57.3984L81.3023 59.3088L77.9785 61.2523Z" fill="#50E6FF"/>
<path d="M77.9783 61.2523V57.3984L74.6655 59.3088L77.9783 61.2523Z" fill="#84ECFD"/>
<g opacity="0.4">
<path opacity="0.4" d="M81.5344 46.9865C81.3798 46.8982 81.17 46.8982 80.9823 46.9423L78.4646 45.551C78.5088 45.4626 78.4646 45.3522 78.3431 45.2859C78.1554 45.1755 77.8462 45.1755 77.6806 45.2859C77.526 45.3743 77.4929 45.5178 77.6143 45.6283L75.0524 46.9755C74.8647 46.8871 74.5887 46.8871 74.423 46.9865C74.2353 47.0969 74.2353 47.2626 74.423 47.373C74.5445 47.4503 74.7101 47.4613 74.8647 47.4503L77.5812 48.941C77.4929 49.0515 77.5039 49.1729 77.6585 49.2613C77.8462 49.3717 78.1554 49.3717 78.3211 49.2613C78.4756 49.1729 78.5088 49.0294 78.3873 48.919L80.9492 47.4061C81.1369 47.4834 81.3798 47.4724 81.5455 47.373C81.7332 47.2626 81.7332 47.0859 81.5344 46.9865Z" fill="#1F1D21"/>
</g>
<g opacity="0.25">
<path opacity="0.25" d="M74.9194 43.1984L77.9893 41.3984L81.0591 43.1653L77.9893 44.9652L74.9194 43.1984Z" fill="#1E9FE0"/>
</g>
<g opacity="0.25">
<path opacity="0.25" d="M74.8872 46.7531L77.9902 44.9531L81.0269 46.7199L77.957 48.5199L74.8872 46.7531Z" fill="#1E9FE0"/>
</g>
<g opacity="0.05">
<path opacity="0.05" d="M77.9892 44.964L77.9561 48.5197L81.0259 46.7198L81.059 43.1641L77.9892 44.964Z" fill="#1E9FE0"/>
</g>
<g opacity="0.05">
<path opacity="0.05" d="M74.9203 43.1984L74.8872 46.7541L77.9902 44.9541V41.3984L74.9203 43.1984Z" fill="#1E9FE0"/>
</g>
<path d="M78.0114 44.9756C78.0114 44.9756 78.0003 44.9756 78.0114 44.9756L74.9305 43.2087C74.9194 43.2087 74.9194 43.1977 74.9194 43.1977C74.9194 43.1867 74.9194 43.1867 74.9305 43.1867L78.0003 41.3867C78.0114 41.3867 78.0114 41.3867 78.0224 41.3867L81.0922 43.1535C81.1033 43.1535 81.1033 43.1646 81.1033 43.1646C81.1033 43.1756 81.1033 43.1756 81.0922 43.1756L78.0114 44.9756C78.0114 44.9756 78.0224 44.9756 78.0114 44.9756ZM74.9857 43.1977L78.0114 44.9424L81.037 43.1646L78.0114 41.4198L74.9857 43.1977Z" fill="#50E6FF"/>
<path d="M77.9791 48.5322L74.8982 46.7654C74.8872 46.7654 74.8872 46.7543 74.8872 46.7543C74.8872 46.7433 74.8872 46.7433 74.8982 46.7433L78.0012 44.9434C78.0123 44.9434 78.0123 44.9434 78.0233 44.9434L81.06 46.7102C81.0711 46.7102 81.0711 46.7212 81.0711 46.7212C81.0711 46.7212 81.0711 46.7323 81.06 46.7323L77.9791 48.5322C77.9902 48.5322 77.9902 48.5322 77.9791 48.5322ZM74.9535 46.7543L77.9791 48.4991L81.0048 46.7212L78.0012 44.9765L74.9535 46.7543Z" fill="#50E6FF"/>
<path d="M77.9781 48.5314C77.9781 48.5314 77.9671 48.5314 77.9781 48.5314C77.9671 48.5203 77.9561 48.5203 77.9561 48.5093L77.9892 44.9536C77.9892 44.9425 77.9892 44.9425 78.0002 44.9425L81.0701 43.1426C81.0811 43.1426 81.0811 43.1426 81.0921 43.1426C81.1032 43.1426 81.1032 43.1536 81.1032 43.1647L81.0701 46.7204C81.0701 46.7314 81.0701 46.7314 81.059 46.7314L77.9781 48.5314C77.9781 48.5314 77.9892 48.5314 77.9781 48.5314ZM78.0334 44.9756L78.0002 48.4872L81.0259 46.7204L81.059 43.2088L78.0334 44.9756Z" fill="white"/>
<path d="M74.9093 46.7755C74.8983 46.7645 74.8872 46.7645 74.8872 46.7534L74.9203 43.1977C74.9203 43.1867 74.9203 43.1867 74.9314 43.1867L78.0012 41.3867C78.0123 41.3867 78.0123 41.3867 78.0233 41.3867C78.0343 41.3867 78.0343 41.3978 78.0343 41.3978V44.9535C78.0343 44.9645 78.0343 44.9645 78.0233 44.9645L74.9093 46.7755C74.9203 46.7755 74.9203 46.7755 74.9093 46.7755ZM74.9645 43.2087L74.9314 46.7203L77.9902 44.9424V41.4309L74.9645 43.2087Z" fill="white"/>
<path d="M78.0114 44.9756C78.0114 44.9756 78.0003 44.9756 78.0114 44.9756L74.9305 43.2087C74.9194 43.2087 74.9194 43.1977 74.9194 43.1977C74.9194 43.1867 74.9194 43.1867 74.9305 43.1867L78.0003 41.3867C78.0114 41.3867 78.0114 41.3867 78.0224 41.3867L81.0922 43.1535C81.1033 43.1535 81.1033 43.1646 81.1033 43.1646C81.1033 43.1756 81.1033 43.1756 81.0922 43.1756L78.0114 44.9756C78.0114 44.9756 78.0224 44.9756 78.0114 44.9756ZM74.9857 43.1977L78.0114 44.9424L81.037 43.1646L78.0114 41.4198L74.9857 43.1977Z" fill="white"/>
<path d="M77.9791 48.5322L74.8982 46.7654C74.8872 46.7654 74.8872 46.7543 74.8872 46.7543C74.8872 46.7433 74.8872 46.7433 74.8982 46.7433L78.0012 44.9434C78.0123 44.9434 78.0123 44.9434 78.0233 44.9434L81.06 46.7102C81.0711 46.7102 81.0711 46.7212 81.0711 46.7212C81.0711 46.7212 81.0711 46.7323 81.06 46.7323L77.9791 48.5322C77.9902 48.5322 77.9902 48.5322 77.9791 48.5322ZM74.9535 46.7543L77.9791 48.4991L81.0048 46.7212L78.0012 44.9765L74.9535 46.7543Z" fill="white"/>
<path d="M81.0269 43.5078C80.8723 43.5078 80.7397 43.3753 80.7397 43.2207C80.7397 43.0661 80.8723 42.9336 81.0269 42.9336C81.1814 42.9336 81.3029 43.0661 81.3029 43.2207C81.3029 43.3643 81.1814 43.5078 81.0269 43.5078Z" fill="#50E6FF"/>
<path d="M81.0149 43.0868C81.0812 43.0868 81.1364 43.142 81.1364 43.2083C81.1364 43.2746 81.0812 43.3408 81.0149 43.3408C80.9487 43.3408 80.8935 43.2856 80.8935 43.2193C80.8935 43.1421 80.9487 43.0868 81.0149 43.0868ZM81.0149 42.9102C80.8603 42.9102 80.7168 43.0427 80.7168 43.2083C80.7168 43.3629 80.8493 43.5065 81.0149 43.5065C81.1806 43.5065 81.3131 43.3739 81.3131 43.2083C81.3131 43.0537 81.1806 42.9102 81.0149 42.9102Z" fill="white"/>
<path d="M78.0117 45.2637C77.8571 45.2637 77.7246 45.1312 77.7246 44.9766C77.7246 44.822 77.8571 44.6895 78.0117 44.6895C78.1663 44.6895 78.2878 44.822 78.2878 44.9766C78.2878 45.1201 78.1663 45.2637 78.0117 45.2637Z" fill="#50E6FF"/>
<path d="M78.011 44.8434C78.0773 44.8434 78.1325 44.8986 78.1325 44.9648C78.1325 45.0311 78.0773 45.0863 78.011 45.0863C77.9448 45.0863 77.8896 45.0311 77.8896 44.9648C77.8785 44.8986 77.9337 44.8434 78.011 44.8434ZM78.011 44.6777C77.8564 44.6777 77.7129 44.8102 77.7129 44.9759C77.7129 45.1305 77.8454 45.274 78.011 45.274C78.1656 45.274 78.3092 45.1415 78.3092 44.9759C78.2981 44.8102 78.1656 44.6777 78.011 44.6777Z" fill="white"/>
<path d="M78.0117 41.707C77.8571 41.707 77.7246 41.5745 77.7246 41.4199C77.7246 41.2653 77.8571 41.1328 78.0117 41.1328C78.1663 41.1328 78.2878 41.2653 78.2878 41.4199C78.2878 41.5745 78.1663 41.707 78.0117 41.707Z" fill="#50E6FF"/>
<path d="M78.011 41.2985C78.0773 41.2985 78.1325 41.3537 78.1325 41.4199C78.1325 41.4862 78.0773 41.5414 78.011 41.5414C77.9448 41.5414 77.8896 41.4862 77.8896 41.4199C77.8785 41.3537 77.9337 41.2985 78.011 41.2985ZM78.011 41.1328C77.8564 41.1328 77.7129 41.2653 77.7129 41.431C77.7129 41.5966 77.8454 41.7291 78.011 41.7291C78.1656 41.7291 78.3092 41.5966 78.3092 41.431C78.3092 41.2653 78.1656 41.1328 78.011 41.1328Z" fill="white"/>
<path d="M74.9199 43.5078C74.7653 43.5078 74.6328 43.3753 74.6328 43.2207C74.6328 43.0661 74.7653 42.9336 74.9199 42.9336C75.0745 42.9336 75.196 43.0661 75.196 43.2207C75.196 43.3643 75.0745 43.5078 74.9199 43.5078Z" fill="#50E6FF"/>
<path d="M74.9095 43.0868C74.9757 43.0868 75.0309 43.142 75.0309 43.2083C75.0309 43.2746 74.9757 43.3408 74.9095 43.3408C74.8432 43.3408 74.788 43.2856 74.788 43.2193C74.788 43.1421 74.8432 43.0868 74.9095 43.0868ZM74.9095 42.9102C74.7549 42.9102 74.6113 43.0427 74.6113 43.2083C74.6113 43.3629 74.7438 43.5065 74.9095 43.5065C75.0641 43.5065 75.2076 43.3739 75.2076 43.2083C75.2076 43.0537 75.0751 42.9102 74.9095 42.9102Z" fill="white"/>
<path d="M74.9199 47.041C74.7653 47.041 74.6328 46.9085 74.6328 46.7539C74.6328 46.5993 74.7653 46.4668 74.9199 46.4668C75.0745 46.4668 75.196 46.5993 75.196 46.7539C75.196 46.9085 75.0745 47.041 74.9199 47.041Z" fill="#50E6FF"/>
<path d="M74.9095 46.6318C74.9757 46.6318 75.0309 46.687 75.0309 46.7532C75.0309 46.8195 74.9757 46.8747 74.9095 46.8747C74.8432 46.8747 74.788 46.8195 74.788 46.7532C74.788 46.687 74.8432 46.6318 74.9095 46.6318ZM74.9095 46.4551C74.7549 46.4551 74.6113 46.5876 74.6113 46.7532C74.6113 46.9078 74.7438 47.0514 74.9095 47.0514C75.0641 47.0514 75.2076 46.9189 75.2076 46.7532C75.2076 46.5986 75.0751 46.4551 74.9095 46.4551Z" fill="white"/>
<path d="M78.0117 48.8066C77.8571 48.8066 77.7246 48.6741 77.7246 48.5195C77.7246 48.3649 77.8571 48.2324 78.0117 48.2324C78.1663 48.2324 78.2878 48.3649 78.2878 48.5195C78.2878 48.6631 78.1663 48.8066 78.0117 48.8066Z" fill="#50E6FF"/>
<path d="M78.011 48.3876C78.0773 48.3876 78.1325 48.4428 78.1325 48.5091C78.1325 48.5753 78.0773 48.6306 78.011 48.6306C77.9448 48.6306 77.8896 48.5753 77.8896 48.5091C77.8785 48.4428 77.9337 48.3876 78.011 48.3876ZM78.011 48.2109C77.8564 48.2109 77.7129 48.3434 77.7129 48.5091C77.7129 48.6637 77.8454 48.8072 78.011 48.8072C78.1656 48.8072 78.3092 48.6747 78.3092 48.5091C78.2981 48.3545 78.1656 48.2109 78.011 48.2109Z" fill="white"/>
<path d="M81.0269 47.041C80.8723 47.041 80.7397 46.9085 80.7397 46.7539C80.7397 46.5993 80.8723 46.4668 81.0269 46.4668C81.1814 46.4668 81.3029 46.5993 81.3029 46.7539C81.3029 46.9085 81.1814 47.041 81.0269 47.041Z" fill="#50E6FF"/>
<path d="M81.0149 46.6318C81.0812 46.6318 81.1364 46.687 81.1364 46.7532C81.1364 46.8195 81.0812 46.8747 81.0149 46.8747C80.9487 46.8747 80.8935 46.8195 80.8935 46.7532C80.8935 46.687 80.9487 46.6318 81.0149 46.6318ZM81.0149 46.4551C80.8603 46.4551 80.7168 46.5876 80.7168 46.7532C80.7168 46.9078 80.8493 47.0514 81.0149 47.0514C81.1806 47.0514 81.3131 46.9189 81.3131 46.7532C81.3131 46.5986 81.1806 46.4551 81.0149 46.4551Z" fill="white"/>
<path opacity="0.2" d="M77.9904 29.5371C75.9585 29.5371 74.3242 31.1825 74.3242 33.2032C74.3242 35.2351 75.9696 36.8694 77.9904 36.8694C80.0222 36.8694 81.6565 35.224 81.6565 33.2032C81.6565 31.1825 80.0112 29.5371 77.9904 29.5371ZM77.9904 34.9259C77.0517 34.9259 76.2788 34.1529 76.2788 33.2143C76.2788 32.2757 77.0517 31.5027 77.9904 31.5027C78.929 31.5027 79.702 32.2757 79.702 33.2143C79.702 34.1529 78.929 34.9259 77.9904 34.9259Z" fill="#1F1D21"/>
<path d="M77.9904 29.0625C75.9585 29.0625 74.3242 30.7078 74.3242 32.7286C74.3242 34.7605 75.9696 36.3948 77.9904 36.3948C80.0222 36.3948 81.6565 34.7494 81.6565 32.7286C81.6565 30.6968 80.0112 29.0625 77.9904 29.0625ZM77.9904 34.4402C77.0517 34.4402 76.2788 33.6673 76.2788 32.7286C76.2788 31.79 77.0517 31.017 77.9904 31.017C78.929 31.017 79.702 31.79 79.702 32.7286C79.702 33.6673 78.929 34.4402 77.9904 34.4402Z" fill="white"/>
<path d="M77.9899 31.017L77.9788 29.0625C76.6868 29.0625 75.5605 29.7361 74.8979 30.752L76.5102 31.8784C76.7973 31.3594 77.3494 31.017 77.9899 31.017Z" fill="#3BCAF4"/>
<path d="M76.2788 32.7286C76.2788 32.4194 76.3671 32.1212 76.5107 31.8783L74.9095 30.752L74.8984 30.763C74.534 31.3262 74.3242 31.9998 74.3242 32.7286C74.3242 33.2697 74.4457 33.7776 74.6555 34.2414L76.4444 33.4463C76.334 33.2365 76.2788 32.9826 76.2788 32.7286Z" fill="#50E6FF"/>
<path opacity="0.2" d="M64.5849 76.0596C65.9179 76.0596 67.0041 74.9734 67.0041 73.6404V29.6328H19.4253V73.6239C19.4253 74.957 20.5115 76.0432 21.8446 76.0432L64.5849 76.0596Z" fill="#1F1D21"/>
<path d="M67.0041 29.8766V29.136C67.0041 28.2144 66.2635 27.4902 65.3584 27.4902H21.0711C20.1659 27.4902 19.4253 28.2308 19.4253 29.136V29.9589V30.6995V73.0777C19.4253 73.9993 20.1659 74.7235 21.0711 74.7235H65.3419C66.2635 74.7235 66.9877 73.9829 66.9877 73.0777V29.9589C67.0206 29.926 67.0041 29.9095 67.0041 29.8766Z" fill="white"/>
<path d="M51.4336 44.0576V36.7891H34.9329V44.0576H25.896V67.4427H60.5376V44.0576H51.4336ZM38.6465 40.3807H47.7871V44.0576H38.6465V40.3807Z" fill="#092E4C"/>
<path d="M49.6159 54.174H45.067V49.625H41.3595V54.174H36.8105V57.8814H41.3595V62.4304H45.067V57.8814H49.6159V54.174Z" fill="#50E6FF"/>
<defs>
<linearGradient id="paint0_linear_653_38122" x1="50.0874" y1="-13.3584" x2="54.0694" y2="132.412" gradientUnits="userSpaceOnUse">
<stop stop-color="#00ABDE"/>
<stop offset="1" stop-color="#007ED8"/>
</linearGradient>
<linearGradient id="paint1_linear_653_38122" x1="3.29165" y1="-20.191" x2="98.8192" y2="120.69" gradientUnits="userSpaceOnUse">
<stop stop-color="#007ED8"/>
<stop offset="0.7065" stop-color="#002D4C"/>
</linearGradient>
<linearGradient id="paint2_linear_653_38122" x1="63.1376" y1="9.83876" x2="103.952" y2="72.4058" gradientUnits="userSpaceOnUse">
<stop stop-color="#007ED8"/>
<stop offset="0.7065" stop-color="#002D4C"/>
</linearGradient>
<linearGradient id="paint3_linear_653_38122" x1="51.8174" y1="17.2223" x2="92.6317" y2="79.7893" gradientUnits="userSpaceOnUse">
<stop stop-color="#007ED8"/>
<stop offset="0.7065" stop-color="#002D4C"/>
</linearGradient>
<linearGradient id="paint4_linear_653_38122" x1="57.4886" y1="13.5239" x2="98.303" y2="76.0909" gradientUnits="userSpaceOnUse">
<stop stop-color="#007ED8"/>
<stop offset="0.7065" stop-color="#002D4C"/>
</linearGradient>
<linearGradient id="paint5_linear_653_38122" x1="46.1672" y1="20.9101" x2="86.9815" y2="83.4772" gradientUnits="userSpaceOnUse">
<stop stop-color="#007ED8"/>
<stop offset="0.7065" stop-color="#002D4C"/>
</linearGradient>
</defs>
</svg>
