<svg width="103" height="103" viewBox="0 0 103 103" fill="none" xmlns="http://www.w3.org/2000/svg">
<path d="M51.1699 98.2816C25.3199 98.2816 4.35986 77.3316 4.35986 51.4716C4.35986 25.6116 25.3199 4.66162 51.1699 4.66162C77.0199 4.66162 97.9799 25.6216 97.9799 51.4716C97.9799 77.3216 77.0199 98.2816 51.1699 98.2816Z" fill="url(#paint0_linear_936_62)"/>
<path fill-rule="evenodd" clip-rule="evenodd" d="M97.0698 51.4718C97.0698 76.8218 76.5198 97.3718 51.1698 97.3718C25.8198 97.3718 5.26978 76.8218 5.26978 51.4718C5.26978 26.1218 25.8198 5.57179 51.1698 5.57179C76.5198 5.57179 97.0698 26.1218 97.0698 51.4718ZM51.1698 1.83179C78.5898 1.83179 100.81 24.0518 100.81 51.4718C100.81 78.8918 78.5798 101.112 51.1698 101.112C23.7498 101.112 1.52979 78.8818 1.52979 51.4718C1.52979 24.0518 23.7498 1.83179 51.1698 1.83179Z" fill="#F2F1F0"/>
<path fill-rule="evenodd" clip-rule="evenodd" d="M94.2598 51.4716C94.2598 75.2716 74.9698 94.5616 51.1698 94.5616C27.3698 94.5616 8.07984 75.2716 8.07984 51.4716C8.07984 27.6716 27.3698 8.38161 51.1698 8.38161C74.9698 8.38161 94.2598 27.6716 94.2598 51.4716ZM51.1698 4.6416C77.0298 4.6416 97.9998 25.6116 97.9998 51.4716C97.9998 77.3316 77.0298 98.3016 51.1698 98.3016C25.3098 98.3016 4.33984 77.3316 4.33984 51.4716C4.33984 25.6116 25.2998 4.6416 51.1698 4.6416Z" fill="url(#paint1_linear_936_62)"/>
<path opacity="0.2" d="M76.5637 80.3752C78.1589 80.3752 79.4523 79.0817 79.4523 77.4865V25.1248H22.8223V77.4865C22.8223 79.0817 24.1157 80.3752 25.7109 80.3752H76.5637V80.3752Z" fill="#1F1D21"/>
<g filter="url(#filter0_d_936_62)">
<path d="M79.4739 25.1162V24.2108C79.4739 23.1114 78.59 22.2275 77.4906 22.2275H24.8055C23.7061 22.2275 22.8223 23.1114 22.8223 24.2108V25.1808V26.0647V76.5079C22.8223 77.6073 23.7061 78.4911 24.8055 78.4911H77.5337C78.6331 78.4911 79.517 77.6073 79.517 76.5079V25.1808C79.4954 25.1593 79.4739 25.1377 79.4739 25.1162Z" fill="#F2F1F0"/>
</g>
<path opacity="0.2" d="M70.7384 72.7153C71.6763 72.7153 72.4351 71.9564 72.4351 71.0185V30.9023H29.5649V71.0185C29.5649 71.9564 30.3238 72.7153 31.2617 72.7153H70.7384Z" fill="#1F1D21"/>
<g filter="url(#filter1_d_936_62)">
<path d="M72.4351 30.8844V30.2194C72.4351 29.3923 71.7701 28.7273 70.943 28.7273H31.057C30.23 28.7273 29.5649 29.3923 29.5649 30.2194V30.9527V31.6262V69.7984C29.5649 70.6255 30.23 71.2905 31.057 71.2905H70.9601C71.7871 71.2905 72.4522 70.6255 72.4522 69.7984V30.9527C72.4437 30.9271 72.4351 30.91 72.4351 30.8844Z" fill="white"/>
</g>
<path opacity="0.15" d="M36.8032 44.2324V64.2237C36.8032 64.4748 37.0087 64.6918 37.2713 64.6918H65.4372C65.6884 64.6918 65.9053 64.4863 65.9053 64.2237V44.2324H36.8032Z" fill="#1F1D20"/>
<path d="M35.6157 43.1704V62.7278C35.6157 63.1959 35.9925 63.5612 36.4492 63.5612H66.2362C66.7043 63.5612 67.0697 63.1844 67.0697 62.7278V43.1704C67.0697 42.7023 66.6929 42.3369 66.2362 42.3369H36.4606C35.9925 42.3369 35.6157 42.7137 35.6157 43.1704Z" fill="#092E4C"/>
<path d="M56.589 47.3608H45.9141C45.3774 47.3608 44.9436 46.927 44.9436 46.3904V37.4851C44.9436 36.9485 45.3774 36.5146 45.9141 36.5146H56.589C57.1256 36.5146 57.5594 36.9485 57.5594 37.4851V46.3904C57.5594 46.927 57.1142 47.3608 56.589 47.3608ZM46.8845 45.4199H55.6185V38.4555H46.8845V45.4199V45.4199Z" fill="#092E4C"/>
<path opacity="0.15" d="M56.2577 52.2246H52.3416V48.3086H50.3779V52.2246H46.4504V54.1884H50.3665V58.1044H52.3302V54.1884H56.2463V52.2246H56.2577Z" fill="#1F1D20"/>
<path d="M56.2577 51.5845H52.3416V47.6685H50.3779V51.5845H46.4504V53.5482H50.3665V57.4643H52.3302V53.5482H56.2463V51.5845H56.2577Z" fill="white"/>
<path opacity="0.15" d="M43.9273 80.6879C44.3076 80.6879 44.6142 80.3813 44.6142 80.001V57.3386H20.6753V80.004C20.6753 80.3843 20.9819 80.6909 21.3622 80.6909H43.9273V80.6879Z" fill="#1F1D20"/>
<g filter="url(#filter2_d_936_62)">
<path d="M44.6113 57.5417V57.1702C44.6113 56.7103 44.2398 56.3389 43.7799 56.3389H21.5067C21.0468 56.3389 20.6753 56.7103 20.6753 57.1702V57.583V57.9603V79.2754C20.6753 79.7354 21.0468 80.1068 21.5067 80.1068H43.7858C44.2457 80.1068 44.6172 79.7354 44.6172 79.2754V57.583C44.6172 57.5682 44.6113 57.5565 44.6113 57.5417Z" fill="white"/>
</g>
<path d="M28.8236 76.587C28.8236 76.587 28.7987 76.5693 28.752 76.534C28.3055 76.1935 25.9165 74.254 25.7712 71.648C25.6113 68.7731 27.2486 67.0911 28.1031 66.2013C28.9576 65.3115 31.1909 63.6025 31.1909 63.6025C31.1909 63.6025 29.241 65.7476 28.5298 66.8596C27.8186 67.9715 27.0441 69.3514 26.9548 70.6243C26.8655 71.8972 27.0347 73.0361 27.2932 73.8906C27.5507 74.7441 28.8236 76.587 28.8236 76.587Z" fill="url(#paint2_linear_936_62)"/>
<path d="M33.5134 58.9124C33.4667 58.6217 33.4594 58.2002 33.4594 58.2002C33.4594 58.2002 34.073 59.4191 34.3315 60.0597C34.5901 60.7003 34.777 61.3326 35.0168 62.3999C35.2566 63.4673 35.2213 64.9894 34.9275 66.1647C34.6337 67.3389 33.4771 69.0572 32.8718 69.8494C32.2665 70.6416 31.4037 72.172 31.1898 72.768C30.9759 73.3639 30.7807 74.2101 30.789 75.402C30.7984 76.595 31.5812 78.0714 31.7504 78.2583C31.7525 78.2604 31.7318 78.2427 31.7006 78.2209C31.3694 77.9821 29.4818 76.6635 28.9202 75.8734C28.3065 75.0106 27.559 73.5155 27.7365 71.5221C27.9141 69.5286 28.5557 68.4696 29.2669 67.152C29.9781 65.8345 31.2708 64.5273 31.9643 63.6822C31.9643 63.6822 33.9796 61.8247 33.5134 58.9124Z" fill="url(#paint3_linear_936_62)"/>
<path d="M35.8889 64.1292C35.8889 64.1292 36.0456 66.1579 35.1756 67.8399C34.3055 69.5219 33.3887 71.0076 32.7928 71.7915C32.1968 72.5743 31.4576 73.8472 31.5998 75.3247C31.7421 76.8021 32.2228 77.8881 32.3297 78.128C32.4367 78.3678 32.526 78.564 32.526 78.564C32.526 78.564 34.7416 78.4394 35.8006 77.6649C36.8596 76.8904 37.6072 76.4906 38.3277 74.6747C39.0483 72.8588 38.8884 72.3345 38.8884 72.3345C38.8884 72.3345 38.3724 73.4205 37.7671 73.8919C37.1618 74.3632 36.8503 74.5948 36.8503 74.5948C36.8503 74.5948 37.5355 73.3219 37.7224 71.7562C37.9093 70.1895 37.6954 67.7516 37.1088 66.4434C36.5222 65.1352 35.9688 64.2351 35.8889 64.1292Z" fill="url(#paint4_linear_936_62)"/>
<path d="M33.9714 63.6025L34.0295 64.6481C34.0295 64.6481 34.0295 64.8131 33.9402 65.5783C33.8509 66.3435 33.6246 67.1087 33.2643 67.7587C32.9041 68.4086 32.4711 69.0575 32.034 69.6005C31.5959 70.1436 31.0269 70.998 30.7414 71.7674C30.4569 72.5367 30.2783 73.0133 30.243 73.9924C30.2077 74.9715 30.3541 75.8259 30.4392 76.1769C30.5244 76.5278 30.8587 77.1414 30.8587 77.1414L30.3717 76.5859L29.5578 74.7036L29.1528 73.2978L29.3304 70.7655L30.6521 67.8023L32.2541 65.9563L33.4959 64.2608L33.9714 63.6025Z" fill="url(#paint5_linear_936_62)"/>
<path d="M35.8493 75.9343C35.8493 75.9343 35.5783 76.6195 35.1506 77.0068C34.7238 77.3941 34.1673 77.7273 33.7707 77.8883C33.3752 78.0482 32.7647 78.124 32.7605 78.1063C32.7564 78.0887 32.2268 77.1002 32.2756 75.846C32.3244 74.5908 32.8944 73.7809 33.3212 73.1767C33.7479 72.5714 34.6512 71.9173 35.0436 71.3483C35.4361 70.7793 35.6084 70.5519 35.7019 70.2893C35.7953 70.0266 35.8483 69.8667 35.8483 69.8667C35.8483 69.8667 35.8389 71.7221 35.7818 72.5184C35.7247 73.3147 35.6126 73.8401 35.2928 74.7299C34.973 75.6197 34.5982 76.0869 34.5006 76.2655C34.403 76.443 34.2732 76.5811 34.2732 76.5811C34.2732 76.5811 34.8443 76.47 35.1745 76.3049C35.5067 76.1388 35.8493 75.9343 35.8493 75.9343Z" fill="url(#paint6_linear_936_62)"/>
<path d="M35.05 58.6936C35.05 58.6936 35.2691 60.604 34.451 62.3005C33.6328 63.997 32.2198 65.5939 31.6736 66.2168C31.1275 66.8398 30.4215 67.6465 29.7456 68.8394C29.0697 70.0324 28.8984 71.1724 28.8901 72.0362C28.8807 72.899 29.0282 74.065 29.5037 75.0306C29.9802 75.9962 30.3717 76.6596 30.5097 76.8465C30.6478 77.0334 31.1285 77.5276 31.1285 77.5276C31.1285 77.5276 30.4921 76.6689 30.1848 75.9972C29.8774 75.3254 29.3791 74.1283 29.3656 73.1005C29.3521 72.0726 29.5971 70.9959 29.8504 70.3595C30.1038 69.723 30.9365 68.1573 31.5501 67.3516C32.1637 66.5459 32.9382 65.5721 33.4812 64.7487C34.0242 63.9254 34.371 63.2131 34.6202 62.5725C34.8694 61.9319 35.1601 60.6102 35.1746 60.0091C35.1892 59.4079 35.05 58.6936 35.05 58.6936Z" fill="url(#paint7_linear_936_62)"/>
<defs>
<filter id="filter0_d_936_62" x="18.8223" y="22.2275" width="64.6946" height="64.2637" filterUnits="userSpaceOnUse" color-interpolation-filters="sRGB">
<feFlood flood-opacity="0" result="BackgroundImageFix"/>
<feColorMatrix in="SourceAlpha" type="matrix" values="0 0 0 0 0 0 0 0 0 0 0 0 0 0 0 0 0 0 127 0" result="hardAlpha"/>
<feOffset dy="4"/>
<feGaussianBlur stdDeviation="2"/>
<feComposite in2="hardAlpha" operator="out"/>
<feColorMatrix type="matrix" values="0 0 0 0 0 0 0 0 0 0 0 0 0 0 0 0 0 0 0.25 0"/>
<feBlend mode="normal" in2="BackgroundImageFix" result="effect1_dropShadow_936_62"/>
<feBlend mode="normal" in="SourceGraphic" in2="effect1_dropShadow_936_62" result="shape"/>
</filter>
<filter id="filter1_d_936_62" x="25.5649" y="26.7273" width="50.8872" height="50.5632" filterUnits="userSpaceOnUse" color-interpolation-filters="sRGB">
<feFlood flood-opacity="0" result="BackgroundImageFix"/>
<feColorMatrix in="SourceAlpha" type="matrix" values="0 0 0 0 0 0 0 0 0 0 0 0 0 0 0 0 0 0 127 0" result="hardAlpha"/>
<feOffset dy="2"/>
<feGaussianBlur stdDeviation="2"/>
<feComposite in2="hardAlpha" operator="out"/>
<feColorMatrix type="matrix" values="0 0 0 0 0 0 0 0 0 0 0 0 0 0 0 0 0 0 0.25 0"/>
<feBlend mode="normal" in2="BackgroundImageFix" result="effect1_dropShadow_936_62"/>
<feBlend mode="normal" in="SourceGraphic" in2="effect1_dropShadow_936_62" result="shape"/>
</filter>
<filter id="filter2_d_936_62" x="16.6753" y="56.3389" width="31.9419" height="31.7681" filterUnits="userSpaceOnUse" color-interpolation-filters="sRGB">
<feFlood flood-opacity="0" result="BackgroundImageFix"/>
<feColorMatrix in="SourceAlpha" type="matrix" values="0 0 0 0 0 0 0 0 0 0 0 0 0 0 0 0 0 0 127 0" result="hardAlpha"/>
<feOffset dy="4"/>
<feGaussianBlur stdDeviation="2"/>
<feComposite in2="hardAlpha" operator="out"/>
<feColorMatrix type="matrix" values="0 0 0 0 0 0 0 0 0 0 0 0 0 0 0 0 0 0 0.25 0"/>
<feBlend mode="normal" in2="BackgroundImageFix" result="effect1_dropShadow_936_62"/>
<feBlend mode="normal" in="SourceGraphic" in2="effect1_dropShadow_936_62" result="shape"/>
</filter>
<linearGradient id="paint0_linear_936_62" x1="49.396" y1="-13.3179" x2="53.378" y2="132.452" gradientUnits="userSpaceOnUse">
<stop stop-color="#00ABDE"/>
<stop offset="1" stop-color="#007ED8"/>
</linearGradient>
<linearGradient id="paint1_linear_936_62" x1="2.60024" y1="-20.151" x2="98.1278" y2="120.73" gradientUnits="userSpaceOnUse">
<stop stop-color="#007ED8"/>
<stop offset="0.7065" stop-color="#002D4C"/>
</linearGradient>
<linearGradient id="paint2_linear_936_62" x1="28.4307" y1="77.6189" x2="28.4841" y2="65.3378" gradientUnits="userSpaceOnUse">
<stop offset="0.0698" stop-color="#F8E000"/>
<stop offset="0.3119" stop-color="#EFB11E"/>
<stop offset="0.4981" stop-color="#E06926"/>
<stop offset="0.7961" stop-color="#DA3E39"/>
<stop offset="1" stop-color="#DB2226"/>
</linearGradient>
<linearGradient id="paint3_linear_936_62" x1="29.7182" y1="77.7717" x2="32.7084" y2="61.1121" gradientUnits="userSpaceOnUse">
<stop offset="0.0698" stop-color="#F8E000"/>
<stop offset="0.3119" stop-color="#EFB11E"/>
<stop offset="0.4981" stop-color="#E06926"/>
<stop offset="0.7328" stop-color="#DA3E39"/>
<stop offset="0.933" stop-color="#DB2226"/>
</linearGradient>
<linearGradient id="paint4_linear_936_62" x1="34.4554" y1="79.1055" x2="36.4844" y2="65.0624" gradientUnits="userSpaceOnUse">
<stop offset="0.0698" stop-color="#F8E000"/>
<stop offset="0.3119" stop-color="#EFB11E"/>
<stop offset="0.4981" stop-color="#E06926"/>
<stop offset="0.7216" stop-color="#DA3E39"/>
<stop offset="1" stop-color="#DB2226"/>
</linearGradient>
<linearGradient id="paint5_linear_936_62" x1="29.7429" y1="76.8036" x2="32.4839" y2="64.4157" gradientUnits="userSpaceOnUse">
<stop offset="0.0698" stop-color="#F8E000"/>
<stop offset="0.554" stop-color="#EFB11E"/>
<stop offset="1" stop-color="#E06926"/>
</linearGradient>
<linearGradient id="paint6_linear_936_62" x1="33.0736" y1="77.7876" x2="36.7757" y2="69.351" gradientUnits="userSpaceOnUse">
<stop offset="0.2784" stop-color="#F7F2BA"/>
<stop offset="0.7281" stop-color="#F8E000"/>
</linearGradient>
<linearGradient id="paint7_linear_936_62" x1="29.5102" y1="75.8451" x2="34.2446" y2="61.0722" gradientUnits="userSpaceOnUse">
<stop offset="0.0698" stop-color="#F8E000"/>
<stop offset="1" stop-color="#EFB11E"/>
</linearGradient>
</defs>
</svg>
