<svg width="103" height="103" viewBox="0 0 103 103" fill="none" xmlns="http://www.w3.org/2000/svg">
<path d="M51.3613 98.2411C25.5113 98.2411 4.55127 77.2911 4.55127 51.4311C4.55127 25.5711 25.5113 4.62109 51.3613 4.62109C77.2113 4.62109 98.1713 25.5811 98.1713 51.4311C98.1713 77.2811 77.2113 98.2411 51.3613 98.2411Z" fill="url(#paint0_linear_653_26350)"/>
<path fill-rule="evenodd" clip-rule="evenodd" d="M97.2612 51.431C97.2612 76.781 76.7112 97.331 51.3612 97.331C26.0112 97.331 5.46119 76.781 5.46119 51.431C5.46119 26.081 26.0112 5.53102 51.3612 5.53102C76.7112 5.53102 97.2612 26.081 97.2612 51.431ZM51.3612 1.79102C78.7812 1.79102 101.001 24.011 101.001 51.431C101.001 78.851 78.7712 101.071 51.3612 101.071C23.9412 101.071 1.72119 78.841 1.72119 51.431C1.72119 24.011 23.9412 1.79102 51.3612 1.79102Z" fill="#F2F1F0"/>
<path fill-rule="evenodd" clip-rule="evenodd" d="M94.4513 51.4316C94.4513 75.2316 75.1613 94.5216 51.3613 94.5216C27.5613 94.5216 8.27125 75.2316 8.27125 51.4316C8.27125 27.6316 27.5613 8.34157 51.3613 8.34157C75.1613 8.34157 94.4513 27.6316 94.4513 51.4316ZM51.3613 4.60156C77.2213 4.60156 98.1913 25.5716 98.1913 51.4316C98.1913 77.2916 77.2213 98.2616 51.3613 98.2616C25.5013 98.2616 4.53125 77.2916 4.53125 51.4316C4.53125 25.5716 25.4913 4.60156 51.3613 4.60156Z" fill="url(#paint1_linear_653_26350)"/>
<path fill-rule="evenodd" clip-rule="evenodd" d="M61.0415 29.5398C56.9518 24.5348 50.7298 21.3578 43.7642 21.3853C31.5147 21.4336 21.6329 31.3956 21.6811 43.6252C21.6887 45.5342 21.9348 47.3926 22.3995 49.1606C17.9122 49.2976 14.3244 52.9807 14.3423 57.4947C14.3604 62.0882 18.0967 65.7921 22.694 65.774L79.9811 65.5479C84.5685 65.5298 88.2854 61.7964 88.2673 57.2029C88.2492 52.6193 84.5128 48.9055 79.9155 48.9236L79.7663 48.9242C80.4561 47.2113 80.8268 45.3406 80.8191 43.3818C80.7869 35.2288 74.1435 28.633 65.9738 28.6653C64.2424 28.692 62.5818 28.9968 61.0415 29.5398Z" fill="white"/>
<path fill-rule="evenodd" clip-rule="evenodd" d="M68.9218 64.5194L50.4869 81.5243L33.055 62.6264C28.4762 57.6626 28.7888 49.9149 33.7533 45.3207L34.1843 44.9232C39.1482 40.3444 46.8958 40.6571 51.49 45.6216L68.9218 64.5194Z" fill="url(#paint2_linear_653_26350)"/>
<path fill-rule="evenodd" clip-rule="evenodd" d="M50.4159 81.4283L34.0147 63.6477L52.9125 46.2158C57.8764 41.637 65.6241 41.9496 70.2183 46.9141L70.6158 47.3451C75.1946 52.309 74.8819 60.0566 69.9174 64.6508L51.6586 81.4784C51.3069 81.8177 50.7546 81.7954 50.4159 81.4283Z" fill="url(#paint3_linear_653_26350)"/>
<path fill-rule="evenodd" clip-rule="evenodd" d="M68.9218 64.5194L50.4869 81.5243L33.055 62.6264C28.4762 57.6626 28.7888 49.9149 33.7533 45.3207L34.1843 44.9232C39.1482 40.3444 46.8958 40.6571 51.49 45.6216L68.9218 64.5194Z" fill="url(#paint4_linear_653_26350)"/>
<path fill-rule="evenodd" clip-rule="evenodd" d="M50.4159 81.4283L34.0147 63.6477L52.9125 46.2158C57.8764 41.637 65.6241 41.9496 70.2183 46.9141L70.6158 47.3451C75.1946 52.309 74.8819 60.0566 69.9174 64.6508L51.6586 81.4784C51.3069 81.8177 50.7546 81.7954 50.4159 81.4283Z" fill="url(#paint5_linear_653_26350)"/>
<path d="M60.2213 58.2759L54.1787 58.0321L54.4225 51.9894L49.4977 51.7907L49.2539 57.8333L43.2112 57.5895L43.0125 62.5143L49.0551 62.7581L48.8113 68.8007L53.7361 68.9995L53.9799 62.9569L60.0226 63.2007L60.2213 58.2759Z" fill="white"/>
<defs>
<linearGradient id="paint0_linear_653_26350" x1="49.5874" y1="-13.3584" x2="53.5694" y2="132.412" gradientUnits="userSpaceOnUse">
<stop stop-color="#00ABDE"/>
<stop offset="1" stop-color="#007ED8"/>
</linearGradient>
<linearGradient id="paint1_linear_653_26350" x1="2.79165" y1="-20.191" x2="98.3192" y2="120.69" gradientUnits="userSpaceOnUse">
<stop stop-color="#007ED8"/>
<stop offset="0.7065" stop-color="#002D4C"/>
</linearGradient>
<linearGradient id="paint2_linear_653_26350" x1="21.3069" y1="38.9466" x2="119.713" y2="120.359" gradientUnits="userSpaceOnUse">
<stop stop-color="#FFB900"/>
<stop offset="0.17" stop-color="#EF8400"/>
<stop offset="0.31" stop-color="#E25C01"/>
<stop offset="0.43" stop-color="#DB4401"/>
<stop offset="0.5" stop-color="#D83B01"/>
</linearGradient>
<linearGradient id="paint3_linear_653_26350" x1="29.6705" y1="49.8341" x2="104.445" y2="83.6194" gradientUnits="userSpaceOnUse">
<stop stop-color="#FFB900"/>
<stop offset="0.17" stop-color="#EF8400"/>
<stop offset="0.31" stop-color="#E25C01"/>
<stop offset="0.43" stop-color="#DB4401"/>
<stop offset="0.5" stop-color="#D83B01"/>
</linearGradient>
<linearGradient id="paint4_linear_653_26350" x1="21.3069" y1="38.9466" x2="119.713" y2="120.359" gradientUnits="userSpaceOnUse">
<stop stop-color="#FFB900"/>
<stop offset="0.17" stop-color="#EF8400"/>
<stop offset="0.31" stop-color="#E25C01"/>
<stop offset="0.43" stop-color="#DB4401"/>
<stop offset="0.5" stop-color="#D83B01"/>
</linearGradient>
<linearGradient id="paint5_linear_653_26350" x1="29.6705" y1="49.8341" x2="104.445" y2="83.6194" gradientUnits="userSpaceOnUse">
<stop stop-color="#FFB900"/>
<stop offset="0.17" stop-color="#EF8400"/>
<stop offset="0.31" stop-color="#E25C01"/>
<stop offset="0.43" stop-color="#DB4401"/>
<stop offset="0.5" stop-color="#D83B01"/>
</linearGradient>
</defs>
</svg>
