<svg width="100" height="100" viewBox="0 0 100 100" fill="none" xmlns="http://www.w3.org/2000/svg">
<g clip-path="url(#clip0_1135_3317)">
<path d="M49.6401 96.45C40.382 96.45 31.3317 93.7047 23.6339 88.5611C15.936 83.4176 9.93624 76.1068 6.3933 67.5534C2.85036 59 1.92337 49.5881 3.72954 40.5078C5.53571 31.4276 9.99394 23.0868 16.5404 16.5403C23.0869 9.99384 31.4277 5.53562 40.5079 3.72945C49.5882 1.92327 59.0001 2.85027 67.5535 6.39321C76.1069 9.93614 83.4176 15.9359 88.5612 23.6338C93.7047 31.3316 96.4501 40.3819 96.4501 49.64C96.4505 55.7873 95.24 61.8745 92.8878 67.5539C90.5355 73.2334 87.0875 78.3938 82.7407 82.7406C78.3939 87.0874 73.2335 90.5354 67.554 92.8877C61.8746 95.2399 55.7874 96.4504 49.6401 96.45V96.45Z" fill="url(#paint0_linear_1135_3317)"/>
<path fill-rule="evenodd" clip-rule="evenodd" d="M95.54 49.64C95.54 58.7182 92.848 67.5925 87.8045 75.1407C82.7609 82.6889 75.5923 88.572 67.2052 92.0461C58.818 95.5201 49.5891 96.4291 40.6854 94.658C31.7816 92.887 23.603 88.5154 17.1838 82.0962C10.7646 75.677 6.39302 67.4984 4.62196 58.5946C2.85089 49.6909 3.75987 40.462 7.23393 32.0748C10.708 23.6877 16.5911 16.5191 24.1393 11.4755C31.6875 6.43199 40.5618 3.74 49.64 3.74C55.6677 3.73998 61.6363 4.9272 67.2052 7.23388C72.774 9.54057 77.834 12.9215 82.0963 17.1837C86.3585 21.446 89.7394 26.5059 92.0461 32.0748C94.3528 37.6437 95.54 43.6123 95.54 49.64V49.64ZM49.64 3.62732e-07C59.4579 3.62732e-07 69.0553 2.91134 77.2185 8.36585C85.3818 13.8204 91.7442 21.5731 95.5014 30.6436C99.2585 39.7141 100.242 49.6951 98.3262 59.3243C96.4108 68.9535 91.6831 77.7985 84.7408 84.7408C77.7985 91.6831 68.9535 96.4108 59.3243 98.3262C49.6951 100.242 39.7141 99.2585 30.6436 95.5014C21.5731 91.7442 13.8204 85.3818 8.36585 77.2185C2.91134 69.0553 3.62732e-07 59.4579 3.62732e-07 49.64C-0.000787738 43.121 1.28265 36.6656 3.77702 30.6427C6.27138 24.6197 9.9278 19.1471 14.5375 14.5375C19.1471 9.9278 24.6197 6.27138 30.6427 3.77702C36.6656 1.28265 43.121 -0.000787738 49.64 3.62732e-07V3.62732e-07Z" fill="#F2F1F0"/>
<path fill-rule="evenodd" clip-rule="evenodd" d="M92.7296 49.6401C92.7296 58.1625 90.2024 66.4935 85.4676 73.5796C80.7328 80.6657 74.0031 86.1887 66.1294 89.4501C58.2557 92.7114 49.5918 93.5648 41.2331 91.9021C32.8745 90.2395 25.1966 86.1356 19.1703 80.1093C13.1441 74.0831 9.04017 66.4052 7.37753 58.0465C5.7149 49.6879 6.56822 41.0239 9.8296 33.1503C13.091 25.2766 18.6139 18.5469 25.7 13.8121C32.7862 9.07727 41.1172 6.55009 49.6396 6.55009C55.2983 6.54974 60.9017 7.66407 66.1298 9.82942C71.3579 11.9948 76.1082 15.1687 80.1096 19.1701C84.1109 23.1714 87.2849 27.9218 89.4502 33.1499C91.6156 38.3779 92.7299 43.9813 92.7296 49.6401V49.6401ZM49.6396 2.81009C58.9017 2.81009 67.9558 5.55662 75.6569 10.7024C83.3581 15.8481 89.3604 23.162 92.9049 31.719C96.4493 40.2761 97.3767 49.692 95.5697 58.7762C93.7628 67.8603 89.3027 76.2046 82.7534 82.7539C76.2041 89.3032 67.8598 93.7633 58.7757 95.5703C49.6915 97.3772 40.2756 96.4498 31.7185 92.9054C23.1614 89.3609 15.8476 83.3586 10.7018 75.6574C5.5561 67.9563 2.80957 58.9022 2.80957 49.6401C2.81076 37.2204 7.745 25.3097 16.5271 16.5276C25.3091 7.7455 37.2198 2.81125 49.6396 2.81006V2.81009Z" fill="#0078D4"/>
<path fill-rule="evenodd" clip-rule="evenodd" d="M92.7637 49.6401C92.7637 58.1625 90.2366 66.4935 85.5018 73.5796C80.767 80.6657 74.0372 86.1887 66.1636 89.4501C58.2899 92.7114 49.6259 93.5648 41.2673 91.9021C32.9087 90.2395 25.2308 86.1356 19.2045 80.1093C13.1783 74.0831 9.07435 66.4052 7.41171 58.0465C5.74908 49.6879 6.6024 41.0239 9.86378 33.1503C13.1252 25.2766 18.6481 18.5469 25.7342 13.8121C32.8203 9.07727 41.1514 6.55009 49.6738 6.55009C55.3325 6.54974 60.9359 7.66407 66.164 9.82942C71.3921 11.9948 76.1424 15.1687 80.1437 19.1701C84.1451 23.1714 87.3191 27.9218 89.4844 33.1499C91.6498 38.3779 92.7641 43.9813 92.7637 49.6401V49.6401ZM49.6738 2.81009C58.9359 2.81009 67.9899 5.55662 75.6911 10.7024C83.3923 15.8481 89.3946 23.162 92.939 31.719C96.4835 40.2761 97.4109 49.692 95.6039 58.7762C93.797 67.8603 89.3369 76.2046 82.7876 82.7539C76.2383 89.3032 67.894 93.7633 58.8098 95.5703C49.7257 97.3772 40.3097 96.4498 31.7527 92.9054C23.1956 89.3609 15.8818 83.3586 10.736 75.6574C5.59028 67.9563 2.84375 58.9022 2.84375 49.6401C2.84494 37.2204 7.77918 25.3097 16.5612 16.5276C25.3433 7.7455 37.254 2.81125 49.6738 2.81006V2.81009Z" fill="#0078D4"/>
<path d="M85.0089 51.8062C85.0324 51.6413 85.0795 51.4764 85.1031 51.3351C85.545 49.0032 85.468 46.6026 84.8776 44.3039C84.2872 42.0051 83.1978 39.8645 81.6868 38.0343C80.1758 36.204 78.2803 34.7289 76.135 33.7138C73.9897 32.6987 71.6471 32.1684 69.2737 32.1607C68.0597 32.1566 66.8497 32.299 65.6697 32.5847C63.264 28.7901 59.691 25.8794 55.4883 24.2905C51.2856 22.7016 46.6807 22.5206 42.3662 23.7745C38.0518 25.0285 34.2612 27.6496 31.5649 31.2436C28.8686 34.8376 27.4124 39.21 27.4153 43.703C27.4153 43.9857 27.4153 44.2684 27.4389 44.551C26.3611 44.1882 25.2311 44.0052 24.094 44.0092C21.4765 44.0096 18.9593 45.0162 17.0632 46.8206C15.167 48.625 14.037 51.0892 13.9069 53.7034C13.7768 56.3177 14.6565 58.8819 16.3641 60.8657C18.0717 62.8495 20.4765 64.101 23.081 64.3613L69.2502 64.4555C72.1239 64.4521 74.9451 63.6846 77.4245 62.2317C79.9039 60.7788 81.9524 58.6928 83.36 56.1874C83.4307 56.0461 83.5249 55.9047 83.5956 55.7634C84.2193 54.5039 84.6936 53.1759 85.0089 51.8062V51.8062Z" fill="url(#paint1_linear_1135_3317)"/>
<path opacity="0.2" d="M63.8527 38.1109C61.658 38.1037 59.5177 38.7932 57.7399 40.0801C55.9621 41.367 54.6386 43.1849 53.9599 45.272C52.2402 45.6854 50.6809 46.5976 49.478 47.8942C48.2751 49.1908 47.482 50.8139 47.1985 52.5597L45.9741 59.9033C45.9267 60.1857 45.8203 60.4549 45.6618 60.6934C44.6836 58.5971 43.0347 56.8866 40.9758 55.8322C38.9168 54.7778 36.5651 54.4396 34.2925 54.8712C32.0198 55.3027 29.9558 56.4793 28.4266 58.215C26.8974 59.9508 25.9903 62.1466 25.8486 64.4555H51.5536C52.2219 63.4231 52.6726 62.2653 52.8781 61.0528L54.1016 53.7108C54.1488 53.4278 54.2556 53.1582 54.4149 52.9196C55.2033 54.6106 56.4317 56.0586 57.9715 57.1121C59.5113 58.1656 61.3059 58.7859 63.1676 58.9082C65.0293 59.0304 66.8897 58.65 68.554 57.8069C70.2183 56.9637 71.6255 55.6888 72.6282 54.1154C73.6309 52.5421 74.1924 50.7281 74.2538 48.8634C74.3152 46.9987 73.8743 45.1518 72.9773 43.5158C72.0803 41.8799 70.7601 40.5151 69.1549 39.5643C67.5497 38.6134 65.7184 38.1115 63.8527 38.1109Z" fill="#003067"/>
<path d="M63.8528 40.2289C61.8916 40.229 59.994 40.9243 58.497 42.1913C57.0001 43.4583 56.0007 45.2149 55.6764 47.1491C54.1172 47.2451 52.6365 47.8668 51.4761 48.9127C50.3157 49.9587 49.5442 51.3671 49.2873 52.908L48.0635 60.2508C47.914 61.1475 47.4738 61.9702 46.8108 62.5922C46.1477 63.2142 45.2985 63.6009 44.3941 63.6928C44.0425 61.6447 42.9345 59.8034 41.2896 58.5336C39.6446 57.2638 37.5828 56.6582 35.5124 56.8367C33.442 57.0153 31.5143 57.9649 30.111 59.4976C28.7077 61.0302 27.9313 63.0341 27.9356 65.1121C27.9398 67.1901 28.7245 69.1908 30.134 70.7176C31.5436 72.2445 33.4753 73.1863 35.5463 73.3563C37.6174 73.5263 39.6768 72.9122 41.3165 71.6357C42.9562 70.3592 44.0566 68.5133 44.3998 66.4638C45.959 66.3678 47.4396 65.7461 48.6 64.7002C49.7604 63.6543 50.5319 62.2459 50.7888 60.705L52.0128 53.3622C52.1622 52.4654 52.6024 51.6427 53.2655 51.0207C53.9285 50.3987 54.7777 50.012 55.6822 49.9201C55.9494 51.4769 56.6557 52.9249 57.7181 54.0938C58.7805 55.2626 60.1548 56.1036 61.679 56.5177C63.2033 56.9318 64.8142 56.9018 66.3219 56.4312C67.8297 55.9606 69.1717 55.069 70.1898 53.8614C71.2079 52.6537 71.8598 51.1804 72.0688 49.6147C72.2777 48.0491 72.035 46.4564 71.3692 45.024C70.7033 43.5917 69.6422 42.3794 68.3105 41.5299C66.9789 40.6803 65.4323 40.229 63.8528 40.2289H63.8528Z" fill="#C3F1FF"/>
<path d="M63.8527 52.6621C66.1416 52.6621 67.9971 50.8065 67.9971 48.5177C67.9971 46.2288 66.1416 44.3732 63.8527 44.3732C61.5638 44.3732 59.7083 46.2288 59.7083 48.5177C59.7083 50.8065 61.5638 52.6621 63.8527 52.6621Z" fill="white"/>
<path d="M36.2233 69.2397C38.5122 69.2397 40.3677 67.3842 40.3677 65.0953C40.3677 62.8064 38.5122 60.9509 36.2233 60.9509C33.9344 60.9509 32.0789 62.8064 32.0789 65.0953C32.0789 67.3842 33.9344 69.2397 36.2233 69.2397Z" fill="white"/>
<path d="M39.0616 49.5243L38.9981 49.5962C38.8667 49.7276 38.6919 49.8065 38.5064 49.8182C38.3209 49.8298 38.1376 49.7734 37.9907 49.6596L37.9188 49.5961L34.1055 45.782C33.9742 45.6506 33.8953 45.4759 33.8836 45.2905C33.8719 45.1052 33.9281 44.9219 34.0418 44.775L34.1052 44.7031L37.9185 40.8846C38.0557 40.7473 38.2401 40.6673 38.4341 40.6611C38.6281 40.6548 38.8172 40.7228 38.9629 40.851C39.1086 40.9793 39.2 41.1583 39.2184 41.3515C39.2368 41.5448 39.1809 41.7378 39.062 41.8912L38.9986 41.9631L36.4888 44.4775L46.0904 44.4774C46.2774 44.4774 46.4579 44.5461 46.5976 44.6704C46.7374 44.7947 46.8266 44.9659 46.8484 45.1516L46.8536 45.2406C46.8535 45.4276 46.7849 45.6081 46.6606 45.7479C46.5363 45.8876 46.3651 45.9769 46.1794 45.9987L46.0904 46.0038L36.4865 46.0039L38.9983 48.517C39.1297 48.6484 39.2086 48.8232 39.2203 49.0087C39.2319 49.1942 39.1755 49.3775 39.0616 49.5244L38.9981 49.5962L39.0616 49.5243Z" fill="white"/>
<path d="M59.9486 61.6149L60.0121 61.543C60.1435 61.4116 60.3183 61.3327 60.5038 61.321C60.6893 61.3093 60.8726 61.3657 61.0195 61.4796L61.0914 61.5431L64.9047 65.3572C65.036 65.4886 65.1149 65.6633 65.1266 65.8487C65.1383 66.034 65.0821 66.2173 64.9684 66.3642L64.905 66.4361L61.0917 70.2546C60.9545 70.3919 60.7702 70.4717 60.5762 70.4779C60.3822 70.4841 60.1932 70.4162 60.0475 70.288C59.9018 70.1597 59.8105 69.9808 59.792 69.7876C59.7736 69.5944 59.8294 69.4015 59.9482 69.248L60.0116 69.1761L62.5214 66.6617L52.9199 66.6618C52.7329 66.6618 52.5524 66.5931 52.4127 66.4688C52.2729 66.3446 52.1837 66.1733 52.1619 65.9876L52.1567 65.8986C52.1568 65.7116 52.2254 65.5311 52.3497 65.3914C52.474 65.2516 52.6452 65.1624 52.8309 65.1405L52.9199 65.1354L62.5238 65.1353L60.0119 62.6223C59.8805 62.4909 59.8016 62.316 59.7899 62.1306C59.7783 61.9451 59.8347 61.7617 59.9485 61.6149L60.012 61.543L59.9486 61.6149Z" fill="white"/>
</g>
<defs>
<linearGradient id="paint0_linear_1135_3317" x1="47.8697" y1="-15.1531" x2="51.8525" y2="130.615" gradientUnits="userSpaceOnUse">
<stop stop-color="#00ABDE"/>
<stop offset="1" stop-color="#007ED8"/>
</linearGradient>
<linearGradient id="paint1_linear_1135_3317" x1="49.6401" y1="64.4556" x2="49.6401" y2="22.9505" gradientUnits="userSpaceOnUse">
<stop stop-color="#004DAE"/>
<stop offset="0.21" stop-color="#0061C4"/>
<stop offset="0.51" stop-color="#0078DD"/>
<stop offset="0.78" stop-color="#0086EC"/>
<stop offset="1" stop-color="#008BF1"/>
</linearGradient>
<clipPath id="clip0_1135_3317">
<rect width="99.2799" height="99.28" fill="white"/>
</clipPath>
</defs>
</svg>
