<svg width="100" height="100" viewBox="0 0 100 100" fill="none" xmlns="http://www.w3.org/2000/svg">
<g clip-path="url(#clip0_1188_449)">
<path d="M49.6401 96.45C40.382 96.45 31.3317 93.7047 23.6339 88.5611C15.936 83.4176 9.93624 76.1068 6.3933 67.5534C2.85036 59 1.92337 49.5881 3.72954 40.5078C5.53571 31.4276 9.99394 23.0868 16.5404 16.5403C23.0869 9.99384 31.4277 5.53562 40.5079 3.72945C49.5882 1.92327 59.0001 2.85027 67.5535 6.39321C76.1069 9.93614 83.4176 15.9359 88.5612 23.6338C93.7047 31.3316 96.4501 40.3819 96.4501 49.64C96.4505 55.7873 95.24 61.8745 92.8878 67.5539C90.5355 73.2334 87.0875 78.3938 82.7407 82.7406C78.3939 87.0874 73.2335 90.5354 67.554 92.8877C61.8746 95.2399 55.7874 96.4504 49.6401 96.45V96.45Z" fill="url(#paint0_linear_1188_449)"/>
<path fill-rule="evenodd" clip-rule="evenodd" d="M95.54 49.64C95.54 58.7182 92.848 67.5925 87.8045 75.1407C82.7609 82.6889 75.5923 88.572 67.2052 92.0461C58.818 95.5201 49.5891 96.4291 40.6854 94.658C31.7816 92.887 23.603 88.5154 17.1838 82.0962C10.7646 75.677 6.39302 67.4984 4.62196 58.5946C2.85089 49.6909 3.75987 40.462 7.23393 32.0748C10.708 23.6877 16.5911 16.5191 24.1393 11.4755C31.6875 6.43199 40.5618 3.74 49.64 3.74C55.6677 3.73998 61.6363 4.9272 67.2052 7.23388C72.774 9.54057 77.834 12.9215 82.0963 17.1837C86.3585 21.446 89.7394 26.5059 92.0461 32.0748C94.3528 37.6437 95.54 43.6123 95.54 49.64V49.64ZM49.64 3.62732e-07C59.4579 3.62732e-07 69.0553 2.91134 77.2185 8.36585C85.3818 13.8204 91.7442 21.5731 95.5014 30.6436C99.2585 39.7141 100.242 49.6951 98.3262 59.3243C96.4108 68.9535 91.6831 77.7985 84.7408 84.7408C77.7985 91.6831 68.9535 96.4108 59.3243 98.3262C49.6951 100.242 39.7141 99.2585 30.6436 95.5014C21.5731 91.7442 13.8204 85.3818 8.36585 77.2185C2.91134 69.0553 3.62732e-07 59.4579 3.62732e-07 49.64C-0.000787738 43.121 1.28265 36.6656 3.77702 30.6427C6.27138 24.6197 9.9278 19.1471 14.5375 14.5375C19.1471 9.9278 24.6197 6.27138 30.6427 3.77702C36.6656 1.28265 43.121 -0.000787738 49.64 3.62732e-07V3.62732e-07Z" fill="#F2F1F0"/>
<path fill-rule="evenodd" clip-rule="evenodd" d="M92.7296 49.6401C92.7296 58.1625 90.2024 66.4935 85.4676 73.5796C80.7328 80.6657 74.0031 86.1887 66.1294 89.4501C58.2557 92.7114 49.5918 93.5648 41.2331 91.9021C32.8745 90.2395 25.1966 86.1356 19.1703 80.1093C13.1441 74.0831 9.04017 66.4052 7.37753 58.0465C5.7149 49.6879 6.56822 41.0239 9.8296 33.1503C13.091 25.2766 18.6139 18.5469 25.7 13.8121C32.7862 9.07727 41.1172 6.55009 49.6396 6.55009C55.2983 6.54974 60.9017 7.66407 66.1298 9.82942C71.3579 11.9948 76.1082 15.1687 80.1096 19.1701C84.1109 23.1714 87.2849 27.9218 89.4502 33.1499C91.6156 38.3779 92.7299 43.9813 92.7296 49.6401V49.6401ZM49.6396 2.81009C58.9017 2.81009 67.9558 5.55662 75.6569 10.7024C83.3581 15.8481 89.3604 23.162 92.9049 31.719C96.4493 40.2761 97.3767 49.692 95.5697 58.7762C93.7628 67.8603 89.3027 76.2046 82.7534 82.7539C76.2041 89.3032 67.8598 93.7633 58.7757 95.5703C49.6915 97.3772 40.2756 96.4498 31.7185 92.9054C23.1614 89.3609 15.8476 83.3586 10.7018 75.6574C5.5561 67.9563 2.80957 58.9022 2.80957 49.6401C2.81076 37.2204 7.745 25.3097 16.5271 16.5276C25.3091 7.7455 37.2198 2.81125 49.6396 2.81006V2.81009Z" fill="#0078D4"/>
<path fill-rule="evenodd" clip-rule="evenodd" d="M92.7637 49.6401C92.7637 58.1625 90.2366 66.4935 85.5018 73.5796C80.767 80.6657 74.0372 86.1887 66.1636 89.4501C58.2899 92.7114 49.6259 93.5648 41.2673 91.9021C32.9087 90.2395 25.2308 86.1356 19.2045 80.1093C13.1783 74.0831 9.07435 66.4052 7.41171 58.0465C5.74908 49.6879 6.6024 41.0239 9.86378 33.1503C13.1252 25.2766 18.6481 18.5469 25.7342 13.8121C32.8203 9.07727 41.1514 6.55009 49.6738 6.55009C55.3325 6.54974 60.9359 7.66407 66.164 9.82942C71.3921 11.9948 76.1424 15.1687 80.1437 19.1701C84.1451 23.1714 87.3191 27.9218 89.4844 33.1499C91.6498 38.3779 92.7641 43.9813 92.7637 49.6401V49.6401ZM49.6738 2.81009C58.9359 2.81009 67.9899 5.55662 75.6911 10.7024C83.3923 15.8481 89.3946 23.162 92.939 31.719C96.4835 40.2761 97.4109 49.692 95.6039 58.7762C93.797 67.8603 89.3369 76.2046 82.7876 82.7539C76.2383 89.3032 67.894 93.7633 58.8098 95.5703C49.7257 97.3772 40.3097 96.4498 31.7527 92.9054C23.1956 89.3609 15.8818 83.3586 10.736 75.6574C5.59028 67.9563 2.84375 58.9022 2.84375 49.6401C2.84494 37.2204 7.77918 25.3097 16.5612 16.5276C25.3433 7.7455 37.254 2.81125 49.6738 2.81006V2.81009Z" fill="#0078D4"/>
<path d="M75.5085 36.2778C75.7247 36.3503 75.9128 36.4886 76.0465 36.6734C76.1802 36.8582 76.2528 37.0801 76.2541 37.3082C76.2554 37.5362 76.1853 37.759 76.0537 37.9452C75.9221 38.1315 75.7355 38.2719 75.5201 38.3469L62.3402 38.347L68.9517 42.1641L65.7537 44.0225L55.9234 38.347L23.678 38.3471C23.4618 38.2746 23.2736 38.1363 23.1399 37.9515C23.0062 37.7668 22.9337 37.5448 22.9324 37.3168C22.9311 37.0887 23.0012 36.8659 23.1328 36.6797C23.2644 36.4934 23.451 36.353 23.6663 36.278L24.6274 35.7195L40.0515 35.7194L40.023 30.4848H33.6351L38.1567 27.8571L60.9233 27.857L65.4745 30.4846L44.5594 30.4847L44.5879 35.7194L74.5411 35.7192L75.5085 36.2778Z" fill="white"/>
<path d="M61.7109 46.372L58.5131 48.2305C53.6124 45.4011 45.6655 45.4011 40.7967 48.2305L37.5789 46.3727C44.2106 42.5187 55.0358 42.5181 61.7109 46.372Z" fill="white"/>
<path d="M75.5203 38.3469L68.9518 42.1641L65.7539 44.0225L61.7109 46.372L58.5131 48.2305L51.4641 52.3269C50.9108 52.6086 50.2988 52.7554 49.678 52.7554C49.0572 52.7554 48.4452 52.6086 47.8919 52.3269L40.7968 48.2305L37.5789 46.3727L23.6782 38.3471C23.4723 38.2557 23.2947 38.1109 23.1636 37.9277C23.0325 37.7446 22.9527 37.5297 22.9325 37.3054L22.9255 39.7707C22.9457 39.995 23.0255 40.2099 23.1566 40.393C23.2877 40.5762 23.4653 40.721 23.6711 40.8124L37.5718 48.838L40.7897 50.6958L47.8849 54.7922C48.4381 55.0739 49.0501 55.2207 49.6709 55.2207C50.2917 55.2207 50.9037 55.0739 51.457 54.7922L58.506 50.6958L61.7039 48.8374L65.7469 46.4878L68.9448 44.6294L75.5133 40.8122C75.7155 40.7212 75.89 40.5781 76.019 40.3977C76.1479 40.2172 76.2267 40.0057 76.2473 39.7849L76.2543 37.3196C76.2337 37.5404 76.1549 37.7519 76.026 37.9323C75.897 38.1128 75.7225 38.2559 75.5203 38.3469V38.3469Z" fill="#0078D4"/>
<path d="M60.9233 27.857L38.1567 27.8571L47.7227 22.298C48.2759 22.0163 48.8879 21.8695 49.5087 21.8695C50.1296 21.8695 50.7416 22.0163 51.2948 22.298L60.9233 27.857Z" fill="#F2F2F2"/>
<path d="M74.5411 35.719H44.5881L44.5601 30.485H65.4751L74.5411 35.719Z" fill="#F2F2F2"/>
<path d="M40.0229 30.485L40.0519 35.719H24.6279L33.6349 30.485H40.0229Z" fill="#F2F2F2"/>
<path d="M75.5201 38.347L68.9521 42.164L62.3401 38.347H75.5201Z" fill="#F2F2F2"/>
<path d="M65.754 44.0225L61.711 46.372C55.0358 42.5181 44.2106 42.5187 37.5788 46.3727L23.6782 38.3471L55.9237 38.347L65.754 44.0225Z" fill="#F2F2F2"/>
<path d="M58.5129 48.2304L51.4639 52.3269C50.9107 52.6086 50.2987 52.7554 49.6778 52.7554C49.057 52.7554 48.445 52.6086 47.8918 52.3269L40.7966 48.2305C45.6654 45.4011 53.6122 45.401 58.5129 48.2304Z" fill="#F2F2F2"/>
<g opacity="0.2">
<path d="M55.6309 35.735C55.6363 33.8184 52.9583 32.257 49.6494 32.2477C46.3405 32.2383 43.6537 33.7844 43.6483 35.701C43.6428 37.6176 46.3208 39.1789 49.6297 39.1883C52.9387 39.1977 55.6255 37.6516 55.6309 35.735Z" fill="#767676"/>
</g>
<path d="M69.0526 58.6834H30.2952C29.0892 58.6834 28.1116 59.661 28.1116 60.8669V75.5409C28.1116 76.7469 29.0892 77.7245 30.2952 77.7245H69.0526C70.2585 77.7245 71.2361 76.7469 71.2361 75.5409V60.8669C71.2361 59.661 70.2585 58.6834 69.0526 58.6834Z" fill="#0078D4"/>
<path fill-rule="evenodd" clip-rule="evenodd" d="M59.1555 67.8602H47.6962C47.4624 67.8602 47.2382 67.7673 47.0729 67.602C46.9076 67.4367 46.8147 67.2125 46.8147 66.9787C46.8147 66.7449 46.9076 66.5207 47.0729 66.3554C47.2382 66.1901 47.4624 66.0972 47.6962 66.0972H59.1555C59.3893 66.0972 59.6135 66.1901 59.7788 66.3554C59.9441 66.5207 60.037 66.7449 60.037 66.9787C60.037 67.2125 59.9441 67.4367 59.7788 67.602C59.6135 67.7673 59.3893 67.8602 59.1555 67.8602V67.8602Z" fill="white"/>
<path fill-rule="evenodd" clip-rule="evenodd" d="M63.9983 71.8269H47.6962C47.4624 71.8269 47.2382 71.734 47.0729 71.5687C46.9076 71.4034 46.8147 71.1792 46.8147 70.9454C46.8147 70.7116 46.9076 70.4874 47.0729 70.3221C47.2382 70.1568 47.4624 70.0639 47.6962 70.0639H63.9983C64.2321 70.0639 64.4563 70.1568 64.6216 70.3221C64.7869 70.4874 64.8798 70.7116 64.8798 70.9454C64.8798 71.1792 64.7869 71.4034 64.6216 71.5687C64.4563 71.734 64.2321 71.8269 63.9983 71.8269V71.8269Z" fill="white"/>
<path d="M41.1861 69.4574C41.3715 69.4574 41.555 69.4939 41.7263 69.5648C41.8975 69.6357 42.0531 69.7397 42.1842 69.8708C42.3153 70.0018 42.4192 70.1574 42.4902 70.3287C42.5611 70.4999 42.5976 70.6835 42.5976 70.8688V71.4452C42.5976 71.8051 42.4851 72.156 42.2759 72.4488C41.7217 73.1501 41.002 73.7027 40.1815 74.0571C39.3609 74.4115 38.4651 74.5565 37.5747 74.4791C36.6845 74.5568 35.7889 74.4118 34.9687 74.0572C34.1485 73.7026 33.4294 73.1495 32.8762 72.4477C32.6679 72.1553 32.5559 71.8052 32.5559 71.4462V70.8688C32.5559 70.6835 32.5924 70.4999 32.6633 70.3287C32.7343 70.1574 32.8382 70.0018 32.9693 69.8708C33.1004 69.7397 33.256 69.6357 33.4272 69.5648C33.5985 69.4939 33.782 69.4574 33.9674 69.4574H41.1861ZM37.5747 61.9288C38.1953 61.9288 38.802 62.1129 39.3181 62.4577C39.8342 62.8025 40.2364 63.2926 40.4739 63.866C40.7114 64.4394 40.7736 65.0704 40.6525 65.6792C40.5314 66.2879 40.2325 66.8471 39.7937 67.2859C39.3548 67.7248 38.7956 68.0237 38.1869 68.1448C37.5782 68.2659 36.9472 68.2037 36.3738 67.9662C35.8004 67.7287 35.3103 67.3265 34.9654 66.8104C34.6206 66.2943 34.4366 65.6876 34.4366 65.067C34.4366 64.2347 34.7672 63.4365 35.3557 62.848C35.9442 62.2595 36.7424 61.9288 37.5747 61.9288V61.9288Z" fill="white"/>
<path d="M54.9587 29.8052L56.221 28.5569C57.5159 27.262 58.3977 25.6122 58.755 23.816C59.1122 22.0199 58.9289 20.1582 58.2281 18.4663C57.5273 16.7745 56.3405 15.3284 54.8178 14.311C53.2952 13.2936 51.505 12.7505 49.6737 12.7505C47.8424 12.7505 46.0523 13.2936 44.5296 14.311C43.0069 15.3284 41.8202 16.7745 41.1194 18.4663C40.4186 20.1582 40.2352 22.0199 40.5925 23.816C40.9497 25.6122 41.8316 27.262 43.1265 28.5569C43.4411 28.8714 43.8316 29.2578 44.2982 29.716L48.0105 33.327C48.4566 33.7585 49.053 33.9997 49.6737 33.9998C50.2943 33.9998 50.8907 33.7587 51.337 33.3273C52.8213 31.8922 54.0286 30.7181 54.9587 29.8052Z" fill="#0078D4"/>
<path d="M49.6736 18.0483C49.8851 18.0483 50.0879 18.1323 50.2375 18.2819C50.3871 18.4314 50.4711 18.6343 50.4711 18.8458V21.2384H53.1296C53.3406 21.2392 53.5427 21.3235 53.6917 21.473C53.8406 21.6225 53.9243 21.8249 53.9243 22.0359C53.9243 22.247 53.8406 22.4494 53.6917 22.5989C53.5427 22.7484 53.3406 22.8327 53.1296 22.8335H50.4711V25.2261C50.4715 25.331 50.4511 25.4351 50.4112 25.5321C50.3713 25.6292 50.3126 25.7175 50.2385 25.7918C50.1644 25.8662 50.0764 25.9252 49.9794 25.9655C49.8825 26.0057 49.7785 26.0264 49.6736 26.0264C49.5686 26.0264 49.4647 26.0057 49.3677 25.9655C49.2708 25.9252 49.1827 25.8662 49.1086 25.7918C49.0345 25.7175 48.9758 25.6292 48.9359 25.5321C48.896 25.4351 48.8757 25.331 48.876 25.2261V22.8335H46.2176C46.1126 22.8338 46.0086 22.8135 45.9115 22.7736C45.8144 22.7337 45.7262 22.675 45.6518 22.6009C45.5775 22.5268 45.5185 22.4387 45.4782 22.3418C45.438 22.2449 45.4172 22.1409 45.4172 22.0359C45.4172 21.931 45.438 21.827 45.4782 21.7301C45.5185 21.6331 45.5775 21.5451 45.6518 21.471C45.7262 21.3969 45.8144 21.3382 45.9115 21.2983C46.0086 21.2584 46.1126 21.238 46.2176 21.2384H48.876V18.8458C48.876 18.6343 48.9601 18.4314 49.1096 18.2819C49.2592 18.1323 49.4621 18.0483 49.6736 18.0483Z" fill="white"/>
</g>
<defs>
<linearGradient id="paint0_linear_1188_449" x1="47.8697" y1="-15.1531" x2="51.8525" y2="130.615" gradientUnits="userSpaceOnUse">
<stop stop-color="#00ABDE"/>
<stop offset="1" stop-color="#007ED8"/>
</linearGradient>
<clipPath id="clip0_1188_449">
<rect width="99.2799" height="99.28" fill="white"/>
</clipPath>
</defs>
</svg>
