<svg width="103" height="103" viewBox="0 0 103 103" fill="none" xmlns="http://www.w3.org/2000/svg">
<path d="M51.9789 98.681C26.1289 98.681 5.16895 77.731 5.16895 51.871C5.16895 26.011 26.1289 5.06104 51.9789 5.06104C77.8289 5.06104 98.7889 26.021 98.7889 51.871C98.7889 77.721 77.8289 98.681 51.9789 98.681Z" fill="url(#paint0_linear_810_21736)"/>
<path fill-rule="evenodd" clip-rule="evenodd" d="M97.8789 51.8712C97.8789 77.2212 77.3289 97.7712 51.9789 97.7712C26.6289 97.7712 6.07887 77.2212 6.07887 51.8712C6.07887 26.5212 26.6289 5.97121 51.9789 5.97121C77.3289 5.97121 97.8789 26.5212 97.8789 51.8712ZM51.9789 2.2312C79.3989 2.2312 101.619 24.4512 101.619 51.8712C101.619 79.2912 79.3889 101.511 51.9789 101.511C24.5589 101.511 2.33887 79.2812 2.33887 51.8712C2.33887 24.4512 24.5589 2.2312 51.9789 2.2312Z" fill="#F2F1F0"/>
<path fill-rule="evenodd" clip-rule="evenodd" d="M95.0689 51.8711C95.0689 75.6711 75.7789 94.9611 51.9789 94.9611C28.1789 94.9611 8.88893 75.6711 8.88893 51.8711C8.88893 28.0711 28.1789 8.78114 51.9789 8.78114C75.7789 8.78114 95.0689 28.0711 95.0689 51.8711ZM51.9789 5.04114C77.8389 5.04114 98.8089 26.0111 98.8089 51.8711C98.8089 77.7311 77.8389 98.7012 51.9789 98.7012C26.1189 98.7012 5.14893 77.7311 5.14893 51.8711C5.14893 26.0111 26.1089 5.04114 51.9789 5.04114Z" fill="url(#paint1_linear_810_21736)"/>
<path opacity="0.3" d="M20.8205 76.751H84.1005C84.5805 76.751 85.0405 76.561 85.3905 76.221C85.7405 75.871 85.9205 75.411 85.9205 74.931V31.691C85.9205 30.691 84.8705 29.771 83.4605 29.771L21.6905 30.711C21.4505 30.711 21.2205 30.751 21.0005 30.841C20.7805 30.941 20.5805 31.061 20.4105 31.241C20.2405 31.411 20.1105 31.601 20.0105 31.831C19.9105 32.051 19.8805 32.291 19.8805 32.521L19.0005 74.961C19.0005 75.441 19.1905 75.901 19.5305 76.241C19.8805 76.571 20.3505 76.751 20.8205 76.751Z" fill="#1F1D20"/>
<g filter="url(#filter0_d_810_21736)">
<path d="M83.9404 28.9609H20.4304C19.4404 28.9609 18.6304 29.7709 18.6304 30.7609V74.1009C18.6304 75.0909 19.4404 75.9009 20.4304 75.9009H83.9504C84.9404 75.9009 85.7504 75.0909 85.7504 74.1009V30.7609C85.7404 29.7609 84.9304 28.9609 83.9404 28.9609Z" fill="url(#paint2_linear_810_21736)"/>
</g>
<path d="M83.1102 31.5909H52.4102V72.8209H83.1002V31.5909H83.1102Z" fill="white"/>
<path d="M52.8504 31.5909H22.1504V72.8209H52.8404V31.5909H52.8504Z" fill="#CDCDD0"/>
<path d="M81.2904 78.001C85.2604 78.001 88.4704 74.781 88.4704 70.821C88.4704 66.861 85.2504 63.641 81.2904 63.641C77.3204 63.641 74.1104 66.861 74.1104 70.821C74.1104 74.791 77.3304 78.001 81.2904 78.001Z" fill="#002D4C"/>
<path d="M85.2006 67.171L79.2806 73.111L77.5106 71.331L76.3306 72.521L79.2906 75.481L86.4006 68.351L85.2006 67.171Z" fill="#FAF9F8"/>
<path opacity="0.15" d="M77.2399 45.2326C77.2396 45.1851 77.2296 45.1383 77.2104 45.0949C77.1912 45.0515 77.1634 45.0126 77.1285 44.9804C77.0964 44.9455 77.0574 44.9177 77.014 44.8985C76.9706 44.8793 76.924 44.8693 76.8765 44.869C76.3856 44.8542 75.9068 44.7128 75.4867 44.4585C75.3234 43.8647 75.0869 43.2934 74.7829 42.7579C74.7066 42.2536 75.2285 41.8841 75.4689 41.4854C75.4993 41.4423 75.5268 41.3973 75.5511 41.3505C75.5714 41.2856 75.5714 41.216 75.5511 41.1511C75.5379 41.0828 75.5052 41.0197 75.4572 40.9693C75.2083 40.6227 74.9362 40.2935 74.6423 39.9842C74.3139 39.6744 73.9673 39.3846 73.6043 39.1163C73.5341 39.0507 73.4423 39.0132 73.3463 39.0107C73.2501 39.0121 73.1579 39.0498 73.0883 39.1163C72.7281 39.4476 72.2904 39.6835 71.8156 39.8024V39.8024C71.2817 39.5032 70.7151 39.2671 70.1268 39.0987V39.0987C69.7163 38.7937 69.822 38.1663 69.7164 37.7147C69.7148 37.6174 69.6745 37.5247 69.6048 37.4567C69.5377 37.3901 69.4474 37.3522 69.3528 37.3512C68.93 37.2808 68.5028 37.2397 68.0743 37.228C67.6225 37.2397 67.1721 37.2808 66.7257 37.3512C66.6297 37.3536 66.5379 37.3912 66.4677 37.4567C66.4022 37.5269 66.3645 37.6187 66.362 37.7147C66.347 38.2038 66.2055 38.6806 65.9514 39.0987C65.3592 39.269 64.7886 39.5071 64.2509 39.8082C63.7407 39.8845 63.3713 39.3567 62.9784 39.1221L62.8436 39.04C62.7763 39.0224 62.7055 39.0224 62.6383 39.04C62.5711 39.0553 62.5101 39.09 62.4624 39.1397C62.1121 39.3838 61.7825 39.6564 61.4772 39.9548C61.1657 40.2817 60.8758 40.6284 60.6093 40.9928C60.575 41.0264 60.5481 41.0665 60.53 41.1109C60.5118 41.1553 60.5027 41.2029 60.5036 41.2508C60.5034 41.2987 60.5127 41.3461 60.5308 41.3904C60.5489 41.4346 60.5756 41.4749 60.6093 41.5088C60.9414 41.8663 61.1774 42.3021 61.2953 42.7755V42.7755C60.9971 43.3139 60.7612 43.8844 60.5918 44.4761C60.24 44.91 59.6592 44.781 59.2077 44.8924C59.1598 44.8922 59.1125 44.9014 59.0682 44.9195C59.024 44.9376 58.9836 44.9643 58.9497 44.998C58.9154 45.0316 58.8885 45.0717 58.8704 45.1161C58.8522 45.1605 58.8434 45.2081 58.8443 45.256C58.774 45.6768 58.7329 46.102 58.7212 46.5285C58.7329 46.9803 58.774 47.4309 58.8443 47.8773C58.8441 47.9251 58.8531 47.9726 58.8712 48.0168C58.8893 48.0611 58.916 48.1014 58.9497 48.1353C59.0193 48.2018 59.1114 48.2395 59.2077 48.2409C59.6966 48.2567 60.1734 48.398 60.5918 48.6514C60.5918 48.6514 60.5918 48.6514 60.5918 48.6514C60.7583 49.2357 60.9924 49.7986 61.2896 50.3285C61.2896 50.3285 61.2896 50.3285 61.2896 50.3285C61.3424 50.8621 60.844 51.2081 60.6036 51.601C60.5625 51.6714 60.5331 51.7124 60.5214 51.7418C60.5007 51.8066 60.5007 51.8763 60.5214 51.9411C60.5347 52.0077 60.5674 52.0689 60.6153 52.1171C60.8611 52.466 61.1335 52.7954 61.4302 53.1022C61.7555 53.4154 62.1024 53.7054 62.4682 53.9701C62.5021 54.0038 62.5424 54.0305 62.5867 54.0486C62.631 54.0667 62.6783 54.0759 62.7262 54.0757C62.7741 54.0766 62.8218 54.0677 62.8662 54.0496C62.9105 54.0314 62.9506 54.0044 62.9841 53.9701C63.3444 53.6388 63.7821 53.4029 64.2569 53.284V53.284C64.7858 53.5818 65.3489 53.8142 65.934 53.976V53.976C66.0579 54.0074 66.1778 54.0527 66.2916 54.1109V50.9442C65.3317 50.5918 64.5033 49.9526 63.919 49.1133C63.3347 48.2741 63.0229 47.2755 63.0254 46.2529C63.0204 45.2737 63.3058 44.3149 63.8454 43.4977C64.385 42.6804 65.1546 42.0414 66.0571 41.6613V46.8511H70.0097V41.6554C70.9114 42.0372 71.6804 42.6765 72.2207 43.4932C72.761 44.3099 73.0485 45.2678 73.0471 46.2471C73.0454 47.2687 72.7317 48.2654 72.148 49.1038C71.5643 49.9422 70.7384 50.5823 69.7809 50.9384V54.1636C69.8962 54.1082 70.0077 54.0456 70.115 53.976H70.1445C70.7078 53.8268 71.2482 53.6019 71.7511 53.3075H71.8156C72.3199 53.2313 72.6894 53.759 73.0823 53.9995L73.2232 54.0816C73.2885 54.0992 73.3572 54.0992 73.4225 54.0816C73.4882 54.0659 73.5487 54.0336 73.5983 53.9877C73.9473 53.7398 74.2768 53.4654 74.5836 53.1667C74.8981 52.8427 75.1882 52.4957 75.4514 52.1288C75.4868 52.0957 75.5147 52.0558 75.5339 52.0114C75.5531 51.967 75.563 51.9191 75.5628 51.8708C75.5611 51.7734 75.5211 51.6807 75.4514 51.6128C75.1217 51.2546 74.8876 50.8189 74.7711 50.3461C74.7653 50.3332 74.7622 50.3192 74.7622 50.305C74.7622 50.2909 74.7653 50.2769 74.7711 50.264C75.0621 49.7809 75.2853 49.2599 75.434 48.7159C75.434 48.7159 75.4337 48.7159 75.4689 48.6396C75.7738 48.2291 76.4015 48.3406 76.8531 48.2291C76.9493 48.2278 77.0415 48.1901 77.111 48.1236C77.1447 48.0896 77.1714 48.0494 77.1895 48.0051C77.2076 47.9608 77.2167 47.9134 77.2164 47.8656C77.2867 47.4428 77.3282 47.0156 77.3398 46.5872C77.333 46.1341 77.2995 45.6818 77.2399 45.2326V45.2326Z" fill="#1F1D20"/>
<path d="M77.2399 44.9577C77.2396 44.9102 77.2296 44.8634 77.2104 44.82C77.1912 44.7766 77.1634 44.7377 77.1285 44.7055C77.0964 44.6706 77.0574 44.6428 77.014 44.6236C76.9706 44.6044 76.924 44.5944 76.8765 44.5941C76.3856 44.5793 75.9068 44.4379 75.4867 44.1836C75.3234 43.5898 75.0869 43.0185 74.7829 42.483C74.7066 41.9787 75.2285 41.6092 75.4689 41.2105C75.4993 41.1674 75.5268 41.1224 75.5511 41.0756C75.5714 41.0107 75.5714 40.9411 75.5511 40.8762C75.5379 40.8079 75.5052 40.7448 75.4572 40.6944C75.2083 40.3478 74.9362 40.0186 74.6423 39.7093C74.3139 39.3995 73.9673 39.1097 73.6043 38.8414C73.5341 38.7758 73.4423 38.7383 73.3463 38.7358C73.2501 38.7372 73.1579 38.7749 73.0883 38.8414C72.7281 39.1727 72.2904 39.4086 71.8156 39.5275V39.5275C71.2817 39.2283 70.7151 38.9922 70.1268 38.8238V38.8238C69.7163 38.5188 69.822 37.8914 69.7164 37.4398C69.7148 37.3425 69.6745 37.2498 69.6048 37.1818C69.5377 37.1152 69.4474 37.0773 69.3528 37.0763C68.93 37.0059 68.5028 36.9648 68.0743 36.9531C67.6225 36.9648 67.1721 37.0059 66.7257 37.0763C66.6297 37.0787 66.5379 37.1163 66.4677 37.1818C66.4022 37.252 66.3645 37.3438 66.362 37.4398C66.347 37.9289 66.2055 38.4057 65.9514 38.8238C65.3592 38.9941 64.7886 39.2322 64.2509 39.5333C63.7407 39.6096 63.3713 39.0818 62.9784 38.8472L62.8436 38.7651C62.7763 38.7475 62.7055 38.7475 62.6383 38.7651C62.5711 38.7804 62.5101 38.8151 62.4624 38.8648C62.1121 39.1089 61.7825 39.3815 61.4772 39.6799C61.1657 40.0068 60.8758 40.3535 60.6093 40.7179C60.575 40.7514 60.5481 40.7916 60.53 40.836C60.5118 40.8804 60.5027 40.928 60.5036 40.9759C60.5034 41.0238 60.5127 41.0712 60.5308 41.1154C60.5489 41.1597 60.5756 41.2 60.6093 41.2339C60.9414 41.5914 61.1774 42.0272 61.2953 42.5006V42.5006C60.9971 43.039 60.7612 43.6095 60.5918 44.2012C60.24 44.6351 59.6592 44.5061 59.2077 44.6175C59.1598 44.6173 59.1125 44.6265 59.0682 44.6446C59.024 44.6627 58.9836 44.6894 58.9497 44.7231C58.9154 44.7567 58.8885 44.7968 58.8704 44.8412C58.8522 44.8856 58.8434 44.9332 58.8443 44.9811C58.774 45.4019 58.7329 45.8271 58.7212 46.2536C58.7329 46.7054 58.774 47.156 58.8443 47.6024C58.8441 47.6502 58.8531 47.6976 58.8712 47.7419C58.8893 47.7862 58.916 47.8265 58.9497 47.8604C59.0193 47.9269 59.1114 47.9646 59.2077 47.966C59.6966 47.9818 60.1734 48.1231 60.5918 48.3765C60.5918 48.3765 60.5918 48.3765 60.5918 48.3765C60.7583 48.9608 60.9924 49.5237 61.2896 50.0536C61.2896 50.0536 61.2896 50.0536 61.2896 50.0536C61.3424 50.5872 60.844 50.9332 60.6036 51.3261C60.5625 51.3965 60.5331 51.4375 60.5214 51.4669C60.5007 51.5317 60.5007 51.6014 60.5214 51.6662C60.5347 51.7328 60.5674 51.794 60.6153 51.8422C60.8611 52.1911 61.1335 52.5205 61.4302 52.8273C61.7555 53.1405 62.1024 53.4305 62.4682 53.6952C62.5021 53.7289 62.5424 53.7556 62.5867 53.7737C62.631 53.7918 62.6783 53.801 62.7262 53.8008C62.7741 53.8017 62.8218 53.7928 62.8662 53.7747C62.9105 53.7565 62.9506 53.7295 62.9841 53.6952C63.3444 53.3639 63.7821 53.128 64.2569 53.0091V53.0091C64.7858 53.3069 65.3489 53.5393 65.934 53.7011V53.7011C66.0579 53.7325 66.1778 53.7778 66.2916 53.836V50.6693C65.3317 50.3169 64.5033 49.6777 63.919 48.8384C63.3347 47.9992 63.0229 47.0006 63.0254 45.978C63.0204 44.9988 63.3058 44.04 63.8454 43.2227C64.385 42.4055 65.1546 41.7665 66.0571 41.3864V46.5762H70.0097V41.3805C70.9114 41.7623 71.6804 42.4016 72.2207 43.2183C72.761 44.035 73.0485 44.9929 73.0471 45.9722C73.0454 46.9938 72.7317 47.9905 72.148 48.8289C71.5643 49.6673 70.7384 50.3074 69.7809 50.6635V53.8887C69.8962 53.8333 70.0077 53.7707 70.115 53.7011H70.1445C70.7078 53.5519 71.2482 53.327 71.7511 53.0326H71.8156C72.3199 52.9564 72.6894 53.4841 73.0823 53.7246L73.2232 53.8066C73.2885 53.8243 73.3572 53.8243 73.4225 53.8066C73.4882 53.791 73.5487 53.7587 73.5983 53.7128C73.9473 53.4649 74.2768 53.1905 74.5836 52.8918C74.8981 52.5678 75.1882 52.2208 75.4514 51.8539C75.4868 51.8208 75.5147 51.7809 75.5339 51.7365C75.5531 51.6921 75.563 51.6442 75.5628 51.5959C75.5611 51.4985 75.5211 51.4058 75.4514 51.3379C75.1217 50.9797 74.8876 50.544 74.7711 50.0712C74.7653 50.0583 74.7622 50.0443 74.7622 50.0301C74.7622 50.016 74.7653 50.002 74.7711 49.9891C75.0621 49.506 75.2853 48.985 75.434 48.441C75.434 48.441 75.4337 48.441 75.4689 48.3647C75.7738 47.9542 76.4015 48.0657 76.8531 47.9542C76.9493 47.9529 77.0415 47.9152 77.111 47.8487C77.1447 47.8147 77.1714 47.7745 77.1895 47.7302C77.2076 47.6859 77.2167 47.6385 77.2164 47.5907C77.2867 47.1679 77.3282 46.7407 77.3398 46.3123C77.333 45.8592 77.2995 45.4069 77.2399 44.9577V44.9577Z" fill="url(#paint3_linear_810_21736)"/>
<path d="M28.2905 22.3516V63.2416C28.2905 63.2416 36.4805 62.4216 43.1205 65.7616C49.7705 69.0916 52.8505 72.7816 52.8505 72.7816V31.8816C52.8505 31.8816 49.0205 27.0016 43.1205 25.2016C38.3305 23.7316 28.2905 22.3516 28.2905 22.3516Z" fill="#EAEAEA"/>
<g opacity="0.15">
<path d="M74.7656 58.7812H61.2956C60.8356 58.7812 60.4756 59.1712 60.4756 59.6012C60.4756 60.0612 60.8656 60.4212 61.2956 60.4212H74.7656C75.2256 60.4212 75.5856 60.0312 75.5856 59.6012C75.5856 59.1412 75.2256 58.7812 74.7656 58.7812Z" fill="#1F1D20"/>
<path d="M70.7656 62.3613H61.2956C60.8356 62.3613 60.4756 62.7513 60.4756 63.1813C60.4756 63.6413 60.8656 64.0013 61.2956 64.0013H70.7656C71.2256 64.0013 71.5856 63.6113 71.5856 63.1813C71.5856 62.7513 71.2256 62.3613 70.7656 62.3613Z" fill="#1F1D20"/>
<path fill-rule="evenodd" clip-rule="evenodd" d="M61.2956 66.2305H66.5156C66.9756 66.2305 67.3356 66.6205 67.3356 67.0505C67.3356 67.5105 66.9456 67.8705 66.5156 67.8705H61.2956C60.8356 67.8705 60.4756 67.4805 60.4756 67.0505C60.4756 66.5905 60.8356 66.2305 61.2956 66.2305Z" fill="#1F1D20"/>
</g>
<path d="M74.7656 58.4375H61.2956C60.8356 58.4375 60.4756 58.8275 60.4756 59.2575C60.4756 59.7175 60.8656 60.0775 61.2956 60.0775H74.7656C75.2256 60.0775 75.5856 59.6875 75.5856 59.2575C75.5856 58.7975 75.2256 58.4375 74.7656 58.4375Z" fill="#50E6FF"/>
<path d="M70.7656 62.0176H61.2956C60.8356 62.0176 60.4756 62.4076 60.4756 62.8376C60.4756 63.2976 60.8656 63.6576 61.2956 63.6576H70.7656C71.2256 63.6576 71.5856 63.2676 71.5856 62.8376C71.5856 62.4076 71.2256 62.0176 70.7656 62.0176Z" fill="#0078D4"/>
<path fill-rule="evenodd" clip-rule="evenodd" d="M61.2956 65.8867H66.5156C66.9756 65.8867 67.3356 66.2767 67.3356 66.7067C67.3356 67.1667 66.9456 67.5267 66.5156 67.5267H61.2956C60.8356 67.5267 60.4756 67.1367 60.4756 66.7067C60.4756 66.2467 60.8356 65.8867 61.2956 65.8867Z" fill="#012E4D"/>
<defs>
<filter id="filter0_d_810_21736" x="14.6304" y="26.9609" width="75.1201" height="54.9399" filterUnits="userSpaceOnUse" color-interpolation-filters="sRGB">
<feFlood flood-opacity="0" result="BackgroundImageFix"/>
<feColorMatrix in="SourceAlpha" type="matrix" values="0 0 0 0 0 0 0 0 0 0 0 0 0 0 0 0 0 0 127 0" result="hardAlpha"/>
<feOffset dy="2"/>
<feGaussianBlur stdDeviation="2"/>
<feComposite in2="hardAlpha" operator="out"/>
<feColorMatrix type="matrix" values="0 0 0 0 0 0 0 0 0 0 0 0 0 0 0 0 0 0 0.25 0"/>
<feBlend mode="normal" in2="BackgroundImageFix" result="effect1_dropShadow_810_21736"/>
<feBlend mode="normal" in="SourceGraphic" in2="effect1_dropShadow_810_21736" result="shape"/>
</filter>
<linearGradient id="paint0_linear_810_21736" x1="50.205" y1="-12.9185" x2="54.187" y2="132.852" gradientUnits="userSpaceOnUse">
<stop stop-color="#00ABDE"/>
<stop offset="1" stop-color="#007ED8"/>
</linearGradient>
<linearGradient id="paint1_linear_810_21736" x1="3.40933" y1="-19.7515" x2="98.9369" y2="121.13" gradientUnits="userSpaceOnUse">
<stop stop-color="#007ED8"/>
<stop offset="0.7065" stop-color="#002D4C"/>
</linearGradient>
<linearGradient id="paint2_linear_810_21736" x1="52.1925" y1="31.9771" x2="52.1925" y2="79.6453" gradientUnits="userSpaceOnUse">
<stop stop-color="#007ED8"/>
<stop offset="0.7065" stop-color="#002D4C"/>
</linearGradient>
<linearGradient id="paint3_linear_810_21736" x1="58.3754" y1="32.4701" x2="74.9906" y2="59.4089" gradientUnits="userSpaceOnUse">
<stop stop-color="#007ED8"/>
<stop offset="0.932292" stop-color="#002D4C"/>
</linearGradient>
</defs>
</svg>
