<svg width="103" height="103" viewBox="0 0 103 103" fill="none" xmlns="http://www.w3.org/2000/svg">
<path d="M51.6479 97.9335C25.7979 97.9335 4.83789 76.9835 4.83789 51.1235C4.83789 25.2635 25.7979 4.31348 51.6479 4.31348C77.4979 4.31348 98.4579 25.2735 98.4579 51.1235C98.4579 76.9735 77.4979 97.9335 51.6479 97.9335Z" fill="url(#paint0_linear_815_24864)"/>
<path fill-rule="evenodd" clip-rule="evenodd" d="M97.5478 51.1234C97.5478 76.4734 76.9978 97.0234 51.6478 97.0234C26.2978 97.0234 5.74781 76.4734 5.74781 51.1234C5.74781 25.7734 26.2978 5.2234 51.6478 5.2234C76.9978 5.2234 97.5478 25.7734 97.5478 51.1234ZM51.6478 1.4834C79.0678 1.4834 101.288 23.7034 101.288 51.1234C101.288 78.5434 79.0578 100.763 51.6478 100.763C24.2278 100.763 2.00781 78.5334 2.00781 51.1234C2.00781 23.7034 24.2278 1.4834 51.6478 1.4834Z" fill="url(#paint1_linear_815_24864)"/>
<path d="M13.9506 57.7831L19.9506 61.2031L14.0105 64.6232L8.38049 61.3931L8.47058 61.7831L13.7206 64.7831L9.72058 67.0931C9.72058 67.1931 9.77053 67.2932 9.79053 67.3832L14.0305 64.9431L20.0305 68.3632L14.1006 71.7731L10.3206 69.6031V69.7532L10.6305 70.1531L13.7505 71.9531L12.5605 72.6332L12.7405 72.8632L14.0405 72.1132L19.9606 75.5231L16.4205 77.5231L16.6006 77.7532L20.2505 75.6531L26.2505 79.0831L20.3605 82.4631C20.5605 82.7231 20.7506 82.9531 20.9406 83.1831L38.8005 93.5032L39.4606 93.5531L39.3005 93.4531L45.3005 90.0132L51.2206 93.4231L49.8406 94.2131H50.3605L51.5105 93.5431L52.9506 94.3732H53.6105L51.8005 93.3732L57.8005 89.9331L62.9105 92.8632L63.3206 92.7432L58.1105 89.7432L64.0005 86.3531L69.7605 89.6631L65.5305 92.0931L66.6505 91.7731L82.2405 82.7731L83.4305 81.7731L82.5605 82.2831L76.7905 78.9731L82.7106 75.5731L86.7805 77.9031L86.9406 77.6631L83.0005 75.4031L89.0005 71.9731L90.2505 72.6931L90.4105 72.4531L89.2905 71.8031L91.7305 70.4031L92.0706 69.8832L89.0005 71.6431L83.0806 68.2332L89.0105 64.8231L93.6205 67.4731C93.6659 67.3904 93.7161 67.3103 93.7705 67.2332L89.3005 64.6631L95.0005 61.3732L95.1006 60.7731L70.6605 46.6631L58.2006 39.4731L58.0706 39.4231L52.0105 35.9231L51.7305 35.7432L8.35059 60.6631C8.36803 60.7611 8.39135 60.858 8.42053 60.9531L13.9506 57.7831ZM14.2605 64.7831L20.1906 61.3732L26.1906 64.7931L20.2505 68.2031L14.2605 64.7831ZM51.7006 64.7831L57.6205 61.3832L63.5305 64.7731L57.6105 68.1731L51.7006 64.7831ZM57.3206 68.3431L51.3206 71.7731L45.4105 68.3732L51.4105 64.9531L57.3206 68.3431ZM51.4205 64.6132L45.4205 61.1931L51.3406 57.7931L57.3406 61.2131L51.4205 64.6132ZM51.1305 64.7831L45.1305 68.2131L39.1305 64.7831L45.1305 61.3531L51.1305 64.7831ZM44.8705 68.3732L38.9205 71.8031L32.9205 68.3732L38.9205 64.9531L44.8705 68.3732ZM44.8705 75.5331L38.9606 78.9331L33.0405 75.5331L38.9606 72.1332L44.8705 75.5331ZM39.2605 71.9631L45.2106 68.5431L51.1205 71.9331L45.1205 75.3632L39.2605 71.9631ZM51.4105 72.1031L57.4105 75.5331L51.4105 78.9531L45.4105 75.5231L51.4105 72.1031ZM51.7006 71.9331L57.7006 68.5132L63.7006 71.9331L57.7006 75.3632L51.7006 71.9331ZM57.9506 68.3431L63.8705 64.9431L69.8705 68.3732L63.9606 71.7731L57.9506 68.3431ZM64.1505 64.7731L70.1505 61.3431L76.1505 64.7731L70.1505 68.2031L64.1505 64.7731ZM63.8705 64.6132L57.9606 61.2131L63.9606 57.7831L69.8605 61.1831L63.8705 64.6132ZM57.6705 61.0531L51.6705 57.6232L57.6705 54.1931L63.6705 57.6232L57.6705 61.0531ZM51.4205 57.4531L45.5005 54.0531L51.5005 50.6232L57.4305 54.0331L51.4205 57.4531ZM51.1305 57.6232L45.2106 61.0231L39.2905 57.6232L45.2106 54.2231L51.1305 57.6232ZM44.9205 61.1931L38.9205 64.6232L32.9905 61.2131L38.9905 57.7831L44.9205 61.1931ZM38.6705 64.7831L32.6705 68.2031L26.7505 64.8031L32.7505 61.3832L38.6705 64.7831ZM32.4205 68.3732L26.4905 71.7831L20.5605 68.3832L26.4905 64.9731L32.4205 68.3732ZM32.7106 68.5431L38.7106 71.9731L32.7905 75.3732L26.7905 71.9431L32.7106 68.5431ZM38.7106 79.1031L32.7106 82.5231L26.8005 79.1232L32.7405 75.7131L38.7106 79.1031ZM39.0005 79.2731L45.0005 82.6931L39.0005 86.1232L33.0005 82.6931L39.0005 79.2731ZM39.3005 79.0931L45.2106 75.6931L51.2106 79.1232L45.3005 82.5231L39.3005 79.0931ZM51.4606 79.2931L57.4606 82.7332L51.5605 86.1332L45.5605 82.6831L51.4606 79.2931ZM51.7605 79.1232L57.7605 75.7031L63.7605 79.1431L57.7605 82.5631L51.7605 79.1232ZM58.0005 75.5331L64.0005 72.1031L70.0005 75.5431L64.0005 78.9731L58.0005 75.5331ZM70.2505 75.7131L76.1805 79.1232L70.1805 82.5431L64.2605 79.1431L70.2505 75.7131ZM70.2505 75.3832L64.2505 71.9331L70.1605 68.5331L76.1605 71.9832L70.2505 75.3832ZM70.4606 68.3832L76.4606 64.9531L82.4606 68.3931L76.4606 71.8231L70.4606 68.3832ZM70.4606 61.1931L76.3905 57.7831L82.3905 61.2131L76.4506 64.6232L70.4606 61.1931ZM70.1705 61.0231L64.2705 57.6332L70.2006 54.2231L76.1006 57.6132L70.1705 61.0231ZM63.9805 57.4631L57.9805 54.0431L63.9105 50.6332L69.9105 54.0631L63.9805 57.4631ZM57.7305 53.8732L51.8005 50.4731L57.7305 47.0631L63.6505 50.4631L57.7305 53.8732ZM51.5105 50.3031L45.5105 46.8632L51.4305 43.4531L57.4305 46.8931L51.5105 50.3031ZM51.2305 50.4731L45.2305 53.8931L39.2305 50.4631L45.2305 47.0231L51.2305 50.4731ZM44.9706 54.0631L39.0505 57.4631L33.0505 54.0331L38.9706 50.6232L44.9706 54.0631ZM38.7605 57.6332L32.7605 61.0631L26.7605 57.6332L32.7605 54.1931L38.7605 57.6332ZM32.5105 61.2231L26.5105 64.6531L20.5105 61.2231L26.5105 57.7931L32.5105 61.2231ZM14.2905 71.9531L20.2206 68.5531L26.1505 71.9531L20.2106 75.3632L14.2905 71.9531ZM20.5005 75.5331L26.4305 72.1232L32.4305 75.5431L26.4905 78.9531L20.5005 75.5331ZM20.5005 82.7031L26.4406 79.3031L32.3506 82.6931L26.3506 86.1132L20.5005 82.7031ZM26.6906 86.2831L32.6405 82.8632L38.6405 86.2931L32.6405 89.7231L26.6906 86.2831ZM38.9105 93.3431L32.9105 89.8832L38.9105 86.4531L44.9105 89.9031L38.9105 93.3431ZM39.1906 86.2831L45.1906 82.8632L51.1906 86.3031L45.1906 89.7332L39.1906 86.2831ZM51.3905 93.2831L45.4706 89.8732L51.4706 86.4431L57.4005 89.8531L51.3905 93.2831ZM57.6705 89.6731L51.7405 86.2731L57.6405 82.8832L63.5605 86.2831L57.6705 89.6731ZM57.9406 82.6731L63.8905 79.2532L69.8105 82.6531L63.8705 86.0731L57.9406 82.6731ZM69.9406 89.5431L64.1805 86.2332L70.1205 82.8231L75.8805 86.1332L69.9406 89.5431ZM82.1405 82.5431L76.1405 85.9731L70.3805 82.6631L76.3805 79.2332L82.1405 82.5431ZM76.3805 78.9031L70.4506 75.4932L76.3605 72.0931L82.2905 75.5032L76.3805 78.9031ZM88.5405 71.9031L82.5405 75.3331L76.6105 71.9331L82.6105 68.5032L88.5405 71.9031ZM82.6205 68.1731L76.6205 64.7231L82.5505 61.3131L88.5505 64.7632L82.6205 68.1731ZM94.8306 61.1731L88.8306 64.6132L82.8306 61.1731L88.8306 57.7131L94.8306 61.1731ZM88.5605 57.5531L82.5605 61.0032L76.5605 57.5731L82.5605 54.1132L88.5605 57.5531ZM82.3206 53.9431L76.3206 57.4131L70.4105 54.0231L76.4105 50.5531L82.3206 53.9431ZM76.1405 50.3832L70.1405 53.8531L64.1405 50.4231L70.1906 46.9431L76.1405 50.3832ZM69.9105 46.7831L63.8506 50.2632L57.9305 46.8531L64.0005 43.3732L69.9105 46.7831ZM63.7106 43.2031L57.6405 46.6931L51.6405 43.2432L57.7206 39.7432L63.7106 43.2031ZM51.5505 36.2031L57.4305 39.6031L51.3506 43.1031L45.4406 39.7031L51.5505 36.2031ZM45.1505 39.8732L51.0605 43.2632L45.1505 46.6731L39.2305 43.2731L45.1505 39.8732ZM38.9406 43.4431L44.8605 46.8431L38.8605 50.2731L32.9305 46.8632L38.9406 43.4431ZM32.6906 47.0331L38.6105 50.4431L32.6906 53.8431L26.7605 50.4331L32.6906 47.0331ZM26.4706 50.6031L32.4105 54.0132L26.4105 57.4431L20.4105 54.0331L26.4706 50.6031ZM20.2206 54.1931L26.1605 57.6132L20.2106 61.0431L14.2106 57.6232L20.2206 54.1931Z" fill="white"/>
<g filter="url(#filter0_b_815_24864)">
<path fill-rule="evenodd" clip-rule="evenodd" d="M94.7379 51.1239C94.7379 74.9239 75.4479 94.2139 51.6479 94.2139C27.8479 94.2139 8.55787 74.9239 8.55787 51.1239C8.55787 27.3239 27.8479 8.03395 51.6479 8.03395C75.4479 8.03395 94.7379 27.3239 94.7379 51.1239ZM51.6479 4.29395C77.5079 4.29395 98.4779 25.2639 98.4779 51.1239C98.4779 76.9839 77.5079 97.954 51.6479 97.954C25.7879 97.954 4.81787 76.9839 4.81787 51.1239C4.81787 25.2639 25.7779 4.29395 51.6479 4.29395Z" fill="url(#paint2_linear_815_24864)"/>
</g>
<g filter="url(#filter1_d_815_24864)">
<path d="M76.7198 66.117V37.7571L52.1489 23.5771L27.5923 37.7571V66.117L52.1489 80.297L76.7198 66.117Z" fill="white"/>
</g>
<path d="M76.99 35.9355V66.0883L51.0557 81.279V51.1262L76.99 35.9355Z" fill="#C12664"/>
<path d="M76.99 35.936L50.9725 51.1474L24.9551 35.936L50.9725 20.8076L76.99 35.936Z" fill="#FE90BE"/>
<path opacity="0.15" d="M76.99 69.1235L50.9725 84.3349L24.9551 69.1235L50.9725 53.9951L76.99 69.1235Z" fill="#1F1D20"/>
<path d="M51.0555 51.1262V81.279L25.0381 66.0676V35.9355L51.0555 51.1262Z" fill="#F173A7"/>
<path d="M25.0381 65.9859L51.0555 50.9614V81.1142L25.0381 65.9859Z" fill="#E86299"/>
<path d="M76.9901 65.9859L50.9727 50.9614V81.1142L76.9901 65.9859Z" fill="#CF3071"/>
<path opacity="0.15" d="M75.2877 74.9323C79.2866 74.9323 82.5358 71.6931 82.5358 67.6842C82.5258 63.6852 79.2766 60.4561 75.2877 60.4561C71.2987 60.4561 68.0396 63.6952 68.0396 67.7042C68.0396 71.7031 71.2787 74.9323 75.2877 74.9323Z" fill="#1F1D20"/>
<path d="M75.2877 73.9928C79.2866 73.9928 82.5358 70.7537 82.5358 66.7447C82.5258 62.7458 79.2766 59.5166 75.2877 59.5166C71.2987 59.5166 68.0396 62.7558 68.0396 66.7647C68.0396 70.7637 71.2787 73.9928 75.2877 73.9928Z" fill="#1A2C45"/>
<path d="M75.8572 62.5051H74.6675V70.9829H75.8572V62.5051Z" fill="white"/>
<path d="M79.4966 66.2151H71.0288V67.4048H79.5066L79.4966 66.2151Z" fill="white"/>
<path d="M41.0932 49.779L41.0872 52.4405L27.5742 44.6372L27.5803 41.9788L41.0932 49.779Z" fill="#FE90BE"/>
<path d="M35.2687 51.6901L35.2627 54.3516L27.5742 49.9107L27.5833 47.2522L35.2687 51.6901Z" fill="#FE90BE"/>
<defs>
<filter id="filter0_b_815_24864" x="0.817871" y="0.293945" width="101.66" height="101.66" filterUnits="userSpaceOnUse" color-interpolation-filters="sRGB">
<feFlood flood-opacity="0" result="BackgroundImageFix"/>
<feGaussianBlur in="BackgroundImage" stdDeviation="2"/>
<feComposite in2="SourceAlpha" operator="in" result="effect1_backgroundBlur_815_24864"/>
<feBlend mode="normal" in="SourceGraphic" in2="effect1_backgroundBlur_815_24864" result="shape"/>
</filter>
<filter id="filter1_d_815_24864" x="23.5923" y="23.5771" width="57.1274" height="64.7197" filterUnits="userSpaceOnUse" color-interpolation-filters="sRGB">
<feFlood flood-opacity="0" result="BackgroundImageFix"/>
<feColorMatrix in="SourceAlpha" type="matrix" values="0 0 0 0 0 0 0 0 0 0 0 0 0 0 0 0 0 0 127 0" result="hardAlpha"/>
<feOffset dy="4"/>
<feGaussianBlur stdDeviation="2"/>
<feComposite in2="hardAlpha" operator="out"/>
<feColorMatrix type="matrix" values="0 0 0 0 0 0 0 0 0 0 0 0 0 0 0 0 0 0 0.25 0"/>
<feBlend mode="normal" in2="BackgroundImageFix" result="effect1_dropShadow_815_24864"/>
<feBlend mode="normal" in="SourceGraphic" in2="effect1_dropShadow_815_24864" result="shape"/>
</filter>
<linearGradient id="paint0_linear_815_24864" x1="51.6479" y1="-7.93848" x2="51.6479" y2="97.9335" gradientUnits="userSpaceOnUse">
<stop offset="0.203125" stop-color="white"/>
<stop offset="0.630208" stop-color="#F4F3F5"/>
<stop offset="1" stop-color="#E8E6DF"/>
</linearGradient>
<linearGradient id="paint1_linear_815_24864" x1="55.1245" y1="100.062" x2="56.8745" y2="-43.4385" gradientUnits="userSpaceOnUse">
<stop offset="0.203125" stop-color="white"/>
<stop offset="0.630208" stop-color="#F4F3F5"/>
<stop offset="1" stop-color="#E8E6DF"/>
</linearGradient>
<linearGradient id="paint2_linear_815_24864" x1="37.3745" y1="-55.4385" x2="48.3745" y2="126.062" gradientUnits="userSpaceOnUse">
<stop stop-color="#FE90BE"/>
<stop offset="0.255208" stop-color="#D68DC2"/>
<stop offset="0.609375" stop-color="#007ED8"/>
<stop offset="0.931465" stop-color="#002D4C"/>
</linearGradient>
</defs>
</svg>
