<svg width="103" height="103" viewBox="0 0 103 103" fill="none" xmlns="http://www.w3.org/2000/svg">
<path d="M51.8925 98.6403C26.0425 98.6403 5.08252 77.6903 5.08252 51.8303C5.08252 25.9703 26.0425 5.02026 51.8925 5.02026C77.7425 5.02026 98.7025 25.9803 98.7025 51.8303C98.7025 77.6803 77.7425 98.6403 51.8925 98.6403Z" fill="url(#paint0_linear_1055_269)"/>
<path fill-rule="evenodd" clip-rule="evenodd" d="M97.7924 51.8304C97.7924 77.1804 77.2424 97.7304 51.8924 97.7304C26.5424 97.7304 5.99244 77.1804 5.99244 51.8304C5.99244 26.4804 26.5424 5.93044 51.8924 5.93044C77.2424 5.93044 97.7924 26.4804 97.7924 51.8304ZM51.8924 2.19043C79.3124 2.19043 101.532 24.4104 101.532 51.8304C101.532 79.2504 79.3024 101.47 51.8924 101.47C24.4724 101.47 2.25244 79.2404 2.25244 51.8304C2.25244 24.4104 24.4724 2.19043 51.8924 2.19043Z" fill="#F2F1F0"/>
<path fill-rule="evenodd" clip-rule="evenodd" d="M94.9825 51.8302C94.9825 75.6302 75.6925 94.9202 51.8925 94.9202C28.0925 94.9202 8.8025 75.6302 8.8025 51.8302C8.8025 28.0302 28.0925 8.74025 51.8925 8.74025C75.6925 8.74025 94.9825 28.0302 94.9825 51.8302ZM51.8925 5.00024C77.7525 5.00024 98.7225 25.9702 98.7225 51.8302C98.7225 77.6902 77.7525 98.6603 51.8925 98.6603C26.0325 98.6603 5.0625 77.6902 5.0625 51.8302C5.0625 25.9702 26.0225 5.00024 51.8925 5.00024Z" fill="url(#paint1_linear_1055_269)"/>
<path opacity="0.15" d="M85.4139 33.9297H18.3706V73.2108C18.3706 74.4317 19.3792 75.3341 20.4939 75.3341H83.1845C84.4054 75.3341 85.3078 74.3256 85.3078 73.2108L85.4139 33.9297Z" fill="#1F1D20"/>
<g filter="url(#filter0_d_1055_269)">
<path d="M85.4139 32.7483H18.3706V72.0294C18.3706 73.2503 19.3792 74.1527 20.4939 74.1527H83.1845C84.4054 74.1527 85.3078 73.1442 85.3078 72.0294L85.4139 32.7483Z" fill="url(#paint2_linear_1055_269)"/>
</g>
<path d="M83.1319 26.9087H20.6537C19.4328 26.9087 18.3712 27.9173 18.3712 29.1912L18.3711 33.2378H85.4144L85.4145 29.1912C85.4145 27.9173 84.4059 26.9087 83.1319 26.9087Z" fill="#50E6FF"/>
<path opacity="0.15" d="M81.627 39.3623H52.3086V72.5139H81.627V39.3623Z" fill="#1F1D20"/>
<path d="M81.627 37.6011H52.3086V70.7526H81.627V37.6011Z" fill="#F2F1F0"/>
<path d="M79.3064 40.543H54.6499V65.1684H79.3064V40.543V40.543Z" fill="url(#paint3_linear_1055_269)"/>
<path d="M80.0112 76.0661C84.3106 76.0661 87.7915 72.5749 87.7915 68.2859C87.7915 63.9865 84.3002 60.5056 80.0112 60.5056C75.7119 60.5056 72.231 63.9969 72.231 68.2859C72.231 72.5852 75.7222 76.0661 80.0112 76.0661Z" fill="#002D4C"/>
<path opacity="0.15" d="M80.0112 77.1264C84.3106 77.1264 87.7915 73.6352 87.7915 69.3462C87.7915 65.0468 84.3002 61.5659 80.0112 61.5659C75.7119 61.5659 72.231 65.0572 72.231 69.3462C72.231 73.6455 75.7222 77.1264 80.0112 77.1264Z" fill="#1F1D20"/>
<path d="M84.2482 64.3289L77.8355 70.7727L75.9189 68.8458L74.6343 70.1407L77.8355 73.3523L85.5432 65.6238L84.2482 64.3289Z" fill="#FAF9F8"/>
<g filter="url(#filter1_d_1055_269)">
<path d="M73.5983 50.9392H68.895V46.2358H65.0617V50.9392H60.3584V54.7724H65.0617V59.4758H68.895V54.7724H73.5983V50.9392Z" fill="#50E6FF"/>
</g>
<path fill-rule="evenodd" clip-rule="evenodd" d="M33.6489 59.0184H37.0082V42.4009H33.6489V59.0184Z" fill="white"/>
<path fill-rule="evenodd" clip-rule="evenodd" d="M37.6892 60.7827L35.3139 62.769L27.5288 56.259L29.9041 54.2725L37.6892 60.7827Z" fill="white"/>
<path fill-rule="evenodd" clip-rule="evenodd" d="M35.3138 62.7687L32.9385 60.7824L40.7538 54.2466L43.1291 56.2331L35.3138 62.7687Z" fill="white"/>
<path d="M24.8863 67.0649L24.8863 62.9749C24.8863 62.5792 25.1972 62.2683 25.5929 62.2683C25.9886 62.2683 26.2996 62.5792 26.2996 62.9749L26.2996 66.3865L44.9037 66.3865L44.9037 62.9749C44.9037 62.5792 45.2146 62.2683 45.6103 62.2683C46.006 62.2683 46.3169 62.5792 46.3169 62.9749L46.3169 67.0931C46.3169 67.4888 46.006 67.7998 45.6103 67.7998L25.5929 67.7998C25.2255 67.7715 24.8863 67.4606 24.8863 67.0649Z" fill="white"/>
<path d="M22.6009 31.7948C23.5001 31.7948 24.2359 31.0692 24.2359 30.1597C24.2359 29.2502 23.4899 28.5349 22.6009 28.5349C21.7016 28.5349 20.9658 29.2605 20.9658 30.17C20.9658 31.0795 21.6812 31.7948 22.6009 31.7948Z" fill="#019EDD"/>
<defs>
<filter id="filter0_d_1055_269" x="14.3706" y="30.7483" width="75.0435" height="49.4045" filterUnits="userSpaceOnUse" color-interpolation-filters="sRGB">
<feFlood flood-opacity="0" result="BackgroundImageFix"/>
<feColorMatrix in="SourceAlpha" type="matrix" values="0 0 0 0 0 0 0 0 0 0 0 0 0 0 0 0 0 0 127 0" result="hardAlpha"/>
<feOffset dy="2"/>
<feGaussianBlur stdDeviation="2"/>
<feComposite in2="hardAlpha" operator="out"/>
<feColorMatrix type="matrix" values="0 0 0 0 0 0 0 0 0 0 0 0 0 0 0 0 0 0 0.25 0"/>
<feBlend mode="normal" in2="BackgroundImageFix" result="effect1_dropShadow_1055_269"/>
<feBlend mode="normal" in="SourceGraphic" in2="effect1_dropShadow_1055_269" result="shape"/>
</filter>
<filter id="filter1_d_1055_269" x="56.3584" y="43.2358" width="21.2397" height="21.24" filterUnits="userSpaceOnUse" color-interpolation-filters="sRGB">
<feFlood flood-opacity="0" result="BackgroundImageFix"/>
<feColorMatrix in="SourceAlpha" type="matrix" values="0 0 0 0 0 0 0 0 0 0 0 0 0 0 0 0 0 0 127 0" result="hardAlpha"/>
<feOffset dy="1"/>
<feGaussianBlur stdDeviation="2"/>
<feComposite in2="hardAlpha" operator="out"/>
<feColorMatrix type="matrix" values="0 0 0 0 0 0 0 0 0 0 0 0 0 0 0 0 0 0 0.25 0"/>
<feBlend mode="normal" in2="BackgroundImageFix" result="effect1_dropShadow_1055_269"/>
<feBlend mode="normal" in="SourceGraphic" in2="effect1_dropShadow_1055_269" result="shape"/>
</filter>
<linearGradient id="paint0_linear_1055_269" x1="50.1186" y1="-12.9592" x2="54.1006" y2="132.811" gradientUnits="userSpaceOnUse">
<stop stop-color="#00ABDE"/>
<stop offset="1" stop-color="#007ED8"/>
</linearGradient>
<linearGradient id="paint1_linear_1055_269" x1="3.3229" y1="-19.7924" x2="98.8504" y2="121.089" gradientUnits="userSpaceOnUse">
<stop stop-color="#007ED8"/>
<stop offset="0.7065" stop-color="#002D4C"/>
</linearGradient>
<linearGradient id="paint2_linear_1055_269" x1="44.1854" y1="7.09275" x2="54.6576" y2="101.053" gradientUnits="userSpaceOnUse">
<stop stop-color="#007ED8"/>
<stop offset="0.7065" stop-color="#002D4C"/>
</linearGradient>
<linearGradient id="paint3_linear_1055_269" x1="63.3503" y1="38.9347" x2="72.9837" y2="80.0997" gradientUnits="userSpaceOnUse">
<stop stop-color="#007ED8"/>
<stop offset="0.7065" stop-color="#002D4C"/>
</linearGradient>
</defs>
</svg>
