<svg width="103" height="103" viewBox="0 0 103 103" fill="none" xmlns="http://www.w3.org/2000/svg">
<path d="M51.8925 98.726C26.0425 98.726 5.08252 77.776 5.08252 51.916C5.08252 26.056 26.0425 5.10596 51.8925 5.10596C77.7425 5.10596 98.7025 26.066 98.7025 51.916C98.7025 77.766 77.7425 98.726 51.8925 98.726Z" fill="url(#paint0_linear_1058_287)"/>
<path fill-rule="evenodd" clip-rule="evenodd" d="M97.7924 51.9161C97.7924 77.2661 77.2424 97.8161 51.8924 97.8161C26.5424 97.8161 5.99244 77.2661 5.99244 51.9161C5.99244 26.5661 26.5424 6.01613 51.8924 6.01613C77.2424 6.01613 97.7924 26.5661 97.7924 51.9161ZM51.8924 2.27612C79.3124 2.27612 101.532 24.4961 101.532 51.9161C101.532 79.3361 79.3024 101.556 51.8924 101.556C24.4724 101.556 2.25244 79.3261 2.25244 51.9161C2.25244 24.4961 24.4724 2.27612 51.8924 2.27612Z" fill="#F2F1F0"/>
<path fill-rule="evenodd" clip-rule="evenodd" d="M94.9825 51.9159C94.9825 75.7159 75.6925 95.0059 51.8925 95.0059C28.0925 95.0059 8.8025 75.7159 8.8025 51.9159C8.8025 28.1159 28.0925 8.82594 51.8925 8.82594C75.6925 8.82594 94.9825 28.1159 94.9825 51.9159ZM51.8925 5.08594C77.7525 5.08594 98.7225 26.0559 98.7225 51.9159C98.7225 77.7759 77.7525 98.746 51.8925 98.746C26.0325 98.746 5.0625 77.7759 5.0625 51.9159C5.0625 26.0559 26.0225 5.08594 51.8925 5.08594Z" fill="url(#paint1_linear_1058_287)"/>
<path d="M49.1265 66.688H57.6716V37.6265H49.1265" stroke="white" stroke-width="0.8" stroke-miterlimit="10" stroke-linejoin="round"/>
<path d="M57.6689 51.4697L61.4687 51.4697" stroke="white" stroke-width="1.2" stroke-miterlimit="10" stroke-linejoin="round"/>
<path d="M21.8091 38.8455L27.1064 38.8455" stroke="white" stroke-width="0.8" stroke-miterlimit="10" stroke-linejoin="round"/>
<path d="M21.8091 45.5464L27.1064 45.5464" stroke="white" stroke-width="0.8" stroke-miterlimit="10" stroke-linejoin="round"/>
<path d="M21.8091 60.7991L27.1064 60.7991" stroke="white" stroke-width="0.8" stroke-miterlimit="10" stroke-linejoin="round"/>
<path d="M21.8091 67.2104L27.1064 67.2104" stroke="white" stroke-width="0.8" stroke-miterlimit="10" stroke-linejoin="round"/>
<path opacity="0.2" d="M15.1179 48.6897H21.7179C22.1179 48.6897 22.4479 48.3697 22.4479 47.9597V43.9197C22.4479 43.5197 22.1279 43.1897 21.7179 43.1897H15.1079C14.7079 43.1797 14.3779 43.5097 14.3779 43.9197V47.9597C14.3979 48.3597 14.7179 48.6897 15.1179 48.6897Z" fill="#1F1D21"/>
<path opacity="0.2" d="M15.1179 41.9697H21.7179C22.1179 41.9697 22.4479 41.6497 22.4479 41.2397V37.1997C22.4479 36.7997 22.1279 36.4697 21.7179 36.4697H15.1079C14.7079 36.4597 14.3779 36.7897 14.3779 37.1997V41.2397C14.3979 41.6397 14.7179 41.9697 15.1179 41.9697Z" fill="#1F1D21"/>
<path opacity="0.2" d="M15.1179 70.4497H21.7179C22.1179 70.4497 22.4479 70.1297 22.4479 69.7197V65.6697C22.4479 65.2697 22.1279 64.9397 21.7179 64.9397H15.1079C14.7079 64.9297 14.3779 65.2597 14.3779 65.6697V69.7097C14.3979 70.1197 14.7179 70.4497 15.1179 70.4497Z" fill="#1F1D21"/>
<path opacity="0.2" d="M15.1179 63.7297H21.7179C22.1179 63.7297 22.4479 63.4097 22.4479 62.9997V58.9597C22.4479 58.5597 22.1279 58.2297 21.7179 58.2297H15.1079C14.7079 58.2197 14.3779 58.5497 14.3779 58.9597V62.9997C14.3979 63.3997 14.7179 63.7297 15.1179 63.7297Z" fill="#1F1D21"/>
<path d="M15.1179 48.2881H21.7179C22.1179 48.2881 22.4479 47.9681 22.4479 47.5581V43.5181C22.4479 43.1181 22.1279 42.7881 21.7179 42.7881H15.1079C14.7079 42.7781 14.3779 43.1081 14.3779 43.5181V47.5581C14.3979 47.9581 14.7179 48.2881 15.1179 48.2881Z" fill="#5EE8FF"/>
<path d="M15.1179 41.5681H21.7179C22.1179 41.5681 22.4479 41.2481 22.4479 40.8381V36.7981C22.4479 36.3981 22.1279 36.0681 21.7179 36.0681H15.1079C14.7079 36.0581 14.3779 36.3881 14.3779 36.7981V40.8381C14.3979 41.2381 14.7179 41.5681 15.1179 41.5681Z" fill="#9FF1FD"/>
<path d="M15.1179 70.0481H21.7179C22.1179 70.0481 22.4479 69.7281 22.4479 69.3181V65.2681C22.4479 64.8681 22.1279 64.5381 21.7179 64.5381H15.1079C14.7079 64.5281 14.3779 64.8581 14.3779 65.2681V69.3081C14.3979 69.7181 14.7179 70.0481 15.1179 70.0481Z" fill="url(#paint2_linear_1058_287)"/>
<path d="M15.1179 63.3281H21.7179C22.1179 63.3281 22.4479 63.0081 22.4479 62.5981V58.5581C22.4479 58.1581 22.1279 57.8281 21.7179 57.8281H15.1079C14.7079 57.8181 14.3779 58.1481 14.3779 58.5581V62.5981C14.3979 62.9981 14.7179 63.3281 15.1179 63.3281Z" fill="#016DB9"/>
<path d="M57.258 66.8844H49.708V66.5353H57.008V38.0511H49.708V37.7019H57.258C57.398 37.7019 57.508 37.7787 57.508 37.8765V66.7098C57.508 66.8006 57.388 66.8844 57.258 66.8844Z" fill="white"/>
<path d="M60.9419 49.7332L63.8019 51.3832L60.9419 53.0332V49.7332Z" fill="white"/>
<path opacity="0.2" d="M33.9681 50.578H50.5181C51.2581 50.578 51.8581 49.978 51.8581 49.238V24.938H25.5781V49.238C25.5781 49.978 26.1781 50.578 26.9181 50.578H29.7781H33.9681Z" fill="#1F1D21"/>
<g filter="url(#filter0_d_1058_287)">
<path d="M50.9584 49.298C51.4584 49.298 51.8684 48.888 51.8684 48.388V24.568C51.8684 24.068 51.4584 23.658 50.9584 23.658H26.4984C25.9984 23.658 25.5884 24.068 25.5884 24.568V48.388C25.5884 48.888 25.9984 49.298 26.4984 49.298H50.9584Z" fill="#F2F2F2"/>
<path d="M51.8684 24.118C51.8684 23.618 51.4584 23.208 50.9584 23.208H26.4984C25.9984 23.208 25.5884 23.618 25.5884 24.118V24.988H51.8784V24.118H51.8684Z" fill="#F2F2F2"/>
</g>
<path opacity="0.2" d="M72.7381 65.2381H89.2881C90.0281 65.2381 90.6281 64.6381 90.6281 63.8981V39.5981H64.3481V63.8981C64.3481 64.6381 64.9481 65.2381 65.6881 65.2381H68.5481H72.7381Z" fill="#1F1D21"/>
<path d="M72.7381 63.9581H89.7281C90.2281 63.9581 90.6381 63.5481 90.6381 63.0481V39.2181C90.6381 38.7181 90.2281 38.3081 89.7281 38.3081H65.2581C64.7581 38.3081 64.3481 38.7181 64.3481 39.2181V63.0381C64.3481 63.5381 64.7581 63.9481 65.2581 63.9481H68.5481H72.7381V63.9581Z" fill="url(#paint3_linear_1058_287)"/>
<path d="M90.6281 38.7682C90.6281 38.2682 90.2181 37.8582 89.7181 37.8582H65.2581C64.7581 37.8582 64.3481 38.2682 64.3481 38.7682V39.6382H90.6381V38.7682H90.6281Z" fill="#1A2C45"/>
<path opacity="0.2" d="M33.9681 81.348H50.5181C51.2581 81.348 51.8581 80.748 51.8581 80.008V55.708H25.5781V80.008C25.5781 80.748 26.1781 81.348 26.9181 81.348H29.7781H33.9681Z" fill="#1F1D21"/>
<g filter="url(#filter1_d_1058_287)">
<path d="M50.9584 80.0683C51.4584 80.0683 51.8684 79.6583 51.8684 79.1583V55.3383C51.8684 54.8383 51.4584 54.4283 50.9584 54.4283H26.4984C25.9984 54.4283 25.5884 54.8383 25.5884 55.3383V79.1583C25.5884 79.6583 25.9984 80.0683 26.4984 80.0683H50.9584Z" fill="#F2F2F2"/>
<path d="M51.8684 54.8783C51.8684 54.3783 51.4584 53.9683 50.9584 53.9683H26.4984C25.9984 53.9683 25.5884 54.3783 25.5884 54.8783V55.7483H51.8784V54.8783H51.8684Z" fill="#F2F2F2"/>
</g>
<path opacity="0.15" d="M76.8679 53.6983C76.8679 53.3483 76.5879 53.0583 76.2279 53.0583C75.8679 53.0583 75.5879 53.3383 75.5879 53.6983C75.5879 54.0483 75.8679 54.3383 76.2279 54.3383C76.5879 54.3383 76.8679 54.0583 76.8679 53.6983Z" fill="#1F1D20"/>
<path opacity="0.15" d="M79.758 53.6983C79.758 53.3483 79.478 53.0583 79.118 53.0583C78.758 53.0583 78.478 53.3383 78.478 53.6983C78.478 54.0483 78.758 54.3383 79.118 54.3383C79.468 54.3383 79.758 54.0583 79.758 53.6983Z" fill="#1F1D20"/>
<path opacity="0.15" d="M71.1081 53.6983C71.1081 53.3483 70.8281 53.0583 70.4681 53.0583C70.1081 53.0583 69.8281 53.3483 69.8281 53.6983C69.8281 54.0483 70.1081 54.3383 70.4681 54.3383C70.8281 54.3383 71.1081 54.0583 71.1081 53.6983Z" fill="#1F1D20"/>
<path opacity="0.15" d="M73.988 53.6983C73.988 53.3483 73.708 53.0583 73.348 53.0583C72.988 53.0583 72.708 53.3383 72.708 53.6983C72.708 54.0483 72.988 54.3383 73.348 54.3383C73.708 54.3383 73.988 54.0583 73.988 53.6983Z" fill="#1F1D20"/>
<path opacity="0.15" d="M82.6379 53.6983C82.6379 53.3483 82.3579 53.0583 81.9979 53.0583C81.6379 53.0583 81.3579 53.3383 81.3579 53.6983C81.3579 54.0483 81.6379 54.3383 81.9979 54.3383C82.3479 54.3383 82.6379 54.0583 82.6379 53.6983Z" fill="#1F1D20"/>
<path opacity="0.15" d="M84.248 53.6983C84.248 54.0483 84.528 54.3383 84.888 54.3383C85.248 54.3383 85.528 54.0583 85.528 53.6983C85.528 53.3483 85.248 53.0583 84.888 53.0583C84.528 53.0683 84.248 53.3483 84.248 53.6983Z" fill="#1F1D20"/>
<path opacity="0.15" d="M76.8679 50.7882C76.8679 50.4382 76.5879 50.1482 76.2279 50.1482C75.8679 50.1482 75.5879 50.4282 75.5879 50.7882C75.5879 51.1482 75.8679 51.4282 76.2279 51.4282C76.5879 51.4282 76.8679 51.1382 76.8679 50.7882Z" fill="#1F1D20"/>
<path opacity="0.15" d="M79.758 50.7882C79.758 50.4382 79.478 50.1482 79.118 50.1482C78.758 50.1482 78.478 50.4282 78.478 50.7882C78.478 51.1482 78.758 51.4282 79.118 51.4282C79.468 51.4282 79.758 51.1382 79.758 50.7882Z" fill="#1F1D20"/>
<path opacity="0.15" d="M71.1081 50.7882C71.1081 50.4382 70.8281 50.1482 70.4681 50.1482C70.1081 50.1482 69.8281 50.4282 69.8281 50.7882C69.8281 51.1482 70.1081 51.4282 70.4681 51.4282C70.8281 51.4282 71.1081 51.1382 71.1081 50.7882Z" fill="#1F1D20"/>
<path opacity="0.15" d="M73.988 50.7882C73.988 50.4382 73.708 50.1482 73.348 50.1482C72.988 50.1482 72.708 50.4282 72.708 50.7882C72.708 51.1482 72.988 51.4282 73.348 51.4282C73.708 51.4282 73.988 51.1382 73.988 50.7882Z" fill="#1F1D20"/>
<path opacity="0.15" d="M82.6379 50.7882C82.6379 50.4382 82.3579 50.1482 81.9979 50.1482C81.6379 50.1482 81.3579 50.4282 81.3579 50.7882C81.3579 51.1482 81.6379 51.4282 81.9979 51.4282C82.3479 51.4282 82.6379 51.1382 82.6379 50.7882Z" fill="#1F1D20"/>
<path opacity="0.15" d="M85.5183 50.7882C85.5183 50.4382 85.2383 50.1482 84.8783 50.1482C84.5183 50.1482 84.2383 50.4282 84.2383 50.7882C84.2383 51.1482 84.5183 51.4282 84.8783 51.4282C85.2283 51.4282 85.5183 51.1382 85.5183 50.7882Z" fill="#1F1D20"/>
<path opacity="0.15" d="M76.8679 47.8783C76.8679 47.5283 76.5879 47.2383 76.2279 47.2383C75.8679 47.2383 75.5879 47.5183 75.5879 47.8783C75.5879 48.2383 75.8679 48.5183 76.2279 48.5183C76.5879 48.5183 76.8679 48.2283 76.8679 47.8783Z" fill="#1F1D20"/>
<path opacity="0.15" d="M79.118 48.5183C79.468 48.5183 79.758 48.2383 79.758 47.8783C79.758 47.5283 79.478 47.2383 79.118 47.2383C78.758 47.2383 78.478 47.5183 78.478 47.8783C78.478 48.2383 78.768 48.5183 79.118 48.5183Z" fill="#1F1D20"/>
<path opacity="0.15" d="M71.1081 47.8783C71.1081 47.5283 70.8281 47.2383 70.4681 47.2383C70.1081 47.2383 69.8281 47.5183 69.8281 47.8783C69.8281 48.2383 70.1081 48.5183 70.4681 48.5183C70.8281 48.5183 71.1081 48.2283 71.1081 47.8783Z" fill="#1F1D20"/>
<path opacity="0.15" d="M73.348 48.5183C73.698 48.5183 73.988 48.2383 73.988 47.8783C73.988 47.5283 73.708 47.2383 73.348 47.2383C72.998 47.2383 72.708 47.5183 72.708 47.8783C72.708 48.2383 72.998 48.5183 73.348 48.5183Z" fill="#1F1D20"/>
<path opacity="0.15" d="M82.6379 47.8783C82.6379 47.5283 82.3579 47.2383 81.9979 47.2383C81.6379 47.2383 81.3579 47.5183 81.3579 47.8783C81.3579 48.2383 81.6379 48.5183 81.9979 48.5183C82.3479 48.5183 82.6379 48.2283 82.6379 47.8783Z" fill="#1F1D20"/>
<path opacity="0.15" d="M84.8783 48.5183C85.2283 48.5183 85.5183 48.2383 85.5183 47.8783C85.5183 47.5283 85.2383 47.2383 84.8783 47.2383C84.5283 47.2383 84.2383 47.5183 84.2383 47.8783C84.2483 48.2383 84.5283 48.5183 84.8783 48.5183Z" fill="#1F1D20"/>
<path d="M76.8679 53.3783C76.8679 53.0283 76.5879 52.7383 76.2279 52.7383C75.8679 52.7383 75.5879 53.0183 75.5879 53.3783C75.5879 53.7283 75.8679 54.0183 76.2279 54.0183C76.5879 54.0183 76.8679 53.7283 76.8679 53.3783Z" fill="url(#paint4_linear_1058_287)"/>
<path d="M79.758 53.3783C79.758 53.0283 79.478 52.7383 79.118 52.7383C78.758 52.7383 78.478 53.0183 78.478 53.3783C78.478 53.7283 78.758 54.0183 79.118 54.0183C79.468 54.0183 79.758 53.7283 79.758 53.3783Z" fill="url(#paint5_linear_1058_287)"/>
<path d="M71.1081 53.3783C71.1081 53.0283 70.8281 52.7383 70.4681 52.7383C70.1081 52.7383 69.8281 53.0283 69.8281 53.3783C69.8281 53.7283 70.1081 54.0183 70.4681 54.0183C70.8281 54.0183 71.1081 53.7283 71.1081 53.3783Z" fill="url(#paint6_linear_1058_287)"/>
<path d="M73.988 53.3783C73.988 53.0283 73.708 52.7383 73.348 52.7383C72.988 52.7383 72.708 53.0183 72.708 53.3783C72.708 53.7283 72.988 54.0183 73.348 54.0183C73.708 54.0183 73.988 53.7283 73.988 53.3783Z" fill="url(#paint7_linear_1058_287)"/>
<path d="M82.6379 53.3783C82.6379 53.0283 82.3579 52.7383 81.9979 52.7383C81.6379 52.7383 81.3579 53.0183 81.3579 53.3783C81.3579 53.7283 81.6379 54.0183 81.9979 54.0183C82.3479 54.0183 82.6379 53.7283 82.6379 53.3783Z" fill="url(#paint8_linear_1058_287)"/>
<path d="M84.248 53.3783C84.248 53.7283 84.528 54.0183 84.888 54.0183C85.248 54.0183 85.528 53.7383 85.528 53.3783C85.528 53.0283 85.248 52.7383 84.888 52.7383C84.528 52.7383 84.248 53.0283 84.248 53.3783Z" fill="url(#paint9_linear_1058_287)"/>
<path d="M76.8679 50.4681C76.8679 50.1181 76.5879 49.8281 76.2279 49.8281C75.8679 49.8281 75.5879 50.1081 75.5879 50.4681C75.5879 50.8281 75.8679 51.1081 76.2279 51.1081C76.5879 51.1081 76.8679 50.8181 76.8679 50.4681Z" fill="url(#paint10_linear_1058_287)"/>
<path d="M79.758 50.4681C79.758 50.1181 79.478 49.8281 79.118 49.8281C78.758 49.8281 78.478 50.1081 78.478 50.4681C78.478 50.8281 78.758 51.1081 79.118 51.1081C79.468 51.1081 79.758 50.8181 79.758 50.4681Z" fill="url(#paint11_linear_1058_287)"/>
<path d="M71.1081 50.4681C71.1081 50.1181 70.8281 49.8281 70.4681 49.8281C70.1081 49.8281 69.8281 50.1081 69.8281 50.4681C69.8281 50.8281 70.1081 51.1081 70.4681 51.1081C70.8281 51.1081 71.1081 50.8181 71.1081 50.4681Z" fill="url(#paint12_linear_1058_287)"/>
<path d="M73.988 50.4681C73.988 50.1181 73.708 49.8281 73.348 49.8281C72.988 49.8281 72.708 50.1081 72.708 50.4681C72.708 50.8281 72.988 51.1081 73.348 51.1081C73.708 51.1081 73.988 50.8181 73.988 50.4681Z" fill="url(#paint13_linear_1058_287)"/>
<path d="M82.6379 50.4681C82.6379 50.1181 82.3579 49.8281 81.9979 49.8281C81.6379 49.8281 81.3579 50.1081 81.3579 50.4681C81.3579 50.8281 81.6379 51.1081 81.9979 51.1081C82.3479 51.1081 82.6379 50.8181 82.6379 50.4681Z" fill="url(#paint14_linear_1058_287)"/>
<path d="M85.5183 50.4681C85.5183 50.1181 85.2383 49.8281 84.8783 49.8281C84.5183 49.8281 84.2383 50.1081 84.2383 50.4681C84.2383 50.8281 84.5183 51.1081 84.8783 51.1081C85.2283 51.1081 85.5183 50.8181 85.5183 50.4681Z" fill="url(#paint15_linear_1058_287)"/>
<path d="M76.8679 47.5582C76.8679 47.2082 76.5879 46.9182 76.2279 46.9182C75.8679 46.9182 75.5879 47.1982 75.5879 47.5582C75.5879 47.9182 75.8679 48.1982 76.2279 48.1982C76.5879 48.1982 76.8679 47.9082 76.8679 47.5582Z" fill="url(#paint16_linear_1058_287)"/>
<path d="M79.118 48.1982C79.468 48.1982 79.758 47.9182 79.758 47.5582C79.758 47.2082 79.478 46.9182 79.118 46.9182C78.758 46.9182 78.478 47.1982 78.478 47.5582C78.478 47.9082 78.768 48.1982 79.118 48.1982Z" fill="url(#paint17_linear_1058_287)"/>
<path d="M71.1081 47.5582C71.1081 47.2082 70.8281 46.9182 70.4681 46.9182C70.1081 46.9182 69.8281 47.1982 69.8281 47.5582C69.8281 47.9182 70.1081 48.1982 70.4681 48.1982C70.8281 48.1982 71.1081 47.9082 71.1081 47.5582Z" fill="url(#paint18_linear_1058_287)"/>
<path d="M73.348 48.1982C73.698 48.1982 73.988 47.9182 73.988 47.5582C73.988 47.2082 73.708 46.9182 73.348 46.9182C72.998 46.9182 72.708 47.1982 72.708 47.5582C72.708 47.9182 72.998 48.1982 73.348 48.1982Z" fill="url(#paint19_linear_1058_287)"/>
<path d="M82.6379 47.5582C82.6379 47.2082 82.3579 46.9182 81.9979 46.9182C81.6379 46.9182 81.3579 47.1982 81.3579 47.5582C81.3579 47.9182 81.6379 48.1982 81.9979 48.1982C82.3479 48.1982 82.6379 47.9082 82.6379 47.5582Z" fill="url(#paint20_linear_1058_287)"/>
<path d="M84.8783 48.1982C85.2283 48.1982 85.5183 47.9182 85.5183 47.5582C85.5183 47.2082 85.2383 46.9182 84.8783 46.9182C84.5283 46.9182 84.2383 47.1982 84.2383 47.5582C84.2483 47.9082 84.5283 48.1982 84.8783 48.1982Z" fill="url(#paint21_linear_1058_287)"/>
<path d="M69.3379 56.8081H67.5879C67.4479 56.8081 67.3379 56.6981 67.3379 56.5581V44.7881C67.3379 44.6481 67.4479 44.5381 67.5879 44.5381H69.3379C69.4779 44.5381 69.5879 44.6481 69.5879 44.7881C69.5879 44.9281 69.4779 45.0381 69.3379 45.0381H67.8379V56.3081H69.3379C69.4779 56.3081 69.5879 56.4181 69.5879 56.5581C69.5879 56.6981 69.4779 56.8081 69.3379 56.8081Z" fill="white"/>
<path d="M86.2061 56.8081H87.9561C88.0961 56.8081 88.2061 56.6981 88.2061 56.5581V44.7881C88.2061 44.6481 88.0961 44.5381 87.9561 44.5381H86.2061C86.0661 44.5381 85.9561 44.6481 85.9561 44.7881C85.9561 44.9281 86.0661 45.0381 86.2061 45.0381H87.7061V56.3081H86.2061C86.0661 56.3081 85.9561 56.4181 85.9561 56.5581C85.9561 56.6981 86.0661 56.8081 86.2061 56.8081Z" fill="white"/>
<path d="M70.4678 53.3381L73.3478 50.4581L79.0678 50.5081L82.1378 47.5281L84.8278 50.4581" stroke="url(#paint22_linear_1058_287)" stroke-width="0.2" stroke-miterlimit="10"/>
<g opacity="0.15">
<g opacity="0.15">
<path opacity="0.15" d="M45.9587 73.9656C45.7387 73.9656 45.5287 73.8956 45.3387 73.7756C45.1587 73.6556 45.0087 73.4756 44.9287 73.2756C44.8487 73.0756 44.8187 72.8456 44.8687 72.6356C44.9087 72.4156 45.0187 72.2256 45.1687 72.0656C45.3287 71.9056 45.5187 71.8056 45.7387 71.7656C45.9587 71.7256 46.1787 71.7456 46.3787 71.8256C46.5787 71.9056 46.7587 72.0556 46.8787 72.2356C46.9987 72.4156 47.0687 72.6356 47.0687 72.8556C47.0687 73.1456 46.9487 73.4356 46.7387 73.6456C46.5387 73.8456 46.2587 73.9656 45.9587 73.9656Z" fill="#1F1D20"/>
<path opacity="0.15" d="M45.9586 63.9656C46.5686 63.9656 47.0686 63.4656 47.0686 62.8556C47.0686 62.2456 46.5686 61.7456 45.9586 61.7456C45.3486 61.7456 44.8486 62.2456 44.8486 62.8556C44.8486 63.4656 45.3486 63.9656 45.9586 63.9656Z" fill="#1F1D20"/>
<path opacity="0.15" d="M45.9586 67.2957C46.5686 67.2957 47.0686 66.7957 47.0686 66.1857C47.0686 65.5757 46.5686 65.0757 45.9586 65.0757C45.3486 65.0757 44.8486 65.5757 44.8486 66.1857C44.8486 66.7957 45.3486 67.2957 45.9586 67.2957Z" fill="#1F1D20"/>
<path opacity="0.15" d="M45.9586 70.6355C46.5686 70.6355 47.0686 70.1355 47.0686 69.5255C47.0686 68.9155 46.5686 68.4155 45.9586 68.4155C45.3486 68.4155 44.8486 68.9155 44.8486 69.5255C44.8486 70.1355 45.3486 70.6355 45.9586 70.6355Z" fill="#1F1D20"/>
</g>
<path opacity="0.15" d="M33.9785 63.0057H32.0785V61.1057H31.1285V63.0057H29.2285V63.9557H31.1285V65.8557H32.0785V63.9557H33.9785V63.0057Z" fill="#1F1D20"/>
<path opacity="0.15" d="M36.5186 68.0156H40.9686V70.7956C40.9686 71.3856 40.7386 71.9456 40.3186 72.3656C39.8986 72.7856 39.3386 73.0156 38.7486 73.0156C38.1586 73.0156 37.5986 72.7856 37.1786 72.3656C36.7586 71.9456 36.5286 71.3856 36.5286 70.7956V68.0156H36.5186Z" fill="#1F1D20"/>
</g>
<path d="M36.5186 67.5156H40.9686V70.2956C40.9686 70.8856 40.7386 71.4456 40.3186 71.8656C39.8986 72.2856 39.3386 72.5156 38.7486 72.5156C38.1586 72.5156 37.5986 72.2856 37.1786 71.8656C36.7586 71.4456 36.5286 70.8856 36.5286 70.2956V67.5156H36.5186Z" fill="#092E4C"/>
<path d="M36.5186 67.5156V64.7356C36.5186 64.1456 36.7486 63.5856 37.1686 63.1656C37.5886 62.7456 38.1486 62.5156 38.7386 62.5156C39.3286 62.5156 39.8886 62.7456 40.3086 63.1656C40.7286 63.5856 40.9586 64.1456 40.9586 64.7356V67.5156H36.5186Z" fill="#0078D4"/>
<path d="M45.9582 73.6255C45.7382 73.6255 45.5282 73.5555 45.3382 73.4355C45.1582 73.3155 45.0082 73.1355 44.9282 72.9355C44.8482 72.7355 44.8182 72.5055 44.8682 72.2955C44.9082 72.0755 45.0182 71.8855 45.1682 71.7255C45.3282 71.5655 45.5182 71.4655 45.7382 71.4255C45.9582 71.3855 46.1782 71.4055 46.3782 71.4855C46.5782 71.5655 46.7582 71.7155 46.8782 71.8955C46.9982 72.0755 47.0682 72.2955 47.0682 72.5155C47.0682 72.8055 46.9482 73.0955 46.7382 73.3055C46.5382 73.5055 46.2582 73.6255 45.9582 73.6255Z" fill="#092E4C"/>
<path d="M45.9581 63.6255C46.5681 63.6255 47.0681 63.1255 47.0681 62.5155C47.0681 61.9055 46.5681 61.4055 45.9581 61.4055C45.3481 61.4055 44.8481 61.9055 44.8481 62.5155C44.8481 63.1255 45.3481 63.6255 45.9581 63.6255Z" fill="#50E6FF"/>
<path d="M45.9581 66.9556C46.5681 66.9556 47.0681 66.4556 47.0681 65.8456C47.0681 65.2356 46.5681 64.7356 45.9581 64.7356C45.3481 64.7356 44.8481 65.2356 44.8481 65.8456C44.8481 66.4556 45.3481 66.9556 45.9581 66.9556Z" fill="#3BCAF4"/>
<path d="M45.9581 70.2954C46.5681 70.2954 47.0681 69.7954 47.0681 69.1854C47.0681 68.5754 46.5681 68.0754 45.9581 68.0754C45.3481 68.0754 44.8481 68.5754 44.8481 69.1854C44.8481 69.7954 45.3481 70.2954 45.9581 70.2954Z" fill="#0078D4"/>
<path d="M33.9785 62.6656H32.0785V60.7656H31.1285V62.6656H29.2285V63.6156H31.1285V65.5156H32.0785V63.6156H33.9785V62.6656Z" fill="#0078D4"/>
<path d="M38.7386 68.1857C39.9646 68.1857 40.9586 67.8857 40.9586 67.5157C40.9586 67.1457 39.9646 66.8457 38.7386 66.8457C37.5125 66.8457 36.5186 67.1457 36.5186 67.5157C36.5186 67.8857 37.5125 68.1857 38.7386 68.1857Z" fill="#0078D4"/>
<g filter="url(#filter2_d_1058_287)">
<path d="M37.1789 67.1456C37.2089 67.7356 37.4489 67.7456 37.4189 67.1556C37.3989 66.8056 37.3989 64.6756 37.4189 64.3456C37.4589 63.7356 37.2589 63.5856 37.2089 64.3956C37.1289 65.4756 37.1289 66.0256 37.1789 67.1456Z" fill="#50E6FF"/>
</g>
<path d="M38.7387 62.5156C39.3287 62.5156 39.8887 62.7456 40.3087 63.1656C40.7287 63.5856 40.9587 64.1456 40.9587 64.7356V67.5156V70.2956C40.9587 70.8856 40.7287 71.4456 40.3087 71.8656C39.8887 72.2856 39.3287 72.5156 38.7387 72.5156C38.1487 72.5156 37.5887 72.2856 37.1687 71.8656C36.7487 71.4456 36.5187 70.8856 36.5187 70.2956V67.5156V64.7356C36.5187 64.1456 36.7487 63.5856 37.1687 63.1656C37.5787 62.7456 38.1487 62.5156 38.7387 62.5156ZM38.7387 62.2156C38.0687 62.2156 37.4287 62.4756 36.9587 62.9556C36.4787 63.4356 36.2188 64.0656 36.2188 64.7356V67.5156V67.6556V70.2856C36.2188 70.9556 36.4787 71.5956 36.9587 72.0656C37.4387 72.5456 38.0687 72.8056 38.7387 72.8056C39.4087 72.8056 40.0487 72.5456 40.5187 72.0656C40.9887 71.5856 41.2588 70.9556 41.2588 70.2856V67.5056V67.2056V64.7256C41.2588 64.0556 40.9987 63.4156 40.5187 62.9456C40.0487 62.4756 39.4087 62.2156 38.7387 62.2156Z" fill="#50E6FF"/>
<path opacity="0.15" fill-rule="evenodd" clip-rule="evenodd" d="M44.859 32.2664L44.719 32.1264C43.099 30.5064 40.479 30.5064 38.859 32.1264L38.709 32.2764L38.549 32.1164C36.929 30.4964 34.309 30.4964 32.689 32.1164L32.549 32.2564C30.929 33.8764 30.929 36.4964 32.549 38.1164L32.709 38.2764L38.709 44.2764L44.859 38.1264C46.479 36.5164 46.479 33.8864 44.859 32.2664Z" fill="#1F1D20"/>
<path fill-rule="evenodd" clip-rule="evenodd" d="M44.699 37.2361L38.699 43.2361L32.549 37.0861C30.929 35.4661 30.929 32.8461 32.549 31.2261L32.689 31.0861C34.309 29.4661 36.929 29.4661 38.549 31.0861L44.699 37.2361Z" fill="#092E4C"/>
<path fill-rule="evenodd" clip-rule="evenodd" d="M38.6992 43.2461L32.6992 37.2461L38.8492 31.0961C40.4692 29.4761 43.0892 29.4761 44.7092 31.0961L44.8492 31.2361C46.4692 32.8561 46.4692 35.4761 44.8492 37.0961L38.6992 43.2461Z" fill="#0078D4"/>
<path d="M35.6189 29.8658C36.6789 29.8658 37.7389 30.2658 38.5489 31.0758L38.7089 31.2358L38.8589 31.0858C39.6689 30.2758 40.7289 29.8758 41.7889 29.8758C42.8489 29.8758 43.9089 30.2758 44.7189 31.0858L44.8589 31.2258C46.4789 32.8458 46.4789 35.4658 44.8589 37.0858L38.7089 43.2358L32.7089 37.2358L32.5489 37.0758C30.9289 35.4558 30.9289 32.8358 32.5489 31.2158L32.6889 31.0758C33.4989 30.2658 34.5589 29.8658 35.6189 29.8658ZM35.6189 29.4658C34.4089 29.4658 33.2589 29.9358 32.4089 30.7958L32.2689 30.9358C30.4989 32.7058 30.4989 35.5958 32.2689 37.3658L32.3889 37.4858C32.3989 37.5058 32.4089 37.5158 32.4289 37.5358L38.4289 43.5358C38.5089 43.6158 38.6089 43.6558 38.7089 43.6558C38.8089 43.6558 38.9189 43.6158 38.9889 43.5358L45.1389 37.3858C45.9989 36.5258 46.4689 35.3858 46.4689 34.1758C46.4689 32.9658 45.9989 31.8158 45.1389 30.9658L44.9989 30.8258C44.1389 29.9658 42.9989 29.4958 41.7889 29.4958C40.6389 29.4958 39.5489 29.9258 38.7089 30.6958C37.8689 29.8958 36.7689 29.4658 35.6189 29.4658Z" fill="#50E6FF"/>
<defs>
<filter id="filter0_d_1058_287" x="21.5884" y="21.208" width="34.29" height="34.0901" filterUnits="userSpaceOnUse" color-interpolation-filters="sRGB">
<feFlood flood-opacity="0" result="BackgroundImageFix"/>
<feColorMatrix in="SourceAlpha" type="matrix" values="0 0 0 0 0 0 0 0 0 0 0 0 0 0 0 0 0 0 127 0" result="hardAlpha"/>
<feOffset dy="2"/>
<feGaussianBlur stdDeviation="2"/>
<feComposite in2="hardAlpha" operator="out"/>
<feColorMatrix type="matrix" values="0 0 0 0 1 0 0 0 0 1 0 0 0 0 1 0 0 0 0.25 0"/>
<feBlend mode="normal" in2="BackgroundImageFix" result="effect1_dropShadow_1058_287"/>
<feBlend mode="normal" in="SourceGraphic" in2="effect1_dropShadow_1058_287" result="shape"/>
</filter>
<filter id="filter1_d_1058_287" x="21.5884" y="51.9683" width="34.29" height="34.1001" filterUnits="userSpaceOnUse" color-interpolation-filters="sRGB">
<feFlood flood-opacity="0" result="BackgroundImageFix"/>
<feColorMatrix in="SourceAlpha" type="matrix" values="0 0 0 0 0 0 0 0 0 0 0 0 0 0 0 0 0 0 127 0" result="hardAlpha"/>
<feOffset dy="2"/>
<feGaussianBlur stdDeviation="2"/>
<feComposite in2="hardAlpha" operator="out"/>
<feColorMatrix type="matrix" values="0 0 0 0 1 0 0 0 0 1 0 0 0 0 1 0 0 0 0.25 0"/>
<feBlend mode="normal" in2="BackgroundImageFix" result="effect1_dropShadow_1058_287"/>
<feBlend mode="normal" in="SourceGraphic" in2="effect1_dropShadow_1058_287" result="shape"/>
</filter>
<filter id="filter2_d_1058_287" x="33.1445" y="63.8374" width="8.27979" height="11.7556" filterUnits="userSpaceOnUse" color-interpolation-filters="sRGB">
<feFlood flood-opacity="0" result="BackgroundImageFix"/>
<feColorMatrix in="SourceAlpha" type="matrix" values="0 0 0 0 0 0 0 0 0 0 0 0 0 0 0 0 0 0 127 0" result="hardAlpha"/>
<feOffset dy="4"/>
<feGaussianBlur stdDeviation="2"/>
<feComposite in2="hardAlpha" operator="out"/>
<feColorMatrix type="matrix" values="0 0 0 0 0.94902 0 0 0 0 0.94902 0 0 0 0 0.94902 0 0 0 1 0"/>
<feBlend mode="normal" in2="BackgroundImageFix" result="effect1_dropShadow_1058_287"/>
<feBlend mode="normal" in="SourceGraphic" in2="effect1_dropShadow_1058_287" result="shape"/>
</filter>
<linearGradient id="paint0_linear_1058_287" x1="50.1186" y1="-12.8735" x2="54.1006" y2="132.897" gradientUnits="userSpaceOnUse">
<stop stop-color="#00ABDE"/>
<stop offset="1" stop-color="#007ED8"/>
</linearGradient>
<linearGradient id="paint1_linear_1058_287" x1="3.3229" y1="-19.7067" x2="98.8504" y2="121.175" gradientUnits="userSpaceOnUse">
<stop stop-color="#007ED8"/>
<stop offset="0.7065" stop-color="#002D4C"/>
</linearGradient>
<linearGradient id="paint2_linear_1058_287" x1="-19.7318" y1="30.4605" x2="73.1979" y2="120.166" gradientUnits="userSpaceOnUse">
<stop stop-color="#007ED8"/>
<stop offset="0.7065" stop-color="#002D4C"/>
</linearGradient>
<linearGradient id="paint3_linear_1058_287" x1="17.3451" y1="-6.92399" x2="110.275" y2="82.7817" gradientUnits="userSpaceOnUse">
<stop stop-color="#007ED8"/>
<stop offset="0.7065" stop-color="#002D4C"/>
</linearGradient>
<linearGradient id="paint4_linear_1058_287" x1="85.2385" y1="58.0525" x2="70.2857" y2="50.2927" gradientUnits="userSpaceOnUse">
<stop stop-color="#84ECFD"/>
<stop offset="0.7261" stop-color="#E9FCFE"/>
<stop offset="1" stop-color="#E9FCFE"/>
</linearGradient>
<linearGradient id="paint5_linear_1058_287" x1="85.8503" y1="56.8738" x2="70.8975" y2="49.1139" gradientUnits="userSpaceOnUse">
<stop stop-color="#84ECFD"/>
<stop offset="0.7261" stop-color="#E9FCFE"/>
<stop offset="1" stop-color="#E9FCFE"/>
</linearGradient>
<linearGradient id="paint6_linear_1058_287" x1="84.0158" y1="60.4088" x2="69.0631" y2="52.649" gradientUnits="userSpaceOnUse">
<stop stop-color="#84ECFD"/>
<stop offset="0.7261" stop-color="#E9FCFE"/>
<stop offset="1" stop-color="#E9FCFE"/>
</linearGradient>
<linearGradient id="paint7_linear_1058_287" x1="84.6269" y1="59.2312" x2="69.6741" y2="51.4713" gradientUnits="userSpaceOnUse">
<stop stop-color="#84ECFD"/>
<stop offset="0.7261" stop-color="#E9FCFE"/>
<stop offset="1" stop-color="#E9FCFE"/>
</linearGradient>
<linearGradient id="paint8_linear_1058_287" x1="86.4613" y1="55.6962" x2="71.5085" y2="47.9363" gradientUnits="userSpaceOnUse">
<stop stop-color="#84ECFD"/>
<stop offset="0.7261" stop-color="#E9FCFE"/>
<stop offset="1" stop-color="#E9FCFE"/>
</linearGradient>
<linearGradient id="paint9_linear_1058_287" x1="87.0737" y1="54.5163" x2="72.1209" y2="46.7564" gradientUnits="userSpaceOnUse">
<stop stop-color="#84ECFD"/>
<stop offset="0.7261" stop-color="#E9FCFE"/>
<stop offset="1" stop-color="#E9FCFE"/>
</linearGradient>
<linearGradient id="paint10_linear_1058_287" x1="86.4276" y1="55.7608" x2="71.4749" y2="48.0011" gradientUnits="userSpaceOnUse">
<stop stop-color="#84ECFD"/>
<stop offset="0.7261" stop-color="#E9FCFE"/>
<stop offset="1" stop-color="#E9FCFE"/>
</linearGradient>
<linearGradient id="paint11_linear_1058_287" x1="87.0394" y1="54.5821" x2="72.0867" y2="46.8223" gradientUnits="userSpaceOnUse">
<stop stop-color="#84ECFD"/>
<stop offset="0.7261" stop-color="#E9FCFE"/>
<stop offset="1" stop-color="#E9FCFE"/>
</linearGradient>
<linearGradient id="paint12_linear_1058_287" x1="85.205" y1="58.1171" x2="70.2523" y2="50.3574" gradientUnits="userSpaceOnUse">
<stop stop-color="#84ECFD"/>
<stop offset="0.7261" stop-color="#E9FCFE"/>
<stop offset="1" stop-color="#E9FCFE"/>
</linearGradient>
<linearGradient id="paint13_linear_1058_287" x1="85.8161" y1="56.9395" x2="70.8633" y2="49.1797" gradientUnits="userSpaceOnUse">
<stop stop-color="#84ECFD"/>
<stop offset="0.7261" stop-color="#E9FCFE"/>
<stop offset="1" stop-color="#E9FCFE"/>
</linearGradient>
<linearGradient id="paint14_linear_1058_287" x1="87.6505" y1="53.4045" x2="72.6977" y2="45.6447" gradientUnits="userSpaceOnUse">
<stop stop-color="#84ECFD"/>
<stop offset="0.7261" stop-color="#E9FCFE"/>
<stop offset="1" stop-color="#E9FCFE"/>
</linearGradient>
<linearGradient id="paint15_linear_1058_287" x1="88.2626" y1="52.2258" x2="73.3098" y2="44.466" gradientUnits="userSpaceOnUse">
<stop stop-color="#84ECFD"/>
<stop offset="0.7261" stop-color="#E9FCFE"/>
<stop offset="1" stop-color="#E9FCFE"/>
</linearGradient>
<linearGradient id="paint16_linear_1058_287" x1="87.618" y1="53.4671" x2="72.6652" y2="45.7073" gradientUnits="userSpaceOnUse">
<stop stop-color="#84ECFD"/>
<stop offset="0.7261" stop-color="#E9FCFE"/>
<stop offset="1" stop-color="#E9FCFE"/>
</linearGradient>
<linearGradient id="paint17_linear_1058_287" x1="88.2299" y1="52.2883" x2="73.2771" y2="44.5284" gradientUnits="userSpaceOnUse">
<stop stop-color="#84ECFD"/>
<stop offset="0.7261" stop-color="#E9FCFE"/>
<stop offset="1" stop-color="#E9FCFE"/>
</linearGradient>
<linearGradient id="paint18_linear_1058_287" x1="86.3954" y1="55.8235" x2="71.4426" y2="48.0637" gradientUnits="userSpaceOnUse">
<stop stop-color="#84ECFD"/>
<stop offset="0.7261" stop-color="#E9FCFE"/>
<stop offset="1" stop-color="#E9FCFE"/>
</linearGradient>
<linearGradient id="paint19_linear_1058_287" x1="87.007" y1="54.6449" x2="72.0541" y2="46.8851" gradientUnits="userSpaceOnUse">
<stop stop-color="#84ECFD"/>
<stop offset="0.7261" stop-color="#E9FCFE"/>
<stop offset="1" stop-color="#E9FCFE"/>
</linearGradient>
<linearGradient id="paint20_linear_1058_287" x1="88.8408" y1="51.1108" x2="73.8881" y2="43.351" gradientUnits="userSpaceOnUse">
<stop stop-color="#84ECFD"/>
<stop offset="0.7261" stop-color="#E9FCFE"/>
<stop offset="1" stop-color="#E9FCFE"/>
</linearGradient>
<linearGradient id="paint21_linear_1058_287" x1="89.453" y1="49.932" x2="74.5003" y2="42.1721" gradientUnits="userSpaceOnUse">
<stop stop-color="#84ECFD"/>
<stop offset="0.7261" stop-color="#E9FCFE"/>
<stop offset="1" stop-color="#E9FCFE"/>
</linearGradient>
<linearGradient id="paint22_linear_1058_287" x1="83.0859" y1="53.8995" x2="72.8343" y2="48.5794" gradientUnits="userSpaceOnUse">
<stop stop-color="#84ECFD"/>
<stop offset="0.7261" stop-color="#E9FCFE"/>
<stop offset="1" stop-color="#E9FCFE"/>
</linearGradient>
</defs>
</svg>
