<svg width="106" height="103" viewBox="0 0 106 103" fill="none" xmlns="http://www.w3.org/2000/svg">
<path fill-rule="evenodd" clip-rule="evenodd" d="M100.142 51.6395C100.142 76.9895 79.5916 97.5395 54.2416 97.5395C28.8916 97.5395 8.34156 76.9895 8.34156 51.6395C8.34156 26.2895 28.8916 5.73952 54.2416 5.73952C79.5916 5.73952 100.142 26.2895 100.142 51.6395ZM54.2416 1.99951C81.6616 1.99951 103.882 24.2195 103.882 51.6395C103.882 79.0595 81.6516 101.28 54.2416 101.28C26.8216 101.28 4.60156 79.0495 4.60156 51.6395C4.60156 24.2195 26.8216 1.99951 54.2416 1.99951Z" fill="url(#paint0_linear_753_4871)"/>
<path d="M53.9916 94.9515C30.0734 94.9515 10.6797 75.5671 10.6797 51.6396C10.6797 27.7121 30.0734 8.32764 53.9916 8.32764C77.9099 8.32764 97.3036 27.7213 97.3036 51.6396C97.3036 75.5579 77.9099 94.9515 53.9916 94.9515Z" fill="url(#paint1_linear_753_4871)"/>
<path d="M16.5446 58.2992L22.5446 61.7192L16.6045 65.1393L10.9745 61.9092L11.0646 62.2992L16.3146 65.2992L12.3146 67.6093C12.3146 67.7093 12.3645 67.8093 12.3845 67.8993L16.6245 65.4592L22.6245 68.8793L16.6946 72.2892L12.9146 70.1193V70.2693L13.2245 70.6692L16.3445 72.4692L15.1545 73.1493L15.3345 73.3793L16.6345 72.6293L22.5546 76.0392L19.0145 78.0392L19.1946 78.2693L22.8445 76.1692L28.8445 79.5992L22.9545 82.9792C23.1545 83.2392 23.3445 83.4692 23.5345 83.6992L41.3945 94.0193L42.0546 94.0692L41.8945 93.9692L47.8945 90.5293L53.8146 93.9392L52.4346 94.7292H52.9545L54.1045 94.0592L55.5446 94.8893H56.2045L54.3945 93.8893L60.3945 90.4492L65.5045 93.3793L65.9146 93.2593L60.7045 90.2593L66.5945 86.8693L72.3545 90.1792L68.1245 92.6093L69.2445 92.2892L84.8345 83.2892L86.0245 82.2892L85.1545 82.7992L79.3845 79.4893L85.3046 76.0892L89.3745 78.4192L89.5345 78.1792L85.5945 75.9192L91.5945 72.4893L92.8445 73.2092L93.0045 72.9692L91.8845 72.3192L94.3245 70.9192L94.6646 70.3993L91.5945 72.1592L85.6746 68.7493L91.6045 65.3392L96.2145 67.9893C96.2599 67.9065 96.31 67.8264 96.3645 67.7493L91.8945 65.1792L97.5945 61.8893L97.6946 61.2892L73.2545 47.1792L60.7946 39.9893L60.6646 39.9392L54.6045 36.4392L54.3245 36.2593L10.9446 61.1792C10.962 61.2772 10.9853 61.3741 11.0145 61.4692L16.5446 58.2992ZM16.8545 65.2992L22.7845 61.8893L28.7845 65.3092L22.8445 68.7192L16.8545 65.2992ZM54.2946 65.2992L60.2145 61.8993L66.1245 65.2892L60.2045 68.6892L54.2946 65.2992ZM59.9146 68.8593L53.9146 72.2892L48.0045 68.8893L54.0045 65.4692L59.9146 68.8593ZM54.0145 65.1293L48.0145 61.7092L53.9346 58.3092L59.9346 61.7292L54.0145 65.1293ZM53.7245 65.2992L47.7245 68.7292L41.7245 65.2992L47.7245 61.8693L53.7245 65.2992ZM47.4645 68.8893L41.5145 72.3192L35.5145 68.8893L41.5145 65.4692L47.4645 68.8893ZM47.4645 76.0492L41.5546 79.4492L35.6345 76.0492L41.5546 72.6493L47.4645 76.0492ZM41.8545 72.4792L47.8046 69.0592L53.7145 72.4492L47.7145 75.8793L41.8545 72.4792ZM54.0045 72.6193L60.0045 76.0492L54.0045 79.4692L48.0045 76.0392L54.0045 72.6193ZM54.2946 72.4492L60.2946 69.0293L66.2946 72.4492L60.2946 75.8793L54.2946 72.4492ZM60.5446 68.8593L66.4645 65.4592L72.4645 68.8893L66.5546 72.2892L60.5446 68.8593ZM66.7445 65.2892L72.7445 61.8593L78.7445 65.2892L72.7445 68.7192L66.7445 65.2892ZM66.4645 65.1293L60.5546 61.7292L66.5546 58.2992L72.4545 61.6992L66.4645 65.1293ZM60.2645 61.5692L54.2645 58.1393L60.2645 54.7092L66.2645 58.1393L60.2645 61.5692ZM54.0145 57.9692L48.0945 54.5692L54.0945 51.1393L60.0245 54.5492L54.0145 57.9692ZM53.7245 58.1393L47.8046 61.5392L41.8845 58.1393L47.8046 54.7393L53.7245 58.1393ZM47.5145 61.7092L41.5145 65.1393L35.5845 61.7292L41.5845 58.2992L47.5145 61.7092ZM41.2645 65.2992L35.2645 68.7192L29.3445 65.3192L35.3445 61.8993L41.2645 65.2992ZM35.0145 68.8893L29.0845 72.2992L23.1545 68.8993L29.0845 65.4893L35.0145 68.8893ZM35.3046 69.0592L41.3046 72.4893L35.3845 75.8893L29.3845 72.4592L35.3046 69.0592ZM41.3046 79.6193L35.3046 83.0392L29.3945 79.6393L35.3345 76.2292L41.3046 79.6193ZM41.5945 79.7892L47.5945 83.2092L41.5945 86.6393L35.5945 83.2092L41.5945 79.7892ZM41.8945 79.6093L47.8046 76.2092L53.8046 79.6393L47.8945 83.0392L41.8945 79.6093ZM54.0546 79.8092L60.0546 83.2493L54.1545 86.6493L48.1545 83.1992L54.0546 79.8092ZM54.3545 79.6393L60.3545 76.2192L66.3545 79.6592L60.3545 83.0792L54.3545 79.6393ZM60.5945 76.0492L66.5945 72.6193L72.5945 76.0592L66.5945 79.4893L60.5945 76.0492ZM72.8445 76.2292L78.7745 79.6393L72.7745 83.0592L66.8545 79.6592L72.8445 76.2292ZM72.8445 75.8993L66.8445 72.4492L72.7545 69.0492L78.7545 72.4993L72.8445 75.8993ZM73.0546 68.8993L79.0546 65.4692L85.0546 68.9092L79.0546 72.3392L73.0546 68.8993ZM73.0546 61.7092L78.9845 58.2992L84.9845 61.7292L79.0446 65.1393L73.0546 61.7092ZM72.7645 61.5392L66.8645 58.1493L72.7946 54.7393L78.6946 58.1293L72.7645 61.5392ZM66.5745 57.9792L60.5745 54.5592L66.5045 51.1493L72.5045 54.5792L66.5745 57.9792ZM60.3245 54.3893L54.3945 50.9893L60.3245 47.5792L66.2445 50.9792L60.3245 54.3893ZM54.1045 50.8192L48.1045 47.3793L54.0245 43.9692L60.0245 47.4092L54.1045 50.8192ZM53.8245 50.9893L47.8245 54.4092L41.8245 50.9792L47.8245 47.5392L53.8245 50.9893ZM47.5646 54.5792L41.6445 57.9792L35.6445 54.5492L41.5646 51.1393L47.5646 54.5792ZM41.3545 58.1493L35.3545 61.5792L29.3545 58.1493L35.3545 54.7092L41.3545 58.1493ZM35.1045 61.7393L29.1045 65.1692L23.1045 61.7393L29.1045 58.3092L35.1045 61.7393ZM16.8845 72.4692L22.8146 69.0692L28.7445 72.4692L22.8046 75.8793L16.8845 72.4692ZM23.0945 76.0492L29.0245 72.6393L35.0245 76.0592L29.0845 79.4692L23.0945 76.0492ZM23.0945 83.2192L29.0345 79.8192L34.9446 83.2092L28.9446 86.6293L23.0945 83.2192ZM29.2845 86.7992L35.2345 83.3793L41.2345 86.8092L35.2345 90.2393L29.2845 86.7992ZM41.5045 93.8593L35.5045 90.3993L41.5045 86.9692L47.5045 90.4192L41.5045 93.8593ZM41.7845 86.7992L47.7845 83.3793L53.7845 86.8192L47.7845 90.2493L41.7845 86.7992ZM53.9845 93.7992L48.0646 90.3893L54.0646 86.9592L59.9945 90.3693L53.9845 93.7992ZM60.2645 90.1892L54.3345 86.7892L60.2345 83.3993L66.1545 86.7992L60.2645 90.1892ZM60.5345 83.1892L66.4845 79.7693L72.4045 83.1692L66.4645 86.5892L60.5345 83.1892ZM72.5345 90.0592L66.7745 86.7493L72.7145 83.3392L78.4745 86.6493L72.5345 90.0592ZM84.7345 83.0592L78.7345 86.4893L72.9745 83.1792L78.9745 79.7493L84.7345 83.0592ZM78.9745 79.4192L73.0446 76.0093L78.9545 72.6093L84.8845 76.0193L78.9745 79.4192ZM91.1345 72.4192L85.1345 75.8492L79.2045 72.4492L85.2045 69.0193L91.1345 72.4192ZM85.2145 68.6892L79.2145 65.2393L85.1445 61.8292L91.1445 65.2793L85.2145 68.6892ZM97.4246 61.6892L91.4246 65.1293L85.4246 61.6892L91.4246 58.2292L97.4246 61.6892ZM91.1545 58.0692L85.1545 61.5193L79.1545 58.0892L85.1545 54.6293L91.1545 58.0692ZM84.9146 54.4592L78.9146 57.9292L73.0045 54.5392L79.0045 51.0692L84.9146 54.4592ZM78.7345 50.8993L72.7345 54.3693L66.7345 50.9392L72.7845 47.4592L78.7345 50.8993ZM72.5045 47.2992L66.4446 50.7793L60.5245 47.3693L66.5945 43.8893L72.5045 47.2992ZM66.3046 43.7192L60.2345 47.2092L54.2345 43.7593L60.3146 40.2593L66.3046 43.7192ZM54.1445 36.7192L60.0245 40.1193L53.9446 43.6193L48.0345 40.2192L54.1445 36.7192ZM47.7445 40.3893L53.6545 43.7793L47.7445 47.1892L41.8245 43.7892L47.7445 40.3893ZM41.5345 43.9592L47.4545 47.3593L41.4545 50.7892L35.5245 47.3793L41.5345 43.9592ZM35.2845 47.5492L41.2045 50.9592L35.2845 54.3593L29.3545 50.9492L35.2845 47.5492ZM29.0646 51.1193L35.0045 54.5293L29.0045 57.9592L23.0045 54.5492L29.0646 51.1193ZM22.8146 54.7092L28.7545 58.1293L22.8046 61.5592L16.8046 58.1393L22.8146 54.7092Z" fill="white"/>
<g filter="url(#filter0_b_753_4871)">
<path fill-rule="evenodd" clip-rule="evenodd" d="M97.3316 51.6401C97.3316 75.4401 78.0416 94.7301 54.2416 94.7301C30.4416 94.7301 11.1516 75.4401 11.1516 51.6401C11.1516 27.8401 30.4416 8.55006 54.2416 8.55006C78.0416 8.55006 97.3316 27.8401 97.3316 51.6401ZM54.2416 4.81006C80.1016 4.81006 101.072 25.7801 101.072 51.6401C101.072 77.5001 80.1016 98.4701 54.2416 98.4701C28.3816 98.4701 7.41162 77.5001 7.41162 51.6401C7.41162 25.7801 28.3716 4.81006 54.2416 4.81006Z" fill="url(#paint2_linear_753_4871)"/>
</g>
<path d="M42.0014 76.5261C47.7278 75.6194 48.0045 71.4678 48.0045 64.7488H59.4574C59.4574 71.4296 59.6483 75.6194 65.432 76.5261C66.2254 76.6228 66.9573 77.0023 67.4935 77.595C68.0288 78.1965 68.3213 78.9755 68.3143 79.7807H39.1C39.0929 78.9755 39.3855 78.1965 39.9208 77.595C40.4593 77.0002 41.195 76.6205 41.9919 76.5261H42.0014Z" fill="url(#paint3_linear_753_4871)"/>
<g opacity="0.15">
<path d="M59.4671 64.7483H48.0142C48.1257 67.1643 47.9366 69.5848 47.4512 71.9541H60.0207C59.5444 69.5835 59.3585 67.1638 59.4671 64.7483V64.7483Z" fill="#1F1D20"/>
</g>
<path d="M24.5263 27.4507H83.957C84.5215 27.4507 85.0628 27.6748 85.4619 28.074C85.8611 28.4731 86.0853 29.0145 86.0853 29.579V67.7552C86.0854 68.0342 86.0302 68.3105 85.9232 68.5681C85.8161 68.8258 85.6592 69.0598 85.4615 69.2567C85.2637 69.4536 85.029 69.6094 84.7708 69.7154C84.5127 69.8213 84.2361 69.8752 83.957 69.8739H24.5263C24.2472 69.8752 23.9706 69.8213 23.7125 69.7154C23.4543 69.6094 23.2196 69.4536 23.0218 69.2567C22.8241 69.0598 22.6672 68.8258 22.5601 68.5681C22.453 68.3105 22.3979 68.0342 22.3979 67.7552V29.579C22.3979 29.0145 22.6222 28.4731 23.0214 28.074C23.4205 27.6748 23.9618 27.4507 24.5263 27.4507V27.4507Z" fill="url(#paint4_linear_753_4871)"/>
<path opacity="0.15" d="M80.0473 34.687H60.3054V46.2509C60.3054 46.6025 60.5959 46.8776 60.9321 46.8776H79.4053C79.7569 46.8776 80.032 46.5872 80.032 46.2509L80.0473 34.687Z" fill="#1F1D20"/>
<path d="M80.0473 33.9451H60.3054V45.5089C60.3054 45.8605 60.5959 46.1357 60.9321 46.1357H79.4053C79.7569 46.1357 80.032 45.8452 80.032 45.5089L80.0473 33.9451Z" fill="white"/>
<path d="M79.3823 32.2339H60.9779C60.6111 32.2339 60.313 32.5396 60.313 32.8988V34.3434H80.0549V32.8988C80.0472 32.532 79.7645 32.2339 79.3823 32.2339Z" fill="#ECECEC"/>
<path d="M79.8715 62.4389H79.7951C79.6499 62.4389 79.5276 62.3166 79.5276 62.1714C79.5276 62.0796 79.5734 61.9956 79.6499 61.9497C79.7722 61.7586 80.139 61.858 80.139 62.0949V62.1714C80.1467 62.3242 80.0244 62.4389 79.8715 62.4389Z" fill="white"/>
<path d="M78.5646 62.4395H78.4117C78.2665 62.4395 78.1442 62.3173 78.1442 62.172C78.1442 62.0268 78.2665 61.9045 78.4117 61.9045H78.5646C78.7098 61.9045 78.8321 62.0268 78.8321 62.172C78.8321 62.3173 78.7175 62.4395 78.5646 62.4395ZM77.1812 62.4395H77.0283C76.8831 62.4395 76.7608 62.3173 76.7608 62.172C76.7608 62.0268 76.8831 61.9045 77.0283 61.9045H77.1812C77.3264 61.9045 77.4487 62.0268 77.4487 62.172C77.4487 62.3173 77.3341 62.4395 77.1812 62.4395ZM75.7978 62.4395H75.645C75.4997 62.4395 75.3775 62.3173 75.3775 62.172C75.3775 62.0268 75.4997 61.9045 75.645 61.9045H75.7978C75.943 61.9045 76.0653 62.0268 76.0653 62.172C76.0653 62.3173 75.943 62.4395 75.7978 62.4395ZM74.4144 62.4395H74.2616C74.1164 62.4395 73.9941 62.3173 73.9941 62.172C73.9941 62.0268 74.1164 61.9045 74.2616 61.9045H74.4144C74.5597 61.9045 74.6819 62.0268 74.6819 62.172C74.6819 62.3173 74.5597 62.4395 74.4144 62.4395ZM73.0311 62.4395H72.8782C72.733 62.4395 72.6107 62.3173 72.6107 62.172C72.6107 62.0268 72.733 61.9045 72.8782 61.9045H73.0311C73.1763 61.9045 73.2986 62.0268 73.2986 62.172C73.2986 62.3173 73.1763 62.4395 73.0311 62.4395ZM71.64 62.4395H71.4872C71.3419 62.4395 71.2197 62.3173 71.2197 62.172C71.2197 62.0268 71.3419 61.9045 71.4872 61.9045H71.64C71.7852 61.9045 71.9075 62.0268 71.9075 62.172C71.9075 62.3173 71.7929 62.4395 71.64 62.4395ZM70.2566 62.4395H70.1038C69.9586 62.4395 69.8363 62.3173 69.8363 62.172C69.8363 62.0268 69.9586 61.9045 70.1038 61.9045H70.2566C70.4019 61.9045 70.5241 62.0268 70.5241 62.172C70.5241 62.3173 70.4019 62.4395 70.2566 62.4395ZM68.8733 62.4395H68.7204C68.5752 62.4395 68.4529 62.3173 68.4529 62.172C68.4529 62.0268 68.5752 61.9045 68.7204 61.9045H68.8733C69.0185 61.9045 69.1408 62.0268 69.1408 62.172C69.1408 62.3173 69.0185 62.4395 68.8733 62.4395ZM67.4899 62.4395H67.337C67.1918 62.4395 67.0695 62.3173 67.0695 62.172C67.0695 62.0268 67.1918 61.9045 67.337 61.9045H67.4899C67.6351 61.9045 67.7574 62.0268 67.7574 62.172C67.7574 62.3173 67.6351 62.4395 67.4899 62.4395ZM66.0988 62.4395H65.946C65.8008 62.4395 65.6785 62.3173 65.6785 62.172C65.6785 62.0268 65.8008 61.9045 65.946 61.9045H66.0988C66.2441 61.9045 66.3663 62.0268 66.3663 62.172C66.3663 62.3173 66.2517 62.4395 66.0988 62.4395ZM64.7155 62.4395H64.5626C64.4174 62.4395 64.2951 62.3173 64.2951 62.172C64.2951 62.0268 64.4174 61.9045 64.5626 61.9045H64.7155C64.8607 61.9045 64.983 62.0268 64.983 62.172C64.983 62.3173 64.8607 62.4395 64.7155 62.4395ZM63.3321 62.4395H63.1792C63.034 62.4395 62.9117 62.3173 62.9117 62.172C62.9117 62.0268 63.034 61.9045 63.1792 61.9045H63.3321C63.4773 61.9045 63.5996 62.0268 63.5996 62.172C63.5996 62.3173 63.4773 62.4395 63.3321 62.4395ZM61.9487 62.4395H61.7958C61.6506 62.4395 61.5283 62.3173 61.5283 62.172C61.5283 62.0268 61.6506 61.9045 61.7958 61.9045H61.9487C62.0939 61.9045 62.2162 62.0268 62.2162 62.172C62.2162 62.3173 62.0939 62.4395 61.9487 62.4395Z" fill="white"/>
<path d="M60.5576 62.4391H60.4811C60.3359 62.4391 60.2136 62.3168 60.2136 62.1716V62.0952C60.2136 61.8506 60.5805 61.7589 60.7028 61.9499C60.7716 61.9958 60.8251 62.0799 60.8251 62.1716C60.8327 62.3245 60.7104 62.4391 60.5576 62.4391Z" fill="white"/>
<path d="M60.4811 61.1015C60.3359 61.1015 60.2136 60.9792 60.2136 60.834V60.6735C60.2136 60.5283 60.3359 60.406 60.4811 60.406C60.6263 60.406 60.7486 60.5283 60.7486 60.6735V60.834C60.7486 60.9792 60.634 61.1015 60.4811 61.1015ZM60.4811 59.6799C60.3359 59.6799 60.2136 59.5576 60.2136 59.4124V59.2519C60.2136 59.1066 60.3359 58.9844 60.4811 58.9844C60.6263 58.9844 60.7486 59.1066 60.7486 59.2519V59.4124C60.7486 59.5576 60.634 59.6799 60.4811 59.6799ZM60.4811 58.2583C60.3359 58.2583 60.2136 58.136 60.2136 57.9908V57.8303C60.2136 57.685 60.3359 57.5628 60.4811 57.5628C60.6263 57.5628 60.7486 57.685 60.7486 57.8303V57.9908C60.7486 58.1436 60.634 58.2583 60.4811 58.2583ZM60.4811 56.8367C60.3359 56.8367 60.2136 56.7144 60.2136 56.5692V56.4087C60.2136 56.2634 60.3359 56.1412 60.4811 56.1412C60.6263 56.1412 60.7486 56.2634 60.7486 56.4087V56.5692C60.7486 56.722 60.634 56.8367 60.4811 56.8367ZM60.4811 55.4151C60.3359 55.4151 60.2136 55.2928 60.2136 55.1476V54.9871C60.2136 54.8418 60.3359 54.7196 60.4811 54.7196C60.6263 54.7196 60.7486 54.8418 60.7486 54.9871V55.1476C60.7486 55.3004 60.634 55.4151 60.4811 55.4151ZM60.4811 53.9935C60.3359 53.9935 60.2136 53.8712 60.2136 53.726V53.5655C60.2136 53.4202 60.3359 53.298 60.4811 53.298C60.6263 53.298 60.7486 53.4202 60.7486 53.5655V53.726C60.7486 53.8788 60.634 53.9935 60.4811 53.9935ZM60.4811 52.5795C60.3359 52.5795 60.2136 52.4572 60.2136 52.312V52.1515C60.2136 52.0063 60.3359 51.884 60.4811 51.884C60.6263 51.884 60.7486 52.0063 60.7486 52.1515V52.312C60.7486 52.4572 60.634 52.5795 60.4811 52.5795ZM60.4811 51.1579C60.3359 51.1579 60.2136 51.0356 60.2136 50.8904V50.7299C60.2136 50.5847 60.3359 50.4624 60.4811 50.4624C60.6263 50.4624 60.7486 50.5847 60.7486 50.7299V50.8904C60.7486 51.0356 60.634 51.1579 60.4811 51.1579Z" fill="white"/>
<path d="M60.4811 49.7369C60.3359 49.7369 60.2136 49.6146 60.2136 49.4694V49.393C60.2136 49.2478 60.3359 49.1255 60.4811 49.1255H60.5576C60.7028 49.1255 60.8251 49.2478 60.8251 49.393C60.8251 49.4847 60.7792 49.5688 60.7028 49.6146C60.6646 49.6911 60.5805 49.7369 60.4811 49.7369Z" fill="white"/>
<path d="M78.5646 49.6605H78.4117C78.2665 49.6605 78.1442 49.5382 78.1442 49.393C78.1442 49.2478 78.2665 49.1255 78.4117 49.1255H78.5646C78.7098 49.1255 78.8321 49.2478 78.8321 49.393C78.8321 49.5382 78.7175 49.6605 78.5646 49.6605ZM77.1812 49.6605H77.0283C76.8831 49.6605 76.7608 49.5382 76.7608 49.393C76.7608 49.2478 76.8831 49.1255 77.0283 49.1255H77.1812C77.3264 49.1255 77.4487 49.2478 77.4487 49.393C77.4487 49.5382 77.3341 49.6605 77.1812 49.6605ZM75.7978 49.6605H75.645C75.4997 49.6605 75.3775 49.5382 75.3775 49.393C75.3775 49.2478 75.4997 49.1255 75.645 49.1255H75.7978C75.943 49.1255 76.0653 49.2478 76.0653 49.393C76.0653 49.5382 75.943 49.6605 75.7978 49.6605ZM74.4144 49.6605H74.2616C74.1164 49.6605 73.9941 49.5382 73.9941 49.393C73.9941 49.2478 74.1164 49.1255 74.2616 49.1255H74.4144C74.5597 49.1255 74.6819 49.2478 74.6819 49.393C74.6819 49.5382 74.5597 49.6605 74.4144 49.6605ZM73.0311 49.6605H72.8782C72.733 49.6605 72.6107 49.5382 72.6107 49.393C72.6107 49.2478 72.733 49.1255 72.8782 49.1255H73.0311C73.1763 49.1255 73.2986 49.2478 73.2986 49.393C73.2986 49.5382 73.1763 49.6605 73.0311 49.6605ZM71.64 49.6605H71.4872C71.3419 49.6605 71.2197 49.5382 71.2197 49.393C71.2197 49.2478 71.3419 49.1255 71.4872 49.1255H71.64C71.7852 49.1255 71.9075 49.2478 71.9075 49.393C71.9075 49.5382 71.7929 49.6605 71.64 49.6605ZM70.2566 49.6605H70.1038C69.9586 49.6605 69.8363 49.5382 69.8363 49.393C69.8363 49.2478 69.9586 49.1255 70.1038 49.1255H70.2566C70.4019 49.1255 70.5241 49.2478 70.5241 49.393C70.5241 49.5382 70.4019 49.6605 70.2566 49.6605ZM68.8733 49.6605H68.7204C68.5752 49.6605 68.4529 49.5382 68.4529 49.393C68.4529 49.2478 68.5752 49.1255 68.7204 49.1255H68.8733C69.0185 49.1255 69.1408 49.2478 69.1408 49.393C69.1408 49.5382 69.0185 49.6605 68.8733 49.6605ZM67.4899 49.6605H67.337C67.1918 49.6605 67.0695 49.5382 67.0695 49.393C67.0695 49.2478 67.1918 49.1255 67.337 49.1255H67.4899C67.6351 49.1255 67.7574 49.2478 67.7574 49.393C67.7574 49.5382 67.6351 49.6605 67.4899 49.6605ZM66.0988 49.6605H65.946C65.8008 49.6605 65.6785 49.5382 65.6785 49.393C65.6785 49.2478 65.8008 49.1255 65.946 49.1255H66.0988C66.2441 49.1255 66.3663 49.2478 66.3663 49.393C66.3663 49.5382 66.2517 49.6605 66.0988 49.6605ZM64.7155 49.6605H64.5626C64.4174 49.6605 64.2951 49.5382 64.2951 49.393C64.2951 49.2478 64.4174 49.1255 64.5626 49.1255H64.7155C64.8607 49.1255 64.983 49.2478 64.983 49.393C64.983 49.5382 64.8683 49.6605 64.7155 49.6605ZM63.3321 49.6605H63.1792C63.034 49.6605 62.9117 49.5382 62.9117 49.393C62.9117 49.2478 63.034 49.1255 63.1792 49.1255H63.3321C63.4773 49.1255 63.5996 49.2478 63.5996 49.393C63.5996 49.5382 63.4773 49.6605 63.3321 49.6605ZM61.9487 49.6605H61.7958C61.6506 49.6605 61.5283 49.5382 61.5283 49.393C61.5283 49.2478 61.6506 49.1255 61.7958 49.1255H61.9487C62.0939 49.1255 62.2162 49.2478 62.2162 49.393C62.2162 49.5382 62.0939 49.6605 61.9487 49.6605Z" fill="white"/>
<path d="M79.8715 49.7369C79.7798 49.7369 79.6957 49.6911 79.6499 49.6146C79.5811 49.5688 79.5276 49.4847 79.5276 49.393C79.5276 49.2478 79.6499 49.1255 79.7951 49.1255H79.8715C80.0167 49.1255 80.139 49.2478 80.139 49.393V49.4694C80.1467 49.6146 80.0244 49.7369 79.8715 49.7369Z" fill="white"/>
<path d="M79.8715 61.1015C79.7263 61.1015 79.604 60.9792 79.604 60.834V60.6735C79.604 60.5283 79.7263 60.406 79.8715 60.406C80.0167 60.406 80.139 60.5283 80.139 60.6735V60.834C80.1467 60.9792 80.0244 61.1015 79.8715 61.1015ZM79.8715 59.6799C79.7263 59.6799 79.604 59.5576 79.604 59.4124V59.2519C79.604 59.1066 79.7263 58.9844 79.8715 58.9844C80.0167 58.9844 80.139 59.1066 80.139 59.2519V59.4124C80.1467 59.5652 80.0244 59.6799 79.8715 59.6799ZM79.8715 58.2583C79.7263 58.2583 79.604 58.136 79.604 57.9908V57.8303C79.604 57.685 79.7263 57.5628 79.8715 57.5628C80.0167 57.5628 80.139 57.685 80.139 57.8303V57.9908C80.1467 58.1436 80.0244 58.2583 79.8715 58.2583ZM79.8715 56.8367C79.7263 56.8367 79.604 56.7144 79.604 56.5692V56.4087C79.604 56.2634 79.7263 56.1412 79.8715 56.1412C80.0167 56.1412 80.139 56.2634 80.139 56.4087V56.5692C80.1467 56.722 80.0244 56.8367 79.8715 56.8367ZM79.8715 55.4151C79.7263 55.4151 79.604 55.2928 79.604 55.1476V54.9871C79.604 54.8418 79.7263 54.7196 79.8715 54.7196C80.0167 54.7196 80.139 54.8418 80.139 54.9871V55.1476C80.1467 55.3004 80.0244 55.4151 79.8715 55.4151ZM79.8715 53.9935C79.7263 53.9935 79.604 53.8712 79.604 53.726V53.5655C79.604 53.4202 79.7263 53.298 79.8715 53.298C80.0167 53.298 80.139 53.4202 80.139 53.5655V53.726C80.1467 53.8788 80.0244 53.9935 79.8715 53.9935ZM79.8715 52.5795C79.7263 52.5795 79.604 52.4572 79.604 52.312V52.1515C79.604 52.0063 79.7263 51.884 79.8715 51.884C80.0167 51.884 80.139 52.0063 80.139 52.1515V52.312C80.1467 52.4572 80.0244 52.5795 79.8715 52.5795ZM79.8715 51.1579C79.7263 51.1579 79.604 51.0356 79.604 50.8904V50.7299C79.604 50.5847 79.7263 50.4624 79.8715 50.4624C80.0167 50.4624 80.139 50.5847 80.139 50.7299V50.8904C80.1467 51.0356 80.0244 51.1579 79.8715 51.1579Z" fill="white"/>
<path fill-rule="evenodd" clip-rule="evenodd" d="M47.6301 47.1333H56.3391V47.9333H47.6301V47.1333Z" fill="white"/>
<path fill-rule="evenodd" clip-rule="evenodd" d="M55.939 56.0224C55.939 56.2433 56.1181 56.4224 56.339 56.4224L60.4548 56.4224L60.4548 55.6224L56.739 55.6224L56.739 39.4817L60.4548 39.4817L60.4548 38.6817L56.339 38.6817C56.118 38.6817 55.939 38.8608 55.939 39.0817L55.939 56.0224Z" fill="white"/>
<path d="M69.4775 37.3843H63.9286C63.6917 37.3843 63.4854 37.583 63.4854 37.8276C63.4854 38.0645 63.6841 38.2709 63.9286 38.2709H69.4622C69.7144 38.2556 69.9055 38.0569 69.9055 37.8199C69.9055 37.583 69.7144 37.3843 69.4775 37.3843Z" fill="#54A2F8"/>
<path d="M69.4775 39.2727H63.9286C63.6917 39.2727 63.4854 39.4714 63.4854 39.716C63.4854 39.9606 63.6841 40.1593 63.9286 40.1593H69.4622C69.7144 40.144 69.9055 39.9453 69.9055 39.716C69.9055 39.4791 69.7144 39.2727 69.4775 39.2727Z" fill="#1A5FDC"/>
<path fill-rule="evenodd" clip-rule="evenodd" d="M63.9286 41.3137H66.6954C66.9324 41.3137 67.1387 41.5124 67.1387 41.757C67.1387 41.994 66.94 42.2003 66.6954 42.2003H63.9286C63.6917 42.2003 63.4854 42.0016 63.4854 41.757C63.5006 41.5124 63.6841 41.3137 63.9286 41.3137Z" fill="#013AB7"/>
<circle cx="60.3355" cy="56.082" r="1.46143" fill="white"/>
<circle cx="60.3356" cy="56.0812" r="0.793349" fill="#014988"/>
<circle cx="60.3355" cy="39.1719" r="1.46143" fill="white"/>
<circle cx="60.3356" cy="39.1713" r="0.793349" fill="#014988"/>
<path opacity="0.15" d="M51.5811 62.0067H30.3552C30.2696 62.0079 30.1846 61.992 30.1053 61.9598C30.0259 61.9277 29.9539 61.88 29.8933 61.8194C29.8328 61.7589 29.7851 61.6868 29.753 61.6075C29.7208 61.5282 29.7048 61.4432 29.7061 61.3576V33.928C29.7061 33.6749 29.8068 33.4322 29.9857 33.2532C30.1647 33.0743 30.4074 32.9736 30.6605 32.9736H51.4666C51.6776 32.9761 51.879 33.0618 52.0273 33.2119C52.1756 33.362 52.2587 33.5644 52.2587 33.7754V61.3576C52.2632 61.4465 52.2486 61.5354 52.2157 61.6181C52.1829 61.7008 52.1325 61.7755 52.0682 61.837C52.0039 61.8986 51.9272 61.9456 51.8431 61.9749C51.7591 62.0041 51.6697 62.015 51.5811 62.0067V62.0067Z" fill="#1F1D20"/>
<path d="M51.5717 61.1771H30.3553C30.1781 61.1771 30.0082 61.1066 29.8829 60.9813C29.7576 60.8561 29.6873 60.6862 29.6873 60.509V33.0984C29.6873 32.8453 29.7878 32.6026 29.9668 32.4237C30.1457 32.2447 30.3885 32.144 30.6417 32.144H51.419C51.6341 32.144 51.8405 32.2296 51.9926 32.3817C52.1448 32.5338 52.2303 32.7401 52.2303 32.9553V60.509C52.2329 60.5967 52.2176 60.6839 52.1855 60.7655C52.1535 60.8471 52.1053 60.9214 52.0438 60.9838C51.9822 61.0462 51.9087 61.0955 51.8275 61.1287C51.7464 61.1619 51.6593 61.1784 51.5717 61.1771Z" fill="#ECECEC"/>
<path opacity="0.15" d="M48.6321 64.6419H27.1676C27.025 64.6394 26.889 64.581 26.7891 64.4792C26.6891 64.3775 26.633 64.2404 26.6331 64.0978V37.2695C26.6331 36.8341 26.806 36.4166 27.1139 36.1087C27.4217 35.8009 27.8392 35.6279 28.2746 35.6279H47.63C48.0324 35.6279 48.4184 35.7878 48.703 36.0724C48.9876 36.357 49.1474 36.7429 49.1474 37.1454V64.1264C49.1474 64.2631 49.0932 64.3942 48.9966 64.4909C48.8999 64.5875 48.7688 64.6419 48.6321 64.6419Z" fill="#1F1D20"/>
<g filter="url(#filter1_ddd_753_4871)">
<path d="M48.4889 63.7923H27.3012C27.2135 63.7923 27.1265 63.775 27.0455 63.7414C26.9644 63.7078 26.8908 63.6586 26.8288 63.5966C26.7667 63.5345 26.7175 63.4609 26.684 63.3799C26.6504 63.2988 26.6331 63.212 26.6331 63.1243V35.7137C26.6331 35.4606 26.7337 35.2179 26.9127 35.0389C27.0917 34.8599 27.3343 34.7593 27.5875 34.7593H48.3553C48.5705 34.7593 48.7768 34.8448 48.929 34.9969C49.0811 35.1491 49.1665 35.3555 49.1665 35.5706V63.1243C49.1693 63.2136 49.1535 63.3024 49.1203 63.3854C49.0871 63.4683 49.0371 63.5434 48.9735 63.6061C48.9099 63.6688 48.834 63.7177 48.7506 63.7498C48.6672 63.7818 48.5782 63.7963 48.4889 63.7923Z" fill="url(#paint5_linear_753_4871)"/>
</g>
<path opacity="0.15" d="M49.9534 66.6621C51.1873 66.6594 52.3701 66.1679 53.2426 65.2953C54.1151 64.4228 54.6064 63.2403 54.6091 62.0063C54.6091 60.7716 54.1187 59.5872 53.2456 58.7141C52.3725 57.8409 51.1881 57.3506 49.9534 57.3506C48.7194 57.3533 47.5366 57.8446 46.6641 58.7171C45.7916 59.5896 45.3003 60.7724 45.2976 62.0063C45.2976 62.6177 45.4182 63.2232 45.6522 63.788C45.8862 64.3529 46.2288 64.866 46.6611 65.2984C47.0934 65.7307 47.6071 66.0735 48.1719 66.3075C48.7368 66.5415 49.342 66.6621 49.9534 66.6621V66.6621Z" fill="#1F1D20"/>
<path d="M49.9534 65.5903C51.1881 65.5903 52.3725 65.0997 53.2456 64.2266C54.1187 63.3535 54.6091 62.1693 54.6091 60.9346C54.6091 59.6998 54.1187 58.5157 53.2456 57.6425C52.3725 56.7694 51.1881 56.2788 49.9534 56.2788C48.7194 56.2815 47.5366 56.773 46.6641 57.6456C45.7916 58.5181 45.3003 59.7006 45.2976 60.9346C45.2976 61.546 45.4182 62.1514 45.6522 62.7162C45.8862 63.2811 46.2288 63.7943 46.6611 64.2266C47.0934 64.6589 47.6071 65.002 48.1719 65.236C48.7368 65.47 49.342 65.5903 49.9534 65.5903V65.5903Z" fill="#092D4C"/>
<path d="M50.3859 57.9771H49.5515V63.8894H50.3859V57.9771Z" fill="white"/>
<path d="M52.9302 60.5642H47.0176V61.3883H52.9302V60.5642Z" fill="white"/>
<g filter="url(#filter2_b_753_4871)">
<path d="M34.9612 46.7648V40.1525H36.3749C36.7686 40.1525 37.0907 40.4746 37.0907 40.8683V41.092H38.0616V39.1772H30.4382V41.092H31.4001V40.8683C31.4001 40.4746 31.7222 40.1525 32.1159 40.1525H33.5296V46.7648H32.8317V47.7266H35.6949V46.7648H34.9612Z" fill="url(#paint6_linear_753_4871)"/>
</g>
<path d="M44.4253 41.1772H39.6584C39.4549 41.1772 39.2776 41.348 39.2776 41.5581C39.2776 41.7616 39.4483 41.9389 39.6584 41.9389H44.4122C44.6289 41.9258 44.793 41.7551 44.793 41.5515C44.793 41.348 44.6289 41.1772 44.4253 41.1772Z" fill="#54A2F8"/>
<path d="M44.4253 42.7998H39.6584C39.4549 42.7998 39.2776 42.9705 39.2776 43.1806C39.2776 43.3907 39.4483 43.5615 39.6584 43.5615H44.4122C44.6289 43.5483 44.793 43.3776 44.793 43.1806C44.793 42.9771 44.6289 42.7998 44.4253 42.7998Z" fill="#1A5FDC"/>
<path fill-rule="evenodd" clip-rule="evenodd" d="M39.6584 44.5532H42.0353C42.2389 44.5532 42.4161 44.7239 42.4161 44.9341C42.4161 45.1376 42.2454 45.3149 42.0353 45.3149H39.6584C39.4549 45.3149 39.2776 45.1442 39.2776 44.9341C39.2907 44.7239 39.4483 44.5532 39.6584 44.5532Z" fill="#013AB7"/>
<path d="M47.2888 49.9733H47.2189C47.1517 49.9707 47.0881 49.9422 47.0415 49.8937C46.9949 49.8452 46.9688 49.7805 46.9689 49.7133C46.9675 49.6717 46.9768 49.6306 46.9961 49.5938C47.0154 49.5569 47.0439 49.5258 47.0789 49.5033C47.113 49.4646 47.1575 49.4364 47.207 49.4221C47.2566 49.4079 47.3092 49.4081 47.3587 49.4229C47.4081 49.4376 47.4524 49.4661 47.4861 49.5052C47.5198 49.5443 47.5415 49.5922 47.5488 49.6433V49.7133C47.5503 49.7478 47.5446 49.7822 47.532 49.8144C47.5194 49.8466 47.5003 49.8758 47.4758 49.9003C47.4514 49.9247 47.4222 49.9438 47.39 49.9564C47.3578 49.9689 47.3234 49.9747 47.2888 49.9733Z" fill="url(#paint7_linear_753_4871)"/>
<path d="M46.0486 49.9735H45.8987C45.8397 49.9618 45.7866 49.9299 45.7484 49.8834C45.7103 49.8369 45.6893 49.7786 45.6893 49.7185C45.6893 49.6583 45.7103 49.6001 45.7484 49.5536C45.7866 49.5071 45.8397 49.4752 45.8987 49.4635H46.0486C46.1149 49.4635 46.1786 49.4898 46.2255 49.5367C46.2723 49.5836 46.2986 49.6472 46.2986 49.7135C46.2999 49.7472 46.2946 49.7807 46.2826 49.8122C46.2706 49.8437 46.2524 49.8725 46.229 49.8968C46.2057 49.9211 46.1776 49.9404 46.1466 49.9535C46.1156 49.9667 46.0823 49.9735 46.0486 49.9735V49.9735ZM44.7386 49.9735H44.5886C44.5296 49.9618 44.4765 49.9299 44.4384 49.8834C44.4002 49.8369 44.3794 49.7786 44.3794 49.7185C44.3794 49.6583 44.4002 49.6001 44.4384 49.5536C44.4765 49.5071 44.5296 49.4752 44.5886 49.4635H44.7386C44.8042 49.466 44.8664 49.4931 44.9127 49.5395C44.9591 49.5858 44.9862 49.648 44.9886 49.7135C44.9887 49.7485 44.9816 49.7831 44.9679 49.8154C44.9542 49.8476 44.9341 49.8767 44.9089 49.901C44.8837 49.9253 44.8539 49.9442 44.8212 49.9567C44.7885 49.9691 44.7536 49.9748 44.7186 49.9735H44.7386ZM43.4186 49.9735H43.2787C43.241 49.981 43.202 49.98 43.1647 49.9707C43.1274 49.9614 43.0927 49.9439 43.063 49.9195C43.0333 49.8951 43.0092 49.8644 42.9928 49.8296C42.9764 49.7949 42.9679 49.7569 42.9679 49.7185C42.9679 49.68 42.9764 49.6421 42.9928 49.6073C43.0092 49.5726 43.0333 49.5419 43.063 49.5175C43.0927 49.4931 43.1274 49.4756 43.1647 49.4663C43.202 49.457 43.241 49.456 43.2787 49.4635H43.4186C43.4776 49.4752 43.5307 49.5071 43.5688 49.5536C43.607 49.6001 43.6279 49.6583 43.6279 49.7185C43.6279 49.7786 43.607 49.8369 43.5688 49.8834C43.5307 49.9299 43.4776 49.9618 43.4186 49.9735V49.9735ZM42.1086 49.9735H41.9586C41.8996 49.9618 41.8465 49.9299 41.8083 49.8834C41.7702 49.8369 41.7494 49.7786 41.7494 49.7185C41.7494 49.6583 41.7702 49.6001 41.8083 49.5536C41.8465 49.5071 41.8996 49.4752 41.9586 49.4635H42.1086C42.1676 49.4752 42.2208 49.5071 42.2589 49.5536C42.2971 49.6001 42.3179 49.6583 42.3179 49.7185C42.3179 49.7786 42.2971 49.8369 42.2589 49.8834C42.2208 49.9299 42.1676 49.9618 42.1086 49.9735V49.9735ZM40.7886 49.9735H40.6487C40.611 49.981 40.572 49.98 40.5347 49.9707C40.4974 49.9614 40.4627 49.9439 40.433 49.9195C40.4033 49.8951 40.3792 49.8644 40.3628 49.8296C40.3464 49.7949 40.3379 49.7569 40.3379 49.7185C40.3379 49.68 40.3464 49.6421 40.3628 49.6073C40.3792 49.5726 40.4033 49.5419 40.433 49.5175C40.4627 49.4931 40.4974 49.4756 40.5347 49.4663C40.572 49.457 40.611 49.456 40.6487 49.4635H40.7886C40.8263 49.456 40.8653 49.457 40.9026 49.4663C40.9399 49.4756 40.9746 49.4931 41.0043 49.5175C41.034 49.5419 41.058 49.5726 41.0745 49.6073C41.0909 49.6421 41.0994 49.68 41.0994 49.7185C41.0994 49.7569 41.0909 49.7949 41.0745 49.8296C41.058 49.8644 41.034 49.8951 41.0043 49.9195C40.9746 49.9439 40.9399 49.9614 40.9026 49.9707C40.8653 49.98 40.8263 49.981 40.7886 49.9735V49.9735ZM39.4686 49.9735H39.3186C39.2596 49.9618 39.2065 49.9299 39.1683 49.8834C39.1302 49.8369 39.1094 49.7786 39.1094 49.7185C39.1094 49.6583 39.1302 49.6001 39.1683 49.5536C39.2065 49.5071 39.2596 49.4752 39.3186 49.4635H39.4686C39.5276 49.4752 39.5807 49.5071 39.6189 49.5536C39.6571 49.6001 39.6779 49.6583 39.6779 49.7185C39.6779 49.7786 39.6571 49.8369 39.6189 49.8834C39.5807 49.9299 39.5276 49.9618 39.4686 49.9735V49.9735ZM38.1487 49.9735H38.0087C37.971 49.981 37.9321 49.98 37.8948 49.9707C37.8575 49.9614 37.8227 49.9439 37.793 49.9195C37.7632 49.8951 37.7393 49.8644 37.7229 49.8296C37.7065 49.7949 37.6979 49.7569 37.6979 49.7185C37.6979 49.68 37.7065 49.6421 37.7229 49.6073C37.7393 49.5726 37.7632 49.5419 37.793 49.5175C37.8227 49.4931 37.8575 49.4756 37.8948 49.4663C37.9321 49.457 37.971 49.456 38.0087 49.4635H38.1487C38.1864 49.456 38.2253 49.457 38.2626 49.4663C38.2999 49.4756 38.3345 49.4931 38.3643 49.5175C38.394 49.5419 38.418 49.5726 38.4344 49.6073C38.4509 49.6421 38.4594 49.68 38.4594 49.7185C38.4594 49.7569 38.4509 49.7949 38.4344 49.8296C38.418 49.8644 38.394 49.8951 38.3643 49.9195C38.3345 49.9439 38.2999 49.9614 38.2626 49.9707C38.2253 49.98 38.1864 49.981 38.1487 49.9735V49.9735ZM36.8386 49.9735H36.7186C36.6596 49.9618 36.6065 49.9299 36.5684 49.8834C36.5302 49.8369 36.5094 49.7786 36.5094 49.7185C36.5094 49.6583 36.5302 49.6001 36.5684 49.5536C36.6065 49.5071 36.6596 49.4752 36.7186 49.4635H36.8687C36.9276 49.4752 36.9808 49.5071 37.0189 49.5536C37.0571 49.6001 37.0779 49.6583 37.0779 49.7185C37.0779 49.7786 37.0571 49.8369 37.0189 49.8834C36.9808 49.9299 36.9276 49.9618 36.8687 49.9735H36.8386ZM35.5187 49.9735H35.3787C35.3197 49.9618 35.2665 49.9299 35.2284 49.8834C35.1902 49.8369 35.1693 49.7786 35.1693 49.7185C35.1693 49.6583 35.1902 49.6001 35.2284 49.5536C35.2665 49.5071 35.3197 49.4752 35.3787 49.4635H35.5187C35.5564 49.456 35.5953 49.457 35.6326 49.4663C35.6699 49.4756 35.7045 49.4931 35.7343 49.5175C35.764 49.5419 35.788 49.5726 35.8044 49.6073C35.8209 49.6421 35.8293 49.68 35.8293 49.7185C35.8293 49.7569 35.8209 49.7949 35.8044 49.8296C35.788 49.8644 35.764 49.8951 35.7343 49.9195C35.7045 49.9439 35.6699 49.9614 35.6326 49.9707C35.5953 49.98 35.5564 49.981 35.5187 49.9735V49.9735ZM34.1986 49.9735H34.0586C34.0209 49.981 33.982 49.98 33.9447 49.9707C33.9074 49.9614 33.8726 49.9439 33.8429 49.9195C33.8132 49.8951 33.7893 49.8644 33.7728 49.8296C33.7564 49.7949 33.7479 49.7569 33.7479 49.7185C33.7479 49.68 33.7564 49.6421 33.7728 49.6073C33.7893 49.5726 33.8132 49.5419 33.8429 49.5175C33.8726 49.4931 33.9074 49.4756 33.9447 49.4663C33.982 49.457 34.0209 49.456 34.0586 49.4635H34.1986C34.2659 49.4634 34.3305 49.4894 34.379 49.5361C34.4275 49.5827 34.456 49.6463 34.4586 49.7135C34.4586 49.7476 34.4519 49.7814 34.4388 49.813C34.4258 49.8445 34.4066 49.8732 34.3824 49.8973C34.3583 49.9215 34.3296 49.9407 34.2981 49.9537C34.2666 49.9668 34.2328 49.9735 34.1986 49.9735V49.9735ZM32.8887 49.9735H32.7186C32.6596 49.9618 32.6065 49.9299 32.5684 49.8834C32.5302 49.8369 32.5094 49.7786 32.5094 49.7185C32.5094 49.6583 32.5302 49.6001 32.5684 49.5536C32.6065 49.5071 32.6596 49.4752 32.7186 49.4635H32.8687C32.9276 49.4752 32.9808 49.5071 33.0189 49.5536C33.0571 49.6001 33.0779 49.6583 33.0779 49.7185C33.0779 49.7786 33.0571 49.8369 33.0189 49.8834C32.9808 49.9299 32.9276 49.9618 32.8687 49.9735H32.8887ZM31.5686 49.9735H31.4286C31.3909 49.981 31.352 49.98 31.3147 49.9707C31.2774 49.9614 31.2426 49.9439 31.2129 49.9195C31.1832 49.8951 31.1593 49.8644 31.1428 49.8296C31.1264 49.7949 31.1179 49.7569 31.1179 49.7185C31.1179 49.68 31.1264 49.6421 31.1428 49.6073C31.1593 49.5726 31.1832 49.5419 31.2129 49.5175C31.2426 49.4931 31.2774 49.4756 31.3147 49.4663C31.352 49.457 31.3909 49.456 31.4286 49.4635H31.5686C31.6063 49.456 31.6452 49.457 31.6825 49.4663C31.7198 49.4756 31.7546 49.4931 31.7843 49.5175C31.814 49.5419 31.8379 49.5726 31.8544 49.6073C31.8708 49.6421 31.8794 49.68 31.8794 49.7185C31.8794 49.7569 31.8708 49.7949 31.8544 49.8296C31.8379 49.8644 31.814 49.8951 31.7843 49.9195C31.7546 49.9439 31.7198 49.9614 31.6825 49.9707C31.6452 49.98 31.6063 49.981 31.5686 49.9735V49.9735ZM30.2587 49.9735H30.1086C30.0497 49.9618 29.9965 49.9299 29.9584 49.8834C29.9202 49.8369 29.8994 49.7786 29.8994 49.7185C29.8994 49.6583 29.9202 49.6001 29.9584 49.5536C29.9965 49.5071 30.0497 49.4752 30.1086 49.4635H30.2587C30.3177 49.4752 30.3707 49.5071 30.4088 49.5536C30.447 49.6001 30.4679 49.6583 30.4679 49.7185C30.4679 49.7786 30.447 49.8369 30.4088 49.8834C30.3707 49.9299 30.3177 49.9618 30.2587 49.9735V49.9735Z" fill="url(#paint8_linear_753_4871)"/>
<path d="M28.9388 49.9733H28.8589C28.7917 49.9707 28.728 49.9422 28.6814 49.8937C28.6348 49.8452 28.6088 49.7805 28.6089 49.7133V49.6433C28.6162 49.5922 28.638 49.5443 28.6718 49.5052C28.7055 49.4661 28.7496 49.4376 28.7991 49.4229C28.8485 49.4081 28.9011 49.4079 28.9507 49.4221C29.0003 49.4364 29.0448 49.4646 29.0789 49.5033C29.1125 49.5271 29.1401 49.5585 29.1592 49.595C29.1783 49.6315 29.1885 49.672 29.1888 49.7133C29.1917 49.7473 29.1873 49.7816 29.1759 49.8137C29.1645 49.8459 29.1463 49.8752 29.1227 49.8999C29.099 49.9245 29.0704 49.9438 29.0387 49.9564C29.007 49.9691 28.9729 49.9748 28.9388 49.9733Z" fill="url(#paint9_linear_753_4871)"/>
<path d="M28.8588 48.6934C28.7924 48.6934 28.7289 48.6671 28.682 48.6202C28.6351 48.5734 28.6088 48.5097 28.6088 48.4434V48.2935C28.6012 48.2557 28.6022 48.2169 28.6116 48.1796C28.6209 48.1423 28.6383 48.1075 28.6627 48.0778C28.6871 48.048 28.7178 48.0241 28.7526 48.0077C28.7873 47.9913 28.8253 47.9827 28.8638 47.9827C28.9022 47.9827 28.9402 47.9913 28.975 48.0077C29.0097 48.0241 29.0403 48.048 29.0647 48.0778C29.0891 48.1075 29.1066 48.1423 29.116 48.1796C29.1253 48.2169 29.1263 48.2557 29.1188 48.2935V48.4434C29.1188 48.4771 29.1119 48.5105 29.0987 48.5415C29.0856 48.5725 29.0663 48.6005 29.042 48.6238C29.0177 48.6472 28.989 48.6654 28.9575 48.6774C28.926 48.6893 28.8924 48.6948 28.8588 48.6934ZM28.8588 47.3434C28.7924 47.3434 28.7289 47.3171 28.682 47.2702C28.6351 47.2233 28.6088 47.1597 28.6088 47.0934V46.9434C28.6012 46.9057 28.6022 46.8668 28.6116 46.8295C28.6209 46.7922 28.6383 46.7575 28.6627 46.7278C28.6871 46.6981 28.7178 46.6741 28.7526 46.6577C28.7873 46.6412 28.8253 46.6327 28.8638 46.6327C28.9022 46.6327 28.9402 46.6412 28.975 46.6577C29.0097 46.6741 29.0403 46.6981 29.0647 46.7278C29.0891 46.7575 29.1066 46.7922 29.116 46.8295C29.1253 46.8668 29.1263 46.9057 29.1188 46.9434V47.0934C29.1188 47.1271 29.1119 47.1605 29.0987 47.1915C29.0856 47.2225 29.0663 47.2505 29.042 47.2739C29.0177 47.2972 28.989 47.3154 28.9575 47.3274C28.926 47.3394 28.8924 47.3448 28.8588 47.3434ZM28.8588 45.9935C28.7924 45.9935 28.7289 45.9671 28.682 45.9202C28.6351 45.8733 28.6088 45.8098 28.6088 45.7435V45.5934C28.6012 45.5557 28.6022 45.5168 28.6116 45.4796C28.6209 45.4423 28.6383 45.4075 28.6627 45.3777C28.6871 45.348 28.7178 45.3241 28.7526 45.3077C28.7873 45.2912 28.8253 45.2827 28.8638 45.2827C28.9022 45.2827 28.9402 45.2912 28.975 45.3077C29.0097 45.3241 29.0403 45.348 29.0647 45.3777C29.0891 45.4075 29.1066 45.4423 29.116 45.4796C29.1253 45.5168 29.1263 45.5557 29.1188 45.5934V45.7435C29.1188 45.7772 29.1119 45.8105 29.0987 45.8415C29.0856 45.8725 29.0663 45.9005 29.042 45.9238C29.0177 45.9472 28.989 45.9654 28.9575 45.9774C28.926 45.9893 28.8924 45.9948 28.8588 45.9935ZM28.8588 44.6434C28.7932 44.641 28.731 44.6139 28.6847 44.5675C28.6383 44.5211 28.6112 44.4589 28.6088 44.3934V44.2234C28.6205 44.1645 28.6523 44.1113 28.6988 44.0732C28.7453 44.035 28.8036 44.0142 28.8638 44.0142C28.9239 44.0142 28.9822 44.035 29.0287 44.0732C29.0752 44.1113 29.107 44.1645 29.1188 44.2234V44.3834C29.1202 44.4179 29.1144 44.4524 29.1018 44.4846C29.0892 44.5168 29.0702 44.546 29.0458 44.5704C29.0213 44.5949 28.992 44.614 28.9598 44.6265C28.9276 44.6391 28.8933 44.6448 28.8588 44.6434ZM28.8588 43.2935C28.7932 43.291 28.731 43.2638 28.6847 43.2175C28.6383 43.1711 28.6112 43.109 28.6088 43.0435V42.8834C28.6205 42.8244 28.6523 42.7714 28.6988 42.7332C28.7453 42.6951 28.8036 42.6742 28.8638 42.6742C28.9239 42.6742 28.9822 42.6951 29.0287 42.7332C29.0752 42.7714 29.107 42.8244 29.1188 42.8834V43.0435C29.1188 43.0771 29.1119 43.1105 29.0987 43.1415C29.0856 43.1725 29.0663 43.2005 29.042 43.2239C29.0177 43.2472 28.989 43.2654 28.9575 43.2773C28.926 43.2893 28.8924 43.2948 28.8588 43.2935V43.2935ZM28.8588 41.9434C28.7915 41.9408 28.7279 41.9123 28.6813 41.8638C28.6346 41.8153 28.6087 41.7507 28.6088 41.6835V41.5334C28.6205 41.4745 28.6523 41.4213 28.6988 41.3832C28.7453 41.345 28.8036 41.3242 28.8638 41.3242C28.9239 41.3242 28.9822 41.345 29.0287 41.3832C29.0752 41.4213 29.107 41.4745 29.1188 41.5334V41.6835C29.1202 41.718 29.1144 41.7524 29.1018 41.7846C29.0892 41.8168 29.0702 41.846 29.0458 41.8704C29.0213 41.8949 28.992 41.9139 28.9598 41.9265C28.9276 41.9391 28.8933 41.9448 28.8588 41.9434ZM28.8588 40.6035C28.7915 40.6009 28.7279 40.5723 28.6813 40.5239C28.6346 40.4754 28.6087 40.4107 28.6088 40.3434V40.2234C28.6012 40.1857 28.6022 40.1469 28.6116 40.1096C28.6209 40.0723 28.6383 40.0375 28.6627 40.0078C28.6871 39.978 28.7178 39.9541 28.7526 39.9377C28.7873 39.9212 28.8253 39.9127 28.8638 39.9127C28.9022 39.9127 28.9402 39.9212 28.975 39.9377C29.0097 39.9541 29.0403 39.978 29.0647 40.0078C29.0891 40.0375 29.1066 40.0723 29.116 40.1096C29.1253 40.1469 29.1263 40.1857 29.1188 40.2234V40.3735C29.1114 40.4371 29.0807 40.4958 29.0327 40.5382C28.9847 40.5807 28.9228 40.6039 28.8588 40.6035V40.6035ZM28.8588 39.2435C28.7924 39.2435 28.7289 39.2171 28.682 39.1702C28.6351 39.1233 28.6088 39.0598 28.6088 38.9935V38.8434C28.6012 38.8057 28.6022 38.7668 28.6116 38.7296C28.6209 38.6923 28.6383 38.6575 28.6627 38.6277C28.6871 38.598 28.7178 38.5741 28.7526 38.5577C28.7873 38.5412 28.8253 38.5327 28.8638 38.5327C28.9022 38.5327 28.9402 38.5412 28.975 38.5577C29.0097 38.5741 29.0403 38.598 29.0647 38.6277C29.0891 38.6575 29.1066 38.6923 29.116 38.7296C29.1253 38.7668 29.1263 38.8057 29.1188 38.8434V38.9935C29.1136 39.058 29.0836 39.1181 29.0351 39.1609C28.9866 39.2038 28.9234 39.2262 28.8588 39.2234V39.2435Z" fill="url(#paint10_linear_753_4871)"/>
<path d="M28.8589 37.9039C28.7917 37.9013 28.728 37.8728 28.6814 37.8243C28.6348 37.7759 28.6088 37.7112 28.6089 37.6439V37.5739C28.6088 37.5067 28.6348 37.442 28.6814 37.3936C28.728 37.3451 28.7917 37.3166 28.8589 37.314H28.9388C29.0061 37.3166 29.0697 37.3451 29.1163 37.3936C29.163 37.442 29.1889 37.5067 29.1888 37.5739C29.1903 37.6154 29.1809 37.6567 29.1616 37.6935C29.1423 37.7303 29.1138 37.7615 29.0789 37.7839C29.056 37.8215 29.0236 37.8524 28.985 37.8735C28.9464 37.8945 28.9029 37.9051 28.8589 37.9039Z" fill="url(#paint11_linear_753_4871)"/>
<path d="M46.0488 37.8239H45.8989C45.8326 37.8239 45.7689 37.7976 45.722 37.7507C45.6752 37.7038 45.6489 37.6402 45.6489 37.5739C45.6489 37.5067 45.6748 37.442 45.7214 37.3936C45.7681 37.3451 45.8317 37.3166 45.8989 37.314H46.0488C46.116 37.3166 46.1797 37.3451 46.2263 37.3936C46.2729 37.442 46.2989 37.5067 46.2988 37.5739C46.3002 37.6071 46.2948 37.6403 46.2827 37.6713C46.2707 37.7022 46.2523 37.7303 46.2288 37.7538C46.2053 37.7773 46.1772 37.7957 46.1462 37.8078C46.1153 37.8199 46.082 37.8253 46.0488 37.8239ZM44.7389 37.8239H44.5889C44.5226 37.8239 44.459 37.7976 44.4121 37.7507C44.3652 37.7038 44.3389 37.6402 44.3389 37.5739C44.3388 37.5067 44.3649 37.442 44.4115 37.3936C44.4581 37.3451 44.5217 37.3166 44.5889 37.314H44.7389C44.8061 37.3166 44.8696 37.3451 44.9163 37.3936C44.9629 37.442 44.9889 37.5067 44.9889 37.5739C44.989 37.6085 44.9819 37.6427 44.9681 37.6744C44.9543 37.7062 44.9341 37.7347 44.9087 37.7582C44.8833 37.7817 44.8534 37.7997 44.8207 37.811C44.788 37.8223 44.7533 37.8267 44.7189 37.8239H44.7389ZM43.4188 37.8239H43.2789C43.2117 37.824 43.147 37.798 43.0985 37.7513C43.05 37.7047 43.0215 37.6411 43.0189 37.5739C43.0189 37.505 43.0462 37.4388 43.095 37.3901C43.1437 37.3413 43.21 37.314 43.2789 37.314H43.4188C43.486 37.3166 43.5497 37.3451 43.5963 37.3936C43.6429 37.442 43.6689 37.5067 43.6688 37.5739C43.6688 37.6402 43.6426 37.7038 43.5957 37.7507C43.5488 37.7976 43.4851 37.8239 43.4188 37.8239ZM42.1089 37.8239H41.9589C41.8926 37.8239 41.829 37.7976 41.7821 37.7507C41.7352 37.7038 41.7089 37.6402 41.7089 37.5739C41.7088 37.5067 41.7349 37.442 41.7815 37.3936C41.8281 37.3451 41.8917 37.3166 41.9589 37.314H42.1089C42.1761 37.3166 42.2396 37.3451 42.2863 37.3936C42.3329 37.442 42.3589 37.5067 42.3589 37.5739C42.3589 37.6402 42.3325 37.7038 42.2856 37.7507C42.2388 37.7976 42.1752 37.8239 42.1089 37.8239ZM40.7888 37.8239H40.6489C40.5817 37.824 40.517 37.798 40.4685 37.7513C40.42 37.7047 40.3915 37.6411 40.3889 37.5739C40.3889 37.505 40.4162 37.4388 40.465 37.3901C40.5137 37.3413 40.58 37.314 40.6489 37.314H40.7888C40.8578 37.314 40.924 37.3413 40.9728 37.3901C41.0215 37.4388 41.0488 37.505 41.0488 37.5739C41.0462 37.6411 41.0177 37.7047 40.9692 37.7513C40.9208 37.798 40.8561 37.824 40.7888 37.8239V37.8239ZM39.4689 37.8239H39.3188C39.2525 37.8239 39.189 37.7976 39.1421 37.7507C39.0952 37.7038 39.0688 37.6402 39.0688 37.5739C39.0688 37.5067 39.0949 37.442 39.1415 37.3936C39.1881 37.3451 39.2516 37.3166 39.3188 37.314H39.4689C39.5361 37.3166 39.5996 37.3451 39.6462 37.3936C39.6929 37.442 39.7189 37.5067 39.7189 37.5739C39.7189 37.6402 39.6925 37.7038 39.6456 37.7507C39.5987 37.7976 39.5352 37.8239 39.4689 37.8239V37.8239ZM38.1489 37.8239H38.0089C37.9417 37.824 37.877 37.798 37.8285 37.7513C37.78 37.7047 37.7515 37.6411 37.7489 37.5739C37.7489 37.505 37.7763 37.4388 37.8251 37.3901C37.8738 37.3413 37.94 37.314 38.0089 37.314H38.1489C38.2179 37.314 38.284 37.3413 38.3328 37.3901C38.3815 37.4388 38.4088 37.505 38.4088 37.5739C38.4062 37.6411 38.3777 37.7047 38.3292 37.7513C38.2807 37.798 38.2162 37.824 38.1489 37.8239V37.8239ZM36.8389 37.8239H36.7189C36.6526 37.8239 36.589 37.7976 36.5421 37.7507C36.4952 37.7038 36.4689 37.6402 36.4689 37.5739C36.4688 37.5067 36.4949 37.442 36.5415 37.3936C36.5881 37.3451 36.6517 37.3166 36.7189 37.314H36.8689C36.9361 37.3166 36.9996 37.3451 37.0463 37.3936C37.0929 37.442 37.1189 37.5067 37.1189 37.5739C37.1192 37.6094 37.1118 37.6446 37.0974 37.6771C37.083 37.7095 37.0619 37.7386 37.0354 37.7622C37.0089 37.7859 36.9776 37.8036 36.9437 37.8143C36.9098 37.8249 36.8741 37.8282 36.8389 37.8239V37.8239ZM35.5189 37.8239H35.3789C35.3126 37.8239 35.249 37.7976 35.2021 37.7507C35.1553 37.7038 35.1289 37.6402 35.1289 37.5739C35.1289 37.5067 35.1548 37.442 35.2014 37.3936C35.248 37.3451 35.3117 37.3166 35.3789 37.314H35.5189C35.5879 37.314 35.654 37.3413 35.7028 37.3901C35.7515 37.4388 35.7789 37.505 35.7789 37.5739C35.7763 37.6411 35.7477 37.7047 35.6992 37.7513C35.6507 37.798 35.5862 37.824 35.5189 37.8239V37.8239ZM34.1989 37.8239H34.0588C33.9916 37.824 33.9269 37.798 33.8784 37.7513C33.8299 37.7047 33.8014 37.6411 33.7988 37.5739C33.7988 37.505 33.8262 37.4388 33.875 37.3901C33.9238 37.3413 33.9899 37.314 34.0588 37.314H34.1989C34.2678 37.314 34.3339 37.3413 34.3827 37.3901C34.4314 37.4388 34.4589 37.505 34.4589 37.5739C34.4589 37.6076 34.4521 37.641 34.439 37.672C34.4258 37.703 34.4065 37.731 34.3822 37.7543C34.3579 37.7777 34.3291 37.7959 34.2976 37.8079C34.2661 37.8198 34.2325 37.8253 34.1989 37.8239V37.8239ZM32.8889 37.8239H32.7189C32.6526 37.8239 32.589 37.7976 32.5421 37.7507C32.4952 37.7038 32.4689 37.6402 32.4689 37.5739C32.4688 37.5067 32.4949 37.442 32.5415 37.3936C32.5881 37.3451 32.6517 37.3166 32.7189 37.314H32.8689C32.9361 37.3166 32.9996 37.3451 33.0463 37.3936C33.0929 37.442 33.1189 37.5067 33.1189 37.5739C33.1191 37.6369 33.0955 37.6977 33.0529 37.744C33.0102 37.7904 32.9517 37.8189 32.8889 37.8239V37.8239ZM31.5688 37.8239H31.4288C31.3616 37.824 31.2969 37.798 31.2484 37.7513C31.1999 37.7047 31.1714 37.6411 31.1688 37.5739C31.1688 37.505 31.1962 37.4388 31.245 37.3901C31.2938 37.3413 31.3599 37.314 31.4288 37.314H31.5688C31.6378 37.314 31.7039 37.3413 31.7527 37.3901C31.8014 37.4388 31.8289 37.505 31.8289 37.5739C31.8263 37.6411 31.7977 37.7047 31.7493 37.7513C31.7008 37.798 31.6361 37.824 31.5688 37.8239V37.8239ZM30.2589 37.8239H30.1089C30.0426 37.8239 29.979 37.7976 29.9321 37.7507C29.8852 37.7038 29.8589 37.6402 29.8589 37.5739C29.8588 37.5067 29.8848 37.442 29.9314 37.3936C29.978 37.3451 30.0417 37.3166 30.1089 37.314H30.2589C30.3261 37.3166 30.3897 37.3451 30.4363 37.3936C30.4829 37.442 30.509 37.5067 30.5089 37.5739C30.5089 37.6067 30.5024 37.6393 30.4899 37.6696C30.4773 37.6999 30.4589 37.7275 30.4357 37.7507C30.4125 37.7739 30.3848 37.7924 30.3545 37.8049C30.3242 37.8175 30.2917 37.8239 30.2589 37.8239V37.8239Z" fill="url(#paint12_linear_753_4871)"/>
<path d="M47.2887 37.9039C47.2468 37.9016 47.206 37.8896 47.1696 37.8688C47.1331 37.8479 47.102 37.8189 47.0787 37.7839C47.0451 37.7602 47.0175 37.7287 46.9984 37.6922C46.9793 37.6557 46.9691 37.6151 46.9688 37.5739C46.9687 37.5067 46.9948 37.442 47.0414 37.3936C47.088 37.3451 47.1515 37.3166 47.2188 37.314H47.2887C47.3577 37.314 47.4239 37.3413 47.4727 37.3901C47.5214 37.4388 47.5487 37.505 47.5487 37.5739V37.6439C47.5487 37.7129 47.5214 37.779 47.4727 37.8278C47.4239 37.8765 47.3577 37.9039 47.2887 37.9039V37.9039Z" fill="url(#paint13_linear_753_4871)"/>
<path d="M47.2886 48.6935C47.2223 48.6935 47.1587 48.6672 47.1118 48.6203C47.0649 48.5734 47.0386 48.5098 47.0386 48.4435V48.2935C47.0385 48.2263 47.0646 48.1616 47.1112 48.1131C47.1578 48.0646 47.2214 48.0361 47.2886 48.0335C47.3575 48.0335 47.4238 48.0609 47.4725 48.1097C47.5213 48.1584 47.5486 48.2246 47.5486 48.2935V48.4435C47.5486 48.4772 47.5419 48.5106 47.5287 48.5416C47.5155 48.5726 47.4962 48.6006 47.4719 48.6239C47.4476 48.6473 47.4188 48.6655 47.3873 48.6774C47.3558 48.6894 47.3222 48.6948 47.2886 48.6935ZM47.2886 47.3435C47.2223 47.3435 47.1587 47.3171 47.1118 47.2703C47.0649 47.2234 47.0386 47.1598 47.0386 47.0935V46.9435C47.0385 46.8762 47.0646 46.8116 47.1112 46.7631C47.1578 46.7146 47.2214 46.6861 47.2886 46.6835C47.3575 46.6835 47.4238 46.7109 47.4725 46.7596C47.5213 46.8084 47.5486 46.8745 47.5486 46.9435V47.0935C47.5486 47.1272 47.5419 47.1605 47.5287 47.1915C47.5155 47.2225 47.4962 47.2506 47.4719 47.2739C47.4476 47.2973 47.4188 47.3155 47.3873 47.3275C47.3558 47.3394 47.3222 47.3449 47.2886 47.3435ZM47.2886 45.9935C47.2223 45.9935 47.1587 45.9672 47.1118 45.9203C47.0649 45.8734 47.0386 45.8098 47.0386 45.7435V45.5935C47.0385 45.5262 47.0646 45.4616 47.1112 45.4131C47.1578 45.3646 47.2214 45.3361 47.2886 45.3335C47.3575 45.3335 47.4238 45.3609 47.4725 45.4097C47.5213 45.4584 47.5486 45.5245 47.5486 45.5935V45.7435C47.5486 45.7772 47.5419 45.8106 47.5287 45.8416C47.5155 45.8726 47.4962 45.9005 47.4719 45.9239C47.4476 45.9472 47.4188 45.9655 47.3873 45.9774C47.3558 45.9894 47.3222 45.9949 47.2886 45.9935ZM47.2886 44.6435C47.2223 44.6435 47.1587 44.6172 47.1118 44.5703C47.0649 44.5234 47.0386 44.4598 47.0386 44.3935V44.2235C47.0386 44.1572 47.0649 44.0936 47.1118 44.0468C47.1587 43.9999 47.2223 43.9735 47.2886 43.9735C47.3558 43.9735 47.4205 43.9995 47.469 44.0461C47.5175 44.0927 47.546 44.1563 47.5486 44.2235V44.3835C47.55 44.418 47.5443 44.4525 47.5317 44.4847C47.5192 44.5169 47.5 44.5461 47.4756 44.5705C47.4512 44.5949 47.422 44.614 47.3898 44.6266C47.3576 44.6392 47.3231 44.6449 47.2886 44.6435ZM47.2886 43.2935C47.2223 43.2935 47.1587 43.2672 47.1118 43.2203C47.0649 43.1734 47.0386 43.1098 47.0386 43.0435V42.8835C47.0386 42.8172 47.0649 42.7536 47.1118 42.7067C47.1587 42.6598 47.2223 42.6335 47.2886 42.6335C47.3558 42.6334 47.4205 42.6595 47.469 42.7061C47.5175 42.7527 47.546 42.8163 47.5486 42.8835V43.0435C47.5486 43.0772 47.5419 43.1105 47.5287 43.1415C47.5155 43.1725 47.4962 43.2006 47.4719 43.2239C47.4476 43.2473 47.4188 43.2654 47.3873 43.2774C47.3558 43.2894 47.3222 43.2949 47.2886 43.2935V43.2935ZM47.2886 41.9435C47.2214 41.9409 47.1578 41.9124 47.1112 41.8639C47.0646 41.8154 47.0385 41.7508 47.0386 41.6835V41.5335C47.0386 41.4672 47.0649 41.4036 47.1118 41.3568C47.1587 41.3099 47.2223 41.2835 47.2886 41.2835C47.3558 41.2835 47.4205 41.3095 47.469 41.3561C47.5175 41.4027 47.546 41.4663 47.5486 41.5335V41.6835C47.55 41.7181 47.5443 41.7525 47.5317 41.7847C47.5192 41.8169 47.5 41.8461 47.4756 41.8705C47.4512 41.8949 47.422 41.914 47.3898 41.9266C47.3576 41.9391 47.3231 41.9449 47.2886 41.9435ZM47.2886 40.6035C47.2214 40.6009 47.1578 40.5724 47.1112 40.5239C47.0646 40.4754 47.0385 40.4108 47.0386 40.3435V40.2235C47.0385 40.1563 47.0646 40.0916 47.1112 40.0431C47.1578 39.9946 47.2214 39.9661 47.2886 39.9635C47.3575 39.9635 47.4238 39.9909 47.4725 40.0397C47.5213 40.0884 47.5486 40.1546 47.5486 40.2235V40.3735C47.5412 40.4372 47.5106 40.4958 47.4626 40.5383C47.4147 40.5807 47.3526 40.6039 47.2886 40.6035V40.6035ZM47.2886 39.2435C47.2223 39.2435 47.1587 39.2172 47.1118 39.1703C47.0649 39.1234 47.0386 39.0598 47.0386 38.9935V38.8435C47.0385 38.7762 47.0646 38.7116 47.1112 38.6631C47.1578 38.6146 47.2214 38.5861 47.2886 38.5835C47.3575 38.5835 47.4238 38.6109 47.4725 38.6597C47.5213 38.7084 47.5486 38.7745 47.5486 38.8435V38.9935C47.5435 39.0581 47.5136 39.1181 47.4651 39.161C47.4166 39.2039 47.3533 39.2263 47.2886 39.2235V39.2435Z" fill="url(#paint14_linear_753_4871)"/>
<path d="M32.4586 53.2191L34.3005 53.2191C34.3308 53.2191 34.3545 53.2427 34.3545 53.2727L34.3545 59.5045C34.3545 59.5345 34.3308 59.5581 34.3005 59.5581L32.4586 59.5581L32.4586 59.4509L34.2466 59.4509L34.2466 53.3263L32.4586 53.3263L32.4586 53.2191Z" fill="#78787D"/>
<path d="M32.4997 56.3789L35.6807 56.3789L35.6807 56.2712L32.4997 56.2712L32.4997 56.3789Z" fill="#78787D"/>
<path opacity="0.15" d="M32.9793 53.3763C32.9793 52.8376 32.5449 52.4032 32.0062 52.4032L30.1343 52.4028C29.5956 52.4028 29.1611 52.8373 29.1611 53.376C29.1611 53.9147 29.5956 54.3491 30.1343 54.3491L32.0062 54.3494C32.5362 54.332 32.9793 53.9063 32.9793 53.3763Z" fill="#1F1D20"/>
<path d="M32.9793 53.2464C32.9793 52.7077 32.5449 52.2733 32.0062 52.2733L30.1343 52.2729C29.5956 52.2729 29.1611 52.7074 29.1611 53.2461C29.1611 53.7848 29.5956 54.2192 30.1343 54.2192L32.0062 54.2195C32.5362 54.2022 32.9793 53.7764 32.9793 53.2464Z" fill="#D9EDFF"/>
<g filter="url(#filter3_b_753_4871)">
<path d="M32.0048 54.2278C32.5442 54.2278 32.9813 53.7908 32.9813 53.2514C32.9813 52.7119 32.5442 52.2749 32.0048 52.2749C31.4653 52.2749 31.0283 52.7119 31.0283 53.2514C31.0296 53.7908 31.4666 54.2278 32.0048 54.2278Z" fill="url(#paint15_linear_753_4871)"/>
</g>
<path opacity="0.15" d="M32.9793 56.4324C32.9793 55.8938 32.5449 55.4593 32.0062 55.4593L30.1343 55.459C29.5956 55.459 29.1611 55.8934 29.1611 56.4321C29.1611 56.9708 29.5956 57.4052 30.1343 57.4052L32.0062 57.4056C32.5362 57.3882 32.9793 56.9625 32.9793 56.4324Z" fill="#1F1D20"/>
<path d="M32.9793 56.3026C32.9793 55.7639 32.5449 55.3294 32.0062 55.3294L30.1343 55.3291C29.5956 55.3291 29.1611 55.7635 29.1611 56.3022C29.1611 56.8409 29.5956 57.2754 30.1343 57.2754L32.0062 57.2757C32.5362 57.2583 32.9793 56.8326 32.9793 56.3026Z" fill="#C7E5FF"/>
<g filter="url(#filter4_b_753_4871)">
<path d="M32.0048 57.2862C32.5442 57.2862 32.9813 56.8492 32.9813 56.3097C32.9813 55.7703 32.5442 55.3333 32.0048 55.3333C31.4653 55.3333 31.0283 55.7703 31.0283 56.3097C31.0296 56.8492 31.4666 57.2862 32.0048 57.2862Z" fill="url(#paint16_linear_753_4871)"/>
</g>
<path opacity="0.15" d="M32.9793 59.4869C32.9793 58.9482 32.5449 58.5138 32.0062 58.5138L30.1343 58.5134C29.5956 58.5134 29.1611 58.9479 29.1611 59.4866C29.1611 60.0253 29.5956 60.4597 30.1343 60.4597L32.0062 60.46C32.5362 60.4426 32.9793 60.0169 32.9793 59.4869Z" fill="#1F1D20"/>
<path d="M32.9793 59.357C32.9793 58.8183 32.5449 58.3839 32.0062 58.3839L30.1343 58.3835C29.5956 58.3835 29.1611 58.818 29.1611 59.3567C29.1611 59.8954 29.5956 60.3298 30.1343 60.3298L32.0062 60.3301C32.5362 60.3128 32.9793 59.887 32.9793 59.357Z" fill="#A9D6FE"/>
<g filter="url(#filter5_b_753_4871)">
<path d="M32.0048 60.3372C32.5442 60.3372 32.9813 59.9002 32.9813 59.3607C32.9813 58.8213 32.5442 58.3843 32.0048 58.3843C31.4653 58.3843 31.0283 58.8213 31.0283 59.3607C31.0296 59.9002 31.4666 60.3372 32.0048 60.3372Z" fill="url(#paint17_linear_753_4871)"/>
</g>
<path opacity="0.15" d="M43.7861 60.7764C43.9178 60.7764 44.0222 60.6719 44.0222 60.5402V52.542H35.7947V60.5425C35.7947 60.6742 35.8991 60.7786 36.0309 60.7786L43.7861 60.7764Z" fill="#1F1D20"/>
<path d="M44.02 52.6101V52.4829C44.02 52.3239 43.8928 52.1968 43.7338 52.1968H36.0808C35.9218 52.1968 35.7947 52.3239 35.7947 52.4829V52.6237V52.7532V60.2903C35.7947 60.4493 35.9218 60.5765 36.0808 60.5765H43.7361C43.8951 60.5765 44.0222 60.4493 44.0222 60.2903V52.626C44.0222 52.6192 44.02 52.6169 44.02 52.6101Z" fill="white"/>
<path d="M41.451 54.5963L41.8395 54.2012V53.168H40.6211V54.1946L41.0096 54.5897H41.0162V56.7257H40.6277V59.1972C40.6277 59.5344 40.9005 59.8072 41.2377 59.8072C41.575 59.8072 41.8478 59.5344 41.8478 59.1972V56.7273H41.4477L41.451 54.5963Z" fill="#1A5FDC"/>
<path d="M39.0887 58.3177V55.0443C39.4722 54.8988 39.745 54.5335 39.745 54.1036C39.745 53.692 39.4954 53.3316 39.135 53.1812V54.226H38.3398V53.1812C37.9794 53.3316 37.7297 53.6854 37.7297 54.1036C37.7297 54.5335 38.0025 54.9038 38.3861 55.0443V58.311C38.1315 58.4383 37.9513 58.7062 37.9513 59.0136C37.9513 59.4484 38.3051 59.7973 38.7349 59.7973C39.1697 59.7973 39.5185 59.4435 39.5185 59.0136C39.5235 58.7062 39.3499 58.4449 39.0887 58.3177ZM38.7415 59.2864C38.5911 59.2864 38.4753 59.1641 38.4753 59.0203C38.4753 58.8698 38.5977 58.7541 38.7415 58.7541C38.887 58.7541 39.0077 58.8764 39.0077 59.0203C39.0077 59.1641 38.8853 59.2864 38.7415 59.2864Z" fill="#54A2F8"/>
<defs>
<filter id="filter0_b_753_4871" x="3.41162" y="0.810059" width="101.66" height="101.66" filterUnits="userSpaceOnUse" color-interpolation-filters="sRGB">
<feFlood flood-opacity="0" result="BackgroundImageFix"/>
<feGaussianBlur in="BackgroundImage" stdDeviation="2"/>
<feComposite in2="SourceAlpha" operator="in" result="effect1_backgroundBlur_753_4871"/>
<feBlend mode="normal" in="SourceGraphic" in2="effect1_backgroundBlur_753_4871" result="shape"/>
</filter>
<filter id="filter1_ddd_753_4871" x="0.657741" y="27.5439" width="57.1674" height="47.7936" filterUnits="userSpaceOnUse" color-interpolation-filters="sRGB">
<feFlood flood-opacity="0" result="BackgroundImageFix"/>
<feColorMatrix in="SourceAlpha" type="matrix" values="0 0 0 0 0 0 0 0 0 0 0 0 0 0 0 0 0 0 127 0" result="hardAlpha"/>
<feOffset dx="-5.77229" dy="5.77229"/>
<feGaussianBlur stdDeviation="2.88615"/>
<feComposite in2="hardAlpha" operator="out"/>
<feColorMatrix type="matrix" values="0 0 0 0 0.909804 0 0 0 0 0.901961 0 0 0 0 0.87451 0 0 0 0.6 0"/>
<feBlend mode="multiply" in2="BackgroundImageFix" result="effect1_dropShadow_753_4871"/>
<feColorMatrix in="SourceAlpha" type="matrix" values="0 0 0 0 0 0 0 0 0 0 0 0 0 0 0 0 0 0 127 0" result="hardAlpha"/>
<feOffset dx="-17.3169" dy="2.88615"/>
<feGaussianBlur stdDeviation="4.32922"/>
<feComposite in2="hardAlpha" operator="out"/>
<feColorMatrix type="matrix" values="0 0 0 0 0.909804 0 0 0 0 0.901961 0 0 0 0 0.87451 0 0 0 0.25 0"/>
<feBlend mode="multiply" in2="effect1_dropShadow_753_4871" result="effect2_dropShadow_753_4871"/>
<feColorMatrix in="SourceAlpha" type="matrix" values="0 0 0 0 0 0 0 0 0 0 0 0 0 0 0 0 0 0 127 0" result="hardAlpha"/>
<feOffset dx="2.88615" dy="-1.44307"/>
<feGaussianBlur stdDeviation="2.88615"/>
<feComposite in2="hardAlpha" operator="out"/>
<feColorMatrix type="matrix" values="0 0 0 0 0.909804 0 0 0 0 0.901961 0 0 0 0 0.87451 0 0 0 0.7 0"/>
<feBlend mode="screen" in2="effect2_dropShadow_753_4871" result="effect3_dropShadow_753_4871"/>
<feBlend mode="normal" in="SourceGraphic" in2="effect3_dropShadow_753_4871" result="shape"/>
</filter>
<filter id="filter2_b_753_4871" x="26.4382" y="35.1772" width="15.6233" height="16.5493" filterUnits="userSpaceOnUse" color-interpolation-filters="sRGB">
<feFlood flood-opacity="0" result="BackgroundImageFix"/>
<feGaussianBlur in="BackgroundImage" stdDeviation="2"/>
<feComposite in2="SourceAlpha" operator="in" result="effect1_backgroundBlur_753_4871"/>
<feBlend mode="normal" in="SourceGraphic" in2="effect1_backgroundBlur_753_4871" result="shape"/>
</filter>
<filter id="filter3_b_753_4871" x="27.0283" y="48.2749" width="9.95288" height="9.95288" filterUnits="userSpaceOnUse" color-interpolation-filters="sRGB">
<feFlood flood-opacity="0" result="BackgroundImageFix"/>
<feGaussianBlur in="BackgroundImage" stdDeviation="2"/>
<feComposite in2="SourceAlpha" operator="in" result="effect1_backgroundBlur_753_4871"/>
<feBlend mode="normal" in="SourceGraphic" in2="effect1_backgroundBlur_753_4871" result="shape"/>
</filter>
<filter id="filter4_b_753_4871" x="27.0283" y="51.3333" width="9.95288" height="9.95288" filterUnits="userSpaceOnUse" color-interpolation-filters="sRGB">
<feFlood flood-opacity="0" result="BackgroundImageFix"/>
<feGaussianBlur in="BackgroundImage" stdDeviation="2"/>
<feComposite in2="SourceAlpha" operator="in" result="effect1_backgroundBlur_753_4871"/>
<feBlend mode="normal" in="SourceGraphic" in2="effect1_backgroundBlur_753_4871" result="shape"/>
</filter>
<filter id="filter5_b_753_4871" x="27.0283" y="54.3843" width="9.95288" height="9.95288" filterUnits="userSpaceOnUse" color-interpolation-filters="sRGB">
<feFlood flood-opacity="0" result="BackgroundImageFix"/>
<feGaussianBlur in="BackgroundImage" stdDeviation="2"/>
<feComposite in2="SourceAlpha" operator="in" result="effect1_backgroundBlur_753_4871"/>
<feBlend mode="normal" in="SourceGraphic" in2="effect1_backgroundBlur_753_4871" result="shape"/>
</filter>
<linearGradient id="paint0_linear_753_4871" x1="57.7182" y1="100.578" x2="59.4682" y2="-42.9224" gradientUnits="userSpaceOnUse">
<stop offset="0.203125" stop-color="white"/>
<stop offset="0.630208" stop-color="#F4F3F5"/>
<stop offset="1" stop-color="#E8E6DF"/>
</linearGradient>
<linearGradient id="paint1_linear_753_4871" x1="52.1911" y1="13.2395" x2="53.4679" y2="94.9603" gradientUnits="userSpaceOnUse">
<stop offset="0.2" stop-color="white"/>
<stop offset="0.63" stop-color="#F4F3F5"/>
<stop offset="1" stop-color="#E8E6DF"/>
</linearGradient>
<linearGradient id="paint2_linear_753_4871" x1="50.222" y1="-3.67236" x2="52.972" y2="103.078" gradientUnits="userSpaceOnUse">
<stop stop-color="#69B6FC"/>
<stop offset="0.255208" stop-color="#3182F1"/>
<stop offset="0.609375" stop-color="#1152D4"/>
<stop offset="0.931465" stop-color="#0039B7"/>
</linearGradient>
<linearGradient id="paint3_linear_753_4871" x1="53.7214" y1="79.7807" x2="53.7214" y2="64.7488" gradientUnits="userSpaceOnUse">
<stop offset="0.15" stop-color="#CCCCCC"/>
<stop offset="1" stop-color="#707070"/>
</linearGradient>
<linearGradient id="paint4_linear_753_4871" x1="54.2464" y1="27.4507" x2="54.2464" y2="69.9789" gradientUnits="userSpaceOnUse">
<stop stop-color="#005BA1"/>
<stop offset="0.26" stop-color="#00589D"/>
<stop offset="0.53" stop-color="#004F90"/>
<stop offset="0.8" stop-color="#003F7C"/>
<stop offset="1" stop-color="#003067"/>
</linearGradient>
<linearGradient id="paint5_linear_753_4871" x1="37.8999" y1="34.7593" x2="37.8999" y2="63.793" gradientUnits="userSpaceOnUse">
<stop offset="0.1875" stop-color="white"/>
<stop offset="0.816608" stop-color="#F4F3F5"/>
<stop offset="1" stop-color="#E8E6DF"/>
</linearGradient>
<linearGradient id="paint6_linear_753_4871" x1="34.1708" y1="32.2616" x2="33.7642" y2="50.7323" gradientUnits="userSpaceOnUse">
<stop stop-color="#69B6FC"/>
<stop offset="0.255208" stop-color="#3182F1"/>
<stop offset="0.609375" stop-color="#1152D4"/>
<stop offset="0.931465" stop-color="#0039B7"/>
</linearGradient>
<linearGradient id="paint7_linear_753_4871" x1="47.1089" y1="35.3739" x2="47.2989" y2="54.0331" gradientUnits="userSpaceOnUse">
<stop stop-color="#69B6FC"/>
<stop offset="0.26" stop-color="#3182F1"/>
<stop offset="0.61" stop-color="#1152D4"/>
<stop offset="0.93" stop-color="#0039B7"/>
</linearGradient>
<linearGradient id="paint8_linear_753_4871" x1="37.9386" y1="35.4737" x2="38.1286" y2="54.1234" gradientUnits="userSpaceOnUse">
<stop stop-color="#69B6FC"/>
<stop offset="0.26" stop-color="#3182F1"/>
<stop offset="0.61" stop-color="#1152D4"/>
<stop offset="0.93" stop-color="#0039B7"/>
</linearGradient>
<linearGradient id="paint9_linear_753_4871" x1="28.7589" y1="35.5638" x2="28.9489" y2="54.2231" gradientUnits="userSpaceOnUse">
<stop stop-color="#69B6FC"/>
<stop offset="0.26" stop-color="#3182F1"/>
<stop offset="0.61" stop-color="#1152D4"/>
<stop offset="0.93" stop-color="#0039B7"/>
</linearGradient>
<linearGradient id="paint10_linear_753_4871" x1="28.7788" y1="35.5635" x2="28.9688" y2="54.2234" gradientUnits="userSpaceOnUse">
<stop stop-color="#69B6FC"/>
<stop offset="0.26" stop-color="#3182F1"/>
<stop offset="0.61" stop-color="#1152D4"/>
<stop offset="0.93" stop-color="#0039B7"/>
</linearGradient>
<linearGradient id="paint11_linear_753_4871" x1="28.8789" y1="35.5641" x2="29.0689" y2="54.213" gradientUnits="userSpaceOnUse">
<stop stop-color="#69B6FC"/>
<stop offset="0.26" stop-color="#3182F1"/>
<stop offset="0.61" stop-color="#1152D4"/>
<stop offset="0.93" stop-color="#0039B7"/>
</linearGradient>
<linearGradient id="paint12_linear_753_4871" x1="38.0589" y1="35.4741" x2="38.2488" y2="54.1225" gradientUnits="userSpaceOnUse">
<stop stop-color="#69B6FC"/>
<stop offset="0.26" stop-color="#3182F1"/>
<stop offset="0.61" stop-color="#1152D4"/>
<stop offset="0.93" stop-color="#0039B7"/>
</linearGradient>
<linearGradient id="paint13_linear_753_4871" x1="47.2287" y1="35.3741" x2="47.4187" y2="54.033" gradientUnits="userSpaceOnUse">
<stop stop-color="#69B6FC"/>
<stop offset="0.26" stop-color="#3182F1"/>
<stop offset="0.61" stop-color="#1152D4"/>
<stop offset="0.93" stop-color="#0039B7"/>
</linearGradient>
<linearGradient id="paint14_linear_753_4871" x1="47.2086" y1="35.3735" x2="47.3986" y2="54.0335" gradientUnits="userSpaceOnUse">
<stop stop-color="#69B6FC"/>
<stop offset="0.26" stop-color="#3182F1"/>
<stop offset="0.61" stop-color="#1152D4"/>
<stop offset="0.93" stop-color="#0039B7"/>
</linearGradient>
<linearGradient id="paint15_linear_753_4871" x1="31.9845" y1="50.6952" x2="31.9017" y2="54.9148" gradientUnits="userSpaceOnUse">
<stop stop-color="#69B6FC"/>
<stop offset="0.255208" stop-color="#3182F1"/>
<stop offset="0.609375" stop-color="#1152D4"/>
<stop offset="0.931465" stop-color="#0039B7"/>
</linearGradient>
<linearGradient id="paint16_linear_753_4871" x1="31.9845" y1="53.7535" x2="31.9017" y2="57.9732" gradientUnits="userSpaceOnUse">
<stop stop-color="#69B6FC"/>
<stop offset="0.255208" stop-color="#3182F1"/>
<stop offset="0.609375" stop-color="#1152D4"/>
<stop offset="0.931465" stop-color="#0039B7"/>
</linearGradient>
<linearGradient id="paint17_linear_753_4871" x1="31.9845" y1="56.8045" x2="31.9017" y2="61.0242" gradientUnits="userSpaceOnUse">
<stop stop-color="#69B6FC"/>
<stop offset="0.255208" stop-color="#3182F1"/>
<stop offset="0.609375" stop-color="#1152D4"/>
<stop offset="0.931465" stop-color="#0039B7"/>
</linearGradient>
</defs>
</svg>
