<svg width="181" height="191" viewBox="0 0 181 191" fill="none" xmlns="http://www.w3.org/2000/svg">
<path d="M90.5181 189.385C93.5999 189.38 96.6207 188.525 99.2482 186.915L161.248 149.255C164.035 147.495 166.326 145.052 167.901 142.156C169.476 139.261 170.284 136.011 170.248 132.715V58.005C170.282 54.7097 169.472 51.4604 167.897 48.5657C166.322 45.6709 164.033 43.2267 161.248 41.465L99.2482 3.80493C96.6141 2.21955 93.5976 1.38184 90.5231 1.38184C87.4487 1.38184 84.4323 2.21955 81.7982 3.80493L19.7982 41.485C17.0118 43.2453 14.7221 45.6892 13.1468 48.5842C11.5715 51.4793 10.7629 54.7292 10.7982 58.0249V132.725C10.7797 135.508 11.3543 138.262 12.4837 140.806C13.6131 143.349 15.2714 145.623 17.3482 147.475V147.475L81.7582 186.905C84.3952 188.52 87.4258 189.378 90.5181 189.385V189.385ZM91.1682 8.38501C93.1682 8.38501 95.5982 9.5949 97.3082 10.6449L158.068 47.835C161.818 50.115 163.938 56.715 163.938 61.465L163.308 132.765C163.308 137.515 160.108 141.765 156.308 144.065L95.9081 180.445C92.4781 182.535 89.6882 182.535 86.2482 180.445L25.0382 143.975C21.2882 141.695 18.2681 137.495 18.2681 132.765V59.075C18.3 56.7092 18.9087 54.3869 20.0414 52.3097C21.1742 50.2325 22.7966 48.463 24.7681 47.1549L85.3482 10.595C87.0982 9.55497 89.2182 8.33496 91.1682 8.33496V8.38501Z" fill="url(#paint0_linear_817_25192)"/>
<path fill-rule="evenodd" clip-rule="evenodd" d="M98.4182 11.9159C96.0454 10.4458 93.3095 9.66699 90.5182 9.66699C87.7269 9.66699 84.9911 10.4458 82.6183 11.9159L26.4883 46.246C23.9616 47.8574 21.8885 50.0874 20.4657 52.7249C19.0428 55.3623 18.3175 58.3195 18.3583 61.3159V129.416C18.3184 132.412 19.0443 135.369 20.467 138.006C21.8898 140.643 23.9623 142.874 26.4883 144.486L82.6183 178.816C84.9911 180.286 87.7269 181.065 90.5182 181.065C93.3095 181.065 96.0454 180.286 98.4182 178.816L154.548 144.486C157.073 142.872 159.144 140.642 160.567 138.005C161.989 135.368 162.716 132.412 162.678 129.416V61.3159C162.716 58.32 161.989 55.3639 160.567 52.7269C159.144 50.09 157.073 47.8595 154.548 46.246L98.4182 11.9159Z" fill="url(#paint1_linear_817_25192)"/>
<path d="M22.8282 120.566L32.0582 125.856L22.9081 131.116L18.3082 128.476V129.006L22.4682 131.396L18.7881 133.516L18.9282 133.946L22.9282 131.656L32.1182 136.936L22.9982 142.176L21.3482 141.226L21.5582 141.856L90.0682 181.456L90.4982 181.166L81.1682 175.786L90.4382 170.456L99.6382 175.736L100.048 175.456L90.8981 170.186L100.128 164.876L109.488 170.246L109.718 169.836L100.598 164.616L109.718 159.376L118.958 164.686L119.288 164.326L110.188 159.096L119.388 153.816L128.578 159.096L129.118 158.886L119.828 153.556L129.058 148.256L138.198 153.506L138.738 153.296L129.508 147.996L138.648 142.736L147.798 147.996L148.328 147.786L139.098 142.486L148.328 137.176L157.418 142.406L157.948 142.196L148.768 136.926L157.948 131.646L162.638 134.336V133.846L158.368 131.386L162.908 128.776V128.246L157.908 131.136L148.738 125.866L157.998 120.536L163.178 123.536V123.026L119.878 98.0256L100.618 86.9056L100.428 86.8357L91.0381 81.4156L90.6082 81.1357L18.8282 122.356V122.896L22.8282 120.566ZM23.3582 131.376L32.4982 126.106L41.7182 131.396L32.5482 136.666L23.3582 131.376ZM81.1882 131.376L90.4182 126.076L99.5582 131.316L90.3282 136.626L81.1882 131.376ZM89.8882 136.886L80.6782 142.176L71.5381 136.926L80.7482 131.636L89.8882 136.886ZM90.8882 125.816L100.038 120.556L109.168 125.806L100.018 131.066L90.8882 125.816ZM90.4382 125.556L81.2082 120.256L90.3682 114.996L99.5982 120.296L90.4382 125.556ZM89.9982 125.816L80.7681 131.116L71.5381 125.816L80.7681 120.516L89.9982 125.816ZM80.3182 131.376L71.1082 136.666L61.8782 131.366L71.0882 126.076L80.3182 131.376ZM70.6481 136.936L61.4982 142.196L52.2582 136.896L61.4182 131.626L70.6481 136.936ZM71.0982 137.186L80.2382 142.436L71.0982 147.696L61.9382 142.446L71.0982 137.186ZM80.6782 142.696L89.9081 147.996L80.7781 153.246L71.5381 147.956L80.6782 142.696ZM81.1481 142.426L90.3482 137.136L99.5782 142.436L90.3782 147.736L81.1481 142.426ZM90.7982 136.886L100.018 131.576L109.248 136.876L100.028 142.186L90.7982 136.886ZM100.468 131.316L109.618 126.056L118.848 131.366L109.698 136.626L100.468 131.316ZM110.058 125.806L119.288 120.496L128.518 125.806L119.288 131.106L110.058 125.806ZM109.618 125.546L100.488 120.296L109.718 114.996L118.838 120.246L109.618 125.546ZM100.038 120.046L90.8082 114.736L100.038 109.436L109.268 114.736L100.038 120.046ZM90.3682 114.486L81.2082 109.216L90.4382 103.916L99.5982 109.176L90.3682 114.486ZM89.9182 114.736L80.7681 120.006L71.5982 114.736L80.7582 109.476L89.9182 114.736ZM80.3182 120.256L71.0882 125.556L61.9282 120.296L71.1581 114.996L80.3182 120.256ZM70.6481 125.816L61.4282 131.116L52.2681 125.846L61.4782 120.556L70.6481 125.816ZM60.9782 131.376L51.8082 136.636L42.6382 131.376L51.8282 126.076L60.9782 131.376ZM51.3482 136.906L42.1782 142.176L33.0181 136.906L42.1782 131.646L51.3482 136.906ZM51.7982 137.156L61.0381 142.456L51.8482 147.736L42.6182 142.436L51.7982 137.156ZM61.4782 142.716L70.6282 147.966L61.4282 153.256L52.2881 147.996L61.4782 142.716ZM71.0782 148.216L80.3082 153.516L71.0982 158.816L61.8782 153.506L71.0782 148.216ZM80.7582 153.776L90.0381 159.096L80.8182 164.396L71.5482 159.066L80.7582 153.776ZM81.2282 153.506L90.3582 148.256L99.6282 153.586L90.5082 158.826L81.2282 153.506ZM90.8182 147.986L100.028 142.696L109.298 148.026L100.098 153.316L90.8182 147.986ZM100.468 142.436L109.698 137.136L118.968 142.466L109.738 147.766L100.468 142.436ZM110.138 136.876L119.288 131.616L128.558 136.946L119.418 142.206L110.138 136.876ZM119.738 131.366L128.958 126.056L138.238 131.386L129.008 136.686L119.738 131.366ZM129.408 125.806L138.578 120.526L147.858 125.856L138.678 131.126L129.408 125.806ZM128.958 125.546L119.738 120.246L128.908 114.966L138.138 120.276L128.958 125.546ZM119.288 119.986L110.158 114.736L119.328 109.466L128.458 114.716L119.288 119.986ZM109.718 114.486L100.488 109.176L109.658 103.916L118.888 109.216L109.718 114.486ZM100.038 108.926L90.8782 103.656L100.048 98.3956L109.208 103.656L100.038 108.926ZM90.4382 103.406L81.1682 98.0757L90.3182 92.8057L99.5982 98.1357L90.4382 103.406ZM89.9882 103.656L80.7582 108.966L71.5082 103.646L80.7282 98.3357L89.9882 103.656ZM80.3182 109.216L71.1581 114.486L61.9182 109.176L71.0682 103.906L80.3182 109.216ZM70.7082 114.736L61.4782 120.036L52.2482 114.736L61.4682 109.426L70.7082 114.736ZM61.0381 120.296L51.8182 125.596L42.5982 120.296L51.8082 114.996L61.0381 120.296ZM51.3682 125.856L42.1982 131.126L32.9782 125.836L42.1481 120.556L51.3682 125.856ZM23.3682 142.426L32.4882 137.186L41.6481 142.446L32.5082 147.706L23.3682 142.426ZM32.9482 147.966L42.0982 142.706L51.3182 148.006L42.1481 153.276L32.9482 147.966ZM42.5982 153.536L51.7681 148.266L60.9182 153.516L51.7182 158.806L42.5982 153.536ZM52.1682 159.066L61.3582 153.776L70.5882 159.076L61.3682 164.376L52.1682 159.066ZM61.8182 164.636L71.0381 159.336L80.3082 164.666L71.0682 169.976L61.8182 164.636ZM80.6481 175.516L71.5082 170.236L80.7582 164.916L89.9182 170.186L80.6481 175.516ZM90.3682 169.926L81.2082 164.656L90.4382 159.356L99.6082 164.616L90.3682 169.926ZM100.078 164.346L90.8981 159.086L100.028 153.836L109.188 159.106L100.078 164.346ZM109.658 158.836L100.498 153.566L109.688 148.276L118.858 153.546L109.658 158.836ZM119.308 153.286L110.138 148.026L119.368 142.716L128.528 147.986L119.308 153.286ZM128.978 147.726L119.808 142.466L128.958 137.206L138.128 142.476L128.978 147.726ZM138.568 142.216L129.408 136.946L138.628 131.646L147.798 136.916L138.568 142.216ZM157.418 131.376L148.248 136.656L139.078 131.386L148.248 126.106L157.418 131.376ZM157.508 120.276L148.248 125.596L138.978 120.266L148.258 114.926L157.508 120.276ZM147.818 114.676L138.528 120.016L129.298 114.716L138.608 109.356L147.818 114.676ZM138.168 109.106L128.858 114.456L119.728 109.216L129.068 103.846L138.168 109.106ZM128.618 103.586L119.278 108.956L110.048 103.656L119.418 98.2756L128.618 103.586ZM118.968 98.0156L109.608 103.396L100.438 98.1357L109.828 92.7457L118.968 98.0156ZM109.388 92.4857L99.9982 97.8757L90.7182 92.5557L100.118 87.1357L109.388 92.4857ZM90.5782 81.6257L99.6782 86.8757L90.2681 92.2957L81.1282 87.0457L90.5782 81.6257ZM80.6882 87.3057L89.8282 92.5557L80.6782 97.8257L71.5281 92.5657L80.6882 87.3057ZM71.0782 92.8157L80.2282 98.0757L71.0082 103.386L61.8482 98.1257L71.0782 92.8157ZM61.3981 98.3757L70.5682 103.646L61.4182 108.916L52.2382 103.646L61.3981 98.3757ZM51.7982 103.896L60.9682 109.176L51.7582 114.476L42.5582 109.196L51.7982 103.896ZM42.1182 109.456L51.3082 114.736L42.0982 120.036L32.8981 114.756L42.1182 109.456ZM32.4482 115.006L41.6481 120.296L32.4782 125.586L23.2482 120.286L32.4482 115.006Z" fill="white"/>
<path fill-rule="evenodd" clip-rule="evenodd" d="M90.9482 11.1357C92.6282 11.1357 94.5182 12.0057 96.5782 13.2557L155.058 48.7957C156.95 50.0086 158.501 51.6857 159.561 53.6671C160.622 55.6486 161.158 57.8686 161.118 60.1157V130.596C161.157 132.843 160.621 135.062 159.56 137.044C158.499 139.025 156.95 140.702 155.058 141.916L96.5882 177.456C94.9807 178.713 92.9988 179.396 90.9582 179.396C88.9176 179.396 86.9357 178.713 85.3282 177.456L26.8282 141.926C25.0457 140.972 23.5219 139.599 22.3883 137.926C21.3883 136.326 20.7682 134.106 20.7682 130.646V60.1656C20.7284 57.9185 21.2646 55.6986 22.3253 53.7172C23.386 51.7357 24.9361 50.0587 26.8282 48.8457L85.2882 13.3057C87.3982 12.0157 89.2582 11.1357 90.9482 11.1357ZM98.6582 180.886L157.128 145.346C159.611 143.778 161.65 141.6 163.05 139.019C164.451 136.438 165.166 133.542 165.128 130.606V60.1257C165.166 57.1898 164.451 54.2931 163.05 51.7125C161.65 49.1319 159.611 46.9536 157.128 45.3857L98.6582 9.8457C96.5482 8.5657 93.8382 7.13574 90.9482 7.13574C88.0582 7.13574 85.3383 8.57569 83.2483 9.83569L24.7782 45.3857C22.2956 46.9536 20.2568 49.1319 18.8562 51.7125C17.4556 54.2931 16.7401 57.1898 16.7782 60.1257V130.606C16.6259 133.87 17.3879 137.111 18.9782 139.966C20.4333 142.204 22.4188 144.049 24.7583 145.336L83.2182 180.876C85.453 182.524 88.1566 183.412 90.9332 183.412C93.7098 183.412 96.4134 182.524 98.6482 180.876L98.6582 180.886Z" fill="url(#paint2_linear_817_25192)"/>
<path opacity="0.2" d="M150.811 116.532C149.35 117.871 147.434 118.603 145.453 118.58L81.821 82.1079V86.2476L136.088 117.415V118.721H136.158C136.259 120.932 137.207 123.018 138.807 124.547C140.407 126.076 142.534 126.929 144.747 126.929C146.959 126.929 149.087 126.076 150.687 124.547C152.286 123.018 153.235 120.932 153.335 118.721V113.266C153.335 115.579 152.426 114.943 150.811 116.532Z" fill="#003067"/>
<path d="M153.37 65.8037C153.348 64.2759 152.915 62.7821 152.119 61.4781C151.323 60.174 150.191 59.1074 148.842 58.3893C148.595 58.151 148.427 58.0186 148.392 57.9832L81.821 19.5518V81.4182L152.276 122.198C152.276 120.971 152.276 108.852 152.355 96.2294H153.37V65.8037Z" fill="#092E4C"/>
<path d="M136.158 121.712C136.259 123.923 137.207 126.01 138.807 127.538C140.407 129.067 142.534 129.92 144.747 129.92C146.959 129.92 149.087 129.067 150.687 127.538C152.286 126.01 153.235 123.923 153.335 121.712V65.9453C153.335 68.2325 152.427 70.4259 150.809 72.0432C149.192 73.6605 146.999 74.569 144.711 74.569C142.424 74.569 140.231 73.6605 138.614 72.0432C136.996 70.4259 136.088 68.2325 136.088 65.9453V121.712H136.158Z" fill="url(#paint3_linear_817_25192)"/>
<path d="M97.2766 58.4329C97.3229 58.4605 97.3616 58.4991 97.3893 58.5453C97.417 58.5915 97.4329 58.6439 97.4355 58.6977L97.3649 83.9774C97.3649 84.0745 97.2943 84.1098 97.206 84.0569L86.6581 78.0194C86.6141 77.9892 86.5772 77.95 86.5497 77.9043C86.5223 77.8586 86.5051 77.8075 86.4992 77.7546L86.5963 52.4219C86.5934 52.4024 86.5965 52.3824 86.6053 52.3647C86.614 52.347 86.6279 52.3324 86.6452 52.3228C86.6624 52.3132 86.6822 52.3091 86.7019 52.311C86.7215 52.313 86.7401 52.3209 86.7552 52.3336L97.2766 58.4329ZM97.0471 83.6155L97.1177 58.6977L86.8876 52.7926L86.817 77.7104L97.0471 83.6155Z" fill="white"/>
<path d="M105.335 41.2723C105.38 41.3034 105.418 41.344 105.446 41.3914C105.473 41.4387 105.49 41.4915 105.494 41.546L105.45 57.1957C105.453 57.2153 105.45 57.2352 105.441 57.2529C105.432 57.2706 105.419 57.2853 105.401 57.2948C105.384 57.3044 105.364 57.3085 105.345 57.3066C105.325 57.3047 105.306 57.2968 105.291 57.284L86.7552 46.586C86.711 46.5541 86.674 46.5133 86.6466 46.4661C86.6193 46.419 86.6021 46.3666 86.5963 46.3124L86.6404 30.6626C86.635 30.6424 86.6363 30.621 86.6441 30.6015C86.6519 30.5821 86.6658 30.5657 86.6836 30.5548C86.7015 30.5438 86.7224 30.539 86.7433 30.5409C86.7641 30.5429 86.7838 30.5515 86.7993 30.5655L105.335 41.2723ZM105.132 56.8339L105.177 41.546L86.9494 31.0245V46.3124L105.132 56.8339Z" fill="#95D2E9"/>
<path d="M98.2595 144.72L94.1443 147.139L62.8565 128.96C62.3474 128.684 61.7534 128.684 61.2443 128.96C60.6504 129.299 60.6504 130.169 61.2443 130.508L92.0231 148.369L87.5686 150.978L102.269 153.226L98.2595 144.72Z" fill="#78787D"/>
<path d="M115.142 94.1357L115.142 91.3409L106.92 86.8297L106.92 89.6155L115.142 94.1357Z" fill="#0178D4"/>
<path d="M106.92 59.941L106.92 62.3764L115.142 66.6899L115.142 64.2726L106.92 59.941Z" fill="#31BBEE"/>
<path d="M106.92 81.3063L106.92 83.7417L115.142 88.1631L115.142 85.7457L106.92 81.3063Z" fill="#189AE2"/>
<path d="M106.92 64.83L106.92 67.3373L115.142 71.552L115.142 69.1346L106.92 64.83Z" fill="#26ADE9"/>
<path d="M115.142 61.6675L115.142 58.8727L106.92 54.3614L106.92 57.1472L115.142 61.6675Z" fill="#F173A7"/>
<path d="M106.92 42.5438L106.92 44.9612L115.142 49.3826L115.142 46.9652L106.92 42.5438Z" fill="#FE90BE"/>
<g filter="url(#filter0_d_817_25192)">
<path d="M91.1265 128.875V95.278L62.0182 78.4795L32.9268 95.278V128.875L62.0182 145.674L91.1265 128.875Z" fill="white"/>
</g>
<path d="M127.917 97.9978V96.7852L136.23 101.552V102.765L127.917 97.9978Z" fill="url(#paint4_linear_817_25192)"/>
<path d="M124.447 92.8347V91.6221L136.23 98.4023V99.6912L124.447 92.8347Z" fill="url(#paint5_linear_817_25192)"/>
<path d="M126.949 100.263V99.0508L136.23 104.458V105.671L126.949 100.263Z" fill="url(#paint6_linear_817_25192)"/>
<path d="M136.23 95.4129V96.6255L127.917 91.8664L128.001 90.6538" fill="url(#paint7_linear_817_25192)"/>
<path d="M127.917 83.392V82.187L136.23 87.03V88.235L127.917 83.392Z" fill="url(#paint8_linear_817_25192)"/>
<path d="M124.447 78.2982V77.0093L136.23 83.8733V85.086L124.447 78.2982Z" fill="url(#paint9_linear_817_25192)"/>
<path d="M126.949 85.7267V84.4377L136.23 89.8451V91.0577L126.949 85.7267Z" fill="url(#paint10_linear_817_25192)"/>
<path d="M136.23 80.8001V82.0966L127.917 77.2537L128.001 76.041" fill="url(#paint11_linear_817_25192)"/>
<path d="M127.917 67.5667V66.354L136.23 71.1131V72.3258L127.917 67.5667Z" fill="url(#paint12_linear_817_25192)"/>
<path d="M124.447 56.4246V55.2119L136.314 61.9921L136.23 63.2048L124.447 56.4246Z" fill="url(#paint13_linear_817_25192)"/>
<path d="M124.447 62.3962V61.1836L136.23 67.9638V69.2603L124.447 62.3962Z" fill="url(#paint14_linear_817_25192)"/>
<path d="M126.949 69.825V68.6123L136.23 74.0197V75.2323L126.949 69.825Z" fill="url(#paint15_linear_817_25192)"/>
<path d="M127.917 61.4282L128.001 60.2156L136.23 64.9823V66.1873L127.917 61.4282Z" fill="url(#paint16_linear_817_25192)"/>
<path opacity="0.2" d="M62.1096 104.551L67.7318 101.347L124.779 132.374L118.965 135.579L62.1096 104.551Z" fill="black"/>
<path d="M118.852 68.8782L118.68 132.584L61.8049 101.556L61.9776 37.8503L118.852 68.8782Z" fill="#092E4C"/>
<path d="M118.852 68.8795L124.666 65.675L124.436 129.381L118.622 132.585L118.852 68.8795Z" fill="#122743"/>
<path d="M61.9776 37.8129L67.5998 34.6084L124.647 65.6362L118.833 68.8407L61.9776 37.8129Z" fill="#185A97"/>
<path d="M71.6183 51.9781C71.7776 52.0829 71.9097 52.2239 72.0041 52.3895C72.0985 52.5551 72.1524 52.7407 72.1614 52.9311C72.1614 53.2795 71.9155 53.423 71.6081 53.2488C71.448 53.1439 71.3147 53.0032 71.2186 52.8377C71.1226 52.6723 71.0664 52.4867 71.0546 52.2958C71.0546 51.9781 71.2699 51.8449 71.6183 51.9781Z" fill="#E6F6FC"/>
<path d="M75.369 54.1713C75.5307 54.2743 75.6654 54.4146 75.7617 54.5805C75.858 54.7463 75.9131 54.9328 75.9224 55.1243C75.9224 55.4625 75.6662 55.606 75.369 55.4318C75.2084 55.3275 75.0747 55.1869 74.9785 55.0213C74.8824 54.8558 74.8266 54.6699 74.8156 54.4787C74.7952 54.1405 75.0411 54.0278 75.369 54.1713Z" fill="#DAF2FB"/>
<path d="M79.0889 56.3329C79.25 56.4358 79.3836 56.5763 79.4782 56.7424C79.5728 56.9084 79.6256 57.0949 79.6321 57.2859C79.6321 57.6343 79.3964 57.788 79.0889 57.6036C78.9272 57.5006 78.7926 57.3602 78.6963 57.1944C78.6 57.0286 78.5449 56.8421 78.5356 56.6505C78.5356 56.2919 78.7815 56.1586 79.0889 56.3329Z" fill="#CEEEF9"/>
<path d="M82.8296 58.4954C82.9891 58.5973 83.1218 58.7362 83.2164 58.9003C83.3109 59.0645 83.3645 59.249 83.3726 59.4382C83.3726 59.7969 83.1266 59.9403 82.8192 59.7661C82.6604 59.6585 82.5286 59.5155 82.4343 59.3484C82.3401 59.1812 82.2859 58.9944 82.2761 58.8028C82.2761 58.4543 82.5426 58.3109 82.8296 58.4954Z" fill="#C1E9F8"/>
<path d="M86.5597 60.648C86.7197 60.7529 86.8531 60.8937 86.9491 61.0591C87.0452 61.2246 87.1014 61.4102 87.1131 61.6011C87.1131 61.9598 86.8671 62.1032 86.5597 61.9188C86.3986 61.8152 86.2643 61.6747 86.1681 61.5089C86.0719 61.3432 86.0164 61.1571 86.0063 60.9657C86.0063 60.607 86.2522 60.4738 86.5597 60.648Z" fill="#B5E5F6"/>
<path d="M90.2899 62.8C90.45 62.9048 90.5833 63.0455 90.6793 63.211C90.7755 63.3764 90.8315 63.562 90.8433 63.7529C90.8433 64.1116 90.5973 64.2551 90.2899 64.0706C90.1288 63.967 89.9946 63.8265 89.8983 63.6608C89.8021 63.4951 89.7467 63.309 89.7365 63.1177C89.716 62.7693 89.9825 62.6258 90.2899 62.8Z" fill="#A9E1F5"/>
<path d="M71.5875 60.6071C71.7487 60.7108 71.8829 60.8512 71.9791 61.0169C72.0753 61.1826 72.1308 61.3688 72.1409 61.5601C72.1537 61.629 72.1447 61.7002 72.1153 61.7638C72.0859 61.8273 72.0375 61.8802 71.9768 61.915C71.916 61.95 71.846 61.965 71.7762 61.9584C71.7065 61.9517 71.6406 61.9236 71.5875 61.8778C71.4232 61.7751 71.2868 61.6335 71.1902 61.4656C71.0937 61.2975 71.0401 61.1082 71.0342 60.9146C71.0342 60.5764 71.2699 60.4329 71.5875 60.6071Z" fill="#C6EBF8"/>
<path d="M75.369 62.7594C75.5301 62.8623 75.6637 63.0028 75.7583 63.1688C75.8529 63.3348 75.9057 63.5214 75.9122 63.7124C75.9122 64.0506 75.656 64.2043 75.369 64.0301C75.2053 63.9267 75.0694 63.7849 74.9729 63.617C74.8765 63.4492 74.8225 63.2603 74.8157 63.0668C74.7747 62.7081 75.0206 62.5852 75.369 62.7594Z" fill="#BAE7F7"/>
<path d="M79.0685 64.9206C79.2283 65.0247 79.361 65.1656 79.4555 65.3314C79.55 65.4971 79.6035 65.6831 79.6117 65.8737C79.6117 66.2221 79.3657 66.3656 79.0582 66.1914C78.8963 66.086 78.7617 65.9439 78.6655 65.7763C78.5693 65.6089 78.5142 65.4209 78.5049 65.228C78.5049 64.8898 78.7611 64.7464 79.0685 64.9206Z" fill="#AFE3F6"/>
<path d="M82.7987 67.0826C82.9597 67.184 83.0939 67.3226 83.1902 67.4866C83.2865 67.6507 83.342 67.8355 83.3521 68.0254C83.3521 68.3841 83.1061 68.5275 82.7987 68.3533C82.6374 68.2475 82.5031 68.1051 82.407 67.9378C82.3109 67.7704 82.2555 67.5828 82.2453 67.39C82.2453 67.0518 82.5425 66.8981 82.7987 67.0826Z" fill="#A2DFF4"/>
<path d="M86.5392 69.2355C86.7004 69.3391 86.8345 69.4796 86.9307 69.6454C87.027 69.8111 87.0824 69.9973 87.0926 70.1886C87.0926 70.5473 86.8364 70.6805 86.5289 70.5063C86.3692 70.4021 86.2364 70.2611 86.142 70.0954C86.0475 69.9296 85.994 69.7438 85.9858 69.5532C85.9858 69.2048 86.2317 69.0613 86.5392 69.2355Z" fill="#96DAF3"/>
<path d="M90.2694 71.3874C90.4294 71.4922 90.5628 71.6329 90.6588 71.7984C90.7549 71.9638 90.8111 72.1494 90.8228 72.3405C90.8228 72.6991 90.5667 72.8425 90.2592 72.658C90.0994 72.5539 89.9667 72.4131 89.8722 72.2473C89.7777 72.0816 89.7242 71.8957 89.716 71.7051C89.716 71.3567 89.962 71.2132 90.2694 71.3874Z" fill="#8AD6F1"/>
<path d="M71.6081 56.3124C71.7662 56.4184 71.8975 56.5597 71.9918 56.7251C72.086 56.8905 72.1406 57.0754 72.1512 57.2655C72.1512 57.6139 71.9052 57.7574 71.5978 57.5832C71.4366 57.4795 71.3024 57.3391 71.2062 57.1734C71.11 57.0077 71.0546 56.8215 71.0444 56.6301C71.0444 56.2817 71.2699 56.1382 71.6081 56.3124Z" fill="#D5F0FA"/>
<path d="M75.2869 58.3424C75.4493 58.4448 75.5844 58.5849 75.6807 58.7509C75.7771 58.9169 75.8319 59.1037 75.8404 59.2955C75.8404 59.6336 75.5944 59.7874 75.2869 59.6131C75.1258 59.5095 74.9916 59.369 74.8954 59.2033C74.7992 59.0376 74.7437 58.8514 74.7336 58.6601C74.7336 58.3117 74.9795 58.1272 75.2869 58.3424Z" fill="#CBEDF9"/>
<path d="M79.0787 60.6276C79.2374 60.733 79.3692 60.8741 79.4635 61.0396C79.5578 61.2051 79.6121 61.3904 79.6219 61.5807C79.6219 61.9292 79.3759 62.0828 79.0684 61.8983C78.9073 61.7947 78.7731 61.6542 78.6769 61.4885C78.5807 61.3228 78.5252 61.1367 78.5151 60.9453C78.5151 60.5969 78.7713 60.4534 79.0787 60.6276Z" fill="#BEE8F7"/>
<path d="M82.8089 62.7898C82.9688 62.8925 83.1021 63.0314 83.1983 63.1952C83.2944 63.359 83.3506 63.5431 83.3623 63.7327C83.3623 64.0913 83.1164 64.2348 82.8089 64.0606C82.6471 63.9561 82.5132 63.8138 82.4186 63.646C82.3239 63.4782 82.2715 63.2898 82.2658 63.0973C82.2658 62.7591 82.5425 62.6054 82.8089 62.7898Z" fill="#B2E4F6"/>
<path d="M86.5494 64.9426C86.7094 65.0474 86.8428 65.1882 86.9389 65.3536C87.035 65.5191 87.0911 65.7046 87.1028 65.8956C87.1028 66.2543 86.8569 66.3978 86.5494 66.2133C86.3882 66.1096 86.2541 65.9692 86.1578 65.8035C86.0616 65.6378 86.0062 65.4516 85.996 65.2603C85.996 64.9118 86.242 64.7684 86.5494 64.9426Z" fill="#A6E0F4"/>
<path d="M90.2797 67.0927C90.4392 67.1982 90.5721 67.3391 90.6681 67.5044C90.7641 67.6697 90.8206 67.855 90.8331 68.0457C90.8331 68.4043 90.5769 68.5478 90.2694 68.3634C90.1096 68.2592 89.977 68.1184 89.8825 67.9526C89.788 67.7869 89.7345 67.601 89.7263 67.4104C89.7161 67.062 89.9723 66.9185 90.2797 67.0927Z" fill="#99DCF3"/>
<path d="M71.5773 64.9018C71.7384 65.0055 71.8727 65.146 71.9689 65.3116C72.0651 65.4773 72.1206 65.6635 72.1307 65.8549C72.1435 65.9237 72.1345 65.9949 72.1051 66.0585C72.0757 66.122 72.0273 66.1749 71.9665 66.2097C71.9058 66.2447 71.8357 66.2598 71.766 66.2531C71.6963 66.2464 71.6303 66.2184 71.5773 66.1725C71.413 66.0699 71.2765 65.9283 71.18 65.7603C71.0835 65.5922 71.0299 65.4029 71.0239 65.2092C71.0239 64.8711 71.2699 64.7276 71.5773 64.9018Z" fill="#B7E6F6"/>
<path d="M75.3689 67.0416C75.5271 67.1475 75.6584 67.2887 75.7527 67.4541C75.8469 67.6194 75.9015 67.8045 75.9121 67.9946C75.9249 68.0635 75.9159 68.1345 75.8865 68.1981C75.8571 68.2617 75.8087 68.3146 75.7479 68.3495C75.6872 68.3843 75.6171 68.3995 75.5474 68.3928C75.4777 68.3862 75.4117 68.358 75.3587 68.3123C75.1979 68.2058 75.0641 68.0633 74.9681 67.896C74.872 67.7288 74.8163 67.5415 74.8053 67.349C74.7541 67.0108 75 66.8571 75.3689 67.0416Z" fill="#AAE2F5"/>
<path d="M79.048 69.2153C79.2091 69.3189 79.3433 69.4594 79.4395 69.6251C79.5358 69.7908 79.5912 69.9769 79.6014 70.1683C79.6014 70.5168 79.3554 70.6602 79.048 70.486C78.8861 70.3807 78.7514 70.2385 78.6552 70.071C78.559 69.9035 78.5039 69.7156 78.4946 69.5227C78.4946 69.1845 78.7406 69.0411 79.048 69.2153Z" fill="#9FDDF4"/>
<path d="M82.7884 71.3772C82.9493 71.4778 83.0829 71.6164 83.1776 71.7808C83.2723 71.9451 83.3252 72.1303 83.3315 72.3199C83.3315 72.6786 83.0958 72.8221 82.7884 72.6478C82.6271 72.542 82.4928 72.3996 82.3967 72.2323C82.3006 72.0649 82.2452 71.8773 82.235 71.6845C82.235 71.3361 82.4809 71.1927 82.7884 71.3772Z" fill="#93D9F2"/>
<path d="M86.5289 73.4986C86.6901 73.6023 86.8243 73.7428 86.9205 73.9085C87.0167 74.0741 87.0722 74.2603 87.0823 74.4516C87.0823 74.8001 86.8261 74.9435 86.5187 74.7693C86.3589 74.6652 86.2262 74.5244 86.1317 74.3586C86.0372 74.1929 85.9837 74.0069 85.9755 73.8163C85.9755 73.4986 86.2215 73.3551 86.5289 73.4986Z" fill="#86D5F1"/>
<path d="M90.2489 75.681C90.4114 75.7841 90.5471 75.9242 90.6451 76.0899C90.743 76.2555 90.8004 76.442 90.8125 76.6341C90.8125 76.9927 90.5563 77.126 90.2489 76.9517C90.0891 76.8475 89.9564 76.7067 89.8619 76.541C89.7674 76.3752 89.7139 76.1893 89.7057 75.9987C89.716 75.6503 89.9414 75.5478 90.2489 75.681Z" fill="#7AD1EF"/>
<path d="M71.567 69.1943C71.7264 69.2997 71.8594 69.4406 71.9554 69.606C72.0514 69.7713 72.1079 69.9566 72.1204 70.1473C72.1204 70.4958 71.8642 70.6392 71.567 70.465C71.4047 70.3626 71.2695 70.2226 71.1732 70.0565C71.0768 69.8906 71.0221 69.7037 71.0136 69.512C71.0136 69.1635 71.2698 69.0201 71.567 69.1943Z" fill="#A7E0F5"/>
<path d="M75.3075 71.3362C75.4656 71.4422 75.597 71.5834 75.6913 71.7488C75.7855 71.9141 75.84 72.0992 75.8506 72.2893C75.8634 72.3582 75.8544 72.4292 75.825 72.4928C75.7956 72.5563 75.7472 72.6092 75.6865 72.6441C75.6258 72.6789 75.5557 72.6942 75.486 72.6875C75.4162 72.6809 75.3503 72.6527 75.2973 72.607C75.1365 72.5005 75.0027 72.3579 74.9066 72.1907C74.8106 72.0235 74.7549 71.8361 74.7439 71.6437C74.7439 71.3055 74.9898 71.1518 75.3075 71.3362Z" fill="#9ADCF3"/>
<path d="M79.0378 73.4981C79.1989 73.6018 79.3331 73.7423 79.4293 73.9079C79.5255 74.0736 79.581 74.2598 79.5911 74.4512C79.5911 74.7996 79.3452 74.9431 79.0378 74.7689C78.8766 74.6652 78.7424 74.5247 78.6461 74.359C78.5499 74.1933 78.4945 74.0072 78.4843 73.8158C78.4433 73.4981 78.7303 73.3342 79.0378 73.4981Z" fill="#8FD8F2"/>
<path d="M82.7782 75.6613C82.9383 75.7678 83.0709 75.9105 83.1653 76.0779C83.2597 76.2453 83.3132 76.4327 83.3214 76.6246C83.3214 76.973 83.0754 77.1165 82.768 76.932C82.6083 76.8302 82.4757 76.6912 82.3811 76.5271C82.2865 76.363 82.2329 76.1785 82.2249 75.9893C82.2249 75.6307 82.4708 75.4871 82.7782 75.6613Z" fill="#82D4F0"/>
<path d="M86.5084 77.8229C86.6722 77.9263 86.8082 78.0682 86.9046 78.236C87.001 78.4039 87.0549 78.5927 87.0618 78.7862C87.0618 79.1244 86.8159 79.268 86.5084 79.0938C86.3474 78.9908 86.2138 78.8503 86.1192 78.6843C86.0246 78.5182 85.9718 78.3316 85.9654 78.1407C85.9654 77.7923 86.201 77.6487 86.5084 77.8229Z" fill="#77D0EF"/>
<path d="M90.2386 79.9748C90.4005 80.08 90.5352 80.2222 90.6314 80.3897C90.7277 80.5572 90.7827 80.7451 90.792 80.9381C90.792 81.2763 90.5461 81.4198 90.2386 81.2455C90.0775 81.1418 89.9433 81.0013 89.8471 80.8357C89.7508 80.67 89.6954 80.4838 89.6852 80.2925C89.716 79.9441 89.9312 79.8006 90.2386 79.9748Z" fill="#6BCBED"/>
<path d="M71.5568 73.5002C71.7162 73.6072 71.8484 73.75 71.9427 73.9173C72.037 74.0846 72.0909 74.2717 72.0999 74.4635C72.0999 74.8017 71.854 74.9451 71.5568 74.7709C71.3937 74.6685 71.2575 74.5285 71.1595 74.3628C71.0614 74.1969 71.0044 74.0101 70.9931 73.8179C71.0034 73.5002 71.2698 73.3055 71.5568 73.5002Z" fill="#97DBF3"/>
<path d="M75.2869 75.6309C75.4475 75.7351 75.5813 75.8757 75.6774 76.0413C75.7736 76.2068 75.8294 76.3927 75.8404 76.584C75.8531 76.6528 75.8441 76.7239 75.8147 76.7875C75.7853 76.851 75.7369 76.9039 75.6762 76.9387C75.6154 76.9736 75.5454 76.9889 75.4757 76.9822C75.4059 76.9755 75.34 76.9474 75.2869 76.9017C75.1261 76.7952 74.9924 76.6526 74.8963 76.4854C74.8003 76.3182 74.7446 76.1308 74.7336 75.9384C74.7336 75.6002 74.9795 75.4465 75.2869 75.6309Z" fill="#8BD7F1"/>
<path d="M79.0275 77.7926C79.1885 77.8955 79.3221 78.0361 79.4167 78.2021C79.5114 78.3682 79.5641 78.5547 79.5706 78.7457C79.5706 79.0941 79.3349 79.2376 79.0275 79.0634C78.8652 78.961 78.7301 78.8208 78.6337 78.6549C78.5373 78.4889 78.4826 78.3021 78.4741 78.1103C78.4434 77.7619 78.7201 77.5979 79.0275 77.7926Z" fill="#7FD3F0"/>
<path d="M82.7679 79.9551C82.9283 80.0587 83.0615 80.1994 83.156 80.3652C83.2506 80.5312 83.3038 80.7174 83.3111 80.9082C83.3111 81.2566 83.0651 81.4001 82.7577 81.2259C82.599 81.1205 82.4673 80.9794 82.373 80.8139C82.2786 80.6484 82.2244 80.4631 82.2145 80.2728C82.2145 79.9244 82.4605 79.7707 82.7679 79.9551Z" fill="#73CEEE"/>
<path d="M86.4981 82.1062C86.6601 82.2114 86.7947 82.3537 86.8908 82.5211C86.9871 82.6886 87.0422 82.8765 87.0515 83.0695C87.0515 83.4179 86.8056 83.5511 86.4981 83.3769C86.3384 83.2742 86.205 83.1354 86.1088 82.9716C86.0127 82.8077 85.9565 82.6236 85.9448 82.434C85.9448 82.0753 86.1907 81.932 86.4981 82.1062Z" fill="#67CAED"/>
<path d="M90.2284 84.26C90.3898 84.3658 90.5239 84.5082 90.62 84.6755C90.7162 84.8429 90.7716 85.0305 90.7818 85.2233C90.7818 85.5717 90.5358 85.7151 90.2284 85.5306C90.0686 85.428 89.9353 85.2892 89.8391 85.1253C89.7429 84.9615 89.6868 84.7774 89.675 84.5879C89.716 84.2292 89.9209 84.0857 90.2284 84.26Z" fill="#5AC6EC"/>
<path d="M94.0304 64.9632C94.1922 65.0662 94.3268 65.2066 94.4231 65.3724C94.5194 65.5382 94.5744 65.7247 94.5838 65.9163C94.5838 66.2647 94.3276 66.4082 94.0201 66.234C93.8631 66.1268 93.7326 65.9854 93.6385 65.8202C93.5444 65.6551 93.4891 65.4706 93.477 65.2809C93.477 64.9222 93.7229 64.789 94.0304 64.9632Z" fill="#9CDDF3"/>
<path d="M97.7709 67.1249C97.9326 67.2279 98.0672 67.3682 98.1636 67.534C98.2598 67.6998 98.315 67.8864 98.3242 68.0779C98.3242 68.4264 98.068 68.5698 97.7606 68.3956C97.6 68.2897 97.467 68.1472 97.3725 67.9796C97.278 67.8121 97.2249 67.6245 97.2175 67.4323C97.2175 67.0839 97.4634 66.9507 97.7709 67.1249Z" fill="#91D9F2"/>
<path d="M101.511 69.2871C101.671 69.3891 101.804 69.5279 101.898 69.692C101.993 69.8562 102.046 70.0406 102.054 70.2299C102.054 70.5886 101.808 70.732 101.511 70.5578C101.35 70.452 101.216 70.3095 101.12 70.1422C101.023 69.9748 100.968 69.7872 100.958 69.5945C100.989 69.2358 101.204 69.1026 101.511 69.2871Z" fill="#85D4F1"/>
<path d="M105.242 71.4492C105.399 71.5529 105.531 71.6922 105.625 71.856C105.72 72.0198 105.774 72.2032 105.785 72.3919C105.785 72.7505 105.539 72.8941 105.242 72.7199C105.079 72.6139 104.944 72.4718 104.846 72.3046C104.749 72.1374 104.691 71.9498 104.678 71.7565C104.688 71.4491 104.934 71.2544 105.242 71.4492Z" fill="#79D0EF"/>
<path d="M108.972 73.59C109.134 73.6929 109.268 73.8332 109.365 73.9991C109.461 74.1649 109.516 74.3515 109.525 74.543C109.538 74.6119 109.529 74.6829 109.5 74.7465C109.47 74.8101 109.422 74.863 109.361 74.8978C109.3 74.9327 109.23 74.9479 109.161 74.9412C109.091 74.9346 109.025 74.9064 108.972 74.8607C108.809 74.7567 108.673 74.6147 108.577 74.447C108.48 74.2792 108.426 74.0907 108.418 73.8974C108.418 73.549 108.664 73.4157 108.972 73.59Z" fill="#6CCCEE"/>
<path d="M93.9996 73.5492C94.1608 73.6529 94.2951 73.7933 94.3913 73.959C94.4874 74.1247 94.5429 74.3109 94.553 74.5022C94.553 74.8506 94.307 74.9941 93.9996 74.8199C93.8377 74.7147 93.7031 74.5724 93.6069 74.405C93.5107 74.2375 93.4557 74.0496 93.4462 73.8566C93.4462 73.4979 93.7024 73.375 93.9996 73.5492Z" fill="#7DD2F0"/>
<path d="M97.7401 75.7134C97.9024 75.8158 98.0376 75.9559 98.1339 76.1219C98.2304 76.2879 98.2851 76.4747 98.2935 76.6664C98.2935 77.0149 98.0475 77.1583 97.7401 76.9841C97.5795 76.8784 97.4464 76.7357 97.352 76.5682C97.2575 76.4007 97.2043 76.2131 97.197 76.0208C97.197 75.6724 97.4429 75.5494 97.7401 75.7134Z" fill="#71CEEE"/>
<path d="M101.491 77.864C101.649 77.9699 101.78 78.1111 101.875 78.2765C101.969 78.4419 102.023 78.6269 102.034 78.817C102.034 79.1654 101.788 79.3089 101.481 79.1347C101.318 79.0322 101.183 78.8921 101.087 78.7261C100.99 78.5602 100.936 78.3734 100.927 78.1816C100.927 77.8332 101.183 77.6897 101.491 77.864Z" fill="#65C9ED"/>
<path d="M105.221 80.0264C105.38 80.1295 105.511 80.2687 105.606 80.4326C105.7 80.5965 105.754 80.7803 105.764 80.9691C105.764 81.3278 105.518 81.461 105.211 81.297C105.049 81.1918 104.914 81.0496 104.818 80.8821C104.722 80.7146 104.667 80.5267 104.657 80.3337C104.657 79.9853 104.914 79.8419 105.221 80.0264Z" fill="#59C5EB"/>
<path d="M108.951 82.1774C109.111 82.2829 109.244 82.4238 109.34 82.5891C109.436 82.7545 109.492 82.9398 109.505 83.1306C109.505 83.479 109.249 83.6225 108.951 83.4483C108.788 83.3442 108.653 83.2023 108.556 83.0346C108.46 82.8668 108.406 82.6782 108.398 82.485C108.398 82.1468 108.644 82.0032 108.951 82.1774Z" fill="#4DC1EA"/>
<path d="M94.0099 69.2563C94.1722 69.3588 94.3074 69.499 94.4037 69.6649C94.5 69.8309 94.5549 70.0176 94.5633 70.2094C94.5633 70.5578 94.3173 70.7013 94.0099 70.527C93.8493 70.4213 93.7163 70.2787 93.6218 70.1112C93.5273 69.9436 93.4741 69.756 93.4667 69.5637C93.4667 69.2256 93.7127 69.0821 94.0099 69.2563Z" fill="#8DD7F2"/>
<path d="M97.7606 71.45C97.9218 71.5536 98.056 71.6941 98.1522 71.8598C98.2484 72.0255 98.3038 72.2118 98.314 72.4031C98.314 72.7515 98.0579 72.895 97.7505 72.7208C97.5904 72.6143 97.4578 72.4716 97.3634 72.3042C97.269 72.1368 97.2154 71.9494 97.2072 71.7575C97.2072 71.3885 97.4532 71.2451 97.7606 71.45Z" fill="#81D3F0"/>
<path d="M101.501 73.5807C101.66 73.6839 101.791 73.8232 101.886 73.987C101.98 74.1508 102.034 74.3347 102.044 74.5235C102.044 74.8822 101.798 75.0154 101.491 74.8412C101.329 74.7354 101.195 74.593 101.099 74.4257C101.003 74.2583 100.948 74.0707 100.937 73.8779C100.989 73.4988 101.194 73.3963 101.501 73.5807Z" fill="#75CFEF"/>
<path d="M105.231 75.7337C105.389 75.8374 105.521 75.9767 105.615 76.1405C105.709 76.3043 105.764 76.4877 105.774 76.6764C105.774 77.035 105.528 77.1785 105.221 77.0043C105.061 76.8973 104.928 76.7546 104.831 76.5875C104.735 76.4204 104.679 76.2333 104.668 76.041C104.668 75.6926 104.924 75.5492 105.231 75.7337Z" fill="#69CBED"/>
<path d="M108.962 77.8847C109.123 77.9883 109.257 78.1288 109.353 78.2945C109.449 78.4602 109.505 78.6464 109.515 78.8378C109.528 78.9066 109.519 78.9778 109.489 79.0413C109.46 79.1048 109.412 79.1577 109.351 79.1926C109.29 79.2275 109.22 79.2426 109.15 79.2359C109.081 79.2292 109.015 79.2012 108.962 79.1555C108.8 79.0502 108.665 78.9079 108.569 78.7404C108.473 78.573 108.418 78.385 108.408 78.1922C108.408 77.854 108.654 77.7105 108.962 77.8847Z" fill="#5CC6EC"/>
<path d="M93.9894 77.8437C94.1506 77.9474 94.2849 78.0879 94.381 78.2535C94.4772 78.4192 94.5328 78.6054 94.5428 78.7968C94.5428 79.1452 94.2969 79.2887 93.9894 79.1144C93.8275 79.0092 93.6928 78.8671 93.5967 78.6995C93.5005 78.5321 93.4455 78.3441 93.436 78.1511C93.436 77.813 93.6922 77.6695 93.9894 77.8437Z" fill="#6ECDEE"/>
<path d="M97.7299 79.9964C97.8893 80.1019 98.0222 80.2427 98.1183 80.4081C98.2143 80.5734 98.2707 80.7587 98.2832 80.9495C98.2832 81.3082 98.0373 81.4516 97.7299 81.2672C97.5688 81.1635 97.4345 81.0231 97.3383 80.8574C97.2421 80.6917 97.1866 80.5054 97.1766 80.3141C97.1868 79.9657 97.4327 79.8325 97.7299 79.9964Z" fill="#62C8EC"/>
<path d="M101.47 82.1586C101.631 82.2622 101.766 82.4027 101.862 82.5685C101.958 82.7342 102.014 82.9203 102.024 83.1117C102.037 83.1806 102.028 83.2516 101.998 83.3152C101.969 83.3787 101.92 83.4316 101.86 83.4666C101.799 83.5014 101.729 83.5166 101.659 83.5099C101.589 83.5033 101.523 83.4751 101.47 83.4294C101.308 83.3269 101.173 83.1868 101.077 83.0208C100.98 82.8549 100.925 82.6681 100.917 82.4763C100.917 82.1279 101.163 81.9844 101.47 82.1586Z" fill="#56C4EB"/>
<path d="M105.201 84.3105C105.362 84.4142 105.496 84.5547 105.592 84.7203C105.688 84.886 105.744 85.0722 105.754 85.2635C105.754 85.6222 105.498 85.7554 105.201 85.5812C105.036 85.4809 104.9 85.3412 104.803 85.1748C104.707 85.0085 104.653 84.8205 104.647 84.6282C104.647 84.2798 104.893 84.1363 105.201 84.3105Z" fill="#4BBFE9"/>
<path d="M108.941 86.472C109.099 86.578 109.231 86.7192 109.325 86.8846C109.419 87.05 109.474 87.2351 109.484 87.4251C109.484 87.7735 109.238 87.917 108.941 87.7428C108.778 87.6374 108.643 87.4954 108.545 87.3281C108.447 87.1608 108.39 86.973 108.377 86.7795C108.388 86.431 108.634 86.2978 108.941 86.472Z" fill="#45B9E8"/>
<path d="M93.9792 82.138C94.1403 82.2416 94.2746 82.3821 94.3707 82.5478C94.467 82.7136 94.5224 82.8998 94.5326 83.0911C94.5326 83.4395 94.2764 83.583 93.9689 83.4088C93.8109 83.3028 93.6795 83.1616 93.5852 82.9962C93.491 82.8308 93.4364 82.6457 93.4258 82.4557C93.4258 82.097 93.6717 81.9638 93.9792 82.138Z" fill="#5EC7EC"/>
<path d="M97.7196 84.2898C97.8799 84.3969 98.0132 84.5394 98.1091 84.7065C98.2051 84.8736 98.2612 85.0606 98.273 85.253C98.273 85.6014 98.027 85.745 97.7196 85.5605C97.5581 85.4598 97.4233 85.3213 97.327 85.1571C97.2307 84.993 97.1754 84.8078 97.1662 84.6176C97.1662 84.2589 97.4224 84.1155 97.7196 84.2898Z" fill="#52C3EB"/>
<path d="M101.46 86.4533C101.622 86.5586 101.757 86.7008 101.853 86.8683C101.949 87.0357 102.004 87.2237 102.013 87.4166C102.013 87.7548 101.757 87.8983 101.46 87.7241C101.298 87.6216 101.163 87.4815 101.066 87.3155C100.97 87.1496 100.915 86.9627 100.907 86.771C100.907 86.4226 101.153 86.2791 101.46 86.4533Z" fill="#49BEE9"/>
<path d="M105.19 88.6032C105.352 88.7086 105.487 88.8508 105.583 89.0183C105.679 89.1857 105.734 89.3737 105.744 89.5665C105.744 89.9047 105.488 90.0482 105.19 89.874C105.026 89.7736 104.89 89.6339 104.793 89.4675C104.696 89.3012 104.643 89.1133 104.637 88.9209C104.637 88.5725 104.883 88.429 105.19 88.6032Z" fill="#43B7E7"/>
<path d="M108.931 90.7664C109.089 90.8724 109.22 91.0137 109.315 91.1791C109.409 91.3444 109.463 91.5295 109.474 91.7196C109.474 92.068 109.228 92.2115 108.921 92.0373C108.761 91.9318 108.628 91.7909 108.532 91.6255C108.436 91.4602 108.38 91.275 108.367 91.0841C108.367 90.7255 108.623 90.5922 108.931 90.7664Z" fill="#3CB1E5"/>
<path d="M93.9689 86.4216C94.1301 86.5253 94.2643 86.6658 94.3605 86.8314C94.4567 86.9971 94.5122 87.1833 94.5223 87.3746C94.5223 87.7231 94.2661 87.8665 93.9587 87.6923C93.8005 87.5863 93.6693 87.4451 93.575 87.2797C93.4807 87.1144 93.4261 86.9294 93.4155 86.7393C93.4155 86.3908 93.6615 86.2474 93.9689 86.4216Z" fill="#5DC7EC"/>
<path d="M97.7093 88.5845C97.8705 88.6881 98.0048 88.8287 98.101 88.9945C98.1971 89.1601 98.2527 89.3463 98.2628 89.5376C98.2628 89.886 98.0065 90.0295 97.6991 89.8553C97.5398 89.7505 97.4076 89.6095 97.3133 89.4439C97.2189 89.2782 97.165 89.0927 97.1559 88.9023C97.1559 88.5437 97.4019 88.4103 97.7093 88.5845Z" fill="#47BBE8"/>
<path d="M101.45 90.7368C101.611 90.8425 101.744 90.9852 101.838 91.1527C101.932 91.3203 101.986 91.5079 101.993 91.7001C101.993 92.0382 101.747 92.1817 101.45 92.0075C101.288 91.9051 101.152 91.7649 101.056 91.599C100.96 91.433 100.905 91.2462 100.896 91.0544C100.896 90.706 101.142 90.5625 101.45 90.7368Z" fill="#40B5E6"/>
<path d="M105.18 92.8969C105.342 92.9992 105.476 93.1396 105.57 93.3057C105.665 93.4719 105.718 93.6588 105.723 93.85C105.723 94.1984 105.477 94.3316 105.18 94.1677C105.018 94.0653 104.883 93.9251 104.786 93.7592C104.69 93.5932 104.635 93.4064 104.627 93.2146C104.627 92.8559 104.873 92.7125 105.18 92.8969Z" fill="#3AAFE5"/>
<path d="M108.921 95.0203C109.079 95.1263 109.21 95.2676 109.304 95.4329C109.399 95.5983 109.453 95.7833 109.464 95.9734C109.464 96.3218 109.218 96.4653 108.91 96.291C108.749 96.188 108.614 96.0477 108.518 95.8818C108.421 95.716 108.366 95.5295 108.357 95.338C108.357 95.0203 108.613 94.8768 108.921 95.0203Z" fill="#34A9E3"/>
<path d="M71.5466 77.7724C71.7047 77.8785 71.8361 78.0197 71.9303 78.1851C72.0246 78.3505 72.0791 78.5355 72.0897 78.7255C72.0897 79.0739 71.8438 79.2174 71.5363 79.0431C71.3763 78.9383 71.243 78.7976 71.1469 78.6321C71.0508 78.4667 70.9947 78.2811 70.9829 78.0901C70.9829 77.7417 71.2699 77.5982 71.5466 77.7724Z" fill="#88D6F1"/>
<path d="M75.2768 79.9346C75.4391 80.037 75.5742 80.1771 75.6706 80.3431C75.767 80.509 75.8217 80.6959 75.8302 80.8877C75.8429 80.9565 75.834 81.0276 75.8046 81.0912C75.7752 81.1547 75.7267 81.2076 75.666 81.2424C75.6052 81.2773 75.5352 81.2925 75.4655 81.2858C75.3957 81.2791 75.3298 81.2511 75.2768 81.2054C75.1184 81.0988 74.9863 80.9576 74.8904 80.7925C74.7945 80.6274 74.7374 80.4427 74.7234 80.2523C74.7234 79.9039 74.9693 79.7502 75.2768 79.9346Z" fill="#7CD2F0"/>
<path d="M79.0172 82.0859C79.177 82.19 79.3097 82.3308 79.4041 82.4966C79.4986 82.6623 79.5522 82.8483 79.5604 83.0389C79.5604 83.3874 79.3144 83.5308 79.007 83.3566C78.8458 83.2529 78.7116 83.1124 78.6154 82.9467C78.5192 82.7811 78.4637 82.5949 78.4536 82.4036C78.4433 82.0551 78.7098 81.9117 79.0172 82.0859Z" fill="#70CDEE"/>
<path d="M82.7475 84.2497C82.9093 84.3527 83.044 84.4931 83.1402 84.6589C83.2365 84.8247 83.2915 85.0112 83.3009 85.2028C83.3009 85.5512 83.0549 85.6947 82.7475 85.5205C82.5871 85.4168 82.454 85.2762 82.3594 85.1103C82.2649 84.9444 82.2117 84.7582 82.2043 84.5674C82.2043 84.2087 82.44 84.0653 82.7475 84.2497Z" fill="#63C9ED"/>
<path d="M86.488 86.4008C86.6499 86.5061 86.7845 86.6483 86.8808 86.8158C86.977 86.9833 87.032 87.1713 87.0413 87.3641C87.0413 87.7023 86.7954 87.8458 86.488 87.6716C86.3268 87.568 86.1926 87.4275 86.0964 87.2617C86.0002 87.096 85.9447 86.9098 85.9346 86.7185C85.9346 86.3701 86.1805 86.2266 86.488 86.4008Z" fill="#57C5EB"/>
<path d="M90.2181 88.5529C90.3801 88.6582 90.5147 88.8004 90.6109 88.9679C90.7071 89.1353 90.7622 89.3233 90.7716 89.5162C90.7716 89.8647 90.5256 89.9979 90.2181 89.8237C90.0665 89.7144 89.9423 89.5715 89.8552 89.4062C89.768 89.2408 89.7204 89.0574 89.716 88.8706C89.716 88.5222 89.9107 88.3787 90.2181 88.5529Z" fill="#4CC0EA"/>
<path d="M71.5158 86.3712C71.6769 86.4748 71.8112 86.6153 71.9074 86.781C72.0036 86.9467 72.0591 87.1329 72.0692 87.3242C72.0819 87.3931 72.0729 87.4642 72.0435 87.5279C72.0141 87.5914 71.9657 87.6443 71.905 87.6791C71.8443 87.714 71.7742 87.7291 71.7045 87.7225C71.6348 87.7158 71.5688 87.6876 71.5158 87.6419C71.3528 87.5402 71.2173 87.4002 71.1208 87.2341C71.0244 87.0679 70.97 86.8808 70.9624 86.6889C70.9624 86.3302 71.2083 86.197 71.5158 86.3712Z" fill="#69CBED"/>
<path d="M75.2563 88.5108C75.4173 88.6137 75.5509 88.7542 75.6455 88.9202C75.7401 89.0862 75.7929 89.2728 75.7994 89.4638C75.8098 89.5309 75.7998 89.5995 75.7706 89.6608C75.7415 89.7221 75.6946 89.7732 75.636 89.8075C75.5774 89.8417 75.5099 89.8576 75.4421 89.853C75.3744 89.8483 75.3097 89.8234 75.2563 89.7815C75.0949 89.6772 74.96 89.5367 74.8622 89.3714C74.7644 89.206 74.7064 89.0201 74.6927 88.8285C74.7029 88.48 74.9386 88.3263 75.2563 88.5108Z" fill="#5DC6EC"/>
<path d="M78.9865 90.6844C79.1477 90.788 79.2819 90.9285 79.3781 91.0942C79.4743 91.2598 79.5298 91.446 79.5399 91.6374C79.5399 91.9858 79.294 92.1293 78.9865 91.9551C78.8265 91.8502 78.6931 91.7095 78.5971 91.544C78.501 91.3786 78.4449 91.193 78.4331 91.0021C78.4434 90.6434 78.6791 90.5102 78.9865 90.6844Z" fill="#50C2EA"/>
<path d="M82.7269 92.8458C82.8878 92.9464 83.0214 93.0851 83.1161 93.2495C83.2108 93.4138 83.2637 93.599 83.27 93.7886C83.27 94.1473 83.0343 94.2805 82.7269 94.1063C82.566 94.0049 82.4318 93.8664 82.3354 93.7023C82.2391 93.5382 82.1837 93.3535 82.1735 93.1635C82.1735 92.8048 82.4195 92.6716 82.7269 92.8458Z" fill="#49BDE9"/>
<path d="M86.4674 95.02C86.6275 95.1248 86.7608 95.2656 86.8569 95.431C86.953 95.5965 87.0092 95.782 87.0208 95.973C87.0208 96.3317 86.7646 96.4649 86.4572 96.2907C86.2986 96.1853 86.1668 96.0441 86.0724 95.8786C85.9781 95.7131 85.9239 95.5279 85.9141 95.3377C85.9141 95.02 86.16 94.8253 86.4674 95.02Z" fill="#42B6E7"/>
<path d="M90.1977 97.1516C90.3576 97.2564 90.4911 97.3972 90.5872 97.5626C90.6832 97.7281 90.7394 97.9137 90.7511 98.1046C90.7511 98.4633 90.4949 98.5965 90.1874 98.4223C90.0277 98.3181 89.895 98.1773 89.8005 98.0116C89.706 97.8457 89.6525 97.6599 89.6443 97.4692C89.6443 97.1208 89.8902 96.9773 90.1977 97.1516Z" fill="#3BB0E5"/>
<path d="M71.5363 82.0771C71.6944 82.1831 71.8258 82.3244 71.92 82.4897C72.0143 82.6551 72.0688 82.8401 72.0794 83.0302C72.0794 83.3888 71.8335 83.5221 71.526 83.3478C71.366 83.243 71.2327 83.1022 71.1366 82.9368C71.0405 82.7713 70.9844 82.5857 70.9727 82.3948C70.9727 82.0361 71.2698 81.8926 71.5363 82.0771Z" fill="#77D0EF"/>
<path d="M75.2665 84.2293C75.4288 84.3317 75.5639 84.4719 75.6603 84.6378C75.7567 84.8038 75.8114 84.9906 75.8199 85.1823C75.83 85.2504 75.8191 85.3199 75.7887 85.3816C75.7582 85.4433 75.7097 85.4942 75.6496 85.5276C75.5895 85.561 75.5206 85.5752 75.4521 85.5686C75.3837 85.5618 75.3189 85.5343 75.2665 85.4898C75.1055 85.3884 74.9712 85.2499 74.8749 85.0858C74.7786 84.9217 74.7231 84.737 74.7131 84.547C74.7131 84.1986 74.9488 84.0448 75.2665 84.2293Z" fill="#6CCCEE"/>
<path d="M79.007 86.3906C79.1668 86.4948 79.2995 86.6356 79.394 86.8013C79.4884 86.9671 79.542 87.153 79.5502 87.3436C79.5502 87.7023 79.3042 87.8355 78.9967 87.6613C78.8373 87.5559 78.7044 87.415 78.6084 87.2497C78.5124 87.0843 78.4559 86.8991 78.4434 86.7083C78.4434 86.3496 78.6995 86.2061 79.007 86.3906Z" fill="#61C8EC"/>
<path d="M82.7372 88.5434C82.8986 88.6493 83.0327 88.7917 83.1288 88.9591C83.225 89.1264 83.2804 89.3139 83.2905 89.5067C83.2905 89.8551 83.0446 89.9986 82.7372 89.8141C82.5774 89.7115 82.4441 89.5727 82.3478 89.4088C82.2517 89.2451 82.1956 89.0609 82.1838 88.8713C82.1838 88.5127 82.4297 88.3692 82.7372 88.5434Z" fill="#55C4EB"/>
<path d="M86.4778 90.7056C86.6389 90.8092 86.773 90.9497 86.8693 91.1154C86.9655 91.2811 87.0209 91.4672 87.0311 91.6587C87.0311 92.0173 86.7749 92.1506 86.4675 91.9763C86.3093 91.8704 86.1781 91.7291 86.0838 91.5638C85.9895 91.3984 85.9349 91.2133 85.9243 91.0233C85.9243 90.6749 86.1704 90.5212 86.4778 90.7056Z" fill="#4ABEE9"/>
<path d="M90.2079 92.8577C90.3691 92.9613 90.5034 93.1018 90.5995 93.2675C90.6957 93.4332 90.7513 93.6193 90.7613 93.8108C90.7613 94.1694 90.5051 94.3027 90.1977 94.1285C90.0396 94.0224 89.9083 93.8812 89.814 93.7158C89.7197 93.5504 89.6652 93.3654 89.6545 93.1754C89.6545 92.827 89.9005 92.6732 90.2079 92.8577Z" fill="#44B9E7"/>
<path d="M71.5055 90.665C71.6665 90.7665 71.8008 90.9049 71.8971 91.069C71.9934 91.2331 72.0489 91.4178 72.0589 91.6078C72.0589 91.9665 71.8027 92.0997 71.5055 91.9255C71.3432 91.8231 71.2081 91.6829 71.1117 91.517C71.0153 91.351 70.9606 91.1642 70.9521 90.9725C70.9521 90.6138 71.1981 90.4806 71.5055 90.665Z" fill="#59C5EB"/>
<path d="M75.246 92.8055C75.4058 92.9097 75.5385 93.0505 75.6329 93.2162C75.7274 93.382 75.7809 93.5679 75.7891 93.7585C75.8019 93.8274 75.7929 93.8985 75.7635 93.962C75.7341 94.0256 75.6857 94.0785 75.625 94.1134C75.5642 94.1482 75.4942 94.1634 75.4244 94.1568C75.3547 94.1501 75.2888 94.1219 75.2357 94.0762C75.0773 93.9696 74.9452 93.8284 74.8494 93.6633C74.7535 93.4982 74.6964 93.3136 74.6824 93.1232C74.6824 92.7747 74.9283 92.621 75.246 92.8055Z" fill="#4DC1EA"/>
<path d="M78.9763 95.0197C79.1372 95.1211 79.2715 95.2596 79.3678 95.4237C79.4641 95.5878 79.5196 95.7725 79.5296 95.9625C79.5296 96.3212 79.2837 96.4544 78.9763 96.2802C78.8163 96.1753 78.6829 96.0346 78.5869 95.8691C78.4908 95.7037 78.4346 95.5181 78.4229 95.3272C78.4433 94.9275 78.6688 94.7943 78.9763 95.0197Z" fill="#46BBE8"/>
<path d="M82.7167 97.1312C82.8771 97.2347 83.0103 97.3754 83.1048 97.5413C83.1994 97.7072 83.2526 97.8934 83.2599 98.0842C83.2599 98.4327 83.0139 98.5761 82.7065 98.3917C82.548 98.2885 82.4161 98.1492 82.3218 97.9853C82.2274 97.8216 82.1732 97.6377 82.1633 97.4489C82.1633 97.0697 82.4093 96.957 82.7167 97.1312Z" fill="#40B5E6"/>
<path d="M86.447 99.2926C86.6091 99.3927 86.7444 99.531 86.8408 99.6952C86.9372 99.8596 86.9919 100.045 87.0004 100.235C87.0004 100.594 86.7544 100.727 86.447 100.553C86.2866 100.45 86.1535 100.309 86.059 100.143C85.9644 99.9771 85.9112 99.7907 85.9039 99.6C85.9039 99.2516 86.1395 99.1184 86.447 99.2926Z" fill="#3AAFE4"/>
<path d="M90.1772 101.445C90.3407 101.546 90.4768 101.686 90.5734 101.852C90.6699 102.019 90.7239 102.206 90.7306 102.398C90.7306 102.747 90.4846 102.88 90.1772 102.706C90.0162 102.603 89.8825 102.462 89.788 102.296C89.6934 102.13 89.6405 101.944 89.634 101.753C89.634 101.404 89.8697 101.261 90.1772 101.445Z" fill="#34A9E3"/>
<path d="M71.4953 94.9474C71.6551 95.0516 71.7878 95.1924 71.8822 95.3581C71.9767 95.5239 72.0303 95.7098 72.0384 95.9004C72.0384 96.2591 71.7924 96.3923 71.4953 96.2181C71.3311 96.1177 71.1946 95.978 71.098 95.8117C71.0013 95.6452 70.9477 95.4574 70.9419 95.265C70.9419 94.9064 71.1878 94.7731 71.4953 94.9474Z" fill="#4BBFE9"/>
<path d="M75.2358 97.0696C75.3945 97.175 75.5263 97.3161 75.6206 97.4816C75.7149 97.6471 75.7692 97.8324 75.779 98.0227C75.779 98.3711 75.5227 98.5043 75.2255 98.3301C75.0663 98.2268 74.9334 98.0879 74.8373 97.9242C74.7412 97.7605 74.6847 97.5767 74.6722 97.3873C74.6722 97.0696 74.9181 96.9262 75.2358 97.0696Z" fill="#44B9E8"/>
<path d="M78.966 99.262C79.126 99.3668 79.2594 99.5075 79.3555 99.673C79.4515 99.8384 79.5076 100.024 79.5194 100.215C79.5194 100.574 79.2735 100.717 78.966 100.533C78.8049 100.429 78.6706 100.289 78.5744 100.123C78.4782 99.9572 78.4227 99.771 78.4126 99.5797C78.4433 99.221 78.6586 99.1185 78.966 99.262Z" fill="#3EB3E6"/>
<path d="M82.7065 101.424C82.8668 101.527 83.0001 101.668 83.0945 101.834C83.1891 102 83.2423 102.186 83.2496 102.377C83.2496 102.725 83.0037 102.869 82.6962 102.694C82.5365 102.59 82.4037 102.449 82.3093 102.284C82.2148 102.118 82.1613 101.932 82.1531 101.741C82.1531 101.383 82.399 101.249 82.7065 101.424Z" fill="#38ADE4"/>
<path d="M86.4366 103.578C86.5967 103.683 86.73 103.823 86.826 103.989C86.9222 104.154 86.9783 104.34 86.9901 104.531C86.9901 104.889 86.7441 105.033 86.4366 104.848C86.2749 104.745 86.1403 104.605 86.0439 104.439C85.9477 104.273 85.8926 104.087 85.8832 103.895C85.8935 103.547 86.1292 103.403 86.4366 103.578Z" fill="#31A6E2"/>
<path d="M90.1669 105.738C90.3279 105.839 90.4622 105.978 90.5584 106.142C90.6547 106.306 90.7103 106.491 90.7203 106.681C90.7203 107.04 90.4743 107.183 90.1669 107.009C90.0056 106.903 89.8714 106.76 89.7752 106.593C89.6791 106.426 89.6238 106.238 89.6135 106.045C89.6135 105.697 89.8595 105.554 90.1669 105.738Z" fill="#2BA0E0"/>
<path d="M93.9484 90.7143C94.1109 90.8174 94.2467 90.9575 94.3446 91.1232C94.4426 91.2888 94.4999 91.4753 94.512 91.6674C94.512 92.0158 94.2558 92.1593 93.9484 91.985C93.7902 91.8791 93.6588 91.7379 93.5647 91.5725C93.4704 91.4071 93.4158 91.222 93.4052 91.032C93.4052 90.6836 93.6512 90.5401 93.9484 90.7143Z" fill="#5CC2EB"/>
<path d="M97.6991 92.867C97.8594 92.9741 97.9927 93.1167 98.0888 93.2838C98.1848 93.451 98.2408 93.638 98.2525 93.8303C98.2525 94.1788 97.9964 94.3222 97.689 94.1378C97.5287 94.0365 97.3955 93.8978 97.3009 93.7335C97.2063 93.5692 97.153 93.3844 97.1458 93.195C97.1458 92.8363 97.3917 92.7031 97.6991 92.867Z" fill="#3FB4E6"/>
<path d="M101.44 95.0198C101.599 95.1269 101.731 95.2698 101.826 95.437C101.92 95.6043 101.974 95.7914 101.983 95.9831C101.983 96.3213 101.737 96.4648 101.44 96.2906C101.276 96.1887 101.139 96.0489 101.041 95.883C100.943 95.7171 100.886 95.5301 100.876 95.3375C100.886 95.0198 101.132 94.8559 101.44 95.0198Z" fill="#39AEE4"/>
<path d="M105.17 97.1813C105.329 97.2884 105.462 97.4313 105.556 97.5985C105.65 97.7659 105.704 97.9529 105.713 98.1446C105.713 98.4931 105.467 98.6263 105.16 98.4521C104.999 98.3485 104.864 98.208 104.768 98.0423C104.672 97.8766 104.616 97.6905 104.606 97.499C104.606 97.1506 104.862 97.0071 105.17 97.1813Z" fill="#32A8E2"/>
<path d="M108.9 99.3446C109.061 99.4482 109.195 99.5888 109.292 99.7545C109.388 99.9201 109.443 100.106 109.453 100.298C109.466 100.366 109.457 100.438 109.428 100.501C109.399 100.565 109.35 100.618 109.289 100.652C109.229 100.687 109.159 100.702 109.089 100.696C109.019 100.689 108.953 100.661 108.9 100.615C108.738 100.512 108.604 100.372 108.507 100.206C108.411 100.04 108.356 99.8539 108.347 99.6623C108.347 99.3037 108.593 99.1703 108.9 99.3446Z" fill="#2BA1E0"/>
<path d="M93.9279 99.3126C94.0896 99.4156 94.2243 99.556 94.3206 99.7218C94.4168 99.8876 94.4721 100.074 94.4813 100.266C94.4813 100.614 94.2353 100.747 93.9279 100.573C93.767 100.472 93.6328 100.333 93.5364 100.169C93.4401 100.005 93.3847 99.8203 93.3745 99.6303C93.3745 99.2716 93.6307 99.1179 93.9279 99.3126Z" fill="#35AAE3"/>
<path d="M97.6684 101.476C97.8302 101.579 97.9648 101.72 98.0611 101.885C98.1574 102.051 98.2124 102.238 98.2218 102.429C98.2218 102.778 97.9758 102.911 97.6684 102.737C97.5067 102.634 97.372 102.493 97.2758 102.327C97.1794 102.162 97.1243 101.975 97.115 101.784C97.1252 101.435 97.3712 101.302 97.6684 101.476Z" fill="#2FA4E1"/>
<path d="M101.409 103.637C101.57 103.738 101.704 103.877 101.8 104.041C101.897 104.205 101.952 104.39 101.962 104.58C101.962 104.938 101.706 105.071 101.409 104.897C101.247 104.795 101.111 104.655 101.015 104.489C100.919 104.323 100.864 104.136 100.855 103.944C100.855 103.586 101.101 103.452 101.409 103.637Z" fill="#289EDF"/>
<path d="M105.139 105.79C105.3 105.892 105.434 106.03 105.53 106.194C105.627 106.358 105.682 106.543 105.693 106.733C105.693 107.092 105.436 107.225 105.139 107.051C104.976 106.949 104.841 106.809 104.744 106.643C104.648 106.477 104.593 106.29 104.586 106.098C104.586 105.749 104.832 105.606 105.139 105.79Z" fill="#2197DD"/>
<path d="M108.879 107.941C109.04 108.045 109.173 108.185 109.268 108.351C109.362 108.517 109.415 108.703 109.423 108.894C109.423 109.243 109.177 109.376 108.879 109.202C108.717 109.102 108.582 108.963 108.486 108.799C108.389 108.635 108.335 108.449 108.326 108.259C108.326 107.9 108.572 107.767 108.879 107.941Z" fill="#1B92DC"/>
<path d="M93.9381 95.019C94.0995 95.1248 94.2336 95.2672 94.3298 95.4345C94.4259 95.6019 94.4813 95.7895 94.4915 95.9823C94.4915 96.3307 94.2455 96.4742 93.9381 96.2897C93.78 96.1853 93.6479 96.046 93.5519 95.8826C93.456 95.7191 93.3988 95.5359 93.3847 95.3469C93.395 95.019 93.6409 94.8345 93.9381 95.019Z" fill="#3DB2E6"/>
<path d="M97.6786 97.1718C97.842 97.2766 97.9781 97.4185 98.076 97.5859C98.174 97.7534 98.231 97.9415 98.2423 98.1351C98.2423 98.4836 97.9861 98.6169 97.6786 98.4427C97.5196 98.3401 97.3874 98.201 97.2929 98.0371C97.1984 97.8731 97.1444 97.6888 97.1355 97.4998C97.1355 97.1411 97.3814 96.9976 97.6786 97.1718Z" fill="#37ACE4"/>
<path d="M101.429 99.3326C101.587 99.4386 101.719 99.5798 101.813 99.7452C101.907 99.9106 101.962 100.096 101.972 100.286C101.972 100.644 101.727 100.778 101.419 100.603C101.257 100.5 101.123 100.36 101.026 100.194C100.93 100.028 100.875 99.8419 100.866 99.6503C100.866 99.3019 101.122 99.1174 101.429 99.3326Z" fill="#30A6E2"/>
<path d="M105.16 101.485C105.318 101.591 105.449 101.733 105.543 101.898C105.638 102.063 105.692 102.248 105.703 102.438C105.703 102.797 105.457 102.93 105.149 102.756C104.989 102.652 104.855 102.511 104.759 102.346C104.663 102.18 104.607 101.994 104.596 101.803C104.596 101.455 104.852 101.311 105.16 101.485Z" fill="#2AA0E0"/>
<path d="M108.89 103.647C109.052 103.75 109.186 103.891 109.283 104.057C109.379 104.222 109.434 104.409 109.443 104.6C109.456 104.669 109.447 104.74 109.418 104.804C109.388 104.868 109.34 104.921 109.279 104.955C109.218 104.99 109.148 105.005 109.078 104.999C109.009 104.992 108.943 104.964 108.89 104.918C108.73 104.813 108.597 104.673 108.5 104.507C108.404 104.342 108.348 104.156 108.336 103.965C108.336 103.606 108.582 103.463 108.89 103.647Z" fill="#2399DE"/>
<path d="M93.9176 103.596C94.0788 103.7 94.2131 103.84 94.3092 104.006C94.4054 104.172 94.4609 104.358 94.471 104.549C94.471 104.908 94.2251 105.041 93.9176 104.857C93.7566 104.755 93.6224 104.617 93.5262 104.453C93.4298 104.289 93.3744 104.104 93.3643 103.914C93.3643 103.555 93.6205 103.422 93.9176 103.596Z" fill="#2CA2E1"/>
<path d="M97.6581 105.759C97.8198 105.862 97.9544 106.003 98.0508 106.169C98.1471 106.334 98.2021 106.521 98.2114 106.712C98.2114 107.061 97.9655 107.204 97.6581 107.02C97.4983 106.917 97.365 106.778 97.2687 106.615C97.1726 106.451 97.1165 106.267 97.1047 106.077C97.1047 105.718 97.3609 105.585 97.6581 105.759Z" fill="#269CDF"/>
<path d="M101.399 107.922C101.56 108.023 101.694 108.162 101.79 108.326C101.886 108.49 101.942 108.675 101.952 108.865C101.952 109.223 101.696 109.357 101.399 109.182C101.237 109.079 101.102 108.939 101.006 108.773C100.91 108.607 100.855 108.421 100.845 108.229C100.845 107.881 101.091 107.737 101.399 107.922Z" fill="#1F96DD"/>
<path d="M105.088 110.073C105.25 110.176 105.384 110.316 105.481 110.482C105.577 110.648 105.632 110.835 105.641 111.026C105.641 111.375 105.385 111.508 105.088 111.334C104.925 111.232 104.789 111.092 104.693 110.926C104.596 110.76 104.542 110.572 104.534 110.381C104.575 110.032 104.821 109.899 105.088 110.073Z" fill="#1990DB"/>
<path d="M108.869 112.225C109.027 112.331 109.159 112.472 109.253 112.637C109.347 112.803 109.402 112.988 109.412 113.178C109.412 113.526 109.166 113.67 108.859 113.495C108.7 113.39 108.567 113.249 108.471 113.084C108.375 112.918 108.318 112.733 108.306 112.542C108.306 112.184 108.562 112.05 108.869 112.225Z" fill="#1289D9"/>
<path d="M93.9075 107.891C94.0692 107.994 94.2039 108.134 94.3001 108.3C94.3964 108.466 94.4514 108.652 94.4608 108.844C94.4608 109.192 94.2046 109.336 93.8971 109.162C93.739 109.056 93.6077 108.915 93.5135 108.749C93.4192 108.584 93.3646 108.399 93.354 108.209C93.354 107.85 93.6001 107.717 93.9075 107.891Z" fill="#249ADE"/>
<path d="M97.6479 110.054C97.8096 110.157 97.9442 110.297 98.0406 110.463C98.1369 110.629 98.192 110.816 98.2014 111.007C98.2014 111.356 97.9553 111.499 97.6479 111.325C97.4855 111.222 97.3505 111.082 97.254 110.916C97.1577 110.75 97.103 110.563 97.0945 110.372C97.0945 110.013 97.3507 109.88 97.6479 110.054Z" fill="#1E94DD"/>
<path d="M101.388 112.215C101.548 112.318 101.681 112.457 101.777 112.62C101.873 112.784 101.929 112.968 101.942 113.157C101.942 113.516 101.686 113.66 101.388 113.485C101.226 113.38 101.092 113.238 100.996 113.07C100.899 112.903 100.844 112.715 100.835 112.522C100.835 112.174 101.081 112.03 101.388 112.215Z" fill="#178EDB"/>
<path d="M105.088 114.368C105.247 114.469 105.38 114.608 105.475 114.772C105.569 114.937 105.623 115.121 105.631 115.31C105.631 115.669 105.385 115.812 105.088 115.638C104.924 115.535 104.788 115.393 104.692 115.225C104.595 115.057 104.541 114.868 104.534 114.675C104.565 114.326 104.811 114.193 105.088 114.368Z" fill="#1088D9"/>
<path d="M108.859 116.54C109.018 116.645 109.15 116.786 109.245 116.951C109.339 117.117 109.393 117.303 109.402 117.493C109.402 117.841 109.156 117.985 108.849 117.811C108.686 117.708 108.551 117.568 108.455 117.402C108.359 117.236 108.304 117.049 108.295 116.858C108.295 116.478 108.552 116.345 108.859 116.54Z" fill="#0A81D7"/>
<path d="M115.722 84.2814L115.665 94.9536L100.797 86.7049L100.858 76.0327L115.722 84.2814Z" fill="#F173A7"/>
<path d="M115.722 84.2826L116.991 83.4966V94.1688L115.665 94.9547L115.722 84.2826Z" fill="#E86299"/>
<path d="M100.854 76.0331L102.185 75.2471L116.991 83.4958L115.722 84.2818L100.854 76.0331Z" fill="#FE90BE"/>
<path opacity="0.1" d="M100.854 88.7228L102.185 87.9368L116.991 96.1855L115.722 96.9715L100.854 88.7228Z" fill="#1F1D20"/>
<path d="M111.649 88.2119V89.2967L104.473 85.1376V84.0527L111.649 88.2119Z" fill="#FFCBE1"/>
<path d="M112.554 86.222V87.3069L104.477 82.6032V81.5798L112.554 86.222Z" fill="white"/>
<path d="M115.722 100.526L115.665 111.198L100.797 102.949L100.858 92.2769L115.722 100.526Z" fill="#CF3071"/>
<path d="M115.722 100.527L116.991 99.7407V110.413L115.665 111.199L115.722 100.527Z" fill="#C12664"/>
<path d="M100.854 92.2772L102.185 91.4912L116.991 99.7399L115.722 100.526L100.854 92.2772Z" fill="#E86299"/>
<path opacity="0.1" d="M100.854 104.967L102.185 104.181L116.991 112.43L115.722 113.216L100.854 104.967Z" fill="#1F1D20"/>
<path d="M111.649 104.456V105.541L104.473 101.382V100.297L111.649 104.456Z" fill="#FFCBE1"/>
<path d="M112.554 102.466V103.551L104.477 98.8474V97.824L112.554 102.466Z" fill="white"/>
<path d="M92.4505 92.7239V128.031L62.0826 145.819V110.511L92.4505 92.7239Z" fill="#C12664"/>
<path d="M92.4505 92.7233L61.9854 110.535L31.5202 92.7233L61.9854 75.0088L92.4505 92.7233Z" fill="#FE90BE"/>
<g opacity="0.15" filter="url(#filter1_d_817_25192)">
<path d="M92.4505 129.71L61.9854 147.522L31.5202 129.71L61.9854 111.995L92.4505 129.71Z" fill="#1F1D20"/>
</g>
<path d="M62.0828 110.511V145.819L31.6176 128.007V92.7239L62.0828 110.511Z" fill="#F173A7"/>
<path d="M31.6176 127.911L62.0828 110.318V145.625L31.6176 127.911Z" fill="#E86299"/>
<path d="M92.4504 127.911L61.9853 110.318V145.625L92.4504 127.911Z" fill="#CF3071"/>
<path opacity="0.15" d="M90.4569 138.387C95.1395 138.387 98.9441 134.594 98.9441 129.899C98.9324 125.217 95.1278 121.436 90.4569 121.436C85.786 121.436 81.9697 125.228 81.9697 129.923C81.9697 134.605 85.7626 138.387 90.4569 138.387Z" fill="#1F1D20"/>
<path d="M90.4569 137.287C95.1395 137.287 98.9441 133.494 98.9441 128.799C98.9324 124.117 95.1278 120.336 90.4569 120.336C85.786 120.336 81.9697 124.129 81.9697 128.823C81.9697 133.505 85.7626 137.287 90.4569 137.287Z" fill="#1A2C45"/>
<path d="M91.124 123.835H89.731V133.762H91.124V123.835Z" fill="white"/>
<path d="M95.3856 128.18H85.4702V129.573H95.3973L95.3856 128.18Z" fill="white"/>
<path d="M50.417 108.934L50.41 112.051L34.587 102.913L34.594 99.8005L50.417 108.934Z" fill="#FE90BE"/>
<path d="M43.5968 111.172L43.5898 114.288L34.587 109.088L34.5976 105.975L43.5968 111.172Z" fill="#FE90BE"/>
<defs>
<filter id="filter0_d_817_25192" x="28.9268" y="76.4795" width="66.1997" height="75.1941" filterUnits="userSpaceOnUse" color-interpolation-filters="sRGB">
<feFlood flood-opacity="0" result="BackgroundImageFix"/>
<feColorMatrix in="SourceAlpha" type="matrix" values="0 0 0 0 0 0 0 0 0 0 0 0 0 0 0 0 0 0 127 0" result="hardAlpha"/>
<feOffset dy="2"/>
<feGaussianBlur stdDeviation="2"/>
<feComposite in2="hardAlpha" operator="out"/>
<feColorMatrix type="matrix" values="0 0 0 0 0 0 0 0 0 0 0 0 0 0 0 0 0 0 0.25 0"/>
<feBlend mode="normal" in2="BackgroundImageFix" result="effect1_dropShadow_817_25192"/>
<feBlend mode="normal" in="SourceGraphic" in2="effect1_dropShadow_817_25192" result="shape"/>
</filter>
<filter id="filter1_d_817_25192" x="27.5202" y="111.995" width="68.9303" height="43.5264" filterUnits="userSpaceOnUse" color-interpolation-filters="sRGB">
<feFlood flood-opacity="0" result="BackgroundImageFix"/>
<feColorMatrix in="SourceAlpha" type="matrix" values="0 0 0 0 0 0 0 0 0 0 0 0 0 0 0 0 0 0 127 0" result="hardAlpha"/>
<feOffset dy="4"/>
<feGaussianBlur stdDeviation="2"/>
<feComposite in2="hardAlpha" operator="out"/>
<feColorMatrix type="matrix" values="0 0 0 0 0 0 0 0 0 0 0 0 0 0 0 0 0 0 0.25 0"/>
<feBlend mode="normal" in2="BackgroundImageFix" result="effect1_dropShadow_817_25192"/>
<feBlend mode="normal" in="SourceGraphic" in2="effect1_dropShadow_817_25192" result="shape"/>
</filter>
<linearGradient id="paint0_linear_817_25192" x1="89.1782" y1="187.955" x2="93.0882" y2="-83.7651" gradientUnits="userSpaceOnUse">
<stop offset="0.2" stop-color="white"/>
<stop offset="0.63" stop-color="#F4F3F5"/>
<stop offset="1" stop-color="#E8E6DF"/>
</linearGradient>
<linearGradient id="paint1_linear_817_25192" x1="87.5182" y1="19.3857" x2="90.5182" y2="181.066" gradientUnits="userSpaceOnUse">
<stop offset="0.2" stop-color="white"/>
<stop offset="0.63" stop-color="#F4F3F5"/>
<stop offset="1" stop-color="#E8E6DF"/>
</linearGradient>
<linearGradient id="paint2_linear_817_25192" x1="74.3682" y1="-43.8142" x2="102.888" y2="196.086" gradientUnits="userSpaceOnUse">
<stop stop-color="#FE90BE"/>
<stop offset="0.26" stop-color="#D68DC2"/>
<stop offset="0.61" stop-color="#007ED8"/>
<stop offset="0.93" stop-color="#002D4C"/>
</linearGradient>
<linearGradient id="paint3_linear_817_25192" x1="142.729" y1="26.3044" x2="210.674" y2="127.805" gradientUnits="userSpaceOnUse">
<stop stop-color="#007ED8"/>
<stop offset="0.7065" stop-color="#002D4C"/>
</linearGradient>
<linearGradient id="paint4_linear_817_25192" x1="131.578" y1="104.892" x2="136.154" y2="57.5607" gradientUnits="userSpaceOnUse">
<stop stop-color="#F28EBA"/>
<stop offset="0.27" stop-color="#F074A6"/>
<stop offset="0.52" stop-color="#E76198"/>
<stop offset="0.76" stop-color="#D03072"/>
<stop offset="1" stop-color="#C12464"/>
</linearGradient>
<linearGradient id="paint5_linear_817_25192" x1="129.465" y1="104.687" x2="134.041" y2="57.3551" gradientUnits="userSpaceOnUse">
<stop stop-color="#F28EBA"/>
<stop offset="0.27" stop-color="#F074A6"/>
<stop offset="0.52" stop-color="#E76198"/>
<stop offset="0.76" stop-color="#D03072"/>
<stop offset="1" stop-color="#C12464"/>
</linearGradient>
<linearGradient id="paint6_linear_817_25192" x1="131.349" y1="104.87" x2="135.925" y2="57.5385" gradientUnits="userSpaceOnUse">
<stop stop-color="#F28EBA"/>
<stop offset="0.27" stop-color="#F074A6"/>
<stop offset="0.52" stop-color="#E76198"/>
<stop offset="0.76" stop-color="#D03072"/>
<stop offset="1" stop-color="#C12464"/>
</linearGradient>
<linearGradient id="paint7_linear_817_25192" x1="131.029" y1="104.839" x2="135.605" y2="57.5082" gradientUnits="userSpaceOnUse">
<stop stop-color="#F28EBA"/>
<stop offset="0.27" stop-color="#F074A6"/>
<stop offset="0.52" stop-color="#E76198"/>
<stop offset="0.76" stop-color="#D03072"/>
<stop offset="1" stop-color="#C12464"/>
</linearGradient>
<linearGradient id="paint8_linear_817_25192" x1="130.182" y1="104.755" x2="134.758" y2="57.423" gradientUnits="userSpaceOnUse">
<stop stop-color="#F28EBA"/>
<stop offset="0.27" stop-color="#F074A6"/>
<stop offset="0.52" stop-color="#E76198"/>
<stop offset="0.76" stop-color="#D03072"/>
<stop offset="1" stop-color="#C12464"/>
</linearGradient>
<linearGradient id="paint9_linear_817_25192" x1="128.07" y1="104.549" x2="132.646" y2="57.2179" gradientUnits="userSpaceOnUse">
<stop stop-color="#F28EBA"/>
<stop offset="0.27" stop-color="#F074A6"/>
<stop offset="0.52" stop-color="#E76198"/>
<stop offset="0.76" stop-color="#D03072"/>
<stop offset="1" stop-color="#C12464"/>
</linearGradient>
<linearGradient id="paint10_linear_817_25192" x1="129.946" y1="104.732" x2="134.522" y2="57.401" gradientUnits="userSpaceOnUse">
<stop stop-color="#F28EBA"/>
<stop offset="0.27" stop-color="#F074A6"/>
<stop offset="0.52" stop-color="#E76198"/>
<stop offset="0.76" stop-color="#D03072"/>
<stop offset="1" stop-color="#C12464"/>
</linearGradient>
<linearGradient id="paint11_linear_817_25192" x1="129.633" y1="104.702" x2="134.209" y2="57.3707" gradientUnits="userSpaceOnUse">
<stop stop-color="#F28EBA"/>
<stop offset="0.27" stop-color="#F074A6"/>
<stop offset="0.52" stop-color="#E76198"/>
<stop offset="0.76" stop-color="#D03072"/>
<stop offset="1" stop-color="#C12464"/>
</linearGradient>
<linearGradient id="paint12_linear_817_25192" x1="128.665" y1="104.61" x2="133.241" y2="57.2782" gradientUnits="userSpaceOnUse">
<stop stop-color="#F28EBA"/>
<stop offset="0.27" stop-color="#F074A6"/>
<stop offset="0.52" stop-color="#E76198"/>
<stop offset="0.76" stop-color="#D03072"/>
<stop offset="1" stop-color="#C12464"/>
</linearGradient>
<linearGradient id="paint13_linear_817_25192" x1="125.972" y1="104.351" x2="130.548" y2="57.0195" gradientUnits="userSpaceOnUse">
<stop stop-color="#F28EBA"/>
<stop offset="0.27" stop-color="#F074A6"/>
<stop offset="0.52" stop-color="#E76198"/>
<stop offset="0.76" stop-color="#D03072"/>
<stop offset="1" stop-color="#C12464"/>
</linearGradient>
<linearGradient id="paint14_linear_817_25192" x1="126.552" y1="104.404" x2="131.128" y2="57.0728" gradientUnits="userSpaceOnUse">
<stop stop-color="#F28EBA"/>
<stop offset="0.27" stop-color="#F074A6"/>
<stop offset="0.52" stop-color="#E76198"/>
<stop offset="0.76" stop-color="#D03072"/>
<stop offset="1" stop-color="#C12464"/>
</linearGradient>
<linearGradient id="paint15_linear_817_25192" x1="128.436" y1="104.588" x2="133.012" y2="57.2561" gradientUnits="userSpaceOnUse">
<stop stop-color="#F28EBA"/>
<stop offset="0.27" stop-color="#F074A6"/>
<stop offset="0.52" stop-color="#E76198"/>
<stop offset="0.76" stop-color="#D03072"/>
<stop offset="1" stop-color="#C12464"/>
</linearGradient>
<linearGradient id="paint16_linear_817_25192" x1="128.115" y1="104.558" x2="132.691" y2="57.2259" gradientUnits="userSpaceOnUse">
<stop stop-color="#F28EBA"/>
<stop offset="0.27" stop-color="#F074A6"/>
<stop offset="0.52" stop-color="#E76198"/>
<stop offset="0.76" stop-color="#D03072"/>
<stop offset="1" stop-color="#C12464"/>
</linearGradient>
</defs>
</svg>
