<svg width="103" height="103" viewBox="0 0 103 103" fill="none" xmlns="http://www.w3.org/2000/svg">
<path d="M51.1015 98.5475C25.2515 98.5475 4.2915 77.5975 4.2915 51.7375C4.2915 25.8775 25.2515 4.92749 51.1015 4.92749C76.9515 4.92749 97.9115 25.8875 97.9115 51.7375C97.9115 77.5875 76.9515 98.5475 51.1015 98.5475Z" fill="url(#paint0_linear_819_27182)"/>
<path fill-rule="evenodd" clip-rule="evenodd" d="M97.0014 51.7374C97.0014 77.0874 76.4514 97.6374 51.1014 97.6374C25.7514 97.6374 5.20143 77.0874 5.20143 51.7374C5.20143 26.3874 25.7514 5.83742 51.1014 5.83742C76.4514 5.83742 97.0014 26.3874 97.0014 51.7374ZM51.1014 2.09741C78.5214 2.09741 100.741 24.3174 100.741 51.7374C100.741 79.1574 78.5114 101.377 51.1014 101.377C23.6814 101.377 1.46143 79.1474 1.46143 51.7374C1.46143 24.3174 23.6814 2.09741 51.1014 2.09741Z" fill="url(#paint1_linear_819_27182)"/>
<path d="M13.4047 58.3971L19.4047 61.8171L13.4646 65.2372L7.83459 62.0071L7.92468 62.3971L13.1747 65.3971L9.17468 67.7072C9.17468 67.8072 9.22463 67.9072 9.24463 67.9972L13.4846 65.5571L19.4846 68.9772L13.5547 72.3871L9.77466 70.2172V70.3672L10.0846 70.7671L13.2046 72.5671L12.0146 73.2472L12.1946 73.4772L13.4946 72.7272L19.4147 76.1371L15.8746 78.1371L16.0547 78.3672L19.7046 76.2671L25.7046 79.6971L19.8146 83.0771C20.0146 83.3371 20.2047 83.5671 20.3947 83.7971L38.2546 94.1172L38.9147 94.1671L38.7546 94.0671L44.7546 90.6272L50.6747 94.0371L49.2947 94.8271H49.8146L50.9646 94.1571L52.4047 94.9872H53.0646L51.2546 93.9872L57.2546 90.5471L62.3646 93.4772L62.7747 93.3572L57.5646 90.3572L63.4546 86.9672L69.2146 90.2771L64.9846 92.7072L66.1046 92.3871L81.6946 83.3871L82.8846 82.3871L82.0146 82.8971L76.2446 79.5872L82.1647 76.1871L86.2346 78.5171L86.3947 78.2771L82.4546 76.0171L88.4546 72.5872L89.7046 73.3071L89.8646 73.0671L88.7446 72.4171L91.1846 71.0171L91.5247 70.4972L88.4546 72.2571L82.5347 68.8472L88.4646 65.4371L93.0746 68.0872C93.12 68.0044 93.1702 67.9243 93.2246 67.8472L88.7546 65.2771L94.4546 61.9872L94.5547 61.3871L70.1146 47.2771L57.6547 40.0872L57.5247 40.0371L51.4646 36.5371L51.1846 36.3572L7.80469 61.2771C7.82213 61.3751 7.84546 61.472 7.87463 61.5671L13.4047 58.3971ZM13.7146 65.3971L19.6447 61.9872L25.6447 65.4071L19.7046 68.8171L13.7146 65.3971ZM51.1547 65.3971L57.0746 61.9972L62.9846 65.3871L57.0646 68.7871L51.1547 65.3971ZM56.7747 68.9572L50.7747 72.3871L44.8646 68.9872L50.8646 65.5671L56.7747 68.9572ZM50.8746 65.2272L44.8746 61.8071L50.7947 58.4071L56.7947 61.8271L50.8746 65.2272ZM50.5846 65.3971L44.5846 68.8271L38.5846 65.3971L44.5846 61.9672L50.5846 65.3971ZM44.3246 68.9872L38.3746 72.4171L32.3746 68.9872L38.3746 65.5671L44.3246 68.9872ZM44.3246 76.1471L38.4147 79.5471L32.4946 76.1471L38.4147 72.7472L44.3246 76.1471ZM38.7146 72.5771L44.6647 69.1571L50.5746 72.5471L44.5746 75.9772L38.7146 72.5771ZM50.8646 72.7172L56.8646 76.1471L50.8646 79.5671L44.8646 76.1371L50.8646 72.7172ZM51.1547 72.5471L57.1547 69.1272L63.1547 72.5471L57.1547 75.9772L51.1547 72.5471ZM57.4047 68.9572L63.3246 65.5571L69.3246 68.9872L63.4147 72.3871L57.4047 68.9572ZM63.6046 65.3871L69.6046 61.9572L75.6046 65.3871L69.6046 68.8171L63.6046 65.3871ZM63.3246 65.2272L57.4147 61.8271L63.4147 58.3971L69.3146 61.7971L63.3246 65.2272ZM57.1246 61.6671L51.1246 58.2372L57.1246 54.8071L63.1246 58.2372L57.1246 61.6671ZM50.8746 58.0671L44.9546 54.6671L50.9546 51.2372L56.8846 54.6471L50.8746 58.0671ZM50.5846 58.2372L44.6647 61.6371L38.7446 58.2372L44.6647 54.8372L50.5846 58.2372ZM44.3746 61.8071L38.3746 65.2372L32.4446 61.8271L38.4446 58.3971L44.3746 61.8071ZM38.1246 65.3971L32.1246 68.8171L26.2046 65.4171L32.2046 61.9972L38.1246 65.3971ZM31.8746 68.9872L25.9446 72.3971L20.0146 68.9972L25.9446 65.5872L31.8746 68.9872ZM32.1647 69.1571L38.1647 72.5872L32.2446 75.9872L26.2446 72.5571L32.1647 69.1571ZM38.1647 79.7172L32.1647 83.1371L26.2546 79.7372L32.1946 76.3271L38.1647 79.7172ZM38.4546 79.8871L44.4546 83.3071L38.4546 86.7372L32.4546 83.3071L38.4546 79.8871ZM38.7546 79.7072L44.6647 76.3071L50.6647 79.7372L44.7546 83.1371L38.7546 79.7072ZM50.9147 79.9071L56.9147 83.3472L51.0146 86.7472L45.0146 83.2971L50.9147 79.9071ZM51.2146 79.7372L57.2146 76.3171L63.2146 79.7571L57.2146 83.1771L51.2146 79.7372ZM57.4546 76.1471L63.4546 72.7172L69.4546 76.1571L63.4546 79.5872L57.4546 76.1471ZM69.7046 76.3271L75.6346 79.7372L69.6346 83.1571L63.7146 79.7571L69.7046 76.3271ZM69.7046 75.9972L63.7046 72.5471L69.6146 69.1471L75.6146 72.5972L69.7046 75.9972ZM69.9147 68.9972L75.9147 65.5671L81.9147 69.0071L75.9147 72.4371L69.9147 68.9972ZM69.9147 61.8071L75.8446 58.3971L81.8446 61.8271L75.9047 65.2372L69.9147 61.8071ZM69.6246 61.6371L63.7246 58.2472L69.6547 54.8372L75.5547 58.2272L69.6246 61.6371ZM63.4346 58.0771L57.4346 54.6571L63.3646 51.2472L69.3646 54.6771L63.4346 58.0771ZM57.1846 54.4872L51.2546 51.0872L57.1846 47.6771L63.1046 51.0771L57.1846 54.4872ZM50.9646 50.9171L44.9646 47.4772L50.8846 44.0671L56.8846 47.5071L50.9646 50.9171ZM50.6846 51.0872L44.6846 54.5071L38.6846 51.0771L44.6846 47.6371L50.6846 51.0872ZM44.4247 54.6771L38.5046 58.0771L32.5046 54.6471L38.4247 51.2372L44.4247 54.6771ZM38.2146 58.2472L32.2146 61.6771L26.2146 58.2472L32.2146 54.8071L38.2146 58.2472ZM31.9646 61.8372L25.9646 65.2671L19.9646 61.8372L25.9646 58.4071L31.9646 61.8372ZM13.7446 72.5671L19.6747 69.1671L25.6046 72.5671L19.6647 75.9772L13.7446 72.5671ZM19.9546 76.1471L25.8846 72.7372L31.8846 76.1571L25.9446 79.5671L19.9546 76.1471ZM19.9546 83.3171L25.8947 79.9171L31.8047 83.3071L25.8047 86.7272L19.9546 83.3171ZM26.1447 86.8971L32.0946 83.4772L38.0946 86.9071L32.0946 90.3372L26.1447 86.8971ZM38.3646 93.9572L32.3646 90.4972L38.3646 87.0671L44.3646 90.5171L38.3646 93.9572ZM38.6447 86.8971L44.6447 83.4772L50.6447 86.9171L44.6447 90.3472L38.6447 86.8971ZM50.8446 93.8971L44.9247 90.4872L50.9247 87.0571L56.8546 90.4672L50.8446 93.8971ZM57.1246 90.2871L51.1946 86.8871L57.0946 83.4972L63.0146 86.8971L57.1246 90.2871ZM57.3947 83.2871L63.3446 79.8672L69.2646 83.2671L63.3246 86.6871L57.3947 83.2871ZM69.3947 90.1571L63.6346 86.8472L69.5746 83.4371L75.3346 86.7472L69.3947 90.1571ZM81.5946 83.1571L75.5946 86.5872L69.8346 83.2771L75.8346 79.8472L81.5946 83.1571ZM75.8346 79.5171L69.9047 76.1072L75.8146 72.7072L81.7446 76.1172L75.8346 79.5171ZM87.9946 72.5171L81.9946 75.9471L76.0646 72.5471L82.0646 69.1172L87.9946 72.5171ZM82.0746 68.7871L76.0746 65.3372L82.0046 61.9271L88.0046 65.3772L82.0746 68.7871ZM94.2847 61.7871L88.2847 65.2272L82.2847 61.7871L88.2847 58.3271L94.2847 61.7871ZM88.0146 58.1671L82.0146 61.6172L76.0146 58.1871L82.0146 54.7272L88.0146 58.1671ZM81.7747 54.5571L75.7747 58.0271L69.8646 54.6371L75.8646 51.1671L81.7747 54.5571ZM75.5946 50.9972L69.5946 54.4672L63.5946 51.0371L69.6447 47.5571L75.5946 50.9972ZM69.3646 47.3971L63.3047 50.8772L57.3846 47.4672L63.4546 43.9872L69.3646 47.3971ZM63.1647 43.8171L57.0946 47.3071L51.0946 43.8572L57.1747 40.3572L63.1647 43.8171ZM51.0046 36.8171L56.8846 40.2172L50.8047 43.7172L44.8947 40.3171L51.0046 36.8171ZM44.6046 40.4872L50.5146 43.8772L44.6046 47.2871L38.6846 43.8871L44.6046 40.4872ZM38.3947 44.0571L44.3146 47.4572L38.3146 50.8871L32.3846 47.4772L38.3947 44.0571ZM32.1447 47.6471L38.0646 51.0571L32.1447 54.4572L26.2146 51.0471L32.1447 47.6471ZM25.9247 51.2172L31.8646 54.6272L25.8646 58.0571L19.8646 54.6471L25.9247 51.2172ZM19.6747 54.8071L25.6146 58.2272L19.6647 61.6571L13.6647 58.2372L19.6747 54.8071Z" fill="white"/>
<g filter="url(#filter0_b_819_27182)">
<path fill-rule="evenodd" clip-rule="evenodd" d="M94.1915 51.738C94.1915 75.538 74.9015 94.828 51.1015 94.828C27.3015 94.828 8.01148 75.538 8.01148 51.738C8.01148 27.938 27.3015 8.64796 51.1015 8.64796C74.9015 8.64796 94.1915 27.938 94.1915 51.738ZM51.1015 4.90796C76.9615 4.90796 97.9315 25.878 97.9315 51.738C97.9315 77.598 76.9615 98.568 51.1015 98.568C25.2415 98.568 4.27148 77.598 4.27148 51.738C4.27148 25.878 25.2315 4.90796 51.1015 4.90796Z" fill="url(#paint2_linear_819_27182)"/>
</g>
<path opacity="0.15" d="M22.5414 77.4488H79.6614C81.2614 77.4488 82.5614 76.1488 82.5614 74.5488V28.9988H19.6414V74.5488C19.6414 76.1488 20.9414 77.4488 22.5414 77.4488Z" fill="#1F1D20"/>
<g filter="url(#filter1_d_819_27182)">
<path d="M20.8414 76.1275H81.3614C82.0214 76.1275 82.5614 75.5875 82.5614 74.9275V27.6775H19.6414V74.9275C19.6414 75.5875 20.1814 76.1275 20.8414 76.1275Z" fill="white"/>
</g>
<g filter="url(#filter2_b_819_27182)">
<path d="M19.6414 32.9074H82.5614V27.2674C82.5614 26.7574 82.1514 26.3474 81.6414 26.3474H20.5614C20.0514 26.3474 19.6414 26.7574 19.6414 27.2674V32.9074Z" fill="#014473"/>
</g>
<path d="M24.4813 31.3575C25.3613 31.3575 26.0813 30.6475 26.0813 29.7575C26.0813 28.8675 25.3513 28.1675 24.4813 28.1675C23.6013 28.1675 22.8813 28.8775 22.8813 29.7675C22.8813 30.6575 23.5813 31.3575 24.4813 31.3575Z" fill="#FAF9FA"/>
<path fill-rule="evenodd" clip-rule="evenodd" d="M57.7363 69.7089C57.7363 69.9298 57.9154 70.1089 58.1363 70.1089L69.5935 70.1089L69.5935 69.3089L58.5363 69.3089L58.5363 39.7169L69.5935 39.7169L69.5935 38.9169L58.1363 38.9169C57.9154 38.9169 57.7363 39.096 57.7363 39.3169L57.7363 69.7089Z" fill="#78787D"/>
<path fill-rule="evenodd" clip-rule="evenodd" d="M58.1365 49.4722L69.5937 49.4722L69.5937 48.6722L58.1365 48.6722L58.1365 49.4722Z" fill="#78787D"/>
<path fill-rule="evenodd" clip-rule="evenodd" d="M58.1365 59.3433L69.5937 59.3433L69.5937 58.5433L58.1365 58.5433L58.1365 59.3433Z" fill="#78787D"/>
<path fill-rule="evenodd" clip-rule="evenodd" d="M48.7261 53.5764L58.3023 53.5764L58.3023 54.3764L48.7261 54.3764L48.7261 53.5764Z" fill="#78787D"/>
<path fill-rule="evenodd" clip-rule="evenodd" d="M74.8418 69.7089C74.8418 69.9298 74.6627 70.1089 74.4418 70.1089L62.9846 70.1089L62.9846 69.3089L74.0418 69.3089L74.0418 39.7169L62.9846 39.7169L62.9846 38.9169L74.4418 38.9169C74.6627 38.9169 74.8418 39.096 74.8418 39.3169L74.8418 69.7089Z" fill="#78787D"/>
<path fill-rule="evenodd" clip-rule="evenodd" d="M74.4419 49.4722L62.9847 49.4722L62.9847 48.6722L74.4419 48.6722L74.4419 49.4722Z" fill="#78787D"/>
<path fill-rule="evenodd" clip-rule="evenodd" d="M74.4419 59.3433L62.9847 59.3433L62.9847 58.5433L74.4419 58.5433L74.4419 59.3433Z" fill="#78787D"/>
<path fill-rule="evenodd" clip-rule="evenodd" d="M78.0176 53.5764L74.2758 53.5764L74.2758 54.3764L78.0176 54.3764L78.0176 53.5764Z" fill="#78787D"/>
<path opacity="0.15" d="M70.8896 37.3218H61.9404C61.6778 37.3218 61.4256 37.4256 61.2391 37.6106C61.0527 37.7955 60.9473 38.0468 60.9453 38.3094V43.7834C60.947 44.0448 61.0514 44.295 61.2361 44.48C61.3276 44.5738 61.4373 44.6479 61.5584 44.6979C61.6795 44.7479 61.8094 44.7727 61.9404 44.7708H70.8896C71.0846 44.773 71.2759 44.7166 71.4383 44.6088C71.6008 44.5009 71.7273 44.3467 71.8009 44.1662C71.8527 44.0453 71.8785 43.9149 71.8772 43.7834V38.3247C71.8747 38.1936 71.849 38.064 71.8009 37.9419C71.7514 37.8217 71.6783 37.7125 71.5864 37.6205C71.4958 37.5268 71.3862 37.4537 71.2649 37.4061C71.1471 37.3521 71.0191 37.3233 70.8896 37.3218Z" fill="#1F1D20"/>
<path opacity="0.15" d="M70.8896 55.5385H61.9404C61.6778 55.5385 61.4256 55.6423 61.2391 55.8273C61.0527 56.0123 60.9473 56.2635 60.9453 56.5261V62.0076C60.9467 62.2713 61.051 62.5242 61.2361 62.7121C61.3291 62.8034 61.439 62.8754 61.5599 62.924C61.6807 62.9726 61.8101 62.9968 61.9404 62.9952H70.8896C71.0178 62.9954 71.1451 62.9721 71.2649 62.9264C71.3847 62.876 71.4937 62.8032 71.5864 62.7121C71.68 62.6214 71.7533 62.5117 71.8009 62.3904C71.849 62.2684 71.8747 62.1387 71.8772 62.0076V56.5261C71.8772 56.2628 71.7741 56.0101 71.5894 55.8224C71.4046 55.6348 71.1529 55.5272 70.8896 55.5232V55.5385Z" fill="#1F1D20"/>
<path opacity="0.15" d="M70.8896 46.4155H61.9404C61.6778 46.4155 61.4256 46.5193 61.2391 46.7043C61.0527 46.8893 60.9473 47.1405 60.9453 47.4032V52.8693C60.9467 53.133 61.051 53.3857 61.2361 53.5736C61.3291 53.6649 61.439 53.7371 61.5599 53.7857C61.6807 53.8343 61.8101 53.8585 61.9404 53.8569H70.8896C71.0201 53.8635 71.1505 53.8426 71.2724 53.7956C71.3935 53.7433 71.5053 53.6708 71.6021 53.5812C71.6959 53.4878 71.7684 53.3757 71.8159 53.2521C71.8683 53.1314 71.8949 53.0009 71.8929 52.8693V47.3955C71.8855 47.1322 71.7753 46.8822 71.5864 46.6987C71.4006 46.5161 71.1501 46.4144 70.8896 46.4155Z" fill="#1F1D20"/>
<path opacity="0.15" d="M70.8896 64.6423H61.9404C61.6778 64.6423 61.4256 64.7461 61.2391 64.9311C61.0527 65.1161 60.9473 65.3671 60.9453 65.6298V71.1114C60.9467 71.3752 61.051 71.6279 61.2361 71.8157C61.3291 71.907 61.439 71.979 61.5599 72.0276C61.6807 72.0763 61.8101 72.1006 61.9404 72.099H70.8896C71.1501 72.1002 71.4006 71.9983 71.5864 71.8157C71.7715 71.6279 71.8759 71.3752 71.8772 71.1114V65.6374C71.8752 65.3754 71.7709 65.1246 71.5864 64.9386C71.4018 64.7526 71.1516 64.6463 70.8896 64.6423Z" fill="#1F1D20"/>
<g opacity="0.15">
<path opacity="0.15" d="M70.8896 37.3103H61.9404C61.6778 37.3103 61.4256 37.4141 61.2391 37.5991C61.0527 37.7841 60.9473 38.0353 60.9453 38.2979V43.7796C60.947 44.041 61.0514 44.2912 61.2361 44.4762C61.3276 44.57 61.4373 44.6441 61.5584 44.6941C61.6795 44.7441 61.8094 44.7689 61.9404 44.767H70.8896C71.0178 44.7672 71.1451 44.7439 71.2649 44.6982C71.3847 44.6478 71.4937 44.575 71.5864 44.4838C71.6783 44.3918 71.7514 44.2826 71.8009 44.1624C71.849 44.0403 71.8747 43.9107 71.8772 43.7796V38.3209C71.8785 38.1894 71.8527 38.059 71.8009 37.9381C71.7544 37.8159 71.6837 37.7041 71.5939 37.609C71.5004 37.5152 71.3885 37.4421 71.2649 37.3946C71.1474 37.3397 71.0192 37.3109 70.8896 37.3103V37.3103Z" fill="#1F1D20"/>
<path opacity="0.15" d="M70.8896 55.5405H61.9404C61.6778 55.5405 61.4256 55.6443 61.2391 55.8292C61.0527 56.0142 60.9473 56.2655 60.9453 56.5281V62.0096C60.9467 62.2733 61.051 62.5262 61.2361 62.714C61.3291 62.8054 61.439 62.8774 61.5599 62.926C61.6807 62.9746 61.8101 62.9988 61.9404 62.9972H70.8896C71.1501 62.9983 71.4006 62.8966 71.5864 62.714C71.7715 62.5262 71.8759 62.2733 71.8772 62.0096V56.5281C71.8772 56.2647 71.7741 56.012 71.5894 55.8244C71.4046 55.6367 71.1529 55.5292 70.8896 55.5251V55.5405Z" fill="#1F1D20"/>
<path opacity="0.15" d="M70.8896 46.4119H61.9404C61.6778 46.4119 61.4256 46.5157 61.2391 46.7006C61.0527 46.8856 60.9473 47.1369 60.9453 47.3995V52.8656C60.9467 53.1294 61.051 53.3821 61.2361 53.5699C61.3291 53.6612 61.439 53.7334 61.5599 53.782C61.6807 53.8307 61.8101 53.8548 61.9404 53.8533H70.8896C71.0201 53.8598 71.1505 53.8389 71.2724 53.7919C71.3935 53.7397 71.5053 53.6672 71.6021 53.5776C71.6959 53.4841 71.7684 53.372 71.8159 53.2484C71.8683 53.1277 71.8949 52.9972 71.8929 52.8656V47.3918C71.8855 47.1286 71.7753 46.8785 71.5864 46.695C71.4006 46.5124 71.1501 46.4107 70.8896 46.4119Z" fill="#1F1D20"/>
<path opacity="0.15" d="M70.8896 64.6384H61.9404C61.6778 64.6384 61.4256 64.7422 61.2391 64.9272C61.0527 65.1122 60.9473 65.3632 60.9453 65.6259V71.1075C60.9467 71.3713 61.051 71.624 61.2361 71.8118C61.3291 71.9031 61.439 71.9751 61.5599 72.0237C61.6807 72.0724 61.8101 72.0967 61.9404 72.0951H70.8896C71.1501 72.0963 71.4006 71.9944 71.5864 71.8118C71.7715 71.624 71.8759 71.3713 71.8772 71.1075V65.6259C71.8714 65.3658 71.7658 65.1181 71.5819 64.9341C71.3979 64.7502 71.1497 64.6443 70.8896 64.6384V64.6384Z" fill="#1F1D20"/>
</g>
<path d="M70.8896 36.6677H61.9404C61.6778 36.6677 61.4256 36.7715 61.2391 36.9565C61.0527 37.1415 60.9473 37.3927 60.9453 37.6553V43.1291C60.9483 43.3926 61.0523 43.6447 61.2361 43.8334C61.3291 43.9248 61.439 43.9969 61.5599 44.0456C61.6807 44.0942 61.8101 44.1183 61.9404 44.1168H70.8896C71.0846 44.1189 71.2759 44.0624 71.4383 43.9545C71.6008 43.8467 71.7273 43.6925 71.8009 43.5119C71.8527 43.391 71.8785 43.2607 71.8772 43.1291V37.6553C71.8714 37.3953 71.7658 37.1474 71.5819 36.9634C71.3979 36.7795 71.1497 36.6736 70.8896 36.6677V36.6677Z" fill="#FE90BE"/>
<g filter="url(#filter3_d_819_27182)">
<path d="M70.8896 54.8904H61.9404C61.6778 54.8904 61.4256 54.9942 61.2391 55.1792C61.0527 55.3641 60.9473 55.6152 60.9453 55.8778V61.3595C60.9479 61.4906 60.9735 61.6202 61.0216 61.7423C61.0722 61.8597 61.1452 61.9662 61.2361 62.0561C61.3285 62.1496 61.4375 62.2249 61.5576 62.2781C61.6801 62.3237 61.8097 62.3471 61.9404 62.3471H70.8896C71.0177 62.3466 71.1449 62.3232 71.2649 62.2781C71.385 62.2249 71.494 62.1496 71.5864 62.0561C71.6773 61.9662 71.7503 61.8597 71.8009 61.7423C71.849 61.6202 71.8747 61.4906 71.8772 61.3595V55.9315C71.8774 55.7983 71.8542 55.6661 71.8084 55.541C71.762 55.4164 71.6922 55.302 71.6021 55.2042C71.5094 55.1057 71.3968 55.0275 71.2724 54.9745C71.1508 54.9239 71.0212 54.8955 70.8896 54.8904V54.8904Z" fill="#CF3071"/>
</g>
<path d="M70.8896 45.7634H61.9404C61.6778 45.7634 61.4256 45.8672 61.2391 46.0522C61.0527 46.2372 60.9473 46.4884 60.9453 46.7511V52.2248C60.9467 52.4886 61.051 52.7415 61.2361 52.9293C61.3291 53.0206 61.439 53.0926 61.5599 53.1413C61.6807 53.1899 61.8101 53.2141 61.9404 53.2125H70.8896C71.0846 53.2146 71.2759 53.1583 71.4383 53.0504C71.6008 52.9426 71.7273 52.7882 71.8009 52.6076C71.8527 52.4867 71.8785 52.3564 71.8772 52.2248V46.7434C71.8694 46.4846 71.7627 46.2388 71.5789 46.0565C71.3951 45.8742 71.1484 45.7692 70.8896 45.7634Z" fill="#E86299"/>
<path d="M70.8896 63.9939H61.9404C61.8093 63.9965 61.6797 64.0225 61.5576 64.0706C61.4374 64.1202 61.3281 64.193 61.2361 64.285C61.1442 64.3769 61.0712 64.4862 61.0216 64.6064C60.9734 64.7258 60.9478 64.8529 60.9453 64.9816V70.4783C60.9479 70.6095 60.9735 70.7391 61.0216 70.8611C61.074 70.9799 61.1467 71.0886 61.2361 71.1826C61.3292 71.2713 61.4383 71.3415 61.5576 71.3893C61.6785 71.4411 61.8089 71.4672 61.9404 71.466H70.8896C71.0181 71.4704 71.1463 71.4469 71.2649 71.397C71.3885 71.3495 71.5004 71.2764 71.5939 71.1826C71.6873 71.0903 71.7627 70.9813 71.8159 70.8611C71.864 70.7391 71.8904 70.6095 71.8929 70.4783V65.0046C71.8911 64.7386 71.787 64.4835 71.6021 64.2924C71.5089 64.1964 71.3963 64.1209 71.2724 64.0706C71.1515 64.0188 71.0211 63.9927 70.8896 63.9939V63.9939Z" fill="#900740"/>
<path d="M77.9556 52.1941L81.0802 53.9993L77.9556 55.801V52.1941Z" fill="#78787D"/>
<path d="M51.6296 46.2771V61.0322L38.9387 68.4657V53.7106L51.6296 46.2771Z" fill="#C12664"/>
<path d="M51.6295 46.2758L38.898 53.7195L26.1665 46.2758L38.898 38.8728L51.6295 46.2758Z" fill="#FE90BE"/>
<path opacity="0.15" d="M51.6295 62.5199L38.898 69.9636L26.1665 62.5199L38.898 55.1169L51.6295 62.5199Z" fill="#1F1D20"/>
<path d="M38.9388 53.7106V68.4657L26.2073 61.0221V46.2771L38.9388 53.7106Z" fill="#F173A7"/>
<path d="M26.2073 60.9808L38.9388 53.6287V68.3838L26.2073 60.9808Z" fill="#E86299"/>
<path d="M51.6295 60.9808L38.8979 53.6287V68.3838L51.6295 60.9808Z" fill="#CF3071"/>
<path d="M34.0637 53.0492L34.0607 54.3516L27.4482 50.5331L27.4512 49.2322L34.0637 53.0492Z" fill="#FE90BE"/>
<path d="M31.2135 53.9859L31.2105 55.2882L27.4482 53.1151L27.4527 51.8142L31.2135 53.9859Z" fill="#FE90BE"/>
<path opacity="0.15" d="M49.2928 66.227C51.8691 66.227 53.9562 64.1399 53.9562 61.5636C53.9562 58.9872 51.8691 56.9001 49.2928 56.9001C46.7165 56.9001 44.6294 58.9872 44.6294 61.5636C44.6356 64.1399 46.7227 66.227 49.2928 66.227Z" fill="#1F1D20"/>
<path d="M49.2928 65.7016C51.8691 65.7016 53.9562 63.6145 53.9562 61.0382C53.9562 58.4618 51.8691 56.3748 49.2928 56.3748C46.7165 56.3748 44.6294 58.4618 44.6294 61.0382C44.6356 63.6145 46.7227 65.7016 49.2928 65.7016Z" fill="#014473"/>
<path opacity="0.3" d="M51.8321 59.0015L47.9924 62.8598L46.8405 61.7017L46.0725 62.4758L47.9924 64.4019L52.6062 59.7756L51.8321 59.0015Z" fill="#1F1D20"/>
<path d="M51.8321 58.6736L47.9924 62.5319L46.8405 61.3738L46.0725 62.1479L47.9924 64.074L52.6062 59.4477L51.8321 58.6736Z" fill="#FAF9F8"/>
<defs>
<filter id="filter0_b_819_27182" x="0.271484" y="0.907959" width="101.66" height="101.66" filterUnits="userSpaceOnUse" color-interpolation-filters="sRGB">
<feFlood flood-opacity="0" result="BackgroundImageFix"/>
<feGaussianBlur in="BackgroundImage" stdDeviation="2"/>
<feComposite in2="SourceAlpha" operator="in" result="effect1_backgroundBlur_819_27182"/>
<feBlend mode="normal" in="SourceGraphic" in2="effect1_backgroundBlur_819_27182" result="shape"/>
</filter>
<filter id="filter1_d_819_27182" x="15.6414" y="25.6775" width="70.9199" height="56.45" filterUnits="userSpaceOnUse" color-interpolation-filters="sRGB">
<feFlood flood-opacity="0" result="BackgroundImageFix"/>
<feColorMatrix in="SourceAlpha" type="matrix" values="0 0 0 0 0 0 0 0 0 0 0 0 0 0 0 0 0 0 127 0" result="hardAlpha"/>
<feOffset dy="2"/>
<feGaussianBlur stdDeviation="2"/>
<feComposite in2="hardAlpha" operator="out"/>
<feColorMatrix type="matrix" values="0 0 0 0 0 0 0 0 0 0 0 0 0 0 0 0 0 0 0.25 0"/>
<feBlend mode="normal" in2="BackgroundImageFix" result="effect1_dropShadow_819_27182"/>
<feBlend mode="normal" in="SourceGraphic" in2="effect1_dropShadow_819_27182" result="shape"/>
</filter>
<filter id="filter2_b_819_27182" x="15.6414" y="22.3474" width="70.9199" height="14.5601" filterUnits="userSpaceOnUse" color-interpolation-filters="sRGB">
<feFlood flood-opacity="0" result="BackgroundImageFix"/>
<feGaussianBlur in="BackgroundImage" stdDeviation="2"/>
<feComposite in2="SourceAlpha" operator="in" result="effect1_backgroundBlur_819_27182"/>
<feBlend mode="normal" in="SourceGraphic" in2="effect1_backgroundBlur_819_27182" result="shape"/>
</filter>
<filter id="filter3_d_819_27182" x="56.9453" y="51.8904" width="18.9319" height="15.4568" filterUnits="userSpaceOnUse" color-interpolation-filters="sRGB">
<feFlood flood-opacity="0" result="BackgroundImageFix"/>
<feColorMatrix in="SourceAlpha" type="matrix" values="0 0 0 0 0 0 0 0 0 0 0 0 0 0 0 0 0 0 127 0" result="hardAlpha"/>
<feOffset dy="1"/>
<feGaussianBlur stdDeviation="2"/>
<feComposite in2="hardAlpha" operator="out"/>
<feColorMatrix type="matrix" values="0 0 0 0 0 0 0 0 0 0 0 0 0 0 0 0 0 0 0.25 0"/>
<feBlend mode="normal" in2="BackgroundImageFix" result="effect1_dropShadow_819_27182"/>
<feBlend mode="normal" in="SourceGraphic" in2="effect1_dropShadow_819_27182" result="shape"/>
</filter>
<linearGradient id="paint0_linear_819_27182" x1="51.1015" y1="-7.32446" x2="51.1015" y2="98.5475" gradientUnits="userSpaceOnUse">
<stop offset="0.203125" stop-color="white"/>
<stop offset="0.630208" stop-color="#F4F3F5"/>
<stop offset="1" stop-color="#E8E6DF"/>
</linearGradient>
<linearGradient id="paint1_linear_819_27182" x1="54.5781" y1="100.676" x2="56.3281" y2="-42.8245" gradientUnits="userSpaceOnUse">
<stop offset="0.203125" stop-color="white"/>
<stop offset="0.630208" stop-color="#F4F3F5"/>
<stop offset="1" stop-color="#E8E6DF"/>
</linearGradient>
<linearGradient id="paint2_linear_819_27182" x1="36.8281" y1="-54.8245" x2="47.8281" y2="126.676" gradientUnits="userSpaceOnUse">
<stop stop-color="#FE90BE"/>
<stop offset="0.255208" stop-color="#D68DC2"/>
<stop offset="0.609375" stop-color="#007ED8"/>
<stop offset="0.931465" stop-color="#002D4C"/>
</linearGradient>
</defs>
</svg>
