<svg width="103" height="103" viewBox="0 0 103 103" fill="none" xmlns="http://www.w3.org/2000/svg">
<path fill-rule="evenodd" clip-rule="evenodd" d="M97.2724 51.6305C97.2724 76.9805 76.7224 97.5305 51.3724 97.5305C26.0224 97.5305 5.47242 76.9805 5.47242 51.6305C5.47242 26.2805 26.0224 5.73048 51.3724 5.73048C76.7224 5.73048 97.2724 26.2805 97.2724 51.6305ZM51.3724 1.99048C78.7924 1.99048 101.012 24.2105 101.012 51.6305C101.012 79.0505 78.7824 101.27 51.3724 101.27C23.9524 101.27 1.73242 79.0405 1.73242 51.6305C1.73242 24.2105 23.9524 1.99048 51.3724 1.99048Z" fill="url(#paint0_linear_958_1345)"/>
<path d="M51.1225 94.9425C27.2042 94.9425 7.81055 75.5581 7.81055 51.6306C7.81055 27.703 27.2042 8.3186 51.1225 8.3186C75.0408 8.3186 94.4345 27.7123 94.4345 51.6306C94.4345 75.5488 75.0408 94.9425 51.1225 94.9425Z" fill="url(#paint1_linear_958_1345)"/>
<path d="M13.6752 58.2902L19.6752 61.7102L13.7351 65.1302L8.1051 61.9001L8.19519 62.2902L13.4452 65.2902L9.44519 67.6002C9.44519 67.7002 9.49514 67.8003 9.51514 67.8903L13.7551 65.4502L19.7551 68.8702L13.8252 72.2802L10.0452 70.1102V70.2603L10.3551 70.6602L13.4751 72.4602L12.2852 73.1403L12.4651 73.3702L13.7651 72.6202L19.6852 76.0302L16.1451 78.0302L16.3252 78.2603L19.9751 76.1602L25.9751 79.5902L20.0851 82.9702C20.2851 83.2302 20.4752 83.4602 20.6652 83.6902L38.5251 94.0103L39.1852 94.0602L39.0251 93.9602L45.0251 90.5203L50.9452 93.9302L49.5652 94.7202H50.0851L51.2351 94.0502L52.6752 94.8802H53.3351L51.5251 93.8802L57.5251 90.4402L62.6351 93.3702L63.0452 93.2502L57.8351 90.2502L63.7251 86.8602L69.4851 90.1702L65.2551 92.6002L66.3751 92.2802L81.9651 83.2802L83.1552 82.2802L82.2852 82.7902L76.5151 79.4802L82.4352 76.0802L86.5051 78.4102L86.6652 78.1702L82.7251 75.9102L88.7251 72.4802L89.9751 73.2002L90.1351 72.9602L89.0151 72.3102L91.4551 70.9102L91.7952 70.3903L88.7251 72.1501L82.8052 68.7402L88.7351 65.3302L93.3451 67.9802C93.3906 67.8975 93.4407 67.8174 93.4951 67.7402L89.0251 65.1702L94.7251 61.8802L94.8252 61.2802L70.3851 47.1702L57.9252 39.9802L57.7952 39.9302L51.7351 36.4302L51.4551 36.2502L8.0752 61.1702C8.09264 61.2682 8.11596 61.365 8.14514 61.4602L13.6752 58.2902ZM13.9851 65.2902L19.9152 61.8802L25.9152 65.3002L19.9751 68.7102L13.9851 65.2902ZM51.4252 65.2902L57.3451 61.8903L63.2551 65.2802L57.3351 68.6802L51.4252 65.2902ZM57.0452 68.8502L51.0452 72.2802L45.1351 68.8802L51.1351 65.4602L57.0452 68.8502ZM51.1451 65.1202L45.1451 61.7002L51.0652 58.3002L57.0652 61.7202L51.1451 65.1202ZM50.8551 65.2902L44.8551 68.7202L38.8551 65.2902L44.8551 61.8602L50.8551 65.2902ZM44.5951 68.8802L38.6451 72.3102L32.6451 68.8802L38.6451 65.4602L44.5951 68.8802ZM44.5951 76.0402L38.6852 79.4402L32.7651 76.0402L38.6852 72.6403L44.5951 76.0402ZM38.9851 72.4702L44.9352 69.0502L50.8451 72.4402L44.8451 75.8702L38.9851 72.4702ZM51.1351 72.6102L57.1351 76.0402L51.1351 79.4602L45.1351 76.0302L51.1351 72.6102ZM51.4252 72.4402L57.4252 69.0203L63.4252 72.4402L57.4252 75.8702L51.4252 72.4402ZM57.6752 68.8502L63.5951 65.4502L69.5951 68.8802L63.6852 72.2802L57.6752 68.8502ZM63.8751 65.2802L69.8751 61.8502L75.8751 65.2802L69.8751 68.7102L63.8751 65.2802ZM63.5951 65.1202L57.6852 61.7202L63.6852 58.2902L69.5851 61.6902L63.5951 65.1202ZM57.3951 61.5602L51.3951 58.1302L57.3951 54.7002L63.3951 58.1302L57.3951 61.5602ZM51.1451 57.9602L45.2251 54.5602L51.2251 51.1302L57.1552 54.5402L51.1451 57.9602ZM50.8551 58.1302L44.9352 61.5302L39.0151 58.1302L44.9352 54.7302L50.8551 58.1302ZM44.6451 61.7002L38.6451 65.1302L32.7151 61.7202L38.7151 58.2902L44.6451 61.7002ZM38.3951 65.2902L32.3951 68.7102L26.4751 65.3102L32.4751 61.8903L38.3951 65.2902ZM32.1451 68.8802L26.2151 72.2902L20.2852 68.8903L26.2151 65.4802L32.1451 68.8802ZM32.4352 69.0502L38.4352 72.4802L32.5151 75.8802L26.5151 72.4502L32.4352 69.0502ZM38.4352 79.6102L32.4352 83.0302L26.5251 79.6302L32.4651 76.2202L38.4352 79.6102ZM38.7251 79.7802L44.7251 83.2002L38.7251 86.6302L32.7251 83.2002L38.7251 79.7802ZM39.0251 79.6002L44.9352 76.2002L50.9352 79.6302L45.0251 83.0302L39.0251 79.6002ZM51.1852 79.8002L57.1852 83.2402L51.2852 86.6403L45.2852 83.1902L51.1852 79.8002ZM51.4851 79.6302L57.4851 76.2102L63.4851 79.6501L57.4851 83.0702L51.4851 79.6302ZM57.7251 76.0402L63.7251 72.6102L69.7251 76.0502L63.7251 79.4802L57.7251 76.0402ZM69.9751 76.2202L75.9052 79.6302L69.9052 83.0502L63.9851 79.6501L69.9751 76.2202ZM69.9751 75.8903L63.9751 72.4402L69.8851 69.0402L75.8851 72.4902L69.9751 75.8903ZM70.1852 68.8903L76.1852 65.4602L82.1852 68.9001L76.1852 72.3302L70.1852 68.8903ZM70.1852 61.7002L76.1151 58.2902L82.1151 61.7202L76.1752 65.1302L70.1852 61.7002ZM69.8951 61.5302L63.9951 58.1403L69.9252 54.7302L75.8252 58.1202L69.8951 61.5302ZM63.7051 57.9702L57.7051 54.5502L63.6351 51.1403L69.6351 54.5702L63.7051 57.9702ZM57.4551 54.3802L51.5251 50.9802L57.4551 47.5702L63.3751 50.9702L57.4551 54.3802ZM51.2351 50.8102L45.2351 47.3702L51.1552 43.9602L57.1552 47.4001L51.2351 50.8102ZM50.9551 50.9802L44.9551 54.4001L38.9551 50.9702L44.9551 47.5302L50.9551 50.9802ZM44.6952 54.5702L38.7751 57.9702L32.7751 54.5402L38.6952 51.1302L44.6952 54.5702ZM38.4851 58.1403L32.4851 61.5702L26.4851 58.1403L32.4851 54.7002L38.4851 58.1403ZM32.2351 61.7302L26.2351 65.1602L20.2351 61.7302L26.2351 58.3002L32.2351 61.7302ZM14.0151 72.4602L19.9452 69.0602L25.8751 72.4602L19.9352 75.8702L14.0151 72.4602ZM20.2251 76.0402L26.1552 72.6302L32.1552 76.0502L26.2151 79.4602L20.2251 76.0402ZM20.2251 83.2102L26.1652 79.8102L32.0752 83.2002L26.0752 86.6202L20.2251 83.2102ZM26.4152 86.7902L32.3651 83.3702L38.3651 86.8002L32.3651 90.2302L26.4152 86.7902ZM38.6351 93.8502L32.6351 90.3903L38.6351 86.9602L44.6351 90.4102L38.6351 93.8502ZM38.9152 86.7902L44.9152 83.3702L50.9152 86.8102L44.9152 90.2402L38.9152 86.7902ZM51.1151 93.7902L45.1952 90.3802L51.1952 86.9502L57.1251 90.3602L51.1151 93.7902ZM57.3951 90.1802L51.4651 86.7802L57.3651 83.3903L63.2852 86.7902L57.3951 90.1802ZM57.6652 83.1802L63.6151 79.7603L69.5352 83.1602L63.5951 86.5802L57.6652 83.1802ZM69.6652 90.0502L63.9052 86.7402L69.8451 83.3302L75.6051 86.6403L69.6652 90.0502ZM81.8651 83.0502L75.8651 86.4802L70.1051 83.1702L76.1051 79.7402L81.8651 83.0502ZM76.1051 79.4102L70.1752 76.0002L76.0851 72.6002L82.0151 76.0103L76.1051 79.4102ZM88.2651 72.4102L82.2651 75.8402L76.3351 72.4402L82.3351 69.0103L88.2651 72.4102ZM82.3451 68.6802L76.3451 65.2302L82.2751 61.8202L88.2751 65.2703L82.3451 68.6802ZM94.5552 61.6802L88.5552 65.1202L82.5552 61.6802L88.5552 58.2202L94.5552 61.6802ZM88.2852 58.0602L82.2852 61.5103L76.2852 58.0802L82.2852 54.6202L88.2852 58.0602ZM82.0452 54.4502L76.0452 57.9202L70.1351 54.5302L76.1351 51.0602L82.0452 54.4502ZM75.8651 50.8903L69.8651 54.3602L63.8651 50.9302L69.9152 47.4502L75.8651 50.8903ZM69.6351 47.2902L63.5752 50.7703L57.6552 47.3602L63.7251 43.8802L69.6351 47.2902ZM63.4352 43.7102L57.3651 47.2002L51.3651 43.7502L57.4452 40.2502L63.4352 43.7102ZM51.2751 36.7102L57.1552 40.1102L51.0752 43.6102L45.1652 40.2102L51.2751 36.7102ZM44.8751 40.3802L50.7852 43.7703L44.8751 47.1802L38.9551 43.7802L44.8751 40.3802ZM38.6652 43.9502L44.5851 47.3502L38.5851 50.7802L32.6552 47.3702L38.6652 43.9502ZM32.4152 47.5402L38.3351 50.9502L32.4152 54.3502L26.4851 50.9402L32.4152 47.5402ZM26.1952 51.1102L32.1351 54.5203L26.1351 57.9502L20.1351 54.5402L26.1952 51.1102ZM19.9452 54.7002L25.8851 58.1202L19.9352 61.5502L13.9352 58.1302L19.9452 54.7002Z" fill="white"/>
<path fill-rule="evenodd" clip-rule="evenodd" d="M94.4625 51.631C94.4625 75.431 75.1725 94.721 51.3725 94.721C27.5725 94.721 8.28248 75.431 8.28248 51.631C8.28248 27.831 27.5725 8.54103 51.3725 8.54103C75.1725 8.54103 94.4625 27.831 94.4625 51.631ZM51.3725 4.80103C77.2325 4.80103 98.2025 25.771 98.2025 51.631C98.2025 77.491 77.2325 98.461 51.3725 98.461C25.5125 98.461 4.54248 77.491 4.54248 51.631C4.54248 25.771 25.5025 4.80103 51.3725 4.80103Z" fill="url(#paint2_linear_958_1345)"/>
<path opacity="0.15" d="M82.3478 73.6488C83.1046 73.6488 83.7148 73.0387 83.7148 72.2819V27.1846H36.0771V72.2878C36.0771 73.0446 36.6873 73.6547 37.4441 73.6547H82.3478V73.6488Z" fill="#1F1D20"/>
<g filter="url(#filter0_d_958_1345)">
<path d="M83.7089 27.5887V26.8495C83.7089 25.9343 82.9697 25.1951 82.0545 25.1951H37.7316C36.8164 25.1951 36.0771 25.9343 36.0771 26.8495V27.6708V28.4218V70.838C36.0771 71.7532 36.8164 72.4924 37.7316 72.4924H82.0662C82.9814 72.4924 83.7206 71.7532 83.7206 70.838V27.6708C83.7206 27.6415 83.7089 27.618 83.7089 27.5887Z" fill="white"/>
</g>
<path d="M46.6856 59.9511V64.5642C46.6856 64.7602 46.7636 64.9482 46.9022 65.0868C47.0408 65.2254 47.2287 65.3033 47.4247 65.3033H50.5955C50.7926 65.3033 50.9817 65.2258 51.1222 65.0875C51.2627 64.9492 51.3433 64.7613 51.3465 64.5642V59.7961C51.3465 59.6349 51.2824 59.4803 51.1684 59.3663C51.0544 59.2523 50.8998 59.1882 50.7385 59.1882H47.4247C47.3261 59.1898 47.2287 59.2107 47.1382 59.2499C47.0477 59.2891 46.9657 59.3457 46.8971 59.4165C46.8284 59.4874 46.7745 59.5711 46.7382 59.6628C46.7019 59.7545 46.6841 59.8524 46.6856 59.9511V59.9511Z" fill="url(#paint3_linear_958_1345)"/>
<path d="M54.4461 55.1471C54.2501 55.1471 54.062 55.2249 53.9234 55.3635C53.7848 55.5021 53.707 55.6901 53.707 55.8861V64.564C53.707 64.76 53.7848 64.948 53.9234 65.0866C54.062 65.2252 54.2501 65.3031 54.4461 65.3031H57.7122C57.9093 65.3031 58.0986 65.2256 58.2391 65.0873C58.3796 64.949 58.46 64.7611 58.4632 64.564V55.7431C58.4632 55.6638 58.4474 55.5853 58.4167 55.5122C58.3861 55.4391 58.3409 55.3729 58.2843 55.3174C58.2277 55.2619 58.1607 55.2182 58.087 55.189C58.0133 55.1598 57.9345 55.1455 57.8552 55.1471H54.4461Z" fill="url(#paint4_linear_958_1345)"/>
<path d="M66.1871 48.5554H61.574C61.378 48.5554 61.1901 48.6333 61.0515 48.7719C60.9129 48.9105 60.835 49.0985 60.835 49.2945V64.5285C60.8349 64.7256 60.9125 64.9148 61.0508 65.0553C61.189 65.1958 61.3769 65.2763 61.574 65.2794H66.1871C66.3863 65.2794 66.5772 65.2003 66.7181 65.0595C66.8589 64.9187 66.9381 64.7276 66.9381 64.5285V49.2945C66.9349 49.0974 66.8545 48.9094 66.714 48.7711C66.5735 48.6329 66.3842 48.5554 66.1871 48.5554V48.5554Z" fill="url(#paint5_linear_958_1345)"/>
<path d="M75.5806 41.7131H70.0615C69.8624 41.7131 69.6714 41.7922 69.5306 41.9331C69.3897 42.0739 69.3105 42.2649 69.3105 42.4641V64.5283C69.3105 64.7275 69.3897 64.9185 69.5306 65.0594C69.6714 65.2002 69.8624 65.2793 70.0615 65.2793H75.5806C75.6792 65.2793 75.7768 65.2599 75.8679 65.2221C75.9591 65.1844 76.0418 65.1291 76.1115 65.0594C76.1813 64.9896 76.2366 64.9068 76.2744 64.8157C76.3121 64.7246 76.3315 64.627 76.3315 64.5283V42.4641C76.3315 42.3655 76.3121 42.2678 76.2744 42.1767C76.2366 42.0856 76.1813 42.0028 76.1115 41.9331C76.0418 41.8633 75.9591 41.8081 75.8679 41.7703C75.7768 41.7326 75.6792 41.7131 75.5806 41.7131V41.7131Z" fill="url(#paint6_linear_958_1345)"/>
<path d="M49.4155 53.4545L48.5571 53.0611L54.994 41.4032L63.5528 42.2495L72.4452 35.2405L73.1365 35.8604L63.8746 43.2985L55.5305 42.4999L49.4155 53.4545Z" fill="url(#paint7_linear_958_1345)"/>
<path d="M48.0329 55.4691C48.4363 55.578 48.8628 55.5647 49.2587 55.4309C49.6545 55.297 50.0017 55.0487 50.2563 54.7174C50.5108 54.386 50.6612 53.9865 50.6884 53.5696C50.7156 53.1526 50.6185 52.737 50.4092 52.3754C50.1999 52.0137 49.8879 51.7223 49.5129 51.5382C49.1378 51.354 48.7165 51.2854 48.3024 51.341C47.8882 51.3966 47.5 51.5739 47.1867 51.8505C46.8735 52.127 46.6494 52.4902 46.5429 52.8943C46.4008 53.4332 46.4777 54.0065 46.7569 54.4889C47.0361 54.9713 47.4948 55.3237 48.0329 55.4691V55.4691Z" fill="url(#paint8_linear_958_1345)"/>
<path d="M62.969 44.7408C63.2359 44.8147 63.5148 44.8351 63.7897 44.8008C64.0645 44.7664 64.3297 44.6779 64.5702 44.5405C64.8107 44.4031 65.0215 44.2194 65.1906 44.0001C65.3598 43.7808 65.4838 43.5301 65.5556 43.2626C65.6661 42.8599 65.6547 42.4335 65.5227 42.0373C65.3907 41.6412 65.144 41.2932 64.8141 41.0372C64.4841 40.7813 64.0857 40.629 63.6692 40.5997C63.2526 40.5704 62.8367 40.6653 62.4741 40.8725C62.1116 41.0796 61.8187 41.3897 61.6325 41.7635C61.4463 42.1372 61.3752 42.5578 61.4282 42.972C61.4812 43.3862 61.6558 43.7754 61.9301 44.0903C62.2043 44.4051 62.566 44.6315 62.969 44.7408Z" fill="url(#paint9_linear_958_1345)"/>
<path d="M54.732 44.2045C54.9989 44.2785 55.2778 44.2989 55.5526 44.2645C55.8275 44.2302 56.0927 44.1417 56.3331 44.0043C56.5736 43.8669 56.7846 43.6832 56.9537 43.4639C57.1229 43.2445 57.2469 42.9939 57.3187 42.7264C57.4127 42.453 57.4493 42.1632 57.4267 41.875C57.404 41.5869 57.3224 41.3065 57.1869 41.0512C57.0513 40.7958 56.8647 40.5711 56.6387 40.3909C56.4127 40.2107 56.152 40.0788 55.8729 40.0035C55.5938 39.9282 55.3023 39.9111 55.0163 39.9531C54.7303 39.9952 54.456 40.0956 54.2105 40.2481C53.9649 40.4006 53.7532 40.6019 53.5887 40.8396C53.4241 41.0773 53.3102 41.3462 53.2539 41.6297C53.1817 41.8958 53.1626 42.1736 53.1978 42.447C53.2331 42.7205 53.3219 42.9843 53.4592 43.2235C53.5965 43.4626 53.7795 43.6723 53.9979 43.8406C54.2163 44.009 54.4658 44.1326 54.732 44.2045V44.2045Z" fill="url(#paint10_linear_958_1345)"/>
<path d="M71.5634 37.4814C71.883 37.6579 72.2429 37.7489 72.608 37.7457C72.9731 37.7424 73.3312 37.645 73.6477 37.4628C73.9641 37.2806 74.2282 37.0198 74.4144 36.7056C74.6005 36.3915 74.7025 36.0346 74.7103 35.6695C74.7106 35.2927 74.6116 34.9224 74.4232 34.596C74.2349 34.2695 73.9639 33.9984 73.6375 33.81C73.3178 33.6335 72.958 33.5425 72.5929 33.5457C72.2277 33.549 71.8697 33.6465 71.5532 33.8287C71.2367 34.0109 70.9727 34.2716 70.7865 34.5858C70.6004 34.8999 70.4984 35.2568 70.4905 35.6219C70.484 36 70.5804 36.3727 70.7693 36.7002C70.9583 37.0278 71.2328 37.2978 71.5634 37.4814Z" fill="url(#paint11_linear_958_1345)"/>
<path opacity="0.15" d="M44.6386 44.2438V43.6859C44.6386 42.9952 44.0807 42.4373 43.39 42.4373H20.3473C19.6565 42.4373 19.0986 42.9952 19.0986 43.6859V44.3058V44.8726V74.8857C19.0986 75.5765 19.6565 76.1344 20.3473 76.1344H43.3988C44.0895 76.1344 44.6475 75.5765 44.6475 74.8857V44.3058C44.6475 44.2837 44.6386 44.2659 44.6386 44.2438Z" fill="#1F1D20"/>
<g filter="url(#filter1_d_958_1345)">
<path d="M44.6386 43.4938V42.9359C44.6386 42.2452 44.0807 41.6873 43.39 41.6873H20.3473C19.6565 41.6873 19.0986 42.2452 19.0986 42.9359V43.5558V44.1226V74.1357C19.0986 74.8265 19.6565 75.3844 20.3473 75.3844H43.3988C44.0895 75.3844 44.6475 74.8265 44.6475 74.1357V43.5558C44.6475 43.5337 44.6386 43.5159 44.6386 43.4938Z" fill="white"/>
</g>
<g filter="url(#filter2_d_958_1345)">
<path d="M38.6954 53.5584C38.6954 49.8048 35.6243 46.7336 31.8706 46.7336C28.4978 46.7336 25.6789 49.2113 25.1398 52.4358H27.934C28.1219 51.7781 28.478 51.1698 28.9775 50.6653C29.754 49.8889 30.7777 49.4636 31.8657 49.4636C32.9488 49.4636 33.9774 49.8889 34.7539 50.6653C35.5303 51.4418 35.9556 52.4655 35.9556 53.5535C35.9556 53.7711 35.9556 54.3893 35.9507 55.2003H25.0508V68.8895H38.6954V56.1004C38.6954 54.8591 38.6954 53.8601 38.6954 53.5584Z" fill="url(#paint12_radial_958_1345)"/>
</g>
<path d="M34.2308 71.4727H28.9258" stroke="#2F77BD" stroke-width="0.8" stroke-miterlimit="10" stroke-linecap="round"/>
<path d="M34.243 65.1395C34.5546 65.1395 34.8072 64.8869 34.8072 64.5752C34.8072 64.2636 34.5546 64.011 34.243 64.011C33.9313 64.011 33.6787 64.2636 33.6787 64.5752C33.6787 64.8869 33.9313 65.1395 34.243 65.1395Z" fill="white"/>
<path d="M31.5896 65.1395C31.9013 65.1395 32.1539 64.8869 32.1539 64.5752C32.1539 64.2636 31.9013 64.011 31.5896 64.011C31.278 64.011 31.0254 64.2636 31.0254 64.5752C31.0254 64.8869 31.278 65.1395 31.5896 65.1395Z" fill="white"/>
<path d="M28.9363 65.1395C29.248 65.1395 29.5006 64.8869 29.5006 64.5752C29.5006 64.2636 29.248 64.011 28.9363 64.011C28.6247 64.011 28.3721 64.2636 28.3721 64.5752C28.3721 64.8869 28.6247 65.1395 28.9363 65.1395Z" fill="white"/>
<path d="M34.243 62.4186C34.5546 62.4186 34.8072 62.1659 34.8072 61.8543C34.8072 61.5427 34.5546 61.29 34.243 61.29C33.9313 61.29 33.6787 61.5427 33.6787 61.8543C33.6787 62.1659 33.9313 62.4186 34.243 62.4186Z" fill="#50E6FF"/>
<path d="M31.5896 62.4186C31.9013 62.4186 32.1539 62.1659 32.1539 61.8543C32.1539 61.5427 31.9013 61.29 31.5896 61.29C31.278 61.29 31.0254 61.5427 31.0254 61.8543C31.0254 62.1659 31.278 62.4186 31.5896 62.4186Z" fill="#50E6FF"/>
<path d="M28.9363 62.4186C29.248 62.4186 29.5006 62.1659 29.5006 61.8543C29.5006 61.5427 29.248 61.29 28.9363 61.29C28.6247 61.29 28.3721 61.5427 28.3721 61.8543C28.3721 62.1659 28.6247 62.4186 28.9363 62.4186Z" fill="#50E6FF"/>
<path d="M34.243 59.6974C34.5546 59.6974 34.8072 59.4447 34.8072 59.1331C34.8072 58.8215 34.5546 58.5688 34.243 58.5688C33.9313 58.5688 33.6787 58.8215 33.6787 59.1331C33.6787 59.4447 33.9313 59.6974 34.243 59.6974Z" fill="white"/>
<path d="M31.5896 59.6974C31.9013 59.6974 32.1539 59.4447 32.1539 59.1331C32.1539 58.8215 31.9013 58.5688 31.5896 58.5688C31.278 58.5688 31.0254 58.8215 31.0254 59.1331C31.0254 59.4447 31.278 59.6974 31.5896 59.6974Z" fill="white"/>
<path d="M28.9363 59.6974C29.248 59.6974 29.5006 59.4447 29.5006 59.1331C29.5006 58.8215 29.248 58.5688 28.9363 58.5688C28.6247 58.5688 28.3721 58.8215 28.3721 59.1331C28.3721 59.4447 28.6247 59.6974 28.9363 59.6974Z" fill="white"/>
<defs>
<filter id="filter0_d_958_1345" x="32.0771" y="25.1951" width="55.6436" height="55.2974" filterUnits="userSpaceOnUse" color-interpolation-filters="sRGB">
<feFlood flood-opacity="0" result="BackgroundImageFix"/>
<feColorMatrix in="SourceAlpha" type="matrix" values="0 0 0 0 0 0 0 0 0 0 0 0 0 0 0 0 0 0 127 0" result="hardAlpha"/>
<feOffset dy="4"/>
<feGaussianBlur stdDeviation="2"/>
<feComposite in2="hardAlpha" operator="out"/>
<feColorMatrix type="matrix" values="0 0 0 0 0 0 0 0 0 0 0 0 0 0 0 0 0 0 0.25 0"/>
<feBlend mode="normal" in2="BackgroundImageFix" result="effect1_dropShadow_958_1345"/>
<feBlend mode="normal" in="SourceGraphic" in2="effect1_dropShadow_958_1345" result="shape"/>
</filter>
<filter id="filter1_d_958_1345" x="15.0986" y="41.6873" width="33.5488" height="41.697" filterUnits="userSpaceOnUse" color-interpolation-filters="sRGB">
<feFlood flood-opacity="0" result="BackgroundImageFix"/>
<feColorMatrix in="SourceAlpha" type="matrix" values="0 0 0 0 0 0 0 0 0 0 0 0 0 0 0 0 0 0 127 0" result="hardAlpha"/>
<feOffset dy="4"/>
<feGaussianBlur stdDeviation="2"/>
<feComposite in2="hardAlpha" operator="out"/>
<feColorMatrix type="matrix" values="0 0 0 0 0 0 0 0 0 0 0 0 0 0 0 0 0 0 0.25 0"/>
<feBlend mode="normal" in2="BackgroundImageFix" result="effect1_dropShadow_958_1345"/>
<feBlend mode="normal" in="SourceGraphic" in2="effect1_dropShadow_958_1345" result="shape"/>
</filter>
<filter id="filter2_d_958_1345" x="21.0508" y="44.7336" width="21.6445" height="30.1558" filterUnits="userSpaceOnUse" color-interpolation-filters="sRGB">
<feFlood flood-opacity="0" result="BackgroundImageFix"/>
<feColorMatrix in="SourceAlpha" type="matrix" values="0 0 0 0 0 0 0 0 0 0 0 0 0 0 0 0 0 0 127 0" result="hardAlpha"/>
<feOffset dy="2"/>
<feGaussianBlur stdDeviation="2"/>
<feComposite in2="hardAlpha" operator="out"/>
<feColorMatrix type="matrix" values="0 0 0 0 0 0 0 0 0 0 0 0 0 0 0 0 0 0 0.25 0"/>
<feBlend mode="normal" in2="BackgroundImageFix" result="effect1_dropShadow_958_1345"/>
<feBlend mode="normal" in="SourceGraphic" in2="effect1_dropShadow_958_1345" result="shape"/>
</filter>
<linearGradient id="paint0_linear_958_1345" x1="54.8491" y1="100.569" x2="56.5991" y2="-42.9314" gradientUnits="userSpaceOnUse">
<stop offset="0.203125" stop-color="white"/>
<stop offset="0.630208" stop-color="#F4F3F5"/>
<stop offset="1" stop-color="#E8E6DF"/>
</linearGradient>
<linearGradient id="paint1_linear_958_1345" x1="49.3219" y1="13.2304" x2="50.5987" y2="94.9512" gradientUnits="userSpaceOnUse">
<stop offset="0.2" stop-color="white"/>
<stop offset="0.63" stop-color="#F4F3F5"/>
<stop offset="1" stop-color="#E8E6DF"/>
</linearGradient>
<linearGradient id="paint2_linear_958_1345" x1="53.1625" y1="-3.96802" x2="51.7191" y2="105.974" gradientUnits="userSpaceOnUse">
<stop offset="0.00520833" stop-color="#F8DF70"/>
<stop offset="0.192708" stop-color="#F2CC40"/>
<stop offset="0.583333" stop-color="#E7B116"/>
<stop offset="0.78125" stop-color="#E0A310"/>
<stop offset="0.942708" stop-color="#CA810E"/>
</linearGradient>
<linearGradient id="paint3_linear_958_1345" x1="45.4221" y1="57.8293" x2="50.7862" y2="64.4212" gradientUnits="userSpaceOnUse">
<stop offset="0.12" stop-color="#F6EECF"/>
<stop offset="0.62" stop-color="#F6D856"/>
<stop offset="1" stop-color="#EFC433"/>
</linearGradient>
<linearGradient id="paint4_linear_958_1345" x1="56.8063" y1="53.4067" x2="55.6858" y2="63.9323" gradientUnits="userSpaceOnUse">
<stop offset="0.01" stop-color="#F2CC40"/>
<stop offset="1" stop-color="#E7B116"/>
</linearGradient>
<linearGradient id="paint5_linear_958_1345" x1="57.9384" y1="43.8112" x2="68.2613" y2="66.5549" gradientUnits="userSpaceOnUse">
<stop offset="0.27" stop-color="#EFC433"/>
<stop offset="0.69" stop-color="#E0A310"/>
<stop offset="1" stop-color="#CA810E"/>
</linearGradient>
<linearGradient id="paint6_linear_958_1345" x1="70.3118" y1="20.3045" x2="73.4707" y2="62.0728" gradientUnits="userSpaceOnUse">
<stop offset="0.01" stop-color="#E0A310"/>
<stop offset="1" stop-color="#CA810E"/>
</linearGradient>
<linearGradient id="paint7_linear_958_1345" x1="47.8658" y1="46.1236" x2="72.5643" y2="42.7621" gradientUnits="userSpaceOnUse">
<stop offset="0.12" stop-color="#F6EECF"/>
<stop offset="1" stop-color="#F6D856"/>
</linearGradient>
<linearGradient id="paint8_linear_958_1345" x1="46.1137" y1="49.4851" x2="49.7971" y2="55.3975" gradientUnits="userSpaceOnUse">
<stop offset="0.12" stop-color="#F6EECF"/>
<stop offset="0.62" stop-color="#F6D856"/>
<stop offset="1" stop-color="#EFC433"/>
</linearGradient>
<linearGradient id="paint9_linear_958_1345" x1="62.8617" y1="38.733" x2="64.0061" y2="45.6348" gradientUnits="userSpaceOnUse">
<stop offset="0.27" stop-color="#EFC433"/>
<stop offset="0.69" stop-color="#E0A310"/>
<stop offset="1" stop-color="#CA810E"/>
</linearGradient>
<linearGradient id="paint10_linear_958_1345" x1="55.4114" y1="39.639" x2="55.1968" y2="43.7873" gradientUnits="userSpaceOnUse">
<stop offset="0.01" stop-color="#F2CC40"/>
<stop offset="1" stop-color="#E7B116"/>
</linearGradient>
<linearGradient id="paint11_linear_958_1345" x1="72.4693" y1="29.6618" x2="72.6362" y2="37.2072" gradientUnits="userSpaceOnUse">
<stop offset="0.01" stop-color="#E0A310"/>
<stop offset="1" stop-color="#CA810E"/>
</linearGradient>
<radialGradient id="paint12_radial_958_1345" cx="0" cy="0" r="1" gradientUnits="userSpaceOnUse" gradientTransform="translate(27.9299 33.7014) scale(28.6745 60.9229)">
<stop stop-color="#4FC2EB"/>
<stop offset="0.585" stop-color="#2E76BC"/>
</radialGradient>
</defs>
</svg>
