<svg width="103" height="103" viewBox="0 0 103 103" fill="none" xmlns="http://www.w3.org/2000/svg">
<path fill-rule="evenodd" clip-rule="evenodd" d="M97.2724 51.6864C97.2724 77.0364 76.7224 97.5864 51.3724 97.5864C26.0224 97.5864 5.47242 77.0364 5.47242 51.6864C5.47242 26.3364 26.0224 5.78639 51.3724 5.78639C76.7224 5.78639 97.2724 26.3364 97.2724 51.6864ZM51.3724 2.04639C78.7924 2.04639 101.012 24.2664 101.012 51.6864C101.012 79.1064 78.7824 101.326 51.3724 101.326C23.9524 101.326 1.73242 79.0964 1.73242 51.6864C1.73242 24.2664 23.9524 2.04639 51.3724 2.04639Z" fill="url(#paint0_linear_958_1209)"/>
<path d="M51.1225 94.9984C27.2042 94.9984 7.81055 75.614 7.81055 51.6865C7.81055 27.7589 27.2042 8.37451 51.1225 8.37451C75.0408 8.37451 94.4345 27.7682 94.4345 51.6865C94.4345 75.6047 75.0408 94.9984 51.1225 94.9984Z" fill="url(#paint1_linear_958_1209)"/>
<path d="M13.6752 58.3461L19.6752 61.7661L13.7351 65.1862L8.1051 61.9561L8.19519 62.3461L13.4452 65.3461L9.44519 67.6561C9.44519 67.7561 9.49514 67.8562 9.51514 67.9462L13.7551 65.5061L19.7551 68.9261L13.8252 72.3361L10.0452 70.1661V70.3162L10.3551 70.7161L13.4751 72.5161L12.2852 73.1962L12.4651 73.4261L13.7651 72.6761L19.6852 76.0861L16.1451 78.0861L16.3252 78.3162L19.9751 76.2161L25.9751 79.6461L20.0851 83.0261C20.2851 83.2861 20.4752 83.5161 20.6652 83.7461L38.5251 94.0662L39.1852 94.1161L39.0251 94.0161L45.0251 90.5762L50.9452 93.9861L49.5652 94.7761H50.0851L51.2351 94.1061L52.6752 94.9362H53.3351L51.5251 93.9362L57.5251 90.4961L62.6351 93.4261L63.0452 93.3062L57.8351 90.3062L63.7251 86.9161L69.4851 90.2261L65.2551 92.6561L66.3751 92.3361L81.9651 83.3361L83.1552 82.3361L82.2852 82.8461L76.5151 79.5361L82.4352 76.1361L86.5051 78.4661L86.6652 78.2261L82.7251 75.9661L88.7251 72.5361L89.9751 73.2561L90.1351 73.0161L89.0151 72.3661L91.4551 70.9661L91.7952 70.4462L88.7251 72.2061L82.8052 68.7961L88.7351 65.3861L93.3451 68.0361C93.3906 67.9534 93.4407 67.8733 93.4951 67.7961L89.0251 65.2261L94.7251 61.9362L94.8252 61.3361L70.3851 47.2261L57.9252 40.0361L57.7952 39.9861L51.7351 36.4861L51.4551 36.3062L8.0752 61.2261C8.09264 61.3241 8.11596 61.421 8.14514 61.5161L13.6752 58.3461ZM13.9851 65.3461L19.9152 61.9362L25.9152 65.3561L19.9751 68.7661L13.9851 65.3461ZM51.4252 65.3461L57.3451 61.9462L63.2551 65.3361L57.3351 68.7361L51.4252 65.3461ZM57.0452 68.9061L51.0452 72.3361L45.1351 68.9362L51.1351 65.5161L57.0452 68.9061ZM51.1451 65.1761L45.1451 61.7561L51.0652 58.3561L57.0652 61.7761L51.1451 65.1761ZM50.8551 65.3461L44.8551 68.7761L38.8551 65.3461L44.8551 61.9161L50.8551 65.3461ZM44.5951 68.9362L38.6451 72.3661L32.6451 68.9362L38.6451 65.5161L44.5951 68.9362ZM44.5951 76.0961L38.6852 79.4961L32.7651 76.0961L38.6852 72.6962L44.5951 76.0961ZM38.9851 72.5261L44.9352 69.1061L50.8451 72.4961L44.8451 75.9261L38.9851 72.5261ZM51.1351 72.6661L57.1351 76.0961L51.1351 79.5161L45.1351 76.0861L51.1351 72.6661ZM51.4252 72.4961L57.4252 69.0762L63.4252 72.4961L57.4252 75.9261L51.4252 72.4961ZM57.6752 68.9061L63.5951 65.5061L69.5951 68.9362L63.6852 72.3361L57.6752 68.9061ZM63.8751 65.3361L69.8751 61.9061L75.8751 65.3361L69.8751 68.7661L63.8751 65.3361ZM63.5951 65.1761L57.6852 61.7761L63.6852 58.3461L69.5851 61.7461L63.5951 65.1761ZM57.3951 61.6161L51.3951 58.1862L57.3951 54.7561L63.3951 58.1862L57.3951 61.6161ZM51.1451 58.0161L45.2251 54.6161L51.2251 51.1862L57.1552 54.5961L51.1451 58.0161ZM50.8551 58.1862L44.9352 61.5861L39.0151 58.1862L44.9352 54.7861L50.8551 58.1862ZM44.6451 61.7561L38.6451 65.1862L32.7151 61.7761L38.7151 58.3461L44.6451 61.7561ZM38.3951 65.3461L32.3951 68.7661L26.4751 65.3661L32.4751 61.9462L38.3951 65.3461ZM32.1451 68.9362L26.2151 72.3461L20.2852 68.9462L26.2151 65.5361L32.1451 68.9362ZM32.4352 69.1061L38.4352 72.5361L32.5151 75.9362L26.5151 72.5061L32.4352 69.1061ZM38.4352 79.6661L32.4352 83.0861L26.5251 79.6862L32.4651 76.2761L38.4352 79.6661ZM38.7251 79.8361L44.7251 83.2561L38.7251 86.6862L32.7251 83.2561L38.7251 79.8361ZM39.0251 79.6561L44.9352 76.2561L50.9352 79.6862L45.0251 83.0861L39.0251 79.6561ZM51.1852 79.8561L57.1852 83.2961L51.2852 86.6962L45.2852 83.2461L51.1852 79.8561ZM51.4851 79.6862L57.4851 76.2661L63.4851 79.7061L57.4851 83.1261L51.4851 79.6862ZM57.7251 76.0961L63.7251 72.6661L69.7251 76.1061L63.7251 79.5361L57.7251 76.0961ZM69.9751 76.2761L75.9052 79.6862L69.9052 83.1061L63.9851 79.7061L69.9751 76.2761ZM69.9751 75.9462L63.9751 72.4961L69.8851 69.0961L75.8851 72.5461L69.9751 75.9462ZM70.1852 68.9462L76.1852 65.5161L82.1852 68.9561L76.1852 72.3861L70.1852 68.9462ZM70.1852 61.7561L76.1151 58.3461L82.1151 61.7761L76.1752 65.1862L70.1852 61.7561ZM69.8951 61.5861L63.9951 58.1962L69.9252 54.7861L75.8252 58.1761L69.8951 61.5861ZM63.7051 58.0261L57.7051 54.6061L63.6351 51.1962L69.6351 54.6261L63.7051 58.0261ZM57.4551 54.4362L51.5251 51.0361L57.4551 47.6261L63.3751 51.0261L57.4551 54.4362ZM51.2351 50.8661L45.2351 47.4261L51.1552 44.0161L57.1552 47.4561L51.2351 50.8661ZM50.9551 51.0361L44.9551 54.4561L38.9551 51.0261L44.9551 47.5861L50.9551 51.0361ZM44.6952 54.6261L38.7751 58.0261L32.7751 54.5961L38.6952 51.1862L44.6952 54.6261ZM38.4851 58.1962L32.4851 61.6261L26.4851 58.1962L32.4851 54.7561L38.4851 58.1962ZM32.2351 61.7861L26.2351 65.2161L20.2351 61.7861L26.2351 58.3561L32.2351 61.7861ZM14.0151 72.5161L19.9452 69.1161L25.8751 72.5161L19.9352 75.9261L14.0151 72.5161ZM20.2251 76.0961L26.1552 72.6862L32.1552 76.1061L26.2151 79.5161L20.2251 76.0961ZM20.2251 83.2661L26.1652 79.8661L32.0752 83.2561L26.0752 86.6761L20.2251 83.2661ZM26.4152 86.8461L32.3651 83.4261L38.3651 86.8561L32.3651 90.2861L26.4152 86.8461ZM38.6351 93.9061L32.6351 90.4462L38.6351 87.0161L44.6351 90.4661L38.6351 93.9061ZM38.9152 86.8461L44.9152 83.4261L50.9152 86.8661L44.9152 90.2961L38.9152 86.8461ZM51.1151 93.8461L45.1952 90.4362L51.1952 87.0061L57.1251 90.4161L51.1151 93.8461ZM57.3951 90.2361L51.4651 86.8361L57.3651 83.4462L63.2852 86.8461L57.3951 90.2361ZM57.6652 83.2361L63.6151 79.8162L69.5352 83.2161L63.5951 86.6361L57.6652 83.2361ZM69.6652 90.1061L63.9052 86.7961L69.8451 83.3861L75.6051 86.6962L69.6652 90.1061ZM81.8651 83.1061L75.8651 86.5361L70.1051 83.2261L76.1051 79.7961L81.8651 83.1061ZM76.1051 79.4661L70.1752 76.0562L76.0851 72.6561L82.0151 76.0662L76.1051 79.4661ZM88.2651 72.4661L82.2651 75.8961L76.3351 72.4961L82.3351 69.0662L88.2651 72.4661ZM82.3451 68.7361L76.3451 65.2861L82.2751 61.8761L88.2751 65.3262L82.3451 68.7361ZM94.5552 61.7361L88.5552 65.1761L82.5552 61.7361L88.5552 58.2761L94.5552 61.7361ZM88.2852 58.1161L82.2852 61.5662L76.2852 58.1361L82.2852 54.6761L88.2852 58.1161ZM82.0452 54.5061L76.0452 57.9761L70.1351 54.5861L76.1351 51.1161L82.0452 54.5061ZM75.8651 50.9462L69.8651 54.4161L63.8651 50.9861L69.9152 47.5061L75.8651 50.9462ZM69.6351 47.3461L63.5752 50.8262L57.6552 47.4161L63.7251 43.9362L69.6351 47.3461ZM63.4352 43.7661L57.3651 47.2561L51.3651 43.8062L57.4452 40.3062L63.4352 43.7661ZM51.2751 36.7661L57.1552 40.1661L51.0752 43.6661L45.1652 40.2661L51.2751 36.7661ZM44.8751 40.4362L50.7852 43.8262L44.8751 47.2361L38.9551 43.8361L44.8751 40.4362ZM38.6652 44.0061L44.5851 47.4061L38.5851 50.8361L32.6552 47.4261L38.6652 44.0061ZM32.4152 47.5961L38.3351 51.0061L32.4152 54.4061L26.4851 50.9961L32.4152 47.5961ZM26.1952 51.1661L32.1351 54.5762L26.1351 58.0061L20.1351 54.5961L26.1952 51.1661ZM19.9452 54.7561L25.8851 58.1761L19.9352 61.6061L13.9352 58.1862L19.9452 54.7561Z" fill="white"/>
<path fill-rule="evenodd" clip-rule="evenodd" d="M94.4625 51.6869C94.4625 75.4869 75.1725 94.7769 51.3725 94.7769C27.5725 94.7769 8.28248 75.4869 8.28248 51.6869C8.28248 27.8869 27.5725 8.59694 51.3725 8.59694C75.1725 8.59694 94.4625 27.8869 94.4625 51.6869ZM51.3725 4.85693C77.2325 4.85693 98.2025 25.8269 98.2025 51.6869C98.2025 77.5469 77.2325 98.517 51.3725 98.517C25.5125 98.517 4.54248 77.5469 4.54248 51.6869C4.54248 25.8269 25.5025 4.85693 51.3725 4.85693Z" fill="url(#paint2_linear_958_1209)"/>
<path opacity="0.15" d="M87.4531 48.0847C87.4531 47.3009 86.81 46.6578 86.0262 46.6578C85.5137 46.6578 82.3081 46.3764 80.5898 45.0399C80.5898 45.0399 80.5998 45.0198 80.5898 45.0399C79.9366 42.6684 78.992 40.4576 77.8163 38.3675C77.5148 36.3778 79.5748 34.9308 80.5094 33.3832C80.6702 33.1119 80.7706 32.9612 80.8309 32.8506C81.0018 32.3482 80.9113 31.7654 80.5094 31.3634C80.5094 31.3634 78.9317 29.1024 77.3038 27.4946C75.6859 25.8868 73.224 24.088 73.224 24.088C72.6713 23.5353 71.7568 23.5353 71.2041 24.088C70.8323 24.4498 68.4005 26.4596 66.2098 26.7711C66.1797 26.7711 66.1797 26.7711 66.1797 26.7711C64.1398 25.6155 61.8486 24.6608 59.5575 24.0177H59.5273C57.9095 22.8219 58.3315 20.3498 57.9095 18.5812C57.9095 17.7974 57.2663 17.1543 56.4825 17.1543C56.4825 17.1543 53.7693 16.682 51.4782 16.682C49.187 16.682 46.1925 17.1543 46.1925 17.1543C45.4087 17.1543 44.7655 17.7974 44.7655 18.5812C44.7655 19.0937 44.4842 22.2993 43.1477 24.0177C40.8766 24.6608 38.495 25.6657 36.4752 26.7912C34.4855 27.0926 33.0385 25.0326 31.491 24.0981C31.2197 23.9373 31.0689 23.8368 30.9584 23.7765C30.4559 23.6057 29.8731 23.6961 29.4712 24.0981C29.4712 24.0981 27.2102 25.6757 25.6023 27.3037C23.9945 28.9316 22.1958 31.3835 22.1958 31.3835C21.6431 31.9362 21.6431 32.8506 22.1958 33.4033C22.5575 33.7651 24.6176 36.2371 24.8889 38.3876V38.4077C23.7634 40.4275 22.7786 42.799 22.1355 45.0701C22.1355 45.0701 22.1656 45.0299 22.1355 45.0701C20.7487 46.7583 18.4676 46.2659 16.699 46.6879C15.9152 46.6879 15.2721 47.3311 15.2721 48.1149C15.2721 48.1149 14.7998 50.8281 14.7998 53.1192C14.7998 55.4104 15.2721 58.4049 15.2721 58.4049C15.2721 59.1887 15.9152 59.8319 16.699 59.8319C17.2115 59.8319 20.4171 60.1132 22.1355 61.4497C22.1757 61.4296 22.1556 61.4799 22.1556 61.4799C22.8188 63.761 23.7534 66.0421 24.8989 68.0619C24.8788 68.092 24.8989 68.0619 24.909 68.1322C25.0999 70.2123 23.1504 71.5689 22.2159 73.1165C22.0551 73.3878 21.9546 73.5385 21.8943 73.6491C21.7235 74.1515 21.8139 74.7343 22.2159 75.1363C22.2159 75.1363 23.7935 77.3973 25.4215 79.0051C27.0393 80.623 29.5013 82.4117 29.5013 82.4117C30.054 82.9644 30.9684 82.9644 31.5211 82.4117C31.8829 82.0499 34.3549 79.9899 36.5054 79.7186C36.5054 79.7186 36.4953 79.7286 36.5355 79.7387C38.6156 80.8943 40.756 81.8088 43.1075 82.4418C43.1276 82.4519 43.1979 82.472 43.1979 82.472C44.8158 83.6678 44.3937 86.1398 44.8158 87.9084C44.9062 88.7023 45.3383 89.2047 46.2427 89.3354C46.2427 89.3354 48.9559 89.8077 51.2471 89.8077C53.5382 89.8077 56.5328 89.3454 56.5328 89.3454C57.3166 89.2047 57.9597 88.7023 57.9597 87.9185C57.9597 87.406 58.2411 84.2004 59.5776 82.482C59.5776 82.482 59.6379 82.4318 59.6982 82.3815C62.0898 81.7083 63.8986 80.9747 66.0089 79.7588C66.1194 79.7186 65.9988 79.7286 66.25 79.6884C68.2397 79.387 69.6867 81.447 71.2343 82.3815C71.5056 82.5423 71.6563 82.6428 71.7669 82.7031C72.2693 82.8739 72.8521 82.7835 73.2541 82.3815C73.2541 82.3815 75.5151 80.8039 77.1229 79.1759C78.7408 77.5581 80.5295 75.0961 80.5295 75.0961C81.0822 74.5434 81.0822 73.629 80.5295 73.0763C80.1677 72.7145 78.1077 70.2425 77.8364 68.092C77.8062 67.871 77.8263 67.8408 77.8565 67.7805C79.0623 65.6602 79.816 64.1026 80.4792 61.701C80.4792 61.701 80.4491 61.6206 80.6099 61.4196C81.8057 59.8017 84.2777 60.2238 86.0463 59.8017C86.8301 59.8017 87.4732 59.1586 87.4732 58.3748C87.4732 58.3748 87.9455 55.6616 87.9455 53.3704C87.9455 51.0793 87.4531 48.0847 87.4531 48.0847Z" fill="#1F1D20"/>
<g filter="url(#filter0_d_958_1209)">
<path d="M87.4531 46.1454C87.4531 45.3616 86.81 44.7185 86.0262 44.7185C85.5137 44.7185 82.3081 44.4371 80.5898 43.1006C80.5898 43.1006 80.5998 43.0805 80.5898 43.1006C79.9366 40.7291 78.992 38.5183 77.8163 36.4281C77.5148 34.4385 79.5748 32.9914 80.5094 31.4439C80.6702 31.1726 80.7706 31.0218 80.8309 30.9113C81.0018 30.4089 80.9113 29.826 80.5094 29.4241C80.5094 29.4241 78.9317 27.1631 77.3038 25.5553C75.6859 23.9474 73.224 22.1487 73.224 22.1487C72.6713 21.596 71.7568 21.596 71.2041 22.1487C70.8323 22.5105 68.4005 24.5202 66.2098 24.8317C66.1797 24.8317 66.1797 24.8317 66.1797 24.8317C64.1398 23.6761 61.8486 22.7215 59.5575 22.0784H59.5273C57.9095 20.8825 58.3315 18.4105 57.9095 16.6419C57.9095 15.8581 57.2663 15.215 56.4825 15.215C56.4825 15.215 53.7693 14.7427 51.4782 14.7427C49.187 14.7427 46.1925 15.215 46.1925 15.215C45.4087 15.215 44.7655 15.8581 44.7655 16.6419C44.7655 17.1544 44.4842 20.36 43.1477 22.0784C40.8766 22.7215 38.495 23.7264 36.4752 24.8518C34.4855 25.1533 33.0385 23.0933 31.491 22.1587C31.2197 21.998 31.0689 21.8975 30.9584 21.8372C30.4559 21.6663 29.8731 21.7568 29.4712 22.1587C29.4712 22.1587 27.2102 23.7364 25.6023 25.3643C23.9945 26.9822 22.1958 29.4442 22.1958 29.4442C21.6431 29.9969 21.6431 30.9113 22.1958 31.464C22.5575 31.8258 24.6176 34.2978 24.8889 36.4482V36.4683C23.7634 38.4882 22.7786 40.8597 22.1355 43.1307C22.1355 43.1307 22.1656 43.0905 22.1355 43.1307C20.7487 44.819 18.4676 44.3266 16.699 44.7486C15.9152 44.7486 15.2721 45.3917 15.2721 46.1755C15.2721 46.1755 14.7998 48.8887 14.7998 51.1799C14.7998 53.471 15.2721 56.4656 15.2721 56.4656C15.2721 57.2494 15.9152 57.8925 16.699 57.8925C17.2115 57.8925 20.4171 58.1739 22.1355 59.5104C22.1757 59.4903 22.1556 59.5406 22.1556 59.5406C22.8188 61.8216 23.7534 64.1027 24.8989 66.1226C24.8788 66.1527 24.8989 66.1226 24.909 66.1929C25.0999 68.273 23.1504 69.6296 22.2159 71.1771C22.0551 71.4485 21.9546 71.5992 21.8943 71.7097C21.7235 72.2122 21.8139 72.795 22.2159 73.197C22.2159 73.197 23.7935 75.458 25.4215 77.0658C27.0393 78.6837 29.5013 80.4724 29.5013 80.4724C30.054 81.025 30.9684 81.025 31.5211 80.4724C31.8829 80.1106 34.3549 78.0506 36.5054 77.7793C36.5054 77.7793 36.4953 77.7893 36.5355 77.7994C38.6156 78.955 40.756 79.8694 43.1075 80.5025C43.1276 80.5125 43.1979 80.5326 43.1979 80.5326C44.8158 81.7285 44.3937 84.2005 44.8158 85.9691C44.9062 86.7629 45.3383 87.2654 46.2427 87.396C46.2427 87.396 48.9559 87.8683 51.2471 87.8683C53.5382 87.8683 56.5328 87.4061 56.5328 87.4061C57.3166 87.2654 57.9597 86.7629 57.9597 85.9791C57.9597 85.4666 58.2411 82.261 59.5776 80.5427C59.5776 80.5427 59.6379 80.4925 59.6982 80.4422C62.0898 79.7689 63.8986 79.0354 66.0089 77.8194C66.1194 77.7793 65.9988 77.7893 66.25 77.7491C68.2397 77.4476 69.6867 79.5077 71.2343 80.4422C71.5056 80.603 71.6563 80.7035 71.7669 80.7638C72.2693 80.9346 72.8521 80.8442 73.2541 80.4422C73.2541 80.4422 75.5151 78.8645 77.1229 77.2366C78.7408 75.6187 80.5295 73.1568 80.5295 73.1568C81.0822 72.6041 81.0822 71.6896 80.5295 71.1369C80.1677 70.7752 78.1077 68.3032 77.8364 66.1527C77.8062 65.9316 77.8263 65.9015 77.8565 65.8412C79.0623 63.7209 79.816 62.1633 80.4792 59.7616C80.4792 59.7616 80.4491 59.6812 80.6099 59.4803C81.8057 57.8624 84.2777 58.2844 86.0463 57.8624C86.8301 57.8624 87.4732 57.2193 87.4732 56.4354C87.4732 56.4354 87.9455 53.7222 87.9455 51.4311C87.9455 49.14 87.4531 46.1454 87.4531 46.1454Z" fill="url(#paint3_linear_958_1209)"/>
</g>
<g opacity="0.15">
<path opacity="0.15" d="M60.083 42.2267L62.1187 40.1563V34.7422H55.7344V40.1217L57.7701 42.192H57.8047V53.3841H55.769V66.3347C55.769 68.1019 57.1984 69.5313 58.9655 69.5313C60.7327 69.5313 62.162 68.1019 62.162 66.3347V53.3841H60.0657L60.083 42.2267Z" fill="#1F1D20"/>
<path opacity="0.15" d="M47.7042 61.7176V44.5656C49.7139 43.8033 51.1432 41.8889 51.1432 39.6366C51.1432 37.4796 49.8352 35.5912 47.9467 34.8029V40.2776H43.78V34.8029C41.8915 35.5912 40.5835 37.445 40.5835 39.6366C40.5835 41.8889 42.0128 43.8293 44.0226 44.5656V61.6829C42.6885 62.35 41.7443 63.7533 41.7443 65.3646C41.7443 67.6428 43.5981 69.4706 45.8504 69.4706C48.1286 69.4706 49.9564 67.6168 49.9564 65.3646C49.9824 63.7533 49.0729 62.3846 47.7042 61.7176ZM45.885 66.7939C45.0967 66.7939 44.4903 66.1529 44.4903 65.3992C44.4903 64.6109 45.1314 64.0045 45.885 64.0045C46.6473 64.0045 47.2797 64.6456 47.2797 65.3992C47.2797 66.1529 46.6387 66.7939 45.885 66.7939Z" fill="#1F1D20"/>
</g>
<circle opacity="0.15" cx="51.3725" cy="53.0515" r="21.8949" fill="#1F1D20"/>
<g filter="url(#filter1_d_958_1209)">
<circle cx="51.3725" cy="51.5268" r="21.8949" fill="white"/>
</g>
<path d="M40.0709 59.4556V62.9983C40.0709 63.1488 40.1307 63.2932 40.2372 63.3996C40.3436 63.5061 40.4879 63.5659 40.6384 63.5659H43.0735C43.2249 63.5659 43.3701 63.5064 43.478 63.4002C43.5859 63.294 43.6478 63.1496 43.6502 62.9983V59.3366C43.6502 59.2128 43.601 59.094 43.5134 59.0065C43.4259 58.9189 43.3072 58.8698 43.1833 58.8698H40.6384C40.5627 58.8709 40.4879 58.887 40.4184 58.9171C40.3489 58.9472 40.2859 58.9907 40.2332 59.0451C40.1805 59.0995 40.1391 59.1638 40.1112 59.2342C40.0833 59.3046 40.0697 59.3798 40.0709 59.4556V59.4556Z" fill="url(#paint4_linear_958_1209)"/>
<path d="M46.0305 55.7664C45.8799 55.7664 45.7355 55.8262 45.6291 55.9327C45.5226 56.0391 45.4629 56.1835 45.4629 56.334V62.9983C45.4629 63.1488 45.5226 63.2932 45.6291 63.3996C45.7355 63.5061 45.8799 63.5659 46.0305 63.5659H48.5387C48.6901 63.5659 48.8354 63.5064 48.9433 63.4002C49.0512 63.294 49.113 63.1496 49.1154 62.9983V56.2242C49.1154 56.1633 49.1034 56.103 49.0798 56.0469C49.0562 55.9907 49.0216 55.9399 48.9781 55.8972C48.9346 55.8546 48.8832 55.8211 48.8266 55.7986C48.77 55.7762 48.7094 55.7652 48.6486 55.7664H46.0305Z" fill="url(#paint5_linear_958_1209)"/>
<path d="M55.0473 50.7042H51.5046C51.354 50.7042 51.2097 50.7641 51.1033 50.8705C50.9969 50.9769 50.937 51.1213 50.937 51.2718V62.971C50.937 63.1223 50.9965 63.2676 51.1027 63.3755C51.2089 63.4834 51.3532 63.5453 51.5046 63.5477H55.0473C55.2002 63.5477 55.3469 63.4869 55.455 63.3788C55.5632 63.2706 55.624 63.1239 55.624 62.971V51.2718C55.6216 51.1204 55.5598 50.9761 55.4519 50.8699C55.344 50.7637 55.1986 50.7042 55.0473 50.7042V50.7042Z" fill="url(#paint6_linear_958_1209)"/>
<path d="M62.261 45.4501H58.0225C57.8696 45.4501 57.7229 45.5108 57.6148 45.619C57.5066 45.7271 57.4458 45.8738 57.4458 46.0268V62.9713C57.4458 63.1243 57.5066 63.271 57.6148 63.3792C57.7229 63.4873 57.8696 63.5481 58.0225 63.5481H62.261C62.3367 63.5481 62.4117 63.5331 62.4817 63.5042C62.5516 63.4752 62.6152 63.4327 62.6687 63.3792C62.7223 63.3256 62.7648 63.262 62.7938 63.192C62.8227 63.1221 62.8377 63.0471 62.8377 62.9713V46.0268C62.8377 45.9511 62.8227 45.8761 62.7938 45.8061C62.7648 45.7361 62.7223 45.6725 62.6687 45.619C62.6152 45.5654 62.5516 45.523 62.4817 45.494C62.4117 45.465 62.3367 45.4501 62.261 45.4501V45.4501Z" fill="url(#paint7_linear_958_1209)"/>
<path d="M42.1675 54.4666L41.5083 54.1645L46.4516 45.2116L53.0244 45.8616L59.8535 40.4789L60.3844 40.9549L53.2716 46.6672L46.8636 46.0539L42.1675 54.4666Z" fill="url(#paint8_linear_958_1209)"/>
<path d="M41.1055 56.0131C41.4153 56.0968 41.7429 56.0865 42.0469 55.9837C42.3509 55.881 42.6176 55.6903 42.813 55.4358C43.0085 55.1813 43.124 54.8745 43.1449 54.5543C43.1658 54.2341 43.0912 53.915 42.9305 53.6372C42.7697 53.3595 42.5301 53.1357 42.2421 52.9943C41.9541 52.8529 41.6305 52.8002 41.3125 52.8429C40.9945 52.8856 40.6963 53.0218 40.4557 53.2341C40.2152 53.4465 40.0431 53.7255 39.9613 54.0357C39.8521 54.4496 39.9112 54.8899 40.1256 55.2604C40.34 55.6308 40.6923 55.9015 41.1055 56.0131V56.0131Z" fill="url(#paint9_linear_958_1209)"/>
<path d="M52.5758 47.7753C52.7808 47.8321 52.995 47.8477 53.206 47.8214C53.4171 47.795 53.6208 47.727 53.8054 47.6215C53.9901 47.516 54.152 47.3749 54.2819 47.2065C54.4118 47.038 54.5071 46.8455 54.5622 46.6401C54.647 46.3308 54.6383 46.0034 54.5369 45.6991C54.4356 45.3949 54.2461 45.1276 53.9927 44.9311C53.7393 44.7345 53.4334 44.6176 53.1135 44.5951C52.7936 44.5725 52.4742 44.6454 52.1957 44.8045C51.9173 44.9636 51.6924 45.2018 51.5494 45.4888C51.4064 45.7758 51.3518 46.0988 51.3925 46.4169C51.4332 46.735 51.5673 47.0339 51.7779 47.2757C51.9885 47.5175 52.2663 47.6914 52.5758 47.7753Z" fill="url(#paint10_linear_958_1209)"/>
<path d="M46.2504 47.3635C46.4554 47.4203 46.6696 47.4359 46.8807 47.4095C47.0917 47.3832 47.2954 47.3152 47.4801 47.2097C47.6648 47.1042 47.8268 46.9631 47.9567 46.7947C48.0866 46.6262 48.1818 46.4338 48.2369 46.2283C48.3091 46.0184 48.3373 45.7958 48.3199 45.5745C48.3024 45.3532 48.2398 45.1379 48.1357 44.9418C48.0316 44.7457 47.8883 44.5731 47.7147 44.4347C47.5412 44.2964 47.341 44.195 47.1266 44.1372C46.9123 44.0794 46.6884 44.0662 46.4688 44.0986C46.2491 44.1309 46.0385 44.208 45.8499 44.3251C45.6613 44.4422 45.4988 44.5968 45.3724 44.7793C45.2461 44.9618 45.1585 45.1684 45.1153 45.3861C45.0599 45.5905 45.0452 45.8038 45.0723 46.0138C45.0993 46.2238 45.1676 46.4264 45.273 46.6101C45.3784 46.7937 45.5189 46.9548 45.6867 47.084C45.8544 47.2133 46.046 47.3083 46.2504 47.3635V47.3635Z" fill="url(#paint11_linear_958_1209)"/>
<path d="M59.1762 42.2001C59.4217 42.3357 59.698 42.4056 59.9784 42.4031C60.2588 42.4006 60.5338 42.3258 60.7768 42.1858C61.0199 42.0459 61.2227 41.8456 61.3656 41.6044C61.5086 41.3631 61.5869 41.089 61.5929 40.8087C61.5931 40.5192 61.5171 40.2349 61.3725 39.9842C61.2278 39.7335 61.0197 39.5253 60.769 39.3806C60.5235 39.2451 60.2472 39.1752 59.9668 39.1777C59.6864 39.1802 59.4114 39.255 59.1684 39.395C58.9253 39.5349 58.7225 39.7351 58.5796 39.9764C58.4366 40.2176 58.3583 40.4917 58.3523 40.7721C58.3473 41.0624 58.4213 41.3487 58.5664 41.6002C58.7115 41.8518 58.9223 42.0591 59.1762 42.2001Z" fill="url(#paint12_linear_958_1209)"/>
<path opacity="0.2" d="M73.3512 73.1487C77.9683 73.0534 81.624 69.2418 81.5287 64.6333C81.4334 60.0248 77.6218 56.3605 73.0133 56.4558C68.3961 56.5511 64.7405 60.3626 64.8358 64.9711C64.9311 69.5797 68.7426 73.2439 73.3512 73.1487Z" fill="#1F1D21"/>
<path d="M73.3253 71.806C77.9425 71.7107 81.5981 67.8992 81.5028 63.2907C81.4075 58.6821 77.5959 55.0179 72.9874 55.1131C68.3703 55.2084 64.7146 59.02 64.8099 63.6285C64.9052 68.237 68.7168 71.9013 73.3253 71.806Z" fill="#002D4C"/>
<path d="M77.6134 59.1152L70.8652 66.1666L68.7602 64.1395L67.4175 65.5516L70.9258 68.93L79.0254 60.4753L77.6134 59.1152Z" fill="#FAF9F8"/>
<defs>
<filter id="filter0_d_958_1209" x="10.7998" y="12.7427" width="81.1455" height="81.1256" filterUnits="userSpaceOnUse" color-interpolation-filters="sRGB">
<feFlood flood-opacity="0" result="BackgroundImageFix"/>
<feColorMatrix in="SourceAlpha" type="matrix" values="0 0 0 0 0 0 0 0 0 0 0 0 0 0 0 0 0 0 127 0" result="hardAlpha"/>
<feOffset dy="2"/>
<feGaussianBlur stdDeviation="2"/>
<feComposite in2="hardAlpha" operator="out"/>
<feColorMatrix type="matrix" values="0 0 0 0 0 0 0 0 0 0 0 0 0 0 0 0 0 0 0.25 0"/>
<feBlend mode="normal" in2="BackgroundImageFix" result="effect1_dropShadow_958_1209"/>
<feBlend mode="normal" in="SourceGraphic" in2="effect1_dropShadow_958_1209" result="shape"/>
</filter>
<filter id="filter1_d_958_1209" x="25.4775" y="29.6318" width="51.79" height="51.7898" filterUnits="userSpaceOnUse" color-interpolation-filters="sRGB">
<feFlood flood-opacity="0" result="BackgroundImageFix"/>
<feColorMatrix in="SourceAlpha" type="matrix" values="0 0 0 0 0 0 0 0 0 0 0 0 0 0 0 0 0 0 127 0" result="hardAlpha"/>
<feOffset dy="4"/>
<feGaussianBlur stdDeviation="2"/>
<feComposite in2="hardAlpha" operator="out"/>
<feColorMatrix type="matrix" values="0 0 0 0 0 0 0 0 0 0 0 0 0 0 0 0 0 0 0.25 0"/>
<feBlend mode="normal" in2="BackgroundImageFix" result="effect1_dropShadow_958_1209"/>
<feBlend mode="normal" in="SourceGraphic" in2="effect1_dropShadow_958_1209" result="shape"/>
</filter>
<linearGradient id="paint0_linear_958_1209" x1="54.8491" y1="100.625" x2="56.5991" y2="-42.8755" gradientUnits="userSpaceOnUse">
<stop offset="0.203125" stop-color="white"/>
<stop offset="0.630208" stop-color="#F4F3F5"/>
<stop offset="1" stop-color="#E8E6DF"/>
</linearGradient>
<linearGradient id="paint1_linear_958_1209" x1="49.3219" y1="13.2863" x2="50.5987" y2="95.0071" gradientUnits="userSpaceOnUse">
<stop offset="0.2" stop-color="white"/>
<stop offset="0.63" stop-color="#F4F3F5"/>
<stop offset="1" stop-color="#E8E6DF"/>
</linearGradient>
<linearGradient id="paint2_linear_958_1209" x1="53.1625" y1="-3.91211" x2="51.7191" y2="106.03" gradientUnits="userSpaceOnUse">
<stop offset="0.00520833" stop-color="#F8DF70"/>
<stop offset="0.192708" stop-color="#F2CC40"/>
<stop offset="0.583333" stop-color="#E7B116"/>
<stop offset="0.78125" stop-color="#E0A310"/>
<stop offset="0.942708" stop-color="#CA810E"/>
</linearGradient>
<linearGradient id="paint3_linear_958_1209" x1="52.7706" y1="7.89619" x2="51.644" y2="93.7338" gradientUnits="userSpaceOnUse">
<stop offset="0.00520833" stop-color="#F8DF70"/>
<stop offset="0.192708" stop-color="#F2CC40"/>
<stop offset="0.583333" stop-color="#E7B116"/>
<stop offset="0.78125" stop-color="#E0A310"/>
<stop offset="0.942708" stop-color="#CA810E"/>
</linearGradient>
<linearGradient id="paint4_linear_958_1209" x1="39.1005" y1="57.8262" x2="43.2199" y2="62.8885" gradientUnits="userSpaceOnUse">
<stop offset="0.12" stop-color="#F6EECF"/>
<stop offset="0.62" stop-color="#F6D856"/>
<stop offset="1" stop-color="#EFC433"/>
</linearGradient>
<linearGradient id="paint5_linear_958_1209" x1="47.843" y1="54.4299" x2="46.9825" y2="62.5132" gradientUnits="userSpaceOnUse">
<stop offset="0.01" stop-color="#F2CC40"/>
<stop offset="1" stop-color="#E7B116"/>
</linearGradient>
<linearGradient id="paint6_linear_958_1209" x1="48.7125" y1="47.0608" x2="56.6402" y2="64.5272" gradientUnits="userSpaceOnUse">
<stop offset="0.27" stop-color="#EFC433"/>
<stop offset="0.69" stop-color="#E0A310"/>
<stop offset="1" stop-color="#CA810E"/>
</linearGradient>
<linearGradient id="paint7_linear_958_1209" x1="58.2148" y1="29.009" x2="60.6406" y2="61.0856" gradientUnits="userSpaceOnUse">
<stop offset="0.01" stop-color="#E0A310"/>
<stop offset="1" stop-color="#CA810E"/>
</linearGradient>
<linearGradient id="paint8_linear_958_1209" x1="40.9774" y1="48.8367" x2="59.945" y2="46.2552" gradientUnits="userSpaceOnUse">
<stop offset="0.12" stop-color="#F6EECF"/>
<stop offset="1" stop-color="#F6D856"/>
</linearGradient>
<linearGradient id="paint9_linear_958_1209" x1="39.6317" y1="51.4176" x2="42.4604" y2="55.9581" gradientUnits="userSpaceOnUse">
<stop offset="0.12" stop-color="#F6EECF"/>
<stop offset="0.62" stop-color="#F6D856"/>
<stop offset="1" stop-color="#EFC433"/>
</linearGradient>
<linearGradient id="paint10_linear_958_1209" x1="52.4934" y1="43.1615" x2="53.3722" y2="48.4618" gradientUnits="userSpaceOnUse">
<stop offset="0.27" stop-color="#EFC433"/>
<stop offset="0.69" stop-color="#E0A310"/>
<stop offset="1" stop-color="#CA810E"/>
</linearGradient>
<linearGradient id="paint11_linear_958_1209" x1="46.7722" y1="43.8573" x2="46.6074" y2="47.0431" gradientUnits="userSpaceOnUse">
<stop offset="0.01" stop-color="#F2CC40"/>
<stop offset="1" stop-color="#E7B116"/>
</linearGradient>
<linearGradient id="paint12_linear_958_1209" x1="59.8719" y1="36.195" x2="60.0001" y2="41.9896" gradientUnits="userSpaceOnUse">
<stop offset="0.01" stop-color="#E0A310"/>
<stop offset="1" stop-color="#CA810E"/>
</linearGradient>
</defs>
</svg>
