<svg width="103" height="103" viewBox="0 0 103 103" fill="none" xmlns="http://www.w3.org/2000/svg">
<path fill-rule="evenodd" clip-rule="evenodd" d="M97.7006 51.217C97.7006 76.567 77.1506 97.117 51.8006 97.117C26.4506 97.117 5.90064 76.567 5.90064 51.217C5.90064 25.867 26.4506 5.317 51.8006 5.317C77.1506 5.317 97.7006 25.867 97.7006 51.217ZM51.8006 1.577C79.2206 1.577 101.441 23.797 101.441 51.217C101.441 78.637 79.2106 100.857 51.8006 100.857C24.3806 100.857 2.16064 78.627 2.16064 51.217C2.16064 23.797 24.3806 1.577 51.8006 1.577Z" fill="url(#paint0_linear_908_27655)"/>
<path d="M51.5507 94.529C27.6325 94.529 8.23877 75.1446 8.23877 51.2171C8.23877 27.2896 27.6325 7.90512 51.5507 7.90512C75.469 7.90512 94.8627 27.2988 94.8627 51.2171C94.8627 75.1353 75.469 94.529 51.5507 94.529Z" fill="url(#paint1_linear_908_27655)"/>
<path d="M80.257 22.7549C73.672 16.1713 65.008 12.0747 55.7411 11.163C46.4742 10.2514 37.1778 12.5811 29.4361 17.7553C21.6944 22.9295 15.9862 30.628 13.2843 39.539C10.5824 48.45 11.0539 58.0222 14.6185 66.6246C18.183 75.2269 24.6199 82.3272 32.8327 86.7155C41.0454 91.1039 50.5256 92.5088 59.6581 90.6909C68.7905 88.873 77.0101 83.9447 82.9163 76.7459C88.8225 69.547 92.0498 60.523 92.0484 51.2114C92.0608 45.9243 91.0251 40.6872 89.0011 35.8028C86.9772 30.9185 84.0053 26.4837 80.257 22.7549V22.7549ZM51.3722 15.9979H51.4345L58.629 11.7936C60.0837 12.0385 61.5232 12.3663 62.9404 12.7755L51.4345 19.4969L40.1431 12.954C41.5356 12.5312 42.9512 12.1885 44.383 11.9276L51.3722 15.9979ZM44.7757 11.8651C46.4456 11.5636 48.1333 11.3698 49.828 11.2848L51.399 12.1775H51.4613L53.1217 11.2045C54.8444 11.2623 56.5616 11.4293 58.2631 11.7044L51.4345 15.6943L44.7757 11.8651ZM51.3722 19.7825H51.4345L63.2706 12.8648C64.5381 13.2486 65.7879 13.686 67.0108 14.1858L51.4345 23.2905L36.171 14.3644C37.3756 13.8487 38.6059 13.3958 39.8574 13.0076L51.3722 19.7825ZM51.3722 23.5672H51.4345L67.2873 14.3019C68.412 14.775 69.519 15.3016 70.5991 15.8818L51.4345 27.0751L32.6274 16.0871C33.6896 15.5069 34.7874 14.9714 35.8943 14.4893L51.3722 23.5672ZM51.3722 27.3518H51.4345L70.8488 16.0157C71.8575 16.5602 72.8394 17.1582 73.8034 17.8009L51.4345 30.8687L29.4318 18.0598C30.3868 17.4171 31.3688 16.8191 32.3685 16.2746L51.3722 27.3518ZM51.3722 31.1365H51.4345L74.0623 17.9794C74.9549 18.5953 75.8475 19.2559 76.7402 19.9521L51.4703 34.7159L26.6201 20.1931C27.477 19.4969 28.3696 18.8363 29.2979 18.2115L51.3722 31.1365ZM51.3722 34.9569H51.4345L76.9097 20.0771C77.7309 20.7376 78.5255 21.4428 79.3021 22.1747L51.4613 38.4381L24.0761 22.4604C24.8259 21.7284 25.6025 21.0233 26.4059 20.3538L51.3722 34.9569ZM52.6665 11.2581L51.4613 11.9632L50.2922 11.2759C50.7921 11.2759 51.2919 11.2759 51.8006 11.2759L52.6665 11.2581ZM23.5315 22.9513C23.6386 22.8352 23.7548 22.7371 23.8619 22.63L51.399 38.697H51.4613L79.4805 22.3354C79.6769 22.5228 79.8732 22.7014 80.0696 22.8977C80.6052 23.4333 81.1318 23.9956 81.6317 24.558L52.4433 41.6158L52.6754 41.7586L81.7923 24.799C82.4796 25.5666 83.1224 26.361 83.7383 27.1733L55.6834 43.5438L55.9244 43.6866L83.8811 27.3608C84.488 28.182 85.0592 29.021 85.5948 29.869L58.9237 45.454L59.1558 45.5968L85.7288 30.0743C86.2644 30.9669 86.7642 31.806 87.2373 32.6897L62.1548 47.3464L62.3958 47.4892L87.3443 32.9129C87.8084 33.8055 88.2371 34.698 88.6387 35.671L65.4308 49.2387L65.6719 49.3815L88.7636 35.8941C89.1564 36.8403 89.5044 37.8043 89.8168 38.7773L68.6709 51.131L68.9119 51.2738L89.8972 39.0094C90.2186 40.0091 90.4952 41.0177 90.7362 42.0353L71.9201 53.0323L72.1522 53.1662L90.7899 42.2853C91.0219 43.3296 91.2272 44.3829 91.3789 45.4451L75.1602 54.9246L75.4012 55.0585L91.4146 45.7039C91.5694 46.8048 91.6766 47.9117 91.7361 49.0245L78.4005 56.817L78.6413 56.9509L91.745 49.3012C91.745 49.9349 91.7986 50.5776 91.7986 51.2114C91.7986 51.8451 91.7986 52.2736 91.7986 52.7913L81.6227 58.7182L81.8637 58.8521L91.7271 53.0859C91.6744 54.3376 91.5581 55.5859 91.3789 56.8259L84.8896 60.6195L85.1306 60.7623L91.3789 57.1294C91.1851 58.4571 90.923 59.774 90.5935 61.0747L88.1478 62.5029L88.3888 62.6457L90.5042 61.405C90.2364 62.4226 89.9388 63.4223 89.6115 64.4042L51.747 42.2942H51.6845L14.0342 64.2881C13.7664 63.5115 13.5254 62.735 13.3111 61.9495L14.552 62.6725L14.793 62.5297L13.222 61.6371C12.8568 60.3292 12.5589 59.0034 12.3294 57.665L17.7295 60.8158L17.9705 60.673L12.2758 57.3525C12.0883 56.1118 11.9545 54.8532 11.8831 53.5857L20.9966 58.9414L21.2376 58.8075L11.8652 53.3269C11.8652 52.6574 11.8116 51.9879 11.8116 51.3096C11.8116 50.8097 11.8116 50.3188 11.8116 49.8189L24.201 57.049L24.442 56.9151L11.8205 49.5422C11.8741 48.4264 11.9724 47.3106 12.1152 46.2038L27.4412 55.1299L27.6823 54.9871L12.1418 45.9093C12.2846 44.8381 12.4721 43.7759 12.7042 42.7316L30.6813 53.2286L30.9223 53.0948L12.7578 42.4816C12.9899 41.4551 13.2487 40.4376 13.5611 39.4378L33.9306 51.3363L34.1716 51.1935L13.6415 39.2058C13.9539 38.2239 14.293 37.2599 14.6769 36.3048L37.1796 49.444L37.4206 49.3012L14.7662 36.0816C15.159 35.1354 15.5873 34.2161 16.0426 33.3056L40.4288 47.5874L40.6698 47.4445L16.1585 33.1628C16.6137 32.2701 17.1048 31.3775 17.6315 30.4849L43.6599 45.6593L43.901 45.5165L17.8278 30.1547C18.3634 29.2621 18.9256 28.4498 19.5237 27.6286L46.9804 43.6956L47.2214 43.5528L19.613 27.4768C20.22 26.6556 20.8715 25.8701 21.541 25.0936L50.1671 41.8211L50.4081 41.6783L21.7018 24.9061C22.2909 24.2366 22.8977 23.5761 23.5315 22.9513V22.9513ZM51.747 57.4418H51.6845L20.2825 75.776C19.6577 74.9727 19.0507 74.1515 18.4973 73.3124L51.6934 53.907L85.1128 73.4284C84.5504 74.2764 83.9345 75.0976 83.3275 75.901L51.747 57.4418ZM83.1401 76.0706C82.5064 76.8739 81.828 77.6505 81.1228 78.4092L51.7202 61.2354H51.6577L22.4157 78.3111C21.7195 77.5613 21.0679 76.7758 20.4342 75.9814L51.6756 57.7274L83.1401 76.0706ZM51.747 53.6303H51.6845L18.3635 73.1071C17.81 72.2145 17.2923 71.3933 16.8014 70.5185L51.6845 50.1402L86.791 70.6703C86.309 71.5451 85.7913 72.402 85.2378 73.241L51.747 53.6303ZM51.747 49.8725H51.6845L16.6495 70.3222C16.1586 69.4296 15.7569 68.537 15.3016 67.5997L51.6488 46.3645L88.2458 67.7425C87.8263 68.6351 87.3534 69.5724 86.8893 70.4204L51.747 49.8725ZM51.747 46.0789H51.6845L15.2393 67.3676C14.8287 66.475 14.4449 65.4842 14.1057 64.5202L51.6845 42.5798L89.5135 64.6719C89.1743 65.636 88.7815 66.5732 88.3709 67.5104L51.747 46.0789ZM51.6666 83.9166L41.5177 89.8436C40.2145 89.4955 38.9291 89.0849 37.6705 88.6118L51.7024 80.4176L65.8235 88.6743C64.5379 89.1589 63.2269 89.5731 61.8961 89.915L51.6666 83.9166ZM61.5658 90.0042C60.0945 90.3654 58.6046 90.6455 57.1027 90.8433L51.747 87.7102H51.6845L46.3288 90.8433C44.8246 90.6352 43.3343 90.3372 41.8658 89.9507L51.6845 84.2112L61.5658 90.0042ZM51.747 80.1855H51.6845L37.4027 88.5404C36.2334 88.0851 35.0821 87.5853 33.9663 87.023L51.6398 76.5705L69.4921 87.023C68.3584 87.5853 67.2071 88.0851 66.0378 88.5404L51.747 80.1855ZM51.747 76.3652H51.6934L33.7074 86.889C32.672 86.3624 31.6632 85.7822 30.6724 85.1663L51.7024 72.884L72.893 85.2555C71.9022 85.8715 70.8847 86.4428 69.8492 86.9694L51.747 76.3652ZM51.747 72.5983H51.6845L30.4226 85.0235C29.4854 84.4254 28.5749 83.7917 27.6823 83.1133L51.6845 69.0993L75.8475 83.1758C74.9549 83.8542 74.0623 84.479 73.0982 85.0681L51.747 72.5983ZM51.747 68.8137H51.6845L27.477 82.9527C26.629 82.301 25.7989 81.6137 25.0044 80.8907L51.6845 65.3057L78.5254 80.9621C77.722 81.6851 76.8919 82.3635 76.0439 83.0151L51.747 68.8137ZM46.7305 90.8701L51.6845 87.9602L56.7011 90.8969C55.0872 91.0971 53.4626 91.1985 51.8364 91.2004C50.1169 91.1941 48.3996 91.0778 46.6949 90.8522L46.7305 90.8701ZM80.1053 79.4893C79.6501 79.9445 79.2127 80.3819 78.7307 80.8014L51.747 65.0201H51.6845L24.817 80.7122C24.3975 80.3194 23.9778 79.9267 23.5672 79.5161C23.1566 79.1055 22.9158 78.8377 22.5855 78.4896L51.6577 61.53L80.9533 78.6324C80.6408 78.8912 80.3641 79.1947 80.0696 79.4804L80.1053 79.4893Z" fill="url(#paint2_linear_908_27655)"/>
<path fill-rule="evenodd" clip-rule="evenodd" d="M94.8907 51.2176C94.8907 75.0176 75.6007 94.3076 51.8007 94.3076C28.0007 94.3076 8.7107 75.0176 8.7107 51.2176C8.7107 27.4176 28.0007 8.12761 51.8007 8.12761C75.6007 8.12761 94.8907 27.4176 94.8907 51.2176ZM51.8007 4.3876C77.6607 4.3876 98.6307 25.3576 98.6307 51.2176C98.6307 77.0776 77.6607 98.0476 51.8007 98.0476C25.9407 98.0476 4.9707 77.0776 4.9707 51.2176C4.9707 25.3576 25.9307 4.3876 51.8007 4.3876Z" fill="url(#paint3_linear_908_27655)"/>
<path opacity="0.15" d="M87.144 47.1126C87.144 46.3448 86.514 45.7149 85.7462 45.7149C85.2442 45.7149 82.1041 45.4392 80.4209 44.1301C80.4209 44.1301 80.4307 44.1104 80.4209 44.1301C79.781 41.807 78.8557 39.6414 77.704 37.5939C77.4087 35.6449 79.4267 34.2274 80.3421 32.7115C80.4996 32.4457 80.598 32.2981 80.6571 32.1898C80.8244 31.6976 80.7359 31.1267 80.3421 30.733C80.3421 30.733 78.7967 28.5182 77.202 26.9432C75.6172 25.3682 73.2055 23.6062 73.2055 23.6062C72.6641 23.0648 71.7684 23.0648 71.227 23.6062C70.8628 23.9606 68.4806 25.9293 66.3347 26.2345C66.3052 26.2345 66.3052 26.2345 66.3052 26.2345C64.307 25.1025 62.0626 24.1673 59.8183 23.5373H59.7888C58.204 22.3659 58.6174 19.9444 58.204 18.212C58.204 17.4442 57.574 16.8142 56.8062 16.8142C56.8062 16.8142 54.1484 16.3515 51.9041 16.3515C49.6597 16.3515 46.7264 16.8142 46.7264 16.8142C45.9586 16.8142 45.3286 17.4442 45.3286 18.212C45.3286 18.714 45.053 21.8541 43.7438 23.5373C41.5191 24.1673 39.1862 25.1517 37.2076 26.2541C35.2586 26.5495 33.8412 24.5315 32.3252 23.6161C32.0595 23.4586 31.9118 23.3601 31.8035 23.3011C31.3114 23.1337 30.7404 23.2223 30.3467 23.6161C30.3467 23.6161 28.1319 25.1615 26.5569 26.7562C24.982 28.3508 23.22 30.7527 23.22 30.7527C22.6786 31.2941 22.6786 32.1898 23.22 32.7312C23.5743 33.0856 25.5923 35.5071 25.858 37.6136V37.6333C24.7556 39.6119 23.7909 41.9349 23.1609 44.1596C23.1609 44.1596 23.1904 44.1202 23.1609 44.1596C21.8025 45.8133 19.568 45.331 17.8355 45.7444C17.0677 45.7444 16.4377 46.3744 16.4377 47.1422C16.4377 47.1422 15.9751 49.7999 15.9751 52.0443C15.9751 54.2886 16.4377 57.222 16.4377 57.222C16.4377 57.9898 17.0677 58.6198 17.8355 58.6198C18.3376 58.6198 21.4776 58.8954 23.1609 60.2046C23.2003 60.1849 23.1806 60.2341 23.1806 60.2341C23.8303 62.4686 24.7457 64.7031 25.8679 66.6816C25.8482 66.7112 25.8679 66.6816 25.8777 66.7505C26.0647 68.7882 24.1551 70.117 23.2396 71.6329C23.0821 71.8987 22.9837 72.0464 22.9246 72.1547C22.7573 72.6468 22.8459 73.2178 23.2396 73.6115C23.2396 73.6115 24.7851 75.8263 26.3797 77.4013C27.9646 78.9861 30.3762 80.7382 30.3762 80.7382C30.9176 81.2796 31.8134 81.2796 32.3548 80.7382C32.7091 80.3839 35.1307 78.3659 37.2372 78.1002C37.2372 78.1002 37.2273 78.11 37.2667 78.1198C39.3043 79.2519 41.401 80.1476 43.7044 80.7678C43.7241 80.7776 43.793 80.7973 43.793 80.7973C45.3778 81.9687 44.9644 84.3902 45.3778 86.1227C45.4664 86.9003 45.8897 87.3925 46.7756 87.5205C46.7756 87.5205 49.4333 87.9831 51.6777 87.9831C53.922 87.9831 56.8554 87.5303 56.8554 87.5303C57.6232 87.3925 58.2532 86.9003 58.2532 86.1325C58.2532 85.6305 58.5288 82.4904 59.838 80.8071C59.838 80.8071 59.897 80.7579 59.9561 80.7087C62.2989 80.0492 64.0707 79.3306 66.1379 78.1395C66.2461 78.1002 66.128 78.11 66.3741 78.0706C68.3231 77.7753 69.7406 79.7933 71.2565 80.7087C71.5223 80.8662 71.6699 80.9646 71.7782 81.0237C72.2704 81.191 72.8413 81.1025 73.2351 80.7087C73.2351 80.7087 75.4499 79.1633 77.0248 77.5686C78.6097 75.9838 80.3618 73.5721 80.3618 73.5721C80.9032 73.0307 80.9032 72.135 80.3618 71.5936C80.0074 71.2392 77.9895 68.8177 77.7237 66.7112C77.6942 66.4946 77.7139 66.4651 77.7434 66.406C78.9246 64.329 79.6629 62.8033 80.3126 60.4507C80.3126 60.4507 80.2831 60.3719 80.4405 60.175C81.6119 58.5902 84.0334 59.0037 85.7659 58.5902C86.5337 58.5902 87.1637 57.9602 87.1637 57.1925C87.1637 57.1925 87.6263 54.5347 87.6263 52.2904C87.6263 50.046 87.144 47.1126 87.144 47.1126Z" fill="#1F1D20"/>
<g filter="url(#filter0_d_908_27655)">
<path d="M87.144 45.2126C87.144 44.4448 86.514 43.8148 85.7462 43.8148C85.2442 43.8148 82.1041 43.5392 80.4209 42.23C80.4209 42.23 80.4307 42.2103 80.4209 42.23C79.781 39.9069 78.8557 37.7414 77.704 35.6939C77.4087 33.7449 79.4267 32.3274 80.3421 30.8115C80.4996 30.5457 80.598 30.3981 80.6571 30.2898C80.8244 29.7976 80.7359 29.2267 80.3421 28.8329C80.3421 28.8329 78.7967 26.6181 77.202 25.0432C75.6172 23.4682 73.2055 21.7062 73.2055 21.7062C72.6641 21.1648 71.7684 21.1648 71.227 21.7062C70.8628 22.0606 68.4806 24.0293 66.3347 24.3344C66.3052 24.3344 66.3052 24.3344 66.3052 24.3344C64.307 23.2024 62.0626 22.2673 59.8183 21.6373H59.7888C58.204 20.4659 58.6174 18.0444 58.204 16.3119C58.204 15.5441 57.574 14.9142 56.8062 14.9142C56.8062 14.9142 54.1484 14.4515 51.9041 14.4515C49.6597 14.4515 46.7264 14.9142 46.7264 14.9142C45.9586 14.9142 45.3286 15.5441 45.3286 16.3119C45.3286 16.814 45.053 19.9541 43.7438 21.6373C41.5191 22.2673 39.1862 23.2516 37.2076 24.3541C35.2586 24.6494 33.8412 22.6315 32.3252 21.7161C32.0595 21.5586 31.9118 21.4601 31.8035 21.4011C31.3114 21.2337 30.7404 21.3223 30.3467 21.7161C30.3467 21.7161 28.1319 23.2615 26.5569 24.8561C24.982 26.441 23.22 28.8526 23.22 28.8526C22.6786 29.394 22.6786 30.2898 23.22 30.8312C23.5743 31.1856 25.5923 33.6071 25.858 35.7136V35.7333C24.7556 37.7118 23.7909 40.0349 23.1609 42.2596C23.1609 42.2596 23.1904 42.2202 23.1609 42.2596C21.8025 43.9133 19.568 43.4309 17.8355 43.8444C17.0677 43.8444 16.4377 44.4744 16.4377 45.2422C16.4377 45.2422 15.9751 47.8999 15.9751 50.1442C15.9751 52.3886 16.4377 55.322 16.4377 55.322C16.4377 56.0898 17.0677 56.7197 17.8355 56.7197C18.3376 56.7197 21.4776 56.9954 23.1609 58.3046C23.2003 58.2849 23.1806 58.3341 23.1806 58.3341C23.8303 60.5686 24.7457 62.8031 25.8679 64.7816C25.8482 64.8111 25.8679 64.7816 25.8777 64.8505C26.0647 66.8881 24.1551 68.217 23.2396 69.7329C23.0821 69.9987 22.9837 70.1464 22.9246 70.2546C22.7573 70.7468 22.8459 71.3177 23.2396 71.7115C23.2396 71.7115 24.7851 73.9263 26.3797 75.5012C27.9646 77.0861 30.3762 78.8382 30.3762 78.8382C30.9176 79.3796 31.8134 79.3796 32.3548 78.8382C32.7091 78.4838 35.1307 76.4659 37.2372 76.2001C37.2372 76.2001 37.2273 76.21 37.2667 76.2198C39.3043 77.3518 41.401 78.2476 43.7044 78.8677C43.7241 78.8776 43.793 78.8973 43.793 78.8973C45.3778 80.0687 44.9644 82.4902 45.3778 84.2226C45.4664 85.0003 45.8897 85.4925 46.7756 85.6204C46.7756 85.6204 49.4333 86.0831 51.6777 86.0831C53.922 86.0831 56.8554 85.6303 56.8554 85.6303C57.6232 85.4925 58.2532 85.0003 58.2532 84.2325C58.2532 83.7305 58.5288 80.5904 59.838 78.9071C59.838 78.9071 59.897 78.8579 59.9561 78.8087C62.2989 78.1492 64.0707 77.4306 66.1379 76.2395C66.2461 76.2001 66.128 76.21 66.3741 76.1706C68.3231 75.8753 69.7406 77.8932 71.2565 78.8087C71.5223 78.9662 71.6699 79.0646 71.7782 79.1237C72.2704 79.291 72.8413 79.2024 73.2351 78.8087C73.2351 78.8087 75.4499 77.2632 77.0248 75.6686C78.6097 74.0838 80.3618 71.6721 80.3618 71.6721C80.9032 71.1307 80.9032 70.2349 80.3618 69.6935C80.0074 69.3392 77.9895 66.9177 77.7237 64.8111C77.6942 64.5946 77.7139 64.5651 77.7434 64.506C78.9246 62.429 79.6629 60.9033 80.3126 58.5506C80.3126 58.5506 80.2831 58.4719 80.4405 58.275C81.6119 56.6902 84.0334 57.1036 85.7659 56.6902C86.5337 56.6902 87.1637 56.0602 87.1637 55.2924C87.1637 55.2924 87.6263 52.6347 87.6263 50.3903C87.6263 48.146 87.144 45.2126 87.144 45.2126Z" fill="url(#paint4_linear_908_27655)"/>
</g>
<path opacity="0.15" d="M65.7249 59.0944L52.2089 51.6762L38.838 59.0944C38.7735 59.1286 38.7193 59.1793 38.681 59.2415C38.6428 59.3037 38.622 59.375 38.6207 59.448C38.6194 59.521 38.6377 59.593 38.6737 59.6565C38.7097 59.72 38.762 59.7727 38.8253 59.8091L51.5106 67.064C51.7462 67.1986 52.0129 67.2694 52.2842 67.2694C52.5555 67.2694 52.8222 67.1986 53.0578 67.064L65.7394 59.8199C65.8059 59.7848 65.8614 59.7318 65.8995 59.667C65.9377 59.6021 65.9571 59.5279 65.9556 59.4527C65.9541 59.3775 65.9317 59.3042 65.891 59.2409C65.8503 59.1777 65.7928 59.127 65.7249 59.0944V59.0944Z" fill="#1F1D20"/>
<path d="M66.0542 56.8084V43.3362C66.0542 42.971 65.9581 42.6122 65.7756 42.2959C65.593 41.9796 65.3305 41.7168 65.0143 41.5341L53.3424 34.798C53.0259 34.6155 52.667 34.5194 52.3016 34.5194C51.9363 34.5194 51.5774 34.6155 51.2609 34.798L39.589 41.5341C39.2724 41.7165 39.0094 41.9791 38.8265 42.2954C38.6437 42.6118 38.5474 42.9708 38.5474 43.3362V56.8084C38.547 57.1739 38.6431 57.5329 38.826 57.8494C39.0089 58.1658 39.2721 58.4283 39.589 58.6104L51.2609 65.3466C51.5771 65.5299 51.9361 65.6265 52.3016 65.6265C52.6672 65.6265 53.0262 65.5299 53.3424 65.3466L65.0143 58.6104C65.3307 58.428 65.5935 58.1653 65.776 57.8489C65.9586 57.5326 66.0545 57.1737 66.0542 56.8084V56.8084Z" fill="white"/>
<path fill-rule="evenodd" clip-rule="evenodd" d="M52.5614 29.3402C46.9665 29.3402 41.6008 31.5627 37.6446 35.5189C33.6884 39.4751 31.4658 44.8409 31.4658 50.4358L31.4658 50.4376C31.4594 53.8053 32.2609 57.1255 33.8033 60.1193C35.3457 63.1131 37.5838 65.6932 40.3297 67.6429C40.7555 67.9452 40.8556 68.5355 40.5533 68.9613C40.251 69.3871 39.6607 69.4871 39.2349 69.1848C36.2423 67.0599 33.8032 64.248 32.1222 60.9853C30.4415 57.7229 29.5679 54.1048 29.5747 50.4349C29.575 44.3388 31.9968 38.4924 36.3074 34.1818C40.6182 29.8709 46.465 27.4491 52.5614 27.4491C53.0836 27.4491 53.5069 27.8725 53.5069 28.3947C53.5069 28.9168 53.0836 29.3402 52.5614 29.3402Z" fill="white"/>
<path fill-rule="evenodd" clip-rule="evenodd" d="M66.5354 33.4016C66.883 33.0119 67.4807 32.9778 67.8704 33.3255C70.2815 35.4762 72.2101 38.1128 73.5296 41.062C74.8491 44.0113 75.5296 47.2063 75.5263 50.4373L74.5808 50.4363H75.5263C75.5263 50.4366 75.5263 50.437 75.5263 50.4373C75.5261 56.5392 73.102 62.3911 68.7873 66.7058C64.4723 71.0207 58.62 73.4449 52.5178 73.4449C51.9956 73.4449 51.5723 73.0215 51.5723 72.4993C51.5723 71.9771 51.9956 71.5538 52.5178 71.5538C58.1185 71.5538 63.4898 69.3289 67.4501 65.3686C71.4104 61.4083 73.6353 56.037 73.6353 50.4363V50.4354C73.6383 47.4712 73.014 44.54 71.8035 41.8343C70.593 39.1286 68.8236 36.7098 66.6116 34.7366C66.2219 34.389 66.1878 33.7913 66.5354 33.4016Z" fill="white"/>
<path d="M52.4429 25.9603L56.8087 28.4826L52.4429 31V25.9603Z" fill="white"/>
<path d="M53.3887 69.934L49.0228 72.4563L53.3887 74.9737V69.934Z" fill="white"/>
<path opacity="0.15" d="M50.1513 54.1953L48.4341 52.4781C48.3234 52.3597 48.1895 52.2654 48.0408 52.2009C47.8921 52.1364 47.7317 52.1032 47.5696 52.1032C47.4075 52.1032 47.2472 52.1364 47.0985 52.2009C46.9498 52.2654 46.8157 52.3597 46.7049 52.4781C46.5866 52.5888 46.4923 52.7227 46.4278 52.8714C46.3633 53.0201 46.3301 53.1805 46.3301 53.3426C46.3301 53.5047 46.3633 53.665 46.4278 53.8137C46.4923 53.9624 46.5866 54.0964 46.7049 54.2072L49.3696 56.8719C49.4734 56.979 49.5978 57.064 49.7351 57.1222C49.8724 57.1803 50.02 57.2103 50.1691 57.2103C50.3182 57.2103 50.4659 57.1803 50.6032 57.1222C50.7406 57.064 50.8648 56.979 50.9686 56.8719L56.7716 51.0687V47.5869L50.1513 54.1953Z" fill="#1F1D20"/>
<path d="M59.6849 45.6442C59.5742 45.5259 59.4403 45.4316 59.2916 45.3671C59.1429 45.3026 58.9825 45.2694 58.8204 45.2694C58.6583 45.2694 58.498 45.3026 58.3493 45.3671C58.2006 45.4316 58.0665 45.5259 57.9557 45.6442L50.163 53.437L48.4459 51.7079C48.3351 51.5896 48.2012 51.4953 48.0525 51.4308C47.9038 51.3663 47.7434 51.333 47.5813 51.333C47.4192 51.333 47.2587 51.3663 47.11 51.4308C46.9613 51.4953 46.8274 51.5896 46.7167 51.7079C46.5983 51.8187 46.504 51.9526 46.4395 52.1013C46.375 52.25 46.3418 52.4104 46.3418 52.5725C46.3418 52.7346 46.375 52.8949 46.4395 53.0436C46.504 53.1924 46.5983 53.3262 46.7167 53.437L49.3814 56.1017C49.4851 56.2088 49.6095 56.294 49.7468 56.3521C49.8842 56.4103 50.0317 56.4402 50.1808 56.4402C50.33 56.4402 50.4775 56.4103 50.6148 56.3521C50.7521 56.294 50.8765 56.2088 50.9803 56.1017L59.6968 47.3734C59.8144 47.2618 59.9077 47.1273 59.9712 46.9781C60.0347 46.829 60.0668 46.6683 60.0657 46.5062C60.0646 46.3441 60.0302 46.184 59.9647 46.0357C59.8992 45.8875 59.804 45.7542 59.6849 45.6442Z" fill="url(#paint5_linear_908_27655)"/>
<defs>
<filter id="filter0_d_908_27655" x="11.9751" y="12.4515" width="79.6514" height="79.6316" filterUnits="userSpaceOnUse" color-interpolation-filters="sRGB">
<feFlood flood-opacity="0" result="BackgroundImageFix"/>
<feColorMatrix in="SourceAlpha" type="matrix" values="0 0 0 0 0 0 0 0 0 0 0 0 0 0 0 0 0 0 127 0" result="hardAlpha"/>
<feOffset dy="2"/>
<feGaussianBlur stdDeviation="2"/>
<feComposite in2="hardAlpha" operator="out"/>
<feColorMatrix type="matrix" values="0 0 0 0 0 0 0 0 0 0 0 0 0 0 0 0 0 0 0.25 0"/>
<feBlend mode="normal" in2="BackgroundImageFix" result="effect1_dropShadow_908_27655"/>
<feBlend mode="normal" in="SourceGraphic" in2="effect1_dropShadow_908_27655" result="shape"/>
</filter>
<linearGradient id="paint0_linear_908_27655" x1="55.2773" y1="100.155" x2="57.0273" y2="-43.3449" gradientUnits="userSpaceOnUse">
<stop offset="0.203125" stop-color="white"/>
<stop offset="0.630208" stop-color="#F4F3F5"/>
<stop offset="1" stop-color="#E8E6DF"/>
</linearGradient>
<linearGradient id="paint1_linear_908_27655" x1="49.7501" y1="12.8169" x2="51.027" y2="94.5377" gradientUnits="userSpaceOnUse">
<stop offset="0.2" stop-color="white"/>
<stop offset="0.63" stop-color="#F4F3F5"/>
<stop offset="1" stop-color="#E8E6DF"/>
</linearGradient>
<linearGradient id="paint2_linear_908_27655" x1="18.0063" y1="16.8994" x2="82.1137" y2="81.9975" gradientUnits="userSpaceOnUse">
<stop offset="0.01" stop-color="#F8DF70"/>
<stop offset="0.19" stop-color="#F2CC40"/>
<stop offset="0.58" stop-color="#E7B116"/>
<stop offset="0.78" stop-color="#E0A310"/>
<stop offset="0.94" stop-color="#CA810E"/>
</linearGradient>
<linearGradient id="paint3_linear_908_27655" x1="53.5907" y1="-4.38144" x2="52.1473" y2="105.56" gradientUnits="userSpaceOnUse">
<stop offset="0.00520833" stop-color="#F8DF70"/>
<stop offset="0.192708" stop-color="#F2CC40"/>
<stop offset="0.583333" stop-color="#E7B116"/>
<stop offset="0.78125" stop-color="#E0A310"/>
<stop offset="0.942708" stop-color="#CA810E"/>
</linearGradient>
<linearGradient id="paint4_linear_908_27655" x1="53.1701" y1="7.74491" x2="52.0665" y2="91.8288" gradientUnits="userSpaceOnUse">
<stop offset="0.00520833" stop-color="#F8DF70"/>
<stop offset="0.192708" stop-color="#F2CC40"/>
<stop offset="0.583333" stop-color="#E7B116"/>
<stop offset="0.78125" stop-color="#E0A310"/>
<stop offset="0.942708" stop-color="#CA810E"/>
</linearGradient>
<linearGradient id="paint5_linear_908_27655" x1="39.4978" y1="40.0327" x2="61.8733" y2="70.6773" gradientUnits="userSpaceOnUse">
<stop stop-color="#008BF1"/>
<stop offset="0.22" stop-color="#0086EC"/>
<stop offset="0.49" stop-color="#0078DD"/>
<stop offset="0.79" stop-color="#0061C4"/>
<stop offset="1" stop-color="#004DAE"/>
</linearGradient>
</defs>
</svg>
