<svg width="103" height="103" viewBox="0 0 103 103" fill="none" xmlns="http://www.w3.org/2000/svg">
<path fill-rule="evenodd" clip-rule="evenodd" d="M97.7006 51.7689C97.7006 77.1189 77.1506 97.6689 51.8006 97.6689C26.4506 97.6689 5.90064 77.1189 5.90064 51.7689C5.90064 26.4189 26.4506 5.86891 51.8006 5.86891C77.1506 5.86891 97.7006 26.4189 97.7006 51.7689ZM51.8006 2.12891C79.2206 2.12891 101.441 24.3489 101.441 51.7689C101.441 79.1889 79.2106 101.409 51.8006 101.409C24.3806 101.409 2.16064 79.1789 2.16064 51.7689C2.16064 24.3489 24.3806 2.12891 51.8006 2.12891Z" fill="url(#paint0_linear_904_21547)"/>
<path d="M51.5507 95.0809C27.6325 95.0809 8.23877 75.6965 8.23877 51.769C8.23877 27.8415 27.6325 8.45703 51.5507 8.45703C75.469 8.45703 94.8627 27.8507 94.8627 51.769C94.8627 75.6872 75.469 95.0809 51.5507 95.0809Z" fill="url(#paint1_linear_904_21547)"/>
<path d="M14.1039 58.4286L20.1039 61.8486L14.1638 65.2687L8.53381 62.0386L8.6239 62.4286L13.8739 65.4286L9.8739 67.7386C9.8739 67.8386 9.92385 67.9387 9.94385 68.0287L14.1838 65.5886L20.1838 69.0087L14.2539 72.4186L10.4739 70.2487V70.3987L10.7838 70.7986L13.9038 72.5986L12.7139 73.2787L12.8938 73.5087L14.1938 72.7587L20.1139 76.1686L16.5739 78.1686L16.7539 78.3987L20.4038 76.2986L26.4038 79.7286L20.5138 83.1086C20.7138 83.3686 20.9039 83.5986 21.0939 83.8286L38.9539 94.1487L39.6139 94.1986L39.4539 94.0986L45.4539 90.6587L51.3739 94.0686L49.9939 94.8586H50.5138L51.6638 94.1886L53.1039 95.0187H53.7638L51.9539 94.0187L57.9539 90.5786L63.0638 93.5087L63.4739 93.3887L58.2638 90.3887L64.1538 86.9987L69.9138 90.3086L65.6838 92.7386L66.8038 92.4186L82.3938 83.4186L83.5839 82.4186L82.7139 82.9286L76.9438 79.6187L82.8639 76.2186L86.9338 78.5486L87.0939 78.3086L83.1538 76.0486L89.1538 72.6187L90.4038 73.3386L90.5638 73.0986L89.4438 72.4486L91.8838 71.0486L92.2239 70.5287L89.1538 72.2886L83.2339 68.8787L89.1638 65.4686L93.7738 68.1187C93.8193 68.0359 93.8694 67.9558 93.9238 67.8787L89.4539 65.3086L95.1538 62.0187L95.2539 61.4186L70.8138 47.3086L58.3539 40.1187L58.2239 40.0686L52.1638 36.5686L51.8838 36.3887L8.50391 61.3086C8.52135 61.4066 8.54467 61.5035 8.57385 61.5986L14.1039 58.4286ZM14.4138 65.4286L20.3439 62.0187L26.3439 65.4386L20.4038 68.8486L14.4138 65.4286ZM51.8539 65.4286L57.7738 62.0287L63.6838 65.4186L57.7638 68.8186L51.8539 65.4286ZM57.4739 68.9886L51.4739 72.4186L45.5638 69.0187L51.5638 65.5986L57.4739 68.9886ZM51.5739 65.2587L45.5739 61.8386L51.4939 58.4386L57.4939 61.8586L51.5739 65.2587ZM51.2838 65.4286L45.2838 68.8586L39.2838 65.4286L45.2838 61.9987L51.2838 65.4286ZM45.0238 69.0187L39.0739 72.4486L33.0739 69.0187L39.0739 65.5986L45.0238 69.0187ZM45.0238 76.1786L39.1139 79.5786L33.1938 76.1786L39.1139 72.7787L45.0238 76.1786ZM39.4138 72.6086L45.3639 69.1886L51.2738 72.5786L45.2738 76.0087L39.4138 72.6086ZM51.5638 72.7487L57.5638 76.1786L51.5638 79.5986L45.5638 76.1686L51.5638 72.7487ZM51.8539 72.5786L57.8539 69.1587L63.8539 72.5786L57.8539 76.0087L51.8539 72.5786ZM58.1039 68.9886L64.0238 65.5886L70.0238 69.0187L64.1139 72.4186L58.1039 68.9886ZM64.3038 65.4186L70.3038 61.9886L76.3038 65.4186L70.3038 68.8486L64.3038 65.4186ZM64.0238 65.2587L58.1139 61.8586L64.1139 58.4286L70.0138 61.8286L64.0238 65.2587ZM57.8239 61.6986L51.8239 58.2687L57.8239 54.8386L63.8239 58.2687L57.8239 61.6986ZM51.5739 58.0986L45.6538 54.6986L51.6538 51.2687L57.5839 54.6786L51.5739 58.0986ZM51.2838 58.2687L45.3639 61.6686L39.4438 58.2687L45.3639 54.8687L51.2838 58.2687ZM45.0739 61.8386L39.0739 65.2687L33.1438 61.8586L39.1438 58.4286L45.0739 61.8386ZM38.8239 65.4286L32.8239 68.8486L26.9038 65.4486L32.9038 62.0287L38.8239 65.4286ZM32.5739 69.0187L26.6438 72.4286L20.7139 69.0287L26.6438 65.6187L32.5739 69.0187ZM32.8639 69.1886L38.8639 72.6187L32.9438 76.0187L26.9438 72.5886L32.8639 69.1886ZM38.8639 79.7487L32.8639 83.1686L26.9539 79.7687L32.8938 76.3586L38.8639 79.7487ZM39.1538 79.9186L45.1538 83.3386L39.1538 86.7687L33.1538 83.3386L39.1538 79.9186ZM39.4539 79.7386L45.3639 76.3386L51.3639 79.7687L45.4539 83.1686L39.4539 79.7386ZM51.6139 79.9386L57.6139 83.3787L51.7139 86.7787L45.7139 83.3286L51.6139 79.9386ZM51.9138 79.7687L57.9138 76.3486L63.9138 79.7886L57.9138 83.2086L51.9138 79.7687ZM58.1538 76.1786L64.1538 72.7487L70.1538 76.1886L64.1538 79.6187L58.1538 76.1786ZM70.4038 76.3586L76.3339 79.7687L70.3339 83.1886L64.4138 79.7886L70.4038 76.3586ZM70.4038 76.0287L64.4038 72.5786L70.3138 69.1786L76.3138 72.6287L70.4038 76.0287ZM70.6139 69.0287L76.6139 65.5986L82.6139 69.0386L76.6139 72.4686L70.6139 69.0287ZM70.6139 61.8386L76.5438 58.4286L82.5438 61.8586L76.6039 65.2687L70.6139 61.8386ZM70.3239 61.6686L64.4238 58.2787L70.3539 54.8687L76.2539 58.2587L70.3239 61.6686ZM64.1338 58.1086L58.1338 54.6886L64.0638 51.2787L70.0638 54.7086L64.1338 58.1086ZM57.8838 54.5187L51.9539 51.1187L57.8838 47.7086L63.8038 51.1086L57.8838 54.5187ZM51.6638 50.9486L45.6638 47.5087L51.5839 44.0986L57.5839 47.5386L51.6638 50.9486ZM51.3838 51.1187L45.3838 54.5386L39.3838 51.1086L45.3838 47.6686L51.3838 51.1187ZM45.1239 54.7086L39.2039 58.1086L33.2039 54.6786L39.1239 51.2687L45.1239 54.7086ZM38.9138 58.2787L32.9138 61.7086L26.9138 58.2787L32.9138 54.8386L38.9138 58.2787ZM32.6638 61.8687L26.6638 65.2986L20.6638 61.8687L26.6638 58.4386L32.6638 61.8687ZM14.4438 72.5986L20.3739 69.1986L26.3038 72.5986L20.3639 76.0087L14.4438 72.5986ZM20.6538 76.1786L26.5839 72.7687L32.5839 76.1886L26.6438 79.5986L20.6538 76.1786ZM20.6538 83.3486L26.5939 79.9486L32.5039 83.3386L26.5039 86.7587L20.6538 83.3486ZM26.8439 86.9286L32.7938 83.5087L38.7938 86.9386L32.7938 90.3687L26.8439 86.9286ZM39.0638 93.9886L33.0638 90.5287L39.0638 87.0986L45.0638 90.5486L39.0638 93.9886ZM39.3439 86.9286L45.3439 83.5087L51.3439 86.9486L45.3439 90.3787L39.3439 86.9286ZM51.5438 93.9286L45.6239 90.5187L51.6239 87.0886L57.5538 90.4987L51.5438 93.9286ZM57.8239 90.3186L51.8938 86.9186L57.7938 83.5287L63.7139 86.9286L57.8239 90.3186ZM58.0939 83.3186L64.0438 79.8987L69.9639 83.2986L64.0238 86.7186L58.0939 83.3186ZM70.0939 90.1886L64.3339 86.8787L70.2738 83.4686L76.0338 86.7787L70.0939 90.1886ZM82.2938 83.1886L76.2938 86.6187L70.5338 83.3086L76.5338 79.8787L82.2938 83.1886ZM76.5338 79.5486L70.6039 76.1387L76.5138 72.7386L82.4438 76.1487L76.5338 79.5486ZM88.6938 72.5486L82.6938 75.9786L76.7638 72.5786L82.7638 69.1487L88.6938 72.5486ZM82.7738 68.8186L76.7738 65.3687L82.7039 61.9586L88.7039 65.4087L82.7738 68.8186ZM94.9839 61.8186L88.9839 65.2587L82.9839 61.8186L88.9839 58.3586L94.9839 61.8186ZM88.7139 58.1986L82.7139 61.6487L76.7139 58.2186L82.7139 54.7587L88.7139 58.1986ZM82.4739 54.5886L76.4739 58.0586L70.5638 54.6686L76.5638 51.1986L82.4739 54.5886ZM76.2938 51.0287L70.2938 54.4987L64.2938 51.0686L70.3439 47.5886L76.2938 51.0287ZM70.0638 47.4286L64.0039 50.9087L58.0839 47.4987L64.1538 44.0187L70.0638 47.4286ZM63.8639 43.8486L57.7938 47.3386L51.7938 43.8887L57.8739 40.3887L63.8639 43.8486ZM51.7039 36.8486L57.5839 40.2487L51.5039 43.7487L45.5939 40.3486L51.7039 36.8486ZM45.3038 40.5187L51.2139 43.9087L45.3038 47.3186L39.3838 43.9186L45.3038 40.5187ZM39.0939 44.0886L45.0138 47.4886L39.0138 50.9186L33.0839 47.5087L39.0939 44.0886ZM32.8439 47.6786L38.7638 51.0886L32.8439 54.4886L26.9138 51.0786L32.8439 47.6786ZM26.6239 51.2487L32.5638 54.6587L26.5638 58.0886L20.5638 54.6786L26.6239 51.2487ZM20.3739 54.8386L26.3138 58.2587L20.3639 61.6886L14.3639 58.2687L20.3739 54.8386Z" fill="white"/>
<path fill-rule="evenodd" clip-rule="evenodd" d="M94.8907 51.7695C94.8907 75.5695 75.6007 94.8595 51.8007 94.8595C28.0007 94.8595 8.7107 75.5695 8.7107 51.7695C8.7107 27.9695 28.0007 8.67946 51.8007 8.67946C75.6007 8.67946 94.8907 27.9695 94.8907 51.7695ZM51.8007 4.93945C77.6607 4.93945 98.6307 25.9095 98.6307 51.7695C98.6307 77.6295 77.6607 98.5995 51.8007 98.5995C25.9407 98.5995 4.9707 77.6295 4.9707 51.7695C4.9707 25.9095 25.9307 4.93945 51.8007 4.93945Z" fill="url(#paint2_linear_904_21547)"/>
<path opacity="0.15" d="M89.2285 48.0685C89.2285 47.2662 88.5701 46.6079 87.7678 46.6079C87.2432 46.6079 83.9618 46.3198 82.2028 44.9518C82.2028 44.9518 82.2131 44.9312 82.2028 44.9518C81.5342 42.5242 80.5673 40.2612 79.3638 38.1216C79.0552 36.0849 81.1639 34.6037 82.1206 33.0196C82.2851 32.7418 82.388 32.5875 82.4497 32.4744C82.6246 31.9601 82.532 31.3634 82.1206 30.952C82.1206 30.952 80.5056 28.6376 78.8392 26.9917C77.1831 25.3459 74.6629 23.5046 74.6629 23.5046C74.0972 22.9389 73.1611 22.9389 72.5954 23.5046C72.2148 23.875 69.7255 25.9322 67.483 26.2511C67.4522 26.2511 67.4522 26.2511 67.4522 26.2511C65.364 25.0682 63.0188 24.091 60.6735 23.4326H60.6426C58.9865 22.2086 59.4185 19.6781 58.9865 17.8677C58.9865 17.0654 58.3282 16.407 57.5258 16.407C57.5258 16.407 54.7485 15.9236 52.4032 15.9236C50.0579 15.9236 46.9926 16.407 46.9926 16.407C46.1902 16.407 45.5319 17.0654 45.5319 17.8677C45.5319 18.3923 45.2439 21.6737 43.8758 23.4326C41.5511 24.091 39.1132 25.1196 37.0456 26.2717C35.0089 26.5803 33.5277 24.4716 31.9436 23.5149C31.6659 23.3504 31.5116 23.2475 31.3984 23.1858C30.8841 23.0109 30.2875 23.1035 29.876 23.5149C29.876 23.5149 27.5616 25.1299 25.9158 26.7963C24.27 28.4627 22.4287 30.9726 22.4287 30.9726C21.8629 31.5383 21.8629 32.4744 22.4287 33.0401C22.799 33.4104 24.9077 35.9409 25.1854 38.1422V38.1627C24.0334 40.2303 23.0253 42.6579 22.367 44.9826C22.367 44.9826 22.3978 44.9415 22.367 44.9826C20.9474 46.7107 18.6124 46.2067 16.802 46.6387C15.9997 46.6387 15.3414 47.297 15.3414 48.0994C15.3414 48.0994 14.8579 50.8767 14.8579 53.222C14.8579 55.5673 15.3414 58.6326 15.3414 58.6326C15.3414 59.435 15.9997 60.0933 16.802 60.0933C17.3266 60.0933 20.608 60.3813 22.367 61.7494C22.4081 61.7288 22.3875 61.7803 22.3875 61.7803C23.0664 64.1153 24.0231 66.4503 25.1957 68.5179C25.1752 68.5487 25.1957 68.5179 25.206 68.5899C25.4015 70.7191 23.4059 72.1078 22.4493 73.6919C22.2847 73.9696 22.1818 74.1239 22.1201 74.2371C21.9452 74.7514 22.0378 75.348 22.4493 75.7595C22.4493 75.7595 24.0642 78.0739 25.7306 79.7197C27.3867 81.3758 29.9069 83.2068 29.9069 83.2068C30.4726 83.7726 31.4087 83.7726 31.9744 83.2068C32.3448 82.8365 34.8752 80.7278 37.0765 80.4501C37.0765 80.4501 37.0662 80.4603 37.1074 80.4706C39.2366 81.6536 41.4276 82.5896 43.8347 83.2377C43.8552 83.248 43.9272 83.2685 43.9272 83.2685C45.5833 84.4926 45.1513 87.0231 45.5833 88.8335C45.6759 89.6461 46.1182 90.1604 47.044 90.2941C47.044 90.2941 49.8213 90.7776 52.1666 90.7776C54.5119 90.7776 57.5773 90.3044 57.5773 90.3044C58.3796 90.1604 59.0379 89.6461 59.0379 88.8437C59.0379 88.3191 59.3259 85.0378 60.694 83.2788C60.694 83.2788 60.7557 83.2274 60.8175 83.176C63.2656 82.4868 65.1172 81.7359 67.2773 80.4912C67.3905 80.4501 67.267 80.4603 67.5242 80.4192C69.5609 80.1106 71.0421 82.2193 72.6262 83.176C72.904 83.3405 73.0583 83.4434 73.1714 83.5051C73.6857 83.68 74.2823 83.5874 74.6938 83.176C74.6938 83.176 77.0082 81.561 78.6541 79.8946C80.3102 78.2385 82.1411 75.7183 82.1411 75.7183C82.7069 75.1526 82.7069 74.2165 82.1411 73.6508C81.7708 73.2805 79.6621 70.75 79.3844 68.5487C79.3535 68.3224 79.3741 68.2916 79.405 68.2298C80.6393 66.0594 81.4108 64.465 82.0897 62.0066C82.0897 62.0066 82.0588 61.9243 82.2234 61.7186C83.4475 60.0625 85.978 60.4945 87.7884 60.0625C88.5907 60.0625 89.249 59.4041 89.249 58.6018C89.249 58.6018 89.7325 55.8245 89.7325 53.4792C89.7325 51.1339 89.2285 48.0685 89.2285 48.0685Z" fill="#1F1D20"/>
<g filter="url(#filter0_d_904_21547)">
<path d="M89.2285 46.0829C89.2285 45.2806 88.5701 44.6223 87.7678 44.6223C87.2432 44.6223 83.9618 44.3342 82.2028 42.9662C82.2028 42.9662 82.2131 42.9456 82.2028 42.9662C81.5342 40.5386 80.5673 38.2756 79.3638 36.136C79.0552 34.0993 81.1639 32.6181 82.1206 31.034C82.2851 30.7562 82.388 30.6019 82.4497 30.4888C82.6246 29.9745 82.532 29.3778 82.1206 28.9664C82.1206 28.9664 80.5056 26.652 78.8392 25.0061C77.1831 23.3603 74.6629 21.5191 74.6629 21.5191C74.0972 20.9533 73.1611 20.9533 72.5954 21.5191C72.2148 21.8894 69.7255 23.9466 67.483 24.2655C67.4522 24.2655 67.4522 24.2655 67.4522 24.2655C65.364 23.0826 63.0188 22.1054 60.6735 21.447H60.6426C58.9865 20.223 59.4185 17.6925 58.9865 15.8821C58.9865 15.0798 58.3282 14.4214 57.5258 14.4214C57.5258 14.4214 54.7485 13.938 52.4032 13.938C50.0579 13.938 46.9926 14.4214 46.9926 14.4214C46.1902 14.4214 45.5319 15.0798 45.5319 15.8821C45.5319 16.4067 45.2439 19.6881 43.8758 21.447C41.5511 22.1054 39.1132 23.134 37.0456 24.2861C35.0089 24.5947 33.5277 22.486 31.9436 21.5293C31.6659 21.3648 31.5116 21.2619 31.3984 21.2002C30.8841 21.0253 30.2875 21.1179 29.876 21.5293C29.876 21.5293 27.5616 23.1443 25.9158 24.8107C24.27 26.4668 22.4287 28.987 22.4287 28.987C21.8629 29.5527 21.8629 30.4888 22.4287 31.0545C22.799 31.4248 24.9077 33.9553 25.1854 36.1566V36.1771C24.0334 38.2447 23.0253 40.6723 22.367 42.997C22.367 42.997 22.3978 42.9559 22.367 42.997C20.9474 44.7251 18.6124 44.2211 16.802 44.6531C15.9997 44.6531 15.3414 45.3115 15.3414 46.1138C15.3414 46.1138 14.8579 48.8911 14.8579 51.2364C14.8579 53.5817 15.3414 56.647 15.3414 56.647C15.3414 57.4494 15.9997 58.1077 16.802 58.1077C17.3266 58.1077 20.608 58.3957 22.367 59.7638C22.4081 59.7432 22.3875 59.7947 22.3875 59.7947C23.0664 62.1297 24.0231 64.4647 25.1957 66.5323C25.1752 66.5631 25.1957 66.5323 25.206 66.6043C25.4015 68.7335 23.4059 70.1222 22.4493 71.7063C22.2847 71.984 22.1818 72.1383 22.1201 72.2515C21.9452 72.7658 22.0378 73.3624 22.4493 73.7739C22.4493 73.7739 24.0642 76.0883 25.7306 77.7341C27.3867 79.3902 29.9069 81.2212 29.9069 81.2212C30.4726 81.787 31.4087 81.787 31.9744 81.2212C32.3448 80.8509 34.8752 78.7422 37.0765 78.4645C37.0765 78.4645 37.0662 78.4748 37.1074 78.485C39.2366 79.668 41.4276 80.604 43.8347 81.2521C43.8552 81.2624 43.9272 81.2829 43.9272 81.2829C45.5833 82.507 45.1513 85.0375 45.5833 86.8479C45.6759 87.6605 46.1182 88.1748 47.044 88.3085C47.044 88.3085 49.8213 88.792 52.1666 88.792C54.5119 88.792 57.5773 88.3188 57.5773 88.3188C58.3796 88.1748 59.0379 87.6605 59.0379 86.8582C59.0379 86.3335 59.3259 83.0522 60.694 81.2932C60.694 81.2932 60.7557 81.2418 60.8175 81.1904C63.2656 80.5012 65.1172 79.7503 67.2773 78.5056C67.3905 78.4645 67.267 78.4748 67.5242 78.4336C69.5609 78.125 71.0421 80.2337 72.6262 81.1904C72.904 81.3549 73.0583 81.4578 73.1714 81.5195C73.6857 81.6944 74.2823 81.6018 74.6938 81.1904C74.6938 81.1904 77.0082 79.5754 78.6541 77.909C80.3102 76.2529 82.1411 73.7327 82.1411 73.7327C82.7069 73.167 82.7069 72.2309 82.1411 71.6652C81.7708 71.2949 79.6621 68.7644 79.3844 66.5631C79.3535 66.3368 79.3741 66.306 79.405 66.2442C80.6393 64.0738 81.4108 62.4794 82.0897 60.021C82.0897 60.021 82.0588 59.9387 82.2234 59.733C83.4475 58.0769 85.978 58.5089 87.7884 58.0769C88.5907 58.0769 89.249 57.4185 89.249 56.6162C89.249 56.6162 89.7325 53.8389 89.7325 51.4936C89.7325 49.1483 89.2285 46.0829 89.2285 46.0829Z" fill="url(#paint3_linear_904_21547)"/>
</g>
<g opacity="0.15">
<path opacity="0.15" d="M60.3813 42.3092L62.4171 40.2388V34.8247H56.0327V40.2042L58.0684 42.2746H58.1031V53.4667H56.0674V66.4173C56.0674 68.1844 57.4967 69.6138 59.2639 69.6138C61.031 69.6138 62.4604 68.1844 62.4604 66.4173V53.4667H60.364L60.3813 42.3092Z" fill="#1F1D20"/>
<path opacity="0.15" d="M48.0025 61.8V44.648C50.0122 43.8857 51.4416 41.9713 51.4416 39.719C51.4416 37.562 50.1335 35.6736 48.2451 34.8853V40.36H44.0783V34.8853C42.1899 35.6736 40.8818 37.5273 40.8818 39.719C40.8818 41.9713 42.3112 43.9117 44.3209 44.648V61.7653C42.9869 62.4324 42.0426 63.8357 42.0426 65.447C42.0426 67.7252 43.8964 69.553 46.1487 69.553C48.427 69.553 50.2548 67.6992 50.2548 65.447C50.2808 63.8357 49.3712 62.467 48.0025 61.8ZM46.1834 66.8763C45.3951 66.8763 44.7887 66.2353 44.7887 65.4816C44.7887 64.6933 45.4297 64.0869 46.1834 64.0869C46.9457 64.0869 47.578 64.728 47.578 65.4816C47.578 66.2353 46.937 66.8763 46.1834 66.8763Z" fill="#1F1D20"/>
</g>
<path opacity="0.15" d="M72.1551 71.6502C72.799 71.6502 73.318 71.1311 73.318 70.4873V32.1223H32.792V70.4923C32.792 71.1361 33.311 71.6551 33.9549 71.6551H72.1551V71.6502Z" fill="#1F1D20"/>
<g filter="url(#filter1_d_904_21547)">
<path d="M73.313 32.4665V31.8376C73.313 31.059 72.6842 30.4302 71.9056 30.4302H34.1994C33.4208 30.4302 32.792 31.059 32.792 31.8376V32.5363V33.1752V69.2593C32.792 70.0379 33.4208 70.6667 34.1994 70.6667H71.9156C72.6941 70.6667 73.323 70.0379 73.323 69.2593V32.5363C73.323 32.5114 73.313 32.4914 73.313 32.4665Z" fill="white"/>
</g>
<path d="M60.4627 41.8667L62.2837 40.0147V35.1716H56.5728V39.9837L58.3938 41.8357H58.4248V51.8474H56.6037V63.4321C56.6037 65.0129 57.8823 66.2914 59.4631 66.2914C61.0439 66.2914 62.3225 65.0129 62.3225 63.4321V51.8551H60.4472L60.4627 41.8667Z" fill="#185A97"/>
<path d="M49.3897 59.3097V43.9667C51.1874 43.2848 52.466 41.5723 52.466 39.5576C52.466 37.6281 51.2959 35.9388 49.6066 35.2336V40.131H45.8794V35.2336C44.1901 35.9388 43.02 37.5971 43.02 39.5576C43.02 41.5723 44.2986 43.3081 46.0964 43.9667V59.2787C44.903 59.8753 44.0584 61.1307 44.0584 62.572C44.0584 64.6099 45.7167 66.245 47.7314 66.245C49.7694 66.245 51.4044 64.5867 51.4044 62.572C51.4276 61.1307 50.614 59.9063 49.3897 59.3097ZM47.7624 63.8505C47.0572 63.8505 46.5148 63.2771 46.5148 62.603C46.5148 61.8978 47.0882 61.3554 47.7624 61.3554C48.4443 61.3554 49.01 61.9288 49.01 62.603C49.01 63.2771 48.4365 63.8505 47.7624 63.8505Z" fill="#0078D4"/>
<path opacity="0.2" d="M73.1329 78.8656C77.7501 78.7703 81.4057 74.9587 81.3104 70.3502C81.2151 65.7417 77.4036 62.0774 72.7951 62.1727C68.1779 62.268 64.5223 66.0796 64.6175 70.6881C64.7128 75.2966 68.5244 78.9609 73.1329 78.8656Z" fill="#1F1D21"/>
<path d="M73.107 77.5228C77.7242 77.4275 81.3798 73.616 81.2845 69.0075C81.1892 64.3989 77.3777 60.7347 72.7692 60.8299C68.152 60.9252 64.4964 64.7368 64.5917 69.3453C64.687 73.9538 68.4985 77.6181 73.107 77.5228Z" fill="#002D4C"/>
<path d="M77.3951 64.832L70.6469 71.8834L68.5419 69.8563L67.1992 71.2683L70.7076 74.6468L78.8071 66.1921L77.3951 64.832Z" fill="#FAF9F8"/>
<path opacity="0.15" d="M77.5114 54.4923C83.0809 54.4923 87.5824 49.9908 87.5824 44.4213C87.5824 38.8519 83.0809 34.3503 77.5114 34.3503C71.9419 34.3503 67.4404 38.8519 67.4404 44.4213C67.4404 49.9908 71.9534 54.4923 77.5114 54.4923Z" fill="#1F1D20"/>
<g filter="url(#filter2_d_904_21547)">
<path d="M77.5114 53.5963C83.0809 53.5963 87.5824 49.0948 87.5824 43.5253C87.5824 37.9559 83.0809 33.4543 77.5114 33.4543C71.9419 33.4543 67.4404 37.9559 67.4404 43.5253C67.4404 49.0833 71.9534 53.5963 77.5114 53.5963Z" fill="white"/>
</g>
<path d="M82.4262 47.6133C82.1506 45.1214 80.0147 43.1462 77.4194 43.1462C74.8356 43.1462 72.7227 45.0755 72.4126 47.5444C72.3667 47.7167 72.3667 47.9119 72.3667 48.0726C72.4356 48.7846 72.9179 49.4621 73.8366 50.0019C75.8002 51.1387 79.0271 51.1387 80.9793 50.0019C81.9094 49.4736 82.3688 48.7846 82.4377 48.0726C82.4721 47.9234 82.4377 47.7626 82.4262 47.6133Z" fill="url(#paint4_radial_904_21547)"/>
<path d="M77.4196 42.4346C79.0962 42.4346 80.4627 41.0795 80.4627 39.4144C80.4627 37.7493 79.1076 36.3943 77.4196 36.3943C75.7315 36.3943 74.3765 37.7264 74.3765 39.4144C74.3765 41.091 75.743 42.4346 77.4196 42.4346Z" fill="url(#paint5_radial_904_21547)"/>
<defs>
<filter id="filter0_d_904_21547" x="10.8579" y="11.938" width="82.8745" height="82.854" filterUnits="userSpaceOnUse" color-interpolation-filters="sRGB">
<feFlood flood-opacity="0" result="BackgroundImageFix"/>
<feColorMatrix in="SourceAlpha" type="matrix" values="0 0 0 0 0 0 0 0 0 0 0 0 0 0 0 0 0 0 127 0" result="hardAlpha"/>
<feOffset dy="2"/>
<feGaussianBlur stdDeviation="2"/>
<feComposite in2="hardAlpha" operator="out"/>
<feColorMatrix type="matrix" values="0 0 0 0 0 0 0 0 0 0 0 0 0 0 0 0 0 0 0.25 0"/>
<feBlend mode="normal" in2="BackgroundImageFix" result="effect1_dropShadow_904_21547"/>
<feBlend mode="normal" in="SourceGraphic" in2="effect1_dropShadow_904_21547" result="shape"/>
</filter>
<filter id="filter1_d_904_21547" x="28.792" y="30.4302" width="48.5308" height="48.2366" filterUnits="userSpaceOnUse" color-interpolation-filters="sRGB">
<feFlood flood-opacity="0" result="BackgroundImageFix"/>
<feColorMatrix in="SourceAlpha" type="matrix" values="0 0 0 0 0 0 0 0 0 0 0 0 0 0 0 0 0 0 127 0" result="hardAlpha"/>
<feOffset dy="4"/>
<feGaussianBlur stdDeviation="2"/>
<feComposite in2="hardAlpha" operator="out"/>
<feColorMatrix type="matrix" values="0 0 0 0 0 0 0 0 0 0 0 0 0 0 0 0 0 0 0.25 0"/>
<feBlend mode="normal" in2="BackgroundImageFix" result="effect1_dropShadow_904_21547"/>
<feBlend mode="normal" in="SourceGraphic" in2="effect1_dropShadow_904_21547" result="shape"/>
</filter>
<filter id="filter2_d_904_21547" x="63.4404" y="31.4543" width="28.1421" height="28.1418" filterUnits="userSpaceOnUse" color-interpolation-filters="sRGB">
<feFlood flood-opacity="0" result="BackgroundImageFix"/>
<feColorMatrix in="SourceAlpha" type="matrix" values="0 0 0 0 0 0 0 0 0 0 0 0 0 0 0 0 0 0 127 0" result="hardAlpha"/>
<feOffset dy="2"/>
<feGaussianBlur stdDeviation="2"/>
<feComposite in2="hardAlpha" operator="out"/>
<feColorMatrix type="matrix" values="0 0 0 0 0 0 0 0 0 0 0 0 0 0 0 0 0 0 0.25 0"/>
<feBlend mode="normal" in2="BackgroundImageFix" result="effect1_dropShadow_904_21547"/>
<feBlend mode="normal" in="SourceGraphic" in2="effect1_dropShadow_904_21547" result="shape"/>
</filter>
<linearGradient id="paint0_linear_904_21547" x1="55.2773" y1="100.707" x2="57.0273" y2="-42.793" gradientUnits="userSpaceOnUse">
<stop offset="0.203125" stop-color="white"/>
<stop offset="0.630208" stop-color="#F4F3F5"/>
<stop offset="1" stop-color="#E8E6DF"/>
</linearGradient>
<linearGradient id="paint1_linear_904_21547" x1="49.7501" y1="13.3689" x2="51.027" y2="95.0897" gradientUnits="userSpaceOnUse">
<stop offset="0.2" stop-color="white"/>
<stop offset="0.63" stop-color="#F4F3F5"/>
<stop offset="1" stop-color="#E8E6DF"/>
</linearGradient>
<linearGradient id="paint2_linear_904_21547" x1="53.5907" y1="-3.82959" x2="52.1473" y2="106.112" gradientUnits="userSpaceOnUse">
<stop offset="0.00520833" stop-color="#F8DF70"/>
<stop offset="0.192708" stop-color="#F2CC40"/>
<stop offset="0.583333" stop-color="#E7B116"/>
<stop offset="0.78125" stop-color="#E0A310"/>
<stop offset="0.942708" stop-color="#CA810E"/>
</linearGradient>
<linearGradient id="paint3_linear_904_21547" x1="53.7262" y1="6.92968" x2="52.573" y2="94.7962" gradientUnits="userSpaceOnUse">
<stop offset="0.00520833" stop-color="#F8DF70"/>
<stop offset="0.192708" stop-color="#F2CC40"/>
<stop offset="0.583333" stop-color="#E7B116"/>
<stop offset="0.78125" stop-color="#E0A310"/>
<stop offset="0.942708" stop-color="#CA810E"/>
</linearGradient>
<radialGradient id="paint4_radial_904_21547" cx="0" cy="0" r="1" gradientUnits="userSpaceOnUse" gradientTransform="translate(74.4949 38.6122) scale(21.1957)">
<stop stop-color="#4FC2EB"/>
<stop offset="0.585" stop-color="#2E76BC"/>
</radialGradient>
<radialGradient id="paint5_radial_904_21547" cx="0" cy="0" r="1" gradientUnits="userSpaceOnUse" gradientTransform="translate(74.4951 38.6125) scale(21.1957)">
<stop stop-color="#4FC2EB"/>
<stop offset="0.585" stop-color="#2E76BC"/>
</radialGradient>
</defs>
</svg>
