<svg width="103" height="102" viewBox="0 0 103 102" fill="none" xmlns="http://www.w3.org/2000/svg">
<path fill-rule="evenodd" clip-rule="evenodd" d="M97.7006 50.9994C97.7006 76.3494 77.1506 96.8994 51.8006 96.8994C26.4506 96.8994 5.90064 76.3494 5.90064 50.9994C5.90064 25.6494 26.4506 5.09938 51.8006 5.09938C77.1506 5.09938 97.7006 25.6494 97.7006 50.9994ZM51.8006 1.35938C79.2206 1.35938 101.441 23.5794 101.441 50.9994C101.441 78.4194 79.2106 100.639 51.8006 100.639C24.3806 100.639 2.16064 78.4094 2.16064 50.9994C2.16064 23.5794 24.3806 1.35938 51.8006 1.35938Z" fill="url(#paint0_linear_903_21516)"/>
<path d="M51.5507 94.3114C27.6325 94.3114 8.23877 74.927 8.23877 50.9995C8.23877 27.0719 27.6325 7.6875 51.5507 7.6875C75.469 7.6875 94.8627 27.0812 94.8627 50.9995C94.8627 74.9177 75.469 94.3114 51.5507 94.3114Z" fill="url(#paint1_linear_903_21516)"/>
<path d="M14.1039 57.6591L20.1039 61.0791L14.1638 64.4991L8.53381 61.269L8.6239 61.6591L13.8739 64.6591L9.8739 66.9691C9.8739 67.0691 9.92385 67.1692 9.94385 67.2592L14.1838 64.8191L20.1838 68.2391L14.2539 71.649L10.4739 69.4791V69.6292L10.7838 70.0291L13.9038 71.8291L12.7139 72.5092L12.8938 72.7391L14.1938 71.9891L20.1139 75.399L16.5739 77.399L16.7539 77.6292L20.4038 75.5291L26.4038 78.9591L20.5138 82.3391C20.7138 82.5991 20.9039 82.8291 21.0939 83.0591L38.9539 93.3792L39.6139 93.4291L39.4539 93.3291L45.4539 89.8892L51.3739 93.2991L49.9939 94.0891H50.5138L51.6638 93.4191L53.1039 94.2491H53.7638L51.9539 93.2491L57.9539 89.8091L63.0638 92.7391L63.4739 92.6191L58.2638 89.6191L64.1538 86.2291L69.9138 89.5391L65.6838 91.9691L66.8038 91.649L82.3938 82.649L83.5839 81.649L82.7139 82.1591L76.9438 78.8491L82.8639 75.4491L86.9338 77.7791L87.0939 77.5391L83.1538 75.2791L89.1538 71.8491L90.4038 72.5691L90.5638 72.3291L89.4438 71.6791L91.8838 70.2791L92.2239 69.7592L89.1538 71.519L83.2339 68.1091L89.1638 64.6991L93.7738 67.3491C93.8193 67.2664 93.8694 67.1863 93.9238 67.1091L89.4539 64.5391L95.1538 61.2491L95.2539 60.649L70.8138 46.5391L58.3539 39.3491L58.2239 39.2991L52.1638 35.7991L51.8838 35.6191L8.50391 60.5391C8.52135 60.6371 8.54467 60.7339 8.57385 60.8291L14.1039 57.6591ZM14.4138 64.6591L20.3439 61.2491L26.3439 64.6691L20.4038 68.0791L14.4138 64.6591ZM51.8539 64.6591L57.7738 61.2592L63.6838 64.649L57.7638 68.0491L51.8539 64.6591ZM57.4739 68.2191L51.4739 71.649L45.5638 68.2491L51.5638 64.8291L57.4739 68.2191ZM51.5739 64.4891L45.5739 61.0691L51.4939 57.6691L57.4939 61.0891L51.5739 64.4891ZM51.2838 64.6591L45.2838 68.0891L39.2838 64.6591L45.2838 61.2291L51.2838 64.6591ZM45.0238 68.2491L39.0739 71.6791L33.0739 68.2491L39.0739 64.8291L45.0238 68.2491ZM45.0238 75.4091L39.1139 78.8091L33.1938 75.4091L39.1139 72.0092L45.0238 75.4091ZM39.4138 71.8391L45.3639 68.4191L51.2738 71.8091L45.2738 75.2391L39.4138 71.8391ZM51.5638 71.9791L57.5638 75.4091L51.5638 78.8291L45.5638 75.399L51.5638 71.9791ZM51.8539 71.8091L57.8539 68.3892L63.8539 71.8091L57.8539 75.2391L51.8539 71.8091ZM58.1039 68.2191L64.0238 64.8191L70.0238 68.2491L64.1139 71.649L58.1039 68.2191ZM64.3038 64.649L70.3038 61.2191L76.3038 64.649L70.3038 68.0791L64.3038 64.649ZM64.0238 64.4891L58.1139 61.0891L64.1139 57.6591L70.0138 61.0591L64.0238 64.4891ZM57.8239 60.9291L51.8239 57.4991L57.8239 54.0691L63.8239 57.4991L57.8239 60.9291ZM51.5739 57.3291L45.6538 53.9291L51.6538 50.4991L57.5839 53.9091L51.5739 57.3291ZM51.2838 57.4991L45.3639 60.899L39.4438 57.4991L45.3639 54.0991L51.2838 57.4991ZM45.0739 61.0691L39.0739 64.4991L33.1438 61.0891L39.1438 57.6591L45.0739 61.0691ZM38.8239 64.6591L32.8239 68.0791L26.9038 64.6791L32.9038 61.2592L38.8239 64.6591ZM32.5739 68.2491L26.6438 71.6591L20.7139 68.2592L26.6438 64.8491L32.5739 68.2491ZM32.8639 68.4191L38.8639 71.8491L32.9438 75.2491L26.9438 71.8191L32.8639 68.4191ZM38.8639 78.9791L32.8639 82.399L26.9539 78.9991L32.8938 75.5891L38.8639 78.9791ZM39.1538 79.149L45.1538 82.5691L39.1538 85.9991L33.1538 82.5691L39.1538 79.149ZM39.4539 78.9691L45.3639 75.5691L51.3639 78.9991L45.4539 82.399L39.4539 78.9691ZM51.6139 79.1691L57.6139 82.6091L51.7139 86.0092L45.7139 82.5591L51.6139 79.1691ZM51.9138 78.9991L57.9138 75.5791L63.9138 79.019L57.9138 82.4391L51.9138 78.9991ZM58.1538 75.4091L64.1538 71.9791L70.1538 75.4191L64.1538 78.8491L58.1538 75.4091ZM70.4038 75.5891L76.3339 78.9991L70.3339 82.4191L64.4138 79.019L70.4038 75.5891ZM70.4038 75.2592L64.4038 71.8091L70.3138 68.4091L76.3138 71.8591L70.4038 75.2592ZM70.6139 68.2592L76.6139 64.8291L82.6139 68.269L76.6139 71.6991L70.6139 68.2592ZM70.6139 61.0691L76.5438 57.6591L82.5438 61.0891L76.6039 64.4991L70.6139 61.0691ZM70.3239 60.899L64.4238 57.5092L70.3539 54.0991L76.2539 57.4891L70.3239 60.899ZM64.1338 57.3391L58.1338 53.9191L64.0638 50.5092L70.0638 53.9391L64.1338 57.3391ZM57.8838 53.7491L51.9539 50.3491L57.8838 46.9391L63.8038 50.3391L57.8838 53.7491ZM51.6638 50.1791L45.6638 46.7391L51.5839 43.3291L57.5839 46.769L51.6638 50.1791ZM51.3838 50.3491L45.3838 53.769L39.3838 50.3391L45.3838 46.899L51.3838 50.3491ZM45.1239 53.9391L39.2039 57.3391L33.2039 53.9091L39.1239 50.4991L45.1239 53.9391ZM38.9138 57.5092L32.9138 60.9391L26.9138 57.5092L32.9138 54.0691L38.9138 57.5092ZM32.6638 61.0991L26.6638 64.5291L20.6638 61.0991L26.6638 57.6691L32.6638 61.0991ZM14.4438 71.8291L20.3739 68.4291L26.3038 71.8291L20.3639 75.2391L14.4438 71.8291ZM20.6538 75.4091L26.5839 71.9991L32.5839 75.4191L26.6438 78.8291L20.6538 75.4091ZM20.6538 82.5791L26.5939 79.1791L32.5039 82.5691L26.5039 85.9891L20.6538 82.5791ZM26.8439 86.1591L32.7938 82.7391L38.7938 86.1691L32.7938 89.5991L26.8439 86.1591ZM39.0638 93.2191L33.0638 89.7592L39.0638 86.3291L45.0638 89.7791L39.0638 93.2191ZM39.3439 86.1591L45.3439 82.7391L51.3439 86.1791L45.3439 89.6091L39.3439 86.1591ZM51.5438 93.1591L45.6239 89.7491L51.6239 86.3191L57.5538 89.7291L51.5438 93.1591ZM57.8239 89.5491L51.8938 86.149L57.7938 82.7592L63.7139 86.1591L57.8239 89.5491ZM58.0939 82.5491L64.0438 79.1292L69.9639 82.5291L64.0238 85.9491L58.0939 82.5491ZM70.0939 89.4191L64.3339 86.1091L70.2738 82.6991L76.0338 86.0092L70.0939 89.4191ZM82.2938 82.4191L76.2938 85.8491L70.5338 82.5391L76.5338 79.1091L82.2938 82.4191ZM76.5338 78.7791L70.6039 75.3691L76.5138 71.9691L82.4438 75.3792L76.5338 78.7791ZM88.6938 71.7791L82.6938 75.2091L76.7638 71.8091L82.7638 68.3792L88.6938 71.7791ZM82.7738 68.0491L76.7738 64.5991L82.7039 61.1891L88.7039 64.6392L82.7738 68.0491ZM94.9839 61.0491L88.9839 64.4891L82.9839 61.0491L88.9839 57.5891L94.9839 61.0491ZM88.7139 57.4291L82.7139 60.8792L76.7139 57.4491L82.7139 53.9891L88.7139 57.4291ZM82.4739 53.8191L76.4739 57.2891L70.5638 53.899L76.5638 50.4291L82.4739 53.8191ZM76.2938 50.2592L70.2938 53.7291L64.2938 50.2991L70.3439 46.8191L76.2938 50.2592ZM70.0638 46.6591L64.0039 50.1392L58.0839 46.7291L64.1538 43.2491L70.0638 46.6591ZM63.8639 43.0791L57.7938 46.5691L51.7938 43.1191L57.8739 39.6191L63.8639 43.0791ZM51.7039 36.0791L57.5839 39.4791L51.5039 42.9791L45.5939 39.5791L51.7039 36.0791ZM45.3038 39.7491L51.2139 43.1392L45.3038 46.5491L39.3838 43.149L45.3038 39.7491ZM39.0939 43.3191L45.0138 46.7191L39.0138 50.149L33.0839 46.7391L39.0939 43.3191ZM32.8439 46.9091L38.7638 50.3191L32.8439 53.7191L26.9138 50.3091L32.8439 46.9091ZM26.6239 50.4791L32.5638 53.8892L26.5638 57.3191L20.5638 53.9091L26.6239 50.4791ZM20.3739 54.0691L26.3138 57.4891L20.3639 60.9191L14.3639 57.4991L20.3739 54.0691Z" fill="white"/>
<path fill-rule="evenodd" clip-rule="evenodd" d="M94.8907 50.9999C94.8907 74.7999 75.6007 94.0899 51.8007 94.0899C28.0007 94.0899 8.7107 74.7999 8.7107 50.9999C8.7107 27.1999 28.0007 7.90993 51.8007 7.90993C75.6007 7.90993 94.8907 27.1999 94.8907 50.9999ZM51.8007 4.16992C77.6607 4.16992 98.6307 25.1399 98.6307 50.9999C98.6307 76.8599 77.6607 97.8299 51.8007 97.8299C25.9407 97.8299 4.9707 76.8599 4.9707 50.9999C4.9707 25.1399 25.9307 4.16992 51.8007 4.16992Z" fill="url(#paint2_linear_903_21516)"/>
<path d="M51.4758 30.3485C48.7058 30.3485 46.4458 28.0785 46.4458 25.2885C46.4458 22.4985 48.7058 20.2285 51.4758 20.2285C54.2458 20.2285 56.5058 22.4985 56.5058 25.2885C56.5058 28.0785 54.2458 30.3485 51.4758 30.3485ZM51.4758 22.2285C49.8058 22.2285 48.4458 23.5985 48.4458 25.2885C48.4458 26.9785 49.8058 28.3485 51.4758 28.3485C53.1458 28.3485 54.5058 26.9785 54.5058 25.2885C54.5058 23.5985 53.1458 22.2285 51.4758 22.2285Z" fill="#D28E0F"/>
<path d="M64.3457 78.4383H39.2457L36.6057 83.3583L34.8457 82.4083L42.1557 68.7983L43.9057 69.7583L40.3157 76.4383H63.2757L59.6857 69.7583L61.4457 68.8083L68.7557 82.4183L66.9957 83.3683L64.3457 78.4383Z" fill="#D28E0F"/>
<path d="M79.0057 30.6982H24.6157V67.2582H79.0057V30.6982Z" fill="white"/>
<path d="M23.9058 25.2783H79.6958C80.7958 25.2783 81.6958 26.1783 81.6958 27.2783V29.3683C81.6958 30.4683 80.7958 31.3683 79.6958 31.3683H23.9058C22.8058 31.3683 21.9058 30.4683 21.9058 29.3683V27.2783C21.9058 26.1783 22.8058 25.2783 23.9058 25.2783Z" fill="url(#paint3_linear_903_21516)"/>
<path d="M23.5958 66.4883H79.9958C80.9258 66.4883 81.6858 67.2483 81.6858 68.1783C81.6858 69.1083 80.9258 69.8683 79.9958 69.8683H23.5958C22.6658 69.8783 21.9058 69.1183 21.9058 68.1883C21.9058 67.2483 22.6658 66.4883 23.5958 66.4883Z" fill="url(#paint4_linear_903_21516)"/>
<path d="M23.9058 25.2783H79.6958C80.7958 25.2783 81.6958 26.1783 81.6958 27.2783V29.3683C81.6958 30.4683 80.7958 31.3683 79.6958 31.3683H23.9058C22.8058 31.3683 21.9058 30.4683 21.9058 29.3683V27.2783C21.9058 26.1783 22.8058 25.2783 23.9058 25.2783Z" fill="url(#paint5_linear_903_21516)"/>
<path d="M23.5958 66.4883H79.9958C80.9258 66.4883 81.6858 67.2483 81.6858 68.1783C81.6858 69.1083 80.9258 69.8683 79.9958 69.8683H23.5958C22.6658 69.8783 21.9058 69.1183 21.9058 68.1883C21.9058 67.2483 22.6658 66.4883 23.5958 66.4883Z" fill="url(#paint6_linear_903_21516)"/>
<path d="M39.4547 58.3323V62.2023C39.4547 62.3668 39.52 62.5245 39.6363 62.6407C39.7526 62.757 39.9102 62.8224 40.0747 62.8224H42.7347C42.9001 62.8224 43.0587 62.7574 43.1766 62.6414C43.2945 62.5254 43.3621 62.3677 43.3647 62.2023V58.2023C43.3647 58.0671 43.3109 57.9374 43.2153 57.8417C43.1196 57.7461 42.99 57.6924 42.8547 57.6924H40.0747C39.9919 57.6937 39.9102 57.7113 39.8343 57.7441C39.7584 57.777 39.6896 57.8245 39.632 57.8839C39.5745 57.9433 39.5292 58.0136 39.4987 58.0905C39.4683 58.1675 39.4533 58.2496 39.4547 58.3323V58.3323Z" fill="url(#paint7_linear_903_21516)"/>
<path d="M45.9647 54.3023C45.8003 54.3023 45.6425 54.3677 45.5262 54.4839C45.41 54.6002 45.3447 54.7579 45.3447 54.9223V62.2023C45.3447 62.3667 45.41 62.5245 45.5262 62.6407C45.6425 62.757 45.8003 62.8224 45.9647 62.8224H48.7047C48.8701 62.8224 49.0289 62.7573 49.1467 62.6413C49.2646 62.5253 49.3321 62.3677 49.3347 62.2023V54.8023C49.3347 54.7358 49.3215 54.67 49.2958 54.6087C49.27 54.5474 49.2322 54.4918 49.1847 54.4452C49.1372 54.3987 49.081 54.362 49.0192 54.3375C48.9573 54.313 48.8912 54.301 48.8247 54.3023H45.9647Z" fill="url(#paint8_linear_903_21516)"/>
<path d="M55.8147 48.7725H51.9447C51.7803 48.7725 51.6226 48.8378 51.5063 48.9541C51.3901 49.0704 51.3247 49.228 51.3247 49.3925V62.1725C51.3247 62.3379 51.3897 62.4966 51.5057 62.6144C51.6217 62.7323 51.7794 62.7999 51.9447 62.8025H55.8147C55.9818 62.8025 56.142 62.7361 56.2601 62.618C56.3783 62.4998 56.4447 62.3396 56.4447 62.1725V49.3925C56.4421 49.2271 56.3746 49.0694 56.2567 48.9534C56.1388 48.8374 55.9801 48.7724 55.8147 48.7725V48.7725Z" fill="url(#paint9_linear_903_21516)"/>
<path d="M63.6946 43.0325H59.0646C58.8975 43.0325 58.7373 43.0988 58.6191 43.217C58.501 43.3351 58.4346 43.4954 58.4346 43.6625V62.1725C58.4346 62.3396 58.501 62.4998 58.6191 62.618C58.7373 62.7361 58.8975 62.8025 59.0646 62.8025H63.6946C63.7773 62.8025 63.8592 62.7862 63.9357 62.7545C64.0121 62.7229 64.0815 62.6765 64.14 62.618C64.1985 62.5595 64.245 62.49 64.2766 62.4136C64.3083 62.3371 64.3246 62.2552 64.3246 62.1725V43.6625C64.3246 43.5797 64.3083 43.4978 64.2766 43.4214C64.245 43.345 64.1985 43.2755 64.14 43.217C64.0815 43.1585 64.0121 43.1121 63.9357 43.0804C63.8592 43.0488 63.7773 43.0325 63.6946 43.0325V43.0325Z" fill="url(#paint10_linear_903_21516)"/>
<path d="M41.745 52.8823L41.0249 52.5523L46.4249 42.7723L53.605 43.4823L61.0649 37.6023L61.6449 38.1223L53.875 44.3623L46.875 43.6923L41.745 52.8823Z" fill="url(#paint11_linear_903_21516)"/>
<path d="M40.5849 54.5723C40.9233 54.6637 41.2811 54.6525 41.6132 54.5403C41.9452 54.428 42.2366 54.2197 42.4501 53.9417C42.6636 53.6637 42.7898 53.3286 42.8126 52.9788C42.8355 52.629 42.754 52.2804 42.5784 51.977C42.4028 51.6736 42.1411 51.4291 41.8264 51.2746C41.5118 51.1202 41.1583 51.0626 40.8109 51.1092C40.4635 51.1559 40.1378 51.3046 39.875 51.5366C39.6122 51.7686 39.4242 52.0733 39.3349 52.4123C39.2156 52.8644 39.2802 53.3453 39.5144 53.75C39.7486 54.1548 40.1334 54.4504 40.5849 54.5723V54.5723Z" fill="url(#paint12_linear_903_21516)"/>
<path d="M53.115 45.5724C53.3389 45.6344 53.5729 45.6515 53.8035 45.6227C54.0341 45.5939 54.2565 45.5197 54.4583 45.4044C54.66 45.2891 54.8369 45.135 54.9788 44.951C55.1207 44.767 55.2247 44.5567 55.2849 44.3323C55.3776 43.9945 55.3681 43.6368 55.2574 43.3044C55.1466 42.9721 54.9397 42.6801 54.6629 42.4654C54.3861 42.2507 54.0519 42.123 53.7024 42.0984C53.353 42.0738 53.004 42.1534 52.6999 42.3272C52.3957 42.501 52.15 42.7611 51.9938 43.0747C51.8376 43.3882 51.778 43.7411 51.8224 44.0885C51.8669 44.436 52.0133 44.7625 52.2434 45.0266C52.4735 45.2908 52.7769 45.4807 53.115 45.5724Z" fill="url(#paint13_linear_903_21516)"/>
<path d="M46.2047 45.1225C46.4286 45.1846 46.6626 45.2017 46.8932 45.1728C47.1238 45.144 47.3462 45.0698 47.548 44.9545C47.7497 44.8392 47.9267 44.6852 48.0686 44.5012C48.2105 44.3172 48.3146 44.1069 48.3748 43.8825C48.4536 43.6532 48.4844 43.41 48.4653 43.1683C48.4463 42.9265 48.3779 42.6913 48.2642 42.4771C48.1505 42.2629 47.9939 42.0744 47.8043 41.9232C47.6147 41.772 47.396 41.6614 47.1619 41.5982C46.9277 41.535 46.6832 41.5207 46.4433 41.556C46.2033 41.5913 45.9732 41.6755 45.7672 41.8034C45.5612 41.9313 45.3837 42.1002 45.2456 42.2996C45.1076 42.499 45.012 42.7246 44.9647 42.9625C44.9042 43.1857 44.8882 43.4187 44.9177 43.6481C44.9473 43.8775 45.0218 44.0989 45.137 44.2995C45.2521 44.5001 45.4057 44.676 45.5889 44.8173C45.7721 44.9585 45.9814 45.0622 46.2047 45.1225V45.1225Z" fill="url(#paint14_linear_903_21516)"/>
<path d="M60.3251 39.4824C60.5933 39.6305 60.8951 39.7069 61.2014 39.7041C61.5078 39.7014 61.8081 39.6197 62.0736 39.4668C62.3391 39.314 62.5606 39.0952 62.7168 38.8316C62.873 38.5681 62.9585 38.2687 62.9651 37.9624C62.9653 37.6463 62.8823 37.3356 62.7243 37.0618C62.5663 36.7879 62.3389 36.5605 62.0651 36.4024C61.7969 36.2543 61.4951 36.178 61.1887 36.1807C60.8824 36.1835 60.582 36.2653 60.3165 36.4181C60.0511 36.571 59.8295 36.7897 59.6734 37.0532C59.5172 37.3168 59.4316 37.6162 59.4251 37.9224C59.4196 38.2396 59.5004 38.5523 59.659 38.8271C59.8175 39.1019 60.0478 39.3284 60.3251 39.4824Z" fill="url(#paint15_linear_903_21516)"/>
<defs>
<linearGradient id="paint0_linear_903_21516" x1="55.2773" y1="99.9375" x2="57.0273" y2="-43.5625" gradientUnits="userSpaceOnUse">
<stop offset="0.203125" stop-color="white"/>
<stop offset="0.630208" stop-color="#F4F3F5"/>
<stop offset="1" stop-color="#E8E6DF"/>
</linearGradient>
<linearGradient id="paint1_linear_903_21516" x1="49.7501" y1="12.5993" x2="51.027" y2="94.3201" gradientUnits="userSpaceOnUse">
<stop stop-color="white"/>
<stop offset="0.260417" stop-color="#F4F3F5"/>
<stop offset="0.65625" stop-color="#E8E6DF"/>
<stop offset="0.984375" stop-color="#DAD8D3"/>
</linearGradient>
<linearGradient id="paint2_linear_903_21516" x1="53.5907" y1="-4.59912" x2="52.1473" y2="105.343" gradientUnits="userSpaceOnUse">
<stop offset="0.00520833" stop-color="#F8DF70"/>
<stop offset="0.192708" stop-color="#F2CC40"/>
<stop offset="0.583333" stop-color="#E7B116"/>
<stop offset="0.78125" stop-color="#E0A310"/>
<stop offset="0.942708" stop-color="#CA810E"/>
</linearGradient>
<linearGradient id="paint3_linear_903_21516" x1="51.8008" y1="25.2918" x2="51.8008" y2="31.3738" gradientUnits="userSpaceOnUse">
<stop stop-color="#0099BE"/>
<stop offset="1" stop-color="#006E97"/>
</linearGradient>
<linearGradient id="paint4_linear_903_21516" x1="51.7958" y1="66.4969" x2="51.7958" y2="69.8773" gradientUnits="userSpaceOnUse">
<stop stop-color="#0099BE"/>
<stop offset="1" stop-color="#006E97"/>
</linearGradient>
<linearGradient id="paint5_linear_903_21516" x1="52.9434" y1="24.7081" x2="52.9339" y2="31.858" gradientUnits="userSpaceOnUse">
<stop offset="0.00520833" stop-color="#F8DF70"/>
<stop offset="0.192708" stop-color="#F2CC40"/>
<stop offset="0.583333" stop-color="#E7B116"/>
<stop offset="0.78125" stop-color="#E0A310"/>
<stop offset="0.942708" stop-color="#CA810E"/>
</linearGradient>
<linearGradient id="paint6_linear_903_21516" x1="52.9383" y1="66.1718" x2="52.9353" y2="70.1402" gradientUnits="userSpaceOnUse">
<stop offset="0.00520833" stop-color="#F8DF70"/>
<stop offset="0.192708" stop-color="#F2CC40"/>
<stop offset="0.583333" stop-color="#E7B116"/>
<stop offset="0.78125" stop-color="#E0A310"/>
<stop offset="0.942708" stop-color="#CA810E"/>
</linearGradient>
<linearGradient id="paint7_linear_903_21516" x1="38.3947" y1="56.5524" x2="42.8947" y2="62.0824" gradientUnits="userSpaceOnUse">
<stop offset="0.12" stop-color="#F6EECF"/>
<stop offset="0.62" stop-color="#F6D856"/>
<stop offset="1" stop-color="#EFC433"/>
</linearGradient>
<linearGradient id="paint8_linear_903_21516" x1="47.9447" y1="52.8423" x2="47.0047" y2="61.6724" gradientUnits="userSpaceOnUse">
<stop offset="0.01" stop-color="#F2CC40"/>
<stop offset="1" stop-color="#E7B116"/>
</linearGradient>
<linearGradient id="paint9_linear_903_21516" x1="48.8947" y1="44.7925" x2="57.5547" y2="63.8725" gradientUnits="userSpaceOnUse">
<stop offset="0.27" stop-color="#EFC433"/>
<stop offset="0.69" stop-color="#E0A310"/>
<stop offset="1" stop-color="#CA810E"/>
</linearGradient>
<linearGradient id="paint10_linear_903_21516" x1="59.2746" y1="25.0725" x2="61.9246" y2="60.1125" gradientUnits="userSpaceOnUse">
<stop offset="0.01" stop-color="#E0A310"/>
<stop offset="1" stop-color="#CA810E"/>
</linearGradient>
<linearGradient id="paint11_linear_903_21516" x1="40.4449" y1="46.7323" x2="61.1649" y2="43.9123" gradientUnits="userSpaceOnUse">
<stop offset="0.12" stop-color="#F6EECF"/>
<stop offset="1" stop-color="#F6D856"/>
</linearGradient>
<linearGradient id="paint12_linear_903_21516" x1="38.9749" y1="49.5523" x2="42.0649" y2="54.5123" gradientUnits="userSpaceOnUse">
<stop offset="0.12" stop-color="#F6EECF"/>
<stop offset="0.62" stop-color="#F6D856"/>
<stop offset="1" stop-color="#EFC433"/>
</linearGradient>
<linearGradient id="paint13_linear_903_21516" x1="53.025" y1="40.5323" x2="53.985" y2="46.3224" gradientUnits="userSpaceOnUse">
<stop offset="0.27" stop-color="#EFC433"/>
<stop offset="0.69" stop-color="#E0A310"/>
<stop offset="1" stop-color="#CA810E"/>
</linearGradient>
<linearGradient id="paint14_linear_903_21516" x1="46.7747" y1="41.2925" x2="46.5947" y2="44.7725" gradientUnits="userSpaceOnUse">
<stop offset="0.01" stop-color="#F2CC40"/>
<stop offset="1" stop-color="#E7B116"/>
</linearGradient>
<linearGradient id="paint15_linear_903_21516" x1="61.0851" y1="32.9224" x2="61.2251" y2="39.2524" gradientUnits="userSpaceOnUse">
<stop offset="0.01" stop-color="#E0A310"/>
<stop offset="1" stop-color="#CA810E"/>
</linearGradient>
</defs>
</svg>
