<svg width="103" height="103" viewBox="0 0 103 103" fill="none" xmlns="http://www.w3.org/2000/svg">
<path fill-rule="evenodd" clip-rule="evenodd" d="M97.0952 51.3287C97.0952 76.6787 76.5452 97.2287 51.1952 97.2287C25.8452 97.2287 5.29518 76.6787 5.29518 51.3287C5.29518 25.9787 25.8452 5.42873 51.1952 5.42873C76.5452 5.42873 97.0952 25.9787 97.0952 51.3287ZM51.1952 1.68872C78.6152 1.68872 100.835 23.9087 100.835 51.3287C100.835 78.7487 78.6052 100.969 51.1952 100.969C23.7752 100.969 1.55518 78.7387 1.55518 51.3287C1.55518 23.9087 23.7752 1.68872 51.1952 1.68872Z" fill="url(#paint0_linear_1111_4809)"/>
<path d="M50.9453 94.6407C27.027 94.6407 7.6333 75.2563 7.6333 51.3288C7.6333 27.4013 27.027 8.01685 50.9453 8.01685C74.8635 8.01685 94.2572 27.4105 94.2572 51.3288C94.2572 75.2471 74.8635 94.6407 50.9453 94.6407Z" fill="url(#paint1_linear_1111_4809)"/>
<path d="M13.4984 57.9884L19.4984 61.4084L13.5583 64.8285L7.92834 61.5984L8.01843 61.9884L13.2684 64.9884L9.26843 67.2985C9.26843 67.3985 9.31838 67.4985 9.33838 67.5885L13.5784 65.1484L19.5784 68.5685L13.6484 71.9784L9.86841 69.8085V69.9585L10.1783 70.3584L13.2983 72.1584L12.1084 72.8385L12.2883 73.0685L13.5884 72.3185L19.5084 75.7284L15.9684 77.7284L16.1484 77.9585L19.7983 75.8584L25.7983 79.2885L19.9083 82.6685C20.1083 82.9285 20.2984 83.1584 20.4884 83.3884L38.3484 93.7085L39.0084 93.7584L38.8484 93.6584L44.8484 90.2185L50.7684 93.6284L49.3884 94.4185H49.9083L51.0583 93.7484L52.4984 94.5785H53.1583L51.3484 93.5785L57.3484 90.1384L62.4584 93.0685L62.8684 92.9485L57.6583 89.9485L63.5483 86.5585L69.3083 89.8684L65.0784 92.2985L66.1984 91.9784L81.7883 82.9784L82.9784 81.9784L82.1084 82.4884L76.3384 79.1785L82.2584 75.7784L86.3284 78.1084L86.4884 77.8684L82.5483 75.6084L88.5483 72.1785L89.7983 72.8984L89.9584 72.6584L88.8384 72.0084L91.2783 70.6084L91.6184 70.0885L88.5483 71.8484L82.6284 68.4385L88.5583 65.0284L93.1683 67.6785C93.2138 67.5957 93.2639 67.5156 93.3184 67.4385L88.8484 64.8684L94.5483 61.5785L94.6484 60.9784L70.2084 46.8684L57.7484 39.6785L57.6184 39.6284L51.5583 36.1284L51.2783 35.9485L7.89844 60.8684C7.91588 60.9664 7.93921 61.0633 7.96838 61.1584L13.4984 57.9884ZM13.8083 64.9884L19.7384 61.5785L25.7384 64.9984L19.7983 68.4084L13.8083 64.9884ZM51.2484 64.9884L57.1683 61.5885L63.0784 64.9784L57.1583 68.3784L51.2484 64.9884ZM56.8684 68.5485L50.8684 71.9784L44.9584 68.5785L50.9584 65.1584L56.8684 68.5485ZM50.9684 64.8185L44.9684 61.3984L50.8884 57.9984L56.8884 61.4185L50.9684 64.8185ZM50.6783 64.9884L44.6783 68.4185L38.6783 64.9884L44.6783 61.5585L50.6783 64.9884ZM44.4183 68.5785L38.4684 72.0084L32.4684 68.5785L38.4684 65.1584L44.4183 68.5785ZM44.4183 75.7384L38.5084 79.1384L32.5884 75.7384L38.5084 72.3385L44.4183 75.7384ZM38.8083 72.1685L44.7584 68.7484L50.6683 72.1384L44.6683 75.5685L38.8083 72.1685ZM50.9584 72.3085L56.9584 75.7384L50.9584 79.1584L44.9584 75.7284L50.9584 72.3085ZM51.2484 72.1384L57.2484 68.7185L63.2484 72.1384L57.2484 75.5685L51.2484 72.1384ZM57.4984 68.5485L63.4183 65.1484L69.4183 68.5785L63.5084 71.9784L57.4984 68.5485ZM63.6984 64.9784L69.6984 61.5485L75.6984 64.9784L69.6984 68.4084L63.6984 64.9784ZM63.4183 64.8185L57.5084 61.4185L63.5084 57.9884L69.4083 61.3884L63.4183 64.8185ZM57.2184 61.2584L51.2184 57.8285L57.2184 54.3984L63.2184 57.8285L57.2184 61.2584ZM50.9684 57.6584L45.0483 54.2584L51.0483 50.8285L56.9784 54.2384L50.9684 57.6584ZM50.6783 57.8285L44.7584 61.2284L38.8384 57.8285L44.7584 54.4285L50.6783 57.8285ZM44.4684 61.3984L38.4684 64.8285L32.5383 61.4185L38.5383 57.9884L44.4684 61.3984ZM38.2184 64.9884L32.2184 68.4084L26.2983 65.0084L32.2983 61.5885L38.2184 64.9884ZM31.9684 68.5785L26.0383 71.9884L20.1084 68.5885L26.0383 65.1785L31.9684 68.5785ZM32.2584 68.7484L38.2584 72.1785L32.3384 75.5785L26.3384 72.1484L32.2584 68.7484ZM38.2584 79.3085L32.2584 82.7284L26.3484 79.3285L32.2883 75.9185L38.2584 79.3085ZM38.5483 79.4784L44.5483 82.8984L38.5483 86.3285L32.5483 82.8984L38.5483 79.4784ZM38.8484 79.2985L44.7584 75.8984L50.7584 79.3285L44.8484 82.7284L38.8484 79.2985ZM51.0084 79.4984L57.0084 82.9385L51.1084 86.3385L45.1084 82.8884L51.0084 79.4984ZM51.3083 79.3285L57.3083 75.9084L63.3083 79.3484L57.3083 82.7684L51.3083 79.3285ZM57.5483 75.7384L63.5483 72.3085L69.5483 75.7484L63.5483 79.1785L57.5483 75.7384ZM69.7983 75.9185L75.7284 79.3285L69.7284 82.7484L63.8083 79.3484L69.7983 75.9185ZM69.7983 75.5885L63.7983 72.1384L69.7084 68.7384L75.7084 72.1885L69.7983 75.5885ZM70.0084 68.5885L76.0084 65.1584L82.0084 68.5984L76.0084 72.0284L70.0084 68.5885ZM70.0084 61.3984L75.9384 57.9884L81.9384 61.4185L75.9984 64.8285L70.0084 61.3984ZM69.7184 61.2284L63.8184 57.8385L69.7484 54.4285L75.6484 57.8185L69.7184 61.2284ZM63.5283 57.6685L57.5283 54.2484L63.4584 50.8385L69.4584 54.2684L63.5283 57.6685ZM57.2783 54.0785L51.3484 50.6785L57.2783 47.2684L63.1984 50.6685L57.2783 54.0785ZM51.0583 50.5084L45.0583 47.0685L50.9784 43.6584L56.9784 47.0984L51.0583 50.5084ZM50.7783 50.6785L44.7783 54.0984L38.7783 50.6685L44.7783 47.2284L50.7783 50.6785ZM44.5184 54.2684L38.5984 57.6685L32.5984 54.2384L38.5184 50.8285L44.5184 54.2684ZM38.3083 57.8385L32.3083 61.2684L26.3083 57.8385L32.3083 54.3984L38.3083 57.8385ZM32.0583 61.4285L26.0583 64.8584L20.0583 61.4285L26.0583 57.9984L32.0583 61.4285ZM13.8384 72.1584L19.7684 68.7584L25.6984 72.1584L19.7584 75.5685L13.8384 72.1584ZM20.0483 75.7384L25.9784 72.3285L31.9784 75.7484L26.0383 79.1584L20.0483 75.7384ZM20.0483 82.9084L25.9884 79.5084L31.8984 82.8984L25.8984 86.3185L20.0483 82.9084ZM26.2384 86.4884L32.1884 83.0685L38.1884 86.4984L32.1884 89.9285L26.2384 86.4884ZM38.4584 93.5485L32.4584 90.0885L38.4584 86.6584L44.4584 90.1084L38.4584 93.5485ZM38.7384 86.4884L44.7384 83.0685L50.7384 86.5084L44.7384 89.9385L38.7384 86.4884ZM50.9384 93.4884L45.0184 90.0785L51.0184 86.6484L56.9484 90.0585L50.9384 93.4884ZM57.2184 89.8784L51.2883 86.4784L57.1884 83.0885L63.1084 86.4884L57.2184 89.8784ZM57.4884 82.8784L63.4384 79.4585L69.3584 82.8584L63.4183 86.2784L57.4884 82.8784ZM69.4884 89.7484L63.7284 86.4385L69.6683 83.0284L75.4283 86.3385L69.4884 89.7484ZM81.6884 82.7484L75.6884 86.1785L69.9283 82.8684L75.9283 79.4385L81.6884 82.7484ZM75.9283 79.1084L69.9984 75.6985L75.9083 72.2985L81.8384 75.7085L75.9283 79.1084ZM88.0884 72.1084L82.0884 75.5385L76.1583 72.1384L82.1583 68.7085L88.0884 72.1084ZM82.1683 68.3784L76.1683 64.9285L82.0984 61.5184L88.0984 64.9685L82.1683 68.3784ZM94.3784 61.3784L88.3784 64.8185L82.3784 61.3784L88.3784 57.9185L94.3784 61.3784ZM88.1084 57.7584L82.1084 61.2085L76.1084 57.7784L82.1084 54.3185L88.1084 57.7584ZM81.8684 54.1484L75.8684 57.6184L69.9584 54.2284L75.9584 50.7584L81.8684 54.1484ZM75.6884 50.5885L69.6884 54.0585L63.6884 50.6284L69.7384 47.1484L75.6884 50.5885ZM69.4584 46.9884L63.3984 50.4685L57.4784 47.0585L63.5483 43.5785L69.4584 46.9884ZM63.2584 43.4084L57.1884 46.8984L51.1884 43.4485L57.2684 39.9485L63.2584 43.4084ZM51.0984 36.4084L56.9784 39.8085L50.8984 43.3085L44.9884 39.9084L51.0984 36.4084ZM44.6984 40.0785L50.6084 43.4685L44.6984 46.8784L38.7783 43.4784L44.6984 40.0785ZM38.4884 43.6484L44.4083 47.0485L38.4083 50.4784L32.4784 47.0685L38.4884 43.6484ZM32.2384 47.2384L38.1583 50.6484L32.2384 54.0485L26.3083 50.6384L32.2384 47.2384ZM26.0184 50.8085L31.9584 54.2185L25.9584 57.6484L19.9584 54.2384L26.0184 50.8085ZM19.7684 54.3984L25.7084 57.8185L19.7584 61.2484L13.7584 57.8285L19.7684 54.3984Z" fill="white"/>
<path fill-rule="evenodd" clip-rule="evenodd" d="M94.2852 51.3293C94.2852 75.1293 74.9952 94.4193 51.1952 94.4193C27.3952 94.4193 8.10523 75.1293 8.10523 51.3293C8.10523 27.5293 27.3952 8.23927 51.1952 8.23927C74.9952 8.23927 94.2852 27.5293 94.2852 51.3293ZM51.1952 4.49927C77.0552 4.49927 98.0252 25.4693 98.0252 51.3293C98.0252 77.1893 77.0552 98.1593 51.1952 98.1593C25.3352 98.1593 4.36523 77.1893 4.36523 51.3293C4.36523 25.4693 25.3252 4.49927 51.1952 4.49927Z" fill="url(#paint2_linear_1111_4809)"/>
<g filter="url(#filter0_d_1111_4809)">
<path d="M65.1682 46.0546C65.1682 45.5161 64.7263 45.0742 64.1878 45.0742C63.8356 45.0742 61.6331 44.8808 60.4524 43.9625C60.4524 43.9625 60.4593 43.9487 60.4524 43.9625C60.0036 42.3331 59.3546 40.814 58.5467 39.3779C58.3396 38.0108 59.755 37.0165 60.3972 35.9532C60.5076 35.7668 60.5767 35.6632 60.6181 35.5873C60.7355 35.242 60.6733 34.8416 60.3972 34.5654C60.3972 34.5654 59.3131 33.0119 58.1946 31.9071C57.083 30.8024 55.3913 29.5665 55.3913 29.5665C55.0116 29.1867 54.3833 29.1867 54.0035 29.5665C53.748 29.815 52.0771 31.1959 50.5719 31.41C50.5512 31.41 50.5512 31.41 50.5512 31.41C49.1496 30.616 47.5753 29.96 46.0011 29.5181H45.9804C44.8687 28.6965 45.1587 26.998 44.8687 25.7828C44.8687 25.2442 44.4268 24.8023 43.8883 24.8023C43.8883 24.8023 42.024 24.4778 40.4498 24.4778C38.8756 24.4778 36.818 24.8023 36.818 24.8023C36.2794 24.8023 35.8375 25.2442 35.8375 25.7828C35.8375 26.1349 35.6442 28.3374 34.7259 29.5181C33.1655 29.96 31.5291 30.6505 30.1412 31.4238C28.7741 31.6309 27.7799 30.2155 26.7166 29.5734C26.5301 29.4629 26.4266 29.3939 26.3506 29.3524C26.0054 29.235 25.6049 29.2972 25.3287 29.5734C25.3287 29.5734 23.7752 30.6574 22.6705 31.7759C21.5657 32.8876 20.3298 34.5792 20.3298 34.5792C19.9501 34.9589 19.9501 35.5873 20.3298 35.967C20.5784 36.2156 21.9938 37.9141 22.1803 39.3917V39.4055C21.4069 40.7933 20.7303 42.4228 20.2884 43.9832C20.2884 43.9832 20.3091 43.9556 20.2884 43.9832C19.3356 45.1432 17.7682 44.8049 16.553 45.0949C16.0145 45.0949 15.5726 45.5368 15.5726 46.0753C15.5726 46.0753 15.248 47.9396 15.248 49.5138C15.248 51.0881 15.5726 53.1456 15.5726 53.1456C15.5726 53.6842 16.0145 54.1261 16.553 54.1261C16.9051 54.1261 19.1077 54.3194 20.2884 55.2377C20.316 55.2239 20.3022 55.2584 20.3022 55.2584C20.7579 56.8258 21.4 58.3931 22.1872 59.7809C22.1734 59.8017 22.1872 59.7809 22.1941 59.8293C22.3253 61.2585 20.9858 62.1906 20.3436 63.254C20.2332 63.4404 20.1641 63.5439 20.1227 63.6199C20.0053 63.9651 20.0675 64.3656 20.3436 64.6418C20.3436 64.6418 21.4277 66.1953 22.5462 67.3C23.6578 68.4117 25.3495 69.6407 25.3495 69.6407C25.7292 70.0205 26.3575 70.0205 26.7373 69.6407C26.9858 69.3921 28.6844 67.9767 30.162 67.7903C30.162 67.7903 30.1551 67.7972 30.1827 67.8041C31.6119 68.5981 33.0826 69.2264 34.6983 69.6614C34.7121 69.6683 34.7604 69.6821 34.7604 69.6821C35.8721 70.5038 35.5821 72.2023 35.8721 73.4175C35.9342 73.963 36.2311 74.3082 36.8525 74.398C36.8525 74.398 38.7167 74.7225 40.291 74.7225C41.8652 74.7225 43.9228 74.4049 43.9228 74.4049C44.4614 74.3082 44.9033 73.963 44.9033 73.4244C44.9033 73.0723 45.0966 70.8697 46.0149 69.689C46.0149 69.689 46.0563 69.6545 46.0978 69.62C47.741 69.1574 48.9839 68.6533 50.4338 67.8179C50.5098 67.7903 50.4269 67.7972 50.5995 67.7696C51.9667 67.5624 52.9609 68.9779 54.0242 69.62C54.2106 69.7305 54.3142 69.7995 54.3902 69.8409C54.7354 69.9583 55.1359 69.8962 55.412 69.62C55.412 69.62 56.9656 68.536 58.0703 67.4174C59.182 66.3058 60.411 64.6142 60.411 64.6142C60.7907 64.2344 60.7907 63.6061 60.411 63.2263C60.1624 62.9778 58.747 61.2792 58.5605 59.8017C58.5398 59.6498 58.5536 59.629 58.5743 59.5876C59.4029 58.1308 59.9207 57.0605 60.3764 55.4103C60.3764 55.4103 60.3557 55.3551 60.4662 55.217C61.2878 54.1054 62.9864 54.3954 64.2016 54.1054C64.7401 54.1054 65.182 53.6635 65.182 53.1249C65.182 53.1249 65.5066 51.2607 65.5066 49.6864C65.5066 48.1122 65.1682 46.0546 65.1682 46.0546Z" fill="url(#paint3_linear_1111_4809)"/>
</g>
<g filter="url(#filter1_d_1111_4809)">
<circle cx="40.3775" cy="49.5992" r="17.5948" fill="white"/>
</g>
<path d="M46.2085 74.5303C46.2085 76.6671 50.9794 78.394 56.8713 78.394C62.7631 78.394 67.534 76.6635 67.534 74.5303C67.534 72.397 62.7525 69.0537 56.8713 69.0537C50.9901 69.0537 46.2085 72.3988 46.2085 74.5303Z" fill="url(#paint4_linear_1111_4809)"/>
<path d="M48.8516 74.5302C48.8516 73.1936 52.4444 72.1225 56.8714 72.1225C61.2983 72.1225 64.8912 73.1918 64.8912 74.5302C64.8912 75.8686 61.3019 76.9397 56.8714 76.9397C52.4409 76.9397 48.8516 75.8615 48.8516 74.5302Z" fill="url(#paint5_linear_1111_4809)"/>
<path d="M56.8714 37.4231C61.309 37.4231 64.8912 38.4924 64.8912 39.829L64.8912 44.3736L64.9268 44.3736L64.9268 67.9968C62.3944 67.0663 59.7115 66.6131 57.0139 66.6602L56.8714 66.6602C54.3138 66.6161 51.7665 66.9955 49.3327 67.783C49.1724 67.8364 49.012 67.9077 48.8516 67.979L48.8516 39.829C48.8516 38.4924 52.448 37.4231 56.8714 37.4231Z" fill="url(#paint6_linear_1111_4809)"/>
<path d="M46.2085 25.2117L46.2085 21.2018C46.2085 19.0667 50.9901 17.3398 56.8713 17.3398L57.0174 17.3398C62.8558 17.3701 67.5323 19.0881 67.5323 21.2018L67.5323 25.2117C67.5323 23.0731 62.7613 21.3497 56.8695 21.3497C50.9776 21.3497 46.2085 23.0766 46.2085 25.2117Z" fill="url(#paint7_linear_1111_4809)"/>
<path d="M56.8718 21.3425C62.7708 21.3425 67.547 23.0712 67.547 25.2098C67.547 26.19 66.549 27.0811 64.8916 27.7583L64.8916 25.2098C64.8916 23.8731 61.3094 22.8038 56.8718 22.8038C52.4342 22.8038 48.852 23.8731 48.852 25.2098L48.852 27.7583C47.2124 27.0811 46.2144 26.19 46.2144 25.2098C46.2108 23.0712 50.9906 21.3425 56.8718 21.3425Z" fill="url(#paint8_linear_1111_4809)"/>
<path d="M56.8714 22.8039C61.309 22.8039 64.8912 23.8732 64.8912 25.2098L64.8912 29.7544L64.9268 29.7544L64.9268 53.3777C62.3944 52.4472 59.7115 51.994 57.0139 52.041L56.8714 52.041C54.3138 51.9969 51.7665 52.3763 49.3327 53.1638C49.1724 53.2173 49.012 53.2886 48.8516 53.3599L48.8516 25.2099C48.8516 23.8732 52.448 22.8039 56.8714 22.8039Z" fill="url(#paint9_linear_1111_4809)"/>
<path d="M76.9126 36.4582L80.9225 36.4582C83.0575 36.4582 84.7845 41.2398 84.7845 47.121L84.7845 47.2671C84.7542 53.1055 83.0362 57.782 80.9225 57.782L76.9126 57.782C79.0512 57.782 80.7746 53.0111 80.7746 47.1192C80.7746 41.2273 79.0476 36.4582 76.9126 36.4582Z" fill="url(#paint10_linear_1111_4809)"/>
<path d="M80.7811 47.1209C80.7811 53.0199 79.0524 57.7961 76.9138 57.7961C75.9336 57.7961 75.0425 56.7981 74.3652 55.1407L76.9138 55.1407C78.2504 55.1407 79.3197 51.5585 79.3197 47.1209C79.3197 42.6833 78.2504 39.1011 76.9138 39.1011L74.3652 39.1011C75.0425 37.4615 75.9336 36.4635 76.9138 36.4635C79.0524 36.4599 80.7811 41.2397 80.7811 47.1209Z" fill="url(#paint11_linear_1111_4809)"/>
<path d="M64.5693 39.1013L76.9142 39.1013C78.2508 39.1013 79.3201 42.6977 79.3201 47.1211C79.3201 51.5587 78.2508 55.1409 76.9142 55.1409L72.3696 55.1409L72.3696 55.1765L64.605 55.1765L64.5693 39.1013Z" fill="url(#paint12_linear_1111_4809)"/>
<path d="M49.3293 67.7829C49.1689 67.8364 49.0085 67.9076 48.8481 67.9789C47.2085 68.6562 46.2104 69.5472 46.2104 70.5275L46.2104 74.5374C46.2104 73.5572 47.2085 72.6661 48.8481 71.9888C51.4185 71.0588 54.1386 70.6117 56.8714 70.67C59.6037 70.6032 62.3242 71.0506 64.8912 71.9888C66.5487 72.666 67.5467 73.5571 67.5467 74.5373L67.5467 70.5274C67.5467 69.5472 66.5665 68.6739 64.9269 67.9967C62.3945 67.0662 59.7116 66.613 57.014 66.6601L56.8715 66.6601C54.3127 66.6156 51.7641 66.995 49.3293 67.7829Z" fill="url(#paint13_linear_1111_4809)"/>
<path opacity="0.15" d="M54.5884 47.9414C54.5884 47.6296 54.3344 47.3756 54.0227 47.3756C53.8187 47.3756 52.5487 47.264 51.8675 46.7329C51.8675 46.7329 51.8713 46.7252 51.8675 46.7329C51.6096 45.7938 51.2324 44.9163 50.7668 44.085C50.6474 43.2961 51.4634 42.7226 51.8367 42.1069C51.9021 41.9991 51.9406 41.9375 51.9637 41.8952C52.0329 41.6951 51.9945 41.4641 51.8367 41.3063C51.8367 41.3063 51.2093 40.4096 50.5666 39.7708C49.9239 39.1319 48.9502 38.4199 48.9502 38.4199C48.7308 38.2005 48.3691 38.2005 48.1497 38.4199C48.0034 38.5623 47.0374 39.359 46.1677 39.486C46.1561 39.486 46.1561 39.486 46.1561 39.486C45.3479 39.028 44.4396 38.6508 43.5275 38.3929H43.516C42.8733 37.9196 43.0426 36.9382 42.8732 36.2377C42.8732 35.926 42.6192 35.672 42.3075 35.672C42.3075 35.672 41.2299 35.4834 40.3216 35.4834C39.4133 35.4834 38.2241 35.672 38.2241 35.672C37.9124 35.672 37.6584 35.926 37.6584 36.2377C37.6584 36.4417 37.5468 37.7117 37.0157 38.3929C36.1151 38.647 35.1683 39.0472 34.3678 39.4937C33.5789 39.613 33.0054 38.7971 32.3896 38.4237C32.2819 38.3583 32.2203 38.3198 32.178 38.2967C31.9778 38.2275 31.7469 38.2659 31.5891 38.4237C31.5891 38.4237 30.6924 39.0511 30.0535 39.6938C29.4147 40.3365 28.7027 41.3102 28.7027 41.3102C28.4833 41.5296 28.4833 41.8913 28.7027 42.1107C28.8451 42.2531 29.6648 43.2345 29.7726 44.0889V44.0966C29.3261 44.8971 28.9336 45.84 28.6796 46.7406C28.6796 46.7406 28.6911 46.7252 28.6796 46.7406C28.1292 47.4102 27.2248 47.214 26.5243 47.3833C26.2126 47.3833 25.9586 47.6373 25.9586 47.9491C25.9586 47.9491 25.77 49.0267 25.77 49.9349C25.77 50.8432 25.9586 52.0324 25.9586 52.0324C25.9586 52.3442 26.2126 52.5982 26.5243 52.5982C26.7283 52.5982 27.9984 52.7098 28.6796 53.2409C28.695 53.2332 28.6873 53.2524 28.6873 53.2524C28.949 54.1569 29.3223 55.0613 29.7764 55.8618C29.7687 55.8733 29.7764 55.8618 29.7803 55.8887C29.8572 56.7123 29.0837 57.2511 28.7104 57.8669C28.6449 57.9747 28.6064 58.0363 28.5834 58.0786C28.5141 58.2787 28.5526 58.5096 28.7104 58.6674C28.7104 58.6674 29.3377 59.5642 29.9804 60.203C30.6231 60.8458 31.5968 61.5539 31.5968 61.5539C31.8162 61.7733 32.178 61.7733 32.3973 61.5539C32.5397 61.4115 33.5211 60.5917 34.3755 60.484C34.3755 60.484 34.3717 60.4878 34.3871 60.4917C35.2107 60.9497 36.0612 61.3114 36.9926 61.5654C37.0003 61.5693 37.0272 61.577 37.0272 61.577C37.6699 62.0504 37.5006 63.0318 37.6699 63.7322C37.7046 64.0478 37.8778 64.2479 38.2357 64.298C38.2357 64.298 39.3133 64.4865 40.2216 64.4865C41.1298 64.4865 42.319 64.3018 42.319 64.3018C42.6308 64.2479 42.8848 64.0478 42.8848 63.7361C42.8848 63.5321 42.9964 62.262 43.5275 61.5808C43.5275 61.5808 43.5506 61.5616 43.5737 61.5423C44.5205 61.2768 45.2401 60.9843 46.0753 60.5032C46.1176 60.4878 46.0714 60.4917 46.1715 60.4763C46.9605 60.357 47.5339 61.1729 48.1497 61.5462C48.2575 61.6116 48.319 61.6501 48.3614 61.6732C48.5615 61.7425 48.7924 61.704 48.9502 61.5462C48.9502 61.5462 49.8469 60.9189 50.4858 60.2762C51.1285 59.6334 51.8367 58.6597 51.8367 58.6597C52.056 58.4404 52.056 58.0786 51.8367 57.8592C51.6943 57.7168 50.8745 56.7354 50.7668 55.881C50.7552 55.7925 50.7629 55.781 50.7745 55.7579C51.2517 54.915 51.5519 54.2993 51.8136 53.3448C51.8136 53.3448 51.802 53.314 51.8636 53.2332C52.337 52.5905 53.3184 52.7598 54.0188 52.5905C54.3306 52.5905 54.5846 52.3365 54.5846 52.0247C54.5846 52.0247 54.7732 50.9471 54.7732 50.0388C54.7732 49.1306 54.5884 47.9414 54.5884 47.9414ZM48.6577 49.958C48.6577 54.611 44.8861 58.3865 40.2293 58.3865C35.5724 58.3865 31.8008 54.6148 31.8008 49.958C31.8008 45.3051 35.5724 41.5296 40.2293 41.5296C44.8861 41.5296 48.6577 45.3051 48.6577 49.958Z" fill="#1F1D20"/>
<g filter="url(#filter2_d_1111_4809)">
<path d="M54.5884 47.1716C54.5884 46.8598 54.3344 46.6058 54.0227 46.6058C53.8187 46.6058 52.5487 46.4942 51.8675 45.9631C51.8675 45.9631 51.8713 45.9554 51.8675 45.9631C51.6096 45.0241 51.2324 44.1466 50.7668 43.3153C50.6474 42.5263 51.4634 41.9529 51.8367 41.3371C51.9021 41.2293 51.9406 41.1677 51.9637 41.1254C52.0329 40.9253 51.9945 40.6944 51.8367 40.5366C51.8367 40.5366 51.2093 39.6398 50.5666 39.001C49.9239 38.3621 48.9502 37.6501 48.9502 37.6501C48.7308 37.4307 48.3691 37.4307 48.1497 37.6501C48.0034 37.7925 47.0374 38.5892 46.1677 38.7162C46.1561 38.7162 46.1561 38.7162 46.1561 38.7162C45.3479 38.2582 44.4396 37.881 43.5275 37.6232H43.516C42.8733 37.1498 43.0426 36.1684 42.8732 35.468C42.8732 35.1562 42.6192 34.9022 42.3075 34.9022C42.3075 34.9022 41.2299 34.7136 40.3216 34.7136C39.4133 34.7136 38.2241 34.9022 38.2241 34.9022C37.9124 34.9022 37.6584 35.1562 37.6584 35.468C37.6584 35.6719 37.5468 36.942 37.0157 37.6232C36.1151 37.8772 35.1683 38.2774 34.3678 38.7239C33.5789 38.8432 33.0054 38.0273 32.3896 37.654C32.2819 37.5885 32.2203 37.55 32.178 37.527C31.9778 37.4577 31.7469 37.4962 31.5891 37.654C31.5891 37.654 30.6924 38.2813 30.0535 38.924C29.4147 39.5667 28.7027 40.5404 28.7027 40.5404C28.4833 40.7598 28.4833 41.1216 28.7027 41.3409C28.8451 41.4833 29.6648 42.4647 29.7726 43.3191V43.3268C29.3261 44.1273 28.9336 45.0702 28.6796 45.9708C28.6796 45.9708 28.6911 45.9554 28.6796 45.9708C28.1292 46.6405 27.2248 46.4442 26.5243 46.6135C26.2126 46.6135 25.9586 46.8675 25.9586 47.1793C25.9586 47.1793 25.77 48.2569 25.77 49.1652C25.77 50.0734 25.9586 51.2627 25.9586 51.2627C25.9586 51.5744 26.2126 51.8284 26.5243 51.8284C26.7283 51.8284 27.9984 51.94 28.6796 52.4711C28.695 52.4634 28.6873 52.4827 28.6873 52.4827C28.949 53.3871 29.3223 54.2915 29.7764 55.092C29.7687 55.1036 29.7764 55.092 29.7803 55.119C29.8572 55.9426 29.0837 56.4814 28.7104 57.0971C28.6449 57.2049 28.6064 57.2665 28.5834 57.3088C28.5141 57.5089 28.5526 57.7399 28.7104 57.8977C28.7104 57.8977 29.3377 58.7944 29.9804 59.4333C30.6231 60.076 31.5968 60.7841 31.5968 60.7841C31.8162 61.0035 32.178 61.0035 32.3973 60.7841C32.5397 60.6417 33.5211 59.822 34.3755 59.7142C34.3755 59.7142 34.3717 59.7181 34.3871 59.7219C35.2107 60.1799 36.0612 60.5417 36.9926 60.7957C37.0003 60.7995 37.0272 60.8072 37.0272 60.8072C37.6699 61.2806 37.5006 62.262 37.6699 62.9624C37.7046 63.278 37.8778 63.4781 38.2357 63.5282C38.2357 63.5282 39.3133 63.7168 40.2216 63.7168C41.1298 63.7168 42.319 63.532 42.319 63.532C42.6308 63.4781 42.8848 63.278 42.8848 62.9663C42.8848 62.7623 42.9964 61.4923 43.5275 60.8111C43.5275 60.8111 43.5506 60.7918 43.5737 60.7726C44.5205 60.507 45.2401 60.2145 46.0753 59.7334C46.1176 59.7181 46.0714 59.7219 46.1715 59.7065C46.9605 59.5872 47.5339 60.4031 48.1497 60.7764C48.2575 60.8418 48.319 60.8803 48.3614 60.9034C48.5615 60.9727 48.7924 60.9342 48.9502 60.7764C48.9502 60.7764 49.8469 60.1491 50.4858 59.5064C51.1285 58.8637 51.8367 57.89 51.8367 57.89C52.056 57.6706 52.056 57.3088 51.8367 57.0895C51.6943 56.9471 50.8745 55.9657 50.7668 55.1113C50.7552 55.0227 50.7629 55.0112 50.7745 54.9881C51.2517 54.1453 51.5519 53.5295 51.8136 52.575C51.8136 52.575 51.802 52.5442 51.8636 52.4634C52.337 51.8207 53.3184 51.99 54.0188 51.8207C54.3306 51.8207 54.5846 51.5667 54.5846 51.255C54.5846 51.255 54.7732 50.1773 54.7732 49.2691C54.7732 48.3608 54.5884 47.1716 54.5884 47.1716ZM48.6577 49.1883C48.6577 53.8412 44.8861 57.6167 40.2293 57.6167C35.5724 57.6167 31.8008 53.8451 31.8008 49.1883C31.8008 44.5353 35.5724 40.7598 40.2293 40.7598C44.8861 40.7598 48.6577 44.5353 48.6577 49.1883Z" fill="url(#paint14_linear_1111_4809)"/>
</g>
<path fill-rule="evenodd" clip-rule="evenodd" d="M32.376 83.5291C32.376 83.1148 32.7118 82.7791 33.126 82.7791L66.2201 82.779C66.6343 82.779 66.9701 83.1148 66.9701 83.529C66.9701 83.9433 66.6343 84.279 66.2201 84.279L33.126 84.2791C32.7118 84.2791 32.376 83.9433 32.376 83.5291Z" fill="#959595"/>
<path d="M65.2783 80.3049L70.859 83.529L65.2783 86.747V80.3049Z" fill="#959595"/>
<defs>
<filter id="filter0_d_1111_4809" x="11.248" y="22.4778" width="58.2583" height="58.2446" filterUnits="userSpaceOnUse" color-interpolation-filters="sRGB">
<feFlood flood-opacity="0" result="BackgroundImageFix"/>
<feColorMatrix in="SourceAlpha" type="matrix" values="0 0 0 0 0 0 0 0 0 0 0 0 0 0 0 0 0 0 127 0" result="hardAlpha"/>
<feOffset dy="2"/>
<feGaussianBlur stdDeviation="2"/>
<feComposite in2="hardAlpha" operator="out"/>
<feColorMatrix type="matrix" values="0 0 0 0 0 0 0 0 0 0 0 0 0 0 0 0 0 0 0.25 0"/>
<feBlend mode="normal" in2="BackgroundImageFix" result="effect1_dropShadow_1111_4809"/>
<feBlend mode="normal" in="SourceGraphic" in2="effect1_dropShadow_1111_4809" result="shape"/>
</filter>
<filter id="filter1_d_1111_4809" x="18.7827" y="30.0044" width="43.1895" height="43.1895" filterUnits="userSpaceOnUse" color-interpolation-filters="sRGB">
<feFlood flood-opacity="0" result="BackgroundImageFix"/>
<feColorMatrix in="SourceAlpha" type="matrix" values="0 0 0 0 0 0 0 0 0 0 0 0 0 0 0 0 0 0 127 0" result="hardAlpha"/>
<feOffset dy="2"/>
<feGaussianBlur stdDeviation="2"/>
<feComposite in2="hardAlpha" operator="out"/>
<feColorMatrix type="matrix" values="0 0 0 0 0.45098 0 0 0 0 0.223529 0 0 0 0 0.113725 0 0 0 0.25 0"/>
<feBlend mode="normal" in2="BackgroundImageFix" result="effect1_dropShadow_1111_4809"/>
<feBlend mode="normal" in="SourceGraphic" in2="effect1_dropShadow_1111_4809" result="shape"/>
</filter>
<filter id="filter2_d_1111_4809" x="21.77" y="32.7136" width="37.0029" height="37.0032" filterUnits="userSpaceOnUse" color-interpolation-filters="sRGB">
<feFlood flood-opacity="0" result="BackgroundImageFix"/>
<feColorMatrix in="SourceAlpha" type="matrix" values="0 0 0 0 0 0 0 0 0 0 0 0 0 0 0 0 0 0 127 0" result="hardAlpha"/>
<feOffset dy="2"/>
<feGaussianBlur stdDeviation="2"/>
<feComposite in2="hardAlpha" operator="out"/>
<feColorMatrix type="matrix" values="0 0 0 0 0 0 0 0 0 0 0 0 0 0 0 0 0 0 0.25 0"/>
<feBlend mode="normal" in2="BackgroundImageFix" result="effect1_dropShadow_1111_4809"/>
<feBlend mode="normal" in="SourceGraphic" in2="effect1_dropShadow_1111_4809" result="shape"/>
</filter>
<linearGradient id="paint0_linear_1111_4809" x1="54.6718" y1="100.267" x2="56.4218" y2="-43.2332" gradientUnits="userSpaceOnUse">
<stop offset="0.203125" stop-color="white"/>
<stop offset="0.630208" stop-color="#F4F3F5"/>
<stop offset="1" stop-color="#E8E6DF"/>
</linearGradient>
<linearGradient id="paint1_linear_1111_4809" x1="49.1447" y1="12.9287" x2="50.4215" y2="94.6495" gradientUnits="userSpaceOnUse">
<stop offset="0.2" stop-color="white"/>
<stop offset="0.63" stop-color="#F4F3F5"/>
<stop offset="1" stop-color="#E8E6DF"/>
</linearGradient>
<linearGradient id="paint2_linear_1111_4809" x1="52.9852" y1="-4.26978" x2="51.5419" y2="105.672" gradientUnits="userSpaceOnUse">
<stop offset="0.00520833" stop-color="#F8DF70"/>
<stop offset="0.192708" stop-color="#F2CC40"/>
<stop offset="0.583333" stop-color="#E7B116"/>
<stop offset="0.78125" stop-color="#E0A310"/>
<stop offset="0.942708" stop-color="#CA810E"/>
</linearGradient>
<linearGradient id="paint3_linear_1111_4809" x1="41.3378" y1="19.7736" x2="40.5637" y2="78.7527" gradientUnits="userSpaceOnUse">
<stop offset="0.00520833" stop-color="#F8DF70"/>
<stop offset="0.192708" stop-color="#F2CC40"/>
<stop offset="0.583333" stop-color="#E7B116"/>
<stop offset="0.78125" stop-color="#E0A310"/>
<stop offset="0.942708" stop-color="#CA810E"/>
</linearGradient>
<linearGradient id="paint4_linear_1111_4809" x1="46.9115" y1="75.9185" x2="57.249" y2="75.3428" gradientUnits="userSpaceOnUse">
<stop stop-color="#F8E17B"/>
<stop offset="0.5302" stop-color="#F6D856"/>
<stop offset="1" stop-color="#F6D856"/>
</linearGradient>
<linearGradient id="paint5_linear_1111_4809" x1="34.2804" y1="76.2527" x2="62.7113" y2="74.1198" gradientUnits="userSpaceOnUse">
<stop offset="0.01" stop-color="#E0A310"/>
<stop offset="1" stop-color="#CA810E"/>
</linearGradient>
<linearGradient id="paint6_linear_1111_4809" x1="34.2481" y1="63.6366" x2="62.8985" y2="63.2971" gradientUnits="userSpaceOnUse">
<stop offset="0.01" stop-color="#E0A310"/>
<stop offset="1" stop-color="#CA810E"/>
</linearGradient>
<linearGradient id="paint7_linear_1111_4809" x1="46.7082" y1="23.1319" x2="61.8283" y2="22.5243" gradientUnits="userSpaceOnUse">
<stop offset="0.01" stop-color="#F2CC40"/>
<stop offset="1" stop-color="#E7B116"/>
</linearGradient>
<linearGradient id="paint8_linear_1111_4809" x1="46.9176" y1="26.0579" x2="57.2229" y2="25.2221" gradientUnits="userSpaceOnUse">
<stop stop-color="#F8E17B"/>
<stop offset="0.5302" stop-color="#F6D856"/>
<stop offset="1" stop-color="#F6D856"/>
</linearGradient>
<linearGradient id="paint9_linear_1111_4809" x1="34.2481" y1="49.0174" x2="62.8985" y2="48.678" gradientUnits="userSpaceOnUse">
<stop offset="0.01" stop-color="#E0A310"/>
<stop offset="1" stop-color="#CA810E"/>
</linearGradient>
<linearGradient id="paint10_linear_1111_4809" x1="77.0971" y1="52.1483" x2="82.6877" y2="52.1177" gradientUnits="userSpaceOnUse">
<stop offset="0.01" stop-color="#F2CC40"/>
<stop offset="1" stop-color="#E7B116"/>
</linearGradient>
<linearGradient id="paint11_linear_1111_4809" x1="74.5767" y1="52.1422" x2="77.6963" y2="52.1193" gradientUnits="userSpaceOnUse">
<stop stop-color="#F8E17B"/>
<stop offset="0.5302" stop-color="#F6D856"/>
<stop offset="1" stop-color="#F6D856"/>
</linearGradient>
<linearGradient id="paint12_linear_1111_4809" x1="51.169" y1="52.8839" x2="77.4514" y2="52.3406" gradientUnits="userSpaceOnUse">
<stop offset="0.01" stop-color="#E0A310"/>
<stop offset="1" stop-color="#CA810E"/>
</linearGradient>
<linearGradient id="paint13_linear_1111_4809" x1="46.7104" y1="72.4553" x2="61.8395" y2="71.8476" gradientUnits="userSpaceOnUse">
<stop offset="0.01" stop-color="#F2CC40"/>
<stop offset="1" stop-color="#E7B116"/>
</linearGradient>
<linearGradient id="paint14_linear_1111_4809" x1="40.8259" y1="31.9982" x2="40.3789" y2="66.0431" gradientUnits="userSpaceOnUse">
<stop offset="0.00520833" stop-color="#F8DF70"/>
<stop offset="0.192708" stop-color="#F2CC40"/>
<stop offset="0.583333" stop-color="#E7B116"/>
<stop offset="0.78125" stop-color="#E0A310"/>
<stop offset="0.942708" stop-color="#CA810E"/>
</linearGradient>
</defs>
</svg>
