<svg width="103" height="103" viewBox="0 0 103 103" fill="none" xmlns="http://www.w3.org/2000/svg">
<path d="M51.3679 98.6488C25.5179 98.6488 4.55786 77.6988 4.55786 51.8388C4.55786 25.9788 25.5179 5.02881 51.3679 5.02881C77.2179 5.02881 98.1779 25.9888 98.1779 51.8388C98.1779 77.6888 77.2179 98.6488 51.3679 98.6488Z" fill="url(#paint0_linear_805_8326)"/>
<path fill-rule="evenodd" clip-rule="evenodd" d="M97.268 51.839C97.268 77.189 76.718 97.739 51.368 97.739C26.018 97.739 5.46803 77.189 5.46803 51.839C5.46803 26.489 26.018 5.93898 51.368 5.93898C76.718 5.93898 97.268 26.489 97.268 51.839ZM51.368 2.19897C78.788 2.19897 101.008 24.419 101.008 51.839C101.008 79.259 78.778 101.479 51.368 101.479C23.948 101.479 1.72803 79.249 1.72803 51.839C1.72803 24.419 23.948 2.19897 51.368 2.19897Z" fill="#F2F1F0"/>
<path fill-rule="evenodd" clip-rule="evenodd" d="M94.4578 51.8388C94.4578 75.6388 75.1678 94.9288 51.3678 94.9288C27.5678 94.9288 8.27784 75.6388 8.27784 51.8388C8.27784 28.0388 27.5678 8.74879 51.3678 8.74879C75.1678 8.74879 94.4578 28.0388 94.4578 51.8388ZM51.3678 5.00879C77.2278 5.00879 98.1978 25.9788 98.1978 51.8388C98.1978 77.6988 77.2278 98.6688 51.3678 98.6688C25.5078 98.6688 4.53784 77.6988 4.53784 51.8388C4.53784 25.9788 25.4978 5.00879 51.3678 5.00879Z" fill="url(#paint1_linear_805_8326)"/>
<path opacity="0.15" d="M22.3255 78.2692H79.9255C81.5355 78.2692 82.8455 76.9592 82.8455 75.3492V29.4092H19.4055V75.3492C19.4055 76.9592 20.7155 78.2692 22.3255 78.2692Z" fill="#1F1D20"/>
<g filter="url(#filter0_d_805_8326)">
<path d="M20.6155 75.5993H81.6455C82.3155 75.5993 82.8555 75.0593 82.8555 74.3893V26.7393H19.4055V74.3893C19.4055 75.0593 19.9455 75.5993 20.6155 75.5993Z" fill="white"/>
</g>
<path d="M19.4055 32.0192H82.8555V26.3292C82.8555 25.8192 82.4455 25.4092 81.9355 25.4092H20.3255C19.8155 25.4092 19.4055 25.8192 19.4055 26.3292V32.0192Z" fill="#092E4C"/>
<path d="M24.2855 30.4493C25.1755 30.4493 25.8955 29.7293 25.8955 28.8393C25.8955 27.9393 25.1555 27.2393 24.2855 27.2393C23.3955 27.2393 22.6755 27.9593 22.6755 28.8493C22.6755 29.7493 23.3755 30.4493 24.2855 30.4493Z" fill="#01A0DD"/>
<path fill-rule="evenodd" clip-rule="evenodd" d="M46.4702 53.4429L53.2961 53.4429L53.2961 54.2429L46.4702 54.2429L46.4702 53.4429Z" fill="#959595"/>
<path d="M52.7898 52.5654L54.998 53.8412L52.7898 55.1145V52.5654Z" fill="#959595"/>
<path opacity="0.15" d="M78.8587 60.0185L67.702 66.5362L56.5452 60.0185L67.6996 53.5337L78.8587 60.0185Z" fill="#1F1D20"/>
<path d="M78.8587 45.7988V58.7261L67.7278 65.2438V52.286L78.8587 45.7988Z" fill="#32B0E7"/>
<path d="M78.8587 45.8002L67.7278 52.2898L56.5452 45.8002L67.6996 39.3154L78.8587 45.8002Z" fill="#45CAF2"/>
<path d="M67.7278 52.286V65.2438L56.5452 58.7238V45.7988L67.7278 52.286Z" fill="#0078D4"/>
<path d="M56.5452 58.7246L67.7278 52.2869V65.2447L56.5452 58.7246Z" fill="#185A97"/>
<path d="M78.8587 58.727L67.7278 52.2869V65.2447L78.8587 58.727Z" fill="#156AB3"/>
<path opacity="0.3" d="M60.5444 63.4219L58.9587 64.324L66.0394 68.4248L67.625 67.4953L60.5444 63.4219Z" fill="black"/>
<path d="M67.5104 54.019L67.5677 67.2607L66.0773 68.0919L64.4678 54.2188L67.5104 54.019Z" fill="#001B30"/>
<path d="M66.0773 68.0907L58.9692 64.0207L58.9119 50.7791L66.02 54.849L66.0773 68.0907Z" fill="url(#paint2_linear_805_8326)"/>
<path d="M66.0486 54.878L58.9119 50.7794L60.4309 49.9482L67.539 54.0182L66.0486 54.878Z" fill="#003153"/>
<path d="M60.5456 57.6875V58.4041L59.915 58.0315V57.3149L60.5456 57.6875Z" fill="#2BC0E4"/>
<path d="M60.5457 57.6877L60.7749 57.5444V58.261L60.5457 58.4329V57.6877Z" fill="#14ADD2"/>
<path d="M59.915 57.3435L60.1443 57.2002L60.7749 57.5728L60.5456 57.6874L59.915 57.3435Z" fill="#50E6FF"/>
<path d="M62.4372 58.7764V59.493L61.8066 59.1203V58.4038L62.4372 58.7764Z" fill="#2BC0E4"/>
<path d="M62.4373 58.7751L62.6665 58.6318V59.3484L62.4373 59.4917V58.7751Z" fill="#14ADD2"/>
<path d="M61.8066 58.4324L62.0359 58.2891L62.6665 58.6617L62.4372 58.805L61.8066 58.4324Z" fill="#50E6FF"/>
<path d="M64.329 56.283L64.5582 56.1396V58.2893L64.3003 58.4612L64.329 56.283Z" fill="#BCC6C8"/>
<path d="M59.915 53.7031L60.173 53.5598L64.5567 56.1358L64.3028 56.3957L59.915 53.7031Z" fill="#F3F3F3"/>
<path d="M60.5456 59.8655V60.5821L59.915 60.2095V59.4929L60.5456 59.8655Z" fill="#057DD8"/>
<path d="M60.5457 59.8643L60.7749 59.7209V60.4375L60.5457 60.5808V59.8643Z" fill="#0269B7"/>
<path d="M59.915 59.5215L60.1443 59.3782L60.7749 59.7508L60.5456 59.8654L59.915 59.5215Z" fill="#249AF3"/>
<path d="M60.5457 62.0437L60.517 62.7603L59.8865 62.3877V61.6711L60.5457 62.0437Z" fill="#2056A3"/>
<path d="M60.5455 62.0439L60.7748 61.9006V62.6172L60.5168 62.7605L60.5455 62.0439Z" fill="#124A99"/>
<path d="M59.8865 61.6709L60.1444 61.5276L60.775 61.9002L60.5457 62.0435L59.8865 61.6709Z" fill="#3876D0"/>
<path d="M62.4372 60.9546V61.6712L61.8066 61.2986V60.582L62.4372 60.9546Z" fill="#057DD8"/>
<path d="M62.4373 60.9548L62.6665 60.8115V61.5281L62.4373 61.6714V60.9548Z" fill="#0269B7"/>
<path d="M61.8066 60.5818L62.0359 60.4385L62.6665 60.8111L62.4372 60.9544L61.8066 60.5818Z" fill="#249AF3"/>
<path d="M62.4373 63.1326V63.8492L61.7781 63.4766L61.8067 62.76L62.4373 63.1326Z" fill="#2056A3"/>
<path d="M62.4373 63.1331L62.6665 62.9897V63.7063L62.4373 63.8496V63.1331Z" fill="#124A99"/>
<path d="M61.8066 62.76L62.0359 62.6167L62.6665 62.9893L62.4372 63.1326L61.8066 62.76Z" fill="#3876D0"/>
<path d="M64.2705 59.8674L64.5285 59.7241V60.4407L64.2992 60.584V59.8674H64.2705Z" fill="#14ADD2"/>
<path d="M63.6653 59.5034L63.9167 59.3638L64.5313 59.7269L64.2799 59.8666L63.6653 59.5034Z" fill="#50E6FF"/>
<path d="M64.3002 62.0437V62.7603L63.6697 62.3877V61.6711L64.3002 62.0437Z" fill="#057DD8"/>
<path d="M64.3003 62.0439L64.5296 61.9006V62.6172L64.3003 62.7605V62.0439Z" fill="#0269B7"/>
<path d="M63.6697 61.6709L63.899 61.5276L64.5295 61.9002L64.3002 62.0435L63.6697 61.6709Z" fill="#249AF3"/>
<path d="M64.3002 64.2217V64.9383L63.6697 64.5657V63.8491L64.3002 64.2217Z" fill="#2056A3"/>
<path d="M64.3003 64.2222L64.5296 64.0789V64.7954L64.3003 64.9387V64.2222Z" fill="#124A99"/>
<path d="M63.6697 63.8489L63.899 63.7056L64.5295 64.0782L64.3002 64.2215L63.6697 63.8489Z" fill="#3876D0"/>
<path d="M64.3002 59.8655V60.5821L63.6697 60.2095V59.4929L64.3002 59.8655Z" fill="#2BC0E4"/>
<path d="M64.3289 56.2829L64.3003 58.4612L59.915 55.8817V53.7034L64.3289 56.2829Z" fill="white"/>
<path opacity="0.15" d="M48.9512 45.231H24.5085C24.1998 45.231 23.9036 45.3536 23.6853 45.5719C23.4671 45.7901 23.3447 46.0862 23.3447 46.3949V63.8383C23.3447 64.147 23.4671 64.443 23.6853 64.6613C23.9036 64.8796 24.1998 65.0022 24.5085 65.0022H48.9512C49.2599 65.0022 49.556 64.8796 49.7743 64.6613C49.9926 64.443 50.1149 64.147 50.1149 63.8383V46.3949C50.1149 46.0862 49.9926 45.7901 49.7743 45.5719C49.556 45.3536 49.2599 45.231 48.9512 45.231Z" fill="#1F1D20"/>
<path d="M48.9512 44.0654H24.5085C24.1998 44.0654 23.9036 44.1881 23.6853 44.4063C23.4671 44.6246 23.3447 44.9207 23.3447 45.2294V62.6727C23.3447 62.9814 23.4671 63.2775 23.6853 63.4958C23.9036 63.7141 24.1998 63.8367 24.5085 63.8367H48.9512C49.2599 63.8367 49.556 63.7141 49.7743 63.4958C49.9926 63.2775 50.1149 62.9814 50.1149 62.6727V45.2294C50.1149 44.9207 49.9926 44.6246 49.7743 44.4063C49.556 44.1881 49.2599 44.0654 48.9512 44.0654Z" fill="url(#paint3_linear_805_8326)"/>
<path opacity="0.15" d="M44.5845 51.4737L40.8972 52.7705V50.427C40.8972 50.2633 40.8322 50.1063 40.7164 49.9906C40.6007 49.8749 40.4438 49.8098 40.2801 49.8098H31.2578C31.0941 49.8098 30.9372 49.8749 30.8214 49.9906C30.7057 50.1063 30.6406 50.2633 30.6406 50.427V59.4572C30.6406 59.5379 30.6564 59.6178 30.6875 59.6922C30.7186 59.7667 30.7644 59.8342 30.8218 59.8909C30.8792 59.9476 30.9472 59.9922 31.0221 60.0224C31.0969 60.0525 31.1771 60.0676 31.2578 60.0665H40.2801C40.3608 60.0676 40.441 60.0525 40.5158 60.0224C40.5906 59.9922 40.6586 59.9476 40.7161 59.8909C40.7735 59.8342 40.8192 59.7667 40.8503 59.6922C40.8814 59.6178 40.8972 59.5379 40.8972 59.4572V57.0669L44.5845 58.3635C44.6237 58.3789 44.6659 58.3843 44.7077 58.3795C44.7495 58.3746 44.7897 58.3596 44.8244 58.3357C44.8591 58.3118 44.8874 58.2798 44.9068 58.2424C44.9263 58.2051 44.9361 58.1635 44.9358 58.1214V51.7627C44.9425 51.7174 44.9374 51.6712 44.9209 51.6285C44.9044 51.5857 44.8773 51.548 44.842 51.5189C44.8066 51.4898 44.7643 51.4704 44.7191 51.4624C44.674 51.4545 44.6277 51.4584 44.5845 51.4737Z" fill="#1F1D20"/>
<path d="M44.5845 50.6741L40.8972 51.9709V49.6274C40.8972 49.4637 40.8322 49.3068 40.7164 49.1911C40.6007 49.0753 40.4438 49.0103 40.2801 49.0103H31.2578C31.0941 49.0103 30.9372 49.0753 30.8214 49.1911C30.7057 49.3068 30.6406 49.4637 30.6406 49.6274V58.6576C30.6406 58.7383 30.6564 58.8182 30.6875 58.8927C30.7186 58.9671 30.7644 59.0346 30.8218 59.0913C30.8792 59.148 30.9472 59.1927 31.0221 59.2228C31.0969 59.253 31.1771 59.268 31.2578 59.267H40.2801C40.3608 59.268 40.441 59.253 40.5158 59.2228C40.5906 59.1927 40.6586 59.148 40.7161 59.0913C40.7735 59.0346 40.8192 58.9671 40.8503 58.8927C40.8814 58.8182 40.8972 58.7383 40.8972 58.6576V56.2673L44.5845 57.564C44.6237 57.5793 44.6659 57.5848 44.7077 57.5799C44.7495 57.575 44.7897 57.56 44.8244 57.5361C44.8591 57.5122 44.8874 57.4802 44.9068 57.4429C44.9263 57.4055 44.9361 57.364 44.9358 57.3219V50.9632C44.9425 50.9179 44.9374 50.8716 44.9209 50.8289C44.9044 50.7862 44.8773 50.7484 44.842 50.7193C44.8066 50.6903 44.7643 50.6708 44.7191 50.6629C44.674 50.655 44.6277 50.6588 44.5845 50.6741Z" fill="#FEFEFE"/>
<defs>
<filter id="filter0_d_805_8326" x="15.4055" y="26.7393" width="71.45" height="56.8601" filterUnits="userSpaceOnUse" color-interpolation-filters="sRGB">
<feFlood flood-opacity="0" result="BackgroundImageFix"/>
<feColorMatrix in="SourceAlpha" type="matrix" values="0 0 0 0 0 0 0 0 0 0 0 0 0 0 0 0 0 0 127 0" result="hardAlpha"/>
<feOffset dy="4"/>
<feGaussianBlur stdDeviation="2"/>
<feComposite in2="hardAlpha" operator="out"/>
<feColorMatrix type="matrix" values="0 0 0 0 0 0 0 0 0 0 0 0 0 0 0 0 0 0 0.25 0"/>
<feBlend mode="normal" in2="BackgroundImageFix" result="effect1_dropShadow_805_8326"/>
<feBlend mode="normal" in="SourceGraphic" in2="effect1_dropShadow_805_8326" result="shape"/>
</filter>
<linearGradient id="paint0_linear_805_8326" x1="49.594" y1="-12.9507" x2="53.576" y2="132.819" gradientUnits="userSpaceOnUse">
<stop stop-color="#00ABDE"/>
<stop offset="1" stop-color="#007ED8"/>
</linearGradient>
<linearGradient id="paint1_linear_805_8326" x1="2.79824" y1="-19.7838" x2="98.3258" y2="121.098" gradientUnits="userSpaceOnUse">
<stop stop-color="#007ED8"/>
<stop offset="0.7065" stop-color="#002D4C"/>
</linearGradient>
<linearGradient id="paint2_linear_805_8326" x1="60.5109" y1="43.4518" x2="68.7254" y2="67.4417" gradientUnits="userSpaceOnUse">
<stop offset="0.21875" stop-color="#002D4C"/>
<stop offset="0.958333" stop-color="#141E2F"/>
</linearGradient>
<linearGradient id="paint3_linear_805_8326" x1="30.0548" y1="38.652" x2="43.2332" y2="68.8673" gradientUnits="userSpaceOnUse">
<stop stop-color="#5A62C3"/>
<stop offset="0.5" stop-color="#4D55BD"/>
<stop offset="1" stop-color="#3940AB"/>
</linearGradient>
</defs>
</svg>
