<svg width="103" height="103" viewBox="0 0 103 103" fill="none" xmlns="http://www.w3.org/2000/svg">
<path d="M51.5576 98.3302C25.7076 98.3302 4.74756 77.3802 4.74756 51.5202C4.74756 25.6602 25.7076 4.71021 51.5576 4.71021C77.4076 4.71021 98.3676 25.6702 98.3676 51.5202C98.3676 77.3702 77.4076 98.3302 51.5576 98.3302Z" fill="url(#paint0_linear_764_1701)"/>
<path fill-rule="evenodd" clip-rule="evenodd" d="M97.4577 51.5204C97.4577 76.8704 76.9077 97.4204 51.5577 97.4204C26.2077 97.4204 5.65772 76.8704 5.65772 51.5204C5.65772 26.1704 26.2077 5.62038 51.5577 5.62038C76.9077 5.62038 97.4577 26.1704 97.4577 51.5204ZM51.5577 1.88037C78.9777 1.88037 101.198 24.1004 101.198 51.5204C101.198 78.9404 78.9677 101.16 51.5577 101.16C24.1377 101.16 1.91772 78.9304 1.91772 51.5204C1.91772 24.1004 24.1377 1.88037 51.5577 1.88037Z" fill="#F2F1F0"/>
<path fill-rule="evenodd" clip-rule="evenodd" d="M94.6475 51.5202C94.6475 75.3202 75.3575 94.6102 51.5575 94.6102C27.7575 94.6102 8.46754 75.3202 8.46754 51.5202C8.46754 27.7202 27.7575 8.43019 51.5575 8.43019C75.3575 8.43019 94.6475 27.7202 94.6475 51.5202ZM51.5575 4.69019C77.4175 4.69019 98.3875 25.6602 98.3875 51.5202C98.3875 77.3802 77.4175 98.3502 51.5575 98.3502C25.6975 98.3502 4.72754 77.3802 4.72754 51.5202C4.72754 25.6602 25.6875 4.69019 51.5575 4.69019Z" fill="url(#paint1_linear_764_1701)"/>
<path opacity="0.15" d="M80.5815 29.4324H68.8911C68.7217 29.4324 68.5545 29.4657 68.3979 29.5305C68.2414 29.5953 68.0988 29.6905 67.979 29.8103C67.8592 29.9301 67.7645 30.0722 67.6997 30.2288C67.6349 30.3853 67.6011 30.553 67.6011 30.7224V37.8723C67.6011 38.0417 67.6349 38.2095 67.6997 38.366C67.7645 38.5225 67.8592 38.6646 67.979 38.7844C68.0988 38.9042 68.2414 38.9994 68.3979 39.0642C68.5545 39.129 68.7217 39.1624 68.8911 39.1624H80.5815C80.7509 39.1637 80.9191 39.1311 81.0757 39.0667C81.2322 39.0022 81.3744 38.9071 81.4937 38.7869C81.6129 38.6667 81.7068 38.524 81.77 38.3669C81.8333 38.2099 81.8645 38.0416 81.8618 37.8723V30.7322C81.8619 30.3908 81.7273 30.0633 81.4878 29.8201C81.2483 29.5768 80.9228 29.4376 80.5815 29.4324V29.4324Z" fill="#1F1D20"/>
<path opacity="0.15" d="M80.5815 41.6023H68.8911C68.7217 41.6023 68.5545 41.6356 68.3979 41.7004C68.2414 41.7653 68.0988 41.8604 67.979 41.9802C67.8592 42.1 67.7645 42.2422 67.6997 42.3987C67.6349 42.5552 67.6011 42.7229 67.6011 42.8923V50.0422C67.6011 50.2116 67.6349 50.3794 67.6997 50.5359C67.7645 50.6924 67.8592 50.8346 67.979 50.9543C68.0988 51.0741 68.2414 51.1693 68.3979 51.2341C68.5545 51.299 68.7217 51.3323 68.8911 51.3323H80.5815C80.7509 51.3336 80.9191 51.301 81.0757 51.2366C81.2322 51.1721 81.3744 51.077 81.4937 50.9568C81.6129 50.8366 81.7068 50.6939 81.77 50.5369C81.8333 50.3798 81.8645 50.2115 81.8618 50.0422V42.8923C81.8618 42.5519 81.7266 42.2253 81.4868 41.9836C81.2471 41.742 80.9219 41.6049 80.5815 41.6023V41.6023Z" fill="#1F1D20"/>
<path d="M71.2017 68.6023H55.0317V70.0023H71.2017V68.6023Z" fill="white"/>
<path d="M71.2017 56.8621H55.0317V58.2621H71.2017V56.8621Z" fill="white"/>
<path d="M71.2017 45.1121H55.0317V46.5121H71.2017V45.1121Z" fill="white"/>
<path d="M71.2017 33.3523H55.0317V34.7523H71.2017V33.3523Z" fill="white"/>
<path d="M80.5815 28.8718H68.8911C68.7217 28.8718 68.5545 28.9051 68.3979 28.97C68.2414 29.0348 68.0988 29.13 67.979 29.2498C67.8592 29.3695 67.7645 29.5117 67.6997 29.6682C67.6349 29.8247 67.6011 29.9925 67.6011 30.1619V37.3318C67.6011 37.5012 67.6349 37.6689 67.6997 37.8254C67.7645 37.9819 67.8592 38.1241 67.979 38.2439C68.0988 38.3637 68.2414 38.4589 68.3979 38.5237C68.5545 38.5885 68.7217 38.6218 68.8911 38.6218H80.5815C80.7509 38.6232 80.9191 38.5906 81.0757 38.5261C81.2322 38.4616 81.3744 38.3665 81.4937 38.2463C81.6129 38.1261 81.7068 37.9835 81.77 37.8264C81.8333 37.6694 81.8645 37.5011 81.8618 37.3318V30.1819C81.8645 30.0116 81.833 29.8425 81.77 29.6843C81.707 29.5262 81.6136 29.3818 81.4946 29.26C81.3756 29.1382 81.2333 29.0415 81.0767 28.9749C80.92 28.9082 80.7518 28.8731 80.5815 28.8718V28.8718Z" fill="#7BC3F1"/>
<path d="M80.5815 52.6726H68.8911C68.7217 52.6726 68.5545 52.7059 68.3979 52.7708C68.2414 52.8356 68.0988 52.9307 67.979 53.0505C67.8592 53.1703 67.7645 53.3125 67.6997 53.469C67.6349 53.6255 67.6011 53.7932 67.6011 53.9626V61.1228C67.6011 61.2922 67.6349 61.4599 67.6997 61.6165C67.7645 61.773 67.8592 61.9151 67.979 62.0349C68.0988 62.1547 68.2414 62.2499 68.3979 62.3147C68.5545 62.3795 68.7217 62.4128 68.8911 62.4128H80.5815C80.7505 62.4128 80.9178 62.3792 81.0737 62.3142C81.2297 62.2493 81.3708 62.1543 81.4897 62.0344C81.6087 61.9145 81.7034 61.7719 81.7671 61.6155C81.8308 61.459 81.8631 61.2917 81.8618 61.1228V53.9827C81.8645 53.6396 81.7315 53.3096 81.4917 53.0642C81.2519 52.8188 80.9246 52.6779 80.5815 52.6726V52.6726Z" fill="#1E54C3"/>
<path d="M80.5815 40.7507H68.8911C68.7217 40.7507 68.5545 40.784 68.3979 40.8489C68.2414 40.9137 68.0988 41.0089 67.979 41.1287C67.8592 41.2484 67.7645 41.3906 67.6997 41.5471C67.6349 41.7036 67.6011 41.8714 67.6011 42.0408V49.1907C67.6011 49.3601 67.6349 49.5278 67.6997 49.6843C67.7645 49.8408 67.8592 49.983 67.979 50.1028C68.0988 50.2226 68.2414 50.3177 68.3979 50.3826C68.5545 50.4474 68.7217 50.4807 68.8911 50.4807H80.5815C80.7509 50.4821 80.9191 50.4495 81.0757 50.385C81.2322 50.3205 81.3744 50.2254 81.4937 50.1052C81.6129 49.985 81.7068 49.8424 81.77 49.6853C81.8333 49.5282 81.8645 49.36 81.8618 49.1907V42.0408C81.8618 41.7004 81.7266 41.3737 81.4868 41.1321C81.2471 40.8904 80.9219 40.7534 80.5815 40.7507V40.7507Z" fill="#2C73D8"/>
<path d="M80.5815 64.5632H68.8911C68.7217 64.5632 68.5545 64.5961 68.3979 64.6609C68.2414 64.7257 68.0988 64.8204 67.979 64.9402C67.8592 65.06 67.7645 65.2026 67.6997 65.3591C67.6349 65.5156 67.6011 65.6829 67.6011 65.8523V73.0125C67.6011 73.1819 67.6349 73.3501 67.6997 73.5066C67.7645 73.6631 67.8592 73.8048 67.979 73.9246C68.0988 74.0443 68.2414 74.14 68.3979 74.2048C68.5545 74.2697 68.7217 74.3025 68.8911 74.3025H80.5815C80.7505 74.3025 80.9178 74.2698 81.0737 74.2048C81.2297 74.1399 81.3708 74.0445 81.4897 73.9246C81.6087 73.8046 81.7034 73.6621 81.7671 73.5056C81.8308 73.3492 81.8631 73.1814 81.8618 73.0125V65.863C81.8619 65.5217 81.7273 65.1942 81.4878 64.9509C81.2483 64.7077 80.9228 64.5685 80.5815 64.5632V64.5632Z" fill="#053F9E"/>
<path opacity="0.15" d="M69.6411 78.5916C70.0124 78.5916 70.3688 78.4439 70.6313 78.1814C70.8939 77.9188 71.0415 77.5634 71.0415 77.1921V30.9216H22.1616V77.2019C22.1616 77.5732 22.3092 77.9296 22.5718 78.1921C22.8343 78.4547 23.1907 78.6013 23.562 78.6013H69.6411V78.5916Z" fill="#1F1D20"/>
<path d="M71.0317 31.3318V30.572C71.0317 30.1238 70.8536 29.6936 70.5366 29.3767C70.2197 29.0598 69.7895 28.8816 69.3413 28.8816H23.8618C23.4127 28.8816 22.9811 29.0596 22.6626 29.3762C22.3441 29.6929 22.1643 30.1229 22.1616 30.572V75.7117C22.1616 75.9349 22.2051 76.1558 22.2905 76.3621C22.376 76.5683 22.5018 76.756 22.6597 76.9138C22.8175 77.0717 23.0052 77.1965 23.2114 77.282C23.4177 77.3674 23.6386 77.4119 23.8618 77.4119H69.3511C69.5743 77.4119 69.7962 77.3674 70.0024 77.282C70.2087 77.1965 70.3954 77.0717 70.5532 76.9138C70.7111 76.756 70.8369 76.5683 70.9224 76.3621C71.0078 76.1558 71.0513 75.9349 71.0513 75.7117V31.4216L71.0317 31.3318Z" fill="white"/>
<path d="M48.9929 40.0278C48.8589 39.7968 48.6665 39.6051 48.4351 39.4718C48.2037 39.3385 47.9413 39.2683 47.6742 39.2683C47.4072 39.2683 47.1448 39.3385 46.9134 39.4718C46.6819 39.6051 46.4896 39.7968 46.3556 40.0278L38.0476 54.356L54.5793 49.6295L48.9929 40.0278Z" fill="url(#paint2_linear_764_1701)"/>
<path d="M38.0476 54.3564L32.5667 63.8083C32.4325 64.0401 32.3616 64.3032 32.3613 64.5711C32.361 64.839 32.4313 65.1022 32.565 65.3343C32.6987 65.5664 32.8912 65.7592 33.123 65.8933C33.3549 66.0275 33.618 66.0982 33.8859 66.0984H61.5004C61.726 66.1001 61.949 66.0511 62.1532 65.9551C62.3573 65.8591 62.5373 65.7185 62.6798 65.5436L38.0476 54.3564Z" fill="url(#paint3_linear_764_1701)"/>
<path d="M38.0464 54.3564H38.0503H38.0464Z" stroke="black" stroke-width="0.0763478" stroke-miterlimit="10"/>
<path d="M62.8174 63.8027L54.5749 49.6299L38.0432 54.3564L62.6743 65.5402C62.8738 65.3004 62.9945 65.005 63.0202 64.6941C63.0458 64.3832 62.975 64.0719 62.8174 63.8027V63.8027Z" fill="url(#paint4_linear_764_1701)"/>
<defs>
<linearGradient id="paint0_linear_764_1701" x1="49.7837" y1="-13.2693" x2="53.7657" y2="132.501" gradientUnits="userSpaceOnUse">
<stop stop-color="#00ABDE"/>
<stop offset="1" stop-color="#007ED8"/>
</linearGradient>
<linearGradient id="paint1_linear_764_1701" x1="2.98794" y1="-20.1024" x2="98.5155" y2="120.779" gradientUnits="userSpaceOnUse">
<stop stop-color="#007ED8"/>
<stop offset="0.7065" stop-color="#002D4C"/>
</linearGradient>
<linearGradient id="paint2_linear_764_1701" x1="40.1679" y1="46.1401" x2="53.3887" y2="49.3277" gradientUnits="userSpaceOnUse">
<stop stop-color="#559AF3"/>
<stop offset="0.76" stop-color="#89D2F0"/>
</linearGradient>
<linearGradient id="paint3_linear_764_1701" x1="33.1969" y1="62.1951" x2="50.422" y2="60.1558" gradientUnits="userSpaceOnUse">
<stop offset="0.18" stop-color="#3E6BD1"/>
<stop offset="0.46" stop-color="#1E54C6"/>
<stop offset="1" stop-color="#194B9D"/>
</linearGradient>
<linearGradient id="paint4_linear_764_1701" x1="33.7172" y1="50.4676" x2="55.2694" y2="56.6253" gradientUnits="userSpaceOnUse">
<stop offset="0.45" stop-color="#2C73D8"/>
<stop offset="1" stop-color="#2C73D8"/>
</linearGradient>
</defs>
</svg>
