<svg width="103" height="103" viewBox="0 0 103 103" fill="none" xmlns="http://www.w3.org/2000/svg">
<path d="M51.4775 98.0853C25.6275 98.0853 4.66748 77.1353 4.66748 51.2753C4.66748 25.4153 25.6275 4.46533 51.4775 4.46533C77.3275 4.46533 98.2875 25.4253 98.2875 51.2753C98.2875 77.1253 77.3275 98.0853 51.4775 98.0853Z" fill="url(#paint0_linear_804_5699)"/>
<path fill-rule="evenodd" clip-rule="evenodd" d="M97.3774 51.2755C97.3774 76.6255 76.8274 97.1755 51.4774 97.1755C26.1274 97.1755 5.5774 76.6255 5.5774 51.2755C5.5774 25.9255 26.1274 5.3755 51.4774 5.3755C76.8274 5.3755 97.3774 25.9255 97.3774 51.2755ZM51.4774 1.6355C78.8974 1.6355 101.117 23.8555 101.117 51.2755C101.117 78.6955 78.8874 100.916 51.4774 100.916C24.0574 100.916 1.8374 78.6855 1.8374 51.2755C1.8374 23.8555 24.0574 1.6355 51.4774 1.6355Z" fill="#F2F1F0"/>
<path fill-rule="evenodd" clip-rule="evenodd" d="M94.5675 51.2753C94.5675 75.0753 75.2775 94.3653 51.4775 94.3653C27.6775 94.3653 8.38746 75.0753 8.38746 51.2753C8.38746 27.4753 27.6775 8.18532 51.4775 8.18532C75.2775 8.18532 94.5675 27.4753 94.5675 51.2753ZM51.4775 4.44531C77.3375 4.44531 98.3075 25.4153 98.3075 51.2753C98.3075 77.1353 77.3375 98.1053 51.4775 98.1053C25.6175 98.1053 4.64746 77.1353 4.64746 51.2753C4.64746 25.4153 25.6075 4.44531 51.4775 4.44531Z" fill="url(#paint1_linear_804_5699)"/>
<path opacity="0.15" d="M86.5029 46.541H74.5559C74.2064 46.541 73.8715 46.6799 73.6243 46.9271C73.3772 47.1742 73.2383 47.5091 73.2383 47.8586V55.1838C73.2383 55.5333 73.3772 55.8687 73.6243 56.1158C73.8715 56.363 74.2064 56.5014 74.5559 56.5014H86.5128C86.8623 56.5014 87.1973 56.363 87.4444 56.1158C87.6915 55.8687 87.8305 55.5333 87.8305 55.1838V47.878C87.8317 47.7029 87.7982 47.5292 87.7321 47.3671C87.6659 47.2049 87.5683 47.0575 87.4449 46.9332C87.3215 46.8089 87.1751 46.7105 87.0134 46.6432C86.8517 46.5759 86.678 46.541 86.5029 46.541V46.541Z" fill="#1F1D20"/>
<path opacity="0.15" d="M86.5029 34.3423H74.5559C74.2064 34.3423 73.8715 34.4808 73.6243 34.7279C73.3772 34.975 73.2383 35.3104 73.2383 35.6599V42.9752C73.2383 43.3247 73.3772 43.6601 73.6243 43.9072C73.8715 44.1543 74.2064 44.2933 74.5559 44.2933H86.5128C86.6863 44.2946 86.8581 44.2611 87.0186 44.1953C87.1791 44.1296 87.3246 44.0327 87.4472 43.9101C87.5699 43.7874 87.6668 43.6414 87.7325 43.4809C87.7983 43.3205 87.8317 43.1486 87.8305 42.9752V35.6405C87.8254 35.2927 87.6831 34.9612 87.4345 34.718C87.1858 34.4747 86.8507 34.3397 86.5029 34.3423V34.3423Z" fill="#1F1D20"/>
<path opacity="0.15" d="M86.5029 58.6904H74.5559C74.2064 58.6904 73.8715 58.8294 73.6243 59.0765C73.3772 59.3236 73.2383 59.6586 73.2383 60.008V67.3332C73.2383 67.6827 73.3772 68.0181 73.6243 68.2653C73.8715 68.5124 74.2064 68.6508 74.5559 68.6508H86.5128C86.8623 68.6508 87.1973 68.5124 87.4444 68.2653C87.6915 68.0181 87.8305 67.6827 87.8305 67.3332V60.018C87.8305 59.6659 87.6905 59.3283 87.4416 59.0793C87.1926 58.8304 86.855 58.6904 86.5029 58.6904V58.6904Z" fill="#1F1D20"/>
<path d="M79.9625 50.1743H66.3296V51.1432H79.9625V50.1743Z" fill="white"/>
<path d="M79.9625 38.1592H66.3296V39.1281H79.9625V38.1592Z" fill="white"/>
<path d="M79.9625 62.4602H66.3296V63.4291H79.9625V62.4602Z" fill="white"/>
<g filter="url(#filter0_d_804_5699)">
<path d="M86.5029 33.4793H74.5559C74.2064 33.4793 73.8715 33.6182 73.6243 33.8653C73.3772 34.1125 73.2383 34.4474 73.2383 34.7969V42.1126C73.2383 42.4621 73.3772 42.7971 73.6243 43.0442C73.8715 43.2913 74.2064 43.4302 74.5559 43.4302H86.5128C86.6863 43.4315 86.8581 43.3981 87.0186 43.3323C87.1791 43.2665 87.3246 43.1696 87.4472 43.047C87.5699 42.9244 87.6668 42.7788 87.7325 42.6184C87.7983 42.4579 87.8317 42.286 87.8305 42.1126V34.7969C87.8305 34.623 87.796 34.4512 87.7292 34.2907C87.6624 34.1302 87.5645 33.984 87.4411 33.8616C87.3177 33.7391 87.1711 33.6424 87.0101 33.5767C86.8491 33.5111 86.6768 33.478 86.5029 33.4793Z" fill="#50E6FF"/>
</g>
<g filter="url(#filter1_d_804_5699)">
<path d="M86.5029 45.6685H74.5559C74.2064 45.6685 73.8715 45.8074 73.6243 46.0545C73.3772 46.3016 73.2383 46.6366 73.2383 46.9861V54.3113C73.2383 54.6607 73.3772 54.9957 73.6243 55.2428C73.8715 55.4899 74.2064 55.6289 74.5559 55.6289H86.5128C86.8623 55.6289 87.1973 55.4899 87.4444 55.2428C87.6915 54.9957 87.8305 54.6607 87.8305 54.3113V47.0055C87.8317 46.8303 87.7982 46.6567 87.7321 46.4945C87.6659 46.3323 87.5683 46.185 87.4449 46.0607C87.3215 45.9364 87.1751 45.8375 87.0134 45.7702C86.8517 45.7029 86.678 45.6685 86.5029 45.6685V45.6685Z" fill="#32B0E7"/>
</g>
<g filter="url(#filter2_d_804_5699)">
<path d="M86.5029 57.8293H74.5559C74.2064 57.8293 73.8715 57.9683 73.6243 58.2154C73.3772 58.4625 73.2383 58.7975 73.2383 59.147V66.4721C73.2383 66.8216 73.3772 67.157 73.6243 67.4042C73.8715 67.6513 74.2064 67.7902 74.5559 67.7902H86.5128C86.8623 67.7902 87.1973 67.6513 87.4444 67.4042C87.6915 67.157 87.8305 66.8216 87.8305 66.4721V59.1569C87.8305 58.8048 87.6905 58.4672 87.4416 58.2182C87.1926 57.9693 86.855 57.8293 86.5029 57.8293V57.8293Z" fill="#1F56A3"/>
</g>
<path opacity="0.15" d="M68.5654 75.2065C69.303 75.2065 69.8976 74.6119 69.8976 73.8743V29.9241H23.4717V73.88C23.4717 74.6176 24.0663 75.2122 24.8039 75.2122H68.5654V75.2065Z" fill="#1F1D20"/>
<g filter="url(#filter3_d_804_5699)">
<path d="M69.8919 30.3191V29.5987C69.8919 28.7067 69.1715 27.9863 68.2796 27.9863H25.084C24.1921 27.9863 23.4717 28.7067 23.4717 29.5987V30.3991V31.1309V72.4683C23.4717 73.3602 24.1921 74.0806 25.084 74.0806H68.291C69.1829 74.0806 69.9033 73.3602 69.9033 72.4683V30.3991C69.9033 30.3705 69.8919 30.3476 69.8919 30.3191Z" fill="white"/>
</g>
<path opacity="0.15" d="M64.924 78.8248C68.9547 78.8248 72.2201 75.5595 72.2201 71.5287C72.2201 67.498 68.9547 64.2327 64.924 64.2327C60.8932 64.2327 57.6279 67.498 57.6279 71.5287C57.6376 75.5595 60.9029 78.8248 64.924 78.8248Z" fill="#1F1D20"/>
<path d="M64.924 78.0011C68.9547 78.0011 72.2201 74.7358 72.2201 70.705C72.2201 66.6742 68.9547 63.4089 64.924 63.4089C60.8932 63.4089 57.6279 66.6742 57.6279 70.705C57.6376 74.7358 60.9029 78.0011 64.924 78.0011Z" fill="#002D4C"/>
<path opacity="0.3" d="M68.8968 67.5173L62.8894 73.5538L61.0872 71.7419L59.8857 72.953L62.8894 75.9664L70.108 68.7285L68.8968 67.5173Z" fill="#1F1D20"/>
<path d="M68.8968 67.0046L62.8894 73.0411L61.0872 71.2292L59.8857 72.4403L62.8894 75.4537L70.108 68.2158L68.8968 67.0046Z" fill="#FAF9F8"/>
<path d="M68.6423 44.5059H56.2012V45.4748H68.6423V44.5059Z" fill="white"/>
<path opacity="0.15" d="M46.2851 47.4341H35.9922C35.3628 47.4341 34.8574 47.9394 34.8574 48.5689V54.8811C34.8574 55.5106 35.3628 56.0159 35.9922 56.0159H46.294C46.9234 56.0159 47.4287 55.5106 47.4287 54.8811V48.5866C47.4287 47.9394 46.9145 47.4341 46.2851 47.4341Z" fill="#1F1D20"/>
<path opacity="0.15" d="M46.2851 36.9197H35.9922C35.3628 36.9197 34.8574 37.425 34.8574 38.0545V44.3579C34.8574 44.9873 35.3628 45.4926 35.9922 45.4926H46.294C46.9234 45.5015 47.4287 44.9962 47.4287 44.3579V38.0545C47.4287 37.4339 46.9145 36.9197 46.2851 36.9197Z" fill="#1F1D20"/>
<path opacity="0.15" d="M46.2851 57.8955H35.9922C35.3628 57.8955 34.8574 58.4008 34.8574 59.0303V65.3426C34.8574 65.972 35.3628 66.4773 35.9922 66.4773H46.294C46.9234 66.4773 47.4287 65.972 47.4287 65.3426V59.0392C47.4287 58.4186 46.9145 57.8955 46.2851 57.8955Z" fill="#1F1D20"/>
<path d="M46.2851 46.6809H35.9922C35.3628 46.6809 34.8574 47.1862 34.8574 47.8157V54.128C34.8574 54.7574 35.3628 55.2627 35.9922 55.2627H46.294C46.9234 55.2627 47.4287 54.7574 47.4287 54.128V47.8334C47.4287 47.1862 46.9145 46.6809 46.2851 46.6809Z" fill="#32B0E7"/>
<path d="M46.2851 36.1836H35.9922C35.3628 36.1836 34.8574 36.6889 34.8574 37.3184V43.6218C34.8574 44.2512 35.3628 44.7566 35.9922 44.7566H46.294C46.9234 44.7654 47.4287 44.2601 47.4287 43.6218V37.3184C47.4287 36.6889 46.9145 36.1836 46.2851 36.1836Z" fill="#50E6FF"/>
<path d="M46.2851 57.1519H35.9922C35.3628 57.1519 34.8574 57.6572 34.8574 58.2866V64.5989C34.8574 65.2284 35.3628 65.7337 35.9922 65.7337H46.294C46.9234 65.7337 47.4287 65.2284 47.4287 64.5989V58.2955C47.4287 57.6749 46.9145 57.1519 46.2851 57.1519Z" fill="#185A97"/>
<path fill-rule="evenodd" clip-rule="evenodd" d="M60.5514 41.1707H50.7373V40.1707H60.5514V41.1707Z" fill="#78787D"/>
<path d="M56.3149 37.7808L61.6697 40.8748L56.3149 43.96V37.7808Z" fill="#78787D"/>
<path fill-rule="evenodd" clip-rule="evenodd" d="M60.5514 61.5881H50.7373V60.5881H60.5514V61.5881Z" fill="#78787D"/>
<path d="M56.3149 58.1985L61.6697 61.2926L56.3149 64.3778V58.1985Z" fill="#78787D"/>
<path fill-rule="evenodd" clip-rule="evenodd" d="M60.5514 51.437H50.7373V50.437H60.5514V51.437Z" fill="#78787D"/>
<path d="M56.3149 48.0474L61.6697 51.1414L56.3149 54.2266V48.0474Z" fill="#78787D"/>
<path d="M41.3604 37.8809H40.6123V43.1821H41.3604V37.8809Z" fill="white"/>
<path d="M43.6418 40.1992H38.3403V40.9381H43.6418V40.1992Z" fill="white"/>
<path d="M41.3604 48.3633H40.6123V53.6645H41.3604V48.3633Z" fill="white"/>
<path d="M43.6418 50.6816H38.3403V51.4205H43.6418V50.6816Z" fill="white"/>
<path d="M41.3604 58.8438H40.6123V64.145H41.3604V58.8438Z" fill="white"/>
<path d="M43.6418 61.1621H38.3403V61.901H43.6418V61.1621Z" fill="white"/>
<path opacity="0.15" d="M30.9104 61.5095V42.9444C30.9104 42.3788 30.4491 41.9175 29.8835 41.9175H12.4376C11.872 41.9175 11.4106 42.3788 11.4106 42.9444V61.5095C11.4106 62.0751 11.872 62.5365 12.4376 62.5365H29.8835C30.4491 62.5365 30.9104 62.0751 30.9104 61.5095Z" fill="#1F1D20"/>
<g filter="url(#filter4_d_804_5699)">
<path d="M30.9103 61.471V41.8589C30.9103 41.5821 30.6857 41.3574 30.4089 41.3574H11.916C11.6392 41.3574 11.4146 41.5821 11.4146 41.8589V61.4669C11.4146 61.7437 11.6392 61.9684 11.916 61.9684H30.4089C30.6857 61.9724 30.9103 61.7477 30.9103 61.471Z" fill="white"/>
</g>
<path opacity="0.15" d="M24.5895 60.229L15.0435 59.0779L17.1881 57.8599L27.3647 58.7626L24.5895 60.229Z" fill="#1F1D20"/>
<path d="M18.7476 50.203L18.2007 50.1648L18.4562 46.5681C18.5756 44.8843 19.9919 43.5564 21.6804 43.5469C21.6876 43.5469 21.6924 43.5469 21.6995 43.5469C23.4549 43.5469 24.9118 44.9703 24.95 46.7281L25.024 50.1171L24.4747 50.129L24.4007 46.74C24.3696 45.2784 23.1588 44.0962 21.6995 44.0962C21.6948 44.0962 21.69 44.0962 21.6852 44.0962C20.2809 44.1033 19.1035 45.2067 19.0055 46.6063L18.7476 50.203Z" fill="#767778"/>
<path d="M23.0728 50.3284L22.982 46.5811C22.9486 45.1912 21.8762 44.0711 20.4886 43.9755C19.765 43.9254 19.0724 44.1642 18.5302 44.6419C17.9905 45.1219 17.6704 45.7835 17.6322 46.5047L17.4531 49.9104L16.9038 49.8818L17.0829 46.4761C17.1283 45.6067 17.5128 44.809 18.1648 44.2311C18.8168 43.6531 19.6527 43.3665 20.5245 43.4262C22.1963 43.5409 23.4883 44.8902 23.5289 46.5668L23.6197 50.314L23.0728 50.3284Z" fill="#4C4C4C"/>
<path fill-rule="evenodd" clip-rule="evenodd" d="M24.5895 59.6395L15.022 58.5576L15.4734 47.9966H24.5895V59.6395Z" fill="url(#paint2_linear_804_5699)"/>
<path fill-rule="evenodd" clip-rule="evenodd" d="M24.5894 59.6395L27.2977 58.3761L26.8463 47.9966H24.5894V59.6395Z" fill="url(#paint3_linear_804_5699)"/>
<path opacity="0.25" d="M23.7179 54.2163C23.7227 54.1972 23.7251 54.1828 23.7323 54.1661C23.7609 54.0634 23.7753 53.9535 23.7824 53.8437C23.835 52.8836 23.1018 52.0668 22.1464 52.0143C22.0127 52.0071 21.8813 52.0143 21.7548 52.0357C21.3941 51.3885 20.7206 50.9347 19.9277 50.8918C18.6954 50.8225 17.6421 51.7683 17.5729 52.9982C17.5705 53.0293 17.5705 53.0579 17.5681 53.089C17.4606 53.046 17.3412 53.0173 17.2146 53.0102C16.608 52.9767 16.0873 53.4425 16.0539 54.0491C16.0229 54.6199 16.4289 55.1119 16.9806 55.1978L21.9482 55.4844C22.6026 55.5203 23.1877 55.1931 23.5149 54.6796C23.5245 54.6653 23.5317 54.6509 23.5436 54.6342C23.5914 54.5387 23.6654 54.4002 23.7179 54.2163Z" fill="#1F1D20"/>
<path d="M23.7179 54.0139C23.7227 53.9948 23.7251 53.9804 23.7323 53.9637C23.7609 53.861 23.7753 53.7512 23.7824 53.6413C23.835 52.6812 23.1018 51.8644 22.1464 51.8119C22.0127 51.8047 21.8813 51.8119 21.7548 51.8334C21.3941 51.1861 20.7206 50.7324 19.9277 50.6894C18.6954 50.6201 17.6421 51.5659 17.5729 52.7958C17.5705 52.8269 17.5705 52.8555 17.5681 52.8866C17.4606 52.8436 17.3412 52.8149 17.2146 52.8078C16.608 52.7743 16.0873 53.2401 16.0539 53.8467C16.0229 54.4175 16.4289 54.9095 16.9806 54.9955L21.9482 55.282C22.6026 55.3179 23.1877 54.9907 23.5149 54.4772C23.5245 54.4629 23.5317 54.4485 23.5436 54.4318C23.5914 54.3363 23.6654 54.1978 23.7179 54.0139Z" fill="white"/>
<defs>
<filter id="filter0_d_804_5699" x="69.2383" y="31.4792" width="22.5923" height="17.9509" filterUnits="userSpaceOnUse" color-interpolation-filters="sRGB">
<feFlood flood-opacity="0" result="BackgroundImageFix"/>
<feColorMatrix in="SourceAlpha" type="matrix" values="0 0 0 0 0 0 0 0 0 0 0 0 0 0 0 0 0 0 127 0" result="hardAlpha"/>
<feOffset dy="2"/>
<feGaussianBlur stdDeviation="2"/>
<feComposite in2="hardAlpha" operator="out"/>
<feColorMatrix type="matrix" values="0 0 0 0 0 0 0 0 0 0 0 0 0 0 0 0 0 0 0.25 0"/>
<feBlend mode="normal" in2="BackgroundImageFix" result="effect1_dropShadow_804_5699"/>
<feBlend mode="normal" in="SourceGraphic" in2="effect1_dropShadow_804_5699" result="shape"/>
</filter>
<filter id="filter1_d_804_5699" x="69.2383" y="43.6685" width="22.5923" height="17.9604" filterUnits="userSpaceOnUse" color-interpolation-filters="sRGB">
<feFlood flood-opacity="0" result="BackgroundImageFix"/>
<feColorMatrix in="SourceAlpha" type="matrix" values="0 0 0 0 0 0 0 0 0 0 0 0 0 0 0 0 0 0 127 0" result="hardAlpha"/>
<feOffset dy="2"/>
<feGaussianBlur stdDeviation="2"/>
<feComposite in2="hardAlpha" operator="out"/>
<feColorMatrix type="matrix" values="0 0 0 0 0 0 0 0 0 0 0 0 0 0 0 0 0 0 0.25 0"/>
<feBlend mode="normal" in2="BackgroundImageFix" result="effect1_dropShadow_804_5699"/>
<feBlend mode="normal" in="SourceGraphic" in2="effect1_dropShadow_804_5699" result="shape"/>
</filter>
<filter id="filter2_d_804_5699" x="69.2383" y="55.8293" width="22.5923" height="17.9609" filterUnits="userSpaceOnUse" color-interpolation-filters="sRGB">
<feFlood flood-opacity="0" result="BackgroundImageFix"/>
<feColorMatrix in="SourceAlpha" type="matrix" values="0 0 0 0 0 0 0 0 0 0 0 0 0 0 0 0 0 0 127 0" result="hardAlpha"/>
<feOffset dy="2"/>
<feGaussianBlur stdDeviation="2"/>
<feComposite in2="hardAlpha" operator="out"/>
<feColorMatrix type="matrix" values="0 0 0 0 0 0 0 0 0 0 0 0 0 0 0 0 0 0 0.25 0"/>
<feBlend mode="normal" in2="BackgroundImageFix" result="effect1_dropShadow_804_5699"/>
<feBlend mode="normal" in="SourceGraphic" in2="effect1_dropShadow_804_5699" result="shape"/>
</filter>
<filter id="filter3_d_804_5699" x="19.4717" y="27.9863" width="54.4316" height="54.0942" filterUnits="userSpaceOnUse" color-interpolation-filters="sRGB">
<feFlood flood-opacity="0" result="BackgroundImageFix"/>
<feColorMatrix in="SourceAlpha" type="matrix" values="0 0 0 0 0 0 0 0 0 0 0 0 0 0 0 0 0 0 127 0" result="hardAlpha"/>
<feOffset dy="4"/>
<feGaussianBlur stdDeviation="2"/>
<feComposite in2="hardAlpha" operator="out"/>
<feColorMatrix type="matrix" values="0 0 0 0 0 0 0 0 0 0 0 0 0 0 0 0 0 0 0.25 0"/>
<feBlend mode="normal" in2="BackgroundImageFix" result="effect1_dropShadow_804_5699"/>
<feBlend mode="normal" in="SourceGraphic" in2="effect1_dropShadow_804_5699" result="shape"/>
</filter>
<filter id="filter4_d_804_5699" x="7.41455" y="39.3574" width="27.4956" height="28.6111" filterUnits="userSpaceOnUse" color-interpolation-filters="sRGB">
<feFlood flood-opacity="0" result="BackgroundImageFix"/>
<feColorMatrix in="SourceAlpha" type="matrix" values="0 0 0 0 0 0 0 0 0 0 0 0 0 0 0 0 0 0 127 0" result="hardAlpha"/>
<feOffset dy="2"/>
<feGaussianBlur stdDeviation="2"/>
<feComposite in2="hardAlpha" operator="out"/>
<feColorMatrix type="matrix" values="0 0 0 0 0 0 0 0 0 0 0 0 0 0 0 0 0 0 0.25 0"/>
<feBlend mode="normal" in2="BackgroundImageFix" result="effect1_dropShadow_804_5699"/>
<feBlend mode="normal" in="SourceGraphic" in2="effect1_dropShadow_804_5699" result="shape"/>
</filter>
<linearGradient id="paint0_linear_804_5699" x1="49.7036" y1="-13.5142" x2="53.6856" y2="132.256" gradientUnits="userSpaceOnUse">
<stop stop-color="#00ABDE"/>
<stop offset="1" stop-color="#007ED8"/>
</linearGradient>
<linearGradient id="paint1_linear_804_5699" x1="2.90786" y1="-20.3473" x2="98.4354" y2="120.534" gradientUnits="userSpaceOnUse">
<stop stop-color="#007ED8"/>
<stop offset="0.7065" stop-color="#002D4C"/>
</linearGradient>
<linearGradient id="paint2_linear_804_5699" x1="19.7645" y1="45.3405" x2="19.5854" y2="63.5513" gradientUnits="userSpaceOnUse">
<stop offset="0.244792" stop-color="#0965BA"/>
<stop offset="0.479167" stop-color="#15548F"/>
<stop offset="0.692708" stop-color="#243A5E"/>
<stop offset="0.9677" stop-color="#1A2C45"/>
</linearGradient>
<linearGradient id="paint3_linear_804_5699" x1="25.7351" y1="35.668" x2="25.2757" y2="63.1186" gradientUnits="userSpaceOnUse">
<stop offset="0.244792" stop-color="#0965BA"/>
<stop offset="0.479167" stop-color="#15548F"/>
<stop offset="0.692708" stop-color="#243A5E"/>
<stop offset="0.9677" stop-color="#1A2C45"/>
</linearGradient>
</defs>
</svg>
