<svg width="103" height="103" viewBox="0 0 103 103" fill="none" xmlns="http://www.w3.org/2000/svg">
<path d="M51.4775 98.681C25.6275 98.681 4.66748 77.731 4.66748 51.871C4.66748 26.011 25.6275 5.06104 51.4775 5.06104C77.3275 5.06104 98.2875 26.021 98.2875 51.871C98.2875 77.721 77.3275 98.681 51.4775 98.681Z" fill="url(#paint0_linear_804_5767)"/>
<path fill-rule="evenodd" clip-rule="evenodd" d="M97.3774 51.8712C97.3774 77.2212 76.8274 97.7712 51.4774 97.7712C26.1274 97.7712 5.5774 77.2212 5.5774 51.8712C5.5774 26.5212 26.1274 5.97121 51.4774 5.97121C76.8274 5.97121 97.3774 26.5212 97.3774 51.8712ZM51.4774 2.2312C78.8974 2.2312 101.117 24.4512 101.117 51.8712C101.117 79.2912 78.8874 101.511 51.4774 101.511C24.0574 101.511 1.8374 79.2812 1.8374 51.8712C1.8374 24.4512 24.0574 2.2312 51.4774 2.2312Z" fill="#F2F1F0"/>
<path fill-rule="evenodd" clip-rule="evenodd" d="M94.5675 51.8711C94.5675 75.6711 75.2775 94.9611 51.4775 94.9611C27.6775 94.9611 8.38746 75.6711 8.38746 51.8711C8.38746 28.0711 27.6775 8.78114 51.4775 8.78114C75.2775 8.78114 94.5675 28.0711 94.5675 51.8711ZM51.4775 5.04114C77.3375 5.04114 98.3075 26.0111 98.3075 51.8711C98.3075 77.7311 77.3375 98.7012 51.4775 98.7012C25.6175 98.7012 4.64746 77.7311 4.64746 51.8711C4.64746 26.0111 25.6075 5.04114 51.4775 5.04114Z" fill="url(#paint1_linear_804_5767)"/>
<path opacity="0.15" d="M22.6724 79.6764H80.2724C81.8824 79.6764 83.1924 78.3664 83.1924 76.7564V30.8164H19.7524V76.7564C19.7524 78.3664 21.0624 79.6764 22.6724 79.6764Z" fill="#1F1D20"/>
<g filter="url(#filter0_d_804_5767)">
<path d="M20.9624 77.0065H81.9924C82.6624 77.0065 83.2024 76.4665 83.2024 75.7965V28.1465H19.7524V75.7965C19.7524 76.4665 20.2924 77.0065 20.9624 77.0065Z" fill="#EBEBEB"/>
</g>
<path d="M19.7524 33.4264H83.2024V27.7364C83.2024 27.2264 82.7924 26.8164 82.2824 26.8164H20.6724C20.1624 26.8164 19.7524 27.2264 19.7524 27.7364V33.4264Z" fill="#092E4C"/>
<path d="M24.6325 31.8565C25.5225 31.8565 26.2425 31.1365 26.2425 30.2465C26.2425 29.3465 25.5025 28.6465 24.6325 28.6465C23.7425 28.6465 23.0225 29.3665 23.0225 30.2565C23.0225 31.1565 23.7225 31.8565 24.6325 31.8565Z" fill="#01A1DD"/>
<path d="M61.8835 53.4602C61.6697 51.5355 60.0246 50.0221 58.0341 50.0221C56.0601 50.0221 54.4315 51.5026 54.1848 53.4109C54.1519 53.5425 54.1519 53.6905 54.1519 53.8221C54.2012 54.365 54.5796 54.8914 55.2869 55.3027C56.8004 56.1745 59.2679 56.1745 60.7649 55.3027C61.4723 54.8914 61.8342 54.365 61.8835 53.8221C61.9164 53.707 61.9 53.5754 61.8835 53.4602Z" fill="url(#paint2_radial_804_5767)"/>
<path d="M58.0343 49.6429C59.3154 49.6429 60.3538 48.6044 60.3538 47.3234C60.3538 46.0424 59.3154 45.0039 58.0343 45.0039C56.7533 45.0039 55.7148 46.0424 55.7148 47.3234C55.7148 48.6044 56.7533 49.6429 58.0343 49.6429Z" fill="url(#paint3_radial_804_5767)"/>
<path d="M70.5178 53.4602C70.304 51.5355 68.6589 50.0221 66.6684 50.0221C64.6944 50.0221 63.0658 51.5026 62.819 53.4109C62.7861 53.5425 62.7861 53.6905 62.7861 53.8221C62.8355 54.365 63.2138 54.8914 63.9212 55.3027C65.4346 56.1745 67.9022 56.1745 69.3992 55.3027C70.1065 54.8914 70.4685 54.365 70.5178 53.8221C70.5507 53.707 70.5343 53.5754 70.5178 53.4602Z" fill="url(#paint4_radial_804_5767)"/>
<path d="M66.6686 49.6429C67.9496 49.6429 68.9881 48.6044 68.9881 47.3234C68.9881 46.0424 67.9496 45.0039 66.6686 45.0039C65.3876 45.0039 64.3491 46.0424 64.3491 47.3234C64.3491 48.6044 65.3876 49.6429 66.6686 49.6429Z" fill="url(#paint5_radial_804_5767)"/>
<path d="M79.0025 53.4768L79.0024 53.4768L79.0031 53.4814C79.0072 53.5104 79.0111 53.5387 79.0142 53.5669L79.1633 53.5506C79.1699 53.6106 79.1734 53.6726 79.1678 53.7326L79.0185 53.7188C79.0164 53.7417 79.0127 53.7624 79.0074 53.7809L79.0035 53.7945L79.0022 53.8086C78.9957 53.8797 78.9833 53.9505 78.9647 54.021L79.1097 54.0593C79.0702 54.2089 79.0059 54.3562 78.9161 54.4989L78.7891 54.419C78.7152 54.5365 78.6215 54.652 78.5068 54.7639L78.6115 54.8713C78.5034 54.9768 78.3787 55.0781 78.2372 55.1743L78.1529 55.0503C78.0913 55.0921 78.0263 55.1331 77.9576 55.173L77.9575 55.173C77.8799 55.2182 77.7994 55.2611 77.7163 55.3016L77.782 55.4364C77.6151 55.5177 77.4387 55.5895 77.2551 55.6517L77.2069 55.5097C77.0356 55.5677 76.8574 55.6174 76.6742 55.6585L76.707 55.8049C76.524 55.8459 76.3365 55.8787 76.1463 55.9031L76.1272 55.7543C75.9446 55.7777 75.7592 55.7933 75.5728 55.801L75.579 55.9508C75.3896 55.9586 75.1993 55.9585 75.0097 55.9503L75.0161 55.8005C74.8299 55.7925 74.6446 55.7766 74.4618 55.753L74.4425 55.9017C74.2525 55.8771 74.065 55.8442 73.8819 55.8029L73.9148 55.6566C73.7317 55.6154 73.5535 55.5657 73.3819 55.5077L73.3338 55.6498C73.1503 55.5878 72.9738 55.5163 72.8065 55.4355L72.8718 55.3004C72.7886 55.2602 72.7079 55.2177 72.6301 55.1728C72.5612 55.1328 72.4958 55.0917 72.4338 55.0497L72.3497 55.1739C72.2076 55.0778 72.0818 54.9764 71.9721 54.871L72.0761 54.7629C71.9597 54.6511 71.8641 54.5357 71.7884 54.4184L71.6624 54.4998C71.5703 54.3571 71.5038 54.2099 71.463 54.0602L71.6078 54.0208C71.5891 53.9525 71.5766 53.8839 71.5699 53.8151C71.5699 53.7837 71.57 53.7525 71.5705 53.7211L71.4205 53.7187C71.4215 53.6506 71.4246 53.5805 71.4338 53.5125L71.5824 53.5324C71.5865 53.5023 71.5917 53.4739 71.5983 53.4473L71.6005 53.4388L71.6016 53.4301C71.6132 53.3405 71.6279 53.2519 71.6457 53.1644L71.4987 53.1345C71.5363 52.9499 71.5869 52.77 71.6496 52.5957L71.7907 52.6465C71.8519 52.4767 71.9249 52.3124 72.0089 52.1549L71.8765 52.0843C71.9647 51.919 72.0643 51.7607 72.1745 51.6106L72.2954 51.6994C72.4018 51.5545 72.5184 51.4174 72.644 51.2894L72.537 51.1844C72.6677 51.0512 72.8079 50.9274 72.9565 50.8141L73.0475 50.9334C73.1899 50.8248 73.3403 50.7262 73.4977 50.6387L73.4248 50.5076C73.5871 50.4174 73.7566 50.3384 73.9322 50.2719L73.9854 50.4122C74.1518 50.3491 74.3239 50.2976 74.5007 50.2588L74.4685 50.1123C74.6487 50.0726 74.8336 50.0456 75.0222 50.0321L75.0329 50.1817C75.1218 50.1753 75.2116 50.1721 75.3022 50.1721C75.3935 50.1721 75.484 50.1754 75.5737 50.1819L75.5845 50.0323C75.7747 50.0461 75.9611 50.0737 76.1427 50.1141L76.1101 50.2606C76.2883 50.3002 76.4616 50.3527 76.6292 50.4169L76.6829 50.2768C76.8597 50.3446 77.0303 50.4249 77.1935 50.5167L77.12 50.6475C77.2783 50.7365 77.4294 50.8367 77.5724 50.947L77.664 50.8282C77.8132 50.9434 77.9539 51.0691 78.0847 51.2042L77.977 51.3086C78.1028 51.4386 78.2193 51.5776 78.3253 51.7245L78.447 51.6368C78.5569 51.7891 78.6559 51.9496 78.743 52.1171L78.6099 52.1863C78.693 52.3461 78.7647 52.5125 78.824 52.6844L78.9658 52.6354C79.0268 52.8119 79.0752 52.9941 79.1101 53.1808L78.9626 53.2084C78.9791 53.2968 78.9925 53.3863 79.0025 53.4768Z" fill="white" stroke="#0078D4" stroke-width="0.3" stroke-dasharray="0.6 0.6"/>
<path d="M77.6023 47.0205C77.5756 46.8159 77.5223 46.6197 77.4459 46.4355L77.3074 46.493C77.2342 46.3167 77.1385 46.1521 77.0238 46.0027L77.1427 45.9113C77.0192 45.7506 76.8752 45.6066 76.7145 45.4831L76.6231 45.6021C76.4738 45.4873 76.3091 45.3916 76.1328 45.3185L76.1903 45.1799C76.0061 45.1035 75.8099 45.0502 75.6054 45.0235L75.586 45.1723C75.4932 45.1602 75.3986 45.1539 75.3024 45.1539C75.2062 45.1539 75.1116 45.1602 75.0189 45.1723L74.9995 45.0235C74.7949 45.0502 74.5987 45.1035 74.4145 45.1799L74.472 45.3185C74.2957 45.3916 74.1311 45.4873 73.9817 45.6021L73.8903 45.4831C73.7297 45.6066 73.5856 45.7506 73.4621 45.9113L73.5811 46.0027C73.4663 46.1521 73.3706 46.3167 73.2975 46.493L73.1589 46.4355C73.0825 46.6197 73.0292 46.8159 73.0025 47.0205L73.1513 47.0399C73.1392 47.1326 73.1329 47.2272 73.1329 47.3234C73.1329 47.4196 73.1392 47.5142 73.1513 47.607L73.0025 47.6264C73.0292 47.8309 73.0825 48.0271 73.1589 48.2113L73.2975 48.1538C73.3706 48.3301 73.4663 48.4948 73.5811 48.6441L73.4621 48.7355C73.5856 48.8962 73.7297 49.0402 73.8903 49.1637L73.9817 49.0448C74.1311 49.1595 74.2957 49.2552 74.472 49.3283L74.4145 49.4669C74.5987 49.5433 74.7949 49.5966 74.9995 49.6233L75.0189 49.4746C75.1116 49.4867 75.2062 49.4929 75.3024 49.4929C75.3986 49.4929 75.4932 49.4867 75.586 49.4746L75.6054 49.6233C75.8099 49.5966 76.0061 49.5433 76.1903 49.4669L76.1328 49.3283C76.3091 49.2552 76.4738 49.1595 76.6231 49.0448L76.7145 49.1637C76.8752 49.0402 77.0192 48.8962 77.1427 48.7355L77.0238 48.6441C77.1385 48.4948 77.2342 48.3301 77.3074 48.1538L77.4459 48.2113C77.5223 48.0271 77.5756 47.8309 77.6023 47.6264L77.4536 47.607C77.4657 47.5142 77.4719 47.4196 77.4719 47.3234C77.4719 47.2272 77.4657 47.1326 77.4536 47.0399L77.6023 47.0205Z" fill="white" stroke="#0078D4" stroke-width="0.3" stroke-dasharray="0.6 0.6"/>
<path d="M61.8835 67.1087C61.6697 65.184 60.0246 63.6705 58.0341 63.6705C56.0601 63.6705 54.4315 65.1511 54.1848 67.0593C54.1519 67.1909 54.1519 67.339 54.1519 67.4706C54.2012 68.0134 54.5796 68.5398 55.2869 68.9511C56.8004 69.823 59.2679 69.823 60.7649 68.9511C61.4723 68.5398 61.8342 68.0134 61.8835 67.4706C61.9164 67.3554 61.9 67.2238 61.8835 67.1087Z" fill="url(#paint6_radial_804_5767)"/>
<path d="M58.0343 63.2913C59.3154 63.2913 60.3538 62.2529 60.3538 60.9718C60.3538 59.6908 59.3154 58.6523 58.0343 58.6523C56.7533 58.6523 55.7148 59.6908 55.7148 60.9718C55.7148 62.2529 56.7533 63.2913 58.0343 63.2913Z" fill="url(#paint7_radial_804_5767)"/>
<path d="M70.3687 67.1252L70.3687 67.1252L70.3693 67.1299C70.3734 67.1588 70.3773 67.1871 70.3804 67.2153L70.5295 67.1991C70.5361 67.2591 70.5396 67.321 70.5341 67.381L70.3847 67.3672C70.3826 67.3902 70.3789 67.4108 70.3736 67.4294L70.3697 67.4429L70.3684 67.457C70.362 67.5281 70.3495 67.599 70.3309 67.6694L70.4759 67.7077C70.4364 67.8574 70.3721 68.0046 70.2823 68.1473L70.1553 68.0674C70.0814 68.1849 69.9878 68.3005 69.873 68.4123L69.9777 68.5197C69.8696 68.6252 69.7449 68.7266 69.6034 68.8228L69.5191 68.6987C69.4575 68.7406 69.3925 68.7815 69.3238 68.8214L69.3237 68.8215C69.2461 68.8667 69.1656 68.9095 69.0825 68.95L69.1482 69.0849C68.9813 69.1662 68.8049 69.2379 68.6213 69.3002L68.5731 69.1581C68.4018 69.2162 68.2236 69.2658 68.0404 69.3069L68.0732 69.4533C67.8902 69.4944 67.7027 69.5271 67.5125 69.5515L67.4934 69.4027C67.3108 69.4261 67.1254 69.4417 66.9391 69.4494L66.9452 69.5993C66.7558 69.6071 66.5655 69.6069 66.3759 69.5988L66.3824 69.4489C66.1961 69.4409 66.0108 69.4251 65.828 69.4014L65.8087 69.5502C65.6187 69.5255 65.4312 69.4926 65.2481 69.4514L65.2811 69.305C65.0979 69.2638 64.9197 69.2142 64.7481 69.1562L64.7001 69.2983C64.5165 69.2362 64.34 69.1648 64.1727 69.0839L64.238 68.9488C64.1548 68.9086 64.0742 68.8661 63.9963 68.8212C63.9274 68.7812 63.862 68.7401 63.8 68.6981L63.7159 68.8223C63.5738 68.7262 63.448 68.6249 63.3383 68.5195L63.4423 68.4113C63.326 68.2995 63.2304 68.1841 63.1546 68.0668L63.0286 68.1482C62.9365 68.0055 62.87 67.8583 62.8292 67.7087L62.974 67.6692C62.9553 67.6009 62.9428 67.5323 62.9361 67.4636C62.9361 67.4322 62.9362 67.401 62.9367 67.3695L62.7867 67.3672C62.7877 67.2991 62.7908 67.229 62.8 67.1609L62.9486 67.1808C62.9527 67.1508 62.9579 67.1223 62.9646 67.0957L62.9667 67.0872L62.9678 67.0785C62.9794 66.989 62.9941 66.9004 63.0119 66.8129L62.8649 66.783C62.9025 66.5983 62.9531 66.4184 63.0158 66.2442L63.157 66.295C63.2181 66.1251 63.2911 65.9609 63.3751 65.8033L63.2427 65.7327C63.3309 65.5674 63.4305 65.4092 63.5407 65.2591L63.6616 65.3478C63.768 65.2029 63.8846 65.0659 64.0102 64.9379L63.9032 64.8328C64.0339 64.6996 64.1742 64.5758 64.3228 64.4625L64.4137 64.5818C64.5561 64.4732 64.7065 64.3747 64.8639 64.2872L64.791 64.1561C64.9534 64.0658 65.1229 63.9869 65.2984 63.9203L65.3516 64.0606C65.518 63.9975 65.6901 63.9461 65.8669 63.9072L65.8347 63.7607C66.0149 63.7211 66.1998 63.694 66.3884 63.6805L66.3991 63.8301C66.488 63.8238 66.5778 63.8205 66.6684 63.8205C66.7597 63.8205 66.8503 63.8238 66.9399 63.8303L66.9508 63.6807C67.1409 63.6945 67.3273 63.7222 67.5089 63.7626L67.4764 63.909C67.6545 63.9486 67.8278 64.0011 67.9954 64.0653L68.0491 63.9253C68.2259 63.993 68.3965 64.0734 68.5598 64.1652L68.4862 64.2959C68.6445 64.3849 68.7956 64.4851 68.9386 64.5954L69.0302 64.4767C69.1795 64.5918 69.3201 64.7175 69.4509 64.8527L69.3432 64.957C69.469 65.087 69.5855 65.226 69.6915 65.373L69.8132 65.2852C69.9231 65.4375 70.0221 65.598 70.1092 65.7656L69.9761 65.8348C70.0592 65.9945 70.1309 66.1609 70.1903 66.3328L70.332 66.2839C70.393 66.4604 70.4414 66.6425 70.4763 66.8293L70.3288 66.8568C70.3453 66.9452 70.3587 67.0348 70.3687 67.1252Z" fill="white" stroke="#0078D4" stroke-width="0.3" stroke-dasharray="0.6 0.6"/>
<path d="M68.9685 60.6689C68.9418 60.4643 68.8885 60.2682 68.8121 60.084L68.6736 60.1414C68.6005 59.9651 68.5047 59.8005 68.39 59.6512L68.5089 59.5598C68.3854 59.3991 68.2414 59.255 68.0807 59.1316L67.9893 59.2505C67.84 59.1357 67.6753 59.04 67.499 58.9669L67.5565 58.8283C67.3723 58.752 67.1761 58.6986 66.9716 58.6719L66.9522 58.8207C66.8594 58.8086 66.7648 58.8023 66.6686 58.8023C66.5725 58.8023 66.4778 58.8086 66.3851 58.8207L66.3657 58.6719C66.1611 58.6986 65.9649 58.752 65.7807 58.8283L65.8382 58.9669C65.6619 59.04 65.4973 59.1357 65.3479 59.2505L65.2565 59.1316C65.0959 59.255 64.9518 59.3991 64.8283 59.5598L64.9473 59.6512C64.8325 59.8005 64.7368 59.9651 64.6637 60.1414L64.5251 60.084C64.4487 60.2682 64.3954 60.4643 64.3687 60.6689L64.5175 60.6883C64.5054 60.781 64.4991 60.8757 64.4991 60.9718C64.4991 61.068 64.5054 61.1627 64.5175 61.2554L64.3687 61.2748C64.3954 61.4793 64.4487 61.6755 64.5251 61.8597L64.6637 61.8023C64.7368 61.9786 64.8325 62.1432 64.9473 62.2925L64.8283 62.3839C64.9518 62.5446 65.0959 62.6887 65.2565 62.8121L65.3479 62.6932C65.4973 62.808 65.6619 62.9037 65.8382 62.9768L65.7807 63.1153C65.9649 63.1917 66.1611 63.2451 66.3657 63.2717L66.3851 63.123C66.4778 63.1351 66.5725 63.1413 66.6686 63.1413C66.7648 63.1413 66.8594 63.1351 66.9522 63.123L66.9716 63.2717C67.1761 63.2451 67.3723 63.1917 67.5565 63.1153L67.499 62.9768C67.6753 62.9037 67.84 62.808 67.9893 62.6932L68.0807 62.8121C68.2414 62.6887 68.3854 62.5446 68.5089 62.3839L68.39 62.2925C68.5047 62.1432 68.6005 61.9786 68.6736 61.8023L68.8121 61.8597C68.8885 61.6755 68.9418 61.4793 68.9685 61.2748L68.8198 61.2554C68.8319 61.1627 68.8381 61.068 68.8381 60.9718C68.8381 60.8757 68.8319 60.781 68.8198 60.6883L68.9685 60.6689Z" fill="white" stroke="#0078D4" stroke-width="0.3" stroke-dasharray="0.6 0.6"/>
<path d="M79.0025 67.1252L79.0024 67.1252L79.0031 67.1299C79.0072 67.1588 79.0111 67.1871 79.0142 67.2153L79.1633 67.1991C79.1699 67.2591 79.1734 67.321 79.1678 67.381L79.0185 67.3672C79.0164 67.3902 79.0127 67.4108 79.0074 67.4294L79.0035 67.4429L79.0022 67.457C78.9957 67.5281 78.9833 67.599 78.9647 67.6694L79.1097 67.7077C79.0702 67.8574 79.0059 68.0046 78.9161 68.1473L78.7891 68.0674C78.7152 68.1849 78.6215 68.3005 78.5068 68.4123L78.6115 68.5197C78.5034 68.6252 78.3787 68.7266 78.2372 68.8228L78.1529 68.6987C78.0913 68.7406 78.0263 68.7815 77.9576 68.8214L77.9575 68.8215C77.8799 68.8667 77.7994 68.9095 77.7163 68.95L77.782 69.0849C77.6151 69.1662 77.4387 69.2379 77.2551 69.3002L77.2069 69.1581C77.0356 69.2162 76.8574 69.2658 76.6742 69.3069L76.707 69.4533C76.524 69.4944 76.3365 69.5271 76.1463 69.5515L76.1272 69.4027C75.9446 69.4261 75.7592 69.4417 75.5728 69.4494L75.579 69.5993C75.3896 69.6071 75.1993 69.6069 75.0097 69.5988L75.0161 69.4489C74.8299 69.4409 74.6446 69.4251 74.4618 69.4014L74.4425 69.5502C74.2525 69.5255 74.065 69.4926 73.8819 69.4514L73.9148 69.305C73.7317 69.2638 73.5535 69.2142 73.3819 69.1562L73.3338 69.2983C73.1503 69.2362 72.9738 69.1648 72.8065 69.0839L72.8718 68.9488C72.7886 68.9086 72.7079 68.8661 72.6301 68.8212C72.5612 68.7812 72.4958 68.7401 72.4338 68.6981L72.3497 68.8223C72.2076 68.7262 72.0818 68.6249 71.9721 68.5195L72.0761 68.4113C71.9597 68.2995 71.8641 68.1841 71.7884 68.0668L71.6624 68.1482C71.5703 68.0055 71.5038 67.8583 71.463 67.7087L71.6078 67.6692C71.5891 67.6009 71.5766 67.5323 71.5699 67.4636C71.5699 67.4322 71.57 67.401 71.5705 67.3695L71.4205 67.3672C71.4215 67.2991 71.4246 67.229 71.4338 67.1609L71.5824 67.1808C71.5865 67.1508 71.5917 67.1223 71.5983 67.0957L71.6005 67.0872L71.6016 67.0785C71.6132 66.989 71.6279 66.9004 71.6457 66.8129L71.4987 66.783C71.5363 66.5983 71.5869 66.4184 71.6496 66.2442L71.7907 66.295C71.8519 66.1251 71.9249 65.9609 72.0089 65.8033L71.8765 65.7327C71.9647 65.5674 72.0643 65.4092 72.1745 65.2591L72.2954 65.3478C72.4018 65.2029 72.5184 65.0659 72.644 64.9379L72.537 64.8328C72.6677 64.6996 72.8079 64.5758 72.9565 64.4625L73.0475 64.5818C73.1899 64.4732 73.3403 64.3747 73.4977 64.2872L73.4248 64.1561C73.5871 64.0658 73.7566 63.9869 73.9322 63.9203L73.9854 64.0606C74.1518 63.9975 74.3239 63.9461 74.5007 63.9072L74.4685 63.7607C74.6487 63.7211 74.8336 63.694 75.0222 63.6805L75.0329 63.8301C75.1218 63.8238 75.2116 63.8205 75.3022 63.8205C75.3935 63.8205 75.484 63.8238 75.5737 63.8303L75.5845 63.6807C75.7747 63.6945 75.9611 63.7222 76.1427 63.7626L76.1101 63.909C76.2883 63.9486 76.4616 64.0011 76.6292 64.0653L76.6829 63.9253C76.8597 63.993 77.0303 64.0734 77.1935 64.1652L77.12 64.2959C77.2783 64.3849 77.4294 64.4851 77.5724 64.5954L77.664 64.4767C77.8132 64.5918 77.9539 64.7175 78.0847 64.8527L77.977 64.957C78.1028 65.087 78.2193 65.226 78.3253 65.373L78.447 65.2852C78.5569 65.4375 78.6559 65.598 78.743 65.7656L78.6099 65.8348C78.693 65.9945 78.7647 66.1609 78.824 66.3328L78.9658 66.2839C79.0268 66.4604 79.0752 66.6425 79.1101 66.8293L78.9626 66.8568C78.9791 66.9452 78.9925 67.0348 79.0025 67.1252Z" fill="white" stroke="#0078D4" stroke-width="0.3" stroke-dasharray="0.6 0.6"/>
<path d="M77.6023 60.6689C77.5756 60.4643 77.5223 60.2682 77.4459 60.084L77.3074 60.1414C77.2342 59.9651 77.1385 59.8005 77.0238 59.6512L77.1427 59.5598C77.0192 59.3991 76.8752 59.255 76.7145 59.1316L76.6231 59.2505C76.4738 59.1357 76.3091 59.04 76.1328 58.9669L76.1903 58.8283C76.0061 58.752 75.8099 58.6986 75.6054 58.6719L75.586 58.8207C75.4932 58.8086 75.3986 58.8023 75.3024 58.8023C75.2062 58.8023 75.1116 58.8086 75.0189 58.8207L74.9995 58.6719C74.7949 58.6986 74.5987 58.752 74.4145 58.8283L74.472 58.9669C74.2957 59.04 74.1311 59.1357 73.9817 59.2505L73.8903 59.1316C73.7297 59.255 73.5856 59.3991 73.4621 59.5598L73.5811 59.6512C73.4663 59.8005 73.3706 59.9651 73.2975 60.1414L73.1589 60.084C73.0825 60.2682 73.0292 60.4643 73.0025 60.6689L73.1513 60.6883C73.1392 60.781 73.1329 60.8757 73.1329 60.9718C73.1329 61.068 73.1392 61.1627 73.1513 61.2554L73.0025 61.2748C73.0292 61.4793 73.0825 61.6755 73.1589 61.8597L73.2975 61.8023C73.3706 61.9786 73.4663 62.1432 73.5811 62.2925L73.4621 62.3839C73.5856 62.5446 73.7297 62.6887 73.8903 62.8121L73.9817 62.6932C74.1311 62.808 74.2957 62.9037 74.472 62.9768L74.4145 63.1153C74.5987 63.1917 74.7949 63.2451 74.9995 63.2717L75.0189 63.123C75.1116 63.1351 75.2062 63.1413 75.3024 63.1413C75.3986 63.1413 75.4932 63.1351 75.586 63.123L75.6054 63.2717C75.8099 63.2451 76.0061 63.1917 76.1903 63.1153L76.1328 62.9768C76.3091 62.9037 76.4738 62.808 76.6231 62.6932L76.7145 62.8121C76.8752 62.6887 77.0192 62.5446 77.1427 62.3839L77.0238 62.2925C77.1385 62.1432 77.2342 61.9786 77.3074 61.8023L77.4459 61.8597C77.5223 61.6755 77.5756 61.4793 77.6023 61.2748L77.4536 61.2554C77.4657 61.1627 77.4719 61.068 77.4719 60.9718C77.4719 60.8757 77.4657 60.781 77.4536 60.6883L77.6023 60.6689Z" fill="white" stroke="#0078D4" stroke-width="0.3" stroke-dasharray="0.6 0.6"/>
<path opacity="0.15" d="M50.0045 70.6934V44.9442C50.0045 44.1597 49.3647 43.5199 48.5802 43.5199H24.3833C23.5988 43.5199 22.959 44.1597 22.959 44.9442V70.6934C22.959 71.4779 23.5988 72.1178 24.3833 72.1178H48.5802C49.3647 72.1178 50.0045 71.4779 50.0045 70.6934Z" fill="#1F1D20"/>
<path d="M50.0044 70.641V43.4396C50.0044 43.0557 49.6928 42.7441 49.3089 42.7441H23.6598C23.2759 42.7441 22.9644 43.0557 22.9644 43.4396V70.6354C22.9644 71.0193 23.2759 71.3309 23.6598 71.3309H49.3089C49.6928 71.3364 50.0044 71.0249 50.0044 70.641Z" fill="white"/>
<path opacity="0.15" d="M41.2376 68.9157L27.9976 67.3191L30.9722 65.6298L45.0867 66.8819L41.2376 68.9157Z" fill="#1F1D20"/>
<path d="M33.135 55.0145L32.3765 54.9615L32.7309 49.9729C32.8965 47.6376 34.8608 45.7958 37.2028 45.7826C37.2127 45.7826 37.2193 45.7826 37.2293 45.7826C39.6639 45.7826 41.6845 47.7568 41.7375 50.1948L41.8402 54.8952L41.0784 54.9118L40.9757 50.2114C40.9326 48.1841 39.2532 46.5445 37.2293 46.5445C37.2226 46.5445 37.216 46.5445 37.2094 46.5445C35.2616 46.5544 33.6286 48.0848 33.4928 50.0259L33.135 55.0145Z" fill="#767778"/>
<path d="M39.1343 55.1865L39.0084 49.9892C38.962 48.0613 37.4747 46.5078 35.5502 46.3753C34.5465 46.3057 33.5859 46.637 32.8339 47.2995C32.0853 47.9653 31.6414 48.8828 31.5884 49.8832L31.34 54.6068L30.5781 54.5671L30.8266 49.8435C30.8895 48.6377 31.4228 47.5313 32.3271 46.7297C33.2314 45.9281 34.3908 45.5306 35.5998 45.6134C37.9186 45.7724 39.7106 47.644 39.767 49.9693L39.8928 55.1666L39.1343 55.1865Z" fill="#4C4C4C"/>
<path fill-rule="evenodd" clip-rule="evenodd" d="M41.2376 68.1015L27.9678 66.6009L28.5938 51.9531H41.2376V68.1015Z" fill="url(#paint8_linear_804_5767)"/>
<path fill-rule="evenodd" clip-rule="evenodd" d="M41.2378 68.1015L44.9941 66.3492L44.3681 51.9531H41.2378V68.1015Z" fill="url(#paint9_linear_804_5767)"/>
<path opacity="0.25" d="M40.0286 60.5788C40.0352 60.5523 40.0385 60.5324 40.0484 60.5093C40.0882 60.3668 40.1081 60.2144 40.118 60.0621C40.1909 58.7305 39.1739 57.5976 37.8489 57.5247C37.6634 57.5148 37.4813 57.5247 37.3057 57.5545C36.8055 56.6568 35.8714 56.0275 34.7716 55.9678C33.0624 55.8718 31.6016 57.1835 31.5055 58.8895C31.5022 58.9325 31.5022 58.9723 31.4989 59.0153C31.3498 58.9557 31.1842 58.916 31.0087 58.906C30.1673 58.8596 29.4452 59.5056 29.3988 60.3469C29.3557 61.1386 29.9189 61.821 30.684 61.9403L37.574 62.3378C38.4816 62.3874 39.2932 61.9336 39.747 61.2214C39.7602 61.2016 39.7702 61.1817 39.7867 61.1585C39.853 61.026 39.9557 60.8339 40.0286 60.5788Z" fill="#1F1D20"/>
<path d="M40.0286 60.2973C40.0352 60.2708 40.0385 60.251 40.0484 60.2278C40.0882 60.0853 40.1081 59.933 40.118 59.7806C40.1909 58.449 39.1739 57.3161 37.8489 57.2432C37.6634 57.2333 37.4813 57.2432 37.3057 57.273C36.8055 56.3754 35.8714 55.746 34.7716 55.6864C33.0624 55.5903 31.6016 56.902 31.5055 58.608C31.5022 58.651 31.5022 58.6908 31.4989 58.7338C31.3498 58.6742 31.1842 58.6345 31.0087 58.6245C30.1673 58.5782 29.4452 59.2241 29.3988 60.0655C29.3557 60.8571 29.9189 61.5395 30.684 61.6588L37.574 62.0563C38.4816 62.1059 39.2932 61.6521 39.747 60.94C39.7602 60.9201 39.7702 60.9002 39.7867 60.877C39.853 60.7445 39.9557 60.5524 40.0286 60.2973Z" fill="white"/>
<g opacity="0.15">
<path d="M41.9958 38.0508H32.8276V39.2075H41.9958V38.0508Z" fill="#1F1D20"/>
<path d="M51.5451 38.0508H42.377V39.2075H51.5451V38.0508Z" fill="#1F1D20"/>
<path d="M32.5631 38.0508H23.395V39.2075H32.5631V38.0508Z" fill="#1F1D20"/>
<path d="M70.4464 38.0508H61.2783V39.2075H70.4464V38.0508Z" fill="#1F1D20"/>
<path d="M79.8776 38.0508H70.7095V39.2075H79.8776V38.0508Z" fill="#1F1D20"/>
<path d="M60.9762 38.0508H51.8081V39.2075H60.9762V38.0508Z" fill="#1F1D20"/>
</g>
<path d="M41.9958 37.8027H32.8276V38.9594H41.9958V37.8027Z" fill="#46D9FA"/>
<path d="M51.5451 37.8027H42.377V38.9594H51.5451V37.8027Z" fill="#46D9FA"/>
<path d="M32.5631 37.8027H23.395V38.9594H32.5631V37.8027Z" fill="#46D9FA"/>
<path d="M70.4464 37.8027H61.2783V38.9594H70.4464V37.8027Z" fill="#9CE6F4"/>
<path d="M79.8776 37.8027H70.7095V38.9594H79.8776V37.8027Z" fill="#9CE6F4"/>
<path d="M60.9762 37.8027H51.8081V38.9594H60.9762V37.8027Z" fill="#9CE6F4"/>
<defs>
<filter id="filter0_d_804_5767" x="15.7524" y="28.1465" width="71.4502" height="56.86" filterUnits="userSpaceOnUse" color-interpolation-filters="sRGB">
<feFlood flood-opacity="0" result="BackgroundImageFix"/>
<feColorMatrix in="SourceAlpha" type="matrix" values="0 0 0 0 0 0 0 0 0 0 0 0 0 0 0 0 0 0 127 0" result="hardAlpha"/>
<feOffset dy="4"/>
<feGaussianBlur stdDeviation="2"/>
<feComposite in2="hardAlpha" operator="out"/>
<feColorMatrix type="matrix" values="0 0 0 0 0 0 0 0 0 0 0 0 0 0 0 0 0 0 0.25 0"/>
<feBlend mode="normal" in2="BackgroundImageFix" result="effect1_dropShadow_804_5767"/>
<feBlend mode="normal" in="SourceGraphic" in2="effect1_dropShadow_804_5767" result="shape"/>
</filter>
<linearGradient id="paint0_linear_804_5767" x1="49.7036" y1="-12.9185" x2="53.6856" y2="132.852" gradientUnits="userSpaceOnUse">
<stop stop-color="#00ABDE"/>
<stop offset="1" stop-color="#007ED8"/>
</linearGradient>
<linearGradient id="paint1_linear_804_5767" x1="2.90786" y1="-19.7515" x2="98.4354" y2="121.13" gradientUnits="userSpaceOnUse">
<stop stop-color="#007ED8"/>
<stop offset="0.7065" stop-color="#002D4C"/>
</linearGradient>
<radialGradient id="paint2_radial_804_5767" cx="0" cy="0" r="1" gradientUnits="userSpaceOnUse" gradientTransform="translate(54.615 49.9542) rotate(67.9817) scale(8.62528 10.6094)">
<stop offset="0.244792" stop-color="#0965BA"/>
<stop offset="0.479167" stop-color="#15548F"/>
<stop offset="0.692708" stop-color="#243A5E"/>
<stop offset="0.9677" stop-color="#1A2C45"/>
</radialGradient>
<radialGradient id="paint3_radial_804_5767" cx="0" cy="0" r="1" gradientUnits="userSpaceOnUse" gradientTransform="translate(55.9921 44.9509) rotate(72.7956) scale(6.54344 6.54314)">
<stop offset="0.244792" stop-color="#0965BA"/>
<stop offset="0.479167" stop-color="#15548F"/>
<stop offset="0.692708" stop-color="#243A5E"/>
<stop offset="0.9677" stop-color="#1A2C45"/>
</radialGradient>
<radialGradient id="paint4_radial_804_5767" cx="0" cy="0" r="1" gradientUnits="userSpaceOnUse" gradientTransform="translate(63.2493 49.9542) rotate(67.9817) scale(8.62528 10.6094)">
<stop offset="0.244792" stop-color="#0965BA"/>
<stop offset="0.479167" stop-color="#15548F"/>
<stop offset="0.692708" stop-color="#243A5E"/>
<stop offset="0.9677" stop-color="#1A2C45"/>
</radialGradient>
<radialGradient id="paint5_radial_804_5767" cx="0" cy="0" r="1" gradientUnits="userSpaceOnUse" gradientTransform="translate(64.6263 44.9509) rotate(72.7956) scale(6.54344 6.54314)">
<stop offset="0.244792" stop-color="#0965BA"/>
<stop offset="0.479167" stop-color="#15548F"/>
<stop offset="0.692708" stop-color="#243A5E"/>
<stop offset="0.9677" stop-color="#1A2C45"/>
</radialGradient>
<radialGradient id="paint6_radial_804_5767" cx="0" cy="0" r="1" gradientUnits="userSpaceOnUse" gradientTransform="translate(54.615 63.6027) rotate(67.9817) scale(8.62528 10.6094)">
<stop offset="0.244792" stop-color="#0965BA"/>
<stop offset="0.479167" stop-color="#15548F"/>
<stop offset="0.692708" stop-color="#243A5E"/>
<stop offset="0.9677" stop-color="#1A2C45"/>
</radialGradient>
<radialGradient id="paint7_radial_804_5767" cx="0" cy="0" r="1" gradientUnits="userSpaceOnUse" gradientTransform="translate(55.9921 58.5993) rotate(72.7956) scale(6.54344 6.54314)">
<stop offset="0.244792" stop-color="#0965BA"/>
<stop offset="0.479167" stop-color="#15548F"/>
<stop offset="0.692708" stop-color="#243A5E"/>
<stop offset="0.9677" stop-color="#1A2C45"/>
</radialGradient>
<linearGradient id="paint8_linear_804_5767" x1="34.5455" y1="48.2693" x2="34.297" y2="73.527" gradientUnits="userSpaceOnUse">
<stop offset="0.244792" stop-color="#0965BA"/>
<stop offset="0.479167" stop-color="#15548F"/>
<stop offset="0.692708" stop-color="#243A5E"/>
<stop offset="0.9677" stop-color="#1A2C45"/>
</linearGradient>
<linearGradient id="paint9_linear_804_5767" x1="42.8269" y1="34.8537" x2="42.1898" y2="72.9269" gradientUnits="userSpaceOnUse">
<stop offset="0.244792" stop-color="#0965BA"/>
<stop offset="0.479167" stop-color="#15548F"/>
<stop offset="0.692708" stop-color="#243A5E"/>
<stop offset="0.9677" stop-color="#1A2C45"/>
</linearGradient>
</defs>
</svg>
