<svg width="103" height="103" viewBox="0 0 103 103" fill="none" xmlns="http://www.w3.org/2000/svg">
<path d="M51.5576 98.3685C25.7076 98.3685 4.74756 77.4185 4.74756 51.5585C4.74756 25.6985 25.7076 4.74854 51.5576 4.74854C77.4076 4.74854 98.3676 25.7085 98.3676 51.5585C98.3676 77.4085 77.4076 98.3685 51.5576 98.3685Z" fill="url(#paint0_linear_764_1757)"/>
<path fill-rule="evenodd" clip-rule="evenodd" d="M97.4577 51.5587C97.4577 76.9087 76.9077 97.4587 51.5577 97.4587C26.2077 97.4587 5.65772 76.9087 5.65772 51.5587C5.65772 26.2087 26.2077 5.65871 51.5577 5.65871C76.9077 5.65871 97.4577 26.2087 97.4577 51.5587ZM51.5577 1.9187C78.9777 1.9187 101.198 24.1387 101.198 51.5587C101.198 78.9787 78.9677 101.199 51.5577 101.199C24.1377 101.199 1.91772 78.9687 1.91772 51.5587C1.91772 24.1387 24.1377 1.9187 51.5577 1.9187Z" fill="#F2F1F0"/>
<path fill-rule="evenodd" clip-rule="evenodd" d="M94.6475 51.5585C94.6475 75.3585 75.3575 94.6485 51.5575 94.6485C27.7575 94.6485 8.46754 75.3585 8.46754 51.5585C8.46754 27.7585 27.7575 8.46852 51.5575 8.46852C75.3575 8.46852 94.6475 27.7585 94.6475 51.5585ZM51.5575 4.72852C77.4175 4.72852 98.3875 25.6985 98.3875 51.5585C98.3875 77.4185 77.4175 98.3885 51.5575 98.3885C25.6975 98.3885 4.72754 77.4185 4.72754 51.5585C4.72754 25.6985 25.6875 4.72852 51.5575 4.72852Z" fill="url(#paint1_linear_764_1757)"/>
<path d="M51.2326 30.1083C48.4626 30.1083 46.2026 27.8383 46.2026 25.0483C46.2026 22.2583 48.4626 19.9883 51.2326 19.9883C54.0026 19.9883 56.2626 22.2583 56.2626 25.0483C56.2626 27.8383 54.0026 30.1083 51.2326 30.1083ZM51.2326 21.9883C49.5626 21.9883 48.2026 23.3583 48.2026 25.0483C48.2026 26.7383 49.5626 28.1083 51.2326 28.1083C52.9026 28.1083 54.2626 26.7383 54.2626 25.0483C54.2626 23.3583 52.9026 21.9883 51.2326 21.9883Z" fill="url(#paint2_linear_764_1757)"/>
<path d="M64.1025 78.1981H39.0025L36.3625 83.1181L34.6025 82.1681L41.9125 68.5581L43.6625 69.5181L40.0725 76.1981H63.0325L59.4425 69.5181L61.2025 68.5681L68.5125 82.1781L66.7525 83.1281L64.1025 78.1981Z" fill="url(#paint3_linear_764_1757)"/>
<path d="M78.7626 30.458H24.3726V67.018H78.7626V30.458Z" fill="url(#paint4_linear_764_1757)"/>
<path d="M23.6626 25.0381H79.4526C80.5526 25.0381 81.4526 25.9381 81.4526 27.0381V29.1281C81.4526 30.2281 80.5526 31.1281 79.4526 31.1281H23.6626C22.5626 31.1281 21.6626 30.2281 21.6626 29.1281V27.0381C21.6626 25.9381 22.5626 25.0381 23.6626 25.0381Z" fill="url(#paint5_linear_764_1757)"/>
<path d="M23.3526 66.248H79.7526C80.6826 66.248 81.4426 67.008 81.4426 67.938C81.4426 68.868 80.6826 69.628 79.7526 69.628H23.3526C22.4226 69.638 21.6626 68.878 21.6626 67.948C21.6626 67.008 22.4226 66.248 23.3526 66.248Z" fill="url(#paint6_linear_764_1757)"/>
<path d="M78.7626 30.458H24.3726V67.018H78.7626V30.458Z" fill="white"/>
<path d="M23.6626 25.0381H79.4526C80.5526 25.0381 81.4526 25.9381 81.4526 27.0381V29.1281C81.4526 30.2281 80.5526 31.1281 79.4526 31.1281H23.6626C22.5626 31.1281 21.6626 30.2281 21.6626 29.1281V27.0381C21.6626 25.9381 22.5626 25.0381 23.6626 25.0381Z" fill="url(#paint7_linear_764_1757)"/>
<path d="M23.3526 66.248H79.7526C80.6826 66.248 81.4426 67.008 81.4426 67.938C81.4426 68.868 80.6826 69.628 79.7526 69.628H23.3526C22.4226 69.638 21.6626 68.878 21.6626 67.948C21.6626 67.008 22.4226 66.248 23.3526 66.248Z" fill="url(#paint8_linear_764_1757)"/>
<path opacity="0.15" d="M57.1854 62.988L41.3667 61.0804L44.9207 59.062L61.7842 60.558L57.1854 62.988Z" fill="#1F1D20"/>
<path d="M47.5049 46.3771L46.5986 46.3138L47.0221 40.3536C47.22 37.5634 49.5669 35.363 52.3649 35.3472C52.3768 35.3472 52.3847 35.3472 52.3966 35.3472C55.3055 35.3472 57.7196 37.7059 57.7829 40.6188L57.9056 46.2347L56.9954 46.2544L56.8727 40.6385C56.8212 38.2165 54.8147 36.2574 52.3966 36.2574C52.3887 36.2574 52.3808 36.2574 52.3728 36.2574C50.0457 36.2693 48.0946 38.0977 47.9324 40.4169L47.5049 46.3771Z" fill="#767778"/>
<path d="M54.6723 46.5833L54.5219 40.3737C54.4665 38.0704 52.6895 36.2142 50.3901 36.0559C49.191 35.9728 48.0432 36.3686 47.1449 37.1601C46.2504 37.9556 45.7201 39.0519 45.6568 40.2471L45.36 45.8907L44.4497 45.8432L44.7465 40.1996C44.8217 38.759 45.4589 37.4371 46.5393 36.4794C47.6198 35.5216 49.005 35.0467 50.4495 35.1457C53.2198 35.3356 55.3609 37.5717 55.4282 40.35L55.5786 46.5595L54.6723 46.5833Z" fill="#4C4C4C"/>
<path fill-rule="evenodd" clip-rule="evenodd" d="M57.1854 62.012L41.3311 60.2192L42.079 42.7185H57.1854V62.012Z" fill="url(#paint9_linear_764_1757)"/>
<path fill-rule="evenodd" clip-rule="evenodd" d="M57.1855 62.012L61.6735 59.9184L60.9255 42.7185H57.1855V62.012Z" fill="url(#paint10_linear_764_1757)"/>
<path opacity="0.25" d="M55.7409 53.024C55.7488 52.9923 55.7528 52.9686 55.7647 52.9409C55.8122 52.7707 55.8359 52.5887 55.8478 52.4066C55.9349 50.8156 54.7199 49.4621 53.1368 49.375C52.9152 49.3632 52.6975 49.375 52.4877 49.4107C51.8901 48.3381 50.7741 47.5862 49.4601 47.515C47.418 47.4002 45.6727 48.9674 45.5579 51.0056C45.554 51.057 45.554 51.1045 45.55 51.156C45.3719 51.0848 45.174 51.0373 44.9643 51.0254C43.959 50.97 43.0963 51.7417 43.0408 52.747C42.9894 53.6928 43.6622 54.5081 44.5764 54.6506L52.8083 55.1255C53.8927 55.1849 54.8623 54.6427 55.4045 53.7918C55.4204 53.768 55.4322 53.7443 55.452 53.7166C55.5312 53.5583 55.6539 53.3287 55.7409 53.024Z" fill="#1F1D20"/>
<path d="M55.7409 52.6883C55.7488 52.6566 55.7528 52.6329 55.7647 52.6052C55.8122 52.435 55.8359 52.253 55.8478 52.0709C55.9349 50.4799 54.7199 49.1264 53.1368 49.0394C52.9152 49.0275 52.6975 49.0394 52.4877 49.075C51.8901 48.0025 50.7741 47.2505 49.4601 47.1793C47.418 47.0645 45.6727 48.6317 45.5579 50.6699C45.554 50.7214 45.554 50.7688 45.55 50.8203C45.3719 50.7491 45.174 50.7016 44.9643 50.6897C43.959 50.6343 43.0963 51.406 43.0408 52.4113C42.9894 53.3571 43.6622 54.1724 44.5764 54.3149L52.8083 54.7898C53.8927 54.8492 54.8623 54.307 55.4045 53.4561C55.4204 53.4323 55.4322 53.4086 55.452 53.3809C55.5312 53.2226 55.6539 52.993 55.7409 52.6883Z" fill="white"/>
<defs>
<linearGradient id="paint0_linear_764_1757" x1="49.7837" y1="-13.231" x2="53.7657" y2="132.539" gradientUnits="userSpaceOnUse">
<stop stop-color="#00ABDE"/>
<stop offset="1" stop-color="#007ED8"/>
</linearGradient>
<linearGradient id="paint1_linear_764_1757" x1="2.98794" y1="-20.0641" x2="98.5155" y2="120.817" gradientUnits="userSpaceOnUse">
<stop stop-color="#007ED8"/>
<stop offset="0.7065" stop-color="#002D4C"/>
</linearGradient>
<linearGradient id="paint2_linear_764_1757" x1="43.9945" y1="10.1148" x2="70.9236" y2="65.6738" gradientUnits="userSpaceOnUse">
<stop stop-color="#007ED8"/>
<stop offset="0.7065" stop-color="#002D4C"/>
</linearGradient>
<linearGradient id="paint3_linear_764_1757" x1="57.4697" y1="154.739" x2="46.1311" y2="15.5578" gradientUnits="userSpaceOnUse">
<stop stop-color="#007ED8"/>
<stop offset="0.7065" stop-color="#002D4C"/>
</linearGradient>
<linearGradient id="paint4_linear_764_1757" x1="51.5675" y1="67.0178" x2="51.5675" y2="30.4578" gradientUnits="userSpaceOnUse">
<stop stop-color="#D2EBFF"/>
<stop offset="1" stop-color="#F0FFFD"/>
</linearGradient>
<linearGradient id="paint5_linear_764_1757" x1="51.5576" y1="25.0516" x2="51.5576" y2="31.1336" gradientUnits="userSpaceOnUse">
<stop stop-color="#0099BE"/>
<stop offset="1" stop-color="#006E97"/>
</linearGradient>
<linearGradient id="paint6_linear_764_1757" x1="51.5526" y1="66.2566" x2="51.5526" y2="69.637" gradientUnits="userSpaceOnUse">
<stop stop-color="#0099BE"/>
<stop offset="1" stop-color="#006E97"/>
</linearGradient>
<linearGradient id="paint7_linear_764_1757" x1="51.5576" y1="25.0516" x2="51.5576" y2="31.1336" gradientUnits="userSpaceOnUse">
<stop stop-color="#007ED8"/>
<stop offset="0.7065" stop-color="#002D4C"/>
</linearGradient>
<linearGradient id="paint8_linear_764_1757" x1="51.5526" y1="66.2566" x2="51.5526" y2="69.637" gradientUnits="userSpaceOnUse">
<stop stop-color="#007ED8"/>
<stop offset="0.7065" stop-color="#002D4C"/>
</linearGradient>
<linearGradient id="paint9_linear_764_1757" x1="49.1899" y1="38.3172" x2="48.8931" y2="68.4942" gradientUnits="userSpaceOnUse">
<stop offset="0.244792" stop-color="#0965BA"/>
<stop offset="0.479167" stop-color="#15548F"/>
<stop offset="0.692708" stop-color="#243A5E"/>
<stop offset="0.9677" stop-color="#1A2C45"/>
</linearGradient>
<linearGradient id="paint10_linear_764_1757" x1="59.0841" y1="22.2887" x2="58.3229" y2="67.7773" gradientUnits="userSpaceOnUse">
<stop offset="0.244792" stop-color="#0965BA"/>
<stop offset="0.479167" stop-color="#15548F"/>
<stop offset="0.692708" stop-color="#243A5E"/>
<stop offset="0.9677" stop-color="#1A2C45"/>
</linearGradient>
</defs>
</svg>
