<svg width="103" height="103" viewBox="0 0 103 103" fill="none" xmlns="http://www.w3.org/2000/svg">
<path d="M51.2343 98.5498C25.3843 98.5498 4.42432 77.5998 4.42432 51.7398C4.42432 25.8798 25.3843 4.92981 51.2343 4.92981C77.0843 4.92981 98.0443 25.8898 98.0443 51.7398C98.0443 77.5898 77.0843 98.5498 51.2343 98.5498Z" fill="url(#paint0_linear_741_37161)"/>
<path fill-rule="evenodd" clip-rule="evenodd" d="M97.1342 51.7399C97.1342 77.0899 76.5842 97.6399 51.2342 97.6399C25.8842 97.6399 5.33424 77.0899 5.33424 51.7399C5.33424 26.3899 25.8842 5.83992 51.2342 5.83992C76.5842 5.83992 97.1342 26.3899 97.1342 51.7399ZM51.2342 2.09991C78.6542 2.09991 100.874 24.3199 100.874 51.7399C100.874 79.1599 78.6442 101.38 51.2342 101.38C23.8142 101.38 1.59424 79.1499 1.59424 51.7399C1.59424 24.3199 23.8142 2.09991 51.2342 2.09991Z" fill="#F2F1F0"/>
<path fill-rule="evenodd" clip-rule="evenodd" d="M94.3243 51.7398C94.3243 75.5398 75.0343 94.8298 51.2343 94.8298C27.4343 94.8298 8.1443 75.5398 8.1443 51.7398C8.1443 27.9398 27.4343 8.6498 51.2343 8.6498C75.0343 8.6498 94.3243 27.9398 94.3243 51.7398ZM51.2343 4.90979C77.0943 4.90979 98.0643 25.8798 98.0643 51.7398C98.0643 77.5998 77.0943 98.5698 51.2343 98.5698C25.3743 98.5698 4.4043 77.5998 4.4043 51.7398C4.4043 25.8798 25.3643 4.90979 51.2343 4.90979Z" fill="url(#paint1_linear_741_37161)"/>
<path opacity="0.15" d="M72.846 80.0462H34.2047C32.6771 80.0462 31.4292 78.809 31.4292 77.2707V24.7413C31.4292 22.9125 32.9137 21.428 34.7425 21.428H73.868C75.5677 21.428 76.9339 22.805 76.9339 24.4939V75.969C76.9339 78.2174 75.1051 80.0462 72.846 80.0462Z" fill="#1F1D20"/>
<path d="M72.846 78.3502H34.2047C32.6771 78.3502 31.4292 77.1131 31.4292 75.5747V23.0453C31.4292 21.2165 32.9137 19.732 34.7425 19.732H73.868C75.5677 19.732 76.9339 21.109 76.9339 22.7979V74.2731C76.9339 76.5214 75.1051 78.3502 72.846 78.3502Z" fill="#ECECEC"/>
<path d="M64.6945 30.0527H40.9608C39.9194 30.0527 39.0972 30.9297 39.0972 31.9164C39.0972 32.9578 39.9742 33.78 40.9608 33.78H64.6945C65.736 33.78 66.5582 32.903 66.5582 31.9164C66.5582 30.8749 65.736 30.0527 64.6945 30.0527Z" fill="#45CAF2"/>
<path d="M64.6945 38.1667H40.9608C39.9194 38.1667 39.0972 39.0437 39.0972 40.0303C39.0972 41.0717 39.9742 41.8939 40.9608 41.8939H64.6945C65.736 41.8939 66.5582 41.0169 66.5582 40.0303C66.5582 39.0437 65.736 38.1667 64.6945 38.1667Z" fill="#0078D4"/>
<path fill-rule="evenodd" clip-rule="evenodd" d="M40.9608 46.9382H52.8003C53.8417 46.9382 54.6639 47.8152 54.6639 48.8018C54.6639 49.8432 53.7869 50.6654 52.8003 50.6654H40.9608C39.9194 50.6654 39.0972 49.7884 39.0972 48.8018C39.0972 47.7604 39.9194 46.9382 40.9608 46.9382Z" fill="#185A97"/>
<path opacity="0.15" d="M66.656 85.3509H28.0147C26.4871 85.3509 25.2393 84.1138 25.2393 82.5755V30.0461C25.2393 28.2173 26.7238 26.7327 28.5526 26.7327H67.678C69.3777 26.7327 70.7439 28.1097 70.7439 29.7986V81.2738C70.7439 83.5221 68.9151 85.3509 66.656 85.3509Z" fill="#1F1D20"/>
<path d="M66.656 83.6549H28.0147C26.4871 83.6549 25.2393 82.4178 25.2393 80.8795V28.3501C25.2393 26.5213 26.7238 25.0367 28.5526 25.0367H67.678C69.3777 25.0367 70.7439 26.4137 70.7439 28.1027V79.5778C70.7439 81.8261 68.9151 83.6549 66.656 83.6549Z" fill="white"/>
<path opacity="0.15" fill-rule="evenodd" clip-rule="evenodd" d="M41.122 36.614H32.5557V45.2597H41.2013V38.9709L43.7962 36.3761L42.5837 35.1636L41.122 36.614Z" fill="#1F1D20"/>
<path opacity="0.15" fill-rule="evenodd" clip-rule="evenodd" d="M41.122 50.2571H32.5557V58.9027H41.2013V52.6139L43.7962 50.0078L42.5837 48.7953L41.122 50.2571Z" fill="#1F1D20"/>
<path opacity="0.15" fill-rule="evenodd" clip-rule="evenodd" d="M42.5837 62.3144L41.122 63.7648H32.5557V72.4104H41.2013V66.1217L43.7962 63.5268L42.5837 62.3144Z" fill="#1F1D20"/>
<path d="M41.2013 35.6144H32.5557V44.2601H41.2013V35.6144Z" fill="#0078D4"/>
<path d="M43.7966 35.3663L42.5842 34.1539L36.4767 40.25L34.6637 38.4144L33.4399 39.6268L36.488 42.6749L43.7966 35.3663Z" fill="url(#paint2_linear_741_37161)"/>
<path d="M41.2013 49.2596H32.5557V57.9053H41.2013V49.2596Z" fill="#32B0E7"/>
<path d="M43.7957 49.007L42.5833 47.7946L36.4758 53.8908L34.6515 52.0551L33.4277 53.2676L36.4758 56.3156L43.7957 49.007Z" fill="url(#paint3_linear_741_37161)"/>
<path d="M41.2013 62.7652H32.5557V71.4109H41.2013V62.7652Z" fill="#50E6FF"/>
<path d="M43.7957 62.5171L42.5833 61.3046L36.4758 67.4008L34.6515 65.5651L33.4277 66.7776L36.4758 69.8256L43.7957 62.5171Z" fill="url(#paint4_linear_741_37161)"/>
<path d="M63.3366 60.2945H50.6713C50.1155 60.2945 49.6768 60.7625 49.6768 61.289C49.6768 61.8448 50.1448 62.2835 50.6713 62.2835H63.3366C63.8924 62.2835 64.3311 61.8155 64.3311 61.289C64.3311 60.7332 63.8924 60.2945 63.3366 60.2945Z" fill="#7252AA"/>
<path d="M63.3366 64.6245H50.6713C50.1155 64.6245 49.6768 65.0925 49.6768 65.619C49.6768 66.1748 50.1448 66.6135 50.6713 66.6135H63.3366C63.8924 66.6135 64.3311 66.1455 64.3311 65.619C64.3311 65.0925 63.8924 64.6245 63.3366 64.6245Z" fill="#4B53B8"/>
<path fill-rule="evenodd" clip-rule="evenodd" d="M50.6713 69.3047H56.9893C57.5451 69.3047 57.9838 69.7728 57.9838 70.2993C57.9838 70.855 57.5158 71.2938 56.9893 71.2938H50.6713C50.1155 71.2938 49.6768 70.8258 49.6768 70.2993C49.6768 69.7435 50.1155 69.3047 50.6713 69.3047Z" fill="#2253C7"/>
<path d="M65.7865 52.2588C65.3301 48.1589 61.8123 44.9357 57.5578 44.9357C53.3393 44.9357 49.8574 48.0906 49.3292 52.1546C49.2573 52.4349 49.2573 52.7511 49.2573 53.0314C49.3615 54.1884 50.17 55.3095 51.6828 56.1827C54.9168 58.0404 60.1917 58.0404 63.3933 56.1827C64.9061 55.3059 65.6787 54.1848 65.7829 53.0314C65.8548 52.787 65.8224 52.5067 65.7865 52.2588Z" fill="url(#paint5_radial_741_37161)"/>
<path d="M57.565 44.0975C60.3174 44.0975 62.5489 41.8804 62.5489 39.1423C62.5489 36.4043 60.3174 34.1872 57.565 34.1872C54.8125 34.1872 52.5811 36.4043 52.5811 39.1423C52.5811 41.8768 54.8125 44.0975 57.565 44.0975Z" fill="url(#paint6_radial_741_37161)"/>
<path d="M63.2028 40.7895L62.5488 42.0615C62.574 42.0615 62.5955 42.0759 62.6207 42.0759C63.652 42.1801 64.5934 41.2207 64.7192 39.9415C64.8449 38.6623 64.1119 37.5412 63.0806 37.437C63.077 37.437 63.0734 37.437 63.0734 37.437L63.4651 39.0252L63.2028 40.7895Z" fill="#092E4C"/>
<path d="M51.8913 40.1974L52.3297 41.5198C52.3046 41.5198 52.283 41.527 52.2579 41.527C51.2517 41.4695 50.49 40.413 50.5618 39.159C50.6229 38.1169 51.2374 37.2725 52.0243 37.0497C52.1824 37.0066 51.6865 37.6031 51.8554 37.6139L51.7512 38.1888L51.9057 38.4691L51.8913 40.1974Z" fill="#092E4C"/>
<path d="M58.4239 44.7751C58.4059 44.926 58.3844 45.0949 58.3628 45.2566C61.5609 44.8398 63.9145 41.9975 63.6701 38.742C63.4186 35.375 60.4829 32.8454 57.1159 33.0969C53.7454 33.3484 51.2193 36.2841 51.4709 39.6511C51.4996 40.014 51.9272 41.2752 52.0458 41.2573C52.1105 41.2465 52.2219 41.2932 52.1249 40.8692C51.9991 40.3374 51.9524 39.7589 51.9416 39.6187C51.708 36.5069 54.0401 33.8012 57.1519 33.5676C60.2637 33.3341 62.973 35.6661 63.203 38.7779C63.4258 41.7424 61.3129 44.3367 58.4239 44.7751Z" fill="#092E4C"/>
<path d="M58.9127 45.2318C58.884 44.8509 58.5534 44.567 58.1761 44.5958C57.7952 44.6245 57.5113 44.9551 57.5401 45.3324C57.5688 45.7133 57.8994 45.9971 58.2767 45.9684C58.654 45.9432 58.9379 45.6127 58.9127 45.2318Z" fill="#092E4C"/>
<defs>
<linearGradient id="paint0_linear_741_37161" x1="51.2343" y1="93.5709" x2="51.2343" y2="11.1995" gradientUnits="userSpaceOnUse">
<stop stop-color="#659BFF"/>
<stop offset="1" stop-color="#E6CFFF"/>
</linearGradient>
<linearGradient id="paint1_linear_741_37161" x1="62.7526" y1="86.8532" x2="60.3589" y2="13.7634" gradientUnits="userSpaceOnUse">
<stop stop-color="#0B53CE"/>
<stop offset="1" stop-color="#7252AA"/>
</linearGradient>
<linearGradient id="paint2_linear_741_37161" x1="22.1078" y1="66.0643" x2="42.0161" y2="31.6197" gradientUnits="userSpaceOnUse">
<stop stop-color="#007ED8"/>
<stop offset="0.7065" stop-color="#002D4C"/>
</linearGradient>
<linearGradient id="paint3_linear_741_37161" x1="28.0164" y1="69.4779" x2="47.9248" y2="35.0333" gradientUnits="userSpaceOnUse">
<stop stop-color="#007ED8"/>
<stop offset="0.7065" stop-color="#002D4C"/>
</linearGradient>
<linearGradient id="paint4_linear_741_37161" x1="50.2647" y1="32.7463" x2="33.9113" y2="77.5401" gradientUnits="userSpaceOnUse">
<stop stop-color="#007ED8"/>
<stop offset="0.7065" stop-color="#002D4C"/>
</linearGradient>
<radialGradient id="paint5_radial_741_37161" cx="0" cy="0" r="1" gradientUnits="userSpaceOnUse" gradientTransform="translate(55.0404 48.0841) rotate(-120.379) scale(10.2942 11.8691)">
<stop offset="0.151042" stop-color="#7252AA"/>
<stop offset="1" stop-color="#0B53CE"/>
</radialGradient>
<radialGradient id="paint6_radial_741_37161" cx="0" cy="0" r="1" gradientUnits="userSpaceOnUse" gradientTransform="translate(56.5715 36.6012) rotate(-119.624) scale(8.98317 8.36662)">
<stop offset="0.151042" stop-color="#7252AA"/>
<stop offset="1" stop-color="#0B53CE"/>
</radialGradient>
</defs>
</svg>
