<svg width="160" height="188" viewBox="0 0 160 188" fill="none" xmlns="http://www.w3.org/2000/svg">
<g clip-path="url(#clip0_1134_2121)">
<path d="M80.0334 188C83.1147 187.994 86.1351 187.141 88.7638 185.534L150.739 147.874C153.52 146.11 155.804 143.665 157.375 140.771C158.945 137.876 159.749 134.628 159.711 131.336V56.6207C159.747 53.3283 158.942 50.0812 157.372 47.1871C155.802 44.2929 153.519 41.8476 150.739 40.0829L88.7638 2.4228C86.1303 0.837605 83.1147 0 80.041 0C76.9672 0 73.9516 0.837605 71.3182 2.4228L9.34307 40.098C6.55997 41.8604 4.27342 44.3048 2.70046 47.1991C1.12749 50.0935 0.32029 53.3418 0.355473 56.6358V131.336C0.33694 134.119 0.911657 136.874 2.04135 139.418C3.17104 141.962 4.82977 144.236 6.90707 146.089V146.115L71.3182 185.549C73.9438 187.149 76.9586 187.996 80.0334 188V188ZM80.6812 6.95218C82.6331 6.95218 85.1103 8.1651 86.8201 9.20912L147.577 46.4034C151.329 48.6881 153.445 55.2842 153.445 60.0352L152.813 131.336C152.813 136.087 149.614 140.355 145.861 142.64L85.4659 179.021C82.0313 181.109 79.2409 181.109 75.8062 179.021L14.5982 142.549C10.8458 140.265 7.82738 136.072 7.82738 131.336V57.688C7.85989 55.3228 8.46888 53.0013 9.60155 50.9247C10.7342 48.8482 12.3563 47.0792 14.3273 45.7714L74.9035 9.20912C76.6132 8.1651 78.7294 6.95218 80.6812 6.95218Z" fill="#F2F1F0"/>
<path fill-rule="evenodd" clip-rule="evenodd" d="M87.9319 10.5328C85.561 9.05928 82.8252 8.27838 80.0337 8.27838C77.2422 8.27838 74.5064 9.05928 72.1355 10.5328L16.0008 44.8642C13.4748 46.4759 11.4025 48.7062 9.98047 51.3437C8.55847 53.9812 7.83398 56.9382 7.87573 59.9343V128.038C7.83581 131.033 8.56109 133.99 9.98292 136.627C11.4048 139.264 13.4761 141.495 16.0008 143.108L72.1355 177.439C74.5063 178.912 77.2422 179.694 80.0337 179.694C82.8253 179.694 85.5612 178.912 87.9319 177.439L144.066 143.108C146.591 141.495 148.663 139.264 150.085 136.627C151.507 133.99 152.232 131.033 152.192 128.038V59.9343C152.23 56.9388 151.504 53.983 150.082 51.3461C148.66 48.7092 146.59 46.4784 144.066 44.8642L87.9319 10.5328Z" fill="url(#paint0_linear_1134_2121)"/>
<path fill-rule="evenodd" clip-rule="evenodd" d="M80.0338 9.75432C81.717 9.75432 83.5997 10.62 85.6665 11.8781L144.132 47.4205C146.024 48.6339 147.573 50.3108 148.634 52.2919C149.694 54.2729 150.231 56.4922 150.192 58.739V129.218C150.231 131.464 149.694 133.684 148.634 135.664C147.573 137.645 146.024 139.322 144.132 140.536L85.6675 176.078L85.6665 176.079C83.9963 177.218 82.0512 177.889 80.0338 178.022C78.0163 177.889 76.0713 177.218 74.4011 176.079L74.4001 176.078L15.9378 140.538L15.9356 140.537C14.1473 139.573 12.6222 138.186 11.4938 136.497C10.5169 134.894 9.87578 132.679 9.87578 129.218V58.739C9.83704 56.4923 10.3734 54.273 11.434 52.292C12.4945 50.311 14.044 48.6341 15.9352 47.4206L74.392 11.8835L74.3961 11.8811C76.4799 10.6281 78.3401 9.75432 80.0338 9.75432ZM87.7463 8.46132L146.21 44.0026C148.689 45.5727 150.723 47.7514 152.121 50.3311C153.518 52.9109 154.231 55.8055 154.192 58.7391V129.218C154.231 132.151 153.518 135.046 152.121 137.626C150.723 140.205 148.688 142.384 146.21 143.955L87.7453 179.496C85.4511 181.021 82.7857 181.894 80.0338 182.022C77.2819 181.894 74.6164 181.021 72.3222 179.496H72.3213L13.8575 143.954L13.855 143.953C11.5197 142.66 9.53644 140.814 8.07828 138.579C6.4837 135.725 5.72068 132.482 5.87578 129.218V58.739C5.83672 55.8054 6.54983 52.9107 7.94712 50.331C9.34441 47.7512 11.3793 45.5724 13.8577 44.0024L72.3222 8.46067L72.3304 8.45579C74.421 7.19838 77.1289 5.75433 80.0338 5.75433C82.92 5.75433 85.6371 7.17741 87.7463 8.46127V8.46132Z" fill="#0078D4"/>
<g opacity="0.2">
<path d="M139.965 132.026L80.4154 166.633L20.4764 132.027L80.0264 97.42L139.965 132.026Z" fill="#003067"/>
</g>
<path d="M140.956 120.649L80.2334 155.937L19.1224 120.654L79.8444 85.366L140.956 120.649Z" fill="#1B93EB"/>
<path d="M140.956 120.649L140.944 124.755L80.2224 160.043L80.2334 155.937L140.956 120.649Z" fill="#1F56A3"/>
<path d="M80.2335 155.937L80.2225 160.043L19.1105 124.76L19.1225 120.654L80.2335 155.937Z" fill="#0078D4"/>
<g opacity="0.2">
<path d="M109.312 124.509C109.55 124.589 109.757 124.741 109.905 124.944C110.052 125.147 110.132 125.391 110.133 125.642C110.134 125.893 110.057 126.138 109.912 126.342C109.768 126.547 109.562 126.701 109.325 126.784L106.862 128.215C106.256 128.52 105.587 128.677 104.909 128.675C104.23 128.673 103.562 128.511 102.958 128.202L66.2297 106.997C65.9964 106.916 65.7937 106.765 65.6498 106.565C65.5059 106.364 65.4279 106.124 65.4265 105.877C65.4251 105.63 65.5005 105.389 65.6421 105.187C65.7838 104.985 65.9847 104.832 66.2171 104.749L68.6805 103.317C69.2843 103.009 69.9524 102.846 70.6306 102.844C71.3087 102.842 71.9779 102.999 72.5838 103.304L109.312 124.509Z" fill="#003067"/>
</g>
<path d="M100.514 51.61C92.7572 47.1314 85.7249 46.7145 80.6464 49.6658L75.0625 52.9106C80.141 49.9594 87.1736 50.3764 94.9302 54.8548C110.358 63.7618 122.811 85.3311 122.76 103.058C122.735 111.853 119.631 118.042 114.622 120.952L120.206 117.708C125.215 114.797 128.319 108.608 128.344 99.8133C128.394 82.0862 115.941 60.5169 100.514 51.61Z" fill="#E8E8E8"/>
<path d="M94.9305 54.8548C110.358 63.7618 122.811 85.3311 122.76 103.058C122.71 120.766 110.176 127.909 94.7486 119.002C89.8223 116.057 85.4398 112.287 81.7932 107.855L69.8121 104.527C69.5969 104.466 69.3904 104.378 69.1976 104.265C68.6157 103.884 68.1147 103.392 67.7235 102.818C67.3322 102.243 67.0583 101.597 66.9176 100.916C66.8169 100.463 66.8182 99.9927 66.9215 99.5402L70.0795 87.5854C68.0682 82.22 66.9987 76.5474 66.9184 70.8179C66.9687 53.0907 79.5199 45.9575 94.9305 54.8548ZM104.206 89.1053C105.235 89.544 106.014 88.9844 106.017 87.7639C105.983 87.097 105.805 86.4454 105.495 85.8542C105.184 85.2629 104.749 84.7461 104.22 84.3393L103.933 84.1543L85.7912 73.6802L85.5047 73.5341C84.4756 73.0952 83.6972 73.6549 83.6938 74.8755C83.7277 75.5424 83.906 76.194 84.2163 76.7852C84.5266 77.3765 84.9616 77.8933 85.4911 78.3001L85.7776 78.4849L103.919 88.959L104.206 89.1052L104.206 89.1053ZM98.5936 97.1006C99.6224 97.5394 100.401 96.9799 100.404 95.7593C100.368 95.0929 100.189 94.4421 99.8789 93.8512C99.5688 93.2602 99.135 92.743 98.6071 92.3347L98.3204 92.1497L85.7595 84.8977L85.4729 84.7517C84.4438 84.3321 83.6655 84.8724 83.662 86.093C83.6959 86.7599 83.8742 87.4115 84.1845 88.0028C84.4948 88.594 84.9298 89.1109 85.4594 89.5176L85.7458 89.7025L98.3068 96.9545L98.5937 97.1007" fill="url(#paint1_linear_1134_2121)"/>
<path d="M104.206 89.1053C105.235 89.544 106.014 88.9844 106.017 87.7639C105.983 87.097 105.805 86.4454 105.494 85.8542C105.184 85.2629 104.749 84.7461 104.22 84.3393L103.933 84.1543L85.7912 73.6802L85.5046 73.5341C84.4756 73.0952 83.6972 73.655 83.6938 74.8755C83.7277 75.5424 83.906 76.194 84.2163 76.7852C84.5266 77.3765 84.9616 77.8934 85.4911 78.3001L85.7776 78.4849L103.919 88.959L104.206 89.1052V89.1053ZM98.5936 97.1006C99.6224 97.5394 100.401 96.9799 100.404 95.7593C100.368 95.0929 100.189 94.4421 99.8789 93.8512C99.5688 93.2602 99.135 92.743 98.6071 92.3347L98.3204 92.1497L85.7594 84.8977L85.4729 84.7517C84.4437 84.3321 83.6654 84.8724 83.662 86.0931C83.6959 86.7599 83.8742 87.4115 84.1845 88.0028C84.4948 88.594 84.9298 89.1109 85.4593 89.5176L85.7458 89.7025L98.3068 96.9545L98.5937 97.1007" fill="#0078D4"/>
<path d="M61.4452 94.5874C61.7352 94.7684 61.9729 95.022 62.1347 95.3231L63.7824 98.2374L59.7164 100.707C59.1158 101.076 59.1035 102.191 59.6911 103.255L65.322 113.49C65.7378 114.242 65.7355 115.034 65.3213 115.312L59.6235 119.079C59.0364 119.466 59.0514 120.591 59.6435 121.648L63.6018 128.673L62.2235 129.704C62.0919 129.781 61.9405 129.818 61.7882 129.809C61.636 129.801 61.4896 129.747 61.3674 129.656C61.0023 129.427 60.707 129.102 60.5138 128.717L48.5544 105.924C48.0213 104.906 48.0243 103.843 48.5659 103.451L60.7242 94.5505C60.8344 94.484 60.9619 94.452 61.0904 94.4586C61.2189 94.4651 61.3424 94.51 61.4452 94.5874V94.5874Z" fill="url(#paint2_linear_1134_2121)"/>
<path d="M63.6366 94.4503C63.4747 94.1492 63.2371 93.8956 62.9471 93.7146C62.8505 93.6447 62.7371 93.6016 62.6184 93.5898C62.4998 93.578 62.3801 93.5979 62.2716 93.6473L60.7698 94.5201C60.8783 94.4706 60.9979 94.4508 61.1165 94.4626C61.2352 94.4744 61.3486 94.5175 61.4451 94.5874C61.7351 94.7684 61.9728 95.022 62.1346 95.3231L63.7823 98.2374L65.2842 97.3646L63.6366 94.4503Z" fill="#B559A9"/>
<path d="M66.1973 97.4271C66.6066 97.6831 66.9401 98.0437 67.1635 98.4717L79.0573 120.356C79.1513 120.53 79.2352 120.706 79.3091 120.881L74.2039 111.431C74.0277 111.086 73.7614 110.796 73.4333 110.591C73.3256 110.513 73.1986 110.465 73.0659 110.453C72.9332 110.442 72.7999 110.466 72.6803 110.525L67.4064 113.723C66.5418 114.252 66.5417 115.881 67.405 117.402L72.7432 126.779C72.9191 127.103 73.1761 127.375 73.4892 127.57C73.6655 127.686 73.878 127.733 74.0867 127.703L67.0715 132.514C66.9183 132.592 66.7463 132.626 66.5747 132.613C66.4032 132.599 66.2387 132.538 66.0997 132.437C65.7016 132.188 65.3753 131.84 65.1531 131.427L63.6018 128.674L59.6435 121.648C59.0515 120.591 59.0365 119.466 59.6235 119.079L65.3214 115.312C65.7356 115.034 65.7378 114.242 65.322 113.49L59.6911 103.255C59.1036 102.191 59.1158 101.076 59.7165 100.707L63.7825 98.2374L65.2542 97.3433C65.4042 97.2702 65.5712 97.2393 65.7374 97.2541C65.9036 97.2689 66.0626 97.3287 66.1973 97.4271Z" fill="url(#paint3_linear_1134_2121)"/>
<path d="M81.1193 120.579L80.811 120.008L80.5348 119.497L80.5591 119.483L68.6653 97.5988C68.4419 97.1709 68.1084 96.8103 67.6991 96.5543C67.5664 96.4582 67.4107 96.399 67.2477 96.3827C67.0847 96.3664 66.9204 96.3935 66.7713 96.4614L65.2694 97.3342C65.4185 97.2663 65.5829 97.2392 65.7458 97.2555C65.9088 97.2718 66.0645 97.331 66.1972 97.427C66.6065 97.6831 66.94 98.0437 67.1634 98.4717L74.206 111.43L74.2039 111.431L79.3091 120.881L79.6173 121.451C80.1686 122.469 80.1657 123.532 79.6196 123.911L81.1213 123.038C81.6675 122.66 81.6706 121.596 81.1193 120.579Z" fill="url(#paint4_linear_1134_2121)"/>
<path d="M71.9313 111.464C72.2594 111.669 72.5257 111.959 72.7019 112.304L77.8071 121.754L78.1154 122.324C78.6667 123.342 78.6637 124.405 78.1176 124.784L72.7651 128.5C72.7104 128.537 72.6491 128.562 72.5846 128.575C72.376 128.605 72.1635 128.558 71.9871 128.443C71.6741 128.248 71.4171 127.976 71.2411 127.652L65.903 118.275C65.0397 116.753 65.0398 115.125 65.9044 114.596L71.1782 111.398C71.2979 111.339 71.4312 111.315 71.5639 111.326C71.6966 111.338 71.8236 111.385 71.9313 111.464V111.464Z" fill="url(#paint5_linear_1134_2121)"/>
<path d="M79.6174 121.452L79.3092 120.881L74.2039 111.431C74.0277 111.086 73.7614 110.796 73.4332 110.591C73.3272 110.514 73.2028 110.467 73.0727 110.454C72.9426 110.442 72.8114 110.463 72.6924 110.518L71.1906 111.39C71.3095 111.336 71.4407 111.314 71.5708 111.327C71.701 111.34 71.8254 111.387 71.9314 111.464C72.2595 111.669 72.5258 111.959 72.702 112.304L77.8072 121.754L78.1155 122.324C78.6668 123.342 78.6639 124.405 78.1177 124.784L79.6196 123.911C80.1656 123.532 80.1688 122.469 79.6174 121.452Z" fill="#F1C3DF"/>
<g opacity="0.2">
<path d="M71.7408 138.225C71.901 138.28 72.0402 138.383 72.1388 138.521C72.2374 138.658 72.2905 138.823 72.2908 138.993C72.291 139.162 72.2384 139.327 72.1402 139.465C72.042 139.603 71.9031 139.707 71.743 139.762L71.5845 139.854C71.1745 140.063 70.7209 140.172 70.2608 140.172C69.8007 140.172 69.3471 140.063 68.9371 139.854L53.3202 130.838C53.1598 130.784 53.0203 130.682 52.9211 130.545C52.8219 130.408 52.768 130.243 52.7671 130.074C52.7662 129.905 52.8182 129.74 52.9158 129.602C53.0135 129.464 53.1519 129.36 53.3116 129.304L53.4702 129.212C53.881 129.002 54.3354 128.893 54.7966 128.892C55.2577 128.892 55.7125 129 56.1239 129.208L71.7408 138.225Z" fill="#003067"/>
</g>
</g>
<defs>
<linearGradient id="paint0_linear_1134_2121" x1="80.0339" y1="8.27838" x2="80.0339" y2="179.694" gradientUnits="userSpaceOnUse">
<stop stop-color="#00ABDE"/>
<stop offset="1" stop-color="#007ED8"/>
</linearGradient>
<linearGradient id="paint1_linear_1134_2121" x1="94.8021" y1="120.258" x2="94.8021" y2="52.5901" gradientUnits="userSpaceOnUse">
<stop stop-color="#F2F2F2"/>
<stop offset="0.44" stop-color="#FBFBFB"/>
<stop offset="1" stop-color="white"/>
</linearGradient>
<linearGradient id="paint2_linear_1134_2121" x1="48.1571" y1="112.134" x2="65.6329" y2="112.134" gradientUnits="userSpaceOnUse">
<stop stop-color="#A23093"/>
<stop offset="1" stop-color="#692266"/>
</linearGradient>
<linearGradient id="paint3_linear_1134_2121" x1="59.1912" y1="114.933" x2="79.3091" y2="114.933" gradientUnits="userSpaceOnUse">
<stop stop-color="#E184C4"/>
<stop offset="1" stop-color="#D76EBC"/>
</linearGradient>
<linearGradient id="paint4_linear_1134_2121" x1="65.2694" y1="110.143" x2="81.5319" y2="110.143" gradientUnits="userSpaceOnUse">
<stop stop-color="#E89BCA"/>
<stop offset="1" stop-color="#E591C8"/>
</linearGradient>
<linearGradient id="paint5_linear_1134_2121" x1="65.2558" y1="119.954" x2="78.528" y2="119.954" gradientUnits="userSpaceOnUse">
<stop stop-color="#E89BCA"/>
<stop offset="1" stop-color="#E591C8"/>
</linearGradient>
<clipPath id="clip0_1134_2121">
<rect width="159.356" height="188" fill="white" transform="translate(0.355469)"/>
</clipPath>
</defs>
</svg>
