<svg width="100" height="100" viewBox="0 0 100 100" fill="none" xmlns="http://www.w3.org/2000/svg">
<g clip-path="url(#clip0_1321_3825)">
<path d="M49.6401 96.4499C40.382 96.4499 31.3317 93.7045 23.6339 88.561C15.936 83.4174 9.93624 76.1067 6.3933 67.5533C2.85036 58.9999 1.92337 49.588 3.72954 40.5077C5.53571 31.4275 9.99394 23.0867 16.5404 16.5402C23.0869 9.99372 31.4277 5.5355 40.5079 3.72933C49.5882 1.92315 59.0001 2.85015 67.5535 6.39308C76.1069 9.93602 83.4176 15.9358 88.5612 23.6336C93.7047 31.3315 96.4501 40.3817 96.4501 49.6399C96.4505 55.7872 95.24 61.8744 92.8878 67.5538C90.5355 73.2332 87.0875 78.3937 82.7407 82.7405C78.3939 87.0873 73.2335 90.5353 67.554 92.8876C61.8746 95.2398 55.7874 96.4503 49.6401 96.4499V96.4499Z" fill="url(#paint0_linear_1321_3825)"/>
<path fill-rule="evenodd" clip-rule="evenodd" d="M95.54 49.6399C95.54 58.718 92.848 67.5923 87.8045 75.1406C82.7609 82.6888 75.5923 88.5719 67.2052 92.046C58.818 95.52 49.5891 96.429 40.6854 94.6579C31.7816 92.8869 23.603 88.5153 17.1838 82.0961C10.7646 75.6769 6.39302 67.4983 4.62196 58.5945C2.85089 49.6908 3.75987 40.4618 7.23393 32.0747C10.708 23.6876 16.5911 16.519 24.1393 11.4754C31.6875 6.43187 40.5618 3.73988 49.64 3.73988C55.6677 3.73986 61.6363 4.92708 67.2052 7.23377C72.774 9.54045 77.834 12.9214 82.0963 17.1836C86.3585 21.4458 89.7394 26.5058 92.0461 32.0747C94.3528 37.6435 95.54 43.6122 95.54 49.6399V49.6399ZM49.64 -0.000106449C59.4579 -0.000106449 69.0552 2.91123 77.2185 8.36574C85.3818 13.8203 91.7442 21.573 95.5014 30.6435C99.2585 39.714 100.242 49.695 98.3262 59.3242C96.4108 68.9534 91.6831 77.7984 84.7408 84.7407C77.7985 91.683 68.9535 96.4107 59.3243 98.3261C49.6951 100.241 39.7141 99.2584 30.6436 95.5013C21.5731 91.7441 13.8204 85.3816 8.36584 77.2184C2.91133 69.0551 -1.61629e-06 59.4577 3.61524e-07 49.6399C-0.000786426 43.1208 1.28265 36.6655 3.77702 30.6425C6.27138 24.6196 9.92781 19.147 14.5375 14.5374C19.1471 9.9277 24.6197 6.27127 30.6427 3.77691C36.6656 1.28254 43.121 -0.000894549 49.64 -0.000106449V-0.000106449Z" fill="#F2F1F0"/>
<path fill-rule="evenodd" clip-rule="evenodd" d="M92.7296 49.64C92.7296 58.1624 90.2024 66.4934 85.4676 73.5795C80.7328 80.6656 74.0031 86.1886 66.1294 89.45C58.2557 92.7113 49.5918 93.5647 41.2331 91.902C32.8745 90.2394 25.1966 86.1355 19.1703 80.1092C13.1441 74.083 9.04017 66.4051 7.37753 58.0464C5.7149 49.6878 6.56822 41.0238 9.8296 33.1502C13.091 25.2765 18.6139 18.5468 25.7 13.812C32.7862 9.07718 41.1172 6.55 49.6396 6.55C55.2983 6.54965 60.9017 7.66397 66.1298 9.82933C71.3579 11.9947 76.1082 15.1687 80.1096 19.17C84.1109 23.1713 87.2849 27.9217 89.4502 33.1498C91.6156 38.3778 92.7299 43.9812 92.7296 49.64ZM49.6396 2.81C58.9017 2.81 67.9558 5.55653 75.6569 10.7023C83.3581 15.848 89.3604 23.1619 92.9049 31.7189C96.4493 40.276 97.3767 49.6919 95.5697 58.7761C93.7628 67.8602 89.3027 76.2045 82.7534 82.7538C76.2041 89.3031 67.8598 93.7632 58.7757 95.5702C49.6915 97.3771 40.2756 96.4497 31.7185 92.9053C23.1614 89.3608 15.8476 83.3585 10.7018 75.6574C5.5561 67.9562 2.80957 58.9021 2.80957 49.64C2.81076 37.2203 7.74501 25.3096 16.5271 16.5275C25.3091 7.74544 37.2198 2.81119 49.6396 2.81V2.81Z" fill="#0078D4"/>
<path fill-rule="evenodd" clip-rule="evenodd" d="M92.7301 49.7835C92.7301 58.3059 90.2029 66.6369 85.4681 73.723C80.7333 80.8091 74.0036 86.3321 66.1299 89.5935C58.2562 92.8549 49.5923 93.7082 41.2336 92.0455C32.875 90.3829 25.1971 86.279 19.1708 80.2527C13.1446 74.2265 9.04066 66.5486 7.37802 58.1899C5.71538 49.8313 6.56871 41.1673 9.83009 33.2937C13.0915 25.42 18.6144 18.6903 25.7005 13.9555C32.7867 9.22069 41.1177 6.69351 49.6401 6.69351C55.2988 6.69316 60.9022 7.80748 66.1303 9.97284C71.3584 12.1382 76.1087 15.3122 80.1101 19.3135C84.1114 23.3149 87.2854 28.0652 89.4507 33.2933C91.6161 38.5213 92.7304 44.1248 92.7301 49.7835V49.7835ZM49.6401 2.95351C58.9022 2.95351 67.9563 5.70004 75.6574 10.8458C83.3586 15.9915 89.3609 23.3054 92.9053 31.8624C96.4498 40.4195 97.3772 49.8355 95.5702 58.9196C93.7633 68.0037 89.3032 76.348 82.7539 82.8973C76.2046 89.4466 67.8603 93.9067 58.7761 95.7137C49.692 97.5206 40.2761 96.5932 31.719 93.0488C23.1619 89.5043 15.8481 83.502 10.7023 75.8009C5.55659 68.0997 2.81006 59.0456 2.81006 49.7835C2.81124 37.3638 7.74548 25.4531 16.5276 16.671C25.3096 7.88892 37.2203 2.95467 49.64 2.95348L49.6401 2.95351Z" fill="#0078D4"/>
<path d="M60.1051 67.737V79.845L49.6401 85.93V73.804L60.1051 67.737Z" fill="#50E6FF"/>
<path d="M60.105 67.737L49.641 73.82L39.175 67.736L49.641 61.652L60.105 67.737Z" fill="#C3F1FF"/>
<path d="M49.64 73.82V85.93L39.175 79.845V67.736L49.64 73.82Z" fill="#9CEBFF"/>
<path d="M33.9628 24.2613L25.4136 29.2311C25.24 29.332 25.096 29.4766 24.9958 29.6507C24.8957 29.8247 24.843 30.022 24.843 30.2227V40.1211C24.843 40.3218 24.8957 40.5191 24.9958 40.6931C25.0959 40.8671 25.24 41.0118 25.4135 41.1127L33.9615 46.0824C34.1366 46.1842 34.3355 46.2378 34.5381 46.2378C34.7406 46.2378 34.9395 46.1842 35.1146 46.0824L43.6627 41.1127C43.8363 41.0118 43.9803 40.8671 44.0805 40.6931C44.1806 40.5191 44.2333 40.3218 44.2333 40.1211V30.2238C44.2333 30.0231 44.1806 29.8258 44.0805 29.6518C43.9804 29.4778 43.8364 29.3332 43.6629 29.2322L35.1159 24.2614C34.9409 24.1596 34.7419 24.106 34.5394 24.106C34.3369 24.1059 34.1379 24.1595 33.9628 24.2613Z" fill="#0078D4"/>
<path d="M64.1655 24.2613L55.6162 29.2311C55.4427 29.332 55.2986 29.4766 55.1985 29.6507C55.0983 29.8247 55.0456 30.022 55.0457 30.2227V40.1211C55.0456 40.3218 55.0983 40.5191 55.1985 40.6931C55.2986 40.8671 55.4426 41.0118 55.6162 41.1127L64.1642 46.0824C64.3393 46.1842 64.5382 46.2378 64.7407 46.2378C64.9432 46.2378 65.1421 46.1842 65.3172 46.0824L73.8653 41.1127C74.0389 41.0118 74.1829 40.8671 74.283 40.6931C74.3832 40.5191 74.4358 40.3218 74.4358 40.1211V30.2238C74.4358 30.0231 74.3832 29.8258 74.2831 29.6518C74.183 29.4778 74.039 29.3332 73.8655 29.2322L65.3185 24.2614C65.1435 24.1596 64.9445 24.106 64.742 24.106C64.5395 24.106 64.3406 24.1596 64.1655 24.2613Z" fill="#0078D4"/>
<path d="M22.843 40.9724V29.3711C22.843 29.0793 22.9196 28.7926 23.0651 28.5396C23.2107 28.2866 23.4201 28.0763 23.6724 27.9296L33.7011 22.0997C33.9556 21.9517 34.2448 21.8738 34.5392 21.8738C34.8336 21.8738 35.1228 21.9518 35.3773 22.0999L45.4044 27.9315C45.6567 28.0782 45.866 28.2885 46.0115 28.5414C46.157 28.7944 46.2336 29.0811 46.2337 29.3729V40.9724C46.2337 41.2643 46.157 41.551 46.0115 41.804C45.8659 42.0569 45.6565 42.2673 45.4042 42.4139L35.3763 48.2439C35.1218 48.3918 34.8327 48.4698 34.5383 48.4698C34.2439 48.4698 33.9547 48.3918 33.7002 48.2439L23.6724 42.4139C23.4201 42.2673 23.2107 42.0569 23.0651 41.804C22.9196 41.551 22.843 41.2643 22.843 40.9724V40.9724Z" stroke="white" stroke-width="0.75" stroke-miterlimit="10" stroke-linecap="round" stroke-dasharray="2 2"/>
<path d="M40.5082 31.782V38.562L34.6492 41.969V35.179L40.5082 31.782Z" fill="#50E6FF"/>
<path d="M40.5081 31.782L34.6501 35.188L28.7891 31.782L34.6501 28.375L40.5081 31.782Z" fill="#C3F1FF"/>
<path d="M34.6491 35.188V41.969L28.7891 38.562V31.782L34.6491 35.188Z" fill="#9CEBFF"/>
<path d="M70.6002 31.782V38.562L64.7412 41.969V35.179L70.6002 31.782Z" fill="#50E6FF"/>
<path d="M70.6001 31.782L64.7421 35.188L58.8811 31.782L64.7421 28.375L70.6001 31.782Z" fill="#C3F1FF"/>
<path d="M64.7411 35.188V41.969L58.8811 38.562V31.782L64.7411 35.188Z" fill="#9CEBFF"/>
<path d="M53.0455 40.9724V29.3711C53.0455 29.0793 53.1221 28.7925 53.2677 28.5396C53.4132 28.2866 53.6226 28.0763 53.875 27.9296L63.9035 22.0997C64.1581 21.9517 64.4473 21.8738 64.7417 21.8738C65.0362 21.8738 65.3254 21.9518 65.5799 22.0999L75.607 27.9315C75.8592 28.0782 76.0685 28.2885 76.214 28.5414C76.3595 28.7944 76.4361 29.0811 76.4361 29.3729V40.9724C76.4361 41.2643 76.3595 41.551 76.214 41.8039C76.0684 42.0569 75.859 42.2672 75.6067 42.4139L65.5787 48.2439C65.3243 48.3918 65.0351 48.4698 64.7407 48.4698C64.4464 48.4698 64.1572 48.3918 63.9027 48.2439L53.8747 42.4139C53.6225 42.2673 53.4131 42.0569 53.2675 41.8039C53.122 41.551 53.0454 41.2643 53.0454 40.9724H53.0455Z" stroke="white" stroke-width="0.75" stroke-miterlimit="10" stroke-linecap="round" stroke-dasharray="2 2"/>
<path d="M49.6395 45.9105V54.8897C49.6395 55.6834 49.3242 56.4447 48.7629 57.006C48.2016 57.5673 47.4403 57.8826 46.6465 57.8827H38.2139C37.4202 57.8827 36.6589 58.198 36.0976 58.7593C35.5363 59.3206 35.2209 60.0819 35.2209 60.8757V60.8757" stroke="white" stroke-width="0.75" stroke-miterlimit="10" stroke-linecap="round"/>
<path d="M49.6399 45.9105V54.8897C49.6399 55.6834 49.9552 56.4447 50.5165 57.006C51.0778 57.5673 51.8391 57.8827 52.6329 57.8827H61.0655C61.4585 57.8826 61.8477 57.9601 62.2108 58.1105C62.574 58.2609 62.9039 58.4813 63.1819 58.7593C63.4598 59.0372 63.6803 59.3671 63.8307 59.7303C63.9811 60.0934 64.0585 60.4826 64.0585 60.8757V60.8757" stroke="white" stroke-width="0.75" stroke-miterlimit="10" stroke-linecap="round"/>
</g>
<defs>
<linearGradient id="paint0_linear_1321_3825" x1="47.8698" y1="-15.1532" x2="51.8525" y2="130.615" gradientUnits="userSpaceOnUse">
<stop stop-color="#00ABDE"/>
<stop offset="1" stop-color="#007ED8"/>
</linearGradient>
<clipPath id="clip0_1321_3825">
<rect width="99.2799" height="99.28" fill="white"/>
</clipPath>
</defs>
</svg>
