<svg width="103" height="103" viewBox="0 0 103 103" fill="none" xmlns="http://www.w3.org/2000/svg">
<path d="M51.9789 98.2435C26.1289 98.2435 5.16895 77.2935 5.16895 51.4335C5.16895 25.5735 26.1289 4.62354 51.9789 4.62354C77.8289 4.62354 98.7889 25.5835 98.7889 51.4335C98.7889 77.2835 77.8289 98.2435 51.9789 98.2435Z" fill="url(#paint0_linear_810_21695)"/>
<path fill-rule="evenodd" clip-rule="evenodd" d="M97.8789 51.4337C97.8789 76.7837 77.3289 97.3337 51.9789 97.3337C26.6289 97.3337 6.07887 76.7837 6.07887 51.4337C6.07887 26.0837 26.6289 5.53371 51.9789 5.53371C77.3289 5.53371 97.8789 26.0837 97.8789 51.4337ZM51.9789 1.7937C79.3989 1.7937 101.619 24.0137 101.619 51.4337C101.619 78.8537 79.3889 101.074 51.9789 101.074C24.5589 101.074 2.33887 78.8437 2.33887 51.4337C2.33887 24.0137 24.5589 1.7937 51.9789 1.7937Z" fill="#F2F1F0"/>
<path fill-rule="evenodd" clip-rule="evenodd" d="M95.0689 51.4335C95.0689 75.2335 75.7789 94.5235 51.9789 94.5235C28.1789 94.5235 8.88893 75.2335 8.88893 51.4335C8.88893 27.6335 28.1789 8.34352 51.9789 8.34352C75.7789 8.34352 95.0689 27.6335 95.0689 51.4335ZM51.9789 4.60352C77.8389 4.60352 98.8089 25.5735 98.8089 51.4335C98.8089 77.2935 77.8389 98.2635 51.9789 98.2635C26.1189 98.2635 5.14893 77.2935 5.14893 51.4335C5.14893 25.5735 26.1089 4.60352 51.9789 4.60352Z" fill="url(#paint1_linear_810_21695)"/>
<path opacity="0.15" d="M87.8001 48.5007C87.8001 47.7188 87.1624 47.0866 86.386 47.0866C85.8758 47.0866 82.6983 46.8093 80.9903 45.4784C80.9903 45.4784 81.0013 45.4617 80.9903 45.4784C80.347 43.1271 79.3987 40.9311 78.2341 38.8515C77.9347 36.8773 79.9754 35.441 80.9126 33.8994C81.079 33.6277 81.1733 33.4779 81.2287 33.367C81.4006 32.8679 81.3063 32.2856 80.9126 31.8919C80.9126 31.8919 79.3432 29.646 77.735 28.0489C76.1269 26.4518 73.6924 24.6661 73.6924 24.6661C73.1434 24.1171 72.2395 24.1171 71.6905 24.6661C71.3245 25.021 68.9066 27.0174 66.7328 27.3335C66.7051 27.3335 66.7051 27.3335 66.7051 27.3335C64.681 26.1856 62.4073 25.2429 60.1281 24.5996H60.1004C58.4922 23.4129 58.9136 20.9562 58.4922 19.2038C58.4922 18.4219 57.8545 17.7897 57.0781 17.7897C57.0781 17.7897 54.383 17.3184 52.1093 17.3184C49.8357 17.3184 46.8577 17.7897 46.8577 17.7897C46.0758 17.7897 45.4436 18.4275 45.4436 19.2038C45.4436 19.714 45.1664 22.8916 43.8354 24.5996C41.584 25.2373 39.2105 26.2355 37.2086 27.3557C35.2344 27.6552 33.7981 25.6144 32.2565 24.6772C31.9847 24.5109 31.835 24.4166 31.7241 24.3611C31.225 24.1892 30.6427 24.2835 30.249 24.6772C30.249 24.6772 28.0031 26.2466 26.406 27.8548C24.8089 29.463 23.0232 31.8975 23.0232 31.8975C22.4742 32.4465 22.4742 33.3504 23.0232 33.8994C23.3781 34.2543 25.43 36.7109 25.7017 38.8515V38.8681C24.587 40.8701 23.5999 43.2324 22.9678 45.4839C22.9678 45.4839 22.9955 45.4451 22.9678 45.4839C21.5925 47.1587 19.3244 46.6707 17.572 47.0921C16.7901 47.0921 16.1579 47.7298 16.1579 48.5062C16.1579 48.5062 15.6865 51.2013 15.6865 53.475C15.6865 55.7486 16.1579 58.7266 16.1579 58.7266C16.1579 59.5085 16.7956 60.1407 17.572 60.1407C18.0822 60.1407 21.2597 60.4179 22.9678 61.7488C23.0066 61.7322 22.9844 61.7766 22.9844 61.7766C23.6388 64.0391 24.576 66.3017 25.7128 68.3092C25.6961 68.3369 25.7128 68.3092 25.7239 68.3757C25.918 70.4386 23.9826 71.7862 23.0454 73.3278C22.879 73.5996 22.7848 73.7493 22.7293 73.8602C22.5574 74.3593 22.6517 74.9416 23.0454 75.3353C23.0454 75.3353 24.6148 77.5812 26.223 79.1783C27.8312 80.7865 30.2656 82.5611 30.2656 82.5611C30.8146 83.1101 31.7185 83.1101 32.2675 82.5611C32.6225 82.2062 35.0791 80.1543 37.2197 79.8826C37.2197 79.8826 37.2086 79.8937 37.2474 79.8992C39.3103 81.0472 41.4398 81.9511 43.7689 82.5888C43.7855 82.5999 43.8576 82.6165 43.8576 82.6165C45.4658 83.8033 45.0444 86.2599 45.4658 88.0123C45.5546 88.7998 45.9871 89.3044 46.8799 89.4264C46.8799 89.4264 49.575 89.8978 51.8487 89.8978C54.1223 89.8978 57.1003 89.4375 57.1003 89.4375C57.8822 89.3044 58.5144 88.7998 58.5144 88.0234C58.5144 87.5132 58.7916 84.3356 60.1226 82.6276C60.1226 82.6276 60.178 82.5777 60.239 82.5334C62.6069 81.8679 64.4092 81.1359 66.4999 79.9325C66.6052 79.8937 66.4888 79.9048 66.7383 79.866C68.7125 79.5665 70.1488 81.6073 71.6905 82.5444C71.9622 82.7108 72.1119 82.8051 72.2228 82.8605C72.7219 83.0325 73.3042 82.9382 73.6979 82.5444C73.6979 82.5444 75.9439 80.9751 77.541 79.3669C79.1491 77.7587 80.9237 75.3242 80.9237 75.3242C81.4727 74.7752 81.4727 73.8713 80.9237 73.3223C80.5688 72.9674 78.517 70.5107 78.2452 68.3702C78.2175 68.1484 78.2341 68.1206 78.2619 68.0596C79.4541 65.9523 80.2083 64.4107 80.8627 62.0206C80.8627 62.0206 80.835 61.9429 80.9903 61.7433C82.177 60.1351 84.6336 60.5566 86.386 60.1351C87.1679 60.1351 87.8001 59.4974 87.8001 58.721C87.8001 58.721 88.2715 56.0259 88.2715 53.7522C88.2715 51.4786 87.8001 48.5007 87.8001 48.5007Z" fill="#1F1D20"/>
<g filter="url(#filter0_d_810_21695)">
<path d="M87.8001 46.5702C87.8001 45.7883 87.1624 45.1561 86.386 45.1561C85.8758 45.1561 82.6983 44.8789 80.9903 43.548C80.9903 43.548 81.0013 43.5313 80.9903 43.548C80.347 41.1967 79.3987 39.0006 78.2341 36.9211C77.9347 34.9469 79.9754 33.5106 80.9126 31.969C81.079 31.6972 81.1733 31.5475 81.2287 31.4366C81.4006 30.9375 81.3063 30.3552 80.9126 29.9615C80.9126 29.9615 79.3432 27.7156 77.735 26.1185C76.1269 24.5214 73.6924 22.7357 73.6924 22.7357C73.1434 22.1867 72.2395 22.1867 71.6905 22.7357C71.3245 23.0906 68.9066 25.087 66.7328 25.4031C66.7051 25.4031 66.7051 25.4031 66.7051 25.4031C64.681 24.2552 62.4073 23.3124 60.1281 22.6692H60.1004C58.4922 21.4824 58.9136 19.0258 58.4922 17.2734C58.4922 16.4915 57.8545 15.8593 57.0781 15.8593C57.0781 15.8593 54.383 15.3879 52.1093 15.3879C49.8357 15.3879 46.8577 15.8593 46.8577 15.8593C46.0758 15.8593 45.4436 16.497 45.4436 17.2734C45.4436 17.7836 45.1664 20.9612 43.8354 22.6692C41.584 23.3069 39.2105 24.3051 37.2086 25.4253C35.2344 25.7247 33.7981 23.684 32.2565 22.7468C31.9847 22.5804 31.835 22.4862 31.7241 22.4307C31.225 22.2588 30.6427 22.3531 30.249 22.7468C30.249 22.7468 28.0031 24.3162 26.406 25.9244C24.8089 27.5326 23.0232 29.967 23.0232 29.967C22.4742 30.516 22.4742 31.42 23.0232 31.969C23.3781 32.3239 25.43 34.7805 25.7017 36.9211V36.9377C24.587 38.9396 23.5999 41.302 22.9678 43.5535C22.9678 43.5535 22.9955 43.5147 22.9678 43.5535C21.5925 45.2282 19.3244 44.7402 17.572 45.1617C16.7901 45.1617 16.1579 45.7994 16.1579 46.5758C16.1579 46.5758 15.6865 49.2709 15.6865 51.5446C15.6865 53.8182 16.1579 56.7961 16.1579 56.7961C16.1579 57.578 16.7956 58.2102 17.572 58.2102C18.0822 58.2102 21.2597 58.4875 22.9678 59.8184C23.0066 59.8018 22.9844 59.8462 22.9844 59.8462C23.6388 62.1087 24.576 64.3713 25.7128 66.3787C25.6961 66.4065 25.7128 66.3787 25.7239 66.4453C25.918 68.5082 23.9826 69.8558 23.0454 71.3974C22.879 71.6691 22.7848 71.8189 22.7293 71.9298C22.5574 72.4289 22.6517 73.0112 23.0454 73.4049C23.0454 73.4049 24.6148 75.6508 26.223 77.2479C27.8312 78.8561 30.2656 80.6307 30.2656 80.6307C30.8146 81.1797 31.7185 81.1797 32.2675 80.6307C32.6225 80.2758 35.0791 78.2239 37.2197 77.9522C37.2197 77.9522 37.2086 77.9633 37.2474 77.9688C39.3103 79.1167 41.4398 80.0207 43.7689 80.6584C43.7855 80.6695 43.8576 80.6861 43.8576 80.6861C45.4658 81.8728 45.0444 84.3295 45.4658 86.0819C45.5546 86.8693 45.9871 87.374 46.8799 87.496C46.8799 87.496 49.575 87.9674 51.8487 87.9674C54.1223 87.9674 57.1003 87.5071 57.1003 87.5071C57.8822 87.374 58.5144 86.8693 58.5144 86.093C58.5144 85.5828 58.7916 82.4052 60.1226 80.6972C60.1226 80.6972 60.178 80.6473 60.239 80.6029C62.6069 79.9375 64.4092 79.2055 66.4999 78.0021C66.6052 77.9633 66.4888 77.9744 66.7383 77.9356C68.7125 77.6361 70.1488 79.6768 71.6905 80.614C71.9622 80.7804 72.1119 80.8747 72.2228 80.9301C72.7219 81.102 73.3042 81.0078 73.6979 80.614C73.6979 80.614 75.9439 79.0447 77.541 77.4365C79.1491 75.8283 80.9237 73.3938 80.9237 73.3938C81.4727 72.8448 81.4727 71.9409 80.9237 71.3919C80.5688 71.037 78.517 68.5803 78.2452 66.4397C78.2175 66.2179 78.2341 66.1902 78.2619 66.1292C79.4541 64.0219 80.2083 62.4803 80.8627 60.0902C80.8627 60.0902 80.835 60.0125 80.9903 59.8129C82.177 58.2047 84.6336 58.6261 86.386 58.2047C87.1679 58.2047 87.8001 57.567 87.8001 56.7906C87.8001 56.7906 88.2715 54.0955 88.2715 51.8218C88.2604 49.5482 87.8001 46.5702 87.8001 46.5702Z" fill="url(#paint2_radial_810_21695)"/>
</g>
<path d="M26.0343 62.1248C25.929 62.3078 25.9456 62.2689 26.0343 62.1248V62.1248Z" fill="#9FC2F6"/>
<path d="M26.0342 62.121C26.0342 62.1095 26.0457 62.1095 26.0457 62.1038C26.0399 62.1095 26.0342 62.121 26.0342 62.121Z" fill="#9FC2F6"/>
<g opacity="0.15">
<path opacity="0.15" d="M38.0068 60.2236C38.0068 62.0813 39.5208 63.5952 41.3785 63.5952C43.2362 63.5952 44.7502 62.0813 44.7502 60.2236C44.7502 59.4195 44.4618 58.7096 43.996 58.1163L50.0406 46.626C49.2864 46.3432 48.6542 45.9328 48.083 45.3838C46.9794 44.3302 46.2863 42.8384 46.2863 41.1914C46.2863 37.9917 48.8926 35.3742 52.1035 35.3742C55.3143 35.3742 57.9207 37.9806 57.9207 41.1914C57.9207 41.685 57.8431 42.1619 57.7211 42.6166L59.9171 43.4873C60.1278 42.7442 60.2997 41.9955 60.2997 41.1914C60.2997 36.6774 56.6175 33.0007 52.109 33.0007C47.6005 33.0007 43.9128 36.6718 43.9128 41.1859C43.9128 43.7146 45.094 45.9495 46.8796 47.4634L41.9164 56.9184C41.7334 56.8907 41.5559 56.8685 41.3563 56.8685C39.5208 56.8741 38.0068 58.3658 38.0068 60.2236Z" fill="#1F1D20"/>
<path opacity="0.15" d="M62.5736 63.5891C64.4313 63.5891 65.9453 62.0751 65.9453 60.2174C65.9453 58.3597 64.4313 56.8458 62.5736 56.8458C61.1484 56.8458 59.9173 57.7497 59.4348 59.014H47.0518C47.1294 59.3967 47.1848 59.7849 47.1848 60.1952C47.1848 60.6056 47.1349 60.9993 47.0518 61.3764C46.5028 64.0216 44.1626 66.0069 41.3565 66.0069C38.1568 66.0069 35.5393 63.4005 35.5393 60.1897C35.5393 57.7108 37.1142 55.5869 39.3213 54.7551L38.6282 52.5203C35.4617 53.6515 33.1714 56.6627 33.1714 60.2008C33.1714 64.7148 36.8536 68.3915 41.3621 68.3915C45.4657 68.3915 48.854 65.3304 49.4474 61.382H59.4348C59.9173 62.6907 61.1318 63.5891 62.5736 63.5891Z" fill="#1F1D20"/>
<path opacity="0.15" d="M62.5736 52.0266C61.7806 52.0266 61.0486 52.1763 60.3277 52.387C60.3055 52.387 60.3055 52.387 60.3 52.387V52.4092V52.387L54.7822 43.2203C55.2148 42.6602 55.4865 41.956 55.4865 41.1851C55.4865 39.3274 53.9726 37.8135 52.1148 37.8135C50.2571 37.8135 48.7432 39.3274 48.7432 41.1851C48.7432 43.0429 50.2571 44.5568 52.1148 44.5568C52.3255 44.5568 52.5474 44.5346 52.7581 44.4847L59.3073 55.4537C59.9783 55.0101 60.8212 54.633 61.642 54.4832C61.9525 54.4333 62.2631 54.4056 62.5736 54.4056C65.7734 54.4056 68.3908 57.012 68.3908 60.2228C68.3908 63.4226 65.7845 66.04 62.5736 66.04C61.1096 66.04 59.7842 65.4966 58.7639 64.5982L57.0891 66.2729C58.531 67.6094 60.4608 68.4301 62.5736 68.4301C67.0877 68.4301 70.7643 64.7479 70.7643 60.2394C70.7699 55.7088 67.0877 52.0266 62.5736 52.0266Z" fill="#1F1D20"/>
</g>
<path d="M38.0068 59.0309C38.0068 60.8887 39.5208 62.4026 41.3785 62.4026C43.2362 62.4026 44.7502 60.8887 44.7502 59.0309C44.7502 58.2268 44.4618 57.517 43.996 56.9236L50.0406 45.4334C49.2864 45.1506 48.6542 44.7402 48.083 44.1912C46.9794 43.1375 46.2863 41.6458 46.2863 39.9988C46.2863 36.799 48.8926 34.1816 52.1035 34.1816C55.3143 34.1816 57.9207 36.788 57.9207 39.9988C57.9207 40.4923 57.8431 40.9693 57.7211 41.424L59.9171 42.2946C60.1278 41.5515 60.2997 40.8029 60.2997 39.9988C60.2997 35.4848 56.6175 31.8081 52.109 31.8081C47.6005 31.8081 43.9128 35.4848 43.9128 39.9988C43.9128 42.5275 45.094 44.7624 46.8796 46.2763L41.9164 55.7314C41.7334 55.7036 41.5559 55.6815 41.3563 55.6815C39.5208 55.6815 38.0068 57.1787 38.0068 59.0309Z" fill="#F2F1F0"/>
<path d="M62.5736 62.4023C64.4313 62.4023 65.9453 60.8884 65.9453 59.0306C65.9453 57.1729 64.4313 55.659 62.5736 55.659C61.1484 55.659 59.9173 56.5629 59.4348 57.8273H47.0518C47.1294 58.2099 47.1848 58.5981 47.1848 59.0085C47.1848 59.4188 47.1349 59.8126 47.0518 60.1896C46.5028 62.8348 44.1626 64.8201 41.3565 64.8201C38.1568 64.8201 35.5393 62.2138 35.5393 59.0029C35.5393 56.5241 37.1142 54.4002 39.3213 53.5683L38.6282 51.3335C35.4617 52.4648 33.1714 55.476 33.1714 59.014C33.1714 63.528 36.8536 67.2047 41.3621 67.2047C45.4657 67.2047 48.854 64.1436 49.4474 60.1952H59.4348C59.9173 61.4984 61.1318 62.4023 62.5736 62.4023Z" fill="#F2F1F0"/>
<path d="M62.5736 50.8401C61.7806 50.8401 61.0486 50.9898 60.3277 51.2005C60.3055 51.2005 60.3055 51.2005 60.3 51.2005V51.2227V51.2005L54.7822 42.0338C55.2148 41.4737 55.4865 40.7694 55.4865 39.9986C55.4865 38.1409 53.9726 36.627 52.1148 36.627C50.2571 36.627 48.7432 38.1409 48.7432 39.9986C48.7432 41.8564 50.2571 43.3703 52.1148 43.3703C52.3255 43.3703 52.5474 43.3481 52.7581 43.2982L59.3073 54.2672C59.9783 53.8235 60.8212 53.4464 61.642 53.2967C61.9525 53.2468 62.2631 53.2191 62.5736 53.2191C65.7734 53.2191 68.3908 55.8254 68.3908 59.0363C68.3908 62.236 65.7845 64.8535 62.5736 64.8535C61.1096 64.8535 59.7842 64.3101 58.7639 63.4117L57.0891 65.0864C58.531 66.4229 60.4608 67.2436 62.5736 67.2436C67.0877 67.2436 70.7643 63.5614 70.7643 59.0529C70.7699 54.5167 67.0877 50.8401 62.5736 50.8401Z" fill="#F2F1F0"/>
<path opacity="0.15" d="M51.9709 49.2436C57.8146 49.2436 62.5517 44.5064 62.5517 38.6628C62.5517 32.8192 57.8146 28.082 51.9709 28.082C46.1273 28.082 41.3901 32.8192 41.3901 38.6628C41.3901 44.5064 46.1273 49.2436 51.9709 49.2436Z" fill="#1F1D20"/>
<g filter="url(#filter1_d_810_21695)">
<path d="M51.9709 47.8967C57.8146 47.8967 62.5517 43.1595 62.5517 37.3159C62.5517 31.4723 57.8146 26.7351 51.9709 26.7351C46.1273 26.7351 41.3901 31.4723 41.3901 37.3159C41.3901 43.1595 46.1273 47.8967 51.9709 47.8967Z" fill="white"/>
</g>
<path d="M57.3668 41.8069C57.0673 39.1229 54.766 37.0156 51.9766 37.0156C49.2149 37.0156 46.9357 39.0841 46.5864 41.7459C46.542 41.9234 46.542 42.1341 46.542 42.3171C46.6141 43.0713 47.1409 43.8089 48.128 44.3856C50.2408 45.6 53.7012 45.6 55.7919 44.3856C56.779 43.8089 57.2892 43.0768 57.3557 42.3171C57.4167 42.1508 57.3945 41.9678 57.3668 41.8069Z" fill="url(#paint3_linear_810_21695)"/>
<path d="M51.9819 35.6078C53.7842 35.6078 55.2427 34.1549 55.2427 32.3637C55.2482 30.5669 53.7842 29.114 51.9819 29.114C50.1852 29.114 48.7212 30.5669 48.7212 32.3581C48.7212 34.1493 50.1852 35.6078 51.9819 35.6078Z" fill="url(#paint4_linear_810_21695)"/>
<path opacity="0.15" d="M38.9553 71.7634C44.7989 71.7634 49.5361 67.0262 49.5361 61.1826C49.5361 55.339 44.7989 50.6018 38.9553 50.6018C33.1117 50.6018 28.3745 55.339 28.3745 61.1826C28.3745 67.0262 33.1117 71.7634 38.9553 71.7634Z" fill="#1F1D20"/>
<g filter="url(#filter2_d_810_21695)">
<path d="M38.9553 69.967C44.7989 69.967 49.5361 65.2298 49.5361 59.3862C49.5361 53.5426 44.7989 48.8054 38.9553 48.8054C33.1117 48.8054 28.3745 53.5426 28.3745 59.3862C28.3745 65.2298 33.1117 69.967 38.9553 69.967Z" fill="white"/>
</g>
<path d="M44.3512 63.8765C44.0517 61.1925 41.7503 59.0852 38.9609 59.0852C36.1993 59.0852 33.9201 61.1537 33.5707 63.8155C33.5264 63.993 33.5264 64.2037 33.5264 64.3867C33.5985 65.1409 34.1253 65.8784 35.1124 66.4552C37.2252 67.6696 40.6856 67.6696 42.7763 66.4552C43.7633 65.8784 44.2735 65.1464 44.3401 64.3867C44.4011 64.2203 44.3789 64.0373 44.3512 63.8765Z" fill="url(#paint5_linear_810_21695)"/>
<path d="M38.9609 57.6774C40.7632 57.6774 42.2217 56.2244 42.2217 54.4332C42.2272 52.6365 40.7632 51.1836 38.9609 51.1836C37.1642 51.1836 35.7002 52.6365 35.7002 54.4277C35.7057 56.2189 37.1697 57.6774 38.9609 57.6774Z" fill="url(#paint6_linear_810_21695)"/>
<path opacity="0.15" d="M64.9856 71.5417C70.8292 71.5417 75.5664 66.8045 75.5664 60.9609C75.5664 55.1173 70.8292 50.3801 64.9856 50.3801C59.142 50.3801 54.4048 55.1173 54.4048 60.9609C54.4048 66.8045 59.142 71.5417 64.9856 71.5417Z" fill="#1F1D20"/>
<g filter="url(#filter3_d_810_21695)">
<path d="M64.9856 69.967C70.8292 69.967 75.5664 65.2298 75.5664 59.3862C75.5664 53.5426 70.8292 48.8054 64.9856 48.8054C59.142 48.8054 54.4048 53.5426 54.4048 59.3862C54.4048 65.2298 59.142 69.967 64.9856 69.967Z" fill="white"/>
</g>
<path d="M70.3868 63.8765C70.0874 61.1925 67.786 59.0852 64.9966 59.0852C62.2349 59.0852 59.9557 61.1537 59.6064 63.8155C59.562 63.993 59.562 64.2037 59.562 64.3867C59.6341 65.1409 60.1609 65.8784 61.148 66.4552C63.2609 67.6696 66.7212 67.6696 68.8119 66.4552C69.799 65.8784 70.3092 65.1464 70.3757 64.3867C70.4312 64.2203 70.409 64.0373 70.3868 63.8765Z" fill="url(#paint7_linear_810_21695)"/>
<path d="M64.9966 57.6774C66.7989 57.6774 68.2573 56.2244 68.2573 54.4332C68.2629 52.6365 66.7989 51.1836 64.9966 51.1836C63.1999 51.1836 61.7358 52.6365 61.7358 54.4277C61.7358 56.2189 63.1999 57.6774 64.9966 57.6774Z" fill="url(#paint8_linear_810_21695)"/>
<defs>
<filter id="filter0_d_810_21695" x="11.6865" y="13.3879" width="80.585" height="80.5793" filterUnits="userSpaceOnUse" color-interpolation-filters="sRGB">
<feFlood flood-opacity="0" result="BackgroundImageFix"/>
<feColorMatrix in="SourceAlpha" type="matrix" values="0 0 0 0 0 0 0 0 0 0 0 0 0 0 0 0 0 0 127 0" result="hardAlpha"/>
<feOffset dy="2"/>
<feGaussianBlur stdDeviation="2"/>
<feComposite in2="hardAlpha" operator="out"/>
<feColorMatrix type="matrix" values="0 0 0 0 0 0 0 0 0 0 0 0 0 0 0 0 0 0 0.25 0"/>
<feBlend mode="normal" in2="BackgroundImageFix" result="effect1_dropShadow_810_21695"/>
<feBlend mode="normal" in="SourceGraphic" in2="effect1_dropShadow_810_21695" result="shape"/>
</filter>
<filter id="filter1_d_810_21695" x="37.3901" y="24.7351" width="29.1616" height="29.1616" filterUnits="userSpaceOnUse" color-interpolation-filters="sRGB">
<feFlood flood-opacity="0" result="BackgroundImageFix"/>
<feColorMatrix in="SourceAlpha" type="matrix" values="0 0 0 0 0 0 0 0 0 0 0 0 0 0 0 0 0 0 127 0" result="hardAlpha"/>
<feOffset dy="2"/>
<feGaussianBlur stdDeviation="2"/>
<feComposite in2="hardAlpha" operator="out"/>
<feColorMatrix type="matrix" values="0 0 0 0 0 0 0 0 0 0 0 0 0 0 0 0 0 0 0.25 0"/>
<feBlend mode="normal" in2="BackgroundImageFix" result="effect1_dropShadow_810_21695"/>
<feBlend mode="normal" in="SourceGraphic" in2="effect1_dropShadow_810_21695" result="shape"/>
</filter>
<filter id="filter2_d_810_21695" x="24.3745" y="46.8054" width="29.1616" height="29.1616" filterUnits="userSpaceOnUse" color-interpolation-filters="sRGB">
<feFlood flood-opacity="0" result="BackgroundImageFix"/>
<feColorMatrix in="SourceAlpha" type="matrix" values="0 0 0 0 0 0 0 0 0 0 0 0 0 0 0 0 0 0 127 0" result="hardAlpha"/>
<feOffset dy="2"/>
<feGaussianBlur stdDeviation="2"/>
<feComposite in2="hardAlpha" operator="out"/>
<feColorMatrix type="matrix" values="0 0 0 0 0 0 0 0 0 0 0 0 0 0 0 0 0 0 0.25 0"/>
<feBlend mode="normal" in2="BackgroundImageFix" result="effect1_dropShadow_810_21695"/>
<feBlend mode="normal" in="SourceGraphic" in2="effect1_dropShadow_810_21695" result="shape"/>
</filter>
<filter id="filter3_d_810_21695" x="50.4048" y="46.8054" width="29.1616" height="29.1616" filterUnits="userSpaceOnUse" color-interpolation-filters="sRGB">
<feFlood flood-opacity="0" result="BackgroundImageFix"/>
<feColorMatrix in="SourceAlpha" type="matrix" values="0 0 0 0 0 0 0 0 0 0 0 0 0 0 0 0 0 0 127 0" result="hardAlpha"/>
<feOffset dy="2"/>
<feGaussianBlur stdDeviation="2"/>
<feComposite in2="hardAlpha" operator="out"/>
<feColorMatrix type="matrix" values="0 0 0 0 0 0 0 0 0 0 0 0 0 0 0 0 0 0 0.25 0"/>
<feBlend mode="normal" in2="BackgroundImageFix" result="effect1_dropShadow_810_21695"/>
<feBlend mode="normal" in="SourceGraphic" in2="effect1_dropShadow_810_21695" result="shape"/>
</filter>
<linearGradient id="paint0_linear_810_21695" x1="50.0329" y1="9.93206" x2="51.4129" y2="98.253" gradientUnits="userSpaceOnUse">
<stop offset="0.2" stop-color="white"/>
<stop offset="0.63" stop-color="#F4F3F5"/>
<stop offset="1" stop-color="#E8E6DF"/>
</linearGradient>
<linearGradient id="paint1_linear_810_21695" x1="41.5151" y1="-22.4674" x2="54.3216" y2="105.517" gradientUnits="userSpaceOnUse">
<stop stop-color="#FE90BE"/>
<stop offset="0.26" stop-color="#D68DC2"/>
<stop offset="0.61" stop-color="#007ED8"/>
<stop offset="0.93" stop-color="#002D4C"/>
</linearGradient>
<radialGradient id="paint2_radial_810_21695" cx="0" cy="0" r="1" gradientUnits="userSpaceOnUse" gradientTransform="translate(12.5202 2.17603) rotate(50.1093) scale(115.248 136.154)">
<stop stop-color="#FE90BE"/>
<stop offset="0.197879" stop-color="#D68DC2"/>
<stop offset="0.61" stop-color="#007ED8"/>
<stop offset="0.93" stop-color="#002D4C"/>
</radialGradient>
<linearGradient id="paint3_linear_810_21695" x1="43.2932" y1="18.276" x2="72.6254" y2="98.3495" gradientUnits="userSpaceOnUse">
<stop stop-color="#007ED8"/>
<stop offset="0.7065" stop-color="#002D4C"/>
</linearGradient>
<linearGradient id="paint4_linear_810_21695" x1="46.4048" y1="17.1369" x2="75.737" y2="97.2103" gradientUnits="userSpaceOnUse">
<stop stop-color="#007ED8"/>
<stop offset="0.7065" stop-color="#002D4C"/>
</linearGradient>
<linearGradient id="paint5_linear_810_21695" x1="24.6177" y1="24.8977" x2="53.9499" y2="104.971" gradientUnits="userSpaceOnUse">
<stop stop-color="#007ED8"/>
<stop offset="0.7065" stop-color="#002D4C"/>
</linearGradient>
<linearGradient id="paint6_linear_810_21695" x1="27.7295" y1="23.7585" x2="57.0616" y2="103.832" gradientUnits="userSpaceOnUse">
<stop stop-color="#007ED8"/>
<stop offset="0.7065" stop-color="#002D4C"/>
</linearGradient>
<linearGradient id="paint7_linear_810_21695" x1="47.7116" y1="16.8736" x2="77.0437" y2="96.9471" gradientUnits="userSpaceOnUse">
<stop stop-color="#007ED8"/>
<stop offset="0.7065" stop-color="#002D4C"/>
</linearGradient>
<linearGradient id="paint8_linear_810_21695" x1="50.8233" y1="15.7344" x2="80.1555" y2="95.8078" gradientUnits="userSpaceOnUse">
<stop stop-color="#007ED8"/>
<stop offset="0.7065" stop-color="#002D4C"/>
</linearGradient>
</defs>
</svg>
