<svg width="103" height="103" viewBox="0 0 103 103" fill="none" xmlns="http://www.w3.org/2000/svg">
<path d="M51.185 98.5648C25.335 98.5648 4.375 77.6148 4.375 51.7548C4.375 25.8948 25.335 4.94482 51.185 4.94482C77.035 4.94482 97.995 25.9048 97.995 51.7548C97.995 77.6048 77.035 98.5648 51.185 98.5648Z" fill="url(#paint0_linear_625_1970)"/>
<path fill-rule="evenodd" clip-rule="evenodd" d="M97.0849 51.755C97.0849 77.105 76.5349 97.655 51.1849 97.655C25.8349 97.655 5.28492 77.105 5.28492 51.755C5.28492 26.405 25.8349 5.855 51.1849 5.855C76.5349 5.855 97.0849 26.405 97.0849 51.755ZM51.1849 2.11499C78.6049 2.11499 100.825 24.335 100.825 51.755C100.825 79.175 78.5949 101.395 51.1849 101.395C23.7649 101.395 1.54492 79.165 1.54492 51.755C1.54492 24.335 23.7649 2.11499 51.1849 2.11499Z" fill="#F2F1F0"/>
<path fill-rule="evenodd" clip-rule="evenodd" d="M94.275 51.7549C94.275 75.5549 74.985 94.8449 51.185 94.8449C27.385 94.8449 8.09498 75.5549 8.09498 51.7549C8.09498 27.9549 27.385 8.66493 51.185 8.66493C74.985 8.66493 94.275 27.9549 94.275 51.7549ZM51.185 4.92493C77.045 4.92493 98.015 25.8949 98.015 51.7549C98.015 77.6149 77.045 98.5849 51.185 98.5849C25.325 98.5849 4.35498 77.6149 4.35498 51.7549C4.35498 25.8949 25.315 4.92493 51.185 4.92493Z" fill="url(#paint1_linear_625_1970)"/>
<path d="M85.1736 34.4961H40.3314C39.9553 34.4961 39.6465 34.8128 39.6465 35.2077V65.2792C39.6465 65.67 39.9513 65.9908 40.3314 65.9908H85.1736C85.5497 65.9908 85.8586 65.6741 85.8586 65.2792V35.2077C85.8586 34.8169 85.5537 34.4961 85.1736 34.4961Z" fill="white"/>
<path d="M39.6147 55.5637V68.3023C39.6147 68.4915 39.686 68.6725 39.8167 68.8041C39.9434 68.9357 40.1176 69.0139 40.2997 69.0139H85.1854C85.3675 69.0139 85.5417 68.9398 85.6684 68.8041C85.7951 68.6725 85.8704 68.4915 85.8704 68.3023V55.5637H39.6147V55.5637Z" fill="white"/>
<path d="M85.8586 38.8109V35.2077C85.8586 35.1131 85.8427 35.0226 85.8071 34.9362C85.7714 34.8499 85.7239 34.7717 85.6606 34.7059C85.5972 34.6401 85.522 34.5866 85.4389 34.5537C85.3557 34.5167 85.2686 34.5002 85.1776 34.5002H40.3314C40.1493 34.5002 39.9751 34.5743 39.8484 34.71C39.7217 34.8416 39.6465 35.0226 39.6465 35.2118V38.815H85.8586V38.8109Z" fill="url(#paint2_linear_625_1970)"/>
<path d="M85.7277 34.7922C85.6644 34.7018 85.5812 34.6277 85.4862 34.5742C85.3912 34.5249 85.2843 34.4961 85.1774 34.4961H65.6426L68.612 38.8067H85.8584V35.2036C85.8584 35.0843 85.8267 34.965 85.7713 34.8622C85.7554 34.8416 85.7436 34.8169 85.7277 34.7922Z" fill="url(#paint3_linear_625_1970)"/>
<path d="M58.5202 35.6189H41.939V37.7331H58.5202V35.6189Z" fill="#106EBE"/>
<path d="M56.6316 35.6189H41.7964V37.7331H56.6316V35.6189V35.6189Z" fill="#B5D5EA"/>
<path d="M84.2669 35.5408H80.7749V35.9932H84.2669V35.5408Z" fill="#7ABDEA"/>
<path d="M84.2669 36.4497H80.7749V36.9022H84.2669V36.4497Z" fill="#7ABDEA"/>
<path d="M84.2669 37.3384H80.7749V37.7908H84.2669V37.3384Z" fill="#7ABDEA"/>
<path fill-rule="evenodd" clip-rule="evenodd" d="M36.478 41.0321C36.478 40.8112 36.6571 40.6321 36.878 40.6321H42.3221V41.4321H37.278V64.0108H42.3128V64.8108H36.878C36.6571 64.8108 36.478 64.6317 36.478 64.4108V41.0321Z" fill="white"/>
<path fill-rule="evenodd" clip-rule="evenodd" d="M28.9546 51.5779H36.9622V52.3779H28.9546V51.5779Z" fill="white"/>
<path opacity="0.15" d="M34.3461 38.2632H14.752V66.761H34.3461V38.2632Z" fill="#1F1D20"/>
<path d="M34.3461 36.749H14.752V65.2469H34.3461V36.749Z" fill="url(#paint4_linear_625_1970)"/>
<path d="M30.78 40.3149H18.3179V45.6526H30.7876V40.3149H30.78Z" fill="white"/>
<path d="M20.0971 49.2188H18.3179V50.998H20.0971V49.2188Z" fill="#2BC0E4"/>
<path d="M20.0971 54.5564H18.3179V56.3356H20.0971V54.5564Z" fill="#057DD8"/>
<path d="M20.0971 59.9092H18.3179V61.6884H20.0971V59.9092Z" fill="#2056A3"/>
<path d="M25.4423 49.2188H23.6631V50.998H25.4423V49.2188Z" fill="#2BC0E4"/>
<path d="M25.4423 54.5564H23.6631V56.3356H25.4423V54.5564Z" fill="#057DD8"/>
<path d="M25.4423 59.9092H23.6631V61.6884H25.4423V59.9092Z" fill="#2056A3"/>
<path d="M30.7802 49.2188H29.001V50.998H30.7802V49.2188Z" fill="#2BC0E4"/>
<path d="M30.7802 54.5564H29.001V56.3356H30.7802V54.5564Z" fill="#057DD8"/>
<path d="M30.7802 59.9092H29.001V61.6884H30.7802V59.9092Z" fill="#2056A3"/>
<path fill-rule="evenodd" clip-rule="evenodd" d="M66.9702 47.3942C65.0543 45.0268 62.1245 43.5198 58.843 43.5198C53.0699 43.5198 48.3974 48.1936 48.3974 53.9569C48.3974 54.858 48.5095 55.7337 48.7235 56.5687C46.6089 56.6247 44.9121 58.3557 44.9121 60.4788C44.9121 62.6426 46.6649 64.394 48.8305 64.394H75.8261C77.9865 64.394 79.7444 62.6426 79.7444 60.4788C79.7444 58.3201 77.9916 56.5636 75.8261 56.5636H75.7547C76.0808 55.7592 76.2592 54.8784 76.2592 53.9518C76.2592 50.1079 73.1408 46.9869 69.2886 46.9869C68.4785 47.0022 67.6938 47.1448 66.9702 47.3942Z" fill="url(#paint5_linear_625_1970)"/>
<path opacity="0.15" d="M81.3249 72.1491C85.4849 72.1491 88.8549 68.7791 88.8549 64.6191C88.8549 60.4591 85.4849 57.0891 81.3249 57.0891C77.1649 57.0891 73.7949 60.4591 73.7949 64.6191C73.8049 68.7791 77.1749 72.1491 81.3249 72.1491Z" fill="#1F1D20"/>
<path d="M81.3249 71.299C85.4849 71.299 88.8549 67.929 88.8549 63.769C88.8549 59.609 85.4849 56.239 81.3249 56.239C77.1649 56.239 73.7949 59.609 73.7949 63.769C73.8049 67.929 77.1749 71.299 81.3249 71.299Z" fill="#002D4C"/>
<path opacity="0.3" d="M85.425 60.479L79.225 66.709L77.365 64.839L76.125 66.089L79.225 69.199L86.675 61.729L85.425 60.479Z" fill="#1F1D20"/>
<path d="M85.425 59.949L79.225 66.179L77.365 64.309L76.125 65.559L79.225 68.669L86.675 61.199L85.425 59.949Z" fill="#FAF9F8"/>
<defs>
<linearGradient id="paint0_linear_625_1970" x1="49.4111" y1="-13.0347" x2="53.3931" y2="132.736" gradientUnits="userSpaceOnUse">
<stop stop-color="#00ABDE"/>
<stop offset="1" stop-color="#007ED8"/>
</linearGradient>
<linearGradient id="paint1_linear_625_1970" x1="2.61538" y1="-19.8677" x2="98.1429" y2="121.014" gradientUnits="userSpaceOnUse">
<stop stop-color="#007ED8"/>
<stop offset="0.7065" stop-color="#002D4C"/>
</linearGradient>
<linearGradient id="paint2_linear_625_1970" x1="39.6486" y1="36.6531" x2="85.858" y2="36.6531" gradientUnits="userSpaceOnUse">
<stop stop-color="#007ED8"/>
<stop offset="0.7065" stop-color="#002D4C"/>
</linearGradient>
<linearGradient id="paint3_linear_625_1970" x1="79.2768" y1="26.0837" x2="75.113" y2="37.6448" gradientUnits="userSpaceOnUse">
<stop stop-color="#007ED8"/>
<stop offset="0.7065" stop-color="#002D4C"/>
</linearGradient>
<linearGradient id="paint4_linear_625_1970" x1="1.27269" y1="28.1536" x2="10.0549" y2="70.8099" gradientUnits="userSpaceOnUse">
<stop stop-color="#007ED8"/>
<stop offset="0.886694" stop-color="#002D4C"/>
</linearGradient>
<linearGradient id="paint5_linear_625_1970" x1="61.3838" y1="31.6218" x2="62.5462" y2="67.2015" gradientUnits="userSpaceOnUse">
<stop offset="0.474" stop-color="#50E6FF"/>
<stop offset="1" stop-color="#0078D4"/>
</linearGradient>
</defs>
</svg>
