<svg width="103" height="103" viewBox="0 0 103 103" fill="none" xmlns="http://www.w3.org/2000/svg">
<path d="M51.2206 98.4423C25.3706 98.4423 4.41064 77.4923 4.41064 51.6323C4.41064 25.7723 25.3706 4.82227 51.2206 4.82227C77.0706 4.82227 98.0306 25.7823 98.0306 51.6323C98.0306 77.4823 77.0706 98.4423 51.2206 98.4423Z" fill="url(#paint0_linear_519_4067)"/>
<path fill-rule="evenodd" clip-rule="evenodd" d="M97.1206 51.6322C97.1206 76.9822 76.5706 97.5322 51.2206 97.5322C25.8706 97.5322 5.32057 76.9822 5.32057 51.6322C5.32057 26.2822 25.8706 5.73219 51.2206 5.73219C76.5706 5.73219 97.1206 26.2822 97.1206 51.6322ZM51.2206 1.99219C78.6406 1.99219 100.861 24.2122 100.861 51.6322C100.861 79.0522 78.6306 101.272 51.2206 101.272C23.8006 101.272 1.58057 79.0422 1.58057 51.6322C1.58057 24.2122 23.8006 1.99219 51.2206 1.99219Z" fill="#F2F1F0"/>
<path fill-rule="evenodd" clip-rule="evenodd" d="M94.3106 51.6322C94.3106 75.4322 75.0206 94.7222 51.2206 94.7222C27.4206 94.7222 8.13062 75.4322 8.13062 51.6322C8.13062 27.8322 27.4206 8.54225 51.2206 8.54225C75.0206 8.54225 94.3106 27.8322 94.3106 51.6322ZM51.2206 4.80225C77.0806 4.80225 98.0506 25.7722 98.0506 51.6322C98.0506 77.4922 77.0806 98.4623 51.2206 98.4623C25.3606 98.4623 4.39062 77.4922 4.39062 51.6322C4.39062 25.7722 25.3506 4.80225 51.2206 4.80225Z" fill="url(#paint1_linear_519_4067)"/>
<path d="M89.5862 50.7891L70.9712 50.7891" stroke="white" stroke-width="0.8" stroke-miterlimit="10" stroke-linejoin="round"/>
<path d="M88.8213 48.1689L93.3565 50.7891L88.8213 53.4042V48.1689Z" fill="white"/>
<path fill-rule="evenodd" clip-rule="evenodd" d="M73.477 62.9626L55.8515 75.538L56.3161 76.1892L74.109 63.4945C74.214 63.4195 74.2765 63.2985 74.2766 63.1694L74.312 38.9069C74.3122 38.7668 74.2391 38.6368 74.1193 38.5642L56.5909 27.9463L56.1764 28.6305L73.5117 39.1315L73.477 62.9626Z" fill="white"/>
<path opacity="0.15" d="M56.3348 29.2623L21.2183 28.9737C20.4566 28.9657 19.8393 29.575 19.8393 30.3367L19.4625 76.1645C19.4545 76.9262 20.0638 77.5435 20.8254 77.5435L55.942 77.8322C56.7036 77.8402 57.321 77.2308 57.321 76.4692L57.6978 30.6413C57.6898 29.8877 57.0804 29.2704 56.3348 29.2623Z" fill="#1F1D20"/>
<path d="M56.3428 27.8112L21.2263 27.5225C20.4647 27.5145 19.8473 28.1238 19.8473 28.8855L19.4625 74.7053C19.4545 75.467 20.0638 76.0843 20.8254 76.0843L55.942 76.373C56.7036 76.381 57.321 75.7717 57.321 75.01L57.6978 29.1822C57.6978 28.4365 57.0965 27.8192 56.3428 27.8112Z" fill="#F2F2F2"/>
<path opacity="0.15" d="M53.8974 29.3828H23.2627V72.0438H53.8974V29.3828Z" fill="#1F1D20"/>
<path d="M53.8974 28.8933H23.2627V71.5543H53.8974V28.8933Z" fill="white"/>
<path fill-rule="evenodd" clip-rule="evenodd" d="M40.4123 22.4874C41.4064 23.0246 41.9837 24.0909 41.9757 25.2133V25.4859C41.9757 25.5902 41.9677 25.6783 41.9596 25.7826L44.1163 25.7986C44.7577 25.8066 45.359 26.1273 45.6797 26.6885C46.5777 28.284 45.4392 29.9036 43.94 29.8875L33.0522 29.8073C32.4108 29.7993 31.8095 29.4786 31.4888 28.9174C30.5909 27.3219 31.7294 25.7024 33.2286 25.7184L35.233 25.7345C35.225 25.6383 35.225 25.5421 35.225 25.4378V25.3496C35.257 22.9123 37.8467 21.1084 40.4123 22.4874Z" fill="#243A5E"/>
<path d="M38.5685 26.953C39.3381 26.9611 39.9635 26.3437 39.9715 25.574C39.9795 24.8044 39.3622 24.179 38.5925 24.171C37.8228 24.163 37.1975 24.7803 37.1895 25.55C37.1895 26.3197 37.7988 26.945 38.5685 26.953Z" fill="#01A0DD"/>
<path opacity="0.2" d="M85.2772 64.7811C85.9856 64.7835 86.5648 64.2082 86.5672 63.4998L86.6464 40.1122L61.3608 40.0266L61.2817 63.4055C61.2793 64.1139 61.8546 64.6931 62.5631 64.6955L85.2772 64.7811Z" fill="#1F1D21"/>
<path d="M86.6479 39.7095L86.6493 39.3159C86.6509 38.8261 86.2587 38.44 85.7776 38.4383L62.2413 38.3587C61.7603 38.357 61.3654 38.7493 61.3637 39.2303L61.3623 39.6677L61.3609 40.0612L61.2847 62.583C61.283 63.0727 61.6753 63.4589 62.1564 63.4605L85.6839 63.5402C86.1737 63.5418 86.5599 63.1496 86.5615 62.6685L86.6391 39.7532C86.6566 39.7358 86.6479 39.727 86.6479 39.7095Z" fill="white"/>
<path d="M71.0654 56.5263H70.5298V45.5998L76.7429 45.573L76.7563 46.1086L71.0654 46.1354V56.5263Z" fill="#9B9BA0"/>
<path d="M73.4226 50.6074H71.481V51.143H73.4226V50.6074Z" fill="#C7C7C7"/>
<path d="M73.1406 51.866L74.8546 50.8752L73.1406 49.8843V51.866Z" fill="#C7C7C7"/>
<path d="M67.6501 50.6074H65.7085V51.143H67.6501V50.6074Z" fill="#C7C7C7"/>
<path d="M67.3569 51.866L69.0709 50.8752L67.3569 49.8843V51.866Z" fill="#C7C7C7"/>
<path d="M79.6613 50.6074H77.7197V51.143H79.6613V50.6074Z" fill="#C7C7C7"/>
<path d="M79.3813 51.866L81.0953 50.8752L79.3813 49.8843V51.866Z" fill="#C7C7C7"/>
<path d="M78.5109 44.1533H75.083V47.5946H78.5243V44.1533H78.5109Z" fill="#FDC4C5"/>
<path d="M85.125 50.8762L83.1165 48.8677L81.1079 50.8762L83.1165 52.8848L85.125 50.8762Z" fill="#D166CB"/>
<path d="M72.4989 49.1616H69.0576V52.5895H72.4989V49.1616Z" fill="#FD7853"/>
<path d="M71.5614 54.2231H70.0081C69.4859 54.2231 69.0708 54.6382 69.0708 55.1605V56.7137C69.0708 57.236 69.4859 57.6511 70.0081 57.6511H71.5614C72.0836 57.6511 72.4987 57.236 72.4987 56.7137V55.1605C72.4987 54.6382 72.0702 54.2231 71.5614 54.2231Z" fill="#83462B"/>
<path d="M71.7754 44.1533H69.7936L68.8027 45.8673L69.7936 47.5812H71.7754L72.7663 45.8673L71.7754 44.1533Z" fill="#FFB39D"/>
<path d="M64.7587 52.8306C65.8433 52.8306 66.7137 51.9603 66.7137 50.8756C66.7137 49.791 65.8433 48.9207 64.7587 48.9207C63.6741 48.9207 62.8037 49.791 62.8037 50.8756C62.8037 51.9603 63.6741 52.8306 64.7587 52.8306Z" fill="#FDBE52"/>
<path d="M76.7963 52.8306C77.8809 52.8306 78.7513 51.9603 78.7513 50.8756C78.7513 49.791 77.8809 48.9207 76.7963 48.9207C75.7117 48.9207 74.8413 49.791 74.8413 50.8756C74.8413 51.9603 75.7251 52.8306 76.7963 52.8306Z" fill="#FD5A5F"/>
<path opacity="0.15" d="M39.9644 63.0525C44.8237 62.4631 48.8531 58.8707 49.9998 54.1196C51.1023 49.549 49.3904 44.7698 45.6456 41.9352C45.5694 41.875 45.5574 41.7949 45.5574 41.7508C45.5574 41.7107 45.5694 41.6225 45.6576 41.5503L46.1789 41.1774C46.5958 40.8887 47.1732 40.9168 47.5581 41.2656C51.2788 44.5934 52.8544 49.6732 51.6837 54.5286C50.3606 60.0054 45.7138 64.119 40.1087 64.7685L39.5714 64.8326L39.7639 66.8694C39.7799 67.0057 39.6356 67.1139 39.5073 67.0498L34.5156 64.8246C34.3152 64.7364 34.2871 64.4517 34.4755 64.3234L38.95 61.1681C39.0622 61.0839 39.2306 61.1641 39.2467 61.3004L39.4191 63.1246L39.9644 63.0525Z" fill="#1F1D20"/>
<path opacity="0.15" d="M38.9096 41.7505C38.7974 41.8347 38.629 41.7545 38.621 41.6222L38.4085 39.5493L37.8832 39.5734C32.7232 39.85 28.2688 43.5587 27.058 48.5824C25.8431 53.6142 28.1285 58.9426 32.6029 61.5447C32.7072 61.6088 32.7272 61.697 32.7272 61.7451C32.7232 61.7652 32.7272 61.7852 32.7192 61.8133C32.7072 61.8614 32.6831 61.9175 32.627 61.9536L32.0015 62.3946C31.6206 62.6593 31.1074 62.6593 30.7225 62.3826C26.1318 59.131 24.0389 53.4618 25.4342 48.0011C26.9016 42.2556 32.0737 38.2062 37.9915 37.8333L38.2361 37.8213L38.0556 36.0331C38.0396 35.8968 38.1839 35.7886 38.3122 35.8527L43.3801 38.142C43.5805 38.2302 43.6086 38.5149 43.4202 38.6512L38.9096 41.7505Z" fill="#1F1D20"/>
<path d="M40.0842 62.5512C44.9435 61.9619 48.9729 58.3695 50.1196 53.6184C51.2222 49.0477 49.5102 44.2686 45.7654 41.434C45.6892 41.3738 45.6772 41.2936 45.6772 41.2495C45.6772 41.2094 45.6892 41.1212 45.7774 41.0491L46.2987 40.6762C46.7156 40.3875 47.293 40.4156 47.6779 40.7644C51.3986 44.0922 52.9783 49.164 51.8075 54.0153C50.4844 59.4921 45.8376 63.6057 40.2325 64.2552L39.6953 64.3194L39.8877 66.3561C39.9037 66.4924 39.7594 66.6007 39.6311 66.5365L34.6475 64.3114C34.447 64.2232 34.4189 63.9385 34.6074 63.8102L39.0818 60.6548C39.1941 60.5706 39.3625 60.6508 39.3785 60.7871L39.5509 62.6114L40.0842 62.5512Z" fill="url(#paint2_linear_519_4067)"/>
<path d="M39.0298 41.2494C38.9176 41.3336 38.7492 41.2534 38.7412 41.1211L38.5287 39.0483L38.0034 39.0723C32.8434 39.349 28.389 43.0576 27.1782 48.0814C25.9633 53.1131 28.2487 58.4416 32.7231 61.0436C32.8274 61.1078 32.8474 61.196 32.8474 61.2441C32.8434 61.2641 32.8474 61.2842 32.8394 61.3123C32.8274 61.3604 32.8033 61.4165 32.7472 61.4526L32.1217 61.8936C31.7408 62.1582 31.2276 62.1582 30.8427 61.8816C26.244 58.63 24.1511 52.9608 25.5504 47.508C27.0178 41.7666 32.1899 37.7212 38.1077 37.3443L38.3523 37.3323L38.1718 35.5441C38.1558 35.4078 38.3001 35.2995 38.4284 35.3637L43.4923 37.649C43.6927 37.7372 43.7208 38.0219 43.5323 38.1582L39.0298 41.2494Z" fill="url(#paint3_linear_519_4067)"/>
<path opacity="0.15" d="M41.0617 50.2298C41.0617 50.0997 40.9556 49.9936 40.8255 49.9936C40.7403 49.9936 40.21 49.947 39.9256 49.7253C39.9256 49.7253 39.9272 49.722 39.9256 49.7253C39.8179 49.3332 39.6605 48.9668 39.466 48.6197C39.4162 48.2903 39.7569 48.0509 39.9127 47.7938C39.9401 47.7488 39.9561 47.7231 39.9658 47.7054C39.9947 47.6218 39.9786 47.5254 39.9127 47.4595C39.9127 47.4595 39.6508 47.0851 39.3825 46.8184C39.1141 46.5516 38.7076 46.2544 38.7076 46.2544C38.616 46.1628 38.4649 46.1628 38.3733 46.2544C38.3123 46.3138 37.909 46.6465 37.5458 46.6995C37.541 46.6995 37.541 46.6995 37.541 46.6995C37.2035 46.5083 36.8243 46.3508 36.4435 46.2431H36.4387C36.1703 46.0455 36.241 45.6357 36.1703 45.3433C36.1703 45.2131 36.0642 45.1071 35.9341 45.1071C35.9341 45.1071 35.4842 45.0283 35.1049 45.0283C34.7257 45.0283 34.2292 45.1071 34.2292 45.1071C34.099 45.1071 33.993 45.2131 33.993 45.3433C33.993 45.4284 33.9464 45.9587 33.7246 46.2431C33.3486 46.3492 32.9533 46.5163 32.6191 46.7027C32.2897 46.7525 32.0502 46.4119 31.7931 46.256C31.7482 46.2287 31.7224 46.2126 31.7048 46.203C31.6212 46.174 31.5248 46.1901 31.4589 46.256C31.4589 46.256 31.0845 46.5179 30.8178 46.7863C30.551 47.0546 30.2537 47.4611 30.2537 47.4611C30.1622 47.5527 30.1622 47.7038 30.2537 47.7954C30.3132 47.8548 30.6555 48.2646 30.7005 48.6213V48.6245C30.5141 48.9588 30.3502 49.3525 30.2441 49.7285C30.2441 49.7285 30.2489 49.722 30.2441 49.7285C30.0143 50.0081 29.6367 49.9261 29.3442 49.9968C29.2141 49.9968 29.108 50.1029 29.108 50.233C29.108 50.233 29.0293 50.683 29.0293 51.0622C29.0293 51.4414 29.108 51.9379 29.108 51.9379C29.108 52.0681 29.2141 52.1741 29.3442 52.1741C29.4294 52.1741 29.9597 52.2207 30.2441 52.4425C30.2505 52.4393 30.2473 52.4473 30.2473 52.4473C30.3566 52.8249 30.5125 53.2026 30.7021 53.5368C30.6989 53.5416 30.7021 53.5368 30.7037 53.548C30.7358 53.8919 30.4128 54.1169 30.257 54.374C30.2296 54.419 30.2136 54.4447 30.2039 54.4624C30.175 54.5459 30.1911 54.6423 30.257 54.7082C30.257 54.7082 30.5189 55.0826 30.7872 55.3494C31.0556 55.6177 31.4621 55.9134 31.4621 55.9134C31.5537 56.005 31.7048 56.005 31.7964 55.9134C31.8558 55.8539 32.2656 55.5117 32.6223 55.4667C32.6223 55.4667 32.6207 55.4683 32.6271 55.4699C32.971 55.6611 33.3261 55.8121 33.715 55.9182C33.7182 55.9198 33.7294 55.923 33.7294 55.923C33.9978 56.1207 33.9271 56.5304 33.9978 56.8229C34.0123 56.9546 34.0846 57.0382 34.234 57.0591C34.234 57.0591 34.6839 57.1378 35.0632 57.1378C35.4424 57.1378 35.9389 57.0607 35.9389 57.0607C36.0691 57.0382 36.1751 56.9546 36.1751 56.8245C36.1751 56.7393 36.2217 56.209 36.4435 55.9246C36.4435 55.9246 36.4531 55.9166 36.4628 55.9086C36.8581 55.7977 37.1585 55.6756 37.5072 55.4747C37.5249 55.4683 37.5056 55.4699 37.5474 55.4634C37.8768 55.4136 38.1162 55.7543 38.3733 55.9102C38.4183 55.9375 38.444 55.9535 38.4617 55.9632C38.5453 55.9921 38.6417 55.976 38.7076 55.9102C38.7076 55.9102 39.082 55.6482 39.3487 55.3799C39.6171 55.1115 39.9127 54.705 39.9127 54.705C40.0043 54.6134 40.0043 54.4624 39.9127 54.3708C39.8533 54.3113 39.511 53.9016 39.466 53.5448C39.4612 53.5079 39.4644 53.503 39.4692 53.4934C39.6685 53.1415 39.7938 52.8844 39.9031 52.4859C39.9031 52.4859 39.8983 52.473 39.924 52.4393C40.1216 52.1709 40.5314 52.2416 40.8238 52.1709C40.954 52.1709 41.0601 52.0649 41.0601 51.9347C41.0601 51.9347 41.1388 51.4848 41.1388 51.1056C41.1388 50.7263 41.0617 50.2298 41.0617 50.2298ZM38.5855 51.0718C38.5855 53.0146 37.0107 54.5909 35.0664 54.5909C33.122 54.5909 31.5473 53.0162 31.5473 51.0718C31.5473 49.1291 33.122 47.5527 35.0664 47.5527C37.0107 47.5527 38.5855 49.1291 38.5855 51.0718Z" fill="#1F1D20"/>
<path d="M41.0617 49.9085C41.0617 49.7784 40.9556 49.6723 40.8255 49.6723C40.7403 49.6723 40.21 49.6257 39.9256 49.404C39.9256 49.404 39.9272 49.4007 39.9256 49.404C39.8179 49.0119 39.6605 48.6455 39.466 48.2984C39.4162 47.969 39.7569 47.7296 39.9127 47.4725C39.9401 47.4275 39.9561 47.4018 39.9658 47.3841C39.9947 47.3005 39.9786 47.2041 39.9127 47.1383C39.9127 47.1383 39.6508 46.7638 39.3825 46.4971C39.1141 46.2304 38.7076 45.9331 38.7076 45.9331C38.616 45.8415 38.4649 45.8415 38.3733 45.9331C38.3123 45.9925 37.909 46.3252 37.5458 46.3782C37.541 46.3782 37.541 46.3782 37.541 46.3782C37.2035 46.187 36.8243 46.0295 36.4435 45.9218H36.4387C36.1703 45.7242 36.241 45.3144 36.1703 45.022C36.1703 44.8918 36.0642 44.7858 35.9341 44.7858C35.9341 44.7858 35.4842 44.707 35.1049 44.707C34.7257 44.707 34.2292 44.7858 34.2292 44.7858C34.099 44.7858 33.993 44.8918 33.993 45.022C33.993 45.1071 33.9464 45.6374 33.7246 45.9218C33.3486 46.0279 32.9533 46.195 32.6191 46.3814C32.2897 46.4312 32.0502 46.0906 31.7931 45.9347C31.7482 45.9074 31.7224 45.8913 31.7048 45.8817C31.6212 45.8527 31.5248 45.8688 31.4589 45.9347C31.4589 45.9347 31.0845 46.1966 30.8178 46.465C30.551 46.7333 30.2537 47.1399 30.2537 47.1399C30.1622 47.2315 30.1622 47.3825 30.2537 47.4741C30.3132 47.5335 30.6555 47.9433 30.7005 48.3V48.3032C30.5141 48.6375 30.3502 49.0312 30.2441 49.4072C30.2441 49.4072 30.2489 49.4007 30.2441 49.4072C30.0143 49.6868 29.6367 49.6048 29.3442 49.6755C29.2141 49.6755 29.108 49.7816 29.108 49.9117C29.108 49.9117 29.0293 50.3617 29.0293 50.7409C29.0293 51.1201 29.108 51.6166 29.108 51.6166C29.108 51.7468 29.2141 51.8529 29.3442 51.8529C29.4294 51.8529 29.9597 51.8995 30.2441 52.1212C30.2505 52.118 30.2473 52.126 30.2473 52.126C30.3566 52.5036 30.5125 52.8813 30.7021 53.2155C30.6989 53.2203 30.7021 53.2155 30.7037 53.2267C30.7358 53.5706 30.4128 53.7956 30.257 54.0527C30.2296 54.0977 30.2136 54.1234 30.2039 54.1411C30.175 54.2246 30.1911 54.321 30.257 54.3869C30.257 54.3869 30.5189 54.7613 30.7872 55.0281C31.0556 55.2964 31.4621 55.5921 31.4621 55.5921C31.5537 55.6837 31.7048 55.6837 31.7964 55.5921C31.8558 55.5326 32.2656 55.1904 32.6223 55.1454C32.6223 55.1454 32.6207 55.147 32.6271 55.1486C32.971 55.3398 33.3261 55.4909 33.715 55.5969C33.7182 55.5985 33.7294 55.6017 33.7294 55.6017C33.9978 55.7994 33.9271 56.2091 33.9978 56.5016C34.0123 56.6333 34.0846 56.7169 34.234 56.7378C34.234 56.7378 34.6839 56.8165 35.0632 56.8165C35.4424 56.8165 35.9389 56.7394 35.9389 56.7394C36.0691 56.7169 36.1751 56.6333 36.1751 56.5032C36.1751 56.418 36.2217 55.8878 36.4435 55.6033C36.4435 55.6033 36.4531 55.5953 36.4628 55.5873C36.8581 55.4764 37.1585 55.3543 37.5072 55.1534C37.5249 55.147 37.5056 55.1486 37.5474 55.1422C37.8768 55.0923 38.1162 55.433 38.3733 55.5889C38.4183 55.6162 38.444 55.6323 38.4617 55.6419C38.5453 55.6708 38.6417 55.6548 38.7076 55.5889C38.7076 55.5889 39.082 55.3269 39.3487 55.0586C39.6171 54.7902 39.9127 54.3837 39.9127 54.3837C40.0043 54.2921 40.0043 54.1411 39.9127 54.0495C39.8533 53.99 39.511 53.5803 39.466 53.2235C39.4612 53.1866 39.4644 53.1818 39.4692 53.1721C39.6685 52.8202 39.7938 52.5631 39.9031 52.1646C39.9031 52.1646 39.8983 52.1517 39.924 52.118C40.1216 51.8496 40.5314 51.9203 40.8238 51.8496C40.954 51.8496 41.0601 51.7436 41.0601 51.6134C41.0601 51.6134 41.1388 51.1635 41.1388 50.7843C41.1388 50.4051 41.0617 49.9085 41.0617 49.9085ZM38.5855 50.7505C38.5855 52.6933 37.0107 54.2696 35.0664 54.2696C33.122 54.2696 31.5473 52.6949 31.5473 50.7505C31.5473 48.8078 33.122 47.2315 35.0664 47.2315C37.0107 47.2315 38.5855 48.8078 38.5855 50.7505Z" fill="#FDBE52"/>
<path opacity="0.15" d="M46.7651 47.5724L46.2898 47.4668C46.2406 47.4489 46.2005 47.4123 46.1781 47.365C46.1766 47.3597 46.1747 47.3546 46.1725 47.3496L46.0414 47.0309C46.0391 47.0254 46.0366 47.0199 46.0338 47.0146C46.016 46.9657 46.0184 46.9118 46.0404 46.8647L46.3018 46.4538C46.3553 46.3648 46.3781 46.2608 46.3668 46.1576C46.3555 46.0544 46.3106 45.9578 46.2392 45.8825L46.0945 45.7379C46.0186 45.6677 45.9221 45.6236 45.8192 45.6124C45.7164 45.6011 45.6127 45.6231 45.5233 45.6753L45.1123 45.9366C45.0861 45.9497 45.0571 45.956 45.0278 45.955C45.0054 45.9558 44.9832 45.9518 44.9625 45.9433C44.9571 45.9404 44.9517 45.9379 44.946 45.9357L44.6274 45.8045C44.6224 45.8024 44.6173 45.8005 44.6121 45.7989C44.5648 45.7765 44.5282 45.7363 44.5103 45.6871L44.4047 45.212C44.3796 45.1112 44.3222 45.0215 44.2412 44.9565C44.1602 44.8916 44.0601 44.8549 43.9563 44.8523H43.7519C43.6481 44.8549 43.5481 44.8915 43.4671 44.9565C43.3861 45.0214 43.3287 45.1111 43.3036 45.2119L43.198 45.6873C43.1799 45.7364 43.1434 45.7765 43.0962 45.7989C43.0909 45.8005 43.0858 45.8024 43.0807 45.8045L42.7621 45.9357C42.7565 45.9379 42.751 45.9404 42.7457 45.9432C42.725 45.9518 42.7027 45.9558 42.6804 45.955C42.6511 45.956 42.622 45.9496 42.5957 45.9366L42.185 45.6754C42.0956 45.6233 41.9919 45.6012 41.889 45.6125C41.7862 45.6238 41.6897 45.6678 41.6137 45.738L41.4691 45.8825C41.3976 45.9578 41.3528 46.0544 41.3414 46.1576C41.3301 46.2608 41.353 46.3649 41.4065 46.4539L41.6679 46.8646C41.6898 46.9118 41.6921 46.9656 41.6744 47.0145C41.6717 47.0199 41.669 47.0254 41.6668 47.0309L41.5357 47.3496C41.5336 47.3546 41.5317 47.3597 41.53 47.365C41.5076 47.4123 41.4675 47.4489 41.4183 47.4669L40.9432 47.5723C40.8424 47.5974 40.7527 47.6549 40.6877 47.7359C40.6227 47.8169 40.5861 47.9169 40.5835 48.0207V48.2251C40.5861 48.3289 40.6227 48.4289 40.6877 48.5099C40.7526 48.5909 40.8423 48.6483 40.9431 48.6734L41.4184 48.779C41.4676 48.797 41.5077 48.8336 41.53 48.8809C41.5317 48.8861 41.5336 48.8912 41.5357 48.8962L41.6668 49.2149C41.669 49.2204 41.6716 49.2258 41.6744 49.2313C41.6921 49.2802 41.6898 49.3341 41.6678 49.3812L41.4065 49.792C41.3529 49.8809 41.3301 49.985 41.3414 50.0882C41.3527 50.1914 41.3976 50.2881 41.4691 50.3633L41.6137 50.5079C41.6897 50.5781 41.7862 50.6221 41.8891 50.6334C41.9919 50.6447 42.0957 50.6227 42.1851 50.5706L42.5956 50.3092C42.6219 50.2962 42.651 50.2898 42.6804 50.2908C42.7027 50.29 42.725 50.294 42.7457 50.3026C42.7511 50.3053 42.7565 50.3079 42.7621 50.3102L43.0807 50.4414C43.0858 50.4434 43.0909 50.4453 43.0962 50.4469C43.1434 50.4694 43.18 50.5095 43.198 50.5586L43.3036 51.0339C43.3287 51.1346 43.3861 51.2244 43.4671 51.2894C43.5481 51.3543 43.6481 51.3909 43.7519 51.3936H43.9563C44.0601 51.3909 44.1602 51.3543 44.2411 51.2893C44.3221 51.2244 44.3795 51.1346 44.4046 51.0339L44.5103 50.5586C44.5282 50.5095 44.5648 50.4693 44.6121 50.4469C44.6173 50.4453 44.6224 50.4434 44.6274 50.4414L44.946 50.3102C44.9516 50.3079 44.9571 50.3053 44.9625 50.3026C44.9831 50.294 45.0053 50.29 45.0277 50.2908C45.057 50.2898 45.0861 50.2961 45.1123 50.3092L45.5232 50.5705C45.6125 50.6226 45.7163 50.6447 45.8192 50.6334C45.922 50.6222 46.0185 50.5782 46.0945 50.5079L46.239 50.3634C46.3106 50.2881 46.3554 50.1915 46.3668 50.0883C46.3781 49.9851 46.3553 49.881 46.3018 49.792L46.0403 49.3812C46.0295 49.3579 46.0233 49.3326 46.0222 49.3069C46.021 49.2812 46.025 49.2555 46.0338 49.2314C46.0366 49.2259 46.0391 49.2205 46.0414 49.215L46.1725 48.8962C46.1747 48.8912 46.1765 48.8861 46.1781 48.8809C46.2005 48.8335 46.2407 48.7969 46.2899 48.779L46.765 48.6734C46.8658 48.6484 46.9555 48.591 47.0205 48.51C47.0855 48.429 47.1221 48.3289 47.1248 48.2251V48.0207C47.1221 47.9169 47.0855 47.8169 47.0206 47.7359C46.9556 47.6549 46.8658 47.5975 46.7651 47.5724V47.5724Z" fill="#1F1D20"/>
<path opacity="0.15" d="M46.4165 54.6596L45.9412 54.5539C45.892 54.536 45.8519 54.4994 45.8295 54.4521C45.8279 54.4469 45.826 54.4418 45.8239 54.4368L45.6927 54.1181C45.6905 54.1126 45.6879 54.1071 45.6852 54.1017C45.6674 54.0529 45.6697 53.9989 45.6917 53.9518L45.9532 53.5409C46.0067 53.452 46.0295 53.3479 46.0182 53.2448C46.0068 53.1416 45.962 53.045 45.8905 52.9697L45.7459 52.8251C45.67 52.7548 45.5735 52.7108 45.4706 52.6995C45.3678 52.6882 45.264 52.7103 45.1747 52.7624L44.7637 53.0238C44.7375 53.0369 44.7084 53.0432 44.6792 53.0422C44.6568 53.043 44.6345 53.039 44.6138 53.0304C44.6085 53.0276 44.603 53.025 44.5974 53.0228L44.2788 52.8916C44.2738 52.8895 44.2687 52.8877 44.2635 52.8861C44.2162 52.8637 44.1796 52.8235 44.1617 52.7743L44.0561 52.2991C44.031 52.1984 43.9735 52.1086 43.8926 52.0437C43.8116 51.9787 43.7115 51.9421 43.6077 51.9395H43.4033C43.2995 51.9421 43.1995 51.9787 43.1185 52.0436C43.0375 52.1086 42.9801 52.1983 42.955 52.299L42.8493 52.7745C42.8313 52.8236 42.7948 52.8637 42.7475 52.8861C42.7423 52.8876 42.7372 52.8896 42.7321 52.8916L42.4135 53.0228C42.4079 53.025 42.4024 53.0276 42.397 53.0304C42.3764 53.039 42.3541 53.043 42.3317 53.0422C42.3024 53.0431 42.2734 53.0368 42.2471 53.0238L41.8363 52.7625C41.747 52.7104 41.6432 52.6884 41.5404 52.6997C41.4376 52.7109 41.3411 52.7549 41.2651 52.8252L41.1205 52.9697C41.049 53.045 41.0041 53.1416 40.9928 53.2448C40.9815 53.348 41.0043 53.4521 41.0578 53.541L41.3193 53.9518C41.3411 53.9989 41.3435 54.0528 41.3258 54.1016C41.323 54.1071 41.3204 54.1126 41.3181 54.1181L41.187 54.4368C41.185 54.4418 41.183 54.4469 41.1814 54.4521C41.159 54.4994 41.1189 54.5361 41.0697 54.554L40.5945 54.6595C40.4938 54.6846 40.404 54.742 40.3391 54.823C40.2741 54.904 40.2375 55.0041 40.2349 55.1079V55.3123C40.2375 55.4161 40.2741 55.5161 40.339 55.5971C40.404 55.678 40.4937 55.7355 40.5944 55.7606L41.0698 55.8662C41.1189 55.8841 41.159 55.9207 41.1814 55.9681C41.183 55.9733 41.185 55.9784 41.187 55.9834L41.3182 56.3021C41.3204 56.3076 41.3229 56.313 41.3258 56.3184C41.3435 56.3673 41.3411 56.4212 41.3192 56.4684L41.0578 56.8791C41.0043 56.9681 40.9814 57.0722 40.9928 57.1754C41.0041 57.2786 41.0489 57.3752 41.1205 57.4505L41.2651 57.5951C41.3411 57.6653 41.4376 57.7093 41.5404 57.7206C41.6433 57.7318 41.747 57.7098 41.8364 57.6577L42.247 57.3964C42.2733 57.3833 42.3024 57.377 42.3317 57.378C42.3541 57.3771 42.3764 57.3811 42.3971 57.3898C42.4025 57.3924 42.4079 57.3951 42.4135 57.3973L42.7321 57.5286C42.7372 57.5306 42.7423 57.5324 42.7475 57.5341C42.7948 57.5565 42.8314 57.5966 42.8493 57.6458L42.955 58.121C42.9801 58.2218 43.0375 58.3116 43.1185 58.3765C43.1994 58.4415 43.2995 58.4781 43.4033 58.4807H43.6077C43.7115 58.4781 43.8115 58.4414 43.8925 58.3765C43.9735 58.3115 44.0309 58.2218 44.056 58.121L44.1617 57.6458C44.1796 57.5966 44.2162 57.5565 44.2635 57.5341C44.2687 57.5324 44.2738 57.5306 44.2788 57.5286L44.5974 57.3973C44.603 57.3951 44.6085 57.3924 44.6138 57.3898C44.6345 57.3812 44.6567 57.3771 44.679 57.378C44.7083 57.377 44.7374 57.3833 44.7637 57.3964L45.1745 57.6576C45.2639 57.7098 45.3677 57.7319 45.4705 57.7206C45.5734 57.7093 45.6699 57.6653 45.7459 57.5951L45.8904 57.4506C45.9619 57.3753 46.0068 57.2786 46.0181 57.1754C46.0295 57.0722 46.0066 56.9681 45.9532 56.8791L45.6917 56.4684C45.6808 56.445 45.6747 56.4198 45.6735 56.3941C45.6724 56.3684 45.6764 56.3427 45.6852 56.3185C45.6879 56.3131 45.6905 56.3077 45.6927 56.3022L45.8239 55.9834C45.826 55.9784 45.8279 55.9733 45.8295 55.9681C45.8519 55.9207 45.8921 55.8841 45.9413 55.8661L46.4164 55.7606C46.5171 55.7355 46.6069 55.6781 46.6719 55.5971C46.7369 55.5162 46.7735 55.4161 46.7761 55.3123V55.1079C46.7735 55.0041 46.7369 54.904 46.6719 54.823C46.607 54.7421 46.5172 54.6846 46.4165 54.6596V54.6596Z" fill="#1F1D20"/>
<path d="M46.7651 47.311L46.2898 47.2053C46.2406 47.1874 46.2005 47.1508 46.1781 47.1035C46.1766 47.0983 46.1747 47.0931 46.1725 47.0881L46.0414 46.7695C46.0391 46.7639 46.0366 46.7584 46.0338 46.7531C46.016 46.7042 46.0184 46.6503 46.0404 46.6032L46.3018 46.1923C46.3553 46.1033 46.3781 45.9993 46.3668 45.8961C46.3555 45.7929 46.3106 45.6963 46.2392 45.6211L46.0945 45.4764C46.0186 45.4062 45.9221 45.3622 45.8192 45.3509C45.7164 45.3396 45.6127 45.3617 45.5233 45.4138L45.1123 45.6751C45.0861 45.6882 45.0571 45.6946 45.0278 45.6935C45.0054 45.6943 44.9832 45.6903 44.9625 45.6818C44.9571 45.6789 44.9517 45.6764 44.946 45.6742L44.6274 45.543C44.6224 45.5409 44.6173 45.539 44.6121 45.5375C44.5648 45.515 44.5282 45.4749 44.5103 45.4257L44.4047 44.9505C44.3796 44.8497 44.3222 44.76 44.2412 44.695C44.1602 44.6301 44.0601 44.5935 43.9563 44.5908H43.7519C43.6481 44.5934 43.5481 44.63 43.4671 44.695C43.3861 44.7599 43.3287 44.8496 43.3036 44.9504L43.198 45.4258C43.1799 45.4749 43.1434 45.515 43.0962 45.5375C43.0909 45.539 43.0858 45.5409 43.0807 45.543L42.7621 45.6742C42.7565 45.6764 42.751 45.6789 42.7457 45.6818C42.725 45.6904 42.7027 45.6944 42.6804 45.6935C42.6511 45.6945 42.622 45.6882 42.5957 45.6751L42.185 45.4139C42.0956 45.3618 41.9919 45.3397 41.889 45.351C41.7862 45.3623 41.6897 45.4063 41.6137 45.4765L41.4691 45.6211C41.3976 45.6963 41.3528 45.793 41.3414 45.8962C41.3301 45.9994 41.353 46.1034 41.4065 46.1924L41.6679 46.6032C41.6898 46.6503 41.6921 46.7042 41.6744 46.753C41.6717 46.7584 41.669 46.7639 41.6668 46.7695L41.5357 47.0881C41.5336 47.0932 41.5317 47.0983 41.53 47.1035C41.5076 47.1508 41.4675 47.1874 41.4183 47.2054L40.9432 47.3109C40.8424 47.3359 40.7527 47.3934 40.6877 47.4744C40.6227 47.5554 40.5861 47.6554 40.5835 47.7592V47.9637C40.5861 48.0674 40.6227 48.1675 40.6877 48.2484C40.7526 48.3294 40.8423 48.3868 40.9431 48.4119L41.4184 48.5175C41.4676 48.5355 41.5077 48.5721 41.53 48.6194C41.5317 48.6246 41.5336 48.6297 41.5357 48.6348L41.6668 48.9534C41.669 48.959 41.6716 48.9644 41.6744 48.9698C41.6921 49.0187 41.6898 49.0726 41.6678 49.1197L41.4065 49.5305C41.3529 49.6195 41.3301 49.7235 41.3414 49.8267C41.3527 49.9299 41.3976 50.0266 41.4691 50.1018L41.6137 50.2465C41.6897 50.3167 41.7862 50.3606 41.8891 50.3719C41.9919 50.3832 42.0957 50.3612 42.1851 50.3091L42.5956 50.0478C42.6219 50.0347 42.651 50.0284 42.6804 50.0294C42.7027 50.0285 42.725 50.0325 42.7457 50.0411C42.7511 50.0438 42.7565 50.0464 42.7621 50.0487L43.0807 50.1799C43.0858 50.182 43.0909 50.1838 43.0962 50.1854C43.1434 50.2079 43.18 50.248 43.198 50.2971L43.3036 50.7724C43.3287 50.8732 43.3861 50.9629 43.4671 51.0279C43.5481 51.0929 43.6481 51.1295 43.7519 51.1321H43.9563C44.0601 51.1294 44.1602 51.0928 44.2411 51.0278C44.3221 50.9629 44.3795 50.8731 44.4046 50.7724L44.5103 50.2972C44.5282 50.248 44.5648 50.2079 44.6121 50.1854C44.6173 50.1838 44.6224 50.182 44.6274 50.1799L44.946 50.0487C44.9516 50.0464 44.9571 50.0438 44.9625 50.0411C44.9831 50.0325 45.0053 50.0285 45.0277 50.0294C45.057 50.0283 45.0861 50.0347 45.1123 50.0478L45.5232 50.309C45.6125 50.3612 45.7163 50.3832 45.8192 50.372C45.922 50.3607 46.0185 50.3167 46.0945 50.2465L46.239 50.1019C46.3106 50.0267 46.3554 49.93 46.3668 49.8268C46.3781 49.7236 46.3553 49.6195 46.3018 49.5305L46.0403 49.1197C46.0295 49.0964 46.0233 49.0712 46.0222 49.0455C46.021 49.0197 46.025 48.9941 46.0338 48.9699C46.0366 48.9645 46.0391 48.9591 46.0414 48.9535L46.1725 48.6347C46.1747 48.6298 46.1765 48.6246 46.1781 48.6194C46.2005 48.5721 46.2407 48.5355 46.2899 48.5175L46.765 48.4119C46.8658 48.3869 46.9555 48.3295 47.0205 48.2485C47.0855 48.1675 47.1221 48.0675 47.1248 47.9637V47.7592C47.1221 47.6555 47.0855 47.5554 47.0206 47.4744C46.9556 47.3934 46.8658 47.336 46.7651 47.311V47.311Z" fill="#FD7853"/>
<path d="M46.4165 54.3981L45.9412 54.2924C45.892 54.2745 45.8519 54.238 45.8295 54.1906C45.8279 54.1854 45.826 54.1803 45.8239 54.1753L45.6927 53.8566C45.6905 53.8511 45.6879 53.8456 45.6852 53.8403C45.6674 53.7914 45.6697 53.7375 45.6917 53.6903L45.9532 53.2795C46.0067 53.1905 46.0295 53.0865 46.0182 52.9833C46.0068 52.8801 45.962 52.7835 45.8905 52.7082L45.7459 52.5636C45.67 52.4933 45.5735 52.4493 45.4706 52.438C45.3678 52.4268 45.264 52.4488 45.1747 52.501L44.7637 52.7623C44.7375 52.7754 44.7084 52.7817 44.6792 52.7807C44.6568 52.7815 44.6345 52.7775 44.6138 52.7689C44.6085 52.7661 44.603 52.7636 44.5974 52.7614L44.2788 52.6301C44.2738 52.628 44.2687 52.6262 44.2635 52.6246C44.2162 52.6022 44.1796 52.562 44.1617 52.5128L44.0561 52.0376C44.031 51.9369 43.9735 51.8472 43.8926 51.7822C43.8116 51.7172 43.7115 51.6806 43.6077 51.678H43.4033C43.2995 51.6806 43.1995 51.7172 43.1185 51.7821C43.0375 51.8471 42.9801 51.9368 42.955 52.0375L42.8493 52.513C42.8313 52.5621 42.7948 52.6022 42.7475 52.6246C42.7423 52.6261 42.7372 52.6281 42.7321 52.6301L42.4135 52.7614C42.4079 52.7636 42.4024 52.7661 42.397 52.7689C42.3764 52.7775 42.3541 52.7815 42.3317 52.7807C42.3024 52.7817 42.2734 52.7753 42.2471 52.7623L41.8363 52.501C41.747 52.4489 41.6432 52.4269 41.5404 52.4382C41.4376 52.4495 41.3411 52.4935 41.2651 52.5637L41.1205 52.7082C41.049 52.7835 41.0041 52.8801 40.9928 52.9833C40.9815 53.0865 41.0043 53.1906 41.0578 53.2796L41.3193 53.6903C41.3411 53.7375 41.3435 53.7913 41.3258 53.8402C41.323 53.8456 41.3204 53.8511 41.3181 53.8566L41.187 54.1753C41.185 54.1803 41.183 54.1854 41.1814 54.1906C41.159 54.238 41.1189 54.2746 41.0697 54.2925L40.5945 54.398C40.4938 54.4231 40.404 54.4805 40.3391 54.5615C40.2741 54.6425 40.2375 54.7426 40.2349 54.8464V55.0508C40.2375 55.1546 40.2741 55.2546 40.339 55.3356C40.404 55.4166 40.4937 55.474 40.5944 55.4991L41.0698 55.6047C41.1189 55.6227 41.159 55.6593 41.1814 55.7066C41.183 55.7118 41.185 55.7169 41.187 55.7219L41.3182 56.0406C41.3204 56.0461 41.3229 56.0515 41.3258 56.0569C41.3435 56.1058 41.3411 56.1597 41.3192 56.2069L41.0578 56.6177C41.0043 56.7066 40.9814 56.8107 40.9928 56.9139C41.0041 57.0171 41.0489 57.1137 41.1205 57.189L41.2651 57.3336C41.3411 57.4038 41.4376 57.4478 41.5404 57.4591C41.6433 57.4704 41.747 57.4483 41.8364 57.3963L42.247 57.1349C42.2733 57.1218 42.3024 57.1155 42.3317 57.1165C42.3541 57.1156 42.3764 57.1196 42.3971 57.1283C42.4025 57.1309 42.4079 57.1336 42.4135 57.1358L42.7321 57.2671C42.7372 57.2691 42.7423 57.271 42.7475 57.2726C42.7948 57.295 42.8314 57.3352 42.8493 57.3843L42.955 57.8596C42.9801 57.9603 43.0375 58.0501 43.1185 58.115C43.1994 58.18 43.2995 58.2166 43.4033 58.2192H43.6077C43.7115 58.2166 43.8115 58.18 43.8925 58.115C43.9735 58.05 44.0309 57.9603 44.056 57.8596L44.1617 57.3843C44.1796 57.3351 44.2162 57.295 44.2635 57.2726C44.2687 57.271 44.2738 57.2691 44.2788 57.2671L44.5974 57.1358C44.603 57.1336 44.6085 57.1309 44.6138 57.1283C44.6345 57.1197 44.6567 57.1157 44.679 57.1165C44.7083 57.1155 44.7374 57.1218 44.7637 57.1349L45.1745 57.3962C45.2639 57.4483 45.3677 57.4704 45.4705 57.4591C45.5734 57.4479 45.6699 57.4039 45.7459 57.3336L45.8904 57.1891C45.9619 57.1138 46.0068 57.0172 46.0181 56.914C46.0295 56.8107 46.0066 56.7067 45.9532 56.6177L45.6917 56.2069C45.6808 56.1836 45.6747 56.1583 45.6735 56.1326C45.6724 56.1069 45.6764 56.0812 45.6852 56.057C45.6879 56.0516 45.6905 56.0462 45.6927 56.0407L45.8239 55.7219C45.826 55.7169 45.8279 55.7118 45.8295 55.7066C45.8519 55.6592 45.8921 55.6226 45.9413 55.6047L46.4164 55.4991C46.5171 55.4741 46.6069 55.4166 46.6719 55.3357C46.7369 55.2547 46.7735 55.1546 46.7761 55.0508V54.8464C46.7735 54.7426 46.7369 54.6425 46.6719 54.5616C46.607 54.4806 46.5172 54.4232 46.4165 54.3981V54.3981Z" fill="#83462B"/>
<defs>
<linearGradient id="paint0_linear_519_4067" x1="49.4467" y1="-13.1572" x2="53.4287" y2="132.613" gradientUnits="userSpaceOnUse">
<stop stop-color="#00ABDE"/>
<stop offset="1" stop-color="#007ED8"/>
</linearGradient>
<linearGradient id="paint1_linear_519_4067" x1="2.65103" y1="-19.9904" x2="98.1786" y2="120.891" gradientUnits="userSpaceOnUse">
<stop stop-color="#007ED8"/>
<stop offset="0.7065" stop-color="#002D4C"/>
</linearGradient>
<linearGradient id="paint2_linear_519_4067" x1="27.3162" y1="36.0828" x2="64.0547" y2="79.5612" gradientUnits="userSpaceOnUse">
<stop stop-color="#007ED8"/>
<stop offset="0.7065" stop-color="#002D4C"/>
</linearGradient>
<linearGradient id="paint3_linear_519_4067" x1="26.1589" y1="37.0607" x2="62.8974" y2="80.5391" gradientUnits="userSpaceOnUse">
<stop stop-color="#007ED8"/>
<stop offset="0.7065" stop-color="#002D4C"/>
</linearGradient>
</defs>
</svg>
