<svg width="100" height="100" viewBox="0 0 100 100" fill="none" xmlns="http://www.w3.org/2000/svg">
<g clip-path="url(#clip0_1321_3665)">
<path d="M49.6401 96.4499C40.382 96.4499 31.3317 93.7045 23.6339 88.561C15.936 83.4174 9.93624 76.1067 6.3933 67.5533C2.85036 58.9999 1.92337 49.588 3.72954 40.5077C5.53571 31.4275 9.99394 23.0867 16.5404 16.5402C23.0869 9.99372 31.4277 5.5355 40.5079 3.72933C49.5882 1.92315 59.0001 2.85015 67.5535 6.39308C76.1069 9.93602 83.4176 15.9358 88.5612 23.6336C93.7047 31.3315 96.4501 40.3817 96.4501 49.6399C96.4505 55.7872 95.24 61.8744 92.8878 67.5538C90.5355 73.2332 87.0875 78.3937 82.7407 82.7405C78.3939 87.0873 73.2335 90.5353 67.554 92.8876C61.8746 95.2398 55.7874 96.4503 49.6401 96.4499V96.4499Z" fill="url(#paint0_linear_1321_3665)"/>
<path fill-rule="evenodd" clip-rule="evenodd" d="M95.54 49.6399C95.54 58.718 92.848 67.5923 87.8045 75.1406C82.7609 82.6888 75.5923 88.5719 67.2052 92.046C58.818 95.52 49.5891 96.429 40.6854 94.6579C31.7816 92.8869 23.603 88.5153 17.1838 82.0961C10.7646 75.6769 6.39302 67.4983 4.62196 58.5945C2.85089 49.6908 3.75987 40.4618 7.23393 32.0747C10.708 23.6876 16.5911 16.519 24.1393 11.4754C31.6875 6.43187 40.5618 3.73988 49.64 3.73988C55.6677 3.73986 61.6363 4.92708 67.2052 7.23377C72.774 9.54045 77.834 12.9214 82.0963 17.1836C86.3585 21.4458 89.7394 26.5058 92.0461 32.0747C94.3528 37.6435 95.54 43.6122 95.54 49.6399V49.6399ZM49.64 -0.000106449C59.4579 -0.000106449 69.0552 2.91123 77.2185 8.36574C85.3818 13.8203 91.7442 21.573 95.5014 30.6435C99.2585 39.714 100.242 49.695 98.3262 59.3242C96.4108 68.9534 91.6831 77.7984 84.7408 84.7407C77.7985 91.683 68.9535 96.4107 59.3243 98.3261C49.6951 100.241 39.7141 99.2584 30.6436 95.5013C21.5731 91.7441 13.8204 85.3816 8.36584 77.2184C2.91133 69.0551 -1.61629e-06 59.4577 3.61524e-07 49.6399C-0.000786426 43.1208 1.28265 36.6655 3.77702 30.6425C6.27138 24.6196 9.92781 19.147 14.5375 14.5374C19.1471 9.9277 24.6197 6.27127 30.6427 3.77691C36.6656 1.28254 43.121 -0.000894549 49.64 -0.000106449V-0.000106449Z" fill="#F2F1F0"/>
<path fill-rule="evenodd" clip-rule="evenodd" d="M92.7296 49.64C92.7296 58.1624 90.2024 66.4934 85.4676 73.5795C80.7328 80.6656 74.0031 86.1886 66.1294 89.45C58.2557 92.7113 49.5918 93.5647 41.2331 91.902C32.8745 90.2394 25.1966 86.1355 19.1703 80.1092C13.1441 74.083 9.04017 66.4051 7.37753 58.0464C5.7149 49.6878 6.56822 41.0238 9.8296 33.1502C13.091 25.2765 18.6139 18.5468 25.7 13.812C32.7862 9.07718 41.1172 6.55 49.6396 6.55C55.2983 6.54965 60.9017 7.66397 66.1298 9.82933C71.3579 11.9947 76.1082 15.1687 80.1096 19.17C84.1109 23.1713 87.2849 27.9217 89.4502 33.1498C91.6156 38.3778 92.7299 43.9812 92.7296 49.64ZM49.6396 2.81C58.9017 2.81 67.9558 5.55653 75.6569 10.7023C83.3581 15.848 89.3604 23.1619 92.9049 31.7189C96.4493 40.276 97.3767 49.6919 95.5697 58.7761C93.7628 67.8602 89.3027 76.2045 82.7534 82.7538C76.2041 89.3031 67.8598 93.7632 58.7757 95.5702C49.6915 97.3771 40.2756 96.4497 31.7185 92.9053C23.1614 89.3608 15.8476 83.3585 10.7018 75.6574C5.5561 67.9562 2.80957 58.9021 2.80957 49.64C2.81076 37.2203 7.74501 25.3096 16.5271 16.5275C25.3091 7.74544 37.2198 2.81119 49.6396 2.81V2.81Z" fill="#0078D4"/>
<path fill-rule="evenodd" clip-rule="evenodd" d="M92.7301 49.7835C92.7301 58.3059 90.2029 66.6369 85.4681 73.723C80.7333 80.8091 74.0036 86.3321 66.1299 89.5935C58.2562 92.8549 49.5923 93.7082 41.2336 92.0455C32.875 90.3829 25.1971 86.279 19.1708 80.2527C13.1446 74.2265 9.04066 66.5486 7.37802 58.1899C5.71538 49.8313 6.56871 41.1673 9.83009 33.2937C13.0915 25.42 18.6144 18.6903 25.7005 13.9555C32.7867 9.22069 41.1177 6.69351 49.6401 6.69351C55.2988 6.69316 60.9022 7.80748 66.1303 9.97284C71.3584 12.1382 76.1087 15.3122 80.1101 19.3135C84.1114 23.3149 87.2854 28.0652 89.4507 33.2933C91.6161 38.5213 92.7304 44.1248 92.7301 49.7835V49.7835ZM49.6401 2.95351C58.9022 2.95351 67.9563 5.70004 75.6574 10.8458C83.3586 15.9915 89.3609 23.3054 92.9053 31.8624C96.4498 40.4195 97.3772 49.8355 95.5702 58.9196C93.7633 68.0037 89.3032 76.348 82.7539 82.8973C76.2046 89.4466 67.8603 93.9067 58.7761 95.7137C49.692 97.5206 40.2761 96.5932 31.719 93.0488C23.1619 89.5043 15.8481 83.502 10.7023 75.8009C5.55659 68.0997 2.81006 59.0456 2.81006 49.7835C2.81124 37.3638 7.74548 25.4531 16.5276 16.671C25.3096 7.88892 37.2203 2.95467 49.64 2.95348L49.6401 2.95351Z" fill="#0078D4"/>
<path d="M74.1529 23.147V33.164L65.4939 38.198V28.166L74.1529 23.147Z" fill="#1F56A3"/>
<path d="M74.1529 23.147L65.4959 28.18L56.8359 23.146L65.4959 18.112L74.1529 23.147Z" fill="#1B93EB"/>
<path d="M65.4939 28.18V38.198L56.8359 33.164V23.146L65.4939 28.18Z" fill="#0078D4"/>
<path d="M74.1529 66.068V76.085L65.4939 81.119V71.087L74.1529 66.068Z" fill="#1F56A3"/>
<path d="M74.1529 66.068L65.4959 71.101L56.8359 66.067L65.4959 61.033L74.1529 66.068Z" fill="#1B93EB"/>
<path d="M65.4939 71.101V81.119L56.8359 76.085V66.067L65.4939 71.101Z" fill="#0078D4"/>
<path d="M21.0472 35.9437C22.3622 34.9461 23.9685 34.4078 25.6192 34.4116C26.4964 34.3941 27.3483 34.7067 28.006 35.2874C28.1649 35.4293 28.3113 35.5845 28.4437 35.7514C28.576 35.5844 28.7225 35.4292 28.8814 35.2874C29.5391 34.7066 30.3909 34.3941 31.2681 34.4116C32.9188 34.4078 34.5251 34.9461 35.8402 35.9437C36.8621 36.7125 37.5896 37.8084 37.9014 39.0486C38.531 39.1649 39.1118 39.4655 39.5703 39.9123C40.313 40.6683 40.8564 41.5969 41.1518 42.6147C41.4941 43.6878 41.6462 44.8125 41.6012 45.9379C41.5783 46.5187 41.4875 47.0948 41.3308 47.6545C41.3643 47.6689 41.3977 47.684 41.4309 47.6996C41.9965 47.9686 42.4704 48.3981 42.7937 48.9346C43.4802 50.3163 43.7826 51.8572 43.6693 53.3959C43.7123 54.261 43.5619 55.1248 43.2293 55.9245C42.8966 56.7243 42.3899 57.4399 41.7461 58.0193C41.1828 58.5022 40.5235 58.8603 39.8118 59.0699C39.553 60.2607 39.0215 61.3753 38.2591 62.3259C37.6584 63.1133 36.8848 63.752 35.9979 64.1928C35.1111 64.6335 34.1348 64.8646 33.1445 64.868C32.3413 64.8384 31.5525 64.6462 30.8257 64.3028C30.099 63.9595 29.4495 63.4723 28.9166 62.8706C28.7461 62.6917 28.5881 62.5097 28.4437 62.3285C28.2991 62.5097 28.1413 62.6917 27.9706 62.8706C27.4377 63.4723 26.7882 63.9595 26.0615 64.3028C25.3348 64.6462 24.546 64.8384 23.7428 64.868C22.7525 64.8646 21.7762 64.6335 20.8894 64.1928C20.0026 63.752 19.2289 63.1133 18.6283 62.3259C17.8659 61.3753 17.3344 60.2607 17.0756 59.0699C16.3638 58.8603 15.7046 58.5022 15.1413 58.0193C14.4975 57.4399 13.9908 56.7243 13.6581 55.9245C13.3254 55.1248 13.1751 54.261 13.2181 53.3959C13.1047 51.8572 13.4071 50.3163 14.0936 48.9346C14.417 48.3981 14.8909 47.9687 15.4565 47.6996C15.4897 47.684 15.5231 47.669 15.5566 47.6545C15.3999 47.0948 15.3091 46.5187 15.2862 45.9379C15.2412 44.8125 15.3932 43.6878 15.7355 42.6147C16.0309 41.5969 16.5743 40.6684 17.317 39.9123C17.7755 39.4655 18.3564 39.1649 18.986 39.0486C19.2978 37.8084 20.0253 36.7125 21.0472 35.9437V35.9437ZM22.451 37.7471C22.0509 38.032 21.7232 38.4069 21.4942 38.8414C21.2652 39.276 21.1414 39.7583 21.1326 40.2494C21.1326 40.4305 21.0896 40.609 21.0071 40.7702C20.9245 40.9314 20.8049 41.0706 20.658 41.1765C20.511 41.2823 20.3411 41.3518 20.1621 41.3791C19.983 41.4063 19.8001 41.3907 19.6283 41.3334C19.419 41.2635 19.1987 41.2805 18.8808 41.5788C18.423 42.0706 18.0905 42.6656 17.9115 43.3132C17.6522 44.1277 17.5364 44.9811 17.5692 45.8353C17.5726 46.5483 17.7648 47.2476 18.1264 47.8621C18.1787 47.9408 18.2212 48.0256 18.2527 48.1147H19.9014C20.9982 48.1148 22.0544 48.5299 22.8578 49.2766C23.6611 50.0234 24.1521 51.0465 24.2322 52.1404C24.8883 52.4027 25.4329 52.8849 25.7728 53.5045C26.1126 54.124 26.2265 54.8424 26.0951 55.5368C25.9636 56.2311 25.595 56.8581 25.0522 57.3105C24.5093 57.763 23.8262 58.0127 23.1195 58.017C22.4129 58.0212 21.7268 57.7798 21.1785 57.3339C20.6303 56.8881 20.2541 56.2655 20.1143 55.5729C19.9744 54.8802 20.0797 54.1605 20.412 53.5368C20.7444 52.9132 21.2831 52.4245 21.9361 52.1543C21.8634 51.6666 21.618 51.2212 21.2446 50.8992C20.8711 50.5773 20.3944 50.4001 19.9014 50.4001H15.9401L15.9018 50.3995C15.5807 51.3641 15.4455 52.3809 15.5034 53.3959C15.4615 53.9311 15.541 54.4689 15.736 54.9691C15.9309 55.4694 16.2363 55.9191 16.6293 56.2849C17.0439 56.6537 17.5622 56.8854 18.1135 56.9484C18.4166 56.9484 18.7072 57.0688 18.9215 57.283C19.1358 57.4973 19.2562 57.788 19.2562 58.091C19.3469 59.1231 19.7506 60.1028 20.4134 60.8991C20.8001 61.4184 21.3021 61.8408 21.8798 62.133C22.4576 62.4251 23.0953 62.579 23.7428 62.5826C24.2365 62.5519 24.7189 62.4219 25.1612 62.2004C25.6035 61.9789 25.9965 61.6704 26.3168 61.2934C26.6197 60.9772 26.8847 60.6269 27.1066 60.2494C27.1739 60.1356 27.2329 60.0171 27.2832 59.8947L27.2911 59.874V56.133L27.2909 56.1134L27.2911 56.0937V45.4485H25.9268C25.6616 46.104 25.1767 46.6469 24.5551 46.9841C23.9336 47.3213 23.2141 47.4319 22.52 47.2968C21.8258 47.1617 21.2003 46.7895 20.7506 46.2438C20.3008 45.6981 20.0549 45.0129 20.0549 44.3058C20.0549 43.5987 20.3008 42.9135 20.7506 42.3678C21.2003 41.8222 21.8258 41.4499 22.52 41.3148C23.2141 41.1797 23.9336 41.2903 24.5551 41.6275C25.1767 41.9647 25.6616 42.5076 25.9268 43.1631H27.2911V39.314L27.2908 39.2967C27.2903 39.2793 27.2894 39.2498 27.2873 39.2101C27.283 39.1302 27.274 39.0106 27.2559 38.8651C27.2142 38.5129 27.1323 38.1667 27.012 37.8332C26.9063 37.5158 26.7262 37.2284 26.4868 36.9948C26.2473 36.7865 25.9361 36.6797 25.6191 36.6969C24.477 36.6933 23.3648 37.0619 22.451 37.7471ZM29.5963 57.2561V59.8741L29.604 59.8948C29.6544 60.0171 29.7134 60.1356 29.7806 60.2495C30.0025 60.6269 30.2676 60.9773 30.5704 61.2934C30.8907 61.6704 31.2838 61.9789 31.7261 62.2004C32.1684 62.4219 32.6508 62.5519 33.1445 62.5827C33.7919 62.5791 34.4297 62.4252 35.0075 62.133C35.5853 61.8408 36.0873 61.4184 36.474 60.8991C37.1367 60.1028 37.5404 59.1231 37.6311 58.091C37.6311 57.7879 37.7515 57.4973 37.9658 57.283C38.1801 57.0687 38.4707 56.9483 38.7738 56.9483C39.3251 56.8854 39.8434 56.6536 40.258 56.2848C40.651 55.919 40.9564 55.4693 41.1513 54.9691C41.3463 54.4688 41.4258 53.931 41.3839 53.3958C41.4841 52.2831 41.3012 51.1631 40.8522 50.14C40.7611 49.9781 40.6229 49.8479 40.4559 49.7666C40.2203 49.6699 39.9663 49.6262 39.7119 49.6383C39.5052 49.6383 39.3023 49.5822 39.1248 49.4759C38.9474 49.3697 38.8022 49.2173 38.7046 49.035C38.607 48.8527 38.5607 48.6473 38.5706 48.4408C38.5805 48.2342 38.6463 48.0342 38.761 47.8621C39.1225 47.2476 39.3148 46.5483 39.3181 45.8353C39.3509 44.9811 39.2351 44.1277 38.9758 43.3132C38.7969 42.6655 38.4644 42.0706 38.0065 41.5788C37.6887 41.2805 37.4684 41.2635 37.259 41.3334C37.0872 41.3907 36.9043 41.4063 36.7253 41.379C36.5463 41.3518 36.3763 41.2823 36.2294 41.1765C36.0825 41.0706 35.9628 40.9313 35.8803 40.7702C35.7977 40.609 35.7547 40.4305 35.7546 40.2494C35.7459 39.7583 35.622 39.276 35.3931 38.8415C35.1641 38.4069 34.8364 38.032 34.4363 37.7471C33.5225 37.0619 32.4102 36.6932 31.2681 36.6969C30.9511 36.6798 30.64 36.7866 30.4004 36.9949C30.161 37.2284 29.981 37.5159 29.8754 37.8332C29.7551 38.1668 29.6732 38.513 29.6313 38.8651C29.6132 39.0106 29.6043 39.1302 29.6001 39.2101C29.598 39.2499 29.5971 39.2793 29.5966 39.2967L29.5963 39.314V54.9708H30.5667C30.8368 54.9708 31.1042 54.9176 31.3538 54.8142C31.6033 54.7109 31.83 54.5594 32.021 54.3684C32.212 54.1774 32.3635 53.9506 32.4669 53.7011C32.5702 53.4516 32.6234 53.1841 32.6234 52.914V50.1786C31.9679 49.9134 31.425 49.4285 31.0878 48.8069C30.7506 48.1854 30.64 47.4659 30.7751 46.7718C30.9102 46.0777 31.2825 45.4521 31.8282 45.0024C32.3739 44.5526 33.059 44.3067 33.7661 44.3067C34.4733 44.3067 35.1584 44.5526 35.7041 45.0024C36.2498 45.4521 36.6221 46.0777 36.7571 46.7718C36.8922 47.4659 36.7817 48.1854 36.4445 48.8069C36.1072 49.4285 35.5643 49.9134 34.9088 50.1786V52.914C34.9088 54.0656 34.4513 55.1701 33.637 55.9844C32.8227 56.7987 31.7183 57.2562 30.5666 57.2562L29.5963 57.2561ZM23.1011 43.544C22.9505 43.544 22.8032 43.5887 22.6779 43.6724C22.5527 43.7561 22.455 43.8751 22.3974 44.0143C22.3397 44.1535 22.3246 44.3066 22.354 44.4544C22.3834 44.6022 22.456 44.7379 22.5625 44.8444C22.669 44.951 22.8048 45.0235 22.9525 45.0529C23.1003 45.0823 23.2535 45.0672 23.3927 45.0096C23.5319 44.9519 23.6508 44.8543 23.7345 44.729C23.8183 44.6037 23.8629 44.4564 23.8629 44.3058C23.8629 44.1037 23.7827 43.91 23.6398 43.7671C23.4969 43.6243 23.3032 43.544 23.1011 43.544V43.544ZM22.3394 54.9707C22.3394 55.1214 22.384 55.2687 22.4678 55.394C22.5515 55.5192 22.6704 55.6169 22.8096 55.6745C22.9488 55.7322 23.102 55.7473 23.2498 55.7179C23.3975 55.6885 23.5333 55.6159 23.6398 55.5094C23.7463 55.4029 23.8189 55.2671 23.8483 55.1194C23.8777 54.9716 23.8626 54.8184 23.8049 54.6792C23.7473 54.54 23.6496 54.421 23.5244 54.3373C23.3991 54.2536 23.2518 54.209 23.1011 54.209C22.8991 54.209 22.7053 54.2892 22.5625 54.4321C22.4196 54.575 22.3394 54.7687 22.3394 54.9708V54.9707ZM33.0044 47.3529C33.0044 47.5036 33.049 47.6509 33.1327 47.7761C33.2165 47.9014 33.3354 47.9991 33.4746 48.0567C33.6138 48.1144 33.767 48.1295 33.9148 48.1001C34.0625 48.0707 34.1983 47.9981 34.3048 47.8916C34.4114 47.785 34.4839 47.6493 34.5133 47.5015C34.5427 47.3538 34.5276 47.2006 34.47 47.0614C34.4123 46.9222 34.3147 46.8032 34.1894 46.7195C34.0641 46.6358 33.9168 46.5911 33.7661 46.5911C33.6661 46.5911 33.567 46.6108 33.4746 46.6491C33.3822 46.6874 33.2982 46.7435 33.2274 46.8143C33.1567 46.885 33.1006 46.969 33.0623 47.0614C33.024 47.1539 33.0043 47.253 33.0043 47.353L33.0044 47.3529Z" fill="url(#paint1_linear_1321_3665)"/>
<path d="M22.4509 37.7471C22.0508 38.032 21.723 38.4069 21.4941 38.8414C21.2651 39.276 21.1413 39.7583 21.1325 40.2494C21.1325 40.4305 21.0895 40.609 21.0069 40.7702C20.9244 40.9314 20.8048 41.0706 20.6578 41.1765C20.5109 41.2823 20.3409 41.3518 20.1619 41.3791C19.9829 41.4063 19.8 41.3907 19.6282 41.3334C19.4189 41.2635 19.1985 41.2805 18.8807 41.5788C18.4228 42.0706 18.0904 42.6656 17.9114 43.3132C17.6521 44.1277 17.5363 44.9811 17.5691 45.8353C17.5724 46.5483 17.7647 47.2476 18.1262 47.8621C18.1786 47.9408 18.2211 48.0256 18.2526 48.1147H19.9012C20.9981 48.1148 22.0543 48.5299 22.8576 49.2767C23.661 50.0234 24.152 51.0465 24.232 52.1405C24.8882 52.4027 25.4328 52.8849 25.7726 53.5045C26.1125 54.124 26.2264 54.8424 26.095 55.5368C25.9635 56.2311 25.5948 56.8581 25.052 57.3105C24.5092 57.763 23.8261 58.0127 23.1194 58.017C22.4128 58.0212 21.7267 57.7798 21.1784 57.3339C20.6302 56.8881 20.254 56.2655 20.1142 55.5729C19.9743 54.8802 20.0796 54.1605 20.4119 53.5368C20.7442 52.9132 21.283 52.4245 21.9359 52.1543C21.8633 51.6666 21.6179 51.2212 21.2444 50.8992C20.871 50.5773 20.3943 50.4001 19.9012 50.4001H15.94L15.9017 50.3995C15.5806 51.3641 15.4454 52.3809 15.5033 53.3959C15.4614 53.9311 15.5409 54.4689 15.7358 54.9691C15.9308 55.4694 16.2362 55.9191 16.6292 56.2849C17.0437 56.6537 17.5621 56.8854 18.1134 56.9484C18.4165 56.9484 18.7071 57.0688 18.9214 57.283C19.1357 57.4973 19.2561 57.788 19.2561 58.091C19.3468 59.1231 19.7505 60.1028 20.4133 60.8991C20.7999 61.4184 21.3019 61.8408 21.8797 62.133C22.4575 62.4251 23.0952 62.579 23.7426 62.5826C24.2364 62.5519 24.7188 62.4219 25.1611 62.2004C25.6033 61.9789 25.9964 61.6704 26.3166 61.2934C26.6195 60.9772 26.8846 60.6269 27.1065 60.2494C27.1738 60.1356 27.2328 60.0171 27.283 59.8947L27.291 59.874V56.133L27.2908 56.1134L27.291 56.0937V45.4485H25.9266C25.6615 46.104 25.1766 46.6469 24.555 46.9841C23.9334 47.3214 23.214 47.4319 22.5198 47.2968C21.8257 47.1617 21.2002 46.7895 20.7505 46.2438C20.3007 45.6981 20.0548 45.0129 20.0548 44.3058C20.0548 43.5987 20.3007 42.9135 20.7505 42.3678C21.2002 41.8222 21.8257 41.4499 22.5198 41.3148C23.214 41.1797 23.9334 41.2903 24.555 41.6275C25.1766 41.9647 25.6615 42.5076 25.9266 43.1631H27.291V39.314L27.2907 39.2967C27.2902 39.2793 27.2893 39.2498 27.2871 39.2101C27.2829 39.1302 27.2739 39.0106 27.2558 38.8651C27.2141 38.5129 27.1322 38.1667 27.0118 37.8332C26.9062 37.5158 26.7261 37.2284 26.4867 36.9948C26.2472 36.7865 25.9359 36.6797 25.619 36.6969C24.4769 36.6933 23.3647 37.0619 22.4509 37.7471ZM29.5962 57.2561V59.8741L29.6039 59.8948C29.6543 60.0171 29.7133 60.1356 29.7805 60.2495C30.0024 60.6269 30.2674 60.9773 30.5703 61.2934C30.8906 61.6704 31.2837 61.9789 31.726 62.2004C32.1682 62.4219 32.6507 62.5519 33.1444 62.5827C33.7918 62.5791 34.4296 62.4252 35.0074 62.133C35.5852 61.8408 36.0872 61.4184 36.4738 60.8991C37.1366 60.1028 37.5403 59.1231 37.631 58.091C37.631 57.7879 37.7514 57.4973 37.9657 57.283C38.1799 57.0687 38.4706 56.9483 38.7736 56.9483C39.3249 56.8854 39.8433 56.6536 40.2579 56.2848C40.6509 55.919 40.9563 55.4693 41.1512 54.9691C41.3462 54.4688 41.4257 53.931 41.3838 53.3958C41.484 52.2831 41.3011 51.1631 40.8521 50.14C40.761 49.9781 40.6228 49.8479 40.4558 49.7666C40.2202 49.6699 39.9662 49.6262 39.7118 49.6383C39.505 49.6383 39.3021 49.5822 39.1247 49.4759C38.9473 49.3697 38.8021 49.2173 38.7045 49.035C38.6069 48.8527 38.5606 48.6473 38.5705 48.4408C38.5804 48.2342 38.6462 48.0342 38.7608 47.8621C39.1224 47.2476 39.3147 46.5483 39.318 45.8353C39.3508 44.9811 39.235 44.1277 38.9756 43.3132C38.7967 42.6655 38.4642 42.0706 38.0064 41.5788C37.6885 41.2805 37.4682 41.2635 37.2589 41.3334C37.0871 41.3907 36.9042 41.4063 36.7252 41.379C36.5461 41.3518 36.3762 41.2823 36.2293 41.1765C36.0823 41.0706 35.9627 40.9313 35.8801 40.7702C35.7976 40.609 35.7545 40.4305 35.7545 40.2494C35.7458 39.7583 35.6219 39.276 35.393 38.8415C35.164 38.4069 34.8363 38.032 34.4362 37.7471C33.5224 37.0619 32.4101 36.6932 31.268 36.6969C30.951 36.6798 30.6398 36.7866 30.4003 36.9949C30.1609 37.2284 29.9809 37.5159 29.8753 37.8332C29.7549 38.1668 29.6731 38.513 29.6312 38.8651C29.6131 39.0106 29.6042 39.1302 29.6 39.2101C29.5978 39.2499 29.5969 39.2794 29.5965 39.2968L29.5962 39.314V54.9708H30.5665C30.8366 54.9708 31.1041 54.9176 31.3536 54.8142C31.6032 54.7109 31.8299 54.5594 32.0209 54.3684C32.2119 54.1774 32.3634 53.9506 32.4668 53.7011C32.5701 53.4516 32.6233 53.1841 32.6233 52.914V50.1786C31.9678 49.9134 31.4249 49.4285 31.0877 48.8069C30.7504 48.1854 30.6399 47.4659 30.775 46.7718C30.9101 46.0777 31.2823 45.4521 31.828 45.0024C32.3737 44.5526 33.0589 44.3067 33.766 44.3067C34.4731 44.3067 35.1583 44.5526 35.704 45.0024C36.2497 45.4521 36.622 46.0777 36.757 46.7718C36.8921 47.4659 36.7816 48.1854 36.4443 48.8069C36.1071 49.4285 35.5642 49.9134 34.9087 50.1786V52.914C34.9087 54.0656 34.4512 55.1701 33.6369 55.9844C32.8226 56.7987 31.7181 57.2562 30.5665 57.2562L29.5962 57.2561ZM23.101 43.544C22.9504 43.544 22.8031 43.5887 22.6778 43.6724C22.5525 43.7561 22.4549 43.8751 22.3972 44.0143C22.3396 44.1535 22.3245 44.3066 22.3539 44.4544C22.3833 44.6022 22.4558 44.7379 22.5624 44.8444C22.6689 44.951 22.8046 45.0235 22.9524 45.0529C23.1002 45.0823 23.2534 45.0672 23.3925 45.0096C23.5317 44.9519 23.6507 44.8543 23.7344 44.729C23.8181 44.6037 23.8628 44.4564 23.8628 44.3058C23.8628 44.1037 23.7825 43.91 23.6397 43.7671C23.4968 43.6243 23.3031 43.544 23.101 43.544V43.544ZM22.3392 54.9707C22.3392 55.1214 22.3839 55.2687 22.4676 55.394C22.5513 55.5192 22.6703 55.6169 22.8095 55.6745C22.9487 55.7322 23.1019 55.7473 23.2496 55.7179C23.3974 55.6885 23.5332 55.6159 23.6397 55.5094C23.7462 55.4029 23.8188 55.2671 23.8482 55.1194C23.8776 54.9716 23.8625 54.8184 23.8048 54.6792C23.7472 54.54 23.6495 54.421 23.5243 54.3373C23.399 54.2536 23.2517 54.209 23.101 54.209C22.899 54.209 22.7052 54.2892 22.5624 54.4321C22.4195 54.575 22.3392 54.7687 22.3392 54.9708V54.9707ZM33.0042 47.3529C33.0042 47.5036 33.0489 47.6509 33.1326 47.7761C33.2163 47.9014 33.3353 47.9991 33.4745 48.0567C33.6137 48.1144 33.7669 48.1295 33.9147 48.1001C34.0624 48.0707 34.1982 47.9981 34.3047 47.8916C34.4112 47.785 34.4838 47.6493 34.5132 47.5015C34.5426 47.3538 34.5275 47.2006 34.4698 47.0614C34.4122 46.9222 34.3145 46.8032 34.1893 46.7195C34.064 46.6358 33.9167 46.5911 33.766 46.5911C33.666 46.5911 33.5669 46.6108 33.4745 46.6491C33.382 46.6874 33.2981 46.7435 33.2273 46.8143C33.1566 46.885 33.1005 46.969 33.0622 47.0614C33.0239 47.1539 33.0042 47.253 33.0042 47.353L33.0042 47.3529Z" fill="url(#paint2_linear_1321_3665)"/>
<path d="M44.907 49.64H48.1725C48.6626 49.64 49.1325 49.4453 49.4791 49.0988C49.8256 48.7523 50.0202 48.2823 50.0202 47.7923V30.0515C50.0202 29.8088 50.068 29.5685 50.1609 29.3444C50.2538 29.1202 50.3899 28.9165 50.5614 28.7449C50.733 28.5733 50.9367 28.4372 51.1609 28.3444C51.3851 28.2515 51.6253 28.2037 51.868 28.2038H54.3327" stroke="white" stroke-width="0.75" stroke-miterlimit="10"/>
<path d="M44.907 49.64H48.1725C48.4152 49.64 48.6554 49.6878 48.8796 49.7807C49.1038 49.8735 49.3075 50.0096 49.4791 50.1812C49.6506 50.3528 49.7867 50.5565 49.8796 50.7806C49.9725 51.0048 50.0202 51.2451 50.0202 51.4877V69.2285C50.0202 69.4712 50.068 69.7114 50.1609 69.9356C50.2538 70.1598 50.3899 70.3635 50.5614 70.5351C50.733 70.7066 50.9367 70.8427 51.1609 70.9356C51.3851 71.0285 51.6253 71.0762 51.868 71.0762H54.3327" stroke="white" stroke-width="0.75" stroke-miterlimit="10"/>
<path d="M66.7442 58.5942C66.4029 58.5978 66.0651 58.5242 65.7562 58.3789C65.622 58.3144 65.4932 58.2391 65.3713 58.1537C65.2508 58.2358 65.123 58.3067 64.9894 58.3653C64.6974 58.4903 64.3839 58.5574 64.0664 58.563H64.0626C63.6977 58.5671 63.3365 58.4887 63.0061 58.3335C62.6757 58.1784 62.3846 57.9506 62.1547 57.6671L56.9567 51.1107C56.6182 50.6863 56.4357 50.1586 56.4395 49.6158C56.4394 49.3522 56.482 49.0904 56.5655 48.8404C56.653 48.5785 56.7861 48.3341 56.9585 48.1184L62.1479 41.5808C62.5195 41.099 63.0621 40.7784 63.6634 40.6852C64.2647 40.5921 64.8787 40.7335 65.3787 41.0803C65.485 41.0058 65.596 40.9384 65.7111 40.8786C66.0308 40.7154 66.3853 40.6325 66.7442 40.637C67.1002 40.6353 67.452 40.7145 67.7729 40.8687C68.0843 41.0208 68.3604 41.2363 68.5836 41.5014L74.0016 48.0878C74.357 48.5204 74.5505 49.0633 74.549 49.6232C74.5494 49.889 74.5066 50.1532 74.4223 50.4054C74.3253 50.6944 74.1694 50.9602 73.9645 51.186L68.5978 57.7134C68.3761 57.9826 68.0988 58.2006 67.7849 58.3526C67.4711 58.5045 67.128 58.5867 66.7794 58.5936L66.7615 58.5942L66.7442 58.5942Z" fill="white"/>
<path d="M73.2834 49.6233C73.2838 49.7528 73.2632 49.8815 73.2224 50.0044C73.1804 50.1287 73.1129 50.2429 73.0242 50.3397L67.6204 56.9097C67.5136 57.0392 67.3798 57.1437 67.2285 57.2162C67.0771 57.2886 66.9117 57.327 66.7439 57.3289C66.5915 57.3322 66.4404 57.3009 66.3018 57.2375C66.1712 57.174 66.0505 57.0919 65.9436 56.9936C65.8327 56.8929 65.733 56.7804 65.6464 56.6582C65.56 56.5363 65.466 56.4168 65.3644 56.3C65.2678 56.4219 65.1764 56.5413 65.09 56.6582C65.0066 56.7716 64.9149 56.8786 64.8156 56.9783C64.7191 57.0748 64.6053 57.1524 64.4802 57.207C64.3376 57.2661 64.1849 57.2972 64.0306 57.2984C63.8589 57.2987 63.6894 57.2596 63.5351 57.1841C63.3814 57.1108 63.2459 57.0041 63.1388 56.8716L57.9484 50.3245C57.7867 50.124 57.7004 49.8732 57.7045 49.6157C57.7045 49.4887 57.7251 49.3626 57.7655 49.2422C57.806 49.1204 57.868 49.0069 57.9484 48.9069L63.1388 42.3674C63.2425 42.2327 63.3754 42.1232 63.5275 42.0473C63.6839 41.9701 63.8562 41.931 64.0305 41.9329C64.1746 41.9288 64.3181 41.9544 64.4518 42.0082C64.5856 42.0619 64.7068 42.1427 64.808 42.2454C64.9084 42.3463 65.0025 42.4532 65.09 42.5655C65.1814 42.6824 65.2729 42.8044 65.3643 42.9314C65.4609 42.8145 65.5549 42.6951 65.6464 42.5732C65.7347 42.4546 65.8342 42.3449 65.9436 42.2454C66.0495 42.1494 66.1674 42.0675 66.2942 42.0015C66.4339 41.9326 66.5882 41.8986 66.7439 41.9025C66.91 41.901 67.0742 41.9375 67.2241 42.0092C67.3766 42.0844 67.5117 42.1908 67.6204 42.3217L70.7301 46.102L73.0243 48.8916C73.1943 49.0972 73.2861 49.3564 73.2834 49.6233V49.6233ZM64.2973 45.82C64.2994 45.8562 64.3127 45.8908 64.3354 45.9191L66.7439 48.8458L68.9847 46.1172C69.024 46.0679 69.0673 46.022 69.1143 45.9801C69.1627 45.9376 69.2165 45.9017 69.2744 45.8733L66.8659 42.9466C66.8517 42.9277 66.8333 42.9123 66.8121 42.9017C66.7909 42.8911 66.7676 42.8856 66.7439 42.8856C66.7203 42.8856 66.6969 42.8911 66.6758 42.9017C66.6546 42.9123 66.6362 42.9277 66.622 42.9466L64.3354 45.7133C64.3118 45.7439 64.2984 45.7813 64.2973 45.82V45.82ZM64.7318 55.5301L63.5809 54.1353C63.4088 53.9339 63.3165 53.6762 63.3218 53.4113C63.3213 53.2818 63.3419 53.1531 63.3828 53.0302C63.4258 52.904 63.4931 52.7875 63.5809 52.6872L66.0275 49.7223C66.0496 49.6913 66.0603 49.6536 66.058 49.6156C66.0596 49.5801 66.0488 49.545 66.0275 49.5165L63.5809 46.544C63.4134 46.3399 63.3218 46.084 63.3218 45.82C63.3218 45.5559 63.4134 45.3 63.5809 45.0959L64.7318 43.7011L64.1602 42.9694C64.1257 42.9353 64.0791 42.9161 64.0306 42.9161C63.9821 42.9161 63.9355 42.9353 63.901 42.9694L58.7182 49.5165C58.6955 49.5448 58.6822 49.5794 58.6801 49.6156C58.6789 49.6337 58.6815 49.6519 58.6877 49.669C58.6967 49.685 58.7069 49.7003 58.7182 49.7147L63.901 56.2618C63.9168 56.2809 63.9366 56.2962 63.959 56.3068C63.9814 56.3173 64.0058 56.3228 64.0306 56.3228C64.0554 56.3228 64.0798 56.3173 64.1022 56.3068C64.1246 56.2962 64.1444 56.2809 64.1602 56.2618L64.7318 55.5301ZM69.2744 53.3655C69.1655 53.297 69.0679 53.2122 68.9847 53.114L66.7439 50.3855L64.3354 53.3122C64.3118 53.3429 64.2984 53.3802 64.2973 53.4189C64.2994 53.4551 64.3127 53.4897 64.3354 53.518L66.622 56.2923C66.6362 56.3113 66.6546 56.3266 66.6758 56.3372C66.697 56.3478 66.7203 56.3533 66.744 56.3533C66.7676 56.3533 66.791 56.3478 66.8121 56.3372C66.8333 56.3266 66.8517 56.3113 66.8659 56.2923L69.2744 53.3655ZM72.3078 49.6004C72.3073 49.5874 72.3047 49.5745 72.3002 49.5623C72.2937 49.5449 72.2833 49.5292 72.2697 49.5166L69.9832 46.7346C69.9694 46.7176 69.952 46.704 69.9322 46.6948C69.9123 46.6855 69.8907 46.6809 69.8689 46.6813C69.8439 46.68 69.819 46.685 69.7965 46.6956C69.7739 46.7062 69.7542 46.7223 69.7393 46.7423L67.4604 49.5166C67.4377 49.5448 67.4243 49.5795 67.4223 49.6157C67.4233 49.6544 67.4367 49.6917 67.4604 49.7224L69.7393 52.4891C69.753 52.5085 69.7714 52.5242 69.7926 52.5348C69.8139 52.5455 69.8375 52.5507 69.8612 52.5501C69.8862 52.5513 69.911 52.5464 69.9336 52.5357C69.9562 52.5251 69.9759 52.5091 69.9908 52.4891L72.2697 49.7224C72.2965 49.6876 72.3101 49.6443 72.3078 49.6004V49.6004Z" fill="url(#paint3_linear_1321_3665)"/>
<path opacity="0.2" d="M64.3087 45.82C64.3108 45.8562 64.3241 45.8908 64.3468 45.9191L66.7553 48.8458L68.9961 46.1172C69.0353 46.0679 69.0786 46.022 69.1256 45.9801C69.174 45.9376 69.2278 45.9017 69.2856 45.8733L66.8772 42.9466C66.863 42.9277 66.8446 42.9123 66.8234 42.9017C66.8023 42.8912 66.7789 42.8856 66.7553 42.8856C66.7316 42.8856 66.7083 42.8912 66.6871 42.9017C66.6659 42.9123 66.6475 42.9277 66.6333 42.9466L64.3468 45.7133C64.3231 45.7439 64.3098 45.7813 64.3087 45.82V45.82ZM64.7431 55.5301L63.5922 54.1353C63.4201 53.9339 63.3279 53.6762 63.3331 53.4113C63.3327 53.2818 63.3533 53.1531 63.3941 53.0302C63.4371 52.904 63.5045 52.7875 63.5922 52.6872L66.0388 49.7223C66.0609 49.6913 66.0716 49.6536 66.0693 49.6156C66.0709 49.5801 66.0602 49.545 66.0388 49.5165L63.5922 46.544C63.4247 46.3399 63.3331 46.0841 63.3331 45.82C63.3331 45.5559 63.4247 45.3 63.5922 45.0959L64.7431 43.7011L64.1715 42.9694C64.137 42.9353 64.0905 42.9161 64.0419 42.9161C63.9934 42.9161 63.9468 42.9353 63.9124 42.9694L58.7296 49.5165C58.7069 49.5448 58.6935 49.5794 58.6914 49.6156C58.6903 49.6337 58.6928 49.6519 58.6991 49.669C58.708 49.685 58.7182 49.7003 58.7296 49.7147L63.9124 56.2618C63.9281 56.2809 63.9479 56.2962 63.9703 56.3068C63.9927 56.3173 64.0172 56.3228 64.0419 56.3228C64.0667 56.3228 64.0911 56.3173 64.1135 56.3068C64.1359 56.2962 64.1557 56.2809 64.1715 56.2618L64.7431 55.5301ZM69.2857 53.3656C69.1769 53.297 69.0792 53.2122 68.9961 53.114L66.7553 50.3854L64.3468 53.3122C64.3231 53.3428 64.3098 53.3802 64.3087 53.4189C64.3108 53.4551 64.3241 53.4897 64.3468 53.518L66.6333 56.2923C66.6475 56.3112 66.6659 56.3266 66.6871 56.3372C66.7083 56.3478 66.7316 56.3533 66.7553 56.3533C66.7789 56.3533 66.8023 56.3478 66.8234 56.3372C66.8446 56.3266 66.863 56.3112 66.8772 56.2923L69.2857 53.3656ZM72.3192 49.6004C72.3186 49.5874 72.316 49.5745 72.3115 49.5623C72.3051 49.5449 72.2946 49.5292 72.281 49.5166L69.9945 46.7346C69.9807 46.7177 69.9633 46.7041 69.9435 46.6948C69.9237 46.6856 69.902 46.6809 69.8802 46.6813C69.8552 46.6801 69.8304 46.685 69.8078 46.6956C69.7852 46.7063 69.7656 46.7223 69.7506 46.7423L67.4717 49.5166C67.449 49.5449 67.4357 49.5795 67.4336 49.6157C67.4347 49.6544 67.448 49.6918 67.4717 49.7224L69.7506 52.4891C69.7644 52.5085 69.7827 52.5242 69.804 52.5348C69.8252 52.5455 69.8488 52.5507 69.8726 52.5501C69.8975 52.5513 69.9224 52.5464 69.945 52.5358C69.9676 52.5251 69.9872 52.5091 70.0021 52.4891L72.281 49.7224C72.3079 49.6876 72.3214 49.6443 72.3192 49.6004V49.6004Z" fill="url(#paint4_linear_1321_3665)"/>
</g>
<defs>
<linearGradient id="paint0_linear_1321_3665" x1="47.8698" y1="-15.1532" x2="51.8525" y2="130.615" gradientUnits="userSpaceOnUse">
<stop stop-color="#00ABDE"/>
<stop offset="1" stop-color="#007ED8"/>
</linearGradient>
<linearGradient id="paint1_linear_1321_3665" x1="28.4437" y1="64.868" x2="28.4437" y2="34.4116" gradientUnits="userSpaceOnUse">
<stop stop-color="#004DAE"/>
<stop offset="0.21" stop-color="#0061C4"/>
<stop offset="0.51" stop-color="#0078DD"/>
<stop offset="0.78" stop-color="#0086EC"/>
<stop offset="1" stop-color="#008BF1"/>
</linearGradient>
<linearGradient id="paint2_linear_1321_3665" x1="28.4436" y1="62.5827" x2="28.4436" y2="36.6505" gradientUnits="userSpaceOnUse">
<stop stop-color="#005BA1"/>
<stop offset="0.26" stop-color="#00589D"/>
<stop offset="0.53" stop-color="#004F90"/>
<stop offset="0.8" stop-color="#003F7C"/>
<stop offset="1" stop-color="#003067"/>
</linearGradient>
<linearGradient id="paint3_linear_1321_3665" x1="65.494" y1="57.3289" x2="65.494" y2="41.9024" gradientUnits="userSpaceOnUse">
<stop stop-color="#004DAE"/>
<stop offset="0.21" stop-color="#0061C4"/>
<stop offset="0.51" stop-color="#0078DD"/>
<stop offset="0.78" stop-color="#0086EC"/>
<stop offset="1" stop-color="#008BF1"/>
</linearGradient>
<linearGradient id="paint4_linear_1321_3665" x1="65.5053" y1="56.3533" x2="65.5053" y2="42.8856" gradientUnits="userSpaceOnUse">
<stop stop-color="#004DAE"/>
<stop offset="0.21" stop-color="#0061C4"/>
<stop offset="0.51" stop-color="#0078DD"/>
<stop offset="0.78" stop-color="#0086EC"/>
<stop offset="1" stop-color="#008BF1"/>
</linearGradient>
<clipPath id="clip0_1321_3665">
<rect width="99.2799" height="99.28" fill="white"/>
</clipPath>
</defs>
</svg>
