<svg width="103" height="119" viewBox="0 0 103 119" fill="none" xmlns="http://www.w3.org/2000/svg">
<path d="M51.5522 97.8099C25.7022 97.8099 4.74219 76.8599 4.74219 50.9999C4.74219 25.1399 25.7022 4.18994 51.5522 4.18994C77.4022 4.18994 98.3622 25.1499 98.3622 50.9999C98.3622 76.8499 77.4022 97.8099 51.5522 97.8099Z" fill="url(#paint0_linear_861_9800)"/>
<path fill-rule="evenodd" clip-rule="evenodd" d="M97.4521 51.0001C97.4521 76.3501 76.9021 96.9001 51.5521 96.9001C26.2021 96.9001 5.65211 76.3501 5.65211 51.0001C5.65211 25.6501 26.2021 5.10011 51.5521 5.10011C76.9021 5.10011 97.4521 25.6501 97.4521 51.0001ZM51.5521 1.36011C78.9721 1.36011 101.192 23.5801 101.192 51.0001C101.192 78.4201 78.9621 100.64 51.5521 100.64C24.1321 100.64 1.91211 78.4101 1.91211 51.0001C1.91211 23.5801 24.1321 1.36011 51.5521 1.36011Z" fill="#F2F1F0"/>
<path d="M21.8656 76.7193H80.7744C82.142 76.7193 83.2406 75.6207 83.2406 74.2531V30.0182C83.2406 28.6506 82.142 27.552 80.7744 27.552H21.8656C20.498 27.552 19.3994 28.6506 19.3994 30.0182V74.2531C19.3994 75.6095 20.498 76.7193 21.8656 76.7193Z" fill="url(#paint1_linear_861_9800)"/>
<path d="M19.3994 33.2467H83.2182V29.155C83.2182 27.7425 82.0636 26.5879 80.6511 26.5879H21.9665C20.554 26.5879 19.3994 27.7425 19.3994 29.155V33.2467Z" fill="#092E4C"/>
<path d="M23.3794 31.6669C24.265 31.6669 25.0048 30.9495 25.0048 30.0415C25.0048 29.1335 24.2762 28.416 23.3794 28.416C22.4826 28.416 21.7539 29.1447 21.7539 30.0415C21.7539 30.9383 22.4826 31.6669 23.3794 31.6669Z" fill="#50E6FF"/>
<path opacity="0.25" d="M33.3101 65.8894C29.5978 65.8894 26.5854 62.8795 26.5854 59.1745C26.5854 55.7857 29.0903 52.9981 32.3578 52.5551C32.104 51.5095 31.9458 50.4013 31.9458 49.2617C31.9771 41.8503 37.9719 35.8647 45.3936 35.8647C50.5002 35.8647 54.941 38.7464 57.2248 42.9585C58.3354 42.4201 59.6027 42.1039 60.9357 42.1039C65.5675 42.1039 69.3411 45.873 69.3411 50.4967C69.3411 51.1933 69.2456 51.8898 69.0874 52.5551C69.3411 52.5237 69.5949 52.5237 69.8487 52.5237C73.5282 52.4924 76.5405 55.4695 76.5405 59.1745C76.5405 62.8795 73.5282 65.8894 69.8173 65.8894H33.3101V65.8894Z" fill="url(#paint2_linear_861_9800)"/>
<path fill-rule="evenodd" clip-rule="evenodd" d="M32.3459 49.2626C32.3459 50.3651 32.4991 51.4411 32.7466 52.4608C32.7733 52.5709 32.7521 52.6871 32.6882 52.7807C32.6244 52.8742 32.5239 52.9363 32.4116 52.9515C29.3399 53.368 26.9855 55.9885 26.9855 59.1746C26.9855 62.6582 29.8183 65.4895 33.3102 65.4895H69.8174C73.3078 65.4895 76.1406 62.6583 76.1406 59.1746C76.1406 55.6916 73.3092 52.8944 69.8522 52.9238L69.8488 52.9238C69.591 52.9238 69.3618 52.9243 69.1365 52.9521C69.0065 52.9682 68.8768 52.9196 68.7894 52.8219C68.702 52.7243 68.668 52.5901 68.6983 52.4626C68.8506 51.8226 68.9412 51.1574 68.9412 50.4968C68.9412 46.0945 65.3472 42.5039 60.9358 42.5039C59.6662 42.5039 58.4582 42.8052 57.3994 43.3185C57.207 43.4118 56.9752 43.3373 56.8733 43.1493C54.6555 39.059 50.3456 36.2648 45.3937 36.2648C38.1929 36.2648 32.3768 42.0714 32.3459 49.2626ZM33.3102 66.2895C29.3774 66.2895 26.1855 63.101 26.1855 59.1746C26.1855 55.7336 28.623 52.877 31.8733 52.2307C31.6697 51.283 31.5459 50.2861 31.5459 49.2618L31.5459 49.2601C31.5782 41.6289 37.7513 35.4648 45.3937 35.4648C50.5217 35.4648 54.9945 38.2854 57.3937 42.4412C58.4711 41.9739 59.6752 41.7039 60.9358 41.7039C65.788 41.7039 69.7412 45.6516 69.7412 50.4968C69.7412 51.0468 69.6847 51.5942 69.587 52.125C69.6732 52.1238 69.7573 52.1238 69.8384 52.1238H69.8472C73.7483 52.0916 76.9406 55.2482 76.9406 59.1746C76.9406 63.1009 73.7488 66.2895 69.8174 66.2895H33.3102Z" fill="white"/>
<g opacity="0.5">
<path fill-rule="evenodd" clip-rule="evenodd" d="M46.4905 42.2153C37.9189 42.2153 30.9685 49.1601 30.9685 57.7373C30.9685 66.3145 37.9189 73.2593 46.4905 73.2593C55.0619 73.2593 62.0124 66.3088 62.0124 57.7373C62.0124 49.1658 55.0619 42.2153 46.4905 42.2153ZM30.1685 57.7373C30.1685 48.718 37.4772 41.4153 46.4905 41.4153C55.5038 41.4153 62.8125 48.724 62.8125 57.7373C62.8125 66.7506 55.5038 74.0593 46.4905 74.0593C37.4772 74.0593 30.1685 66.7565 30.1685 57.7373Z" fill="#2195DC"/>
<path fill-rule="evenodd" clip-rule="evenodd" d="M46.4902 43.6608C38.7184 43.6608 32.4138 49.9596 32.4138 57.7373C32.4138 65.515 38.7184 71.8138 46.4902 71.8138C54.262 71.8138 60.5667 65.5091 60.5667 57.7373C60.5667 49.9656 54.262 43.6608 46.4902 43.6608ZM31.6138 57.7373C31.6138 49.5176 38.2768 42.8608 46.4902 42.8608C54.7038 42.8608 61.3667 49.5237 61.3667 57.7373C61.3667 65.9509 54.7038 72.6138 46.4902 72.6138C38.2768 72.6138 31.6138 65.9571 31.6138 57.7373Z" fill="#32B0E7"/>
<path fill-rule="evenodd" clip-rule="evenodd" d="M46.4901 45.3051C39.6217 45.3051 34.0578 50.869 34.0578 57.7374C34.0578 64.6059 39.6217 70.1697 46.4901 70.1697C53.3522 70.1697 58.9224 64.5995 58.9224 57.7374C58.9224 50.869 53.3585 45.3051 46.4901 45.3051ZM33.2578 57.7374C33.2578 50.4272 39.1798 44.5051 46.4901 44.5051C53.8004 44.5051 59.7224 50.4272 59.7224 57.7374C59.7224 65.0413 53.794 70.9697 46.4901 70.9697C39.1798 70.9697 33.2578 65.0477 33.2578 57.7374Z" fill="#45CAF2"/>
<path fill-rule="evenodd" clip-rule="evenodd" d="M46.4903 47.1486C40.6423 47.1486 35.9016 51.8893 35.9016 57.7374C35.9016 63.5855 40.6423 68.3262 46.4903 68.3262C52.3384 68.3262 57.0791 63.5855 57.0791 57.7374C57.0791 51.8893 52.3384 47.1486 46.4903 47.1486ZM35.1016 57.7374C35.1016 51.4475 40.2004 46.3486 46.4903 46.3486C52.7802 46.3486 57.8791 51.4475 57.8791 57.7374C57.8791 64.0273 52.7802 69.1262 46.4903 69.1262C40.2004 69.1262 35.1016 64.0273 35.1016 57.7374Z" fill="#50E6FF"/>
<path fill-rule="evenodd" clip-rule="evenodd" d="M46.4904 48.6433C41.4678 48.6433 37.3962 52.7148 37.3962 57.7375C37.3962 62.7601 41.4678 66.8317 46.4904 66.8317C51.5131 66.8317 55.5846 62.7601 55.5846 57.7375C55.5846 52.7148 51.5131 48.6433 46.4904 48.6433ZM36.5962 57.7375C36.5962 52.273 41.0259 47.8433 46.4904 47.8433C51.9549 47.8433 56.3846 52.273 56.3846 57.7375C56.3846 63.202 51.9549 67.6317 46.4904 67.6317C41.0259 67.6317 36.5962 63.202 36.5962 57.7375Z" fill="#DCFAFF"/>
</g>
<g opacity="0.5">
<path fill-rule="evenodd" clip-rule="evenodd" d="M47.069 66.4229C42.1453 66.4229 38.1529 70.4121 38.1529 75.339C38.1529 80.2659 42.1453 84.2551 47.069 84.2551C51.9926 84.2551 55.9851 80.2626 55.9851 75.339C55.9851 70.4154 51.9926 66.4229 47.069 66.4229ZM37.6934 75.339C37.6934 70.1582 41.8916 65.9634 47.069 65.9634C52.2464 65.9634 56.4446 70.1616 56.4446 75.339C56.4446 80.5164 52.2464 84.7146 47.069 84.7146C41.8916 84.7146 37.6934 80.5198 37.6934 75.339Z" fill="#2195DC"/>
<path fill-rule="evenodd" clip-rule="evenodd" d="M47.0687 67.2532C42.6044 67.2532 38.983 70.8713 38.983 75.339C38.983 79.8066 42.6044 83.4247 47.0687 83.4247C51.5329 83.4247 55.1545 79.8032 55.1545 75.339C55.1545 70.8748 51.5329 67.2532 47.0687 67.2532ZM38.5234 75.339C38.5234 70.6174 42.3508 66.7937 47.0687 66.7937C51.7867 66.7937 55.614 70.621 55.614 75.339C55.614 80.057 51.7867 83.8843 47.0687 83.8843C42.3508 83.8843 38.5234 80.0605 38.5234 75.339Z" fill="#32B0E7"/>
<path fill-rule="evenodd" clip-rule="evenodd" d="M47.0686 68.1976C43.1233 68.1976 39.9273 71.3935 39.9273 75.3389C39.9273 79.2842 43.1233 82.4802 47.0686 82.4802C51.0103 82.4802 54.2099 79.2806 54.2099 75.3389C54.2099 71.3935 51.014 68.1976 47.0686 68.1976ZM39.4678 75.3389C39.4678 71.1397 42.8695 67.738 47.0686 67.738C51.2677 67.738 54.6695 71.1397 54.6695 75.3389C54.6695 79.5343 51.2641 82.9397 47.0686 82.9397C42.8695 82.9397 39.4678 79.538 39.4678 75.3389Z" fill="#45CAF2"/>
<path fill-rule="evenodd" clip-rule="evenodd" d="M47.0692 69.2564C43.71 69.2564 40.9869 71.9795 40.9869 75.3388C40.9869 78.698 43.71 81.4211 47.0692 81.4211C50.4285 81.4211 53.1516 78.698 53.1516 75.3388C53.1516 71.9795 50.4285 69.2564 47.0692 69.2564ZM40.5273 75.3388C40.5273 71.7257 43.4562 68.7969 47.0692 68.7969C50.6822 68.7969 53.6111 71.7257 53.6111 75.3388C53.6111 78.9518 50.6822 81.8806 47.0692 81.8806C43.4562 81.8806 40.5273 78.9518 40.5273 75.3388Z" fill="#50E6FF"/>
</g>
<g opacity="0.5">
<path fill-rule="evenodd" clip-rule="evenodd" d="M65.6622 56.7549C60.7386 56.7549 56.7462 60.7441 56.7462 65.671C56.7462 70.5979 60.7386 74.5871 65.6622 74.5871C70.5858 74.5871 74.5783 70.5946 74.5783 65.671C74.5783 60.7474 70.5858 56.7549 65.6622 56.7549ZM56.2866 65.671C56.2866 60.4902 60.4849 56.2954 65.6622 56.2954C70.8396 56.2954 75.0378 60.4936 75.0378 65.671C75.0378 70.8484 70.8396 75.0466 65.6622 75.0466C60.4849 75.0466 56.2866 70.8518 56.2866 65.671Z" fill="#2195DC"/>
<path fill-rule="evenodd" clip-rule="evenodd" d="M65.662 57.5853C61.1977 57.5853 57.5762 61.2034 57.5762 65.671C57.5762 70.1386 61.1977 73.7568 65.662 73.7568C70.1262 73.7568 73.7477 70.1352 73.7477 65.671C73.7477 61.2068 70.1262 57.5853 65.662 57.5853ZM57.1167 65.671C57.1167 60.9495 60.944 57.1257 65.662 57.1257C70.38 57.1257 74.2073 60.953 74.2073 65.671C74.2073 70.389 70.38 74.2163 65.662 74.2163C60.944 74.2163 57.1167 70.3926 57.1167 65.671Z" fill="#32B0E7"/>
<path fill-rule="evenodd" clip-rule="evenodd" d="M65.6619 58.5296C61.7165 58.5296 58.5206 61.7256 58.5206 65.6709C58.5206 69.6162 61.7165 72.8122 65.6619 72.8122C69.6036 72.8122 72.8032 69.6126 72.8032 65.6709C72.8032 61.7256 69.6072 58.5296 65.6619 58.5296ZM58.061 65.6709C58.061 61.4718 61.4627 58.0701 65.6619 58.0701C69.861 58.0701 73.2627 61.4718 73.2627 65.6709C73.2627 69.8664 69.8573 73.2718 65.6619 73.2718C61.4627 73.2718 58.061 69.87 58.061 65.6709Z" fill="#45CAF2"/>
<path fill-rule="evenodd" clip-rule="evenodd" d="M65.662 59.588C62.3028 59.588 59.5796 62.3111 59.5796 65.6703C59.5796 69.0295 62.3028 71.7527 65.662 71.7527C69.0212 71.7527 71.7444 69.0295 71.7444 65.6703C71.7444 62.3111 69.0212 59.588 65.662 59.588ZM59.1201 65.6703C59.1201 62.0573 62.049 59.1284 65.662 59.1284C69.275 59.1284 72.2039 62.0573 72.2039 65.6703C72.2039 69.2833 69.275 72.2122 65.662 72.2122C62.049 72.2122 59.1201 69.2833 59.1201 65.6703Z" fill="#50E6FF"/>
</g>
<path d="M47.4069 66.2874C44.9157 66.2874 42.5265 65.2978 40.7649 63.5362C39.0033 61.7746 38.0137 59.3854 38.0137 56.8941V49.6731H46.5087C49 49.6731 51.3892 50.6627 53.1508 52.4243C54.9123 54.1859 55.902 56.5751 55.902 59.0663V66.3109H47.4069V66.2874Z" fill="#F3FBC1"/>
<g filter="url(#filter0_d_861_9800)">
<path d="M56.8121 65.9115V59.0427C56.8129 57.6922 56.5476 56.3549 56.0313 55.107C55.5151 53.8591 54.758 52.7252 53.8034 51.77C52.8487 50.8148 51.7152 50.0571 50.4677 49.5401C49.2201 49.0232 47.8828 48.7571 46.5324 48.7571H37.1392V56.9175C37.1392 59.6438 38.2222 62.2585 40.15 64.1863C42.0778 66.1141 44.6925 67.1972 47.4189 67.1972H55.0157V94.7463H56.8298V65.9115H56.8121ZM41.419 62.9056C40.6295 62.1226 40.0034 61.1906 39.5771 60.1636C39.1508 59.1367 38.9328 58.0352 38.9357 56.9233V50.5888H46.5148C48.7586 50.5903 50.91 51.4819 52.4971 53.0679C54.0842 54.6539 54.9773 56.8048 54.9805 59.0486V63.3988C53.7701 61.7006 52.3935 60.1272 50.8709 58.7022C49.2375 57.0755 47.327 55.7534 45.2291 54.7981C45.1614 54.7714 45.0867 54.7685 45.0171 54.7896C44.9474 54.8108 44.8869 54.8548 44.8455 54.9146C44.804 54.9744 44.784 55.0465 44.7886 55.1191C44.7932 55.1917 44.8223 55.2607 44.871 55.3147C46.2095 56.7413 48.6224 59.3186 49.3856 60.1757C50.1488 61.0329 52.7672 64.0211 53.9238 65.3538H47.4071C46.2966 65.3627 45.1954 65.1508 44.1674 64.7306C43.1394 64.3103 42.2052 63.69 41.419 62.9056Z" fill="url(#paint3_linear_861_9800)"/>
</g>
<path d="M59.792 71.0668V65.7831C59.7951 64.4673 60.3196 63.2065 61.2505 62.2766C62.1814 61.3468 63.443 60.8238 64.7587 60.8223H71.1109V66.106C71.1093 67.4212 70.5861 68.6821 69.6561 69.6121C68.7261 70.5421 67.4653 71.0652 66.1501 71.0668H59.792Z" fill="url(#paint4_linear_861_9800)"/>
<g filter="url(#filter1_d_861_9800)">
<path d="M64.759 59.8889C63.2019 59.8889 61.7086 60.5074 60.6076 61.6084C59.5067 62.7094 58.8882 64.2027 58.8882 65.7597V93.8713H60.7081V71.9827H66.1327C67.6897 71.9827 69.183 71.3642 70.284 70.2632C71.3849 69.1622 72.0035 67.669 72.0035 66.1119V59.8889H64.7648H64.759ZM70.1836 66.106C70.182 67.1799 69.7547 68.2094 68.9953 68.9687C68.236 69.728 67.2066 70.1553 66.1327 70.1569H61.3011C62.0232 69.2117 63.3089 67.5268 63.8079 66.9691C64.2071 66.5229 65.2697 65.3898 66.1562 64.4564C66.2157 64.389 66.2494 64.3029 66.2516 64.2131C66.2538 64.1233 66.2241 64.0356 66.168 63.9655C66.1119 63.8953 66.0329 63.8472 65.9448 63.8296C65.8567 63.812 65.7653 63.8261 65.6865 63.8693C64.6548 64.4562 63.7036 65.1745 62.8568 66.0063C62.0942 66.7293 61.3804 67.502 60.7199 68.3193V65.7714C60.7214 64.6975 61.1487 63.6681 61.908 62.9088C62.6673 62.1494 63.6968 61.7221 64.7706 61.7206H70.1952V66.1119L70.1836 66.106Z" fill="url(#paint5_linear_861_9800)"/>
</g>
<path d="M52.1997 79.7518V75.0851C52.197 73.923 51.7337 72.8094 50.9115 71.9881C50.0893 71.1669 48.9751 70.705 47.813 70.7036H42.2026V75.3703C42.204 76.5319 42.6661 77.6456 43.4875 78.4669C44.3089 79.2883 45.4225 79.7504 46.5841 79.7518H52.1997Z" fill="#CEF885"/>
<g filter="url(#filter2_d_861_9800)">
<path d="M47.8129 69.8784C49.1881 69.8784 50.507 70.4247 51.4794 71.3971C52.4518 72.3695 52.998 73.6884 52.998 75.0636V96.2007H51.3906V80.5599H46.5995C45.2243 80.5599 43.9055 80.0136 42.9331 79.0412C41.9606 78.0688 41.4143 76.7499 41.4143 75.3747V69.8784H47.8077H47.8129ZM43.0217 75.3695C43.0231 76.318 43.4005 77.2272 44.0712 77.8979C44.7419 78.5685 45.6511 78.9459 46.5995 78.9473H50.8669C50.2292 78.1125 49.0936 76.6244 48.6529 76.1318C48.3003 75.7377 47.3617 74.7369 46.5788 73.9125C46.5263 73.853 46.4964 73.7769 46.4945 73.6976C46.4926 73.6183 46.5188 73.5409 46.5683 73.4789C46.6179 73.417 46.6877 73.3745 46.7655 73.3589C46.8433 73.3434 46.9241 73.3558 46.9936 73.394C47.9048 73.9123 48.745 74.5468 49.4929 75.2814C50.1665 75.92 50.7969 76.6024 51.3803 77.3243V75.074C51.3789 74.1255 51.0016 73.2163 50.3309 72.5456C49.6602 71.8749 48.751 71.4976 47.8025 71.4962H43.0114V75.3747L43.0217 75.3695Z" fill="url(#paint6_linear_861_9800)"/>
</g>
<path fill-rule="evenodd" clip-rule="evenodd" d="M94.6422 50.9999C94.6422 74.7999 75.3522 94.0899 51.5522 94.0899C27.7522 94.0899 8.46217 74.7999 8.46217 50.9999C8.46217 27.1999 27.7522 7.90993 51.5522 7.90993C75.3522 7.90993 94.6422 27.1999 94.6422 50.9999ZM51.5522 4.16992C77.4122 4.16992 98.3822 25.1399 98.3822 50.9999C98.3822 76.8599 77.4122 97.8299 51.5522 97.8299C25.6922 97.8299 4.72217 76.8599 4.72217 50.9999C4.72217 25.1399 25.6822 4.16992 51.5522 4.16992Z" fill="url(#paint7_linear_861_9800)"/>
<defs>
<filter id="filter0_d_861_9800" x="17.1392" y="30.7571" width="59.6904" height="85.9893" filterUnits="userSpaceOnUse" color-interpolation-filters="sRGB">
<feFlood flood-opacity="0" result="BackgroundImageFix"/>
<feColorMatrix in="SourceAlpha" type="matrix" values="0 0 0 0 0 0 0 0 0 0 0 0 0 0 0 0 0 0 127 0" result="hardAlpha"/>
<feOffset dy="2"/>
<feGaussianBlur stdDeviation="10"/>
<feComposite in2="hardAlpha" operator="out"/>
<feColorMatrix type="matrix" values="0 0 0 0 0.901961 0 0 0 0 0.972549 0 0 0 0 0.513726 0 0 0 0.15 0"/>
<feBlend mode="normal" in2="BackgroundImageFix" result="effect1_dropShadow_861_9800"/>
<feBlend mode="normal" in="SourceGraphic" in2="effect1_dropShadow_861_9800" result="shape"/>
</filter>
<filter id="filter1_d_861_9800" x="38.8882" y="41.8889" width="53.1152" height="73.9824" filterUnits="userSpaceOnUse" color-interpolation-filters="sRGB">
<feFlood flood-opacity="0" result="BackgroundImageFix"/>
<feColorMatrix in="SourceAlpha" type="matrix" values="0 0 0 0 0 0 0 0 0 0 0 0 0 0 0 0 0 0 127 0" result="hardAlpha"/>
<feOffset dy="2"/>
<feGaussianBlur stdDeviation="10"/>
<feComposite in2="hardAlpha" operator="out"/>
<feColorMatrix type="matrix" values="0 0 0 0 0.901961 0 0 0 0 0.972549 0 0 0 0 0.513726 0 0 0 0.15 0"/>
<feBlend mode="normal" in2="BackgroundImageFix" result="effect1_dropShadow_861_9800"/>
<feBlend mode="normal" in="SourceGraphic" in2="effect1_dropShadow_861_9800" result="shape"/>
</filter>
<filter id="filter2_d_861_9800" x="21.4146" y="51.8784" width="51.5835" height="66.3223" filterUnits="userSpaceOnUse" color-interpolation-filters="sRGB">
<feFlood flood-opacity="0" result="BackgroundImageFix"/>
<feColorMatrix in="SourceAlpha" type="matrix" values="0 0 0 0 0 0 0 0 0 0 0 0 0 0 0 0 0 0 127 0" result="hardAlpha"/>
<feOffset dy="2"/>
<feGaussianBlur stdDeviation="10"/>
<feComposite in2="hardAlpha" operator="out"/>
<feColorMatrix type="matrix" values="0 0 0 0 0.901961 0 0 0 0 0.972549 0 0 0 0 0.513726 0 0 0 0.15 0"/>
<feBlend mode="normal" in2="BackgroundImageFix" result="effect1_dropShadow_861_9800"/>
<feBlend mode="normal" in="SourceGraphic" in2="effect1_dropShadow_861_9800" result="shape"/>
</filter>
<linearGradient id="paint0_linear_861_9800" x1="49.7783" y1="-13.7896" x2="53.7603" y2="131.981" gradientUnits="userSpaceOnUse">
<stop stop-color="#00ABDE"/>
<stop offset="1" stop-color="#007ED8"/>
</linearGradient>
<linearGradient id="paint1_linear_861_9800" x1="51.32" y1="76.7193" x2="51.32" y2="27.4639" gradientUnits="userSpaceOnUse">
<stop stop-color="#003067"/>
<stop offset="0.2" stop-color="#003F7C"/>
<stop offset="0.47" stop-color="#004F90"/>
<stop offset="0.74" stop-color="#00589D"/>
<stop offset="1" stop-color="#005BA1"/>
</linearGradient>
<linearGradient id="paint2_linear_861_9800" x1="50.4672" y1="14.811" x2="51.7845" y2="68.2556" gradientUnits="userSpaceOnUse">
<stop offset="0.5727" stop-color="white" stop-opacity="0"/>
<stop offset="0.7823" stop-color="white" stop-opacity="0.4301"/>
<stop offset="0.9044" stop-color="white" stop-opacity="0.5"/>
<stop offset="0.9993" stop-color="white"/>
</linearGradient>
<linearGradient id="paint3_linear_861_9800" x1="67.2513" y1="48.6743" x2="54.942" y2="93.6678" gradientUnits="userSpaceOnUse">
<stop offset="0.0833333" stop-color="#9BF00B"/>
<stop offset="0.625" stop-color="#0D7012"/>
<stop offset="0.916667" stop-color="#043810"/>
</linearGradient>
<linearGradient id="paint4_linear_861_9800" x1="60.5201" y1="61.9572" x2="70.6505" y2="71.9028" gradientUnits="userSpaceOnUse">
<stop offset="0.104167" stop-color="#F3FABF"/>
<stop offset="0.838542" stop-color="#CFF885"/>
</linearGradient>
<linearGradient id="paint5_linear_861_9800" x1="78.9449" y1="59.8308" x2="69.916" y2="91.1608" gradientUnits="userSpaceOnUse">
<stop offset="0.0833333" stop-color="#9BF00B"/>
<stop offset="0.625" stop-color="#0D7012"/>
<stop offset="0.916667" stop-color="#043810"/>
</linearGradient>
<linearGradient id="paint6_linear_861_9800" x1="31.1815" y1="62.9706" x2="35.1681" y2="90.5064" gradientUnits="userSpaceOnUse">
<stop offset="0.0833333" stop-color="#9BF00B"/>
<stop offset="0.625" stop-color="#0D7012"/>
<stop offset="0.916667" stop-color="#043810"/>
</linearGradient>
<linearGradient id="paint7_linear_861_9800" x1="2.98257" y1="-20.6227" x2="98.5101" y2="120.259" gradientUnits="userSpaceOnUse">
<stop stop-color="#007ED8"/>
<stop offset="0.7065" stop-color="#002D4C"/>
</linearGradient>
</defs>
</svg>
